<svg width="50" height="50" viewBox="0 0 50 50" fill="none" xmlns="http://www.w3.org/2000/svg">
<g clip-path="url(#clip0_1_392)">
<path d="M1.782 5.7C1.88696 4.74531 2.3198 3.85658 3.00673 3.18534C3.69366 2.51409 4.59214 2.10189 5.549 2.019C12.011 1.34683 18.5032 1.00672 25 1C31.4968 1.00673 37.989 1.34684 44.451 2.019C45.4079 2.10189 46.3063 2.51409 46.9933 3.18534C47.6802 3.85658 48.113 4.74531 48.218 5.7C48.8116 12.1155 49.0726 18.5575 49 25C49.0726 31.4425 48.8116 37.8845 48.218 44.3C48.1139 45.2554 47.6814 46.1451 46.9944 46.8171C46.3074 47.4892 45.4085 47.902 44.451 47.985C37.989 48.6557 31.4968 48.9945 25 49C18.5032 48.9932 12.011 48.6531 5.549 47.981C4.59214 47.8981 3.69366 47.4859 3.00673 46.8147C2.3198 46.1434 1.88696 45.2547 1.782 44.3C1.18836 37.8845 0.927344 31.4425 0.999998 25C0.927334 18.5575 1.18835 12.1155 1.782 5.7Z" stroke="#084481" stroke-width="2"/>
<path d="M13.857 13.857L36.143 36.143" stroke="#084481" stroke-width="2" stroke-linecap="round"/>
<path d="M36.143 13.857L13.857 36.143" stroke="#084481" stroke-width="2" stroke-linecap="round"/>
</g>
<defs>
<clipPath id="clip0_1_392">
<rect width="50" height="50" fill="white"/>
</clipPath>
</defs>
</svg>
