<svg width="77" height="72" viewBox="0 0 77 72" fill="none" xmlns="http://www.w3.org/2000/svg">
<path d="M20.4752 56.6933C19.2798 56.6933 18.1552 56.6933 17.0291 56.6933C13.0948 56.6902 9.15883 56.7091 5.22448 56.676C2.46981 56.6524 0.00808524 54.1528 0.00651024 51.4013C-0.00136476 36.1585 -0.00293976 20.9172 0.00651024 5.67433C0.00808524 2.41408 2.42256 0.00748125 5.68281 0.00590625C25.7515 -0.00196875 45.8217 -0.00196875 65.8903 0.00590625C69.0703 0.00590625 71.4706 2.45031 71.4769 5.68693C71.491 14.7385 71.48 23.7884 71.4847 32.8399C71.4847 33.9661 71.3241 33.8133 72.499 33.8259C72.918 33.8306 73.3385 33.8196 73.7575 33.8306C75.6018 33.8794 76.8303 35.1347 76.8319 36.9995C76.8382 44.1878 76.835 51.3761 76.835 58.5644C76.835 61.6593 76.8397 64.7557 76.835 67.8506C76.8303 69.9328 75.5876 71.1676 73.496 71.1676C53.8731 71.1691 34.2502 71.1676 14.6272 71.166C12.9404 71.166 12.0033 70.1832 11.9986 68.4349C11.9938 66.589 12.8695 65.633 14.6068 65.6125C15.6557 65.5999 16.7047 65.6062 17.7536 65.6125C18.0607 65.6141 18.3364 65.5999 18.4088 65.2188C18.4529 64.9873 18.5159 64.7605 18.5726 64.5305C19.2026 61.9396 19.831 59.3488 20.4768 56.6917L20.4752 56.6933ZM35.7874 5.00338C26.0806 5.00338 16.3723 5.00338 6.66561 5.00338C5.30796 5.00338 5.01659 5.29633 5.01659 6.66816C5.01659 17.4254 5.01659 28.1811 5.01659 38.9383C5.01659 40.3322 5.31426 40.6315 6.73176 40.633C17.4622 40.6346 28.1927 40.6362 38.9232 40.6362C43.8561 40.6362 48.7874 40.622 53.7203 40.6488C54.355 40.6519 54.5346 40.4645 54.5015 39.8518C54.4543 38.9368 54.4858 38.0154 54.4921 37.0972C54.5031 35.1174 55.7647 33.8432 57.7287 33.8385C60.3778 33.8322 63.0286 33.8086 65.6777 33.8542C66.4306 33.8668 66.5912 33.6085 66.5896 32.9092C66.5692 24.1727 66.577 15.4362 66.5755 6.69966C66.5755 5.38453 66.1959 5.00338 64.9075 5.00338C55.2008 5.00338 45.4925 5.00338 35.7858 5.00338H35.7874ZM75.5719 52.4975C75.5719 48.4309 75.5608 44.3626 75.5845 40.296C75.5876 39.7164 75.4443 39.5353 74.8442 39.5368C68.7301 39.5589 62.6159 39.5557 56.5033 39.54C55.9159 39.5384 55.741 39.729 55.7426 40.3102C55.7584 48.4183 55.7599 56.5264 55.741 64.6345C55.741 65.2361 55.9253 65.3794 56.5033 65.3779C62.5907 65.359 68.6781 65.3558 74.7655 65.381C75.4317 65.3842 75.5923 65.1857 75.5876 64.5415C75.5593 60.5269 75.5734 56.5122 75.5719 52.4975ZM27.9533 45.6431C19.3491 45.6431 10.7449 45.6494 2.13906 45.6289C1.47914 45.6289 1.21296 45.7502 1.24289 46.481C1.30431 47.9741 1.24604 49.4704 1.26494 50.9666C1.29644 53.485 3.15809 55.416 5.59934 55.4176C21.6549 55.4254 37.7089 55.4176 53.7644 55.4349C54.3724 55.4349 54.5078 55.2396 54.5015 54.6694C54.4747 51.9683 54.4574 49.2656 54.5078 46.5645C54.522 45.7754 54.2637 45.6258 53.5297 45.6274C45.0043 45.6526 36.4788 45.6431 27.9517 45.6431H27.9533ZM35.7417 1.26276C25.7184 1.26276 15.6951 1.26276 5.67178 1.26276C3.14391 1.26276 1.26179 3.14961 1.26179 5.68378C1.26179 18.2523 1.26179 30.8208 1.26179 43.3893C1.26179 44.0623 1.60566 44.3994 2.29341 44.4004C19.1916 44.4004 36.0898 44.4004 52.9879 44.4004C53.9812 44.4004 54.4774 43.9012 54.4763 42.9026C54.4763 42.2222 54.1361 41.882 53.4557 41.882C37.8427 41.882 22.2313 41.882 6.61836 41.882C6.38211 41.882 6.14428 41.8962 5.90961 41.8773C4.69056 41.7796 3.78179 40.8063 3.78179 39.5825C3.77864 28.4047 3.78179 17.227 3.77391 6.04918C3.77391 5.39713 4.01331 4.87738 4.46219 4.44111C5.12526 3.79851 5.95529 3.62368 6.84516 3.62368C13.6933 3.62368 20.5414 3.62368 27.391 3.62368C39.802 3.62368 52.213 3.62053 64.624 3.63156C65.4257 3.63156 66.2195 3.68668 66.892 4.28833C67.6244 4.94196 67.8591 5.73891 67.8591 6.66816C67.8559 15.3007 67.8544 23.9333 67.8591 32.5659C67.8591 34.0401 67.6748 33.8369 69.1648 33.8495C70.2184 33.859 70.2184 33.8495 70.2184 32.7848C70.2184 23.8372 70.1932 14.8897 70.2342 5.94208C70.2468 3.20788 68.2733 1.23913 65.5738 1.24858C55.6292 1.28166 45.6847 1.26118 35.7401 1.26118L35.7417 1.26276ZM35.737 65.5354V65.5322C40.8226 65.5322 45.9099 65.5243 50.9956 65.5432C51.6208 65.5464 51.8791 65.5086 51.676 64.7463C51.0302 62.3192 50.4632 59.8717 49.8915 57.4257C49.7655 56.887 49.556 56.6791 48.9559 56.6807C40.147 56.7043 31.3364 56.7043 22.5274 56.6807C21.9384 56.6807 21.7116 56.8666 21.584 57.4162C21.0154 59.8622 20.4437 62.3098 19.8027 64.7368C19.6074 65.4771 19.8326 65.5464 20.4752 65.5432C25.5609 65.5228 30.6481 65.5322 35.7338 65.5322L35.737 65.5354ZM34.4596 69.906C37.5293 69.906 40.599 69.906 43.6687 69.906C47.2108 69.906 50.753 69.9013 54.2952 69.9123C54.7897 69.9139 55.0606 69.8824 54.7535 69.2839C54.5283 68.8444 54.4243 68.3326 54.4952 67.8317C54.6039 67.0663 54.3046 66.8757 53.5486 66.8773C42.1882 66.9056 30.8277 66.904 19.4656 66.9072C17.8135 66.9072 16.1597 66.9135 14.5075 66.8914C13.8933 66.8836 13.5058 67.1513 13.3137 67.7089C12.8711 68.9941 13.5153 69.9044 14.8588 69.906C21.3919 69.906 27.925 69.906 34.4581 69.906H34.4596ZM65.6194 38.2611C68.6891 38.2611 71.7588 38.2642 74.8285 38.2548C75.0883 38.2548 75.4175 38.3855 75.5593 37.987C76.0633 36.5648 75.049 35.1127 73.5417 35.1111C68.3993 35.1111 63.2554 35.1505 58.1146 35.089C56.2907 35.067 55.6906 36.0041 55.719 37.5208C55.73 38.1162 55.9096 38.2753 56.4892 38.2705C59.5321 38.2453 62.5765 38.2579 65.6194 38.2579V38.2611ZM65.6352 66.7576C62.5923 66.7576 59.5478 66.7544 56.5049 66.7639C56.2009 66.7639 55.7993 66.6095 55.7363 67.1655C55.5331 68.9263 56.4671 69.9438 58.072 69.9265C63.1357 69.8729 68.2009 69.8698 73.2645 69.9296C74.7844 69.9485 75.6742 69.1185 75.6049 67.597C75.5719 66.8741 75.3498 66.7371 74.6899 66.7434C71.6722 66.7749 68.6545 66.7576 65.6383 66.7576H65.6352ZM51.0034 56.6933C51.2271 57.6194 51.4334 58.4778 51.6429 59.3362C52.1138 61.2671 52.6084 63.1933 53.0478 65.1322C53.2084 65.8378 53.7124 65.5574 54.1046 65.6015C54.5677 65.6519 54.4999 65.296 54.4999 65.0156C54.5031 62.4216 54.4999 59.826 54.5062 57.232C54.5062 56.9122 54.4889 56.6776 54.0589 56.687C53.0667 56.7091 52.0729 56.6949 51.0034 56.6949V56.6933Z" fill="#3963CB"/>
<path d="M35.7873 5.0018C45.4941 5.0018 55.2024 5.0018 64.9091 5.0018C66.1974 5.0018 66.577 5.38295 66.577 6.69807C66.5802 15.4346 66.5707 24.1711 66.5912 32.9076C66.5928 33.6069 66.4321 33.8652 65.6793 33.8526C63.0301 33.807 60.3794 33.8306 57.7302 33.8369C55.7662 33.8416 54.5046 35.1158 54.4936 37.0956C54.4889 38.0138 54.4558 38.9336 54.5031 39.8502C54.5346 40.4629 54.3566 40.6504 53.7219 40.6472C48.789 40.622 43.8576 40.6346 38.9247 40.6346C28.1943 40.6346 17.4638 40.6346 6.7333 40.6315C5.3158 40.6315 5.01813 40.3322 5.01813 38.9367C5.01813 28.1795 5.01813 17.4238 5.01813 6.66658C5.01813 5.29475 5.30793 5.0018 6.66715 5.0018C16.3739 5.0018 26.0822 5.0018 35.7889 5.0018H35.7873Z" fill="#A2C7FD"/>
<path d="M75.5734 52.4975C75.5734 56.5121 75.5592 60.5268 75.5892 64.5415C75.5939 65.1857 75.4332 65.3825 74.767 65.381C68.6796 65.3558 62.5923 65.3573 56.5049 65.3778C55.9269 65.3794 55.741 65.2376 55.7426 64.6344C55.7615 56.5263 55.7599 48.4182 55.7442 40.3101C55.7442 39.7289 55.9174 39.5384 56.5049 39.5399C62.619 39.5573 68.7332 39.5588 74.8458 39.5368C75.4458 39.5352 75.5892 39.7163 75.586 40.2959C75.5624 44.3626 75.5734 48.4308 75.5734 52.4975Z" fill="#A2C7FD"/>
<path d="M27.9533 45.6431C36.4788 45.6431 45.0058 45.6525 53.5313 45.6273C54.2637 45.6258 54.5235 45.7754 54.5094 46.5645C54.459 49.2656 54.4763 51.9683 54.5031 54.6694C54.5094 55.2396 54.3739 55.4349 53.766 55.4349C37.7104 55.4191 21.6564 55.427 5.60089 55.4175C3.15807 55.4175 1.29642 53.4866 1.26649 50.9666C1.24759 49.4719 1.30587 47.9741 1.24444 46.481C1.21452 45.7502 1.48069 45.6273 2.14062 45.6289C10.7448 45.6494 19.3491 45.6431 27.9549 45.6431H27.9533ZM35.7338 53.5417C37.5057 53.7024 38.8098 52.2486 38.8381 50.5366C38.8665 48.7868 37.5246 47.4465 35.7795 47.4276C33.9887 47.4071 32.6421 48.7364 32.6358 50.5287C32.6295 52.3132 33.891 53.5386 35.7338 53.5401V53.5417Z" fill="#6ADBDB"/>
<path d="M35.7417 1.26273C45.6862 1.26273 55.6308 1.2832 65.5753 1.25013C68.2749 1.24068 70.2483 3.20943 70.2357 5.94363C70.1948 14.8912 70.22 23.8388 70.22 32.7863C70.22 33.8526 70.22 33.8605 69.1663 33.8511C67.6764 33.8385 67.8622 34.0416 67.8606 32.5674C67.8559 23.9348 67.8575 15.3023 67.8606 6.6697C67.8606 5.74045 67.6244 4.9435 66.8936 4.28988C66.2211 3.68823 65.4273 3.63468 64.6256 3.6331C52.2146 3.62208 39.8036 3.62523 27.3926 3.62523C20.5445 3.62523 13.6964 3.62523 6.84671 3.62523C5.95684 3.62523 5.12839 3.80005 4.46374 4.44265C4.01329 4.87893 3.77389 5.39868 3.77546 6.05073C3.78334 17.2285 3.78019 28.4063 3.78334 39.5841C3.78334 40.8078 4.69211 41.7812 5.91116 41.8788C6.14584 41.8977 6.38366 41.8835 6.61991 41.8835C22.2329 41.8835 37.8443 41.8835 53.4573 41.8835C54.1377 41.8835 54.4779 42.2238 54.4779 42.9042C54.4779 43.9027 53.9817 44.402 52.9895 44.402C36.0913 44.402 19.1931 44.402 2.29496 44.402C1.60826 44.402 1.26439 44.0649 1.26334 43.3908C1.26334 30.8223 1.26334 18.2538 1.26334 5.68533C1.26334 3.15115 3.14546 1.2643 5.67334 1.2643C15.6966 1.2643 25.7199 1.2643 35.7432 1.2643L35.7417 1.26273Z" fill="#4570C4"/>
<path d="M35.7369 65.5353C30.6513 65.5353 25.564 65.5259 20.4783 65.5464C19.8357 65.5495 19.6089 65.4802 19.8058 64.74C20.4468 62.3113 21.0201 59.8653 21.5871 57.4194C21.7147 56.8697 21.9415 56.6823 22.5306 56.6838C31.3395 56.7059 40.1501 56.7059 48.9591 56.6838C49.5591 56.6823 49.7686 56.8902 49.8946 57.4288C50.4648 59.8748 51.0333 62.3224 51.6791 64.7494C51.8823 65.5117 51.624 65.548 50.9987 65.5464C45.913 65.5275 40.8258 65.5353 35.7401 65.5353V65.5385L35.7369 65.5353Z" fill="#F6CDCD"/>
<path d="M34.4596 69.906C27.9265 69.906 21.3934 69.906 14.8603 69.906C13.5168 69.906 12.8727 68.994 13.3152 67.7088C13.5074 67.1513 13.8948 66.8835 14.5091 66.8914C16.1613 66.9135 17.815 66.9087 19.4672 66.9072C30.8277 66.904 42.1897 66.9072 53.5502 66.8772C54.3062 66.8757 54.6054 67.0662 54.4968 67.8317C54.4259 68.3341 54.5283 68.8444 54.7551 69.2838C55.0622 69.8823 54.7913 69.9138 54.2967 69.9123C50.7546 69.9012 47.2124 69.906 43.6702 69.906C40.6005 69.906 37.5309 69.906 34.4612 69.906H34.4596Z" fill="#6ADBDB"/>
<path d="M65.6194 38.2611C62.5765 38.2611 59.532 38.2469 56.4891 38.2737C55.9095 38.2784 55.7316 38.1193 55.719 37.524C55.689 36.0057 56.2907 35.0701 58.1145 35.0922C63.2569 35.1536 68.3993 35.1127 73.5417 35.1142C75.0489 35.1142 76.0632 36.5664 75.5592 37.9902C75.4175 38.3887 75.0899 38.2564 74.8284 38.2579C71.7587 38.2674 68.6891 38.2642 65.6194 38.2642V38.2611ZM65.6997 37.4641C66.3786 37.4641 67.0574 37.4626 67.7362 37.4641C68.2402 37.4657 68.6308 37.3003 68.6497 36.7333C68.6718 36.1112 68.2465 35.9364 67.7204 35.9332C66.336 35.9254 64.9516 35.9254 63.5688 35.9317C63.0585 35.9332 62.6836 36.16 62.682 36.7066C62.682 37.2688 63.0868 37.4531 63.5829 37.461C64.2885 37.4704 64.9925 37.4641 65.6981 37.4641H65.6997Z" fill="#4570C4"/>
<path d="M65.6352 66.7575C68.6529 66.7575 71.6706 66.7748 74.6867 66.7433C75.3466 66.737 75.5687 66.8741 75.6018 67.597C75.6711 69.1184 74.7812 69.9485 73.2613 69.9296C68.1977 69.8681 63.1325 69.8729 58.0689 69.9264C56.4655 69.9437 55.5315 68.9263 55.7331 67.1654C55.7977 66.6095 56.1978 66.7654 56.5017 66.7638C59.5446 66.7544 62.5891 66.7575 65.632 66.7575H65.6352ZM65.6541 69.4334C66.177 69.4334 66.7014 69.4271 67.2243 69.4334C67.9599 69.4429 68.2528 69.0003 68.2953 68.3514C68.3394 67.6852 68.0166 67.1686 67.3503 67.1245C66.2305 67.0489 65.0997 67.0583 63.9767 67.1182C63.2947 67.1544 63.0632 67.6379 63.1262 68.5278C63.1719 69.1862 63.5404 69.4429 64.161 69.4334C64.6587 69.4271 65.1564 69.4334 65.6525 69.4319L65.6541 69.4334Z" fill="#4570C4"/>
<path d="M51.0034 56.6933C52.0713 56.6933 53.0651 56.709 54.0589 56.6854C54.4889 56.6759 54.5062 56.9106 54.5062 57.2303C54.4999 59.8244 54.5031 62.42 54.4999 65.014C54.4999 65.2943 54.5676 65.6503 54.1046 65.5999C53.7124 65.5574 53.2084 65.8361 53.0478 65.1305C52.6083 63.1917 52.1138 61.2655 51.6429 59.3345C51.4334 58.4777 51.2286 57.6194 51.0034 56.6917V56.6933Z" fill="#FDFDFD"/>
<path d="M35.7338 53.5417C33.8895 53.5417 32.6279 52.3148 32.6357 50.5303C32.642 48.738 33.9902 47.4087 35.7794 47.4291C37.5245 47.448 38.8665 48.7884 38.8381 50.5382C38.8098 52.2502 37.5057 53.7039 35.7338 53.5433V53.5417Z" fill="#FDFDFD"/>
<path d="M65.6997 37.4641C64.9941 37.4641 64.2901 37.4704 63.5845 37.4609C63.0884 37.4546 62.682 37.2704 62.6836 36.7065C62.6836 36.16 63.06 35.9332 63.5703 35.9316C64.9548 35.9253 66.3392 35.9269 67.722 35.9332C68.2481 35.9363 68.6733 36.1096 68.6513 36.7333C68.6308 37.3003 68.2418 37.4672 67.7378 37.4641C67.059 37.4609 66.3801 37.4641 65.7013 37.4641H65.6997Z" fill="#F6CDCD"/>
<path d="M65.654 69.4335C65.1563 69.4335 64.6586 69.4287 64.1625 69.4335C63.542 69.4413 63.1734 69.1862 63.1278 68.5278C63.0648 67.6395 63.2963 67.156 63.9783 67.1182C65.0997 67.0584 66.2321 67.0489 67.3519 67.1245C68.0181 67.1686 68.3394 67.6852 68.2969 68.3514C68.2544 69.0019 67.9614 69.4445 67.2259 69.4335C66.703 69.4256 66.1785 69.4335 65.6556 69.4335H65.654Z" fill="#6ADBDB"/>
</svg>
