<svg width="87" height="64" viewBox="0 0 87 64" fill="none" xmlns="http://www.w3.org/2000/svg">
<path d="M70.7197 47.2456H6.6947V4.37361C6.6947 1.95819 8.65274 0 11.0683 0H66.3461C68.7616 0 70.7197 1.95819 70.7197 4.37361V47.2456Z" fill="url(#paint0_linear_1_51)"/>
<path d="M66.3461 0H47.9152V47.2456H70.7196V4.37361C70.7197 1.95819 68.7616 0 66.3461 0Z" fill="url(#paint1_linear_1_51)"/>
<path d="M66.3461 0H51.9185V21.3278H70.7197V4.37361C70.7197 1.95819 68.7615 0 66.3461 0Z" fill="url(#paint2_linear_1_51)"/>
<path d="M6.6947 26.1659H70.7197V47.2458H6.6947V26.1659Z" fill="url(#paint3_linear_1_51)"/>
<path d="M67.632 5.6595V47.2456H9.7829V5.6595C9.7829 4.40908 10.7975 3.39604 12.0464 3.39604H35.813C36.208 3.39604 36.5722 3.58776 36.8169 3.89772C37.2576 4.45595 37.9412 4.8143 38.7075 4.8143C39.4737 4.8143 40.1573 4.45595 40.5981 3.89772C40.8429 3.58776 41.2069 3.39604 41.6019 3.39604H65.3686C66.6175 3.39604 67.632 4.40908 67.632 5.6595Z" fill="url(#paint4_linear_1_51)"/>
<path d="M33.7903 3.39541H12.047C10.7968 3.39541 9.78351 4.40875 9.78351 5.65887V47.2457H33.7903V3.39541Z" fill="url(#paint5_linear_1_51)"/>
<path d="M9.7829 26.166H67.632V47.2454H9.7829V26.166Z" fill="url(#paint6_linear_1_51)"/>
<path d="M67.632 16.3877L63.0308 11.7866L37.5337 17.9871L14.6472 40.8738L21.0187 47.2454H67.632V16.3877Z" fill="url(#paint7_linear_1_51)"/>
<path d="M67.632 5.6595V23.1821H9.7829V5.6595C9.7829 4.40908 10.7975 3.39604 12.0464 3.39604H35.813C36.208 3.39604 36.5722 3.58776 36.8169 3.89772C37.2576 4.45595 37.9412 4.8143 38.7075 4.8143C39.4737 4.8143 40.1573 4.45595 40.5981 3.89772C40.8429 3.58776 41.2069 3.39604 41.6019 3.39604H65.3686C66.6175 3.39604 67.632 4.40908 67.632 5.6595Z" fill="url(#paint8_linear_1_51)"/>
<path d="M67.632 5.65933C67.632 4.4089 66.6175 3.39586 65.3685 3.39586H51.9187V21.328H67.632V5.65933Z" fill="url(#paint9_linear_1_51)"/>
<path d="M38.7072 3.46868C39.2934 3.46868 39.7687 2.99346 39.7687 2.40725C39.7687 1.82105 39.2934 1.34583 38.7072 1.34583C38.121 1.34583 37.6458 1.82105 37.6458 2.40725C37.6458 2.99346 38.121 3.46868 38.7072 3.46868Z" fill="url(#paint10_linear_1_51)"/>
<path d="M72.9141 52.9162H4.50031C2.62739 52.9162 1.00093 51.6268 0.573792 49.8033L0.0535129 47.5826C-0.239966 46.3296 0.710779 45.1303 1.99764 45.1303H75.4166C76.7034 45.1303 77.6543 46.3296 77.3607 47.5826L76.8404 49.8033C76.4135 51.6269 74.787 52.9162 72.9141 52.9162Z" fill="url(#paint11_linear_1_51)"/>
<path d="M0.00299072 47.1721C0.00631712 47.3075 0.0211347 47.4444 0.0534915 47.5826L0.573771 49.8033C1.00106 51.6268 2.62737 52.9162 4.50028 52.9162H72.9141C74.787 52.9162 76.4134 51.6268 76.8406 49.8033L77.3608 47.5826C77.3932 47.4446 77.408 47.3075 77.4114 47.1721H0.00299072Z" fill="url(#paint12_linear_1_51)"/>
<path d="M75.4168 45.1303H59.9882V52.9162H72.9141C74.787 52.9162 76.4135 51.6268 76.8406 49.8033L77.3609 47.5826C77.6544 46.3298 76.7036 45.1303 75.4168 45.1303Z" fill="url(#paint13_linear_1_51)"/>
<path d="M31.6383 45.1303C32.358 45.1343 32.9404 45.7186 32.9404 46.4393C32.9404 47.1625 33.5266 47.7487 34.2498 47.7487H43.1646C43.8878 47.7487 44.474 47.1625 44.474 46.4393C44.474 45.7186 45.0562 45.1343 45.7761 45.1303H31.6383Z" fill="url(#paint14_linear_1_51)"/>
<path d="M62.9811 11.3454C55.2291 7.72708 46.7106 7.78635 38.9846 11.5222C31.2586 7.78635 22.7401 7.72708 14.9881 11.3454C14.7602 11.4517 14.6161 11.6825 14.6161 11.9338V40.2331C14.6161 40.7027 15.0988 41.0198 15.5282 40.8297C22.6691 37.6677 30.424 37.5988 37.591 40.6215C38.4816 40.9971 39.4876 40.9971 40.3784 40.6215C47.5454 37.5988 55.3003 37.6677 62.4412 40.8297C62.8706 41.02 63.3532 40.7027 63.3532 40.2331V11.9338C63.3531 11.6825 63.209 11.4517 62.9811 11.3454Z" fill="url(#paint15_linear_1_51)"/>
<path d="M62.9811 11.3454C55.2291 7.72708 46.7106 7.78635 38.9846 11.5222C31.2586 7.78635 22.7401 7.72708 14.9881 11.3454C14.7602 11.4517 14.6161 11.6825 14.6161 11.9338V40.2331C14.6161 40.7027 15.0988 41.0198 15.5282 40.8297C22.6691 37.6677 30.424 37.5988 37.591 40.6215C38.4816 40.9971 39.4876 40.9971 40.3784 40.6215C47.5454 37.5988 55.3003 37.6677 62.4412 40.8297C62.8706 41.02 63.3532 40.7027 63.3532 40.2331V11.9338C63.3531 11.6825 63.209 11.4517 62.9811 11.3454Z" fill="url(#paint16_linear_1_51)"/>
<path d="M62.9811 11.3454C60.0905 9.99614 57.0931 9.15894 54.0701 8.83235V38.5633C56.9053 38.8696 59.7178 39.6241 62.441 40.8299C62.8704 41.0201 63.3531 40.7029 63.3531 40.2333V11.9338C63.3531 11.6825 63.209 11.4517 62.9811 11.3454Z" fill="url(#paint17_linear_1_51)"/>
<path d="M38.9846 11.5222C31.2586 7.78635 22.7401 7.72708 14.9881 11.3454C14.7602 11.4517 14.6161 11.6825 14.6161 11.9338V40.2331C14.6161 40.7027 15.0988 41.0198 15.5282 40.8297C22.6691 37.6677 30.424 37.5988 37.591 40.6215C38.0363 40.8093 38.5104 40.9032 38.9846 40.9032V11.5222Z" fill="url(#paint18_linear_1_51)"/>
<path d="M38.9846 11.5222C31.2586 7.78635 22.7401 7.72708 14.9881 11.3454C14.7602 11.4517 14.6161 11.6825 14.6161 11.9338V40.2331C14.6161 40.7027 15.0988 41.0198 15.5282 40.8297C22.6691 37.6677 30.424 37.5988 37.591 40.6215C38.0363 40.8093 38.5104 40.9032 38.9846 40.9032V11.5222Z" fill="url(#paint19_linear_1_51)"/>
<path d="M38.9846 11.5222C31.2586 7.78635 22.7401 7.72708 14.9881 11.3454C14.7602 11.4517 14.6161 11.6825 14.6161 11.9338V40.2331C14.6161 40.7027 15.0988 41.0198 15.5282 40.8297C22.6691 37.6677 30.424 37.5988 37.591 40.6215C38.0363 40.8093 38.5104 40.9032 38.9846 40.9032V11.5222Z" fill="url(#paint20_linear_1_51)"/>
<path d="M62.441 39.7874C55.3002 36.6253 47.5453 36.5564 40.3782 39.5792C39.4877 39.9548 38.4816 39.9548 37.5909 39.5792C30.4238 36.5564 22.6689 36.6253 15.5281 39.7874C15.0987 39.9776 14.616 39.6604 14.616 39.1907V40.2333C14.616 40.7029 15.0987 41.02 15.5281 40.8299C22.6689 37.6679 30.4238 37.5989 37.5909 40.6217C38.4814 40.9973 39.4875 40.9973 40.3782 40.6217C47.5453 37.5989 55.3002 37.6679 62.441 40.8299C62.8705 41.0201 63.3531 40.7029 63.3531 40.2333V39.1907C63.3531 39.6604 62.8705 39.9774 62.441 39.7874Z" fill="url(#paint21_linear_1_51)"/>
<path d="M61.8585 10.0752C54.4532 6.71933 46.3463 6.82184 38.9847 10.3814C31.623 6.82184 23.5161 6.71933 16.1108 10.0752C15.7123 10.2559 15.457 10.6546 15.457 11.0922V37.362C15.457 38.1597 16.2676 38.6966 17.005 38.3923C23.7797 35.5963 31.0851 35.653 37.8375 38.5613C38.5705 38.877 39.3986 38.877 40.1315 38.5613C46.8839 35.653 54.1893 35.5963 60.964 38.3923C61.7014 38.6966 62.512 38.1599 62.512 37.362V11.0922C62.5123 10.6546 62.2571 10.2559 61.8585 10.0752Z" fill="url(#paint22_linear_1_51)"/>
<path d="M18.5724 15.5601C24.1416 13.6123 30.0289 13.6155 35.5921 15.5605C36.1301 15.7486 36.6916 15.3437 36.6916 14.7738V14.7735C36.6916 14.4174 36.4641 14.1032 36.128 13.9859C30.2147 11.9198 23.9573 11.9167 18.0366 13.9858C17.7005 14.1032 17.4729 14.4174 17.4729 14.7734C17.4729 15.3432 18.0345 15.7482 18.5724 15.5601Z" fill="url(#paint23_linear_1_51)"/>
<path d="M18.5724 19.8018C24.1416 17.8541 30.0289 17.8572 35.5921 19.8023C36.1301 19.9904 36.6916 19.5855 36.6916 19.0156V19.0153C36.6916 18.6592 36.4641 18.345 36.128 18.2275C30.2147 16.1614 23.9573 16.1584 18.0366 18.2274C17.7005 18.3449 17.4729 18.6591 17.4729 19.015C17.4729 19.585 18.0345 19.9899 18.5724 19.8018Z" fill="url(#paint24_linear_1_51)"/>
<path d="M18.5724 24.0434C24.1416 22.0957 30.0289 22.0989 35.5921 24.0439C36.1301 24.232 36.6916 23.8271 36.6916 23.2572V23.2569C36.6916 22.9008 36.4641 22.5866 36.128 22.4691C30.2147 20.403 23.9573 20.4 18.0366 22.469C17.7005 22.5865 17.4729 22.9007 17.4729 23.2566C17.4729 23.8266 18.0345 24.2315 18.5724 24.0434Z" fill="url(#paint25_linear_1_51)"/>
<path d="M18.5724 28.2852C24.1416 26.3374 30.0289 26.3406 35.5921 28.2857C36.1301 28.4737 36.6916 28.0688 36.6916 27.499V27.4987C36.6916 27.1426 36.4641 26.8284 36.128 26.7109C30.2147 24.6448 23.9573 24.6417 18.0366 26.7108C17.7005 26.8282 17.4729 27.1424 17.4729 27.4984C17.4729 28.0684 18.0345 28.4733 18.5724 28.2852Z" fill="url(#paint26_linear_1_51)"/>
<path d="M18.5724 32.5268C24.1416 30.5791 30.0289 30.5822 35.5921 32.5273C36.1301 32.7154 36.6916 32.3104 36.6916 31.7406V31.7403C36.6916 31.3842 36.4641 31.07 36.128 30.9525C30.2147 28.8864 23.9573 28.8834 18.0366 30.9524C17.7005 31.0699 17.4729 31.384 17.4729 31.74C17.4729 32.31 18.0345 32.7151 18.5724 32.5268Z" fill="url(#paint27_linear_1_51)"/>
<path d="M42.3777 15.5601C47.9468 13.6123 53.8341 13.6155 59.3973 15.5605C59.9353 15.7486 60.4969 15.3437 60.4969 14.7738V14.7735C60.4969 14.4174 60.2693 14.1032 59.9332 13.9859C54.0199 11.9198 47.7625 11.9167 41.8418 13.9858C41.5057 14.1032 41.2781 14.4174 41.2781 14.7734C41.2781 15.3432 41.8398 15.7482 42.3777 15.5601Z" fill="url(#paint28_linear_1_51)"/>
<path d="M42.3777 19.8018C47.9468 17.8541 53.8341 17.8572 59.3973 19.8023C59.9353 19.9904 60.4969 19.5855 60.4969 19.0156V19.0153C60.4969 18.6592 60.2693 18.345 59.9332 18.2275C54.0199 16.1614 47.7625 16.1584 41.8418 18.2274C41.5057 18.3449 41.2781 18.6591 41.2781 19.015C41.2781 19.585 41.8398 19.9899 42.3777 19.8018Z" fill="url(#paint29_linear_1_51)"/>
<path d="M42.3777 24.0434C47.9468 22.0957 53.8341 22.0989 59.3973 24.0439C59.9353 24.232 60.4969 23.8271 60.4969 23.2572V23.2569C60.4969 22.9008 60.2693 22.5866 59.9332 22.4691C54.0199 20.403 47.7625 20.4 41.8418 22.469C41.5057 22.5865 41.2781 22.9007 41.2781 23.2566C41.2781 23.8266 41.8398 24.2315 42.3777 24.0434Z" fill="url(#paint30_linear_1_51)"/>
<path d="M42.3777 28.2852C47.9468 26.3374 53.8341 26.3406 59.3973 28.2857C59.9353 28.4737 60.4969 28.0688 60.4969 27.499V27.4987C60.4969 27.1426 60.2693 26.8284 59.9332 26.7109C54.0199 24.6448 47.7625 24.6417 41.8418 26.7108C41.5057 26.8282 41.2781 27.1424 41.2781 27.4984C41.2781 28.0684 41.8398 28.4733 42.3777 28.2852Z" fill="url(#paint31_linear_1_51)"/>
<path d="M42.3777 32.5268C47.9468 30.5791 53.8341 30.5822 59.3973 32.5273C59.9353 32.7154 60.4969 32.3104 60.4969 31.7406V31.7403C60.4969 31.3842 60.2693 31.07 59.9332 30.9525C54.0199 28.8864 47.7625 28.8834 41.8418 30.9524C41.5057 31.0699 41.2781 31.384 41.2781 31.74C41.2781 32.31 41.8398 32.7151 42.3777 32.5268Z" fill="url(#paint32_linear_1_51)"/>
<path d="M61.8585 10.0752C59.7617 9.12492 57.6086 8.45269 55.4322 8.05685V36.7625C57.3003 37.1021 59.1514 37.644 60.9643 38.3923C61.7017 38.6966 62.5123 38.1599 62.5123 37.362V11.0922C62.5123 10.6546 62.2571 10.2559 61.8585 10.0752Z" fill="url(#paint33_linear_1_51)"/>
<path d="M38.9847 10.3814C31.623 6.82184 23.5161 6.71933 16.1108 10.0752C15.7123 10.2559 15.457 10.6546 15.457 11.0922V37.362C15.457 38.1597 16.2676 38.6966 17.005 38.3923C23.7797 35.5963 31.0851 35.653 37.8375 38.5613C38.204 38.7192 38.5943 38.7981 38.9845 38.7981V10.3814H38.9847Z" fill="url(#paint34_linear_1_51)"/>
<path d="M60.9641 37.415C54.1895 34.6191 46.8841 34.6758 40.1316 37.5841C39.3986 37.8998 38.5705 37.8998 37.8376 37.5841C31.0852 34.6758 23.7798 34.6191 17.0051 37.415C16.2677 37.7194 15.4572 37.1827 15.4572 36.3848V37.362C15.4572 38.1597 16.2677 38.6966 17.0051 38.3923C23.7798 35.5963 31.0852 35.653 37.8376 38.5613C38.5706 38.877 39.3988 38.877 40.1316 38.5613C46.8841 35.653 54.1895 35.5963 60.9641 38.3923C61.7015 38.6966 62.5121 38.1599 62.5121 37.362V36.3848C62.5123 37.1827 61.7017 37.7194 60.9641 37.415Z" fill="url(#paint35_linear_1_51)"/>
<path d="M60.9641 36.7864C54.1895 33.9904 46.8841 34.0471 40.1316 36.9554C39.3986 37.2711 38.5705 37.2711 37.8376 36.9554C31.0852 34.0471 23.7798 33.9904 17.0051 36.7864C16.2677 37.0907 15.4572 36.554 15.4572 35.7561V36.7333C15.4572 37.531 16.2677 38.0679 17.0051 37.7636C23.7798 34.9676 31.0852 35.0243 37.8376 37.9326C38.5706 38.2483 39.3988 38.2483 40.1316 37.9326C46.8841 35.0243 54.1895 34.9676 60.9641 37.7636C61.7015 38.0679 62.5121 37.5312 62.5121 36.7333V35.7561C62.5123 36.5538 61.7017 37.0907 60.9641 36.7864Z" fill="url(#paint36_linear_1_51)"/>
<path d="M60.9641 36.1575C54.1895 33.3615 46.8841 33.4182 40.1316 36.3266C39.3986 36.6423 38.5705 36.6423 37.8376 36.3266C31.0852 33.4182 23.7798 33.3615 17.0051 36.1575C16.2677 36.4619 15.4572 35.9251 15.4572 35.1272V36.1044C15.4572 36.9022 16.2677 37.4391 17.0051 37.1347C23.7798 34.3387 31.0852 34.3954 37.8376 37.3038C38.5706 37.6195 39.3988 37.6195 40.1316 37.3038C46.8841 34.3954 54.1895 34.3387 60.9641 37.1347C61.7015 37.4391 62.5121 36.9023 62.5121 36.1044V35.1272C62.5123 35.9251 61.7017 36.4619 60.9641 36.1575Z" fill="url(#paint37_linear_1_51)"/>
<path d="M60.9641 35.5288C54.1895 32.7328 46.8841 32.7895 40.1316 35.6979C39.3986 36.0136 38.5705 36.0136 37.8376 35.6979C31.0852 32.7895 23.7798 32.7328 17.0051 35.5288C16.2677 35.8332 15.4572 35.2964 15.4572 34.4985V35.4758C15.4572 36.2735 16.2677 36.8104 17.0051 36.506C23.7798 33.71 31.0852 33.7667 37.8376 36.6751C38.5706 36.9908 39.3988 36.9908 40.1316 36.6751C46.8841 33.7667 54.1895 33.71 60.9641 36.506C61.7015 36.8104 62.5121 36.2736 62.5121 35.4758V34.4985C62.5123 35.2964 61.7017 35.8332 60.9641 35.5288Z" fill="url(#paint38_linear_1_51)"/>
<path d="M86.3366 58.0072V22.1935C86.3366 19.3804 84.0562 17.1 81.2432 17.1H60.8934C58.0804 17.1 55.8 19.3804 55.8 22.1935V58.0072C55.8 60.8202 58.0804 63.1006 60.8934 63.1006H81.2432C84.0562 63.1007 86.3366 60.8203 86.3366 58.0072Z" fill="url(#paint39_linear_1_51)"/>
<path d="M80.3157 18.4269H61.8209C59.4091 18.4269 57.454 20.382 57.454 22.7938V57.4069C57.454 59.8187 59.4091 61.7738 61.8209 61.7738H80.3156C82.7273 61.7738 84.6825 59.8187 84.6825 57.4069V22.7938C84.6826 20.3819 82.7274 18.4269 80.3157 18.4269Z" fill="url(#paint40_linear_1_51)"/>
<path d="M55.8 42.1148V58.0116C55.8 60.8222 58.0824 63.1007 60.8979 63.1007H81.2388C84.0542 63.1007 86.3366 60.8223 86.3366 58.0116V42.1148H55.8Z" fill="url(#paint41_linear_1_51)"/>
<path d="M73.3807 62.1248H68.7559C67.8952 62.1248 67.1974 61.4271 67.1974 60.5663C67.1974 59.7055 67.8952 59.0078 68.7559 59.0078H73.3807C74.2414 59.0078 74.9392 59.7055 74.9392 60.5663C74.9392 61.4271 74.2414 62.1248 73.3807 62.1248Z" fill="url(#paint42_linear_1_51)"/>
<path d="M81.2388 17.1H69.0684V63.1007H81.2388C84.0542 63.1007 86.3366 60.8223 86.3366 58.0116V22.1891C86.3366 19.3784 84.0542 17.1 81.2388 17.1Z" fill="url(#paint43_linear_1_51)"/>
<path d="M83.147 24.1516V53.8428C83.147 56.1928 81.2386 58.0979 78.8845 58.0979H63.252C60.8979 58.0979 58.9896 56.1929 58.9896 53.8428V24.1516C58.9896 21.8016 60.8979 19.8965 63.252 19.8965H65.8639C66.2983 19.8965 66.6505 20.248 66.6505 20.6817C66.6505 21.1154 67.0026 21.467 67.4371 21.467H74.6994C75.1339 21.467 75.486 21.1154 75.486 20.6817C75.486 20.248 75.8382 19.8965 76.2726 19.8965H78.8845C81.2386 19.8965 83.147 21.8015 83.147 24.1516Z" fill="url(#paint44_linear_1_51)"/>
<path d="M80.5461 32.9851C77.4452 31.5377 74.0379 31.5614 70.9475 33.0558C67.857 31.5614 64.4497 31.5377 61.3489 32.9851C61.2577 33.0276 61.2001 33.1199 61.2001 33.2204V44.5401C61.2001 44.728 61.3931 44.8548 61.5649 44.7788C64.4212 43.514 67.5232 43.4864 70.39 44.6955C70.7462 44.8457 71.1487 44.8457 71.505 44.6955C74.3718 43.4864 77.4737 43.514 80.3301 44.7788C80.5018 44.8549 80.6949 44.728 80.6949 44.5401V33.2204C80.6948 33.1199 80.6372 33.0276 80.5461 32.9851Z" fill="url(#paint45_linear_1_51)"/>
<path d="M80.5461 32.9851C77.4452 31.5377 74.0379 31.5614 70.9475 33.0558C67.857 31.5614 64.4497 31.5377 61.3489 32.9851C61.2577 33.0276 61.2001 33.1199 61.2001 33.2204V44.5401C61.2001 44.728 61.3931 44.8548 61.5649 44.7788C64.4212 43.514 67.5232 43.4864 70.39 44.6955C70.7462 44.8457 71.1487 44.8457 71.505 44.6955C74.3718 43.4864 77.4737 43.514 80.3301 44.7788C80.5018 44.8549 80.6949 44.728 80.6949 44.5401V33.2204C80.6948 33.1199 80.6372 33.0276 80.5461 32.9851Z" fill="url(#paint46_linear_1_51)"/>
<path d="M80.5461 32.9851C79.3898 32.4454 78.1909 32.1105 76.9817 31.9798V43.8722C78.1157 43.9947 79.2407 44.2965 80.33 44.7789C80.5018 44.8549 80.6949 44.7281 80.6949 44.5402V33.2204C80.6949 33.1199 80.6372 33.0276 80.5461 32.9851Z" fill="url(#paint47_linear_1_51)"/>
<path d="M70.9475 33.0558C67.857 31.5614 64.4497 31.5377 61.3489 32.9851C61.2577 33.0276 61.2001 33.1199 61.2001 33.2204V44.5401C61.2001 44.728 61.3931 44.8548 61.5649 44.7788C64.4212 43.514 67.5232 43.4864 70.39 44.6955C70.5681 44.7706 70.7578 44.8082 70.9475 44.8082V33.0558Z" fill="url(#paint48_linear_1_51)"/>
<path d="M70.9475 33.0558C67.857 31.5614 64.4497 31.5377 61.3489 32.9851C61.2577 33.0276 61.2001 33.1199 61.2001 33.2204V44.5401C61.2001 44.728 61.3931 44.8548 61.5649 44.7788C64.4212 43.514 67.5232 43.4864 70.39 44.6955C70.5681 44.7706 70.7578 44.8082 70.9475 44.8082V33.0558Z" fill="url(#paint49_linear_1_51)"/>
<path d="M70.9475 33.0558C67.857 31.5614 64.4497 31.5377 61.3489 32.9851C61.2577 33.0276 61.2001 33.1199 61.2001 33.2204V44.5401C61.2001 44.728 61.3931 44.8548 61.5649 44.7788C64.4212 43.514 67.5232 43.4864 70.39 44.6955C70.5681 44.7706 70.7578 44.8082 70.9475 44.8082V33.0558Z" fill="url(#paint50_linear_1_51)"/>
<path d="M80.33 44.3618C77.4737 43.097 74.3717 43.0695 71.5049 44.2786C71.1487 44.4288 70.7462 44.4288 70.3899 44.2786C67.5231 43.0695 64.4212 43.097 61.5648 44.3618C61.3931 44.4379 61.2 44.311 61.2 44.1232V44.5402C61.2 44.7281 61.3931 44.8549 61.5648 44.7789C64.4212 43.514 67.5231 43.4865 70.3899 44.6956C70.7462 44.8458 71.1486 44.8458 71.5049 44.6956C74.3717 43.4865 77.4737 43.514 80.33 44.7789C80.5018 44.8549 80.6948 44.7281 80.6948 44.5402V44.1232C80.6948 44.311 80.5018 44.4379 80.33 44.3618Z" fill="url(#paint51_linear_1_51)"/>
<path d="M80.097 32.477C77.1348 31.1346 73.8921 31.1756 70.9474 32.5995C68.0028 31.1756 64.76 31.1346 61.7979 32.477C61.6385 32.5493 61.5364 32.7087 61.5364 32.8838V43.3917C61.5364 43.7108 61.8606 43.9255 62.1556 43.8038C64.8654 42.6854 67.7876 42.7081 70.4886 43.8714C70.7818 43.9977 71.113 43.9977 71.4062 43.8714C74.1071 42.7081 77.0293 42.6854 79.7392 43.8038C80.0341 43.9255 80.3584 43.7108 80.3584 43.3917V32.8838C80.3585 32.7087 80.2564 32.5493 80.097 32.477Z" fill="url(#paint52_linear_1_51)"/>
<path d="M62.7825 34.6709C65.0101 33.8918 67.365 33.8931 69.5903 34.6711C69.8055 34.7463 70.0301 34.5843 70.0301 34.3564V34.3563C70.0301 34.2138 69.9391 34.0882 69.8047 34.0412C67.4394 33.2148 64.9364 33.2136 62.5681 34.0412C62.4337 34.0882 62.3427 34.2138 62.3427 34.3562C62.3427 34.5842 62.5673 34.7461 62.7825 34.6709Z" fill="url(#paint53_linear_1_51)"/>
<path d="M62.7825 36.3676C65.0101 35.5885 67.365 35.5898 69.5903 36.3678C69.8055 36.443 70.0301 36.281 70.0301 36.0531V36.053C70.0301 35.9105 69.9391 35.7849 69.8047 35.7379C67.4394 34.9114 64.9364 34.9102 62.5681 35.7378C62.4337 35.7848 62.3427 35.9105 62.3427 36.0529C62.3427 36.2809 62.5673 36.4428 62.7825 36.3676Z" fill="url(#paint54_linear_1_51)"/>
<path d="M62.7825 38.0642C65.0101 37.2851 67.365 37.2864 69.5903 38.0644C69.8055 38.1397 70.0301 37.9777 70.0301 37.7497V37.7496C70.0301 37.6072 69.9391 37.4815 69.8047 37.4345C67.4394 36.6081 64.9364 36.6068 62.5681 37.4345C62.4337 37.4815 62.3427 37.6071 62.3427 37.7495C62.3427 37.9775 62.5673 38.1395 62.7825 38.0642Z" fill="url(#paint55_linear_1_51)"/>
<path d="M62.7825 39.7609C65.0101 38.9818 67.365 38.9831 69.5903 39.7611C69.8055 39.8364 70.0301 39.6744 70.0301 39.4464V39.4463C70.0301 39.3039 69.9391 39.1782 69.8047 39.1312C67.4394 38.3048 64.9364 38.3036 62.5681 39.1312C62.4337 39.1782 62.3427 39.3038 62.3427 39.4462C62.3427 39.6742 62.5673 39.8362 62.7825 39.7609Z" fill="url(#paint56_linear_1_51)"/>
<path d="M62.7825 41.4576C65.0101 40.6785 67.365 40.6798 69.5903 41.4578C69.8055 41.533 70.0301 41.371 70.0301 41.1431V41.143C70.0301 41.0005 69.9391 40.8749 69.8047 40.8279C67.4394 40.0014 64.9364 40.0002 62.5681 40.8278C62.4337 40.8748 62.3427 41.0005 62.3427 41.1428C62.3427 41.3709 62.5673 41.5329 62.7825 41.4576Z" fill="url(#paint57_linear_1_51)"/>
<path d="M72.3049 34.6709C74.5325 33.8918 76.8874 33.8931 79.1127 34.6711C79.3279 34.7463 79.5525 34.5843 79.5525 34.3564V34.3563C79.5525 34.2138 79.4615 34.0882 79.3271 34.0412C76.9618 33.2148 74.4588 33.2136 72.0905 34.0412C71.9561 34.0882 71.8651 34.2138 71.8651 34.3562C71.8651 34.5842 72.0897 34.7461 72.3049 34.6709Z" fill="url(#paint58_linear_1_51)"/>
<path d="M72.3049 36.3676C74.5325 35.5885 76.8874 35.5898 79.1127 36.3678C79.3279 36.443 79.5525 36.281 79.5525 36.0531V36.053C79.5525 35.9105 79.4615 35.7849 79.3271 35.7379C76.9618 34.9114 74.4588 34.9102 72.0905 35.7378C71.9561 35.7848 71.8651 35.9105 71.8651 36.0529C71.8651 36.2809 72.0897 36.4428 72.3049 36.3676Z" fill="url(#paint59_linear_1_51)"/>
<path d="M72.3049 38.0642C74.5325 37.2851 76.8874 37.2864 79.1127 38.0644C79.3279 38.1397 79.5525 37.9777 79.5525 37.7497V37.7496C79.5525 37.6072 79.4615 37.4815 79.3271 37.4345C76.9618 36.6081 74.4588 36.6069 72.0905 37.4345C71.9561 37.4815 71.8651 37.6071 71.8651 37.7495C71.8651 37.9775 72.0897 38.1395 72.3049 38.0642Z" fill="url(#paint60_linear_1_51)"/>
<path d="M72.3049 39.7609C74.5325 38.9818 76.8874 38.9831 79.1127 39.7611C79.3279 39.8364 79.5525 39.6744 79.5525 39.4464V39.4463C79.5525 39.3039 79.4615 39.1782 79.3271 39.1312C76.9618 38.3048 74.4588 38.3036 72.0905 39.1312C71.9561 39.1782 71.8651 39.3038 71.8651 39.4462C71.8651 39.6742 72.0897 39.8362 72.3049 39.7609Z" fill="url(#paint61_linear_1_51)"/>
<path d="M72.3049 41.4576C74.5325 40.6785 76.8874 40.6798 79.1127 41.4578C79.3279 41.533 79.5525 41.371 79.5525 41.1431V41.143C79.5525 41.0005 79.4615 40.8749 79.3271 40.8279C76.9618 40.0014 74.4588 40.0002 72.0905 40.8278C71.9561 40.8748 71.8651 41.0005 71.8651 41.1429C71.8651 41.3709 72.0897 41.5329 72.3049 41.4576Z" fill="url(#paint62_linear_1_51)"/>
<path d="M80.0969 32.477C79.2582 32.0969 78.397 31.828 77.5264 31.6696V43.1519C78.2737 43.2877 79.0141 43.5045 79.7393 43.8038C80.0342 43.9255 80.3585 43.7108 80.3585 43.3917V32.8838C80.3585 32.7087 80.2564 32.5493 80.0969 32.477Z" fill="url(#paint63_linear_1_51)"/>
<path d="M70.9474 32.5995C68.0028 31.1756 64.76 31.1346 61.7979 32.477C61.6385 32.5493 61.5364 32.7087 61.5364 32.8838V43.3917C61.5364 43.7108 61.8606 43.9255 62.1556 43.8038C64.8654 42.6854 67.7876 42.7081 70.4886 43.8714C70.6352 43.9346 70.7913 43.9661 70.9474 43.9661V32.5995H70.9474Z" fill="url(#paint64_linear_1_51)"/>
<path d="M79.7392 43.4129C77.0294 42.2945 74.1072 42.3172 71.4062 43.4805C71.113 43.6068 70.7818 43.6068 70.4886 43.4805C67.7877 42.3172 64.8655 42.2945 62.1556 43.4129C61.8607 43.5347 61.5364 43.32 61.5364 43.0008V43.3917C61.5364 43.7108 61.8607 43.9255 62.1556 43.8038C64.8655 42.6854 67.7877 42.7081 70.4886 43.8714C70.7818 43.9977 71.1131 43.9977 71.4062 43.8714C74.1072 42.7081 77.0294 42.6854 79.7392 43.8038C80.0342 43.9255 80.3584 43.7108 80.3584 43.3917V43.0008C80.3585 43.32 80.0342 43.5347 79.7392 43.4129Z" fill="url(#paint65_linear_1_51)"/>
<path d="M79.7392 43.1614C77.0294 42.043 74.1072 42.0657 71.4062 43.2291C71.113 43.3553 70.7818 43.3553 70.4886 43.2291C67.7877 42.0657 64.8655 42.043 62.1556 43.1614C61.8607 43.2832 61.5364 43.0685 61.5364 42.7493V43.1402C61.5364 43.4593 61.8607 43.6741 62.1556 43.5523C64.8655 42.4339 67.7877 42.4566 70.4886 43.6199C70.7818 43.7462 71.1131 43.7462 71.4062 43.6199C74.1072 42.4566 77.0294 42.4339 79.7392 43.5523C80.0342 43.6741 80.3584 43.4594 80.3584 43.1402V42.7493C80.3585 43.0684 80.0342 43.2832 79.7392 43.1614Z" fill="url(#paint66_linear_1_51)"/>
<path d="M79.7392 42.9099C77.0294 41.7915 74.1072 41.8142 71.4062 42.9775C71.113 43.1038 70.7818 43.1038 70.4886 42.9775C67.7877 41.8142 64.8655 41.7915 62.1556 42.9099C61.8607 43.0317 61.5364 42.8169 61.5364 42.4978V42.8887C61.5364 43.2078 61.8607 43.4225 62.1556 43.3008C64.8655 42.1824 67.7877 42.2051 70.4886 43.3684C70.7818 43.4947 71.1131 43.4947 71.4062 43.3684C74.1072 42.2051 77.0294 42.1824 79.7392 43.3008C80.0342 43.4225 80.3584 43.2078 80.3584 42.8887V42.4978C80.3585 42.8169 80.0342 43.0317 79.7392 42.9099Z" fill="url(#paint67_linear_1_51)"/>
<path d="M79.7392 42.6584C77.0294 41.54 74.1072 41.5627 71.4062 42.726C71.113 42.8523 70.7818 42.8523 70.4886 42.726C67.7877 41.5627 64.8655 41.54 62.1556 42.6584C61.8607 42.7802 61.5364 42.5655 61.5364 42.2463V42.6372C61.5364 42.9563 61.8607 43.1711 62.1556 43.0493C64.8655 41.9309 67.7877 41.9536 70.4886 43.1169C70.7818 43.2432 71.1131 43.2432 71.4062 43.1169C74.1072 41.9536 77.0294 41.9309 79.7392 43.0493C80.0342 43.1711 80.3584 42.9564 80.3584 42.6372V42.2463C80.3585 42.5655 80.0342 42.7802 79.7392 42.6584Z" fill="url(#paint68_linear_1_51)"/>
<path d="M78.8847 19.8965H76.2728C75.8384 19.8965 75.4862 20.248 75.4862 20.6817C75.4862 21.1154 75.134 21.467 74.6996 21.467H67.4372C67.0028 21.467 66.6506 21.1154 66.6506 20.6817C66.6506 20.248 66.2985 19.8965 65.864 19.8965H63.2521C60.8981 19.8965 58.9897 21.8016 58.9897 24.1516V35.0646H83.1472V24.1516C83.1471 21.8016 81.2387 19.8965 78.8847 19.8965Z" fill="url(#paint69_linear_1_51)"/>
<path d="M70.3576 21.467H67.4371C67.0026 21.467 66.6505 21.1154 66.6505 20.6817C66.6505 20.248 66.2983 19.8965 65.8639 19.8965H63.252C60.8979 19.8965 58.9896 21.8016 58.9896 24.1516V53.8429C58.9896 56.1929 60.8979 58.098 63.252 58.098H70.3576V21.467Z" fill="url(#paint70_linear_1_51)"/>
<defs>
<linearGradient id="paint0_linear_1_51" x1="6.6947" y1="23.6229" x2="70.7197" y2="23.6229" gradientUnits="userSpaceOnUse">
<stop stop-color="#5A5A5A"/>
<stop offset="1" stop-color="#444444"/>
</linearGradient>
<linearGradient id="paint1_linear_1_51" x1="65.6911" y1="23.6229" x2="70.4491" y2="23.6229" gradientUnits="userSpaceOnUse">
<stop stop-color="#433F43" stop-opacity="0"/>
<stop offset="0.3444" stop-color="#403C40" stop-opacity="0.344"/>
<stop offset="0.6223" stop-color="#363336" stop-opacity="0.622"/>
<stop offset="0.8763" stop-color="#252425" stop-opacity="0.876"/>
<stop offset="1" stop-color="#1A1A1A"/>
</linearGradient>
<linearGradient id="paint2_linear_1_51" x1="61.6193" y1="10.664" x2="55.3676" y2="10.664" gradientUnits="userSpaceOnUse">
<stop stop-color="#433F43" stop-opacity="0"/>
<stop offset="0.3444" stop-color="#403C40" stop-opacity="0.344"/>
<stop offset="0.6223" stop-color="#363336" stop-opacity="0.622"/>
<stop offset="0.8763" stop-color="#252425" stop-opacity="0.876"/>
<stop offset="1" stop-color="#1A1A1A"/>
</linearGradient>
<linearGradient id="paint3_linear_1_51" x1="38.7072" y1="39.6114" x2="38.7072" y2="43.0412" gradientUnits="userSpaceOnUse">
<stop stop-color="#433F43" stop-opacity="0"/>
<stop offset="0.3444" stop-color="#403C40" stop-opacity="0.344"/>
<stop offset="0.6223" stop-color="#363336" stop-opacity="0.622"/>
<stop offset="0.8763" stop-color="#252425" stop-opacity="0.876"/>
<stop offset="1" stop-color="#1A1A1A"/>
</linearGradient>
<linearGradient id="paint4_linear_1_51" x1="26.5968" y1="13.8731" x2="56.633" y2="43.9093" gradientUnits="userSpaceOnUse">
<stop stop-color="#8AC9FE"/>
<stop offset="1" stop-color="#0172FB"/>
</linearGradient>
<linearGradient id="paint5_linear_1_51" x1="15.2477" y1="25.3205" x2="7.63329" y2="25.3205" gradientUnits="userSpaceOnUse">
<stop stop-color="#2740B0" stop-opacity="0"/>
<stop offset="1" stop-color="#2740B0"/>
</linearGradient>
<linearGradient id="paint6_linear_1_51" x1="38.7075" y1="37.1863" x2="38.7075" y2="49.0065" gradientUnits="userSpaceOnUse">
<stop stop-color="#2740B0" stop-opacity="0"/>
<stop offset="1" stop-color="#2740B0"/>
</linearGradient>
<linearGradient id="paint7_linear_1_51" x1="48.375" y1="41.3749" x2="38.8898" y2="24.668" gradientUnits="userSpaceOnUse">
<stop stop-color="#2740B0" stop-opacity="0"/>
<stop offset="1" stop-color="#2740B0"/>
</linearGradient>
<linearGradient id="paint8_linear_1_51" x1="38.7075" y1="10.9947" x2="38.7075" y2="1.44359" gradientUnits="userSpaceOnUse">
<stop stop-color="#2740B0" stop-opacity="0"/>
<stop offset="1" stop-color="#2740B0"/>
</linearGradient>
<linearGradient id="paint9_linear_1_51" x1="62.1584" y1="12.3619" x2="54.7141" y2="12.3619" gradientUnits="userSpaceOnUse">
<stop stop-color="#2740B0" stop-opacity="0"/>
<stop offset="1" stop-color="#2740B0"/>
</linearGradient>
<linearGradient id="paint10_linear_1_51" x1="35.4295" y1="-0.870461" x2="39.5455" y2="3.2455" gradientUnits="userSpaceOnUse">
<stop stop-color="#433F43" stop-opacity="0"/>
<stop offset="0.3444" stop-color="#403C40" stop-opacity="0.344"/>
<stop offset="0.6223" stop-color="#363336" stop-opacity="0.622"/>
<stop offset="0.8763" stop-color="#252425" stop-opacity="0.876"/>
<stop offset="1" stop-color="#1A1A1A"/>
</linearGradient>
<linearGradient id="paint11_linear_1_51" x1="38.7072" y1="45.3075" x2="38.7072" y2="52.0636" gradientUnits="userSpaceOnUse">
<stop stop-color="#5A5A5A"/>
<stop offset="1" stop-color="#444444"/>
</linearGradient>
<linearGradient id="paint12_linear_1_51" x1="38.7072" y1="48.6849" x2="38.7072" y2="53.0828" gradientUnits="userSpaceOnUse">
<stop stop-color="#433F43" stop-opacity="0"/>
<stop offset="0.3444" stop-color="#403C40" stop-opacity="0.344"/>
<stop offset="0.6223" stop-color="#363336" stop-opacity="0.622"/>
<stop offset="0.8763" stop-color="#252425" stop-opacity="0.876"/>
<stop offset="1" stop-color="#1A1A1A"/>
</linearGradient>
<linearGradient id="paint13_linear_1_51" x1="69.8785" y1="49.9274" x2="75.6271" y2="52.5861" gradientUnits="userSpaceOnUse">
<stop stop-color="#433F43" stop-opacity="0"/>
<stop offset="0.3444" stop-color="#403C40" stop-opacity="0.344"/>
<stop offset="0.6223" stop-color="#363336" stop-opacity="0.622"/>
<stop offset="0.8763" stop-color="#252425" stop-opacity="0.876"/>
<stop offset="1" stop-color="#1A1A1A"/>
</linearGradient>
<linearGradient id="paint14_linear_1_51" x1="38.7072" y1="47.6774" x2="38.7072" y2="45.5169" gradientUnits="userSpaceOnUse">
<stop stop-color="#5A5A5A"/>
<stop offset="1" stop-color="#444444"/>
</linearGradient>
<linearGradient id="paint15_linear_1_51" x1="28.2139" y1="7.99697" x2="50.912" y2="46.1128" gradientUnits="userSpaceOnUse">
<stop stop-color="#BBEC6C"/>
<stop offset="0.1974" stop-color="#B5E665"/>
<stop offset="0.4799" stop-color="#A5D552"/>
<stop offset="0.8118" stop-color="#8ABB33"/>
<stop offset="1" stop-color="#78A91F"/>
</linearGradient>
<linearGradient id="paint16_linear_1_51" x1="38.9846" y1="35.8855" x2="38.9846" y2="40.7566" gradientUnits="userSpaceOnUse">
<stop stop-color="#334C0F" stop-opacity="0"/>
<stop offset="0.3197" stop-color="#344C12" stop-opacity="0.32"/>
<stop offset="0.5654" stop-color="#374A1C" stop-opacity="0.565"/>
<stop offset="0.7856" stop-color="#3C482C" stop-opacity="0.786"/>
<stop offset="0.9909" stop-color="#444443" stop-opacity="0.991"/>
<stop offset="1" stop-color="#444444"/>
</linearGradient>
<linearGradient id="paint17_linear_1_51" x1="59.3883" y1="24.8591" x2="63.1402" y2="24.8591" gradientUnits="userSpaceOnUse">
<stop stop-color="#334C0F" stop-opacity="0"/>
<stop offset="0.3197" stop-color="#344C12" stop-opacity="0.32"/>
<stop offset="0.5654" stop-color="#374A1C" stop-opacity="0.565"/>
<stop offset="0.7856" stop-color="#3C482C" stop-opacity="0.786"/>
<stop offset="0.9909" stop-color="#444443" stop-opacity="0.991"/>
<stop offset="1" stop-color="#444444"/>
</linearGradient>
<linearGradient id="paint18_linear_1_51" x1="19.9147" y1="24.7894" x2="39.0776" y2="24.7894" gradientUnits="userSpaceOnUse">
<stop stop-color="#BBEC6C"/>
<stop offset="0.1974" stop-color="#B5E665"/>
<stop offset="0.4799" stop-color="#A5D552"/>
<stop offset="0.8118" stop-color="#8ABB33"/>
<stop offset="1" stop-color="#78A91F"/>
</linearGradient>
<linearGradient id="paint19_linear_1_51" x1="28.9779" y1="24.7894" x2="37.6977" y2="24.7894" gradientUnits="userSpaceOnUse">
<stop stop-color="#334C0F" stop-opacity="0"/>
<stop offset="0.3197" stop-color="#344C12" stop-opacity="0.32"/>
<stop offset="0.5654" stop-color="#374A1C" stop-opacity="0.565"/>
<stop offset="0.7856" stop-color="#3C482C" stop-opacity="0.786"/>
<stop offset="0.9909" stop-color="#444443" stop-opacity="0.991"/>
<stop offset="1" stop-color="#444444"/>
</linearGradient>
<linearGradient id="paint20_linear_1_51" x1="26.8003" y1="36.8607" x2="26.8003" y2="41.2026" gradientUnits="userSpaceOnUse">
<stop stop-color="#334C0F" stop-opacity="0"/>
<stop offset="0.3197" stop-color="#344C12" stop-opacity="0.32"/>
<stop offset="0.5654" stop-color="#374A1C" stop-opacity="0.565"/>
<stop offset="0.7856" stop-color="#3C482C" stop-opacity="0.786"/>
<stop offset="0.9909" stop-color="#444443" stop-opacity="0.991"/>
<stop offset="1" stop-color="#444444"/>
</linearGradient>
<linearGradient id="paint21_linear_1_51" x1="38.9846" y1="17.9458" x2="38.9846" y2="47.7013" gradientUnits="userSpaceOnUse">
<stop stop-color="#334C0F" stop-opacity="0"/>
<stop offset="0.3197" stop-color="#344C12" stop-opacity="0.32"/>
<stop offset="0.5654" stop-color="#374A1C" stop-opacity="0.565"/>
<stop offset="0.7856" stop-color="#3C482C" stop-opacity="0.786"/>
<stop offset="0.9909" stop-color="#444443" stop-opacity="0.991"/>
<stop offset="1" stop-color="#444444"/>
</linearGradient>
<linearGradient id="paint22_linear_1_51" x1="34.8945" y1="16.9879" x2="48.9607" y2="41.8865" gradientUnits="userSpaceOnUse">
<stop stop-color="#F5FBFF"/>
<stop offset="1" stop-color="#91DCFA"/>
</linearGradient>
<linearGradient id="paint23_linear_1_51" x1="12.8158" y1="-11.1641" x2="29.4148" y2="19.016" gradientUnits="userSpaceOnUse">
<stop stop-color="#60B7FF" stop-opacity="0"/>
<stop offset="1" stop-color="#60B7FF"/>
</linearGradient>
<linearGradient id="paint24_linear_1_51" x1="12.8158" y1="-6.92247" x2="29.4148" y2="23.2577" gradientUnits="userSpaceOnUse">
<stop stop-color="#60B7FF" stop-opacity="0"/>
<stop offset="1" stop-color="#60B7FF"/>
</linearGradient>
<linearGradient id="paint25_linear_1_51" x1="12.8158" y1="-2.68071" x2="29.4148" y2="27.4994" gradientUnits="userSpaceOnUse">
<stop stop-color="#60B7FF" stop-opacity="0"/>
<stop offset="1" stop-color="#60B7FF"/>
</linearGradient>
<linearGradient id="paint26_linear_1_51" x1="12.8158" y1="1.56093" x2="29.4148" y2="31.741" gradientUnits="userSpaceOnUse">
<stop stop-color="#60B7FF" stop-opacity="0"/>
<stop offset="1" stop-color="#60B7FF"/>
</linearGradient>
<linearGradient id="paint27_linear_1_51" x1="12.8158" y1="5.80267" x2="29.4148" y2="35.9828" gradientUnits="userSpaceOnUse">
<stop stop-color="#60B7FF" stop-opacity="0"/>
<stop offset="1" stop-color="#60B7FF"/>
</linearGradient>
<linearGradient id="paint28_linear_1_51" x1="36.6212" y1="-11.1641" x2="53.2202" y2="19.016" gradientUnits="userSpaceOnUse">
<stop stop-color="#60B7FF" stop-opacity="0"/>
<stop offset="1" stop-color="#60B7FF"/>
</linearGradient>
<linearGradient id="paint29_linear_1_51" x1="36.6212" y1="-6.92247" x2="53.2202" y2="23.2577" gradientUnits="userSpaceOnUse">
<stop stop-color="#60B7FF" stop-opacity="0"/>
<stop offset="1" stop-color="#60B7FF"/>
</linearGradient>
<linearGradient id="paint30_linear_1_51" x1="36.6212" y1="-2.68071" x2="53.2202" y2="27.4994" gradientUnits="userSpaceOnUse">
<stop stop-color="#60B7FF" stop-opacity="0"/>
<stop offset="1" stop-color="#60B7FF"/>
</linearGradient>
<linearGradient id="paint31_linear_1_51" x1="36.6212" y1="1.56093" x2="53.2202" y2="31.741" gradientUnits="userSpaceOnUse">
<stop stop-color="#60B7FF" stop-opacity="0"/>
<stop offset="1" stop-color="#60B7FF"/>
</linearGradient>
<linearGradient id="paint32_linear_1_51" x1="36.6212" y1="5.80267" x2="53.2202" y2="35.9828" gradientUnits="userSpaceOnUse">
<stop stop-color="#60B7FF" stop-opacity="0"/>
<stop offset="1" stop-color="#60B7FF"/>
</linearGradient>
<linearGradient id="paint33_linear_1_51" x1="57.0189" y1="23.2679" x2="62.7601" y2="23.2679" gradientUnits="userSpaceOnUse">
<stop stop-color="#60B7FF" stop-opacity="0"/>
<stop offset="1" stop-color="#60B7FF"/>
</linearGradient>
<linearGradient id="paint34_linear_1_51" x1="32.8493" y1="23.2154" x2="40.537" y2="23.2154" gradientUnits="userSpaceOnUse">
<stop stop-color="#60B7FF" stop-opacity="0"/>
<stop offset="1" stop-color="#60B7FF"/>
</linearGradient>
<linearGradient id="paint35_linear_1_51" x1="38.9846" y1="41.798" x2="38.9846" y2="31.2704" gradientUnits="userSpaceOnUse">
<stop stop-color="#60B7FF" stop-opacity="0"/>
<stop offset="1" stop-color="#60B7FF"/>
</linearGradient>
<linearGradient id="paint36_linear_1_51" x1="38.9846" y1="41.1692" x2="38.9846" y2="30.6417" gradientUnits="userSpaceOnUse">
<stop stop-color="#60B7FF" stop-opacity="0"/>
<stop offset="1" stop-color="#60B7FF"/>
</linearGradient>
<linearGradient id="paint37_linear_1_51" x1="38.9846" y1="40.5405" x2="38.9846" y2="30.0131" gradientUnits="userSpaceOnUse">
<stop stop-color="#60B7FF" stop-opacity="0"/>
<stop offset="1" stop-color="#60B7FF"/>
</linearGradient>
<linearGradient id="paint38_linear_1_51" x1="38.9846" y1="39.9118" x2="38.9846" y2="29.3842" gradientUnits="userSpaceOnUse">
<stop stop-color="#60B7FF" stop-opacity="0"/>
<stop offset="1" stop-color="#60B7FF"/>
</linearGradient>
<linearGradient id="paint39_linear_1_51" x1="51.5272" y1="32.5609" x2="86.8327" y2="46.1827" gradientUnits="userSpaceOnUse">
<stop stop-color="#5A5A5A"/>
<stop offset="1" stop-color="#444444"/>
</linearGradient>
<linearGradient id="paint40_linear_1_51" x1="89.3819" y1="41.1598" x2="54.7172" y2="39.1544" gradientUnits="userSpaceOnUse">
<stop stop-color="#5A5A5A"/>
<stop offset="1" stop-color="#444444"/>
</linearGradient>
<linearGradient id="paint41_linear_1_51" x1="71.0683" y1="59.9286" x2="71.0683" y2="62.7256" gradientUnits="userSpaceOnUse">
<stop stop-color="#433F43" stop-opacity="0"/>
<stop offset="1" stop-color="#1A1A1A"/>
</linearGradient>
<linearGradient id="paint42_linear_1_51" x1="71.0683" y1="62.2957" x2="71.0683" y2="59.6855" gradientUnits="userSpaceOnUse">
<stop stop-color="#5A5A5A"/>
<stop offset="1" stop-color="#444444"/>
</linearGradient>
<linearGradient id="paint43_linear_1_51" x1="82.6912" y1="40.1003" x2="86.1707" y2="40.1003" gradientUnits="userSpaceOnUse">
<stop stop-color="#433F43" stop-opacity="0"/>
<stop offset="1" stop-color="#1A1A1A"/>
</linearGradient>
<linearGradient id="paint44_linear_1_51" x1="59.7681" y1="31.1535" x2="81.6656" y2="46.3529" gradientUnits="userSpaceOnUse">
<stop stop-color="#F5FBFF"/>
<stop offset="1" stop-color="#D8ECFE"/>
</linearGradient>
<linearGradient id="paint45_linear_1_51" x1="66.6392" y1="31.6457" x2="75.7184" y2="46.892" gradientUnits="userSpaceOnUse">
<stop stop-color="#BBEC6C"/>
<stop offset="0.1974" stop-color="#B5E665"/>
<stop offset="0.4799" stop-color="#A5D552"/>
<stop offset="0.8118" stop-color="#8ABB33"/>
<stop offset="1" stop-color="#78A91F"/>
</linearGradient>
<linearGradient id="paint46_linear_1_51" x1="70.9475" y1="42.8011" x2="70.9475" y2="44.7495" gradientUnits="userSpaceOnUse">
<stop stop-color="#334C0F" stop-opacity="0"/>
<stop offset="0.3197" stop-color="#344C12" stop-opacity="0.32"/>
<stop offset="0.5654" stop-color="#374A1C" stop-opacity="0.565"/>
<stop offset="0.7856" stop-color="#3C482C" stop-opacity="0.786"/>
<stop offset="0.9909" stop-color="#444443" stop-opacity="0.991"/>
<stop offset="1" stop-color="#444444"/>
</linearGradient>
<linearGradient id="paint47_linear_1_51" x1="79.109" y1="38.3905" x2="80.6097" y2="38.3905" gradientUnits="userSpaceOnUse">
<stop stop-color="#334C0F" stop-opacity="0"/>
<stop offset="0.3197" stop-color="#344C12" stop-opacity="0.32"/>
<stop offset="0.5654" stop-color="#374A1C" stop-opacity="0.565"/>
<stop offset="0.7856" stop-color="#3C482C" stop-opacity="0.786"/>
<stop offset="0.9909" stop-color="#444443" stop-opacity="0.991"/>
<stop offset="1" stop-color="#444444"/>
</linearGradient>
<linearGradient id="paint48_linear_1_51" x1="63.3195" y1="38.3627" x2="70.9846" y2="38.3627" gradientUnits="userSpaceOnUse">
<stop stop-color="#BBEC6C"/>
<stop offset="0.1974" stop-color="#B5E665"/>
<stop offset="0.4799" stop-color="#A5D552"/>
<stop offset="0.8118" stop-color="#8ABB33"/>
<stop offset="1" stop-color="#78A91F"/>
</linearGradient>
<linearGradient id="paint49_linear_1_51" x1="66.9448" y1="38.3627" x2="70.4327" y2="38.3627" gradientUnits="userSpaceOnUse">
<stop stop-color="#334C0F" stop-opacity="0"/>
<stop offset="0.3197" stop-color="#344C12" stop-opacity="0.32"/>
<stop offset="0.5654" stop-color="#374A1C" stop-opacity="0.565"/>
<stop offset="0.7856" stop-color="#3C482C" stop-opacity="0.786"/>
<stop offset="0.9909" stop-color="#444443" stop-opacity="0.991"/>
<stop offset="1" stop-color="#444444"/>
</linearGradient>
<linearGradient id="paint50_linear_1_51" x1="66.0737" y1="43.1912" x2="66.0737" y2="44.9279" gradientUnits="userSpaceOnUse">
<stop stop-color="#334C0F" stop-opacity="0"/>
<stop offset="0.3197" stop-color="#344C12" stop-opacity="0.32"/>
<stop offset="0.5654" stop-color="#374A1C" stop-opacity="0.565"/>
<stop offset="0.7856" stop-color="#3C482C" stop-opacity="0.786"/>
<stop offset="0.9909" stop-color="#444443" stop-opacity="0.991"/>
<stop offset="1" stop-color="#444444"/>
</linearGradient>
<linearGradient id="paint51_linear_1_51" x1="70.9475" y1="35.6252" x2="70.9475" y2="47.5274" gradientUnits="userSpaceOnUse">
<stop stop-color="#334C0F" stop-opacity="0"/>
<stop offset="0.3197" stop-color="#344C12" stop-opacity="0.32"/>
<stop offset="0.5654" stop-color="#374A1C" stop-opacity="0.565"/>
<stop offset="0.7856" stop-color="#3C482C" stop-opacity="0.786"/>
<stop offset="0.9909" stop-color="#444443" stop-opacity="0.991"/>
<stop offset="1" stop-color="#444444"/>
</linearGradient>
<linearGradient id="paint52_linear_1_51" x1="69.3114" y1="35.2421" x2="74.9378" y2="45.2015" gradientUnits="userSpaceOnUse">
<stop stop-color="#F5FBFF"/>
<stop offset="1" stop-color="#91DCFA"/>
</linearGradient>
<linearGradient id="paint53_linear_1_51" x1="60.4798" y1="23.9812" x2="67.1194" y2="36.0533" gradientUnits="userSpaceOnUse">
<stop stop-color="#60B7FF" stop-opacity="0"/>
<stop offset="1" stop-color="#60B7FF"/>
</linearGradient>
<linearGradient id="paint54_linear_1_51" x1="60.4798" y1="25.6779" x2="67.1194" y2="37.7499" gradientUnits="userSpaceOnUse">
<stop stop-color="#60B7FF" stop-opacity="0"/>
<stop offset="1" stop-color="#60B7FF"/>
</linearGradient>
<linearGradient id="paint55_linear_1_51" x1="60.4798" y1="27.3746" x2="67.1194" y2="39.4466" gradientUnits="userSpaceOnUse">
<stop stop-color="#60B7FF" stop-opacity="0"/>
<stop offset="1" stop-color="#60B7FF"/>
</linearGradient>
<linearGradient id="paint56_linear_1_51" x1="60.4798" y1="29.0712" x2="67.1194" y2="41.1433" gradientUnits="userSpaceOnUse">
<stop stop-color="#60B7FF" stop-opacity="0"/>
<stop offset="1" stop-color="#60B7FF"/>
</linearGradient>
<linearGradient id="paint57_linear_1_51" x1="60.4798" y1="30.7679" x2="67.1194" y2="42.84" gradientUnits="userSpaceOnUse">
<stop stop-color="#60B7FF" stop-opacity="0"/>
<stop offset="1" stop-color="#60B7FF"/>
</linearGradient>
<linearGradient id="paint58_linear_1_51" x1="70.0023" y1="23.9812" x2="76.6419" y2="36.0533" gradientUnits="userSpaceOnUse">
<stop stop-color="#60B7FF" stop-opacity="0"/>
<stop offset="1" stop-color="#60B7FF"/>
</linearGradient>
<linearGradient id="paint59_linear_1_51" x1="70.0023" y1="25.6779" x2="76.6419" y2="37.7499" gradientUnits="userSpaceOnUse">
<stop stop-color="#60B7FF" stop-opacity="0"/>
<stop offset="1" stop-color="#60B7FF"/>
</linearGradient>
<linearGradient id="paint60_linear_1_51" x1="70.0023" y1="27.3746" x2="76.6419" y2="39.4466" gradientUnits="userSpaceOnUse">
<stop stop-color="#60B7FF" stop-opacity="0"/>
<stop offset="1" stop-color="#60B7FF"/>
</linearGradient>
<linearGradient id="paint61_linear_1_51" x1="70.0023" y1="29.0712" x2="76.6419" y2="41.1433" gradientUnits="userSpaceOnUse">
<stop stop-color="#60B7FF" stop-opacity="0"/>
<stop offset="1" stop-color="#60B7FF"/>
</linearGradient>
<linearGradient id="paint62_linear_1_51" x1="70.0023" y1="30.7679" x2="76.6419" y2="42.84" gradientUnits="userSpaceOnUse">
<stop stop-color="#60B7FF" stop-opacity="0"/>
<stop offset="1" stop-color="#60B7FF"/>
</linearGradient>
<linearGradient id="paint63_linear_1_51" x1="78.1611" y1="37.754" x2="80.4576" y2="37.754" gradientUnits="userSpaceOnUse">
<stop stop-color="#60B7FF" stop-opacity="0"/>
<stop offset="1" stop-color="#60B7FF"/>
</linearGradient>
<linearGradient id="paint64_linear_1_51" x1="68.4933" y1="37.7331" x2="71.5684" y2="37.7331" gradientUnits="userSpaceOnUse">
<stop stop-color="#60B7FF" stop-opacity="0"/>
<stop offset="1" stop-color="#60B7FF"/>
</linearGradient>
<linearGradient id="paint65_linear_1_51" x1="70.9474" y1="45.1661" x2="70.9474" y2="40.9551" gradientUnits="userSpaceOnUse">
<stop stop-color="#60B7FF" stop-opacity="0"/>
<stop offset="1" stop-color="#60B7FF"/>
</linearGradient>
<linearGradient id="paint66_linear_1_51" x1="70.9474" y1="44.9146" x2="70.9474" y2="40.7036" gradientUnits="userSpaceOnUse">
<stop stop-color="#60B7FF" stop-opacity="0"/>
<stop offset="1" stop-color="#60B7FF"/>
</linearGradient>
<linearGradient id="paint67_linear_1_51" x1="70.9474" y1="44.6631" x2="70.9474" y2="40.4521" gradientUnits="userSpaceOnUse">
<stop stop-color="#60B7FF" stop-opacity="0"/>
<stop offset="1" stop-color="#60B7FF"/>
</linearGradient>
<linearGradient id="paint68_linear_1_51" x1="70.9474" y1="44.4116" x2="70.9474" y2="40.2006" gradientUnits="userSpaceOnUse">
<stop stop-color="#60B7FF" stop-opacity="0"/>
<stop offset="1" stop-color="#60B7FF"/>
</linearGradient>
<linearGradient id="paint69_linear_1_51" x1="71.0684" y1="24.5927" x2="71.0684" y2="20.3645" gradientUnits="userSpaceOnUse">
<stop stop-color="#B3DAFE" stop-opacity="0"/>
<stop offset="0.4315" stop-color="#B1D9FE" stop-opacity="0.432"/>
<stop offset="0.6657" stop-color="#A9D6FE" stop-opacity="0.666"/>
<stop offset="0.852" stop-color="#9BD0FE" stop-opacity="0.852"/>
<stop offset="1" stop-color="#8AC9FE"/>
</linearGradient>
<linearGradient id="paint70_linear_1_51" x1="67.4705" y1="38.9972" x2="59.1941" y2="38.9972" gradientUnits="userSpaceOnUse">
<stop stop-color="#B3DAFE" stop-opacity="0"/>
<stop offset="0.4315" stop-color="#B1D9FE" stop-opacity="0.432"/>
<stop offset="0.6657" stop-color="#A9D6FE" stop-opacity="0.666"/>
<stop offset="0.852" stop-color="#9BD0FE" stop-opacity="0.852"/>
<stop offset="1" stop-color="#8AC9FE"/>
</linearGradient>
</defs>
</svg>
