<svg width="78" height="73" viewBox="0 0 78 73" fill="none" xmlns="http://www.w3.org/2000/svg">
<path d="M34.2542 72.5359H6.03019C4.31305 72.5359 2.9211 71.1439 2.9211 69.4268V34.9389C2.9211 33.0041 4.48956 31.4357 6.42435 31.4357H34.2542C35.3185 31.4357 36.1814 32.2986 36.1814 33.3629V70.6087C36.1814 71.673 35.3185 72.5359 34.2542 72.5359Z" fill="url(#paint0_linear_1_318)"/>
<path d="M34.2542 72.5359H6.03019C4.31305 72.5359 2.9211 71.1439 2.9211 69.4268V34.9389C2.9211 33.0041 4.48956 31.4357 6.42435 31.4357H34.2542C35.3185 31.4357 36.1814 32.2986 36.1814 33.3629V70.6087C36.1814 71.673 35.3185 72.5359 34.2542 72.5359Z" fill="url(#paint1_linear_1_318)"/>
<path d="M2.9211 67.9762V69.4268C2.9211 71.1439 4.31305 72.5359 6.03019 72.5359H34.2542C35.3185 72.5359 36.1814 71.673 36.1814 70.6087V67.9762H2.9211Z" fill="url(#paint2_linear_1_318)"/>
<path d="M34.2542 31.4357H19.967V72.5359H34.2542C35.3185 72.5359 36.1814 71.673 36.1814 70.6087V33.3629C36.1814 32.2984 35.3185 31.4357 34.2542 31.4357Z" fill="url(#paint3_linear_1_318)"/>
<path d="M33.2935 66.1214L27.9941 72.5359H34.2543C35.3187 72.5359 36.1816 71.673 36.1816 70.6087V64.2184C36.1816 65.2694 35.3296 66.1214 34.2785 66.1214H33.2935Z" fill="url(#paint4_linear_1_318)"/>
<path d="M33.2935 66.1214L27.9941 72.5359H34.2543C35.3187 72.5359 36.1816 71.673 36.1816 70.6087V64.2184C36.1816 65.2694 35.3296 66.1214 34.2785 66.1214H33.2935Z" fill="url(#paint5_linear_1_318)"/>
<path d="M33.2935 71.8232H7.19738C5.62287 71.8232 4.34647 70.5468 4.34647 68.9723C4.34647 67.3978 5.62287 66.1214 7.19738 66.1214H33.2933C33.9698 66.1214 34.5183 66.6698 34.5183 67.3463V70.5981C34.5184 71.2746 33.97 71.8232 33.2935 71.8232Z" fill="url(#paint6_linear_1_318)"/>
<path d="M33.2935 71.8232H7.19738C5.62287 71.8232 4.34647 70.5468 4.34647 68.9723C4.34647 67.3978 5.62287 66.1214 7.19738 66.1214H33.2933C33.9698 66.1214 34.5183 66.6698 34.5183 67.3463V70.5981C34.5184 71.2746 33.97 71.8232 33.2935 71.8232Z" fill="url(#paint7_linear_1_318)"/>
<path d="M33.2935 66.1214H27.9941V71.8232H33.2935C33.97 71.8232 34.5184 71.2748 34.5184 70.5982V67.3465C34.5184 66.6698 33.97 66.1214 33.2935 66.1214Z" fill="url(#paint8_linear_1_318)"/>
<path d="M33.2935 66.1214H7.19738C5.79288 66.1214 4.62644 67.1373 4.39079 68.4742C4.62644 69.8111 5.79288 70.8271 7.19738 70.8271H33.2933C33.9698 70.8271 34.5183 70.2786 34.5183 69.6021V67.3463C34.5184 66.6698 33.97 66.1214 33.2935 66.1214Z" fill="url(#paint9_linear_1_318)"/>
<path d="M33.2935 66.1214H7.19738C5.97332 66.1214 4.92984 66.8929 4.5257 67.9761C4.92969 69.0594 5.97332 69.8309 7.19738 69.8309H33.2933C33.9698 69.8309 34.5183 69.2825 34.5183 68.606V67.3463C34.5184 66.6698 33.97 66.1214 33.2935 66.1214Z" fill="url(#paint10_linear_1_318)"/>
<path d="M33.2935 66.1214H7.19739C6.17085 66.1214 5.27137 66.6641 4.76937 67.4781C5.27137 68.2921 6.17085 68.8348 7.19739 68.8348H33.2933C33.9698 68.8348 34.5183 68.2864 34.5183 67.6098V67.3463C34.5184 66.6698 33.97 66.1214 33.2935 66.1214Z" fill="url(#paint11_linear_1_318)"/>
<path d="M33.2935 66.1214H7.19739C6.17085 66.1214 5.27137 66.6641 4.76937 67.4781C5.27137 68.2921 6.17085 68.8348 7.19739 68.8348H33.2933C33.9698 68.8348 34.5183 68.2864 34.5183 67.6098V67.3463C34.5184 66.6698 33.97 66.1214 33.2935 66.1214Z" fill="url(#paint12_linear_1_318)"/>
<path d="M31.3331 63.7006H3.10909C1.39195 63.7006 0 62.3086 0 60.5915V26.1036C0 24.1688 1.56846 22.6003 3.50325 22.6003H31.3331C32.3974 22.6003 33.2603 23.4632 33.2603 24.5276V61.7733C33.2603 62.8377 32.3974 63.7006 31.3331 63.7006Z" fill="url(#paint13_linear_1_318)"/>
<path d="M33.2603 24.5273C33.2603 23.463 32.3975 22.6001 31.3331 22.6001H14.6026L10.0654 27.1373L33.2603 50.3322V24.5273Z" fill="url(#paint14_linear_1_318)"/>
<path d="M0 59.1407V60.5914C0 62.3085 1.39195 63.7005 3.10909 63.7005H31.3331C32.3974 63.7005 33.2603 62.8376 33.2603 61.7733V59.1407H0Z" fill="url(#paint15_linear_1_318)"/>
<path d="M31.3331 22.6006H17.0458V63.7008H31.3331C32.3974 63.7008 33.2603 62.8379 33.2603 61.7736V24.5277C33.2603 23.4633 32.3974 22.6006 31.3331 22.6006Z" fill="url(#paint16_linear_1_318)"/>
<path d="M30.3722 57.286L25.0729 63.7005H31.3331C32.3974 63.7005 33.2603 62.8376 33.2603 61.7732V55.3829C33.2603 56.434 32.4083 57.286 31.3573 57.286H30.3722Z" fill="url(#paint17_linear_1_318)"/>
<path d="M30.3722 57.286L25.0729 63.7005H31.3331C32.3974 63.7005 33.2603 62.8376 33.2603 61.7732V55.3829C33.2603 56.434 32.4083 57.286 31.3573 57.286H30.3722Z" fill="url(#paint18_linear_1_318)"/>
<path d="M30.3719 62.9876H4.27601C2.70149 62.9876 1.42509 61.7112 1.42509 60.1367C1.42509 58.5622 2.70149 57.2858 4.27601 57.2858H30.3719C31.0485 57.2858 31.5969 57.8342 31.5969 58.5107V61.7625C31.5971 62.4392 31.0485 62.9876 30.3719 62.9876Z" fill="url(#paint19_linear_1_318)"/>
<path d="M30.3719 62.9876H4.27601C2.70149 62.9876 1.42509 61.7112 1.42509 60.1367C1.42509 58.5622 2.70149 57.2858 4.27601 57.2858H30.3719C31.0485 57.2858 31.5969 57.8342 31.5969 58.5107V61.7625C31.5971 62.4392 31.0485 62.9876 30.3719 62.9876Z" fill="url(#paint20_linear_1_318)"/>
<path d="M30.372 57.2863H25.0727V62.9881H30.372C31.0486 62.9881 31.597 62.4397 31.597 61.7632V58.5114C31.5971 57.8347 31.0486 57.2863 30.372 57.2863Z" fill="url(#paint21_linear_1_318)"/>
<path d="M30.3722 57.2863H4.27627C2.87176 57.2863 1.70532 58.3023 1.46968 59.6392C1.70532 60.9761 2.87176 61.992 4.27627 61.992H30.3722C31.0487 61.992 31.5972 61.4436 31.5972 60.767V58.5113C31.5973 57.8347 31.0487 57.2863 30.3722 57.2863Z" fill="url(#paint22_linear_1_318)"/>
<path d="M30.3721 57.2863H4.27617C3.0521 57.2863 2.00863 58.0578 1.60449 59.1411C2.00848 60.2243 3.0521 60.9959 4.27617 60.9959H30.3721C31.0486 60.9959 31.5971 60.4474 31.5971 59.7709V58.5113C31.5972 57.8347 31.0486 57.2863 30.3721 57.2863Z" fill="url(#paint23_linear_1_318)"/>
<path d="M30.372 57.2863H4.27608C3.24955 57.2863 2.35007 57.829 1.84807 58.643C2.35007 59.4571 3.24955 59.9997 4.27608 59.9997H30.372C31.0485 59.9997 31.597 59.4513 31.597 58.7748V58.5113C31.5971 57.8347 31.0485 57.2863 30.372 57.2863Z" fill="url(#paint24_linear_1_318)"/>
<path d="M30.372 57.2863H4.27608C3.24955 57.2863 2.35007 57.829 1.84807 58.643C2.35007 59.4571 3.24955 59.9997 4.27608 59.9997H30.372C31.0485 59.9997 31.597 59.4513 31.597 58.7748V58.5113C31.5971 57.8347 31.0485 57.2863 30.372 57.2863Z" fill="url(#paint25_linear_1_318)"/>
<path d="M77.0049 34.3374C67.9344 30.1036 57.967 30.173 48.927 34.5442C39.8869 30.173 29.9195 30.1036 20.8491 34.3374C20.5826 34.4619 20.4139 34.7317 20.4139 35.0259V68.1384C20.4139 68.6879 20.9787 69.059 21.4811 68.8366C29.8365 65.1369 38.9104 65.0561 47.2963 68.5931C48.3384 69.0326 49.5156 69.0326 50.5577 68.5931C58.9436 65.0561 68.0176 65.1369 76.3729 68.8366C76.8754 69.0591 77.4402 68.6879 77.4402 68.1384V35.0259C77.44 34.7317 77.2714 34.4619 77.0049 34.3374Z" fill="url(#paint26_linear_1_318)"/>
<path d="M77.0049 34.3374C67.9344 30.1036 57.967 30.173 48.927 34.5442C39.8869 30.173 29.9195 30.1036 20.8491 34.3374C20.5826 34.4619 20.4139 34.7317 20.4139 35.0259V68.1384C20.4139 68.6879 20.9787 69.059 21.4811 68.8366C29.8365 65.1369 38.9104 65.0561 47.2963 68.5931C48.3384 69.0326 49.5156 69.0326 50.5577 68.5931C58.9436 65.0561 68.0176 65.1369 76.3729 68.8366C76.8754 69.0591 77.4402 68.6879 77.4402 68.1384V35.0259C77.44 34.7317 77.2714 34.4619 77.0049 34.3374Z" fill="url(#paint27_linear_1_318)"/>
<path d="M77.0044 34.3375C73.622 32.7588 70.1149 31.7792 66.5778 31.3971V66.1846C69.8952 66.5429 73.1861 67.4259 76.3723 68.8368C76.8748 69.0592 77.4395 68.6881 77.4395 68.1386V35.026C77.4395 34.7319 77.2709 34.462 77.0044 34.3375Z" fill="url(#paint28_linear_1_318)"/>
<path d="M48.927 34.5442C39.8869 30.173 29.9195 30.1036 20.8491 34.3374C20.5826 34.4619 20.4139 34.7317 20.4139 35.0259V68.1384C20.4139 68.6879 20.9787 69.059 21.4811 68.8366C29.8365 65.1369 38.9104 65.0561 47.2963 68.5931C47.8174 68.8129 48.3722 68.9227 48.927 68.9227V34.5442Z" fill="url(#paint29_linear_1_318)"/>
<path d="M48.927 34.5442C39.8869 30.173 29.9195 30.1036 20.8491 34.3374C20.5826 34.4619 20.4139 34.7317 20.4139 35.0259V68.1384C20.4139 68.6879 20.9787 69.059 21.4811 68.8366C29.8365 65.1369 38.9104 65.0561 47.2963 68.5931C47.8174 68.8129 48.3722 68.9227 48.927 68.9227V34.5442Z" fill="url(#paint30_linear_1_318)"/>
<path d="M48.927 34.5442C39.8869 30.173 29.9195 30.1036 20.8491 34.3374C20.5826 34.4619 20.4139 34.7317 20.4139 35.0259V68.1384C20.4139 68.6879 20.9787 69.059 21.4811 68.8366C29.8365 65.1369 38.9104 65.0561 47.2963 68.5931C47.8174 68.8129 48.3722 68.9227 48.927 68.9227V34.5442Z" fill="url(#paint31_linear_1_318)"/>
<path d="M76.3728 67.6168C68.0174 63.9171 58.9435 63.8363 50.5576 67.3733C49.5155 67.8128 48.3383 67.8128 47.2962 67.3733C38.9103 63.8363 29.8363 63.9171 21.481 67.6168C20.9785 67.8393 20.4138 67.4681 20.4138 66.9186V68.1384C20.4138 68.6879 20.9785 69.059 21.481 68.8366C29.8363 65.1369 38.9103 65.0561 47.2962 68.5931C48.3383 69.0326 49.5155 69.0326 50.5576 68.5931C58.9435 65.0561 68.0174 65.1369 76.3728 68.8366C76.8752 69.0591 77.44 68.6879 77.44 68.1384V66.9186C77.44 67.4681 76.8752 67.8393 76.3728 67.6168Z" fill="url(#paint32_linear_1_318)"/>
<path d="M75.6912 32.8512C67.0264 28.9246 57.5407 29.0444 48.9271 33.2094C40.3134 29.0444 30.8277 28.9245 22.1629 32.8511C21.6965 33.0624 21.3979 33.529 21.3979 34.0411V64.7789C21.3979 65.7124 22.3464 66.3404 23.2093 65.9843C31.1361 62.7128 39.684 62.7792 47.585 66.1822C48.4426 66.5515 49.4117 66.5515 50.2693 66.1822C58.1702 62.7792 66.718 62.7128 74.645 65.9843C75.5079 66.3405 76.4564 65.7124 76.4564 64.7789V34.0412C76.4562 33.5291 76.1577 33.0625 75.6912 32.8512Z" fill="url(#paint33_linear_1_318)"/>
<path d="M44.5112 57.5549V57.5546C44.5112 57.2869 44.3385 57.0479 44.0829 56.9683C41.0966 56.038 38.0362 55.5542 34.9466 55.5293C34.8627 55.5287 34.7795 55.5284 34.6957 55.5284C31.5243 55.5284 28.38 56.0124 25.312 56.9682C25.0562 57.0479 24.8835 57.2867 24.8835 57.5546C24.8835 57.9693 25.2852 58.2632 25.6815 58.1407C31.5831 56.3163 37.8125 56.318 43.7137 58.1411C44.1095 58.2635 44.5112 57.9696 44.5112 57.5549Z" fill="url(#paint34_linear_1_318)"/>
<path d="M44.5112 53.029V53.0287C44.5112 52.761 44.3385 52.522 44.0829 52.4425C41.0966 51.5122 38.0362 51.0283 34.9466 51.0035C34.8627 51.0029 34.7795 51.0026 34.6957 51.0026C31.5243 51.0026 28.38 51.4866 25.312 52.4423C25.0562 52.522 24.8835 52.7609 24.8835 53.0287C24.8835 53.4435 25.2852 53.7373 25.6815 53.6148C31.5831 51.7905 37.8125 51.7921 43.7137 53.6153C44.1095 53.7376 44.5112 53.4438 44.5112 53.029Z" fill="url(#paint35_linear_1_318)"/>
<path d="M44.5112 48.5033V48.503C44.5112 48.2353 44.3385 47.9964 44.0829 47.9168C41.0966 46.9865 38.0362 46.5026 34.9466 46.4778C34.8627 46.4772 34.7795 46.4767 34.6957 46.4767C31.5243 46.4767 28.38 46.9607 25.312 47.9165C25.0562 47.9962 24.8835 48.235 24.8835 48.5029C24.8835 48.9176 25.2852 49.2115 25.6815 49.089C31.5831 47.2646 37.8125 47.2663 43.7137 49.0894C44.1095 49.2119 44.5112 48.9181 44.5112 48.5033Z" fill="url(#paint36_linear_1_318)"/>
<path d="M44.5111 43.9777V43.9774C44.5111 43.7097 44.3383 43.4707 44.0827 43.3912C41.0964 42.4609 38.0361 41.977 34.9465 41.9522C34.8625 41.9516 34.7793 41.9513 34.6955 41.9513C31.5241 41.9513 28.3798 42.4353 25.3118 43.391C25.0561 43.4707 24.8834 43.7096 24.8834 43.9774C24.8834 44.3922 25.2851 44.686 25.6813 44.5635C31.583 42.7392 37.8124 42.741 43.7135 44.564C44.1093 44.6863 44.5111 44.3925 44.5111 43.9777Z" fill="url(#paint37_linear_1_318)"/>
<path d="M44.5111 39.4521V39.4518C44.5111 39.1841 44.3383 38.9451 44.0827 38.8655C41.0964 37.9352 38.0361 37.4513 34.9465 37.4265C34.8625 37.4259 34.7793 37.4256 34.6955 37.4256C31.5241 37.4256 28.3798 37.9096 25.3118 38.8654C25.0561 38.9451 24.8834 39.1839 24.8834 39.4518C24.8834 39.8665 25.2851 40.1604 25.6813 40.0379C31.583 38.2135 37.8124 38.2152 43.7135 40.0383C44.1093 40.1607 44.5111 39.8668 44.5111 39.4521Z" fill="url(#paint38_linear_1_318)"/>
<path d="M42.9972 34.0222V35.3009C37.3102 33.6926 31.3448 33.7605 25.681 35.5114C25.6198 35.5303 25.5575 35.5392 25.4973 35.5392C25.1698 35.5392 24.8835 35.2753 24.8835 34.9255C24.8835 34.6582 25.0561 34.4186 25.3112 34.3397C28.3798 33.3829 31.524 32.8995 34.696 32.8995C34.7795 32.8995 34.8619 32.8995 34.9466 32.9005C37.6632 32.9217 40.3574 33.2994 42.9972 34.0222Z" fill="url(#paint39_linear_1_318)"/>
<path d="M72.9707 57.5549V57.5546C72.9707 57.2869 72.798 57.0479 72.5424 56.9683C69.5561 56.038 66.4957 55.5542 63.4061 55.5293C63.3222 55.5287 63.239 55.5284 63.1552 55.5284C59.9838 55.5284 56.8394 56.0124 53.7715 56.9682C53.5157 57.0479 53.343 57.2867 53.343 57.5546C53.343 57.9693 53.7447 58.2632 54.141 58.1407C60.0426 56.3163 66.272 56.318 72.1732 58.1411C72.569 58.2635 72.9707 57.9696 72.9707 57.5549Z" fill="url(#paint40_linear_1_318)"/>
<path d="M72.9707 53.029V53.0287C72.9707 52.761 72.798 52.522 72.5424 52.4425C69.5561 51.5122 66.4957 51.0283 63.4061 51.0035C63.3222 51.0029 63.239 51.0026 63.1552 51.0026C59.9838 51.0026 56.8394 51.4866 53.7715 52.4423C53.5157 52.522 53.343 52.7609 53.343 53.0287C53.343 53.4435 53.7447 53.7373 54.141 53.6148C60.0426 51.7905 66.272 51.7921 72.1732 53.6153C72.569 53.7376 72.9707 53.4438 72.9707 53.029Z" fill="url(#paint41_linear_1_318)"/>
<path d="M72.9707 48.5033V48.503C72.9707 48.2353 72.798 47.9964 72.5424 47.9168C69.5561 46.9865 66.4957 46.5026 63.4061 46.4778C63.3222 46.4772 63.239 46.4767 63.1552 46.4767C59.9838 46.4767 56.8394 46.9607 53.7715 47.9165C53.5157 47.9962 53.343 48.235 53.343 48.5029C53.343 48.9176 53.7447 49.2115 54.141 49.089C60.0426 47.2646 66.272 47.2663 72.1732 49.0894C72.569 49.2119 72.9707 48.9181 72.9707 48.5033Z" fill="url(#paint42_linear_1_318)"/>
<path d="M72.9706 43.9777V43.9774C72.9706 43.7097 72.7979 43.4707 72.5423 43.3912C69.556 42.4609 66.4956 41.977 63.406 41.9522C63.3221 41.9516 63.2389 41.9513 63.1551 41.9513C59.9837 41.9513 56.8393 42.4353 53.7714 43.391C53.5156 43.4707 53.3429 43.7096 53.3429 43.9774C53.3429 44.3922 53.7446 44.686 54.1409 44.5635C60.0425 42.7392 66.2719 42.741 72.1731 44.564C72.5689 44.6863 72.9706 44.3925 72.9706 43.9777Z" fill="url(#paint43_linear_1_318)"/>
<path d="M72.9706 39.4521V39.4518C72.9706 39.1841 72.7979 38.9451 72.5423 38.8655C69.556 37.9352 66.4956 37.4513 63.406 37.4265C63.3221 37.4259 63.2389 37.4256 63.1551 37.4256C59.9837 37.4256 56.8393 37.9096 53.7714 38.8654C53.5156 38.9451 53.3429 39.1839 53.3429 39.4518C53.3429 39.8665 53.7446 40.1604 54.1409 40.0379C60.0425 38.2135 66.2719 38.2152 72.1731 40.0383C72.5689 40.1607 72.9706 39.8668 72.9706 39.4521Z" fill="url(#paint44_linear_1_318)"/>
<path d="M72.9703 34.9255C72.9703 35.341 72.5694 35.635 72.1728 35.5125C66.5103 33.7627 60.5448 33.6904 54.8566 35.2997V34.0222C57.5799 33.2759 60.3565 32.8995 63.1544 32.8995C63.2391 32.8995 63.3215 32.8995 63.406 32.9005C66.4956 32.925 69.5553 33.4095 72.5424 34.3395C72.7976 34.4186 72.9703 34.6582 72.9703 34.9255Z" fill="url(#paint45_linear_1_318)"/>
<path d="M75.6911 32.8512C73.2377 31.7394 70.7185 30.9527 68.1719 30.4896V64.0775C70.3577 64.475 72.5236 65.1091 74.6449 65.9845C75.5078 66.3405 76.4561 65.7125 76.4561 64.779V34.0412C76.4561 33.5291 76.1576 33.0625 75.6911 32.8512Z" fill="url(#paint46_linear_1_318)"/>
<path d="M48.9271 33.2096C40.3134 29.0446 30.8277 28.9247 22.1629 32.8513C21.6965 33.0626 21.3979 33.5292 21.3979 34.0413V64.7791C21.3979 65.7126 22.3464 66.3406 23.2093 65.9846C31.1361 62.713 39.684 62.7794 47.585 66.1824C48.0138 66.3671 48.4704 66.4595 48.9272 66.4595L48.9271 33.2096Z" fill="url(#paint47_linear_1_318)"/>
<path d="M74.6447 64.8409C66.7179 61.5693 58.17 61.6357 50.269 65.0387C49.4114 65.4081 48.4424 65.4081 47.5848 65.0387C39.6838 61.6357 31.136 61.5693 23.209 64.8409C22.3461 65.1971 21.3976 64.5689 21.3976 63.6354V64.7789C21.3976 65.7124 22.3461 66.3404 23.209 65.9843C31.1359 62.7128 39.6838 62.7792 47.5848 66.1822C48.4424 66.5515 49.4114 66.5515 50.269 66.1822C58.17 62.7792 66.7177 62.7128 74.6447 65.9843C75.5076 66.3404 76.456 65.7124 76.456 64.7789V63.6354C76.4561 64.5689 75.5076 65.1971 74.6447 64.8409Z" fill="url(#paint48_linear_1_318)"/>
<path d="M74.6447 64.1052C66.7179 60.8337 58.17 60.9001 50.269 64.303C49.4114 64.6724 48.4424 64.6724 47.5848 64.303C39.6838 60.9001 31.136 60.8337 23.209 64.1052C22.3461 64.4614 21.3976 63.8333 21.3976 62.8997V64.0432C21.3976 64.9767 22.3461 65.6047 23.209 65.2487C31.1359 61.9771 39.6838 62.0435 47.5848 65.4465C48.4424 65.8158 49.4114 65.8158 50.269 65.4465C58.17 62.0435 66.7177 61.9771 74.6447 65.2487C75.5076 65.6047 76.456 64.9767 76.456 64.0432V62.8997C76.4561 63.8333 75.5076 64.4614 74.6447 64.1052Z" fill="url(#paint49_linear_1_318)"/>
<path d="M74.6447 63.3695C66.7179 60.098 58.17 60.1644 50.269 63.5674C49.4114 63.9367 48.4424 63.9367 47.5848 63.5674C39.6838 60.1644 31.136 60.098 23.209 63.3695C22.3461 63.7257 21.3976 63.0976 21.3976 62.1641V63.3075C21.3976 64.241 22.3461 64.869 23.209 64.513C31.1359 61.2415 39.6838 61.3079 47.5848 64.7108C48.4424 65.0802 49.4114 65.0802 50.269 64.7108C58.17 61.3079 66.7177 61.2415 74.6447 64.513C75.5076 64.869 76.456 64.241 76.456 63.3075V62.1641C76.4561 63.0976 75.5076 63.7257 74.6447 63.3695Z" fill="url(#paint50_linear_1_318)"/>
<path d="M74.6447 62.6339C66.7179 59.3623 58.17 59.4287 50.269 62.8317C49.4114 63.201 48.4424 63.201 47.5848 62.8317C39.6838 59.4287 31.136 59.3623 23.209 62.6339C22.3461 62.9901 21.3976 62.3619 21.3976 61.4284V62.5718C21.3976 63.5054 22.3461 64.1333 23.209 63.7773C31.1359 60.5058 39.6838 60.5722 47.5848 63.9751C48.4424 64.3445 49.4114 64.3445 50.269 63.9751C58.17 60.5722 66.7177 60.5058 74.6447 63.7773C75.5076 64.1333 76.456 63.5054 76.456 62.5718V61.4284C76.4561 62.3619 75.5076 62.9901 74.6447 62.6339Z" fill="url(#paint51_linear_1_318)"/>
<path d="M23.875 10.9204C27.5644 7.87302 31.9706 6.13274 36.4788 5.70047C36.7845 5.67113 37.0168 5.41264 37.0168 5.10545V0.599563C37.0168 0.248663 36.7166 -0.0261586 36.3669 0.00212519C30.4728 0.478714 24.6972 2.74852 19.9248 6.81231C19.658 7.03948 19.6406 7.44605 19.8883 7.69379L23.0741 10.8796C23.2911 11.0965 23.6383 11.1158 23.875 10.9204Z" fill="url(#paint52_linear_1_318)"/>
<path d="M40.4232 0.599571V5.10546C40.4232 5.41265 40.6554 5.67114 40.9612 5.70048C45.4695 6.13275 49.8756 7.87303 53.565 10.9204C53.8016 11.1158 54.1489 11.0966 54.3658 10.8796L57.5517 7.69365C57.7994 7.4459 57.782 7.03934 57.5152 6.81217C52.7428 2.74838 46.9672 0.478571 41.0732 0.00198263C40.7235 -0.0261499 40.4232 0.248671 40.4232 0.599571Z" fill="url(#paint53_linear_1_318)"/>
<path d="M15.4862 26.6929C15.9185 22.1846 17.6587 17.7785 20.7061 14.0891C20.9015 13.8525 20.8823 13.5053 20.6653 13.2884L17.4795 10.1026C17.2318 9.85485 16.8252 9.87224 16.598 10.139C12.5342 14.9114 10.2644 20.6871 9.78785 26.5811C9.75956 26.9308 10.0344 27.2311 10.3853 27.2311H14.8912C15.1984 27.2309 15.4568 26.9987 15.4862 26.6929Z" fill="url(#paint54_linear_1_318)"/>
<path d="M56.7339 14.0891C59.7813 17.7785 61.5215 22.1847 61.9538 26.6929C61.9832 26.9986 62.2416 27.2309 62.5488 27.2309H67.0547C67.4056 27.2309 67.6804 26.9307 67.6522 26.581C67.1756 20.6869 64.9058 14.9113 60.842 10.1389C60.6148 9.87209 60.2082 9.8547 59.9605 10.1024L56.7747 13.2882C56.5577 13.5053 56.5385 13.8525 56.7339 14.0891Z" fill="url(#paint55_linear_1_318)"/>
<path d="M38.838 25.8881L38.1073 24.0745L49.4032 19.5232C52.4428 18.2985 55.6198 17.4476 58.8644 16.9889L59.9156 16.8402C60.4642 16.7626 60.7499 17.4718 60.3008 17.7962L59.4402 18.4179C56.7838 20.3368 53.9041 21.926 50.8646 23.1505L39.5687 27.7017L38.838 25.8881Z" fill="url(#paint56_linear_1_318)"/>
<path d="M38.72 29.9643C40.9061 29.9643 42.6782 28.1922 42.6782 26.0061C42.6782 23.82 40.9061 22.0479 38.72 22.0479C36.5339 22.0479 34.7618 23.82 34.7618 26.0061C34.7618 28.1922 36.5339 29.9643 38.72 29.9643Z" fill="url(#paint57_linear_1_318)"/>
<path d="M34.7618 26.0061C34.7618 28.1921 36.534 29.9643 38.72 29.9643C40.9062 29.9643 42.6782 28.1921 42.6782 26.0061C42.6782 25.5327 42.5949 25.0788 42.4424 24.6578H34.9976C34.8451 25.0788 34.7618 25.5327 34.7618 26.0061Z" fill="url(#paint58_linear_1_318)"/>
<path d="M35.9211 28.8051C37.4669 30.3509 39.9731 30.3509 41.519 28.8051C43.0648 27.2594 43.0648 24.7531 41.519 23.2072C41.1843 22.8725 40.8044 22.6105 40.399 22.4207L35.1348 27.685C35.3243 28.0903 35.5863 28.4703 35.9211 28.8051Z" fill="url(#paint59_linear_1_318)"/>
<defs>
<linearGradient id="paint0_linear_1_318" x1="6.73093" y1="34.7895" x2="32.1388" y2="68.0944" gradientUnits="userSpaceOnUse">
<stop stop-color="#FEF0AE"/>
<stop offset="1" stop-color="#FAC600"/>
</linearGradient>
<linearGradient id="paint1_linear_1_318" x1="19.5513" y1="66.2761" x2="19.5513" y2="63.4145" gradientUnits="userSpaceOnUse">
<stop stop-color="#FE9738" stop-opacity="0"/>
<stop offset="1" stop-color="#FE9738"/>
</linearGradient>
<linearGradient id="paint2_linear_1_318" x1="19.5513" y1="69.389" x2="19.5513" y2="73.0834" gradientUnits="userSpaceOnUse">
<stop stop-color="#FE9738" stop-opacity="0"/>
<stop offset="1" stop-color="#FE9738"/>
</linearGradient>
<linearGradient id="paint3_linear_1_318" x1="31.2274" y1="51.9857" x2="36.2894" y2="51.9857" gradientUnits="userSpaceOnUse">
<stop stop-color="#FE9738" stop-opacity="0"/>
<stop offset="1" stop-color="#FE9738"/>
</linearGradient>
<linearGradient id="paint4_linear_1_318" x1="32.0877" y1="70.0935" x2="32.0877" y2="66.3042" gradientUnits="userSpaceOnUse">
<stop stop-color="#FE9738" stop-opacity="0"/>
<stop offset="1" stop-color="#FE9738"/>
</linearGradient>
<linearGradient id="paint5_linear_1_318" x1="29.2518" y1="70.7327" x2="36.6328" y2="67.9034" gradientUnits="userSpaceOnUse">
<stop stop-color="#FE9738" stop-opacity="0"/>
<stop offset="1" stop-color="#FE9738"/>
</linearGradient>
<linearGradient id="paint6_linear_1_318" x1="19.3713" y1="66.1763" x2="19.543" y2="71.7843" gradientUnits="userSpaceOnUse">
<stop stop-color="#F5FBFF"/>
<stop offset="1" stop-color="#91DCFA"/>
</linearGradient>
<linearGradient id="paint7_linear_1_318" x1="19.3713" y1="66.1763" x2="19.543" y2="71.7843" gradientUnits="userSpaceOnUse">
<stop stop-color="#F5FBFF"/>
<stop offset="1" stop-color="#91DCFA"/>
</linearGradient>
<linearGradient id="paint8_linear_1_318" x1="32.0518" y1="68.9723" x2="34.46" y2="68.9723" gradientUnits="userSpaceOnUse">
<stop stop-color="#60B7FF" stop-opacity="0"/>
<stop offset="1" stop-color="#60B7FF"/>
</linearGradient>
<linearGradient id="paint9_linear_1_318" x1="19.4709" y1="68.054" x2="20.0049" y2="73.7385" gradientUnits="userSpaceOnUse">
<stop stop-color="#60B7FF" stop-opacity="0"/>
<stop offset="1" stop-color="#60B7FF"/>
</linearGradient>
<linearGradient id="paint10_linear_1_318" x1="19.5733" y1="67.8196" x2="19.1154" y2="72.3213" gradientUnits="userSpaceOnUse">
<stop stop-color="#60B7FF" stop-opacity="0"/>
<stop offset="1" stop-color="#60B7FF"/>
</linearGradient>
<linearGradient id="paint11_linear_1_318" x1="19.5513" y1="66.5176" x2="20.0473" y2="71.1338" gradientUnits="userSpaceOnUse">
<stop stop-color="#60B7FF" stop-opacity="0"/>
<stop offset="1" stop-color="#60B7FF"/>
</linearGradient>
<linearGradient id="paint12_linear_1_318" x1="19.6439" y1="67.7281" x2="19.6439" y2="65.9347" gradientUnits="userSpaceOnUse">
<stop stop-color="#60B7FF" stop-opacity="0"/>
<stop offset="1" stop-color="#60B7FF"/>
</linearGradient>
<linearGradient id="paint13_linear_1_318" x1="3.80984" y1="25.9542" x2="29.2176" y2="59.259" gradientUnits="userSpaceOnUse">
<stop stop-color="#FE5694"/>
<stop offset="1" stop-color="#E41F2D"/>
</linearGradient>
<linearGradient id="paint14_linear_1_318" x1="23.2264" y1="27.1491" x2="16.3258" y2="20.3565" gradientUnits="userSpaceOnUse">
<stop stop-color="#C41926" stop-opacity="0"/>
<stop offset="0.3626" stop-color="#BF1C27" stop-opacity="0.363"/>
<stop offset="0.8" stop-color="#B12529" stop-opacity="0.8"/>
<stop offset="1" stop-color="#A72B2B"/>
</linearGradient>
<linearGradient id="paint15_linear_1_318" x1="16.6301" y1="60.5536" x2="16.6301" y2="64.248" gradientUnits="userSpaceOnUse">
<stop stop-color="#C41926" stop-opacity="0"/>
<stop offset="0.3626" stop-color="#BF1C27" stop-opacity="0.363"/>
<stop offset="0.8" stop-color="#B12529" stop-opacity="0.8"/>
<stop offset="1" stop-color="#A72B2B"/>
</linearGradient>
<linearGradient id="paint16_linear_1_318" x1="28.3063" y1="43.1506" x2="33.3683" y2="43.1506" gradientUnits="userSpaceOnUse">
<stop stop-color="#C41926" stop-opacity="0"/>
<stop offset="0.3626" stop-color="#BF1C27" stop-opacity="0.363"/>
<stop offset="0.8" stop-color="#B12529" stop-opacity="0.8"/>
<stop offset="1" stop-color="#A72B2B"/>
</linearGradient>
<linearGradient id="paint17_linear_1_318" x1="29.1666" y1="61.2581" x2="29.1666" y2="57.4688" gradientUnits="userSpaceOnUse">
<stop stop-color="#C41926" stop-opacity="0"/>
<stop offset="0.3626" stop-color="#BF1C27" stop-opacity="0.363"/>
<stop offset="0.8" stop-color="#B12529" stop-opacity="0.8"/>
<stop offset="1" stop-color="#A72B2B"/>
</linearGradient>
<linearGradient id="paint18_linear_1_318" x1="26.3307" y1="61.8973" x2="33.7117" y2="59.068" gradientUnits="userSpaceOnUse">
<stop stop-color="#C41926" stop-opacity="0"/>
<stop offset="0.3626" stop-color="#BF1C27" stop-opacity="0.363"/>
<stop offset="0.8" stop-color="#B12529" stop-opacity="0.8"/>
<stop offset="1" stop-color="#A72B2B"/>
</linearGradient>
<linearGradient id="paint19_linear_1_318" x1="16.45" y1="57.3408" x2="16.6216" y2="62.9489" gradientUnits="userSpaceOnUse">
<stop stop-color="#F5FBFF"/>
<stop offset="1" stop-color="#91DCFA"/>
</linearGradient>
<linearGradient id="paint20_linear_1_318" x1="16.45" y1="57.3408" x2="16.6216" y2="62.9489" gradientUnits="userSpaceOnUse">
<stop stop-color="#F5FBFF"/>
<stop offset="1" stop-color="#91DCFA"/>
</linearGradient>
<linearGradient id="paint21_linear_1_318" x1="29.1306" y1="60.1372" x2="31.5388" y2="60.1372" gradientUnits="userSpaceOnUse">
<stop stop-color="#60B7FF" stop-opacity="0"/>
<stop offset="1" stop-color="#60B7FF"/>
</linearGradient>
<linearGradient id="paint22_linear_1_318" x1="16.5498" y1="59.219" x2="17.0838" y2="64.9034" gradientUnits="userSpaceOnUse">
<stop stop-color="#60B7FF" stop-opacity="0"/>
<stop offset="1" stop-color="#60B7FF"/>
</linearGradient>
<linearGradient id="paint23_linear_1_318" x1="16.652" y1="58.9846" x2="16.1942" y2="63.4862" gradientUnits="userSpaceOnUse">
<stop stop-color="#60B7FF" stop-opacity="0"/>
<stop offset="1" stop-color="#60B7FF"/>
</linearGradient>
<linearGradient id="paint24_linear_1_318" x1="16.63" y1="57.6826" x2="17.126" y2="62.2987" gradientUnits="userSpaceOnUse">
<stop stop-color="#60B7FF" stop-opacity="0"/>
<stop offset="1" stop-color="#60B7FF"/>
</linearGradient>
<linearGradient id="paint25_linear_1_318" x1="16.7226" y1="58.893" x2="16.7226" y2="57.0997" gradientUnits="userSpaceOnUse">
<stop stop-color="#60B7FF" stop-opacity="0"/>
<stop offset="1" stop-color="#60B7FF"/>
</linearGradient>
<linearGradient id="paint26_linear_1_318" x1="36.3244" y1="30.4194" x2="62.883" y2="75.0179" gradientUnits="userSpaceOnUse">
<stop stop-color="#BBEC6C"/>
<stop offset="0.1974" stop-color="#B5E665"/>
<stop offset="0.4799" stop-color="#A5D552"/>
<stop offset="0.8118" stop-color="#8ABB33"/>
<stop offset="1" stop-color="#78A91F"/>
</linearGradient>
<linearGradient id="paint27_linear_1_318" x1="48.927" y1="63.0513" x2="48.927" y2="68.7507" gradientUnits="userSpaceOnUse">
<stop stop-color="#334C0F" stop-opacity="0"/>
<stop offset="0.3197" stop-color="#344C12" stop-opacity="0.32"/>
<stop offset="0.5654" stop-color="#374A1C" stop-opacity="0.565"/>
<stop offset="0.7856" stop-color="#3C482C" stop-opacity="0.786"/>
<stop offset="0.9909" stop-color="#444443" stop-opacity="0.991"/>
<stop offset="1" stop-color="#444444"/>
</linearGradient>
<linearGradient id="paint28_linear_1_318" x1="72.8004" y1="50.1497" x2="77.1903" y2="50.1497" gradientUnits="userSpaceOnUse">
<stop stop-color="#334C0F" stop-opacity="0"/>
<stop offset="0.3197" stop-color="#344C12" stop-opacity="0.32"/>
<stop offset="0.5654" stop-color="#374A1C" stop-opacity="0.565"/>
<stop offset="0.7856" stop-color="#3C482C" stop-opacity="0.786"/>
<stop offset="0.9909" stop-color="#444443" stop-opacity="0.991"/>
<stop offset="1" stop-color="#444444"/>
</linearGradient>
<linearGradient id="paint29_linear_1_318" x1="26.6137" y1="50.0679" x2="49.0357" y2="50.0679" gradientUnits="userSpaceOnUse">
<stop stop-color="#BBEC6C"/>
<stop offset="0.1974" stop-color="#B5E665"/>
<stop offset="0.4799" stop-color="#A5D552"/>
<stop offset="0.8118" stop-color="#8ABB33"/>
<stop offset="1" stop-color="#78A91F"/>
</linearGradient>
<linearGradient id="paint30_linear_1_318" x1="37.2182" y1="50.0679" x2="47.4213" y2="50.0679" gradientUnits="userSpaceOnUse">
<stop stop-color="#334C0F" stop-opacity="0"/>
<stop offset="0.3197" stop-color="#344C12" stop-opacity="0.32"/>
<stop offset="0.5654" stop-color="#374A1C" stop-opacity="0.565"/>
<stop offset="0.7856" stop-color="#3C482C" stop-opacity="0.786"/>
<stop offset="0.9909" stop-color="#444443" stop-opacity="0.991"/>
<stop offset="1" stop-color="#444444"/>
</linearGradient>
<linearGradient id="paint31_linear_1_318" x1="34.6704" y1="64.1923" x2="34.6704" y2="69.2727" gradientUnits="userSpaceOnUse">
<stop stop-color="#334C0F" stop-opacity="0"/>
<stop offset="0.3197" stop-color="#344C12" stop-opacity="0.32"/>
<stop offset="0.5654" stop-color="#374A1C" stop-opacity="0.565"/>
<stop offset="0.7856" stop-color="#3C482C" stop-opacity="0.786"/>
<stop offset="0.9909" stop-color="#444443" stop-opacity="0.991"/>
<stop offset="1" stop-color="#444444"/>
</linearGradient>
<linearGradient id="paint32_linear_1_318" x1="48.927" y1="42.0602" x2="48.927" y2="76.8766" gradientUnits="userSpaceOnUse">
<stop stop-color="#334C0F" stop-opacity="0"/>
<stop offset="0.3197" stop-color="#344C12" stop-opacity="0.32"/>
<stop offset="0.5654" stop-color="#374A1C" stop-opacity="0.565"/>
<stop offset="0.7856" stop-color="#3C482C" stop-opacity="0.786"/>
<stop offset="0.9909" stop-color="#444443" stop-opacity="0.991"/>
<stop offset="1" stop-color="#444444"/>
</linearGradient>
<linearGradient id="paint33_linear_1_318" x1="24.1215" y1="48.2264" x2="77.4793" y2="48.2264" gradientUnits="userSpaceOnUse">
<stop stop-color="#F5FBFF"/>
<stop offset="1" stop-color="#91DCFA"/>
</linearGradient>
<linearGradient id="paint34_linear_1_318" x1="25.3438" y1="34.8757" x2="36.936" y2="62.983" gradientUnits="userSpaceOnUse">
<stop stop-color="#60B7FF" stop-opacity="0"/>
<stop offset="1" stop-color="#60B7FF"/>
</linearGradient>
<linearGradient id="paint35_linear_1_318" x1="25.3438" y1="30.3499" x2="36.936" y2="58.4571" gradientUnits="userSpaceOnUse">
<stop stop-color="#60B7FF" stop-opacity="0"/>
<stop offset="1" stop-color="#60B7FF"/>
</linearGradient>
<linearGradient id="paint36_linear_1_318" x1="25.3438" y1="25.8242" x2="36.936" y2="53.9314" gradientUnits="userSpaceOnUse">
<stop stop-color="#60B7FF" stop-opacity="0"/>
<stop offset="1" stop-color="#60B7FF"/>
</linearGradient>
<linearGradient id="paint37_linear_1_318" x1="25.3436" y1="21.2987" x2="36.9358" y2="49.4058" gradientUnits="userSpaceOnUse">
<stop stop-color="#60B7FF" stop-opacity="0"/>
<stop offset="1" stop-color="#60B7FF"/>
</linearGradient>
<linearGradient id="paint38_linear_1_318" x1="25.3436" y1="16.7729" x2="36.9358" y2="44.8801" gradientUnits="userSpaceOnUse">
<stop stop-color="#60B7FF" stop-opacity="0"/>
<stop offset="1" stop-color="#60B7FF"/>
</linearGradient>
<linearGradient id="paint39_linear_1_318" x1="25.4111" y1="13.8547" x2="36.1447" y2="39.8798" gradientUnits="userSpaceOnUse">
<stop stop-color="#60B7FF" stop-opacity="0"/>
<stop offset="1" stop-color="#60B7FF"/>
</linearGradient>
<linearGradient id="paint40_linear_1_318" x1="53.8033" y1="34.8757" x2="65.3955" y2="62.983" gradientUnits="userSpaceOnUse">
<stop stop-color="#60B7FF" stop-opacity="0"/>
<stop offset="1" stop-color="#60B7FF"/>
</linearGradient>
<linearGradient id="paint41_linear_1_318" x1="53.8033" y1="30.3499" x2="65.3955" y2="58.4571" gradientUnits="userSpaceOnUse">
<stop stop-color="#60B7FF" stop-opacity="0"/>
<stop offset="1" stop-color="#60B7FF"/>
</linearGradient>
<linearGradient id="paint42_linear_1_318" x1="53.8033" y1="25.8242" x2="65.3955" y2="53.9314" gradientUnits="userSpaceOnUse">
<stop stop-color="#60B7FF" stop-opacity="0"/>
<stop offset="1" stop-color="#60B7FF"/>
</linearGradient>
<linearGradient id="paint43_linear_1_318" x1="53.8031" y1="21.2987" x2="65.3954" y2="49.4058" gradientUnits="userSpaceOnUse">
<stop stop-color="#60B7FF" stop-opacity="0"/>
<stop offset="1" stop-color="#60B7FF"/>
</linearGradient>
<linearGradient id="paint44_linear_1_318" x1="53.8031" y1="16.7729" x2="65.3954" y2="44.8801" gradientUnits="userSpaceOnUse">
<stop stop-color="#60B7FF" stop-opacity="0"/>
<stop offset="1" stop-color="#60B7FF"/>
</linearGradient>
<linearGradient id="paint45_linear_1_318" x1="54.569" y1="12.3939" x2="65.9882" y2="40.0816" gradientUnits="userSpaceOnUse">
<stop stop-color="#60B7FF" stop-opacity="0"/>
<stop offset="1" stop-color="#60B7FF"/>
</linearGradient>
<linearGradient id="paint46_linear_1_318" x1="70.0285" y1="48.2876" x2="76.7461" y2="48.2876" gradientUnits="userSpaceOnUse">
<stop stop-color="#60B7FF" stop-opacity="0"/>
<stop offset="1" stop-color="#60B7FF"/>
</linearGradient>
<linearGradient id="paint47_linear_1_318" x1="41.7483" y1="48.2265" x2="50.7434" y2="48.2265" gradientUnits="userSpaceOnUse">
<stop stop-color="#60B7FF" stop-opacity="0"/>
<stop offset="1" stop-color="#60B7FF"/>
</linearGradient>
<linearGradient id="paint48_linear_1_318" x1="48.927" y1="69.9693" x2="48.927" y2="57.6514" gradientUnits="userSpaceOnUse">
<stop stop-color="#60B7FF" stop-opacity="0"/>
<stop offset="1" stop-color="#60B7FF"/>
</linearGradient>
<linearGradient id="paint49_linear_1_318" x1="48.927" y1="69.2336" x2="48.927" y2="56.9157" gradientUnits="userSpaceOnUse">
<stop stop-color="#60B7FF" stop-opacity="0"/>
<stop offset="1" stop-color="#60B7FF"/>
</linearGradient>
<linearGradient id="paint50_linear_1_318" x1="48.927" y1="68.498" x2="48.927" y2="56.18" gradientUnits="userSpaceOnUse">
<stop stop-color="#60B7FF" stop-opacity="0"/>
<stop offset="1" stop-color="#60B7FF"/>
</linearGradient>
<linearGradient id="paint51_linear_1_318" x1="48.927" y1="67.7623" x2="48.927" y2="55.4443" gradientUnits="userSpaceOnUse">
<stop stop-color="#60B7FF" stop-opacity="0"/>
<stop offset="1" stop-color="#60B7FF"/>
</linearGradient>
<linearGradient id="paint52_linear_1_318" x1="25.582" y1="1.15208" x2="33.4002" y2="8.97034" gradientUnits="userSpaceOnUse">
<stop stop-color="#FEF0AE"/>
<stop offset="1" stop-color="#FAC600"/>
</linearGradient>
<linearGradient id="paint53_linear_1_318" x1="41.8314" y1="-1.05631" x2="54.0666" y2="11.1789" gradientUnits="userSpaceOnUse">
<stop stop-color="#FEF0AE"/>
<stop offset="1" stop-color="#FAC600"/>
</linearGradient>
<linearGradient id="paint54_linear_1_318" x1="10.938" y1="15.7961" x2="18.7562" y2="23.6144" gradientUnits="userSpaceOnUse">
<stop stop-color="#BBEC6C"/>
<stop offset="0.1974" stop-color="#B5E665"/>
<stop offset="0.4799" stop-color="#A5D552"/>
<stop offset="0.8118" stop-color="#8ABB33"/>
<stop offset="1" stop-color="#78A91F"/>
</linearGradient>
<linearGradient id="paint55_linear_1_318" x1="56.4754" y1="13.5877" x2="68.7106" y2="25.8229" gradientUnits="userSpaceOnUse">
<stop stop-color="#FE5694"/>
<stop offset="1" stop-color="#E41F2D"/>
</linearGradient>
<linearGradient id="paint56_linear_1_318" x1="49.2593" y1="20.4715" x2="50.4284" y2="23.3723" gradientUnits="userSpaceOnUse">
<stop stop-color="#5A5A5A"/>
<stop offset="1" stop-color="#444444"/>
</linearGradient>
<linearGradient id="paint57_linear_1_318" x1="36.2988" y1="23.5849" x2="40.6666" y2="27.9527" gradientUnits="userSpaceOnUse">
<stop stop-color="#8AC9FE"/>
<stop offset="1" stop-color="#0172FB"/>
</linearGradient>
<linearGradient id="paint58_linear_1_318" x1="38.72" y1="25.8769" x2="38.72" y2="29.9474" gradientUnits="userSpaceOnUse">
<stop stop-color="#2740B0" stop-opacity="0"/>
<stop offset="1" stop-color="#2740B0"/>
</linearGradient>
<linearGradient id="paint59_linear_1_318" x1="38.6125" y1="25.8986" x2="41.6709" y2="28.9571" gradientUnits="userSpaceOnUse">
<stop stop-color="#2740B0" stop-opacity="0"/>
<stop offset="1" stop-color="#2740B0"/>
</linearGradient>
</defs>
</svg>
