<svg width="84" height="94" viewBox="0 0 84 94" fill="none" xmlns="http://www.w3.org/2000/svg">
<path d="M8.44219 76.06C8.68219 76.3667 8.88885 76.6933 9.06219 77.04C9.23552 77.3867 9.37552 77.78 9.48219 78.22C9.60219 78.6467 9.68885 79.1333 9.74219 79.68C9.80885 80.2267 9.84219 80.86 9.84219 81.58C9.84219 82.62 9.72885 83.5533 9.50219 84.38C9.27552 85.2067 8.94219 85.9067 8.50219 86.48C8.07552 87.0533 7.54219 87.4933 6.90219 87.8C6.26219 88.1067 5.52219 88.26 4.68219 88.26C3.50885 88.26 2.54885 88.0467 1.80219 87.62C1.86885 86.94 2.11552 86.4533 2.54219 86.16C3.18219 86.4533 3.85552 86.6 4.56219 86.6C5.57552 86.6 6.33552 86.24 6.84219 85.52C7.34885 84.8 7.62219 83.82 7.66219 82.58C6.80885 83.3267 5.83552 83.7 4.74219 83.7C3.62219 83.7 2.74219 83.34 2.10219 82.62C1.46219 81.9 1.14219 80.8333 1.14219 79.42C1.14219 78.7133 1.24885 78.0733 1.46219 77.5C1.67552 76.9267 1.96885 76.44 2.34219 76.04C2.72885 75.64 3.18219 75.3333 3.70219 75.12C4.22219 74.8933 4.79552 74.78 5.42219 74.78C6.70219 74.78 7.70885 75.2067 8.44219 76.06ZM5.30219 81.96C6.14219 81.96 6.92885 81.5933 7.66219 80.86V80.52C7.66219 79.16 7.46219 78.1333 7.06219 77.44C6.67552 76.7333 6.08885 76.38 5.30219 76.38C4.66219 76.38 4.16219 76.6333 3.80219 77.14C3.44219 77.6467 3.26219 78.34 3.26219 79.22C3.26219 81.0467 3.94219 81.96 5.30219 81.96ZM17.2677 78.1C17.3343 78.3267 17.3677 78.5867 17.3677 78.88C17.3677 79.1733 17.3343 79.4267 17.2677 79.64L14.8077 79.6V85.58C14.8077 86.1667 15.081 86.46 15.6277 86.46H17.0077C17.1143 86.7533 17.1677 87.0533 17.1677 87.36C17.1677 87.6533 17.1543 87.8467 17.1277 87.94C16.3543 88.0333 15.6077 88.08 14.8877 88.08C13.4877 88.08 12.7877 87.3933 12.7877 86.02V79.62L11.3077 79.64C11.2543 79.4133 11.2277 79.1667 11.2277 78.9C11.2277 78.62 11.2543 78.3533 11.3077 78.1L12.7877 78.14V76.38C12.7877 75.9 12.8677 75.56 13.0277 75.36C13.1877 75.16 13.4743 75.06 13.8877 75.06H14.6677L14.8077 75.2V78.16L17.2677 78.1ZM27.2398 81.24V85.88C27.2398 86.68 27.3465 87.2867 27.5598 87.7C27.1865 87.9933 26.7798 88.14 26.3398 88.14C25.8998 88.14 25.5932 88.0333 25.4198 87.82C25.2598 87.5933 25.1798 87.26 25.1798 86.82V81.74C25.1798 81.0467 25.0865 80.5533 24.8998 80.26C24.7265 79.9667 24.4198 79.82 23.9798 79.82C23.5398 79.82 23.0865 79.9333 22.6198 80.16C22.1665 80.3867 21.7665 80.6867 21.4198 81.06V88C21.2865 88.0267 21.1332 88.0467 20.9598 88.06C20.7865 88.0733 20.6065 88.08 20.4198 88.08C20.2332 88.08 20.0465 88.0733 19.8598 88.06C19.6865 88.0467 19.5332 88.0267 19.3998 88V73.42L19.5198 73.3H20.3198C20.7332 73.3 21.0198 73.4 21.1798 73.6C21.3398 73.8 21.4198 74.14 21.4198 74.62V79.28C22.3932 78.4 23.4465 77.96 24.5798 77.96C25.4732 77.96 26.1398 78.26 26.5798 78.86C27.0198 79.4467 27.2398 80.24 27.2398 81.24ZM40.1133 80.82L43.1933 80.8C44.2066 80.8 44.7133 81.2667 44.7133 82.2V87.4C43.2199 87.9733 41.5733 88.26 39.7733 88.26C38.7733 88.26 37.8933 88.0733 37.1333 87.7C36.3866 87.3267 35.7933 86.8133 35.3533 86.16C34.5133 84.8667 34.0933 83.2333 34.0933 81.26C34.0933 80.0333 34.2599 78.9467 34.5933 78C34.9266 77.0533 35.3799 76.3067 35.9533 75.76C37.1133 74.64 38.4666 74.08 40.0133 74.08C41.8266 74.08 43.3799 74.5667 44.6733 75.54C44.5666 76.2067 44.2266 76.74 43.6533 77.14C42.5599 76.3133 41.3466 75.9 40.0133 75.9C38.9066 75.9 38.0133 76.3333 37.3333 77.2C36.6533 78.0667 36.3133 79.4267 36.3133 81.28C36.3133 84.76 37.5866 86.5 40.1333 86.5C41.0799 86.5 41.9266 86.3867 42.6733 86.16V83.92C42.6733 83.3333 42.6866 82.9067 42.7133 82.64H40.9533C40.2866 82.64 39.9533 82.3267 39.9533 81.7C39.9533 81.3933 40.0066 81.1 40.1133 80.82ZM46.9648 79.08C47.0982 78.5867 47.3515 78.22 47.7248 77.98C48.6448 78.18 49.2515 78.7733 49.5448 79.76C50.0782 78.5733 50.9515 77.98 52.1648 77.98C52.4848 77.98 52.8382 78.02 53.2248 78.1C53.2248 78.8733 53.0582 79.5267 52.7248 80.06C52.6048 80.02 52.3315 79.9867 51.9048 79.96C50.9982 79.96 50.2848 80.4667 49.7648 81.48V88C49.5115 88.0533 49.1648 88.08 48.7248 88.08C48.2982 88.08 47.9582 88.0533 47.7048 88V81.14C47.7048 80.2333 47.4582 79.5467 46.9648 79.08ZM62.4114 87.08C62.2514 87.56 61.9914 87.9133 61.6314 88.14C60.8447 87.9933 60.3114 87.58 60.0314 86.9C59.0847 87.8067 58.1114 88.26 57.1114 88.26C56.6047 88.26 56.1581 88.18 55.7714 88.02C55.3981 87.86 55.0781 87.6467 54.8114 87.38C54.5581 87.1 54.3647 86.7867 54.2314 86.44C54.1114 86.08 54.0514 85.7067 54.0514 85.32C54.0514 84.2267 54.3981 83.4 55.0914 82.84C55.7981 82.28 56.7314 82 57.8914 82C58.2247 82 58.5514 82.0133 58.8714 82.04C59.1914 82.0533 59.5047 82.0867 59.8114 82.14V81.36C59.8114 80.1733 59.2647 79.58 58.1714 79.58C57.4114 79.58 56.3647 79.8333 55.0314 80.34C54.6447 80.0067 54.4447 79.5067 54.4314 78.84C55.7914 78.2267 57.1714 77.92 58.5714 77.92C59.6114 77.92 60.4181 78.2 60.9914 78.76C61.5647 79.3067 61.8514 80.14 61.8514 81.26V85.36C61.8514 86.1867 62.0381 86.76 62.4114 87.08ZM57.4514 86.62C58.3047 86.62 59.0914 86.22 59.8114 85.42V83.52C59.5447 83.4933 59.2647 83.4733 58.9714 83.46C58.6781 83.4467 58.3714 83.44 58.0514 83.44C57.4381 83.44 56.9581 83.5933 56.6114 83.9C56.2781 84.1933 56.1114 84.5867 56.1114 85.08C56.1114 85.56 56.2314 85.94 56.4714 86.22C56.7114 86.4867 57.0381 86.62 57.4514 86.62ZM67.8723 77.96C68.5923 77.96 69.3457 78.18 70.1323 78.62V73.42L70.2723 73.3H71.0523C71.4657 73.3 71.7523 73.4 71.9123 73.6C72.0723 73.8 72.1523 74.14 72.1523 74.62V85.18C72.1523 86.1133 72.339 86.7467 72.7123 87.08C72.659 87.2667 72.559 87.4667 72.4123 87.68C72.2657 87.8933 72.1123 88.0467 71.9523 88.14C71.1923 87.9933 70.6657 87.58 70.3723 86.9C69.5857 87.8067 68.6257 88.26 67.4923 88.26C66.359 88.26 65.499 87.8067 64.9123 86.9C64.3257 85.98 64.0323 84.7067 64.0323 83.08C64.0323 82.2667 64.1323 81.5467 64.3323 80.92C64.5457 80.28 64.8257 79.74 65.1723 79.3C65.519 78.86 65.9257 78.5267 66.3923 78.3C66.859 78.0733 67.3523 77.96 67.8723 77.96ZM67.9523 86.54C68.819 86.54 69.5457 86.12 70.1323 85.28V80.32C69.3857 79.84 68.739 79.6 68.1923 79.6C67.5923 79.6 67.099 79.9 66.7123 80.5C66.3257 81.1 66.1323 81.9867 66.1323 83.16C66.1323 84.32 66.3057 85.1733 66.6523 85.72C66.999 86.2667 67.4323 86.54 67.9523 86.54ZM82.6378 83.72H76.7578C76.7978 84.64 76.9911 85.3467 77.3378 85.84C77.6978 86.3333 78.2978 86.58 79.1378 86.58C79.5378 86.58 79.9645 86.52 80.4178 86.4C80.8845 86.28 81.3645 86.0867 81.8578 85.82C82.1911 86.1267 82.4111 86.5667 82.5178 87.14C81.4511 87.8867 80.1978 88.26 78.7578 88.26C77.9978 88.26 77.3578 88.1267 76.8378 87.86C76.3178 87.5933 75.8911 87.2267 75.5578 86.76C75.2378 86.2933 75.0045 85.74 74.8578 85.1C74.7111 84.4467 74.6378 83.7467 74.6378 83C74.6378 82.2667 74.7311 81.5867 74.9178 80.96C75.1045 80.32 75.3711 79.7733 75.7178 79.32C76.0645 78.8667 76.4911 78.5133 76.9978 78.26C77.5178 77.9933 78.0978 77.86 78.7378 77.86C79.3778 77.86 79.9445 77.9667 80.4378 78.18C80.9445 78.3933 81.3711 78.6933 81.7178 79.08C82.0645 79.4533 82.3245 79.9067 82.4978 80.44C82.6845 80.96 82.7778 81.5267 82.7778 82.14C82.7778 82.4067 82.7645 82.6733 82.7378 82.94C82.7245 83.1933 82.6911 83.4533 82.6378 83.72ZM78.7978 79.4C77.5311 79.4 76.8511 80.34 76.7578 82.22H80.7978V81.96C80.7978 81.2 80.6311 80.5867 80.2978 80.12C79.9778 79.64 79.4778 79.4 78.7978 79.4Z" fill="black"/>
<path d="M82 55.9794H2V61.4194H82V55.9794Z" fill="#EDB48C"/>
<path d="M15.6002 52.5714C15.1202 52.5714 14.7202 52.9714 14.7202 53.4514V54.8914C14.7202 55.3714 15.1202 55.7714 15.6002 55.7714H27.7122V52.5714H15.6002Z" fill="white"/>
<path opacity="0.2" d="M14.9122 54.6994C14.9122 54.2194 15.3122 53.8194 15.7922 53.8194H27.7122V52.5874H15.6002C15.1202 52.5874 14.7202 52.9874 14.7202 53.4674V54.9074C14.7202 55.1154 14.7842 55.3074 14.9122 55.4514V54.6994Z" fill="#4A4A4A"/>
<path d="M19.696 56.1074H6.89604C6.24004 56.1074 5.69604 55.5634 5.69604 54.9074V53.4674C5.69604 52.8114 6.24004 52.2674 6.89604 52.2674H19.696V52.9074H15.584C15.28 52.9074 15.024 53.1634 15.024 53.4674V54.9074C15.024 55.2114 15.28 55.4674 15.584 55.4674H19.712V56.1074H19.696Z" fill="#3055AD"/>
<path d="M28.3999 56.1074H15.5999C14.9439 56.1074 14.3999 55.5634 14.3999 54.9074V53.4674C14.3999 52.8114 14.9439 52.2674 15.5999 52.2674H28.3999V52.9074H15.5999C15.2959 52.9074 15.0399 53.1634 15.0399 53.4674V54.9074C15.0399 55.2114 15.2959 55.4674 15.5999 55.4674H28.3999V56.1074Z" fill="#477EFF"/>
<path d="M12.944 48.7314C12.464 48.7314 12.064 49.1314 12.064 49.6114V51.0514C12.064 51.5314 12.464 51.9314 12.944 51.9314H25.984V48.7314H12.944Z" fill="white"/>
<path opacity="0.2" d="M12.256 50.8434C12.256 50.3634 12.656 49.9634 13.136 49.9634H26V48.7314H12.944C12.464 48.7314 12.064 49.1314 12.064 49.6114V51.0514C12.064 51.2594 12.128 51.4514 12.256 51.5954V50.8434Z" fill="#4A4A4A"/>
<path d="M17.0401 52.2513H7.76006C7.10406 52.2513 6.56006 51.7073 6.56006 51.0513V49.6113C6.56006 48.9553 7.10406 48.4113 7.76006 48.4113H17.0401V49.0513H12.9281C12.6241 49.0513 12.3681 49.3073 12.3681 49.6113V51.0513C12.3681 51.3553 12.6241 51.6113 12.9281 51.6113H17.0401V52.2513Z" fill="#D45357"/>
<path d="M26.6881 52.2513H12.9441C12.2881 52.2513 11.7441 51.7073 11.7441 51.0513V49.6113C11.7441 48.9553 12.2881 48.4113 12.9441 48.4113H26.6881V49.0513H12.9441C12.6401 49.0513 12.3841 49.3073 12.3841 49.6113V51.0513C12.3841 51.3553 12.6401 51.6113 12.9441 51.6113H26.6881V52.2513Z" fill="#FA6E72"/>
<path d="M21.3439 37.0994H12.2559C11.9839 37.0994 11.7439 37.3074 11.6959 37.5794L11.2479 40.4114L10.0479 47.9314C9.99991 48.2034 10.1919 48.4114 10.4479 48.4114H19.5359C19.8079 48.4114 20.0479 48.2034 20.0959 47.9314L21.2959 40.4114L21.7439 37.5794C21.7919 37.3074 21.6159 37.0994 21.3439 37.0994Z" fill="#4A4A4A"/>
<path d="M21.904 37.5794C21.856 37.3074 21.616 37.0994 21.344 37.0994H12.256C11.984 37.0994 11.808 37.3074 11.856 37.5794L12.304 40.4114H22.352L21.904 37.5794Z" fill="#477EFF"/>
<path d="M12.3042 40.4113L13.5042 47.9313C13.5522 48.2033 13.7922 48.4113 14.0642 48.4113H23.1522C23.4242 48.4113 23.6002 48.2033 23.5522 47.9313L22.3522 40.4113H12.3042Z" fill="white"/>
<path d="M14.4802 41.5794C14.4962 41.6434 14.4482 41.6914 14.3842 41.6914H13.4722C13.4082 41.6914 13.3442 41.6434 13.3442 41.5794C13.3282 41.5154 13.3762 41.4674 13.4402 41.4674H14.3522C14.4162 41.4674 14.4802 41.5154 14.4802 41.5794Z" fill="#525252"/>
<path d="M16.288 41.5794C16.304 41.6434 16.256 41.6914 16.192 41.6914H15.28C15.216 41.6914 15.152 41.6434 15.152 41.5794C15.136 41.5154 15.184 41.4674 15.248 41.4674H16.16C16.208 41.4674 16.272 41.5154 16.288 41.5794Z" fill="#525252"/>
<path d="M18.08 41.5794C18.096 41.6434 18.048 41.6914 17.984 41.6914H17.072C17.008 41.6914 16.944 41.6434 16.944 41.5794C16.928 41.5154 16.976 41.4674 17.04 41.4674H17.952C18.016 41.4674 18.08 41.5154 18.08 41.5794Z" fill="#525252"/>
<path d="M19.8879 41.5794C19.9039 41.6434 19.8559 41.6914 19.7919 41.6914H18.8799C18.8159 41.6914 18.7519 41.6434 18.7519 41.5794C18.7359 41.5154 18.7839 41.4674 18.8479 41.4674H19.7599C19.8079 41.4674 19.8719 41.5154 19.8879 41.5794Z" fill="#525252"/>
<path d="M21.6801 41.5794C21.6961 41.6434 21.6481 41.6914 21.5841 41.6914H20.6721C20.6081 41.6914 20.5441 41.6434 20.5441 41.5794C20.5281 41.5154 20.5761 41.4674 20.6401 41.4674H21.5521C21.6161 41.4674 21.6801 41.5154 21.6801 41.5794Z" fill="#FA6E72"/>
<path d="M14.4319 42.7634C14.4639 42.9394 14.3359 43.0994 14.1599 43.0994C13.9839 43.0994 13.8079 42.9554 13.7759 42.7634C13.7439 42.5874 13.8719 42.4434 14.0479 42.4434C14.2239 42.4274 14.3999 42.5714 14.4319 42.7634Z" fill="#525252"/>
<path d="M16.2242 42.7634C16.2562 42.9394 16.1281 43.0994 15.9521 43.0994C15.7761 43.0994 15.6002 42.9554 15.5682 42.7634C15.5362 42.5874 15.6642 42.4434 15.8402 42.4434C16.0322 42.4274 16.2082 42.5714 16.2242 42.7634Z" fill="#525252"/>
<path d="M18.032 42.7634C18.064 42.9394 17.936 43.0994 17.76 43.0994C17.584 43.0994 17.408 42.9554 17.376 42.7634C17.344 42.5874 17.472 42.4434 17.648 42.4434C17.824 42.4274 18 42.5714 18.032 42.7634Z" fill="#525252"/>
<path d="M19.8242 42.7634C19.8562 42.9394 19.7282 43.0994 19.5522 43.0994C19.3762 43.0994 19.2002 42.9554 19.1682 42.7634C19.1362 42.5874 19.2642 42.4434 19.4402 42.4434C19.6322 42.4274 19.8082 42.5714 19.8242 42.7634Z" fill="#525252"/>
<path d="M21.6321 42.7634C21.6641 42.9394 21.5361 43.0994 21.3601 43.0994C21.1841 43.0994 21.0081 42.9554 20.9761 42.7634C20.9441 42.5874 21.0721 42.4434 21.2481 42.4434C21.4241 42.4274 21.6001 42.5714 21.6321 42.7634Z" fill="#FA6E72"/>
<path d="M14.6558 44.1714C14.6878 44.3474 14.5598 44.5074 14.3838 44.5074C14.2078 44.5074 14.0318 44.3634 13.9998 44.1714C13.9678 43.9954 14.0958 43.8514 14.2718 43.8514C14.4638 43.8514 14.6238 43.9954 14.6558 44.1714Z" fill="#525252"/>
<path d="M16.4641 44.1714C16.4961 44.3474 16.3681 44.5074 16.1921 44.5074C16.0161 44.5074 15.8401 44.3634 15.8081 44.1714C15.7761 43.9954 15.9041 43.8514 16.0801 43.8514C16.2561 43.8514 16.4321 43.9954 16.4641 44.1714Z" fill="#525252"/>
<path d="M18.2561 44.1714C18.2881 44.3474 18.1601 44.5074 17.9841 44.5074C17.8081 44.5074 17.6321 44.3634 17.6001 44.1714C17.5681 43.9954 17.6961 43.8514 17.8721 43.8514C18.0641 43.8514 18.2241 43.9954 18.2561 44.1714Z" fill="#525252"/>
<path d="M20.064 44.1714C20.096 44.3474 19.968 44.5074 19.792 44.5074C19.616 44.5074 19.44 44.3634 19.408 44.1714C19.376 43.9954 19.504 43.8514 19.68 43.8514C19.856 43.8514 20.032 43.9954 20.064 44.1714Z" fill="#525252"/>
<path d="M21.856 44.1714C21.888 44.3474 21.76 44.5074 21.584 44.5074C21.408 44.5074 21.232 44.3634 21.2 44.1714C21.168 43.9954 21.296 43.8514 21.472 43.8514C21.664 43.8514 21.824 43.9954 21.856 44.1714Z" fill="#FA6E72"/>
<path d="M14.8802 45.5954C14.9122 45.7714 14.7842 45.9314 14.6082 45.9314C14.4322 45.9314 14.2562 45.7874 14.2242 45.5954C14.1922 45.4194 14.3202 45.2754 14.4962 45.2754C14.6882 45.2754 14.8482 45.4194 14.8802 45.5954Z" fill="#525252"/>
<path d="M16.688 45.5954C16.72 45.7714 16.592 45.9314 16.416 45.9314C16.24 45.9314 16.064 45.7874 16.032 45.5954C16 45.4194 16.128 45.2754 16.304 45.2754C16.48 45.2754 16.656 45.4194 16.688 45.5954Z" fill="#525252"/>
<path d="M18.48 45.5954C18.512 45.7714 18.384 45.9314 18.208 45.9314C18.032 45.9314 17.856 45.7874 17.824 45.5954C17.792 45.4194 17.92 45.2754 18.096 45.2754C18.288 45.2754 18.448 45.4194 18.48 45.5954Z" fill="#525252"/>
<path d="M20.2881 45.5954C20.3201 45.7714 20.1921 45.9314 20.0161 45.9314C19.8401 45.9314 19.6641 45.7874 19.6321 45.5954C19.6001 45.4194 19.7281 45.2754 19.9041 45.2754C20.0801 45.2754 20.2561 45.4194 20.2881 45.5954Z" fill="#525252"/>
<path d="M22.0801 45.5954C22.1121 45.7714 21.9841 45.9314 21.8081 45.9314C21.6321 45.9314 21.4561 45.7874 21.4241 45.5954C21.3921 45.4194 21.5201 45.2754 21.6961 45.2754C21.8881 45.2754 22.0481 45.4194 22.0801 45.5954Z" fill="#FA6E72"/>
<path d="M15.104 47.0194C15.136 47.1954 15.008 47.3554 14.832 47.3554C14.656 47.3554 14.48 47.2114 14.448 47.0194C14.416 46.8434 14.544 46.6994 14.72 46.6994C14.912 46.6994 15.072 46.8434 15.104 47.0194Z" fill="#525252"/>
<path d="M16.9121 47.0194C16.9441 47.1954 16.8161 47.3554 16.6401 47.3554C16.4641 47.3554 16.2881 47.2114 16.2561 47.0194C16.2241 46.8434 16.3521 46.6994 16.5281 46.6994C16.7041 46.6994 16.8801 46.8434 16.9121 47.0194Z" fill="#525252"/>
<path d="M18.7041 47.0194C18.7361 47.1954 18.6081 47.3554 18.4321 47.3554C18.2561 47.3554 18.0801 47.2114 18.0481 47.0194C18.0161 46.8434 18.1441 46.6994 18.3201 46.6994C18.5121 46.6994 18.6721 46.8434 18.7041 47.0194Z" fill="#525252"/>
<path d="M20.512 47.0194C20.544 47.1954 20.416 47.3554 20.24 47.3554C20.064 47.3554 19.888 47.2114 19.856 47.0194C19.824 46.8434 19.952 46.6994 20.128 46.6994C20.304 46.6994 20.48 46.8434 20.512 47.0194Z" fill="#525252"/>
<path d="M22.304 47.0194C22.336 47.1954 22.208 47.3554 22.032 47.3554C21.856 47.3554 21.68 47.2114 21.648 47.0194C21.616 46.8434 21.744 46.6994 21.92 46.6994C22.112 46.6994 22.272 46.8434 22.304 47.0194Z" fill="#FA6E72"/>
<path d="M51.4721 59.7234C62.562 59.7234 71.5521 58.9426 71.5521 57.9794C71.5521 57.0162 62.562 56.2354 51.4721 56.2354C40.3822 56.2354 31.3921 57.0162 31.3921 57.9794C31.3921 58.9426 40.3822 59.7234 51.4721 59.7234Z" fill="#E89A78"/>
<path d="M38.0001 31.4194C37.5201 31.7874 37.0241 33.2114 36.4961 34.8914C35.9681 36.5714 34.7841 40.2194 34.6561 40.3794C34.5281 40.5394 33.9681 40.5714 33.9681 40.9394C33.9681 41.3074 34.2561 41.7874 34.2561 41.7874L31.1841 44.7474V50.6994H42.3841V31.4194H38.0001Z" fill="white"/>
<path opacity="0.2" d="M42.3841 31.4194H38.1601C37.2481 33.9634 37.1681 36.4274 37.2001 37.0514C37.2481 37.9634 38.1281 42.7634 38.1601 43.0194C38.1921 43.2914 35.8401 40.3314 35.6001 40.3794C35.3601 40.4274 37.4721 43.5474 37.4721 43.8194C37.4881 44.0914 36.8961 43.8994 36.0001 43.6114C35.2161 43.3554 34.1281 43.1794 32.8321 43.1634L31.7281 44.2354L31.1841 45.5634V50.7154H42.3841V31.4194Z" fill="#4A4A4A"/>
<path d="M24.288 42.0114C24.016 42.1394 22.16 45.4834 22.048 45.7074C21.92 45.9314 22.032 46.6514 22.24 46.9874C22.432 47.3234 23.808 49.0354 23.808 49.0354H28.88L28.768 42.9554C28.768 42.9554 29.216 42.6674 29.28 42.2514C29.344 41.8354 29.136 41.5314 28.736 41.5474C28.336 41.5634 27.312 41.6434 26.688 41.5474C26.08 41.4514 25.68 41.5634 25.36 41.6594C25.04 41.7234 24.288 42.0114 24.288 42.0114Z" fill="#FFD9BA"/>
<path d="M23.728 46.4434C23.392 46.0114 23.104 45.4834 23.312 45.5154C23.52 45.5474 24.352 45.7874 25.472 46.5394C26.592 47.2914 27.136 48.3954 27.136 48.3954H25.072L23.728 46.4434Z" fill="#F7A486"/>
<path d="M54.4801 30.6514H45.1521V38.6514H54.4801V30.6514Z" fill="white"/>
<path opacity="0.2" d="M54.4801 30.6514H45.1521V38.6514H54.4801V30.6514Z" fill="#4A4A4A"/>
<path d="M46.304 22.4594C46.304 22.4594 47.216 23.2274 47.552 25.1154C47.888 27.0194 48.736 31.7394 48.848 31.7074C48.96 31.6754 55.888 24.1874 55.888 24.1874C55.888 24.1874 55.088 22.3314 54.96 21.2114C54.832 20.0914 54.896 18.2834 54.896 18.2834H46.272V22.4594H46.304Z" fill="#FFD9BA"/>
<path d="M46.208 26.4114C46.208 26.4114 38.864 29.9794 38.432 30.1874C37.984 30.3954 37.52 30.7154 37.504 31.4194C37.488 32.1074 38.832 43.5794 39.44 46.7794C39.472 49.4994 39.472 55.9794 39.472 55.9794H68.3521C68.3521 55.9794 68.5921 35.4674 68.3521 33.3874C68.1121 31.3074 68.1601 30.5714 67.8721 30.3154C67.5841 30.0594 66.5121 29.4834 65.8561 29.1634C64.5121 28.2674 56.9761 24.0274 56.9761 24.0274C56.9761 24.0274 54.8801 27.7074 53.68 29.6914C52.4801 31.6754 49.4241 35.9154 49.0721 36.2834C48.7201 36.6514 48.5601 36.5074 48.3521 36.0434C48.1441 35.5794 47.12 33.8194 46.208 26.4114Z" fill="#3E5691"/>
<path d="M49.8081 55.9793H68.3361C68.3361 55.9793 68.4161 49.6913 68.4321 43.7233H60.3841C59.7121 46.3793 55.4721 52.0593 49.8081 55.9793Z" fill="#2D4170"/>
<path d="M46.7683 36.6354C46.7843 36.6514 46.7843 36.6674 46.8003 36.6834C47.3283 37.8994 48.1443 38.1394 48.7363 38.1394C49.3283 38.1394 49.8563 37.8834 50.3203 37.3714C50.7203 36.9234 53.8883 32.5714 55.1043 30.5074C56.6403 27.9314 57.7283 25.9154 58.3363 24.7634C58.0803 24.6194 57.8403 24.4754 57.6323 24.3634C57.0403 25.5154 55.9523 27.4994 54.4163 30.0914C53.2003 32.1234 50.1123 36.3794 49.7123 36.8274C49.4083 37.1634 49.0883 37.3394 48.7203 37.3394C48.2083 37.3394 47.8083 37.0194 47.5203 36.3634C47.5043 36.3474 47.5043 36.3154 47.4883 36.2834L47.4723 36.2674C47.1523 35.5954 46.2083 33.5794 45.3443 26.8274C45.1203 26.9394 44.8643 27.0514 44.5923 27.1954C45.4563 33.8674 46.4323 35.9154 46.7523 36.6194L46.7683 36.6354Z" fill="#4DA9F0"/>
<path d="M46.0642 37.0034C46.8002 38.6994 48.0482 38.9394 48.7202 38.9394C49.2962 38.9394 50.1282 38.7634 50.8962 37.8994C51.3922 37.3554 54.5602 32.9554 55.7762 30.9234C57.3122 28.3474 58.4002 26.3474 59.0082 25.1634C58.9602 25.1314 58.9122 25.1154 58.8642 25.0834C58.2562 26.2674 57.1682 28.2674 55.6322 30.8434C54.4162 32.8754 51.2642 37.2594 50.7682 37.8034C50.0322 38.6194 49.2482 38.7954 48.7042 38.7954C48.0642 38.7954 46.8802 38.5554 46.1922 36.9394L46.1602 36.8754C45.8242 36.1714 44.8482 34.0754 43.9682 27.4834C43.9202 27.5154 43.8722 27.5314 43.8242 27.5634C44.7042 34.1554 45.6802 36.2514 46.0162 36.9554L46.0642 37.0034Z" fill="#4DA9F0"/>
<path d="M54.2242 20.0594V18.2994H46.3042V22.4594C46.3042 22.4594 47.2162 23.2274 47.5522 25.1154C47.6002 25.3874 47.6642 25.7234 47.7282 26.0914C48.1602 26.3634 48.6082 26.5714 49.0722 26.5874C50.8642 26.6674 53.9202 22.3474 54.2242 20.0594Z" fill="#F7A486"/>
<path d="M47.6001 24.2034C47.6001 24.2034 47.1041 24.2674 46.9761 24.4274C46.8481 24.5874 45.4561 26.5234 45.4081 26.6834C45.3761 26.8274 44.3361 33.7394 44.3041 34.0434C44.2721 34.3474 44.6081 34.5554 44.9121 34.2354C45.2001 33.9314 47.5681 31.7394 47.8881 31.6594C48.2081 31.5794 48.8801 31.7234 48.8801 31.7234C48.8801 31.7234 49.7921 31.6754 50.1281 31.7234C50.4641 31.7714 53.4241 34.0274 53.7281 34.2514C54.1761 34.5874 54.3041 34.6994 54.5921 34.6994C54.8801 34.6834 55.0561 34.6354 55.2641 34.0594C55.4721 33.4834 58.2721 25.4674 58.3841 24.9394C58.4961 24.4114 58.4321 24.4114 58.2881 24.0914C58.1441 23.7874 56.3681 21.9794 56.2241 21.7874C56.0801 21.5954 55.9361 21.5314 55.6961 21.4994C55.4561 21.4674 55.0401 21.4994 55.0401 21.4994C55.0401 21.4994 55.3601 22.7634 55.5041 23.1474C55.5041 23.1474 50.2401 29.5154 48.9601 31.3074C48.3361 27.5314 47.6001 24.2034 47.6001 24.2034Z" fill="white"/>
<path opacity="0.2" d="M47.6 24.2033C47.6 24.2033 47.104 24.2673 46.976 24.4273C46.928 24.4913 46.672 24.8273 46.384 25.2273C46.848 25.6433 47.424 26.0593 48.048 26.3153C47.776 25.0353 47.6 24.2033 47.6 24.2033Z" fill="#4A4A4A"/>
<path d="M68.4321 44.9234C66.6881 48.2674 64.3681 49.9954 62.5921 50.2194C62.0321 50.2994 61.5041 50.0914 61.0561 49.5954C59.9681 48.4114 59.1361 45.1954 60.3361 40.0434C61.6641 34.3154 64.0321 31.0034 65.9201 29.1794C65.8881 29.1634 65.8721 29.1474 65.8401 29.1474C65.7441 29.0834 65.6321 29.0194 65.4881 28.9234C63.5681 30.8114 61.2001 34.1874 59.8561 39.9474C58.8321 44.3314 59.1681 48.2514 60.6881 49.9314C61.1681 50.4594 61.7441 50.7314 62.3521 50.7314C62.4481 50.7314 62.5441 50.7314 62.6401 50.7154C64.4001 50.4754 66.6401 48.9234 68.4161 45.9314C68.4321 45.5794 68.4321 45.2434 68.4321 44.9234Z" fill="#2D4170"/>
<path d="M39.52 29.6594C39.328 29.7554 39.152 29.8354 39.008 29.9154C38.736 32.0274 38.448 35.6594 38.544 40.6674C38.8 42.6194 39.056 44.4754 39.248 45.7714C38.704 37.7714 39.168 32.3154 39.52 29.6594Z" fill="#2D4170"/>
<path d="M39.9522 14.5714C40.2722 17.2274 40.6722 19.4194 42.1122 21.2754C43.5522 23.1314 45.3442 24.3794 46.9122 24.4274C48.4802 24.4754 53.5522 23.4994 54.8482 18.3954C55.6482 17.3234 58.6722 14.3314 57.9202 9.32341C57.1682 4.29941 52.9602 0.107416 46.1762 1.46742C39.4082 2.81142 38.6722 9.86741 39.9522 14.5714Z" fill="#FFD9BA"/>
<path d="M41.1521 15.3394C41.2321 15.8194 41.5681 16.1554 41.9201 16.1074C42.2561 16.0434 42.4641 15.6114 42.3841 15.1314C42.3041 14.6514 41.9681 14.3154 41.6161 14.3634C41.2801 14.4274 41.0721 14.8594 41.1521 15.3394Z" fill="#4A4A4A"/>
<path d="M48.7521 14.6353C48.8321 15.1153 49.1521 15.4673 49.5041 15.4033C49.8401 15.3553 50.0641 14.9233 49.9841 14.4433C49.9041 13.9633 49.5841 13.6113 49.2321 13.6593C48.8961 13.7233 48.6721 14.1553 48.7521 14.6353Z" fill="#4A4A4A"/>
<path d="M42.9122 15.3714C42.4322 14.8594 41.9682 14.4274 41.5202 14.5074C41.0722 14.5874 40.7842 15.1954 40.7842 15.4034C40.6562 15.3714 40.3362 14.9874 40.3362 14.9874L40.5762 14.8914C40.7202 14.5714 40.9122 14.1234 41.5842 14.0754C42.2242 14.0594 42.7362 14.6354 42.9122 15.3714Z" fill="#262626"/>
<path d="M47.8723 14.7154C48.4003 13.9474 49.9203 13.0834 50.5123 14.6034C50.9443 14.5234 51.2163 14.1234 51.2163 14.1234C51.2163 14.1234 50.9923 14.0434 50.8163 13.9154C50.4483 13.5314 49.9363 13.1474 49.1843 13.2754C48.4323 13.4194 47.9843 13.9794 47.8723 14.7154Z" fill="#262626"/>
<path d="M47.8722 12.5234L47.4722 12.1234C47.4722 12.1234 48.2562 11.7714 49.1522 11.6434C50.0482 11.5154 51.6002 11.6754 51.6002 11.6754C51.6002 11.6754 49.2962 12.0914 47.8722 12.5234Z" fill="#262626"/>
<path d="M42.8161 13.3234L42.9601 12.8594C42.9601 12.8594 42.2881 12.6514 41.6161 12.6674C40.9441 12.6834 39.9041 13.0994 39.9041 13.0994C39.9041 13.0994 41.6801 13.1314 42.8161 13.3234Z" fill="#262626"/>
<path d="M44.448 16.6193C44.448 16.6193 44.192 17.5313 44.224 17.7713C44.272 18.0113 44.48 18.1713 44.72 18.2993C44.352 18.2993 43.984 18.0433 43.936 17.7393C43.888 17.4353 44.512 16.3953 44.448 16.6193Z" fill="#B86E5E"/>
<path d="M45.2642 18.1553C45.1042 18.1233 45.1202 17.9473 45.2802 17.9153C45.4562 17.8833 45.7282 18.0913 45.7282 18.0913C45.7282 18.0913 45.3762 18.1713 45.2642 18.1553Z" fill="#B86E5E"/>
<path d="M44.272 20.0914C44.272 19.9634 44.48 19.8354 45.216 19.7074C45.968 19.5794 48.496 19.3394 48.592 19.5154C48.688 19.6914 48.624 21.7234 46.624 22.0274C44.64 22.3154 44.272 20.2994 44.272 20.0914Z" fill="#78241E"/>
<path d="M48.432 20.6194C48.192 21.2114 47.68 21.8674 46.608 22.0274C45.568 22.1874 44.976 21.6914 44.656 21.1634C45.456 20.2034 47.312 19.5474 48.432 20.6194Z" fill="#FA6E72"/>
<path d="M45.216 19.7074C45.84 19.5954 47.664 19.4194 48.336 19.4674C47.76 19.9954 46.448 20.3314 45.408 20.4114C44.816 20.4594 44.48 20.3474 44.288 20.1714C44.288 20.1394 44.272 20.1074 44.272 20.0914C44.272 19.9474 44.48 19.8354 45.216 19.7074Z" fill="white"/>
<path d="M56.7681 3.78739C54.4481 0.619385 49.4241 -0.772615 44.3681 0.427385C40.7361 1.29139 39.4721 3.51538 39.4721 3.51538C37.9041 4.68338 37.1201 7.32338 37.2641 9.61139C37.4081 11.8834 39.2161 13.4354 39.2161 13.4354L39.5681 13.4034C39.5681 13.4034 39.3441 13.0194 39.3121 12.9074C39.5681 13.2434 39.8081 13.3394 39.8721 13.3394C39.9361 13.3394 40.7521 13.2114 40.7521 13.2114C40.3201 12.3634 40.1761 10.8594 40.2081 10.0274C40.8801 11.4994 41.9361 12.1234 42.2081 12.1554C42.7201 12.5554 43.3761 12.8914 43.3761 12.8914L44.1121 12.6514C44.1121 12.6514 43.4881 11.4834 43.3121 9.85139C44.1281 11.4034 44.9761 12.0114 45.6321 12.1554C46.2081 12.1234 46.5921 11.9634 46.5921 11.9634C46.5921 11.9634 46.0961 10.2994 46.7841 8.20338C46.9121 9.85138 47.9841 11.8194 47.9841 11.8194L48.7361 11.6754L48.8001 10.3794C48.9121 10.8274 49.5201 11.5314 49.7441 11.5954C50.0801 11.5954 50.9761 11.4674 50.9761 11.4034C50.9761 11.3554 50.9761 9.94738 51.1201 8.81139C51.2001 9.67538 51.3441 10.9074 51.4881 11.2914C51.7281 11.8994 52.7841 12.5874 52.7841 12.5874C52.7841 12.5874 53.5521 16.3794 53.7761 16.2994C54.0001 16.2194 54.3681 15.5314 54.5761 14.8114L57.3281 15.4034C57.3281 15.4034 58.1441 14.0754 58.2241 10.8914C58.2241 10.8914 58.8641 10.6034 58.8801 10.4434C58.9281 10.2994 59.0881 6.95539 56.7681 3.78739Z" fill="#4A4A4A"/>
<path d="M54.48 15.4834C54.752 13.7074 55.744 12.8434 56.72 13.2914C57.696 13.7394 58.592 18.0914 54.64 18.2994L54.48 15.4834Z" fill="#FFD9BA"/>
<path opacity="0.2" d="M55.104 21.8034L55.488 23.1474C55.936 22.6994 56.304 21.4994 55.104 21.8034Z" fill="#4A4A4A"/>
<path d="M23.312 43.7234C23.312 43.7234 23.504 42.7634 24.16 42.0914C27.408 42.1394 32.208 43.5634 35.2 45.5634H35.68C35.68 45.5634 40.896 40.5554 48.032 40.9714C48.032 40.9714 48.336 40.9554 48.496 41.1954C48.656 41.4354 55.616 52.4434 55.696 52.5874C55.776 52.7314 55.792 52.9234 55.696 53.1474C55.6 53.3714 54.992 54.0274 54.992 54.0274L29.744 49.9474L23.312 43.7234Z" fill="white"/>
<path opacity="0.2" d="M55.6962 53.1314C55.7922 52.9074 55.7762 52.7154 55.6962 52.5714C55.6162 52.4274 48.6562 41.4194 48.4962 41.1794C48.4322 41.0834 48.3362 41.0194 48.2562 40.9874C48.2402 41.1154 48.1602 41.2594 48.0962 41.4194C47.9682 41.7394 47.0562 43.4354 47.0562 43.4354L54.1442 53.8514L54.9922 53.9954C55.0082 54.0114 55.6002 53.3554 55.6962 53.1314Z" fill="#4A4A4A"/>
<path d="M36.8163 46.2994C36.8163 46.2994 39.0243 44.1554 42.4323 43.2434C45.8403 42.3314 47.7923 42.4274 48.0323 42.4434C48.2723 42.4594 48.4803 42.5074 48.8003 43.0194C49.1203 43.5314 55.0723 53.5154 55.2323 53.8834C55.3923 54.2514 55.2323 54.4594 54.9123 54.4594C54.5923 54.4594 50.8803 54.2674 48.0323 54.6354C45.1843 55.0034 41.9363 56.1714 41.7443 56.2194C41.5523 56.2674 39.0083 56.2194 39.0083 56.2194C39.0083 56.2194 36.2563 54.8114 34.6243 54.4274C32.9923 54.0434 31.4243 54.0274 31.2483 54.0274C31.0723 54.0274 30.8323 53.9954 30.7043 53.7714C30.5763 53.5474 23.0243 44.0274 22.8963 43.8354C22.7683 43.6434 22.8963 43.4354 23.2003 43.3874C23.5043 43.3394 29.2163 43.2594 34.1123 46.5074L36.8163 46.2994Z" fill="#4A4A4A"/>
<path opacity="0.2" d="M41.7602 56.2194C41.7762 56.2194 41.8082 56.2034 41.8402 56.1874L36.8162 46.2994L34.1282 46.4914L39.0242 56.2194C39.2482 56.2194 41.5842 56.2514 41.7602 56.2194Z" fill="#4A4A4A"/>
<path opacity="0.5" d="M23.2161 43.3713C22.9121 43.4033 22.8001 43.6113 22.9121 43.8193C23.0241 44.0273 30.5921 53.5473 30.7201 53.7553C30.8481 53.9633 31.0721 54.0113 31.2641 54.0113C31.4561 54.0113 33.0241 54.0113 34.6401 54.4113C36.2561 54.8113 39.0241 56.2033 39.0241 56.2033C39.0241 56.2033 39.0241 56.2033 39.0401 56.2033L34.1441 46.4753C29.2481 43.2593 23.5201 43.3393 23.2161 43.3713Z" fill="#4A4A4A"/>
<path d="M50.4802 52.5074C50.4802 52.5074 48.8322 50.2194 48.6562 49.9474C48.4802 49.6754 47.7282 49.2434 47.1522 49.0514C46.5762 48.8594 45.5202 48.4274 45.2642 48.2514C45.0082 48.0754 44.4802 49.0514 45.1682 49.9154C45.8562 50.7794 46.4802 50.8754 46.5922 50.9714C46.7042 51.0674 47.1682 52.0434 47.0562 52.0594C46.9442 52.0754 43.7602 51.7554 43.4722 51.7074C43.1842 51.6594 41.7922 50.9234 41.5682 50.7794C41.3442 50.6354 40.4162 49.3234 39.9202 48.9554C39.4242 48.5874 38.2402 48.1714 37.9362 48.4914C37.6322 48.8114 37.8722 49.0354 38.3522 49.6754C38.8322 50.3154 39.6962 51.6754 39.8562 51.9794C40.0162 52.2834 40.2882 52.5554 40.2882 52.5554C40.2882 52.5554 40.5762 53.6434 40.7202 54.0274C40.8642 54.4114 41.2162 54.6674 41.2162 54.6674C41.2162 54.6674 41.7282 55.8354 41.8722 56.1234C42.0162 56.4114 42.6562 56.6514 42.6562 56.6514C42.6562 56.6514 42.7202 57.1634 42.8802 57.4354C43.0402 57.7074 43.2802 57.8514 43.7762 57.9474C44.2722 58.0434 45.0722 58.1714 45.6002 58.2834C46.1282 58.3954 50.2082 58.7634 50.2082 58.7634H52.5602V52.4914L50.4802 52.5074Z" fill="#FFD9BA"/>
<path d="M45.2962 58.2514C45.2962 58.2514 42.9762 56.7954 42.9282 56.6994C42.8802 56.6034 42.4162 55.9314 42.4802 55.8994C42.5442 55.8674 43.8562 56.0274 43.8562 55.9794C43.8562 55.9314 42.0802 55.2114 41.7762 54.9554C41.4562 54.6834 41.4882 54.2194 41.6162 54.2194C41.7442 54.2194 43.1042 54.8114 43.2002 54.7634C43.2962 54.7154 42.9762 54.5074 42.6882 54.2994C42.4002 54.0914 40.3042 52.5714 40.3042 52.5714C40.3042 52.5714 40.5922 53.6594 40.7362 54.0434C40.8802 54.4274 41.2322 54.6834 41.2322 54.6834C41.2322 54.6834 41.7442 55.8514 41.8882 56.1394C42.0322 56.4274 42.6722 56.6674 42.6722 56.6674C42.6722 56.6674 42.7362 57.1794 42.8962 57.4514C43.0562 57.7234 43.2962 57.8674 43.7922 57.9634C44.2082 58.0754 44.8002 58.1714 45.2962 58.2514Z" fill="#F7A486"/>
<path d="M67.9041 30.9074C67.7601 30.3794 67.0401 30.3634 66.2241 31.2594C65.1361 32.4594 63.0241 35.9154 61.3761 40.5074C60.1281 43.9474 60.2881 44.3954 60.2561 45.5954C60.2241 46.7954 60.4481 48.5874 60.4481 48.5874C60.4481 48.5874 56.3201 51.0994 55.9361 51.2594C55.5681 51.4194 54.8961 51.0514 54.6081 51.2594C54.3201 51.4674 53.9201 51.9314 53.9201 51.9314C53.9201 51.9314 51.1521 52.1234 50.9281 52.2034C50.7201 52.2834 50.4961 52.5234 50.4961 52.5234C50.4961 52.5234 51.1841 53.9314 51.0081 56.2834C50.8161 58.6354 50.2561 58.8114 50.2561 58.8114C50.2561 58.8114 50.5281 59.2434 51.2641 59.2114C52.0161 59.1794 54.9761 58.7794 54.9761 58.7794C54.9761 58.7794 55.9361 59.2114 56.7041 59.0674C57.4721 58.9394 58.3841 58.3954 58.3841 58.3954C58.3841 58.3954 68.0321 56.2034 69.2321 55.7234C70.4321 55.2434 71.0241 54.9234 70.9601 53.7234C70.9121 52.5234 70.1121 43.5154 69.3601 40.4434C69.2641 36.8274 68.6721 33.7874 67.9041 30.9074Z" fill="white"/>
<path opacity="0.2" d="M53.9043 51.9313L53.4243 51.9633C56.0323 55.8673 54.2403 58.8753 54.2403 58.8753L54.9603 58.7793C55.7923 57.0193 55.5043 53.7073 53.9043 51.9313Z" fill="#4A4A4A"/>
<path opacity="0.2" d="M60.6882 48.3474C60.6882 48.3474 60.8322 48.2834 61.0722 48.1874C61.2002 48.1394 61.3602 48.0914 61.5362 48.0434C61.7122 47.9954 61.9202 47.9474 62.1602 47.9154C62.3842 47.8834 62.6402 47.8514 62.9122 47.8514C63.1842 47.8354 63.4722 47.8674 63.7602 47.8994C63.9042 47.9314 64.0482 47.9474 64.2082 47.9794C64.3522 48.0114 64.4962 48.0594 64.6562 48.0914C64.7362 48.1074 64.8002 48.1234 64.8802 48.1554L65.1042 48.2354C65.2482 48.2994 65.4082 48.3474 65.5362 48.4114C65.6802 48.4754 65.8082 48.5554 65.9522 48.6194C66.0802 48.6994 66.2082 48.7794 66.3522 48.8594C66.4162 48.9074 66.4802 48.9394 66.5442 48.9874C66.6082 49.0354 66.6562 49.0834 66.7202 49.1314C66.8322 49.2274 66.9602 49.3074 67.0722 49.4034C67.1842 49.4994 67.2802 49.5954 67.3762 49.6914C67.4722 49.7874 67.5842 49.8834 67.6642 49.9794C67.7442 50.0754 67.8402 50.1714 67.9202 50.2674C68.0002 50.3634 68.0802 50.4434 68.1442 50.5394C68.2882 50.7154 68.4002 50.8914 68.5122 51.0514C68.6082 51.2114 68.6882 51.3554 68.7522 51.4674C68.8802 51.6914 68.9602 51.8354 68.9602 51.8354C68.9922 51.8994 68.9762 51.9954 68.8962 52.0274C68.8322 52.0594 68.7682 52.0434 68.7202 51.9954C68.7202 51.9954 68.6242 51.8834 68.4482 51.6914C68.3682 51.5954 68.2562 51.4834 68.1442 51.3554C68.0162 51.2274 67.8722 51.0834 67.7282 50.9394C67.5842 50.7794 67.3922 50.6354 67.2162 50.4594C67.0402 50.2834 66.8162 50.1394 66.6242 49.9794C66.5122 49.8994 66.4002 49.8194 66.2882 49.7554C66.2402 49.7234 66.1762 49.6754 66.1122 49.6434C66.0482 49.6114 66.0002 49.5794 65.9362 49.5314C65.8242 49.4674 65.6962 49.3874 65.5842 49.3234C65.4562 49.2594 65.3282 49.1954 65.2162 49.1474C65.0882 49.0834 64.9602 49.0354 64.8322 48.9874L64.6402 48.9074C64.5762 48.8754 64.5122 48.8594 64.4482 48.8434C64.3202 48.8114 64.1922 48.7634 64.0642 48.7314C63.9362 48.6994 63.8082 48.6674 63.6802 48.6354C63.5522 48.6194 63.4242 48.6034 63.2962 48.5874C63.1682 48.5554 63.0562 48.5554 62.9282 48.5554C62.6882 48.5234 62.4642 48.5394 62.2402 48.5394C62.1282 48.5394 62.0322 48.5554 61.9362 48.5554C61.8402 48.5554 61.7442 48.5554 61.6642 48.5714C61.4882 48.5874 61.3442 48.6034 61.2162 48.6194C60.9602 48.6674 60.8162 48.6834 60.8162 48.6834C60.7202 48.6994 60.6402 48.6354 60.6242 48.5394C60.5762 48.4594 60.6242 48.3794 60.6882 48.3474Z" fill="#4A4A4A"/>
<path opacity="0.2" d="M60.72 47.8833C60.72 47.8833 60.736 47.8673 60.768 47.8193C60.8 47.7713 60.864 47.7073 60.928 47.6433C61.008 47.5633 61.088 47.4833 61.2 47.3873C61.248 47.3393 61.312 47.2913 61.376 47.2273C61.44 47.1793 61.504 47.1313 61.584 47.0673C61.728 46.9553 61.888 46.8593 62.064 46.7473C62.24 46.6513 62.432 46.5233 62.624 46.4273C62.72 46.3793 62.832 46.3313 62.928 46.2833C63.04 46.2353 63.136 46.2033 63.248 46.1553C63.472 46.0593 63.696 45.9953 63.92 45.9313C64.144 45.8513 64.384 45.8193 64.624 45.7713C64.848 45.7233 65.088 45.7073 65.312 45.6753C65.424 45.6593 65.536 45.6593 65.648 45.6593C65.76 45.6593 65.856 45.6593 65.968 45.6593C66.176 45.6433 66.368 45.6753 66.544 45.6913C66.72 45.7073 66.88 45.7073 67.024 45.7393C67.168 45.7713 67.296 45.7873 67.392 45.8033C67.6 45.8513 67.712 45.8673 67.712 45.8673C67.792 45.8833 67.84 45.9633 67.824 46.0433C67.808 46.1073 67.76 46.1393 67.696 46.1553H67.68C67.68 46.1553 67.568 46.1713 67.36 46.1873C67.264 46.1873 67.136 46.2033 67.008 46.2033C66.864 46.2033 66.72 46.2353 66.544 46.2513C66.384 46.2673 66.192 46.2833 66 46.3153C65.808 46.3473 65.616 46.3633 65.408 46.4113C65.2 46.4593 64.992 46.4913 64.784 46.5393C64.672 46.5713 64.576 46.5873 64.464 46.6193L64.304 46.6513L64.144 46.6993C64.032 46.7313 63.936 46.7633 63.824 46.7953C63.712 46.8273 63.616 46.8753 63.52 46.9073C63.312 46.9713 63.12 47.0513 62.928 47.1313C62.832 47.1633 62.736 47.2113 62.64 47.2593C62.544 47.2913 62.464 47.3393 62.368 47.3713C62.192 47.4513 62.032 47.5313 61.888 47.6113C61.584 47.7553 61.344 47.8993 61.168 47.9953C61.088 48.0433 61.024 48.0753 60.976 48.1073C60.928 48.1393 60.912 48.1553 60.912 48.1553C60.832 48.2033 60.736 48.1713 60.688 48.1073C60.688 48.0113 60.688 47.9473 60.72 47.8833Z" fill="#4A4A4A"/>
<path d="M24.8801 48.7954C24.8321 49.0674 24.7681 49.3234 24.9921 49.7554C25.2161 50.1874 26.1121 51.3074 26.2081 51.3554C26.3041 51.4194 27.4081 51.6914 27.5521 51.7394C27.6961 51.7874 28.5761 51.6754 28.9281 51.7394C29.2801 51.8034 29.4241 51.2434 29.0241 50.8274C28.6081 50.4114 27.9361 50.3474 27.6961 50.2674C27.4561 50.1874 26.4001 49.2594 26.1121 49.0354C25.7761 48.8114 24.9441 48.4114 24.8801 48.7954Z" fill="#FFD9BA"/>
<path d="M27.6641 50.2674C27.4241 50.1874 26.3681 49.2594 26.0801 49.0354C25.7761 48.8114 24.9441 48.4114 24.8801 48.7794C24.8321 49.0514 24.7681 49.3074 24.9921 49.7394C25.1681 50.0594 25.7121 50.7954 26.0161 51.1474C26.4321 51.2594 26.9441 51.3874 27.0561 51.4194C27.2321 51.4674 28.2561 51.3394 28.6721 51.4194C28.9441 51.4674 29.1201 51.1954 29.0561 50.8594C29.0401 50.8434 29.0241 50.8274 29.0081 50.8114C28.5921 50.3954 27.9041 50.3474 27.6641 50.2674Z" fill="#F7A486"/>
<path d="M23.7919 47.8194C23.7279 48.1394 23.6479 48.4434 23.9199 48.9394C24.1919 49.4514 25.2319 50.7634 25.3439 50.8274C25.4559 50.9074 26.7519 51.2274 26.9279 51.2754C27.1039 51.3234 28.1279 51.1954 28.5439 51.2754C28.9599 51.3554 29.1359 50.6994 28.6559 50.2034C28.1759 49.7074 27.3759 49.6434 27.0879 49.5474C26.8159 49.4514 25.5679 48.3634 25.2159 48.1074C24.8639 47.8514 23.8719 47.3714 23.7919 47.8194Z" fill="#FFD9BA"/>
<path d="M25.2159 48.1074C24.8639 47.8354 23.8719 47.3714 23.7919 47.8194C23.7279 48.1394 23.6479 48.4434 23.9199 48.9394C24.0959 49.2754 24.6399 49.9954 24.9919 50.4274C25.4239 50.5554 26.3039 50.7474 26.4319 50.7794C26.6079 50.8274 27.7119 50.6674 28.1599 50.7474C28.4639 50.7954 28.6399 50.4914 28.5599 50.1234C28.0799 49.6914 27.3439 49.6274 27.0719 49.5474C26.7999 49.4674 25.5679 48.3794 25.2159 48.1074Z" fill="#F7A486"/>
<path d="M23.0401 47.0034C22.9761 47.3394 22.8961 47.6594 23.1841 48.2034C23.4721 48.7474 24.5921 50.1394 24.7041 50.2194C24.8161 50.2994 26.2081 50.6514 26.3841 50.6994C26.5601 50.7474 27.6641 50.6034 28.1121 50.6994C28.5441 50.7954 28.7361 50.0754 28.2241 49.5474C27.7121 49.0194 26.8481 48.9554 26.5441 48.8434C26.2401 48.7474 24.9281 47.5794 24.5441 47.3074C24.1761 47.0354 23.1201 46.5234 23.0401 47.0034Z" fill="#FFD9BA"/>
<path d="M24.544 47.3074C24.176 47.0194 23.12 46.5074 23.024 46.9874C22.96 47.3234 22.88 47.6434 23.168 48.1874C23.328 48.4914 23.76 49.0834 24.128 49.5474C24.608 49.6914 25.376 49.8834 25.52 49.9154C25.712 49.9634 26.848 49.8194 27.312 49.9154C27.648 49.9794 27.84 49.5954 27.712 49.1794C27.264 48.9714 26.768 48.9074 26.544 48.8274C26.24 48.7474 24.928 47.5954 24.544 47.3074Z" fill="#F7A486"/>
<path d="M22.0162 45.8194C21.9522 46.1714 21.8722 46.5074 22.1602 47.0674C22.4482 47.6274 23.6162 49.0834 23.7282 49.1634C23.8402 49.2434 25.2802 49.6114 25.4722 49.6594C25.6642 49.7074 26.8002 49.5634 27.2642 49.6594C27.7122 49.7554 27.9202 49.0194 27.3922 48.4754C26.8642 47.9314 25.9682 47.8514 25.6642 47.7554C25.3602 47.6594 23.9842 46.4594 23.6002 46.1554C23.2002 45.8514 22.0962 45.3234 22.0162 45.8194Z" fill="#FFD9BA"/>
</svg>
