<svg xmlns="http://www.w3.org/2000/svg" width="48" height="48" viewBox="0 0 48 48">
  <g id="_7351076_cross_in_box_delete_trash_icon" data-name="7351076_cross_in_box_delete_trash_icon" transform="translate(-2 -2)">
    <path id="Path_14" data-name="Path 14" d="M2.782,6.7A4.15,4.15,0,0,1,6.549,3.019,189.9,189.9,0,0,1,26,2,189.907,189.907,0,0,1,45.451,3.019,4.15,4.15,0,0,1,49.218,6.7,186.644,186.644,0,0,1,50,26a186.645,186.645,0,0,1-.782,19.3,4.15,4.15,0,0,1-3.767,3.685A189.958,189.958,0,0,1,26,50,189.961,189.961,0,0,1,6.549,48.981,4.15,4.15,0,0,1,2.782,45.3,186.628,186.628,0,0,1,2,26,186.622,186.622,0,0,1,2.782,6.7Z" transform="translate(0 0)" fill="#10284b"/>
    <path id="Path_12" data-name="Path 12" d="M7.714,7.714,30,30" transform="translate(7.143 7.143)" fill="none" stroke="#fefefe" stroke-linecap="round" stroke-width="2"/>
    <path id="Path_13" data-name="Path 13" d="M30,7.714,7.714,30" transform="translate(7.143 7.143)" fill="none" stroke="#fefefe" stroke-linecap="round" stroke-width="2"/>
  </g>
</svg>
