<svg width="80" height="62" viewBox="0 0 80 62" fill="none" xmlns="http://www.w3.org/2000/svg">
<path d="M80 55.9794H0V61.4194H80V55.9794Z" fill="#EDB48C"/>
<path d="M13.6002 52.5714C13.1202 52.5714 12.7202 52.9714 12.7202 53.4514V54.8914C12.7202 55.3714 13.1202 55.7714 13.6002 55.7714H25.7122V52.5714H13.6002Z" fill="white"/>
<path opacity="0.2" d="M12.9122 54.6994C12.9122 54.2194 13.3122 53.8194 13.7922 53.8194H25.7122V52.5874H13.6002C13.1202 52.5874 12.7202 52.9874 12.7202 53.4674V54.9074C12.7202 55.1154 12.7842 55.3074 12.9122 55.4514V54.6994Z" fill="#4A4A4A"/>
<path d="M17.696 56.1074H4.89604C4.24004 56.1074 3.69604 55.5634 3.69604 54.9074V53.4674C3.69604 52.8114 4.24004 52.2674 4.89604 52.2674H17.696V52.9074H13.584C13.28 52.9074 13.024 53.1634 13.024 53.4674V54.9074C13.024 55.2114 13.28 55.4674 13.584 55.4674H17.712V56.1074H17.696Z" fill="#3055AD"/>
<path d="M26.3999 56.1074H13.5999C12.9439 56.1074 12.3999 55.5634 12.3999 54.9074V53.4674C12.3999 52.8114 12.9439 52.2674 13.5999 52.2674H26.3999V52.9074H13.5999C13.2959 52.9074 13.0399 53.1634 13.0399 53.4674V54.9074C13.0399 55.2114 13.2959 55.4674 13.5999 55.4674H26.3999V56.1074Z" fill="#477EFF"/>
<path d="M10.944 48.7314C10.464 48.7314 10.064 49.1314 10.064 49.6114V51.0514C10.064 51.5314 10.464 51.9314 10.944 51.9314H23.984V48.7314H10.944Z" fill="white"/>
<path opacity="0.2" d="M10.256 50.8434C10.256 50.3634 10.656 49.9634 11.136 49.9634H24V48.7314H10.944C10.464 48.7314 10.064 49.1314 10.064 49.6114V51.0514C10.064 51.2594 10.128 51.4514 10.256 51.5954V50.8434Z" fill="#4A4A4A"/>
<path d="M15.0401 52.2513H5.76006C5.10406 52.2513 4.56006 51.7073 4.56006 51.0513V49.6113C4.56006 48.9553 5.10406 48.4113 5.76006 48.4113H15.0401V49.0513H10.9281C10.6241 49.0513 10.3681 49.3073 10.3681 49.6113V51.0513C10.3681 51.3553 10.6241 51.6113 10.9281 51.6113H15.0401V52.2513Z" fill="#D45357"/>
<path d="M24.6881 52.2513H10.9441C10.2881 52.2513 9.74414 51.7073 9.74414 51.0513V49.6113C9.74414 48.9553 10.2881 48.4113 10.9441 48.4113H24.6881V49.0513H10.9441C10.6401 49.0513 10.3841 49.3073 10.3841 49.6113V51.0513C10.3841 51.3553 10.6401 51.6113 10.9441 51.6113H24.6881V52.2513Z" fill="#FA6E72"/>
<path d="M19.3439 37.0994H10.2559C9.98391 37.0994 9.74391 37.3074 9.69591 37.5794L9.24791 40.4114L8.04791 47.9314C7.99991 48.2034 8.19191 48.4114 8.44791 48.4114H17.5359C17.8079 48.4114 18.0479 48.2034 18.0959 47.9314L19.2959 40.4114L19.7439 37.5794C19.7919 37.3074 19.6159 37.0994 19.3439 37.0994Z" fill="#4A4A4A"/>
<path d="M19.904 37.5794C19.856 37.3074 19.616 37.0994 19.344 37.0994H10.256C9.98402 37.0994 9.80802 37.3074 9.85602 37.5794L10.304 40.4114H20.352L19.904 37.5794Z" fill="#477EFF"/>
<path d="M10.3042 40.4113L11.5042 47.9313C11.5522 48.2033 11.7922 48.4113 12.0642 48.4113H21.1522C21.4242 48.4113 21.6002 48.2033 21.5522 47.9313L20.3522 40.4113H10.3042Z" fill="white"/>
<path d="M12.4802 41.5794C12.4962 41.6434 12.4482 41.6914 12.3842 41.6914H11.4722C11.4082 41.6914 11.3442 41.6434 11.3442 41.5794C11.3282 41.5154 11.3762 41.4674 11.4402 41.4674H12.3522C12.4162 41.4674 12.4802 41.5154 12.4802 41.5794Z" fill="#525252"/>
<path d="M14.288 41.5794C14.304 41.6434 14.256 41.6914 14.192 41.6914H13.28C13.216 41.6914 13.152 41.6434 13.152 41.5794C13.136 41.5154 13.184 41.4674 13.248 41.4674H14.16C14.208 41.4674 14.272 41.5154 14.288 41.5794Z" fill="#525252"/>
<path d="M16.08 41.5794C16.096 41.6434 16.048 41.6914 15.984 41.6914H15.072C15.008 41.6914 14.944 41.6434 14.944 41.5794C14.928 41.5154 14.976 41.4674 15.04 41.4674H15.952C16.016 41.4674 16.08 41.5154 16.08 41.5794Z" fill="#525252"/>
<path d="M17.8879 41.5794C17.9039 41.6434 17.8559 41.6914 17.7919 41.6914H16.8799C16.8159 41.6914 16.7519 41.6434 16.7519 41.5794C16.7359 41.5154 16.7839 41.4674 16.8479 41.4674H17.7599C17.8079 41.4674 17.8719 41.5154 17.8879 41.5794Z" fill="#525252"/>
<path d="M19.6801 41.5794C19.6961 41.6434 19.6481 41.6914 19.5841 41.6914H18.6721C18.6081 41.6914 18.5441 41.6434 18.5441 41.5794C18.5281 41.5154 18.5761 41.4674 18.6401 41.4674H19.5521C19.6161 41.4674 19.6801 41.5154 19.6801 41.5794Z" fill="#FA6E72"/>
<path d="M12.4319 42.7634C12.4639 42.9394 12.3359 43.0994 12.1599 43.0994C11.9839 43.0994 11.8079 42.9554 11.7759 42.7634C11.7439 42.5874 11.8719 42.4434 12.0479 42.4434C12.2239 42.4274 12.3999 42.5714 12.4319 42.7634Z" fill="#525252"/>
<path d="M14.2242 42.7634C14.2562 42.9394 14.1281 43.0994 13.9521 43.0994C13.7761 43.0994 13.6002 42.9554 13.5682 42.7634C13.5362 42.5874 13.6642 42.4434 13.8402 42.4434C14.0322 42.4274 14.2082 42.5714 14.2242 42.7634Z" fill="#525252"/>
<path d="M16.032 42.7634C16.064 42.9394 15.936 43.0994 15.76 43.0994C15.584 43.0994 15.408 42.9554 15.376 42.7634C15.344 42.5874 15.472 42.4434 15.648 42.4434C15.824 42.4274 16 42.5714 16.032 42.7634Z" fill="#525252"/>
<path d="M17.8242 42.7634C17.8562 42.9394 17.7282 43.0994 17.5522 43.0994C17.3762 43.0994 17.2002 42.9554 17.1682 42.7634C17.1362 42.5874 17.2642 42.4434 17.4402 42.4434C17.6322 42.4274 17.8082 42.5714 17.8242 42.7634Z" fill="#525252"/>
<path d="M19.6321 42.7634C19.6641 42.9394 19.5361 43.0994 19.3601 43.0994C19.1841 43.0994 19.0081 42.9554 18.9761 42.7634C18.9441 42.5874 19.0721 42.4434 19.2481 42.4434C19.4241 42.4274 19.6001 42.5714 19.6321 42.7634Z" fill="#FA6E72"/>
<path d="M12.6558 44.1714C12.6878 44.3474 12.5598 44.5074 12.3838 44.5074C12.2078 44.5074 12.0318 44.3634 11.9998 44.1714C11.9678 43.9954 12.0958 43.8514 12.2718 43.8514C12.4638 43.8514 12.6238 43.9954 12.6558 44.1714Z" fill="#525252"/>
<path d="M14.4641 44.1714C14.4961 44.3474 14.3681 44.5074 14.1921 44.5074C14.0161 44.5074 13.8401 44.3634 13.8081 44.1714C13.7761 43.9954 13.9041 43.8514 14.0801 43.8514C14.2561 43.8514 14.4321 43.9954 14.4641 44.1714Z" fill="#525252"/>
<path d="M16.2561 44.1714C16.2881 44.3474 16.1601 44.5074 15.9841 44.5074C15.8081 44.5074 15.6321 44.3634 15.6001 44.1714C15.5681 43.9954 15.6961 43.8514 15.8721 43.8514C16.0641 43.8514 16.2241 43.9954 16.2561 44.1714Z" fill="#525252"/>
<path d="M18.064 44.1714C18.096 44.3474 17.968 44.5074 17.792 44.5074C17.616 44.5074 17.44 44.3634 17.408 44.1714C17.376 43.9954 17.504 43.8514 17.68 43.8514C17.856 43.8514 18.032 43.9954 18.064 44.1714Z" fill="#525252"/>
<path d="M19.856 44.1714C19.888 44.3474 19.76 44.5074 19.584 44.5074C19.408 44.5074 19.232 44.3634 19.2 44.1714C19.168 43.9954 19.296 43.8514 19.472 43.8514C19.664 43.8514 19.824 43.9954 19.856 44.1714Z" fill="#FA6E72"/>
<path d="M12.8802 45.5954C12.9122 45.7714 12.7842 45.9314 12.6082 45.9314C12.4322 45.9314 12.2562 45.7874 12.2242 45.5954C12.1922 45.4194 12.3202 45.2754 12.4962 45.2754C12.6882 45.2754 12.8482 45.4194 12.8802 45.5954Z" fill="#525252"/>
<path d="M14.688 45.5954C14.72 45.7714 14.592 45.9314 14.416 45.9314C14.24 45.9314 14.064 45.7874 14.032 45.5954C14 45.4194 14.128 45.2754 14.304 45.2754C14.48 45.2754 14.656 45.4194 14.688 45.5954Z" fill="#525252"/>
<path d="M16.48 45.5954C16.512 45.7714 16.384 45.9314 16.208 45.9314C16.032 45.9314 15.856 45.7874 15.824 45.5954C15.792 45.4194 15.92 45.2754 16.096 45.2754C16.288 45.2754 16.448 45.4194 16.48 45.5954Z" fill="#525252"/>
<path d="M18.2881 45.5954C18.3201 45.7714 18.1921 45.9314 18.0161 45.9314C17.8401 45.9314 17.6641 45.7874 17.6321 45.5954C17.6001 45.4194 17.7281 45.2754 17.9041 45.2754C18.0801 45.2754 18.2561 45.4194 18.2881 45.5954Z" fill="#525252"/>
<path d="M20.0801 45.5954C20.1121 45.7714 19.9841 45.9314 19.8081 45.9314C19.6321 45.9314 19.4561 45.7874 19.4241 45.5954C19.3921 45.4194 19.5201 45.2754 19.6961 45.2754C19.8881 45.2754 20.0481 45.4194 20.0801 45.5954Z" fill="#FA6E72"/>
<path d="M13.104 47.0194C13.136 47.1954 13.008 47.3554 12.832 47.3554C12.656 47.3554 12.48 47.2114 12.448 47.0194C12.416 46.8434 12.544 46.6994 12.72 46.6994C12.912 46.6994 13.072 46.8434 13.104 47.0194Z" fill="#525252"/>
<path d="M14.9121 47.0194C14.9441 47.1954 14.8161 47.3554 14.6401 47.3554C14.4641 47.3554 14.2881 47.2114 14.2561 47.0194C14.2241 46.8434 14.3521 46.6994 14.5281 46.6994C14.7041 46.6994 14.8801 46.8434 14.9121 47.0194Z" fill="#525252"/>
<path d="M16.7041 47.0194C16.7361 47.1954 16.6081 47.3554 16.4321 47.3554C16.2561 47.3554 16.0801 47.2114 16.0481 47.0194C16.0161 46.8434 16.1441 46.6994 16.3201 46.6994C16.5121 46.6994 16.6721 46.8434 16.7041 47.0194Z" fill="#525252"/>
<path d="M18.512 47.0194C18.544 47.1954 18.416 47.3554 18.24 47.3554C18.064 47.3554 17.888 47.2114 17.856 47.0194C17.824 46.8434 17.952 46.6994 18.128 46.6994C18.304 46.6994 18.48 46.8434 18.512 47.0194Z" fill="#525252"/>
<path d="M20.304 47.0194C20.336 47.1954 20.208 47.3554 20.032 47.3554C19.856 47.3554 19.68 47.2114 19.648 47.0194C19.616 46.8434 19.744 46.6994 19.92 46.6994C20.112 46.6994 20.272 46.8434 20.304 47.0194Z" fill="#FA6E72"/>
<path d="M49.4721 59.7234C60.562 59.7234 69.5521 58.9426 69.5521 57.9794C69.5521 57.0162 60.562 56.2354 49.4721 56.2354C38.3822 56.2354 29.3921 57.0162 29.3921 57.9794C29.3921 58.9426 38.3822 59.7234 49.4721 59.7234Z" fill="#E89A78"/>
<path d="M36.0001 31.4194C35.5201 31.7874 35.0241 33.2114 34.4961 34.8914C33.9681 36.5714 32.7841 40.2194 32.6561 40.3794C32.5281 40.5394 31.9681 40.5714 31.9681 40.9394C31.9681 41.3074 32.2561 41.7874 32.2561 41.7874L29.1841 44.7474V50.6994H40.3841V31.4194H36.0001Z" fill="white"/>
<path opacity="0.2" d="M40.3841 31.4194H36.1601C35.2481 33.9634 35.1681 36.4274 35.2001 37.0514C35.2481 37.9634 36.1281 42.7634 36.1601 43.0194C36.1921 43.2914 33.8401 40.3314 33.6001 40.3794C33.3601 40.4274 35.4721 43.5474 35.4721 43.8194C35.4881 44.0914 34.8961 43.8994 34.0001 43.6114C33.2161 43.3554 32.1281 43.1794 30.8321 43.1634L29.7281 44.2354L29.1841 45.5634V50.7154H40.3841V31.4194Z" fill="#4A4A4A"/>
<path d="M22.288 42.0114C22.016 42.1394 20.16 45.4834 20.048 45.7074C19.92 45.9314 20.032 46.6514 20.24 46.9874C20.432 47.3234 21.808 49.0354 21.808 49.0354H26.88L26.768 42.9554C26.768 42.9554 27.216 42.6674 27.28 42.2514C27.344 41.8354 27.136 41.5314 26.736 41.5474C26.336 41.5634 25.312 41.6434 24.688 41.5474C24.08 41.4514 23.68 41.5634 23.36 41.6594C23.04 41.7234 22.288 42.0114 22.288 42.0114Z" fill="#FFD9BA"/>
<path d="M21.728 46.4434C21.392 46.0114 21.104 45.4834 21.312 45.5154C21.52 45.5474 22.352 45.7874 23.472 46.5394C24.592 47.2914 25.136 48.3954 25.136 48.3954H23.072L21.728 46.4434Z" fill="#F7A486"/>
<path d="M52.4801 30.6514H43.1521V38.6514H52.4801V30.6514Z" fill="white"/>
<path opacity="0.2" d="M52.4801 30.6514H43.1521V38.6514H52.4801V30.6514Z" fill="#4A4A4A"/>
<path d="M44.304 22.4594C44.304 22.4594 45.216 23.2274 45.552 25.1154C45.888 27.0194 46.736 31.7394 46.848 31.7074C46.96 31.6754 53.888 24.1874 53.888 24.1874C53.888 24.1874 53.088 22.3314 52.96 21.2114C52.832 20.0914 52.896 18.2834 52.896 18.2834H44.272V22.4594H44.304Z" fill="#FFD9BA"/>
<path d="M44.208 26.4114C44.208 26.4114 36.864 29.9794 36.432 30.1874C35.984 30.3954 35.52 30.7154 35.504 31.4194C35.488 32.1074 36.832 43.5794 37.44 46.7794C37.472 49.4994 37.472 55.9794 37.472 55.9794H66.3521C66.3521 55.9794 66.5921 35.4674 66.3521 33.3874C66.1121 31.3074 66.1601 30.5714 65.8721 30.3154C65.5841 30.0594 64.5121 29.4834 63.8561 29.1634C62.5121 28.2674 54.9761 24.0274 54.9761 24.0274C54.9761 24.0274 52.8801 27.7074 51.68 29.6914C50.4801 31.6754 47.4241 35.9154 47.0721 36.2834C46.7201 36.6514 46.5601 36.5074 46.3521 36.0434C46.1441 35.5794 45.12 33.8194 44.208 26.4114Z" fill="#3E5691"/>
<path d="M47.8081 55.9793H66.3361C66.3361 55.9793 66.4161 49.6913 66.4321 43.7233H58.3841C57.7121 46.3793 53.4721 52.0593 47.8081 55.9793Z" fill="#2D4170"/>
<path d="M44.7683 36.6354C44.7843 36.6514 44.7843 36.6674 44.8003 36.6834C45.3283 37.8994 46.1443 38.1394 46.7363 38.1394C47.3283 38.1394 47.8563 37.8834 48.3203 37.3714C48.7203 36.9234 51.8883 32.5714 53.1043 30.5074C54.6403 27.9314 55.7283 25.9154 56.3363 24.7634C56.0803 24.6194 55.8403 24.4754 55.6323 24.3634C55.0403 25.5154 53.9523 27.4994 52.4163 30.0914C51.2003 32.1234 48.1123 36.3794 47.7123 36.8274C47.4083 37.1634 47.0883 37.3394 46.7203 37.3394C46.2083 37.3394 45.8083 37.0194 45.5203 36.3634C45.5043 36.3474 45.5043 36.3154 45.4883 36.2834L45.4723 36.2674C45.1523 35.5954 44.2083 33.5794 43.3443 26.8274C43.1203 26.9394 42.8643 27.0514 42.5923 27.1954C43.4563 33.8674 44.4323 35.9154 44.7523 36.6194L44.7683 36.6354Z" fill="#4DA9F0"/>
<path d="M44.0642 37.0034C44.8002 38.6994 46.0482 38.9394 46.7202 38.9394C47.2962 38.9394 48.1282 38.7634 48.8962 37.8994C49.3922 37.3554 52.5602 32.9554 53.7762 30.9234C55.3122 28.3474 56.4002 26.3474 57.0082 25.1634C56.9602 25.1314 56.9122 25.1154 56.8642 25.0834C56.2562 26.2674 55.1682 28.2674 53.6322 30.8434C52.4162 32.8754 49.2642 37.2594 48.7682 37.8034C48.0322 38.6194 47.2482 38.7954 46.7042 38.7954C46.0642 38.7954 44.8802 38.5554 44.1922 36.9394L44.1602 36.8754C43.8242 36.1714 42.8482 34.0754 41.9682 27.4834C41.9202 27.5154 41.8722 27.5314 41.8242 27.5634C42.7042 34.1554 43.6802 36.2514 44.0162 36.9554L44.0642 37.0034Z" fill="#4DA9F0"/>
<path d="M52.2242 20.0594V18.2994H44.3042V22.4594C44.3042 22.4594 45.2162 23.2274 45.5522 25.1154C45.6002 25.3874 45.6642 25.7234 45.7282 26.0914C46.1602 26.3634 46.6082 26.5714 47.0722 26.5874C48.8642 26.6674 51.9202 22.3474 52.2242 20.0594Z" fill="#F7A486"/>
<path d="M45.6001 24.2034C45.6001 24.2034 45.1041 24.2674 44.9761 24.4274C44.8481 24.5874 43.4561 26.5234 43.4081 26.6834C43.3761 26.8274 42.3361 33.7394 42.3041 34.0434C42.2721 34.3474 42.6081 34.5554 42.9121 34.2354C43.2001 33.9314 45.5681 31.7394 45.8881 31.6594C46.2081 31.5794 46.8801 31.7234 46.8801 31.7234C46.8801 31.7234 47.7921 31.6754 48.1281 31.7234C48.4641 31.7714 51.4241 34.0274 51.7281 34.2514C52.1761 34.5874 52.3041 34.6994 52.5921 34.6994C52.8801 34.6834 53.0561 34.6354 53.2641 34.0594C53.4721 33.4834 56.2721 25.4674 56.3841 24.9394C56.4961 24.4114 56.4321 24.4114 56.2881 24.0914C56.1441 23.7874 54.3681 21.9794 54.2241 21.7874C54.0801 21.5954 53.9361 21.5314 53.6961 21.4994C53.4561 21.4674 53.0401 21.4994 53.0401 21.4994C53.0401 21.4994 53.3601 22.7634 53.5041 23.1474C53.5041 23.1474 48.2401 29.5154 46.9601 31.3074C46.3361 27.5314 45.6001 24.2034 45.6001 24.2034Z" fill="white"/>
<path opacity="0.2" d="M45.6 24.2033C45.6 24.2033 45.104 24.2673 44.976 24.4273C44.928 24.4913 44.672 24.8273 44.384 25.2273C44.848 25.6433 45.424 26.0593 46.048 26.3153C45.776 25.0353 45.6 24.2033 45.6 24.2033Z" fill="#4A4A4A"/>
<path d="M66.4321 44.9234C64.6881 48.2674 62.3681 49.9954 60.5921 50.2194C60.0321 50.2994 59.5041 50.0914 59.0561 49.5954C57.9681 48.4114 57.1361 45.1954 58.3361 40.0434C59.6641 34.3154 62.0321 31.0034 63.9201 29.1794C63.8881 29.1634 63.8721 29.1474 63.8401 29.1474C63.7441 29.0834 63.6321 29.0194 63.4881 28.9234C61.5681 30.8114 59.2001 34.1874 57.8561 39.9474C56.8321 44.3314 57.1681 48.2514 58.6881 49.9314C59.1681 50.4594 59.7441 50.7314 60.3521 50.7314C60.4481 50.7314 60.5441 50.7314 60.6401 50.7154C62.4001 50.4754 64.6401 48.9234 66.4161 45.9314C66.4321 45.5794 66.4321 45.2434 66.4321 44.9234Z" fill="#2D4170"/>
<path d="M37.52 29.6594C37.328 29.7554 37.152 29.8354 37.008 29.9154C36.736 32.0274 36.448 35.6594 36.544 40.6674C36.8 42.6194 37.056 44.4754 37.248 45.7714C36.704 37.7714 37.168 32.3154 37.52 29.6594Z" fill="#2D4170"/>
<path d="M37.9522 14.5714C38.2722 17.2274 38.6722 19.4194 40.1122 21.2754C41.5522 23.1314 43.3442 24.3794 44.9122 24.4274C46.4802 24.4754 51.5522 23.4994 52.8482 18.3954C53.6482 17.3234 56.6722 14.3314 55.9202 9.32341C55.1682 4.29941 50.9602 0.107416 44.1762 1.46742C37.4082 2.81142 36.6722 9.86741 37.9522 14.5714Z" fill="#FFD9BA"/>
<path d="M39.1521 15.3394C39.2321 15.8194 39.5681 16.1554 39.9201 16.1074C40.2561 16.0434 40.4641 15.6114 40.3841 15.1314C40.3041 14.6514 39.9681 14.3154 39.6161 14.3634C39.2801 14.4274 39.0721 14.8594 39.1521 15.3394Z" fill="#4A4A4A"/>
<path d="M46.7521 14.6353C46.8321 15.1153 47.1521 15.4673 47.5041 15.4033C47.8401 15.3553 48.0641 14.9233 47.9841 14.4433C47.9041 13.9633 47.5841 13.6113 47.2321 13.6593C46.8961 13.7233 46.6721 14.1553 46.7521 14.6353Z" fill="#4A4A4A"/>
<path d="M40.9122 15.3714C40.4322 14.8594 39.9682 14.4274 39.5202 14.5074C39.0722 14.5874 38.7842 15.1954 38.7842 15.4034C38.6562 15.3714 38.3362 14.9874 38.3362 14.9874L38.5762 14.8914C38.7202 14.5714 38.9122 14.1234 39.5842 14.0754C40.2242 14.0594 40.7362 14.6354 40.9122 15.3714Z" fill="#262626"/>
<path d="M45.8723 14.7154C46.4003 13.9474 47.9203 13.0834 48.5123 14.6034C48.9443 14.5234 49.2163 14.1234 49.2163 14.1234C49.2163 14.1234 48.9923 14.0434 48.8163 13.9154C48.4483 13.5314 47.9363 13.1474 47.1843 13.2754C46.4323 13.4194 45.9843 13.9794 45.8723 14.7154Z" fill="#262626"/>
<path d="M45.8722 12.5234L45.4722 12.1234C45.4722 12.1234 46.2562 11.7714 47.1522 11.6434C48.0482 11.5154 49.6002 11.6754 49.6002 11.6754C49.6002 11.6754 47.2962 12.0914 45.8722 12.5234Z" fill="#262626"/>
<path d="M40.8161 13.3234L40.9601 12.8594C40.9601 12.8594 40.2881 12.6514 39.6161 12.6674C38.9441 12.6834 37.9041 13.0994 37.9041 13.0994C37.9041 13.0994 39.6801 13.1314 40.8161 13.3234Z" fill="#262626"/>
<path d="M42.448 16.6193C42.448 16.6193 42.192 17.5313 42.224 17.7713C42.272 18.0113 42.48 18.1713 42.72 18.2993C42.352 18.2993 41.984 18.0433 41.936 17.7393C41.888 17.4353 42.512 16.3953 42.448 16.6193Z" fill="#B86E5E"/>
<path d="M43.2642 18.1553C43.1042 18.1233 43.1202 17.9473 43.2802 17.9153C43.4562 17.8833 43.7282 18.0913 43.7282 18.0913C43.7282 18.0913 43.3762 18.1713 43.2642 18.1553Z" fill="#B86E5E"/>
<path d="M42.272 20.0914C42.272 19.9634 42.48 19.8354 43.216 19.7074C43.968 19.5794 46.496 19.3394 46.592 19.5154C46.688 19.6914 46.624 21.7234 44.624 22.0274C42.64 22.3154 42.272 20.2994 42.272 20.0914Z" fill="#78241E"/>
<path d="M46.432 20.6194C46.192 21.2114 45.68 21.8674 44.608 22.0274C43.568 22.1874 42.976 21.6914 42.656 21.1634C43.456 20.2034 45.312 19.5474 46.432 20.6194Z" fill="#FA6E72"/>
<path d="M43.216 19.7074C43.84 19.5954 45.664 19.4194 46.336 19.4674C45.76 19.9954 44.448 20.3314 43.408 20.4114C42.816 20.4594 42.48 20.3474 42.288 20.1714C42.288 20.1394 42.272 20.1074 42.272 20.0914C42.272 19.9474 42.48 19.8354 43.216 19.7074Z" fill="white"/>
<path d="M54.7681 3.78739C52.4481 0.619385 47.4241 -0.772615 42.3681 0.427385C38.7361 1.29139 37.4721 3.51538 37.4721 3.51538C35.9041 4.68338 35.1201 7.32338 35.2641 9.61139C35.4081 11.8834 37.2161 13.4354 37.2161 13.4354L37.5681 13.4034C37.5681 13.4034 37.3441 13.0194 37.3121 12.9074C37.5681 13.2434 37.8081 13.3394 37.8721 13.3394C37.9361 13.3394 38.7521 13.2114 38.7521 13.2114C38.3201 12.3634 38.1761 10.8594 38.2081 10.0274C38.8801 11.4994 39.9361 12.1234 40.2081 12.1554C40.7201 12.5554 41.3761 12.8914 41.3761 12.8914L42.1121 12.6514C42.1121 12.6514 41.4881 11.4834 41.3121 9.85139C42.1281 11.4034 42.9761 12.0114 43.6321 12.1554C44.2081 12.1234 44.5921 11.9634 44.5921 11.9634C44.5921 11.9634 44.0961 10.2994 44.7841 8.20338C44.9121 9.85138 45.9841 11.8194 45.9841 11.8194L46.7361 11.6754L46.8001 10.3794C46.9121 10.8274 47.5201 11.5314 47.7441 11.5954C48.0801 11.5954 48.9761 11.4674 48.9761 11.4034C48.9761 11.3554 48.9761 9.94738 49.1201 8.81139C49.2001 9.67538 49.3441 10.9074 49.4881 11.2914C49.7281 11.8994 50.7841 12.5874 50.7841 12.5874C50.7841 12.5874 51.5521 16.3794 51.7761 16.2994C52.0001 16.2194 52.3681 15.5314 52.5761 14.8114L55.3281 15.4034C55.3281 15.4034 56.1441 14.0754 56.2241 10.8914C56.2241 10.8914 56.8641 10.6034 56.8801 10.4434C56.9281 10.2994 57.0881 6.95539 54.7681 3.78739Z" fill="#4A4A4A"/>
<path d="M52.48 15.4834C52.752 13.7074 53.744 12.8434 54.72 13.2914C55.696 13.7394 56.592 18.0914 52.64 18.2994L52.48 15.4834Z" fill="#FFD9BA"/>
<path opacity="0.2" d="M53.104 21.8034L53.488 23.1474C53.936 22.6994 54.304 21.4994 53.104 21.8034Z" fill="#4A4A4A"/>
<path d="M21.312 43.7234C21.312 43.7234 21.504 42.7634 22.16 42.0914C25.408 42.1394 30.208 43.5634 33.2 45.5634H33.68C33.68 45.5634 38.896 40.5554 46.032 40.9714C46.032 40.9714 46.336 40.9554 46.496 41.1954C46.656 41.4354 53.616 52.4434 53.696 52.5874C53.776 52.7314 53.792 52.9234 53.696 53.1474C53.6 53.3714 52.992 54.0274 52.992 54.0274L27.744 49.9474L21.312 43.7234Z" fill="white"/>
<path opacity="0.2" d="M53.6962 53.1314C53.7922 52.9074 53.7762 52.7154 53.6962 52.5714C53.6162 52.4274 46.6562 41.4194 46.4962 41.1794C46.4322 41.0834 46.3362 41.0194 46.2562 40.9874C46.2402 41.1154 46.1602 41.2594 46.0962 41.4194C45.9682 41.7394 45.0562 43.4354 45.0562 43.4354L52.1442 53.8514L52.9922 53.9954C53.0082 54.0114 53.6002 53.3554 53.6962 53.1314Z" fill="#4A4A4A"/>
<path d="M34.8163 46.2994C34.8163 46.2994 37.0243 44.1554 40.4323 43.2434C43.8403 42.3314 45.7923 42.4274 46.0323 42.4434C46.2723 42.4594 46.4803 42.5074 46.8003 43.0194C47.1203 43.5314 53.0723 53.5154 53.2323 53.8834C53.3923 54.2514 53.2323 54.4594 52.9123 54.4594C52.5923 54.4594 48.8803 54.2674 46.0323 54.6354C43.1843 55.0034 39.9363 56.1714 39.7443 56.2194C39.5523 56.2674 37.0083 56.2194 37.0083 56.2194C37.0083 56.2194 34.2563 54.8114 32.6243 54.4274C30.9923 54.0434 29.4243 54.0274 29.2483 54.0274C29.0723 54.0274 28.8323 53.9954 28.7043 53.7714C28.5763 53.5474 21.0243 44.0274 20.8963 43.8354C20.7683 43.6434 20.8963 43.4354 21.2003 43.3874C21.5043 43.3394 27.2163 43.2594 32.1123 46.5074L34.8163 46.2994Z" fill="#4A4A4A"/>
<path opacity="0.2" d="M39.7602 56.2194C39.7762 56.2194 39.8082 56.2034 39.8402 56.1874L34.8162 46.2994L32.1282 46.4914L37.0242 56.2194C37.2482 56.2194 39.5842 56.2514 39.7602 56.2194Z" fill="#4A4A4A"/>
<path opacity="0.5" d="M21.2161 43.3713C20.9121 43.4033 20.8001 43.6113 20.9121 43.8193C21.0241 44.0273 28.5921 53.5473 28.7201 53.7553C28.8481 53.9633 29.0721 54.0113 29.2641 54.0113C29.4561 54.0113 31.0241 54.0113 32.6401 54.4113C34.2561 54.8113 37.0241 56.2033 37.0241 56.2033C37.0241 56.2033 37.0241 56.2033 37.0401 56.2033L32.1441 46.4753C27.2481 43.2593 21.5201 43.3393 21.2161 43.3713Z" fill="#4A4A4A"/>
<path d="M48.4802 52.5074C48.4802 52.5074 46.8322 50.2194 46.6562 49.9474C46.4802 49.6754 45.7282 49.2434 45.1522 49.0514C44.5762 48.8594 43.5202 48.4274 43.2642 48.2514C43.0082 48.0754 42.4802 49.0514 43.1682 49.9154C43.8562 50.7794 44.4802 50.8754 44.5922 50.9714C44.7042 51.0674 45.1682 52.0434 45.0562 52.0594C44.9442 52.0754 41.7602 51.7554 41.4722 51.7074C41.1842 51.6594 39.7922 50.9234 39.5682 50.7794C39.3442 50.6354 38.4162 49.3234 37.9202 48.9554C37.4242 48.5874 36.2402 48.1714 35.9362 48.4914C35.6322 48.8114 35.8722 49.0354 36.3522 49.6754C36.8322 50.3154 37.6962 51.6754 37.8562 51.9794C38.0162 52.2834 38.2882 52.5554 38.2882 52.5554C38.2882 52.5554 38.5762 53.6434 38.7202 54.0274C38.8642 54.4114 39.2162 54.6674 39.2162 54.6674C39.2162 54.6674 39.7282 55.8354 39.8722 56.1234C40.0162 56.4114 40.6562 56.6514 40.6562 56.6514C40.6562 56.6514 40.7202 57.1634 40.8802 57.4354C41.0402 57.7074 41.2802 57.8514 41.7762 57.9474C42.2722 58.0434 43.0722 58.1714 43.6002 58.2834C44.1282 58.3954 48.2082 58.7634 48.2082 58.7634H50.5602V52.4914L48.4802 52.5074Z" fill="#FFD9BA"/>
<path d="M43.2962 58.2514C43.2962 58.2514 40.9762 56.7954 40.9282 56.6994C40.8802 56.6034 40.4162 55.9314 40.4802 55.8994C40.5442 55.8674 41.8562 56.0274 41.8562 55.9794C41.8562 55.9314 40.0802 55.2114 39.7762 54.9554C39.4562 54.6834 39.4882 54.2194 39.6162 54.2194C39.7442 54.2194 41.1042 54.8114 41.2002 54.7634C41.2962 54.7154 40.9762 54.5074 40.6882 54.2994C40.4002 54.0914 38.3042 52.5714 38.3042 52.5714C38.3042 52.5714 38.5922 53.6594 38.7362 54.0434C38.8802 54.4274 39.2322 54.6834 39.2322 54.6834C39.2322 54.6834 39.7442 55.8514 39.8882 56.1394C40.0322 56.4274 40.6722 56.6674 40.6722 56.6674C40.6722 56.6674 40.7362 57.1794 40.8962 57.4514C41.0562 57.7234 41.2962 57.8674 41.7922 57.9634C42.2082 58.0754 42.8002 58.1714 43.2962 58.2514Z" fill="#F7A486"/>
<path d="M65.9041 30.9074C65.7601 30.3794 65.0401 30.3634 64.2241 31.2594C63.1361 32.4594 61.0241 35.9154 59.3761 40.5074C58.1281 43.9474 58.2881 44.3954 58.2561 45.5954C58.2241 46.7954 58.4481 48.5874 58.4481 48.5874C58.4481 48.5874 54.3201 51.0994 53.9361 51.2594C53.5681 51.4194 52.8961 51.0514 52.6081 51.2594C52.3201 51.4674 51.9201 51.9314 51.9201 51.9314C51.9201 51.9314 49.1521 52.1234 48.9281 52.2034C48.7201 52.2834 48.4961 52.5234 48.4961 52.5234C48.4961 52.5234 49.1841 53.9314 49.0081 56.2834C48.8161 58.6354 48.2561 58.8114 48.2561 58.8114C48.2561 58.8114 48.5281 59.2434 49.2641 59.2114C50.0161 59.1794 52.9761 58.7794 52.9761 58.7794C52.9761 58.7794 53.9361 59.2114 54.7041 59.0674C55.4721 58.9394 56.3841 58.3954 56.3841 58.3954C56.3841 58.3954 66.0321 56.2034 67.2321 55.7234C68.4321 55.2434 69.0241 54.9234 68.9601 53.7234C68.9121 52.5234 68.1121 43.5154 67.3601 40.4434C67.2641 36.8274 66.6721 33.7874 65.9041 30.9074Z" fill="white"/>
<path opacity="0.2" d="M51.9043 51.9313L51.4243 51.9633C54.0323 55.8673 52.2403 58.8753 52.2403 58.8753L52.9603 58.7793C53.7923 57.0193 53.5043 53.7073 51.9043 51.9313Z" fill="#4A4A4A"/>
<path opacity="0.2" d="M58.6882 48.3474C58.6882 48.3474 58.8322 48.2834 59.0722 48.1874C59.2002 48.1394 59.3602 48.0914 59.5362 48.0434C59.7122 47.9954 59.9202 47.9474 60.1602 47.9154C60.3842 47.8834 60.6402 47.8514 60.9122 47.8514C61.1842 47.8354 61.4722 47.8674 61.7602 47.8994C61.9042 47.9314 62.0482 47.9474 62.2082 47.9794C62.3522 48.0114 62.4962 48.0594 62.6562 48.0914C62.7362 48.1074 62.8002 48.1234 62.8802 48.1554L63.1042 48.2354C63.2482 48.2994 63.4082 48.3474 63.5362 48.4114C63.6802 48.4754 63.8082 48.5554 63.9522 48.6194C64.0802 48.6994 64.2082 48.7794 64.3522 48.8594C64.4162 48.9074 64.4802 48.9394 64.5442 48.9874C64.6082 49.0354 64.6562 49.0834 64.7202 49.1314C64.8322 49.2274 64.9602 49.3074 65.0722 49.4034C65.1842 49.4994 65.2802 49.5954 65.3762 49.6914C65.4722 49.7874 65.5842 49.8834 65.6642 49.9794C65.7442 50.0754 65.8402 50.1714 65.9202 50.2674C66.0002 50.3634 66.0802 50.4434 66.1442 50.5394C66.2882 50.7154 66.4002 50.8914 66.5122 51.0514C66.6082 51.2114 66.6882 51.3554 66.7522 51.4674C66.8802 51.6914 66.9602 51.8354 66.9602 51.8354C66.9922 51.8994 66.9762 51.9954 66.8962 52.0274C66.8322 52.0594 66.7682 52.0434 66.7202 51.9954C66.7202 51.9954 66.6242 51.8834 66.4482 51.6914C66.3682 51.5954 66.2562 51.4834 66.1442 51.3554C66.0162 51.2274 65.8722 51.0834 65.7282 50.9394C65.5842 50.7794 65.3922 50.6354 65.2162 50.4594C65.0402 50.2834 64.8162 50.1394 64.6242 49.9794C64.5122 49.8994 64.4002 49.8194 64.2882 49.7554C64.2402 49.7234 64.1762 49.6754 64.1122 49.6434C64.0482 49.6114 64.0002 49.5794 63.9362 49.5314C63.8242 49.4674 63.6962 49.3874 63.5842 49.3234C63.4562 49.2594 63.3282 49.1954 63.2162 49.1474C63.0882 49.0834 62.9602 49.0354 62.8322 48.9874L62.6402 48.9074C62.5762 48.8754 62.5122 48.8594 62.4482 48.8434C62.3202 48.8114 62.1922 48.7634 62.0642 48.7314C61.9362 48.6994 61.8082 48.6674 61.6802 48.6354C61.5522 48.6194 61.4242 48.6034 61.2962 48.5874C61.1682 48.5554 61.0562 48.5554 60.9282 48.5554C60.6882 48.5234 60.4642 48.5394 60.2402 48.5394C60.1282 48.5394 60.0322 48.5554 59.9362 48.5554C59.8402 48.5554 59.7442 48.5554 59.6642 48.5714C59.4882 48.5874 59.3442 48.6034 59.2162 48.6194C58.9602 48.6674 58.8162 48.6834 58.8162 48.6834C58.7202 48.6994 58.6402 48.6354 58.6242 48.5394C58.5762 48.4594 58.6242 48.3794 58.6882 48.3474Z" fill="#4A4A4A"/>
<path opacity="0.2" d="M58.72 47.8833C58.72 47.8833 58.736 47.8673 58.768 47.8193C58.8 47.7713 58.864 47.7073 58.928 47.6433C59.008 47.5633 59.088 47.4833 59.2 47.3873C59.248 47.3393 59.312 47.2913 59.376 47.2273C59.44 47.1793 59.504 47.1313 59.584 47.0673C59.728 46.9553 59.888 46.8593 60.064 46.7473C60.24 46.6513 60.432 46.5233 60.624 46.4273C60.72 46.3793 60.832 46.3313 60.928 46.2833C61.04 46.2353 61.136 46.2033 61.248 46.1553C61.472 46.0593 61.696 45.9953 61.92 45.9313C62.144 45.8513 62.384 45.8193 62.624 45.7713C62.848 45.7233 63.088 45.7073 63.312 45.6753C63.424 45.6593 63.536 45.6593 63.648 45.6593C63.76 45.6593 63.856 45.6593 63.968 45.6593C64.176 45.6433 64.368 45.6753 64.544 45.6913C64.72 45.7073 64.88 45.7073 65.024 45.7393C65.168 45.7713 65.296 45.7873 65.392 45.8033C65.6 45.8513 65.712 45.8673 65.712 45.8673C65.792 45.8833 65.84 45.9633 65.824 46.0433C65.808 46.1073 65.76 46.1393 65.696 46.1553H65.68C65.68 46.1553 65.568 46.1713 65.36 46.1873C65.264 46.1873 65.136 46.2033 65.008 46.2033C64.864 46.2033 64.72 46.2353 64.544 46.2513C64.384 46.2673 64.192 46.2833 64 46.3153C63.808 46.3473 63.616 46.3633 63.408 46.4113C63.2 46.4593 62.992 46.4913 62.784 46.5393C62.672 46.5713 62.576 46.5873 62.464 46.6193L62.304 46.6513L62.144 46.6993C62.032 46.7313 61.936 46.7633 61.824 46.7953C61.712 46.8273 61.616 46.8753 61.52 46.9073C61.312 46.9713 61.12 47.0513 60.928 47.1313C60.832 47.1633 60.736 47.2113 60.64 47.2593C60.544 47.2913 60.464 47.3393 60.368 47.3713C60.192 47.4513 60.032 47.5313 59.888 47.6113C59.584 47.7553 59.344 47.8993 59.168 47.9953C59.088 48.0433 59.024 48.0753 58.976 48.1073C58.928 48.1393 58.912 48.1553 58.912 48.1553C58.832 48.2033 58.736 48.1713 58.688 48.1073C58.688 48.0113 58.688 47.9473 58.72 47.8833Z" fill="#4A4A4A"/>
<path d="M22.8801 48.7954C22.8321 49.0674 22.7681 49.3234 22.9921 49.7554C23.2161 50.1874 24.1121 51.3074 24.2081 51.3554C24.3041 51.4194 25.4081 51.6914 25.5521 51.7394C25.6961 51.7874 26.5761 51.6754 26.9281 51.7394C27.2801 51.8034 27.4241 51.2434 27.0241 50.8274C26.6081 50.4114 25.9361 50.3474 25.6961 50.2674C25.4561 50.1874 24.4001 49.2594 24.1121 49.0354C23.7761 48.8114 22.9441 48.4114 22.8801 48.7954Z" fill="#FFD9BA"/>
<path d="M25.6641 50.2674C25.4241 50.1874 24.3681 49.2594 24.0801 49.0354C23.7761 48.8114 22.9441 48.4114 22.8801 48.7794C22.8321 49.0514 22.7681 49.3074 22.9921 49.7394C23.1681 50.0594 23.7121 50.7954 24.0161 51.1474C24.4321 51.2594 24.9441 51.3874 25.0561 51.4194C25.2321 51.4674 26.2561 51.3394 26.6721 51.4194C26.9441 51.4674 27.1201 51.1954 27.0561 50.8594C27.0401 50.8434 27.0241 50.8274 27.0081 50.8114C26.5921 50.3954 25.9041 50.3474 25.6641 50.2674Z" fill="#F7A486"/>
<path d="M21.7919 47.8194C21.7279 48.1394 21.6479 48.4434 21.9199 48.9394C22.1919 49.4514 23.2319 50.7634 23.3439 50.8274C23.4559 50.9074 24.7519 51.2274 24.9279 51.2754C25.1039 51.3234 26.1279 51.1954 26.5439 51.2754C26.9599 51.3554 27.1359 50.6994 26.6559 50.2034C26.1759 49.7074 25.3759 49.6434 25.0879 49.5474C24.8159 49.4514 23.5679 48.3634 23.2159 48.1074C22.8639 47.8514 21.8719 47.3714 21.7919 47.8194Z" fill="#FFD9BA"/>
<path d="M23.2159 48.1074C22.8639 47.8354 21.8719 47.3714 21.7919 47.8194C21.7279 48.1394 21.6479 48.4434 21.9199 48.9394C22.0959 49.2754 22.6399 49.9954 22.9919 50.4274C23.4239 50.5554 24.3039 50.7474 24.4319 50.7794C24.6079 50.8274 25.7119 50.6674 26.1599 50.7474C26.4639 50.7954 26.6399 50.4914 26.5599 50.1234C26.0799 49.6914 25.3439 49.6274 25.0719 49.5474C24.7999 49.4674 23.5679 48.3794 23.2159 48.1074Z" fill="#F7A486"/>
<path d="M21.0401 47.0034C20.9761 47.3394 20.8961 47.6594 21.1841 48.2034C21.4721 48.7474 22.5921 50.1394 22.7041 50.2194C22.8161 50.2994 24.2081 50.6514 24.3841 50.6994C24.5601 50.7474 25.6641 50.6034 26.1121 50.6994C26.5441 50.7954 26.7361 50.0754 26.2241 49.5474C25.7121 49.0194 24.8481 48.9554 24.5441 48.8434C24.2401 48.7474 22.9281 47.5794 22.5441 47.3074C22.1761 47.0354 21.1201 46.5234 21.0401 47.0034Z" fill="#FFD9BA"/>
<path d="M22.544 47.3074C22.176 47.0194 21.12 46.5074 21.024 46.9874C20.96 47.3234 20.88 47.6434 21.168 48.1874C21.328 48.4914 21.76 49.0834 22.128 49.5474C22.608 49.6914 23.376 49.8834 23.52 49.9154C23.712 49.9634 24.848 49.8194 25.312 49.9154C25.648 49.9794 25.84 49.5954 25.712 49.1794C25.264 48.9714 24.768 48.9074 24.544 48.8274C24.24 48.7474 22.928 47.5954 22.544 47.3074Z" fill="#F7A486"/>
<path d="M20.0162 45.8194C19.9522 46.1714 19.8722 46.5074 20.1602 47.0674C20.4482 47.6274 21.6162 49.0834 21.7282 49.1634C21.8402 49.2434 23.2802 49.6114 23.4722 49.6594C23.6642 49.7074 24.8002 49.5634 25.2642 49.6594C25.7122 49.7554 25.9202 49.0194 25.3922 48.4754C24.8642 47.9314 23.9682 47.8514 23.6642 47.7554C23.3602 47.6594 21.9842 46.4594 21.6002 46.1554C21.2002 45.8514 20.0962 45.3234 20.0162 45.8194Z" fill="#FFD9BA"/>
</svg>
