<svg width="136" height="41" viewBox="0 0 136 41" fill="none" xmlns="http://www.w3.org/2000/svg">
<g clip-path="url(#clip0_127_112)">
<path d="M4.36678 34.3372C4.06382 34.3366 3.76397 34.2761 3.48455 34.159C3.20513 34.0419 2.95167 33.8706 2.73881 33.6551C2.41881 33.3148 2.23589 32.8682 2.22522 32.4012C2.23883 32.1109 2.31167 31.8265 2.43925 31.5653L2.39712 31.6534V13.1748C2.33676 13.2019 2.26948 13.2096 2.20458 13.1968C2.14191 13.1796 2.07696 13.1722 2.01204 13.1748C1.48013 13.1988 0.959276 13.0179 0.556809 12.6693C0.378318 12.5134 0.236029 12.3205 0.139894 12.1039C0.0437596 11.8873 -0.00389989 11.6523 0.000249454 11.4154C0.000249454 10.7694 0.349802 10.1534 1.04891 9.56753C1.81839 8.93907 2.67664 8.42796 3.59577 8.0508C4.59895 7.62436 5.63734 7.28602 6.69919 7.03962C7.58855 6.81415 8.50031 6.68866 9.41753 6.66549C10.6548 6.64617 11.8838 6.87036 13.0345 7.32528C14.0436 7.72714 14.9714 8.30854 15.7731 9.0413C16.4957 9.69981 17.0844 10.4916 17.5068 11.3733C17.8863 12.1402 18.0909 12.9817 18.1059 13.8372C18.0889 14.927 17.7942 15.9946 17.2498 16.9389C16.685 17.973 15.9298 18.891 15.024 19.6446C16.2748 20.2965 17.3307 21.268 18.0844 22.4603C18.7347 23.5036 19.0829 24.7068 19.0905 25.9361C19.0866 26.7488 18.9343 27.554 18.641 28.3119C18.3414 29.1031 17.9232 29.8441 17.4006 30.5095C16.8643 31.1923 16.2379 31.7992 15.5384 32.3136C14.8456 32.8303 14.0823 33.245 13.2717 33.5451C12.2346 33.8756 11.1659 34.0967 10.0828 34.2049C8.96643 34.3215 7.84479 34.3801 6.72236 34.3806H5.56542C5.19438 34.3806 4.80916 34.3665 4.40975 34.3384L4.36678 34.3372ZM13.4415 23.3829C12.8187 22.9746 12.1415 22.6562 11.4297 22.4371C10.6898 22.2112 9.93016 22.056 9.16094 21.9736C8.76153 22.0323 8.3478 22.0837 7.91974 22.1278C7.47878 22.1725 7.03582 22.1946 6.5926 22.194V30.5091C7.22036 30.5091 8.00513 30.4724 8.94691 30.3991C9.87233 30.3291 10.7854 30.1442 11.6653 29.8489C12.4968 29.5782 13.2624 29.1361 13.9126 28.5512C14.2305 28.2504 14.4793 27.8841 14.6419 27.4777C14.8045 27.0713 14.8769 26.6345 14.8542 26.1973C14.8612 25.6431 14.7442 25.0944 14.5117 24.5913C14.2735 24.0967 13.9026 23.678 13.4403 23.3821L13.4415 23.3829ZM6.5926 17.9707C6.992 17.9707 7.37723 17.978 7.74827 17.9926C8.11931 18.0072 8.50453 18.0293 8.90394 18.0588C9.38609 18.0043 9.8602 17.8936 10.3166 17.7289C10.8934 17.5354 11.4463 17.277 11.9648 16.9587C12.4815 16.6465 12.9383 16.2445 13.3139 15.7718C13.6824 15.31 13.8791 14.7346 13.8704 14.1439C13.8862 13.5854 13.7374 13.0346 13.4424 12.5602C13.1579 12.121 12.7773 11.7523 12.3292 11.482C11.8627 11.1992 11.3583 10.9844 10.831 10.8441C10.3009 10.6991 9.75392 10.6252 9.20434 10.6242C8.31484 10.62 7.43125 10.7688 6.59217 11.064L6.5926 17.9707ZM24.0153 19.0703C23.5765 18.8361 23.1904 18.5141 22.8811 18.1245C22.6734 17.8361 22.5611 17.4898 22.5601 17.1344C22.5581 16.8925 22.6087 16.6531 22.7086 16.4328C22.8084 16.2125 22.955 16.0166 23.1381 15.8586C23.5581 15.494 24.1023 15.305 24.6578 15.3307C25.1685 15.3497 25.6703 15.4694 26.1345 15.6829C26.6392 15.8865 27.1084 16.1686 27.5249 16.5188C28.344 15.8285 29.242 15.2378 30.2002 14.759C31.0854 14.3221 32.0596 14.0962 33.0467 14.0988C33.4888 14.1235 33.9269 14.1973 34.3527 14.3187C34.9507 14.4706 35.5263 14.6999 36.065 15.0008C36.6217 15.3091 37.1213 15.7108 37.5417 16.1885C37.962 16.6519 38.1914 17.2571 38.1838 17.8826C38.1904 18.1284 38.1419 18.3725 38.0419 18.597C37.9418 18.8215 37.7928 19.0208 37.6057 19.1803C37.2219 19.5169 36.7258 19.6973 36.2154 19.6859C35.868 19.7004 35.5244 19.6084 35.2308 19.4221C34.9599 19.235 34.7024 19.0292 34.4602 18.8062C34.2437 18.5867 34.0073 18.3878 33.7541 18.2121C33.5396 18.0422 33.2781 17.9423 33.005 17.926C32.6106 17.9501 32.2283 18.0709 31.8918 18.2778C31.4442 18.5251 31.015 18.8045 30.6077 19.1137C30.1656 19.4479 29.7435 19.8077 29.3437 20.1915C28.93 20.5872 28.5804 20.9319 28.2951 21.2254V32.7522C28.3058 33.059 28.248 33.3643 28.1258 33.6459C28.0037 33.9275 27.8203 34.1784 27.5889 34.3802C27.2006 34.7118 26.7092 34.8984 26.1986 34.9081C25.6957 34.912 25.2086 34.7322 24.8289 34.4025C24.4011 34.0087 24.1407 33.4658 24.1013 32.8857V19.115L24.0153 19.0703ZM45.6322 32.5773C45.6432 32.8822 45.5876 33.1857 45.4693 33.4669C45.351 33.7481 45.1728 34 44.9472 34.2053C44.5539 34.5435 44.0528 34.73 43.5341 34.7311C43.0348 34.7361 42.5497 34.5646 42.1644 34.247C41.734 33.864 41.4725 33.3264 41.4368 32.7513L41.3104 16.0326C41.4067 15.4981 41.6777 15.0107 42.081 14.6469C42.4532 14.3378 42.9244 14.1733 43.4081 14.1835C43.8694 14.185 44.3185 14.3311 44.6923 14.6014C45.1159 14.9174 45.406 15.3804 45.5054 15.8995L45.6322 32.5773ZM41.0083 9.0392C41.0035 8.71698 41.0636 8.3971 41.1849 8.09855C41.3062 7.8 41.4863 7.52886 41.7144 7.30126C41.9302 7.0692 42.192 6.88476 42.4831 6.75975C42.7743 6.63475 43.0883 6.57193 43.4052 6.57534C43.7288 6.56899 44.0501 6.63028 44.3487 6.75528C44.6472 6.88028 44.9164 7.06625 45.1389 7.30126C45.367 7.52886 45.5471 7.8 45.6684 8.09855C45.7897 8.3971 45.8498 8.71698 45.845 9.0392C45.8511 9.35834 45.7916 9.67534 45.6701 9.97052C45.5486 10.2657 45.3678 10.5328 45.1389 10.7552C44.9132 10.9846 44.643 11.1654 44.3448 11.2865C44.0466 11.4075 43.7269 11.4663 43.4052 11.4592C43.0902 11.4633 42.7778 11.4029 42.4871 11.2819C42.1963 11.1608 41.9334 10.9816 41.7144 10.7552C41.4855 10.5328 41.3047 10.2657 41.1832 9.97052C41.0617 9.67534 41.0022 9.35834 41.0083 9.0392Z" fill="#F99232"/>
<path d="M54.1085 34.3355C53.8056 34.3351 53.5059 34.2748 53.2265 34.158C52.9471 34.0412 52.6935 33.8703 52.4805 33.6551C52.1605 33.3148 51.9776 32.8682 51.9669 32.4012C51.9805 32.1109 52.0534 31.8264 52.1809 31.5653L52.1388 31.6534V13.1748C52.0784 13.2018 52.0112 13.2095 51.9463 13.1967C51.8836 13.1796 51.8187 13.1722 51.7537 13.1748C51.2218 13.1988 50.701 13.0178 50.2985 12.6693C50.12 12.5135 49.9778 12.3206 49.8816 12.1041C49.7855 11.8876 49.7378 11.6527 49.7419 11.4158C49.7419 10.7698 50.0915 10.1539 50.7906 9.56795C51.5601 8.93949 52.4183 8.42837 53.3375 8.0512C54.3406 7.62473 55.379 7.28641 56.4409 7.04005C57.3302 6.81455 58.242 6.68906 59.1592 6.66592C60.3965 6.64659 61.6255 6.87076 62.7762 7.32569C63.7853 7.72754 64.7131 8.30895 65.5148 9.04171C66.2374 9.70009 66.826 10.4918 67.2485 11.3733C67.628 12.1401 67.8326 12.9817 67.8476 13.8371C67.8306 14.927 67.5359 15.9946 66.9915 16.9389C66.4266 17.9729 65.6714 18.8909 64.7657 19.6446C66.0165 20.2966 67.0724 21.268 67.8261 22.4602C68.4764 23.5036 68.8246 24.7068 68.8322 25.9361C68.8283 26.7488 68.676 27.554 68.3827 28.3119C68.083 29.1039 67.6645 29.8456 67.1415 30.5116C66.6052 31.1943 65.9787 31.801 65.2793 32.3153C64.5867 32.8314 63.8236 33.2456 63.0134 33.5451C61.9764 33.8758 60.9076 34.097 59.8245 34.2053C58.7081 34.3221 57.5865 34.3809 56.4641 34.3814H55.3071C54.9361 34.3814 54.5509 34.3674 54.1514 34.3393L54.1085 34.3355ZM63.1832 23.3812C62.5604 22.973 61.8831 22.6546 61.1714 22.4354C60.4315 22.2095 59.6719 22.0543 58.9026 21.9719C58.5032 22.0306 58.0895 22.0819 57.6614 22.1257C57.2205 22.1704 56.7775 22.1925 56.3343 22.1919V30.5074C56.9621 30.5074 57.7468 30.4707 58.6886 30.3974C59.614 30.3275 60.5271 30.1428 61.4069 29.8476C62.2386 29.5768 63.0041 29.1346 63.6543 28.5495C63.9722 28.2487 64.221 27.8824 64.3836 27.476C64.5462 27.0696 64.6186 26.6328 64.5959 26.1956C64.6028 25.6416 64.4858 25.093 64.2534 24.59C64.0152 24.0956 63.6442 23.6771 63.182 23.3812H63.1832ZM56.3343 17.9703C56.7337 17.9703 57.1189 17.9776 57.49 17.9922C57.861 18.0068 58.2462 18.0288 58.6456 18.0583C59.1278 18.0038 59.6019 17.8931 60.0583 17.7284C60.6351 17.5349 61.188 17.2765 61.7065 16.9583C62.223 16.6457 62.6795 16.2435 63.0547 15.7706C63.4232 15.3087 63.6199 14.7333 63.6113 14.1426C63.6271 13.5841 63.4782 13.0333 63.1832 12.5589C62.8987 12.1199 62.5181 11.7513 62.0701 11.4811C61.6036 11.1983 61.0991 10.9835 60.5719 10.8433C60.0418 10.6983 59.4948 10.6243 58.9452 10.6233C58.0557 10.6191 57.1721 10.7679 56.333 11.0632L56.3343 17.9703ZM106.974 32.4012C106.982 32.6954 106.93 32.9881 106.819 33.2608C106.709 33.5335 106.543 33.7803 106.332 33.9854C105.944 34.3329 105.439 34.5215 104.919 34.5133C104.421 34.5089 103.939 34.3385 103.549 34.0292C103.328 33.8528 103.146 33.633 103.013 33.3833C102.881 33.1335 102.801 32.8592 102.779 32.5773V7.8515C102.875 7.31701 103.146 6.82963 103.549 6.46579C103.907 6.16173 104.363 5.99717 104.833 6.00234C105.302 5.99704 105.761 6.14366 106.139 6.42028C106.556 6.7464 106.85 7.20388 106.974 7.71836V19.9492C107.551 19.5845 108.102 19.1802 108.622 18.7392C109.122 18.3139 109.621 17.8446 110.12 17.3311C110.62 16.8177 111.134 16.2531 111.662 15.6374C112.19 15.0215 112.782 14.3474 113.438 13.6151C113.708 13.3769 114.02 13.1905 114.358 13.0653C114.64 12.9656 114.937 12.9135 115.236 12.9111C115.757 12.8928 116.265 13.0824 116.647 13.4382C116.825 13.5993 116.966 13.7963 117.062 14.0163C117.158 14.2362 117.206 14.474 117.204 14.7139C117.169 15.2771 116.96 15.8154 116.605 16.2538C115.606 17.4563 114.664 18.5122 113.779 19.4217C112.885 20.3394 111.927 21.1922 110.911 21.9736L118.745 30.9477C119.109 31.439 119.345 32.0137 119.43 32.6195C119.432 32.8606 119.386 33.0998 119.294 33.3228C119.202 33.5458 119.066 33.7481 118.895 33.9175C118.714 34.1007 118.497 34.2442 118.258 34.3388C118.018 34.4335 117.762 34.4773 117.504 34.4674C117.189 34.4671 116.877 34.4073 116.584 34.2912C116.251 34.1508 115.952 33.9408 115.707 33.6753L112.625 30.1556C111.769 29.129 110.934 28.1459 110.12 27.2064C109.307 26.2668 108.415 25.2697 107.445 24.215C107.38 24.2632 107.308 24.3004 107.231 24.325C107.142 24.3529 107.056 24.3898 106.974 24.435L106.974 32.4012ZM121.742 30.8613C121.342 30.0108 121.335 29.2995 121.72 28.7273C121.903 28.4495 122.155 28.2242 122.452 28.0738C122.748 27.9233 123.079 27.8529 123.411 27.8695C123.984 27.8998 124.535 28.0989 124.995 28.4417C125.581 29.2509 126.306 29.9508 127.135 30.5095C127.508 30.7776 127.933 30.9665 128.382 31.0648C128.831 31.1631 129.296 31.1687 129.747 31.0812C130.159 31.0007 130.546 30.8279 130.881 30.5756C131.188 30.3513 131.438 30.0574 131.609 29.7178C131.767 29.3886 131.848 29.0274 131.844 28.662C131.847 28.2888 131.743 27.9226 131.545 27.6062C131.325 27.2373 131.042 26.9094 130.71 26.6372C130.427 26.4116 130.109 26.2333 129.769 26.1093C129.462 25.9978 129.147 25.9095 128.827 25.8451C128.544 25.7909 128.265 25.7175 127.992 25.6252C127.564 25.508 127.136 25.3833 126.708 25.251C126.28 25.1192 125.865 24.9501 125.467 24.7455C125.055 24.5317 124.667 24.2734 124.311 23.9753C123.908 23.6323 123.548 23.2407 123.241 22.8095C122.928 22.3719 122.683 21.8899 122.513 21.3796C122.352 20.9198 122.265 20.437 122.256 19.9496C122.262 19.3041 122.378 18.6643 122.599 18.0579C122.821 17.4241 123.131 16.8244 123.519 16.2762C123.9 15.7384 124.362 15.2633 124.889 14.8681C125.391 14.4844 125.966 14.2074 126.58 14.0541C127.803 13.7306 129.082 13.6855 130.325 13.9223C131.55 14.1307 132.73 14.5474 133.814 15.1542C134.17 15.402 134.475 15.7156 134.713 16.0781C134.897 16.352 135.001 16.6721 135.012 17.0021C135.017 17.3382 134.92 17.6679 134.734 17.9479C134.547 18.2281 134.298 18.4615 134.007 18.63C133.694 18.8094 133.339 18.9007 132.979 18.8942C132.549 18.8821 132.129 18.7611 131.758 18.5424C131.299 18.3246 130.819 18.1552 130.325 18.0368C129.733 17.8775 129.118 17.818 128.506 17.8607C127.954 17.8857 127.427 18.0948 127.008 18.4548C126.608 18.8067 126.451 19.3933 126.537 20.2146C126.695 20.52 126.905 20.7955 127.157 21.0286C127.401 21.2494 127.675 21.4345 127.97 21.5784C128.281 21.7293 128.603 21.8544 128.934 21.9526C129.276 22.0551 129.604 22.1504 129.918 22.2386C130.751 22.4834 131.566 22.7848 132.358 23.1407C133.063 23.4536 133.713 23.8769 134.284 24.3945C134.83 24.8979 135.261 25.5131 135.548 26.1982C135.868 27.01 136.021 27.8779 135.998 28.7501C135.996 29.5481 135.821 30.3363 135.484 31.0597C135.149 31.7973 134.693 32.4739 134.136 33.0618C133.59 33.6408 132.945 34.1177 132.231 34.4699C131.568 34.8095 130.836 34.9903 130.091 34.9978C128.472 34.9929 126.876 34.6165 125.425 33.8977C123.972 33.2143 122.719 32.169 121.787 30.8621L121.742 30.8613Z" fill="#148108"/>
<path d="M97.5783 14.9356C95.0082 15.0708 90.3316 15.5638 87.1768 17.3548C87.0742 17.4114 86.9885 17.4943 86.9286 17.595C86.8687 17.6957 86.8367 17.8106 86.8359 17.9278V33.7638C86.8473 33.886 86.8888 34.0035 86.9566 34.1058C87.0244 34.2081 87.1164 34.2921 87.2246 34.3502C87.3327 34.4083 87.4535 34.4387 87.5762 34.4388C87.6989 34.4389 87.8198 34.4086 87.928 34.3507C91.1721 32.834 95.4342 32.4219 97.7544 32.3086C98.1153 32.3087 98.4624 32.1703 98.7244 31.9221C98.9863 31.6739 99.1431 31.3346 99.1624 30.9743V16.2703C99.1503 16.0771 99.0992 15.8883 99.0121 15.7154C98.925 15.5424 98.8038 15.389 98.6557 15.2642C98.5077 15.1395 98.3358 15.046 98.1507 14.9895C97.9655 14.9331 97.7707 14.9147 97.5783 14.9356ZM84.1324 17.3552C80.9788 15.5642 76.3013 15.0721 73.7313 14.9356C73.5387 14.9146 73.3438 14.933 73.1584 14.9896C72.9731 15.0461 72.8011 15.1397 72.653 15.2646C72.5049 15.3896 72.3836 15.5433 72.2966 15.7164C72.2096 15.8896 72.1586 16.0786 72.1467 16.272V30.976C72.1658 31.3364 72.3225 31.6758 72.5845 31.924C72.8465 32.1723 73.1938 32.3106 73.5548 32.3103C75.8758 32.4236 80.14 32.8373 83.3845 34.3536C83.4924 34.4115 83.6129 34.4417 83.7354 34.4416C83.8578 34.4415 83.9783 34.4111 84.0861 34.3531C84.1939 34.2951 84.2857 34.2113 84.3532 34.1092C84.4208 34.0072 84.462 33.8899 84.4732 33.768V17.9206C84.4725 17.8044 84.4404 17.6906 84.3804 17.5911C84.3204 17.4916 84.2347 17.4101 84.1324 17.3552Z" fill="#00AB47"/>
<path d="M86.7927 18.6165C86.7927 17.9408 86.2449 17.393 85.5692 17.393C84.8935 17.393 84.3457 17.9408 84.3457 18.6165V32.9354C84.3457 33.6111 84.8935 34.1589 85.5692 34.1589C86.2449 34.1589 86.7927 33.6111 86.7927 32.9354V18.6165Z" fill="#148108"/>
</g>
<defs>
<clipPath id="clip0_127_112">
<rect width="136" height="41" fill="white"/>
</clipPath>
</defs>
</svg>
