<svg width="297" height="72" viewBox="0 0 297 72" fill="none" xmlns="http://www.w3.org/2000/svg">
<g clip-path="url(#clip0_127_996)">
<g clip-path="url(#clip1_127_996)">
<path d="M38.09 46.381H27.8946C27.6134 48.1472 26.7935 49.5872 25.3099 50.6124C24.2488 51.3522 22.9726 51.7201 21.6804 51.6586C18.7639 51.5546 16.7965 49.7728 15.881 46.3655H12.3781C12.0617 46.3655 11.7439 46.3725 11.4289 46.3655C10.8157 46.3486 10.4051 45.9746 10.4178 45.4556C10.4304 44.9367 10.8242 44.5894 11.4134 44.5852C12.731 44.5739 14.0501 44.5852 15.3692 44.5852H15.9317C17.2957 41.116 19.3151 39.5227 22.1037 39.6633C24.6715 39.7955 27.1184 41.4296 27.8398 44.5585C27.972 44.5669 28.1098 44.5824 28.249 44.5824C31.3962 44.5824 34.542 44.5824 37.6892 44.5908C38.0421 44.5908 38.1926 44.5163 38.2939 44.1422C38.6308 42.8572 39.3844 41.7203 40.4366 40.9094C41.4888 40.0984 42.7802 39.6593 44.1087 39.6608C45.4371 39.6622 46.7275 40.1041 47.778 40.9174C48.8284 41.7306 49.5795 42.8692 49.9137 44.1549C50.0051 44.4966 50.1303 44.6035 50.4762 44.5908C51.1793 44.5669 51.8754 44.5838 52.549 44.5838C52.5926 44.5092 52.6235 44.4797 52.6235 44.4516C52.6235 42.1538 52.6432 39.856 52.6235 37.561C52.6151 36.6596 52.1749 35.9508 51.4395 35.4375C50.704 34.9242 49.9685 34.4166 49.2106 33.9413C48.9848 33.8153 48.7294 33.7522 48.4709 33.7585C44.0365 33.7435 39.6035 33.7406 35.172 33.75C34.1426 33.75 33.9064 33.5096 33.9064 32.4844C33.9064 29.2031 33.9064 25.9219 33.9064 22.6406V21.9867H15.1596C14.9316 21.9965 14.7032 21.9843 14.4776 21.9502C14.2797 21.9123 14.1013 21.8066 13.9729 21.6513C13.8446 21.496 13.7743 21.3009 13.7743 21.0994C13.7743 20.8979 13.8446 20.7028 13.9729 20.5475C14.1013 20.3922 14.2797 20.2865 14.4776 20.2486C14.7039 20.216 14.9326 20.2037 15.161 20.2121C19.9789 20.2121 24.7962 20.2121 29.6131 20.2121C32.6885 20.2121 35.7654 20.2121 38.8409 20.1671C41.0389 20.1319 42.6673 20.9911 43.8443 22.8685C45.7428 25.8975 47.7185 28.8802 49.6718 31.8685C49.8378 32.1132 50.0464 32.3261 50.2878 32.4971C50.9909 32.9991 51.7095 33.4646 52.414 33.9596C53.726 34.8821 54.4081 36.1463 54.4123 37.7564C54.4179 40.2652 54.4179 42.7739 54.4123 45.2827C54.4123 46.0547 54.0959 46.3599 53.3182 46.3641C52.2481 46.3641 51.1779 46.3641 50.119 46.3641C49.2204 49.8291 47.066 51.691 44.0229 51.6628C41.0417 51.6361 38.8732 49.7138 38.09 46.381ZM47.4682 31.9402C47.4584 31.8713 47.4682 31.8333 47.4471 31.8094C45.5993 28.9561 43.7782 26.0846 41.8728 23.2706C41.5381 22.7771 40.8982 22.3777 40.3174 22.1906C39.6734 21.9825 38.9337 22.05 38.2362 22.0289C37.3925 22.0078 36.5628 22.0289 35.7162 22.0289V31.9444L47.4682 31.9402ZM26.1214 45.7214C26.0792 43.2746 24.2314 41.4183 21.8576 41.438C20.7475 41.4647 19.6924 41.9267 18.9197 42.7241C18.147 43.5216 17.7186 44.5908 17.7269 45.7012C17.7352 46.8116 18.1795 47.8743 18.9641 48.6601C19.7486 49.446 20.8105 49.892 21.9209 49.9022C24.2496 49.8783 26.1607 47.9785 26.1214 45.7172V45.7214ZM39.9026 45.5513C39.7423 47.7914 41.5437 49.7419 43.9132 49.8966C46.1703 50.0372 48.1685 48.2513 48.3359 45.9296C48.5018 43.6331 46.6906 41.611 44.3168 41.4464C41.9867 41.2819 40.0756 43.058 39.8984 45.5471L39.9026 45.5513Z" fill="white"/>
<path d="M8.11834 34.9088C6.36053 34.9088 4.60272 34.9088 2.84631 34.9088C2.15584 34.9088 1.75928 34.591 1.74662 34.0496C1.73397 33.5082 2.14459 33.1411 2.80693 33.1397C6.37412 33.1341 9.94131 33.1341 13.5085 33.1397C14.3269 33.1397 14.7966 33.7528 14.4929 34.3913C14.3058 34.7921 13.9669 34.9144 13.5437 34.913C11.738 34.9046 9.92818 34.9088 8.11834 34.9088Z" fill="white"/>
<path d="M13.2344 28.471C11.7607 28.471 10.2813 28.471 8.81177 28.471C8.09739 28.471 7.68677 28.1378 7.68677 27.5809C7.68677 27.024 8.10864 26.6921 8.8188 26.6921C11.7672 26.6921 14.7161 26.6921 17.6655 26.6921C18.3152 26.6921 18.678 26.9565 18.7469 27.4557C18.8271 28.0421 18.4319 28.464 17.7625 28.4682C16.2593 28.4767 14.7504 28.471 13.2344 28.471Z" fill="white"/>
<path d="M9.31243 40.3017C8.24368 40.3017 7.17353 40.3186 6.10337 40.3017C5.37634 40.2876 4.92072 39.69 5.2329 39.119C5.37353 38.8617 5.7504 38.5804 6.02462 38.5748C8.23384 38.5298 10.4445 38.5411 12.6537 38.5537C13.2162 38.5537 13.5621 38.932 13.5537 39.4382C13.5452 39.9445 13.2007 40.2918 12.627 40.3017C11.5231 40.3157 10.422 40.3017 9.31243 40.3017Z" fill="white"/>
</g>
<g clip-path="url(#clip2_127_996)">
<path d="M88.472 26C88.184 26.0533 87.8267 26.08 87.4 26.08C86.984 26.08 86.6267 26.0533 86.328 26V15.168L86.44 15.072H93.032C93.096 15.3173 93.128 15.6053 93.128 15.936C93.128 16.2667 93.032 16.512 92.84 16.672C92.6587 16.8213 92.3653 16.896 91.96 16.896H88.456L88.472 18.448V19.648H92.12C92.1947 19.8827 92.232 20.176 92.232 20.528C92.232 20.8693 92.1947 21.168 92.12 21.424H88.472V26ZM93.7338 19.024C93.7764 18.832 93.8618 18.6293 93.9898 18.416C94.1284 18.2027 94.2671 18.0427 94.4058 17.936C95.2698 18.0427 95.8618 18.5227 96.1818 19.376C96.5871 18.4267 97.2644 17.952 98.2138 17.952C98.5658 17.952 98.8858 17.9893 99.1738 18.064C99.1738 18.8107 99.0031 19.4613 98.6618 20.016C98.5018 19.9627 98.2564 19.9253 97.9258 19.904C97.3071 19.904 96.8058 20.2347 96.4218 20.896V26C96.1018 26.0533 95.7551 26.08 95.3818 26.08C95.0191 26.08 94.6671 26.0533 94.3258 26V20.672C94.3258 19.9147 94.1284 19.3653 93.7338 19.024ZM106.089 22.704H101.673C101.705 23.2907 101.838 23.7547 102.073 24.096C102.318 24.4267 102.74 24.592 103.337 24.592C103.956 24.592 104.665 24.4107 105.465 24.048C105.774 24.368 105.972 24.7893 106.057 25.312C105.204 25.92 104.18 26.224 102.985 26.224C101.854 26.224 100.996 25.8773 100.409 25.184C99.8331 24.48 99.5451 23.44 99.5451 22.064C99.5451 21.424 99.6198 20.848 99.7691 20.336C99.9185 19.8133 100.137 19.3707 100.425 19.008C100.713 18.6347 101.065 18.3467 101.481 18.144C101.897 17.9413 102.372 17.84 102.905 17.84C103.449 17.84 103.929 17.9253 104.345 18.096C104.761 18.256 105.113 18.4907 105.401 18.8C105.689 19.0987 105.902 19.456 106.041 19.872C106.19 20.288 106.265 20.7413 106.265 21.232C106.265 21.4987 106.249 21.7547 106.217 22C106.185 22.2347 106.142 22.4693 106.089 22.704ZM103.001 19.344C102.169 19.344 101.721 19.9733 101.657 21.232H104.313V21.04C104.313 20.528 104.206 20.1173 103.993 19.808C103.78 19.4987 103.449 19.344 103.001 19.344ZM114.058 22.704H109.642C109.674 23.2907 109.807 23.7547 110.042 24.096C110.287 24.4267 110.709 24.592 111.306 24.592C111.925 24.592 112.634 24.4107 113.434 24.048C113.743 24.368 113.941 24.7893 114.026 25.312C113.173 25.92 112.149 26.224 110.954 26.224C109.823 26.224 108.965 25.8773 108.378 25.184C107.802 24.48 107.514 23.44 107.514 22.064C107.514 21.424 107.589 20.848 107.738 20.336C107.887 19.8133 108.106 19.3707 108.394 19.008C108.682 18.6347 109.034 18.3467 109.45 18.144C109.866 17.9413 110.341 17.84 110.874 17.84C111.418 17.84 111.898 17.9253 112.314 18.096C112.73 18.256 113.082 18.4907 113.37 18.8C113.658 19.0987 113.871 19.456 114.01 19.872C114.159 20.288 114.234 20.7413 114.234 21.232C114.234 21.4987 114.218 21.7547 114.186 22C114.154 22.2347 114.111 22.4693 114.058 22.704ZM110.97 19.344C110.138 19.344 109.69 19.9733 109.626 21.232H112.282V21.04C112.282 20.528 112.175 20.1173 111.962 19.808C111.749 19.4987 111.418 19.344 110.97 19.344ZM126.486 25.28C126.166 25.5573 125.729 25.76 125.174 25.888C124.63 26.016 124.07 26.08 123.494 26.08C123.206 26.08 122.758 26.0747 122.15 26.064C121.553 26.0533 120.785 26.0373 119.846 26.016L119.734 25.92V15.152L119.846 15.056C120.465 15.0347 121.084 15.0187 121.702 15.008C122.332 14.9973 122.972 14.992 123.622 14.992C124.518 14.992 125.26 15.136 125.846 15.424C126.444 15.712 126.918 16.112 127.27 16.624C127.622 17.1253 127.868 17.712 128.006 18.384C128.156 19.056 128.23 19.776 128.23 20.544C128.23 21.6107 128.108 22.5333 127.862 23.312C127.628 24.08 127.169 24.736 126.486 25.28ZM125.606 17.968C125.286 17.1147 124.625 16.688 123.622 16.688C123.249 16.688 122.918 16.688 122.63 16.688C122.342 16.688 122.092 16.6827 121.878 16.672V24.4C122.081 24.3893 122.31 24.384 122.566 24.384C122.833 24.384 123.1 24.3787 123.366 24.368C123.633 24.3573 123.878 24.336 124.102 24.304C124.337 24.272 124.529 24.2187 124.678 24.144C124.956 23.9947 125.18 23.7973 125.35 23.552C125.532 23.296 125.67 23.008 125.766 22.688C125.862 22.3573 125.926 22.0053 125.958 21.632C126.001 21.248 126.022 20.8533 126.022 20.448C126.022 19.9893 125.99 19.5627 125.926 19.168C125.873 18.7733 125.766 18.3733 125.606 17.968ZM136.074 22.704H131.658C131.69 23.2907 131.823 23.7547 132.058 24.096C132.303 24.4267 132.724 24.592 133.322 24.592C133.94 24.592 134.65 24.4107 135.45 24.048C135.759 24.368 135.956 24.7893 136.042 25.312C135.188 25.92 134.164 26.224 132.97 26.224C131.839 26.224 130.98 25.8773 130.394 25.184C129.818 24.48 129.53 23.44 129.53 22.064C129.53 21.424 129.604 20.848 129.754 20.336C129.903 19.8133 130.122 19.3707 130.41 19.008C130.698 18.6347 131.05 18.3467 131.466 18.144C131.882 17.9413 132.356 17.84 132.89 17.84C133.434 17.84 133.914 17.9253 134.33 18.096C134.746 18.256 135.098 18.4907 135.386 18.8C135.674 19.0987 135.887 19.456 136.026 19.872C136.175 20.288 136.25 20.7413 136.25 21.232C136.25 21.4987 136.234 21.7547 136.202 22C136.17 22.2347 136.127 22.4693 136.074 22.704ZM132.986 19.344C132.154 19.344 131.706 19.9733 131.642 21.232H134.298V21.04C134.298 20.528 134.191 20.1173 133.978 19.808C133.764 19.4987 133.434 19.344 132.986 19.344ZM140.698 24.464H141.194C141.312 24.7627 141.37 25.0507 141.37 25.328C141.37 25.6053 141.354 25.808 141.322 25.936C140.672 26.032 140.154 26.08 139.77 26.08C139.152 26.08 138.698 25.9253 138.41 25.616C138.122 25.296 137.978 24.8 137.978 24.128V14.336L138.09 14.224H138.89C139.306 14.224 139.6 14.3253 139.77 14.528C139.941 14.72 140.026 15.0507 140.026 15.52V23.728C140.026 24.2187 140.25 24.464 140.698 24.464ZM145.254 19.68V26C145.094 26.032 144.923 26.0533 144.742 26.064C144.571 26.0747 144.395 26.08 144.214 26.08C144.032 26.08 143.851 26.0747 143.67 26.064C143.499 26.0533 143.328 26.032 143.158 26V20.432C143.158 19.8453 142.918 19.552 142.438 19.552H142.23C142.166 19.3173 142.134 19.072 142.134 18.816C142.134 18.5813 142.166 18.336 142.23 18.08C142.475 18.0587 142.699 18.0427 142.902 18.032C143.115 18.0107 143.296 18 143.446 18H143.718C144.198 18 144.571 18.1493 144.838 18.448C145.115 18.7467 145.254 19.1573 145.254 19.68ZM142.838 14.976C143.083 14.8373 143.435 14.768 143.894 14.768C144.16 14.768 144.374 14.7893 144.534 14.832C144.704 14.8747 144.827 14.928 144.902 14.992C144.976 15.0453 145.024 15.152 145.046 15.312C145.067 15.472 145.078 15.6373 145.078 15.808C145.046 16.352 144.976 16.6507 144.87 16.704C144.774 16.7573 144.443 16.8107 143.878 16.864C143.28 16.8427 142.928 16.7627 142.822 16.624C142.726 16.4853 142.678 16.2133 142.678 15.808C142.678 15.4987 142.731 15.2213 142.838 14.976ZM150.107 24.368L151.739 18.064C151.952 18.0107 152.235 17.984 152.587 17.984C152.939 17.984 153.269 18.0373 153.579 18.144L153.643 18.24C152.597 21.8773 151.819 24.464 151.307 26C150.837 26.064 150.352 26.096 149.851 26.096C149.36 26.096 149.008 26.0267 148.795 25.888C148.581 25.7387 148.411 25.4507 148.283 25.024L146.219 18.224C146.645 18.0213 147.04 17.92 147.403 17.92C148.032 17.92 148.421 18.2347 148.571 18.864L149.467 22.112C149.584 22.496 149.744 23.2053 149.947 24.24C149.968 24.3253 150.021 24.368 150.107 24.368ZM160.62 22.704H156.204C156.236 23.2907 156.37 23.7547 156.604 24.096C156.85 24.4267 157.271 24.592 157.868 24.592C158.487 24.592 159.196 24.4107 159.996 24.048C160.306 24.368 160.503 24.7893 160.588 25.312C159.735 25.92 158.711 26.224 157.516 26.224C156.386 26.224 155.527 25.8773 154.94 25.184C154.364 24.48 154.076 23.44 154.076 22.064C154.076 21.424 154.151 20.848 154.3 20.336C154.45 19.8133 154.668 19.3707 154.956 19.008C155.244 18.6347 155.596 18.3467 156.012 18.144C156.428 17.9413 156.903 17.84 157.436 17.84C157.98 17.84 158.46 17.9253 158.876 18.096C159.292 18.256 159.644 18.4907 159.932 18.8C160.22 19.0987 160.434 19.456 160.572 19.872C160.722 20.288 160.796 20.7413 160.796 21.232C160.796 21.4987 160.78 21.7547 160.748 22C160.716 22.2347 160.674 22.4693 160.62 22.704ZM157.532 19.344C156.7 19.344 156.252 19.9733 156.188 21.232H158.844V21.04C158.844 20.528 158.738 20.1173 158.524 19.808C158.311 19.4987 157.98 19.344 157.532 19.344ZM162.093 19.024C162.136 18.832 162.221 18.6293 162.349 18.416C162.488 18.2027 162.626 18.0427 162.765 17.936C163.629 18.0427 164.221 18.5227 164.541 19.376C164.946 18.4267 165.624 17.952 166.573 17.952C166.925 17.952 167.245 17.9893 167.533 18.064C167.533 18.8107 167.362 19.4613 167.021 20.016C166.861 19.9627 166.616 19.9253 166.285 19.904C165.666 19.904 165.165 20.2347 164.781 20.896V26C164.461 26.0533 164.114 26.08 163.741 26.08C163.378 26.08 163.026 26.0533 162.685 26V20.672C162.685 19.9147 162.488 19.3653 162.093 19.024ZM175.663 18.256L173.615 25.776C173.263 27.0453 172.815 27.984 172.271 28.592C171.737 29.2 170.932 29.504 169.855 29.504C169.257 29.504 168.676 29.4027 168.111 29.2C168.089 28.9653 168.121 28.6987 168.207 28.4C168.292 28.1013 168.404 27.872 168.543 27.712C169.012 27.8613 169.455 27.936 169.871 27.936C170.692 27.936 171.268 27.392 171.599 26.304L171.663 26.096C171.257 26.0853 170.937 26.0107 170.703 25.872C170.468 25.7333 170.303 25.4987 170.207 25.168L168.223 18.224C168.66 18.0213 169.049 17.92 169.391 17.92C169.732 17.92 169.983 17.9893 170.143 18.128C170.313 18.256 170.447 18.4907 170.543 18.832L171.455 22.208C171.519 22.4533 171.673 23.1947 171.919 24.432C171.929 24.5067 171.977 24.544 172.062 24.544L173.631 18.064C173.876 18 174.185 17.968 174.559 17.968C174.932 17.968 175.273 18.0213 175.583 18.128L175.663 18.256Z" fill="white"/>
<path d="M87.45 48.708L88.22 48.694H91.09C91.118 48.862 91.132 49.0207 91.132 49.17C91.132 49.31 91.118 49.4593 91.09 49.618H88.22C87.8933 49.618 87.6367 49.6133 87.45 49.604V54C87.31 54.028 87.1327 54.042 86.918 54.042C86.7033 54.042 86.526 54.028 86.386 54V44.522L86.47 44.438H91.776C91.8227 44.578 91.846 44.7273 91.846 44.886C91.846 45.2127 91.6267 45.376 91.188 45.376H88.962C88.2247 45.376 87.716 45.3667 87.436 45.348L87.45 47.308V48.708ZM97.3803 53.426C96.8856 53.9207 96.2416 54.168 95.4483 54.168C94.9816 54.168 94.5663 54.0793 94.2023 53.902C93.8476 53.7247 93.5443 53.482 93.2923 53.174C93.0496 52.8567 92.8629 52.4787 92.7323 52.04C92.6109 51.592 92.5503 51.102 92.5503 50.57C92.5503 50.038 92.6109 49.5527 92.7323 49.114C92.8629 48.666 93.0496 48.2833 93.2923 47.966C93.5443 47.6487 93.8476 47.4013 94.2023 47.224C94.5663 47.0467 94.9816 46.958 95.4483 46.958C95.9149 46.958 96.3256 47.0467 96.6803 47.224C97.0443 47.4013 97.3476 47.6487 97.5903 47.966C97.8423 48.2833 98.0336 48.666 98.1643 49.114C98.2949 49.5527 98.3603 50.038 98.3603 50.57C98.3603 51.8207 98.0336 52.7727 97.3803 53.426ZM95.4623 53.356C96.0596 53.356 96.5123 53.104 96.8203 52.6C97.1376 52.0867 97.2963 51.41 97.2963 50.57C97.2963 50.1967 97.2589 49.842 97.1843 49.506C97.1189 49.1607 97.0116 48.862 96.8623 48.61C96.7129 48.3487 96.5216 48.1433 96.2883 47.994C96.0549 47.8447 95.7749 47.77 95.4483 47.77C95.1309 47.77 94.8556 47.8447 94.6223 47.994C94.3983 48.134 94.2116 48.33 94.0623 48.582C93.9129 48.834 93.8009 49.1327 93.7263 49.478C93.6609 49.814 93.6283 50.178 93.6283 50.57C93.6283 50.962 93.6609 51.326 93.7263 51.662C93.8009 51.998 93.9083 52.292 94.0483 52.544C94.1976 52.796 94.3889 52.9967 94.6223 53.146C94.8556 53.286 95.1356 53.356 95.4623 53.356ZM99.936 47.616C100.001 47.3733 100.151 47.1773 100.384 47.028C100.907 47.224 101.243 47.6393 101.392 48.274C101.775 47.4527 102.4 47.042 103.268 47.042C103.464 47.042 103.679 47.0607 103.912 47.098C103.912 47.4993 103.833 47.826 103.674 48.078C103.562 48.0687 103.399 48.064 103.184 48.064C102.428 48.064 101.859 48.4887 101.476 49.338V54C101.336 54.028 101.163 54.042 100.958 54.042C100.753 54.042 100.58 54.028 100.44 54V49.044C100.44 48.4093 100.272 47.9333 99.936 47.616ZM113.366 53.566C113.263 53.8273 113.104 54.0047 112.89 54.098C112.432 53.93 112.143 53.6033 112.022 53.118C111.303 53.818 110.598 54.168 109.908 54.168C109.553 54.168 109.245 54.112 108.984 54C108.722 53.888 108.503 53.7387 108.326 53.552C108.158 53.3653 108.027 53.1507 107.934 52.908C107.85 52.6653 107.808 52.4087 107.808 52.138C107.808 51.7647 107.868 51.438 107.99 51.158C108.12 50.8687 108.293 50.6307 108.508 50.444C108.732 50.2573 108.993 50.1173 109.292 50.024C109.59 49.9307 109.912 49.884 110.258 49.884C110.958 49.884 111.527 49.926 111.966 50.01V49.31C111.966 48.358 111.546 47.882 110.706 47.882C110.062 47.882 109.301 48.0733 108.424 48.456C108.181 48.2413 108.06 47.9707 108.06 47.644C109.068 47.2053 109.982 46.986 110.804 46.986C112.25 46.986 112.974 47.7653 112.974 49.324V52.208C112.964 52.544 112.992 52.824 113.058 53.048C113.132 53.2627 113.235 53.4353 113.366 53.566ZM111.966 52.166V50.766C111.742 50.7287 111.508 50.7053 111.266 50.696C111.023 50.6773 110.766 50.668 110.496 50.668C109.964 50.668 109.558 50.794 109.278 51.046C108.998 51.2887 108.858 51.6107 108.858 52.012C108.858 52.404 108.956 52.7167 109.152 52.95C109.348 53.174 109.614 53.286 109.95 53.286C110.295 53.286 110.645 53.1927 111 53.006C111.364 52.81 111.686 52.53 111.966 52.166ZM116.892 53.202H117.48C117.518 53.286 117.541 53.3793 117.55 53.482C117.569 53.5847 117.578 53.678 117.578 53.762C117.578 53.818 117.574 53.8647 117.564 53.902C117.564 53.93 117.564 53.9533 117.564 53.972C117.415 54 117.27 54.0233 117.13 54.042C116.99 54.0607 116.85 54.07 116.71 54.07C116.328 54.07 116.006 53.986 115.744 53.818C115.483 53.6407 115.352 53.3327 115.352 52.894V43.794L115.436 43.71H115.814C116.038 43.71 116.188 43.766 116.262 43.878C116.337 43.9807 116.374 44.158 116.374 44.41V52.6C116.374 53.0013 116.547 53.202 116.892 53.202ZM120.707 53.202H121.295C121.332 53.286 121.356 53.3793 121.365 53.482C121.384 53.5847 121.393 53.678 121.393 53.762C121.393 53.818 121.388 53.8647 121.379 53.902C121.379 53.93 121.379 53.9533 121.379 53.972C121.23 54 121.085 54.0233 120.945 54.042C120.805 54.0607 120.665 54.07 120.525 54.07C120.142 54.07 119.82 53.986 119.559 53.818C119.298 53.6407 119.167 53.3327 119.167 52.894V43.794L119.251 43.71H119.629C119.853 43.71 120.002 43.766 120.077 43.878C120.152 43.9807 120.189 44.158 120.189 44.41V52.6C120.189 53.0013 120.362 53.202 120.707 53.202ZM130.562 53.426C130.067 53.9207 129.423 54.168 128.63 54.168C128.163 54.168 127.748 54.0793 127.384 53.902C127.029 53.7247 126.726 53.482 126.474 53.174C126.231 52.8567 126.045 52.4787 125.914 52.04C125.793 51.592 125.732 51.102 125.732 50.57C125.732 50.038 125.793 49.5527 125.914 49.114C126.045 48.666 126.231 48.2833 126.474 47.966C126.726 47.6487 127.029 47.4013 127.384 47.224C127.748 47.0467 128.163 46.958 128.63 46.958C129.097 46.958 129.507 47.0467 129.862 47.224C130.226 47.4013 130.529 47.6487 130.772 47.966C131.024 48.2833 131.215 48.666 131.346 49.114C131.477 49.5527 131.542 50.038 131.542 50.57C131.542 51.8207 131.215 52.7727 130.562 53.426ZM128.644 53.356C129.241 53.356 129.694 53.104 130.002 52.6C130.319 52.0867 130.478 51.41 130.478 50.57C130.478 50.1967 130.441 49.842 130.366 49.506C130.301 49.1607 130.193 48.862 130.044 48.61C129.895 48.3487 129.703 48.1433 129.47 47.994C129.237 47.8447 128.957 47.77 128.63 47.77C128.313 47.77 128.037 47.8447 127.804 47.994C127.58 48.134 127.393 48.33 127.244 48.582C127.095 48.834 126.983 49.1327 126.908 49.478C126.843 49.814 126.81 50.178 126.81 50.57C126.81 50.962 126.843 51.326 126.908 51.662C126.983 51.998 127.09 52.292 127.23 52.544C127.379 52.796 127.571 52.9967 127.804 53.146C128.037 53.286 128.317 53.356 128.644 53.356ZM135.596 47.014C136.156 47.014 136.739 47.2053 137.346 47.588V43.794L137.43 43.71H137.808C138.022 43.71 138.167 43.766 138.242 43.878C138.316 43.9807 138.354 44.158 138.354 44.41V52.068C138.354 52.8053 138.484 53.3047 138.746 53.566C138.652 53.818 138.498 53.9953 138.284 54.098C137.854 53.9487 137.57 53.636 137.43 53.16C136.851 53.832 136.17 54.168 135.386 54.168C134.574 54.168 133.967 53.8507 133.566 53.216C133.174 52.5813 132.978 51.6993 132.978 50.57C132.978 50.0007 133.052 49.4967 133.202 49.058C133.351 48.61 133.547 48.2367 133.79 47.938C134.032 47.63 134.308 47.4013 134.616 47.252C134.933 47.0933 135.26 47.014 135.596 47.014ZM135.526 53.272C135.843 53.272 136.165 53.1787 136.492 52.992C136.828 52.796 137.112 52.53 137.346 52.194V48.54C136.73 48.12 136.188 47.91 135.722 47.91C135.246 47.91 134.844 48.1387 134.518 48.596C134.191 49.044 134.028 49.7207 134.028 50.626C134.028 51.5313 134.168 52.1987 134.448 52.628C134.737 53.0573 135.096 53.272 135.526 53.272ZM145.779 50.878H141.439C141.486 52.4647 142.088 53.258 143.245 53.258C143.88 53.258 144.556 53.062 145.275 52.67C145.48 52.8567 145.606 53.0947 145.653 53.384C144.888 53.9067 144.029 54.168 143.077 54.168C142.592 54.168 142.176 54.0793 141.831 53.902C141.486 53.7153 141.201 53.4633 140.977 53.146C140.762 52.8193 140.604 52.4367 140.501 51.998C140.398 51.5593 140.347 51.0787 140.347 50.556C140.347 50.024 140.408 49.5387 140.529 49.1C140.66 48.6613 140.846 48.2833 141.089 47.966C141.332 47.6487 141.621 47.4013 141.957 47.224C142.302 47.0467 142.694 46.958 143.133 46.958C143.562 46.958 143.945 47.0373 144.281 47.196C144.626 47.3453 144.911 47.5553 145.135 47.826C145.368 48.0873 145.546 48.4047 145.667 48.778C145.788 49.142 145.849 49.534 145.849 49.954C145.849 50.122 145.84 50.2853 145.821 50.444C145.812 50.5933 145.798 50.738 145.779 50.878ZM141.439 50.08H144.799V49.898C144.799 49.254 144.664 48.736 144.393 48.344C144.122 47.952 143.716 47.756 143.175 47.756C142.643 47.756 142.228 47.966 141.929 48.386C141.64 48.806 141.476 49.3707 141.439 50.08ZM147.514 47.616C147.579 47.3733 147.729 47.1773 147.962 47.028C148.485 47.224 148.821 47.6393 148.97 48.274C149.353 47.4527 149.978 47.042 150.846 47.042C151.042 47.042 151.257 47.0607 151.49 47.098C151.49 47.4993 151.411 47.826 151.252 48.078C151.14 48.0687 150.977 48.064 150.762 48.064C150.006 48.064 149.437 48.4887 149.054 49.338V54C148.914 54.028 148.741 54.042 148.536 54.042C148.331 54.042 148.158 54.028 148.018 54V49.044C148.018 48.4093 147.85 47.9333 147.514 47.616ZM152.114 53.468C152.123 53.1787 152.258 52.9267 152.52 52.712C152.94 52.9547 153.313 53.1227 153.64 53.216C153.976 53.3093 154.279 53.356 154.55 53.356C154.783 53.356 154.984 53.328 155.152 53.272C155.329 53.2067 155.478 53.1273 155.6 53.034C155.721 52.9313 155.814 52.8193 155.88 52.698C155.945 52.5767 155.982 52.4553 155.992 52.334C155.992 52.054 155.903 51.8207 155.726 51.634C155.558 51.438 155.306 51.2747 154.97 51.144L154.186 50.836C153.588 50.6027 153.14 50.332 152.842 50.024C152.543 49.7067 152.394 49.3287 152.394 48.89C152.394 48.6007 152.454 48.3393 152.576 48.106C152.697 47.8633 152.865 47.658 153.08 47.49C153.294 47.322 153.546 47.1913 153.836 47.098C154.125 47.0047 154.442 46.958 154.788 46.958C155.478 46.958 156.169 47.112 156.86 47.42C156.86 47.7467 156.752 48.0173 156.538 48.232C156.183 48.0733 155.856 47.9613 155.558 47.896C155.268 47.8307 155.002 47.798 154.76 47.798C154.33 47.798 154.004 47.896 153.78 48.092C153.565 48.288 153.458 48.512 153.458 48.764C153.458 49.0347 153.542 49.2493 153.71 49.408C153.878 49.5573 154.144 49.702 154.508 49.842L155.334 50.164C156.491 50.6213 157.07 51.298 157.07 52.194C157.07 52.8193 156.832 53.3047 156.356 53.65C155.88 53.9953 155.236 54.168 154.424 54.168C153.63 54.168 152.86 53.9347 152.114 53.468ZM166.3 53.426C165.806 53.9207 165.162 54.168 164.368 54.168C163.902 54.168 163.486 54.0793 163.122 53.902C162.768 53.7247 162.464 53.482 162.212 53.174C161.97 52.8567 161.783 52.4787 161.652 52.04C161.531 51.592 161.47 51.102 161.47 50.57C161.47 50.038 161.531 49.5527 161.652 49.114C161.783 48.666 161.97 48.2833 162.212 47.966C162.464 47.6487 162.768 47.4013 163.122 47.224C163.486 47.0467 163.902 46.958 164.368 46.958C164.835 46.958 165.246 47.0467 165.6 47.224C165.964 47.4013 166.268 47.6487 166.51 47.966C166.762 48.2833 166.954 48.666 167.084 49.114C167.215 49.5527 167.28 50.038 167.28 50.57C167.28 51.8207 166.954 52.7727 166.3 53.426ZM164.382 53.356C164.98 53.356 165.432 53.104 165.74 52.6C166.058 52.0867 166.216 51.41 166.216 50.57C166.216 50.1967 166.179 49.842 166.104 49.506C166.039 49.1607 165.932 48.862 165.782 48.61C165.633 48.3487 165.442 48.1433 165.208 47.994C164.975 47.8447 164.695 47.77 164.368 47.77C164.051 47.77 163.776 47.8447 163.542 47.994C163.318 48.134 163.132 48.33 162.982 48.582C162.833 48.834 162.721 49.1327 162.646 49.478C162.581 49.814 162.548 50.178 162.548 50.57C162.548 50.962 162.581 51.326 162.646 51.662C162.721 51.998 162.828 52.292 162.968 52.544C163.118 52.796 163.309 52.9967 163.542 53.146C163.776 53.286 164.056 53.356 164.382 53.356ZM171.044 53.104L172.92 47.126C173.069 47.0887 173.205 47.07 173.326 47.07C173.457 47.07 173.634 47.098 173.858 47.154L173.886 47.196C173.027 49.8653 172.262 52.1333 171.59 54C171.403 54.0467 171.179 54.07 170.918 54.07C170.657 54.07 170.475 54.0327 170.372 53.958C170.279 53.874 170.181 53.6873 170.078 53.398L167.992 47.21C168.235 47.0887 168.445 47.028 168.622 47.028C168.893 47.028 169.065 47.1633 169.14 47.434L170.26 50.766C170.54 51.6433 170.759 52.3853 170.918 52.992C170.937 53.0667 170.979 53.104 171.044 53.104ZM179.973 50.878H175.633C175.679 52.4647 176.281 53.258 177.439 53.258C178.073 53.258 178.75 53.062 179.469 52.67C179.674 52.8567 179.8 53.0947 179.847 53.384C179.081 53.9067 178.223 54.168 177.271 54.168C176.785 54.168 176.37 54.0793 176.025 53.902C175.679 53.7153 175.395 53.4633 175.171 53.146C174.956 52.8193 174.797 52.4367 174.695 51.998C174.592 51.5593 174.541 51.0787 174.541 50.556C174.541 50.024 174.601 49.5387 174.723 49.1C174.853 48.6613 175.04 48.2833 175.283 47.966C175.525 47.6487 175.815 47.4013 176.151 47.224C176.496 47.0467 176.888 46.958 177.327 46.958C177.756 46.958 178.139 47.0373 178.475 47.196C178.82 47.3453 179.105 47.5553 179.329 47.826C179.562 48.0873 179.739 48.4047 179.861 48.778C179.982 49.142 180.043 49.534 180.043 49.954C180.043 50.122 180.033 50.2853 180.015 50.444C180.005 50.5933 179.991 50.738 179.973 50.878ZM175.633 50.08H178.993V49.898C178.993 49.254 178.857 48.736 178.587 48.344C178.316 47.952 177.91 47.756 177.369 47.756C176.837 47.756 176.421 47.966 176.123 48.386C175.833 48.806 175.67 49.3707 175.633 50.08ZM181.708 47.616C181.773 47.3733 181.922 47.1773 182.156 47.028C182.678 47.224 183.014 47.6393 183.164 48.274C183.546 47.4527 184.172 47.042 185.04 47.042C185.236 47.042 185.45 47.0607 185.684 47.098C185.684 47.4993 185.604 47.826 185.446 48.078C185.334 48.0687 185.17 48.064 184.956 48.064C184.2 48.064 183.63 48.4887 183.248 49.338V54C183.108 54.028 182.935 54.042 182.73 54.042C182.524 54.042 182.352 54.028 182.212 54V49.044C182.212 48.4093 182.044 47.9333 181.708 47.616ZM189.411 52.586C189.421 52.25 189.57 51.97 189.859 51.746C190.765 52.278 191.619 52.544 192.421 52.544C192.897 52.544 193.285 52.446 193.583 52.25C193.891 52.054 194.045 51.774 194.045 51.41C194.045 51.1113 193.943 50.85 193.737 50.626C193.541 50.3927 193.233 50.2013 192.813 50.052L191.371 49.534C190.279 49.142 189.733 48.5027 189.733 47.616C189.733 47.084 189.906 46.6313 190.251 46.258C190.606 45.8847 191.105 45.6513 191.749 45.558V44.382C191.796 44.3633 191.861 44.354 191.945 44.354C192.029 44.3447 192.113 44.34 192.197 44.34C192.403 44.34 192.561 44.354 192.673 44.382V45.53C193.392 45.5767 194.115 45.7727 194.843 46.118C194.843 46.4727 194.713 46.7527 194.451 46.958C193.714 46.6033 192.995 46.426 192.295 46.426C191.838 46.426 191.469 46.524 191.189 46.72C190.919 46.916 190.783 47.168 190.783 47.476C190.783 47.784 190.872 48.0173 191.049 48.176C191.227 48.3253 191.516 48.47 191.917 48.61L193.317 49.114C193.849 49.3007 194.283 49.5807 194.619 49.954C194.955 50.318 195.123 50.7847 195.123 51.354C195.123 51.634 195.067 51.9 194.955 52.152C194.843 52.3947 194.68 52.614 194.465 52.81C194.251 52.9967 193.985 53.1507 193.667 53.272C193.359 53.384 193.009 53.4447 192.617 53.454V54.532C192.543 54.5507 192.463 54.56 192.379 54.56C192.305 54.56 192.225 54.56 192.141 54.56C192.067 54.56 191.987 54.56 191.903 54.56C191.829 54.56 191.759 54.5507 191.693 54.532V53.412C190.807 53.3 190.046 53.0247 189.411 52.586ZM201.341 45.572L201.551 45.824C201.654 45.9547 201.761 46.1413 201.873 46.384C201.985 46.6267 202.074 46.9113 202.139 47.238C202.214 47.5647 202.27 47.9287 202.307 48.33C202.345 48.722 202.363 49.1373 202.363 49.576C202.363 50.2853 202.289 50.9247 202.139 51.494C201.99 52.0633 201.766 52.5487 201.467 52.95C201.178 53.342 200.814 53.6453 200.375 53.86C199.946 54.0653 199.447 54.168 198.877 54.168C198.084 54.168 197.459 54.028 197.001 53.748C197.048 53.384 197.188 53.1273 197.421 52.978C197.897 53.1927 198.373 53.3 198.849 53.3C199.251 53.3 199.601 53.2207 199.899 53.062C200.198 52.894 200.445 52.6653 200.641 52.376C200.847 52.0773 200.996 51.732 201.089 51.34C201.192 50.9387 201.248 50.5 201.257 50.024C200.632 50.6493 199.913 50.962 199.101 50.962C198.28 50.962 197.641 50.71 197.183 50.206C196.735 49.6927 196.511 48.9553 196.511 47.994C196.511 47.518 196.581 47.084 196.721 46.692C196.861 46.2907 197.053 45.95 197.295 45.67C197.547 45.3807 197.846 45.1567 198.191 44.998C198.546 44.8393 198.933 44.76 199.353 44.76C200.193 44.76 200.856 45.0307 201.341 45.572ZM199.325 50.038C199.652 50.038 199.993 49.9493 200.347 49.772C200.702 49.5947 201.005 49.352 201.257 49.044V48.806C201.257 48.3207 201.215 47.882 201.131 47.49C201.057 47.098 200.935 46.762 200.767 46.482C200.609 46.202 200.408 45.9873 200.165 45.838C199.923 45.6887 199.643 45.614 199.325 45.614C198.812 45.614 198.397 45.8147 198.079 46.216C197.771 46.6173 197.617 47.168 197.617 47.868C197.617 49.3147 198.187 50.038 199.325 50.038ZM208.765 45.572L208.975 45.824C209.078 45.9547 209.185 46.1413 209.297 46.384C209.409 46.6267 209.498 46.9113 209.563 47.238C209.638 47.5647 209.694 47.9287 209.731 48.33C209.768 48.722 209.787 49.1373 209.787 49.576C209.787 50.2853 209.712 50.9247 209.563 51.494C209.414 52.0633 209.19 52.5487 208.891 52.95C208.602 53.342 208.238 53.6453 207.799 53.86C207.37 54.0653 206.87 54.168 206.301 54.168C205.508 54.168 204.882 54.028 204.425 53.748C204.472 53.384 204.612 53.1273 204.845 52.978C205.321 53.1927 205.797 53.3 206.273 53.3C206.674 53.3 207.024 53.2207 207.323 53.062C207.622 52.894 207.869 52.6653 208.065 52.376C208.27 52.0773 208.42 51.732 208.513 51.34C208.616 50.9387 208.672 50.5 208.681 50.024C208.056 50.6493 207.337 50.962 206.525 50.962C205.704 50.962 205.064 50.71 204.607 50.206C204.159 49.6927 203.935 48.9553 203.935 47.994C203.935 47.518 204.005 47.084 204.145 46.692C204.285 46.2907 204.476 45.95 204.719 45.67C204.971 45.3807 205.27 45.1567 205.615 44.998C205.97 44.8393 206.357 44.76 206.777 44.76C207.617 44.76 208.28 45.0307 208.765 45.572ZM206.749 50.038C207.076 50.038 207.416 49.9493 207.771 49.772C208.126 49.5947 208.429 49.352 208.681 49.044V48.806C208.681 48.3207 208.639 47.882 208.555 47.49C208.48 47.098 208.359 46.762 208.191 46.482C208.032 46.202 207.832 45.9873 207.589 45.838C207.346 45.6887 207.066 45.614 206.749 45.614C206.236 45.614 205.82 45.8147 205.503 46.216C205.195 46.6173 205.041 47.168 205.041 47.868C205.041 49.3147 205.61 50.038 206.749 50.038Z" fill="white" fill-opacity="0.8"/>
</g>
</g>
<defs>
<clipPath id="clip0_127_996">
<rect width="297" height="72" fill="white"/>
</clipPath>
<clipPath id="clip1_127_996">
<rect width="54" height="54" fill="white" transform="translate(1 9)"/>
</clipPath>
<clipPath id="clip2_127_996">
<rect width="246" height="70" fill="white" transform="translate(86 1)"/>
</clipPath>
</defs>
</svg>
