<svg width="297" height="72" viewBox="0 0 297 72" fill="none" xmlns="http://www.w3.org/2000/svg">
<g clip-path="url(#clip0_127_1041)">
<path d="M1 15.305C1.03 15.2187 1.06625 15.135 1.09125 15.0475C1.53375 13.4975 2.71625 12.5962 4.33125 12.595C15.9704 12.595 27.6096 12.595 39.2487 12.595C41.2587 12.595 42.61 13.9612 42.6125 15.995C42.6175 20.8766 42.6175 25.7579 42.6125 30.6387C42.6213 30.7636 42.6213 30.8889 42.6125 31.0137C42.5637 31.3487 42.7 31.485 43.0375 31.5225C43.905 31.6187 44.7675 31.7725 45.6362 31.8562C46.665 31.9587 47.4075 32.6625 47.4038 33.68C47.3913 36.8912 47.5125 40.1137 47.29 43.3112C46.735 51.3025 41.3862 55.9012 35.1512 57.2325C34.535 57.3575 33.8112 57.215 33.1838 57.0362C28.5875 55.72 25.1175 53.0425 23.1688 48.5925C22.2825 46.5687 21.9038 44.4275 21.8213 42.23C21.81 41.9537 21.8213 41.6762 21.8213 41.3425H21.2188C15.7975 41.3425 10.3762 41.3062 4.955 41.3625C3.0975 41.3825 1.645 40.8475 1.00375 38.705L1 15.305ZM23.4062 38.1662H23.3275C23.4125 40.0962 23.38 42.0412 23.6038 43.9512C24.2938 49.8512 28.1762 54.1675 33.96 55.6025C34.2425 55.6725 34.5612 55.75 34.835 55.6875C38.8825 54.7537 42.0775 52.6312 44.085 48.9275C45.3825 46.54 45.8025 43.94 45.81 41.2575C45.8175 39.0275 45.8175 36.7975 45.81 34.5675C45.81 33.1925 45.96 33.5162 44.6975 33.3862C40.9 32.9937 37.5725 31.6362 34.9287 28.8012C34.6912 28.5512 34.5337 28.5512 34.2837 28.8012C33.7891 29.3204 33.2631 29.8088 32.7087 30.2637C30.1325 32.2937 27.1462 33.2212 23.9125 33.4362C23.4937 33.465 23.3938 33.6162 23.3988 34.005C23.4175 35.39 23.4062 36.7787 23.4062 38.1662ZM21.8088 39.75V39.1787C21.8088 37.385 21.8088 35.5925 21.8088 33.8037C21.8088 32.6787 22.4938 31.9587 23.6025 31.8687C24.1625 31.8237 24.7275 31.775 25.2787 31.6912C28.25 31.2437 30.9038 30.11 32.9575 27.8675C33.8162 26.9287 35.1688 26.6175 36.255 27.8762C37.1738 28.935 38.325 29.7225 39.5788 30.3487C40.0262 30.5725 40.4975 30.7475 40.9775 30.9525V24.6062H2.6025V37.7775C2.6025 39.1762 3.165 39.745 4.55 39.745H21.8088V39.75ZM40.9875 19.0175H2.63375V22.9437H40.9875V19.0175ZM2.6 17.3537H41.0137V16.17C41.0137 14.765 40.4325 14.1887 39.0137 14.1887H4.57375C4.4175 14.1887 4.26125 14.1825 4.105 14.1887C3.71088 14.2119 3.33935 14.3803 3.06227 14.6616C2.7852 14.9428 2.62227 15.3168 2.605 15.7112C2.58125 16.25 2.6 16.7737 2.6 17.3537Z" fill="white"/>
<path d="M32.0938 47.3036C32.225 47.1261 32.3363 46.9787 32.4425 46.8287C34.7308 43.6345 37.0175 40.4416 39.3025 37.2499C39.3575 37.1736 39.41 37.0974 39.4663 37.0224C39.82 36.5511 40.275 36.4486 40.6725 36.7474C41.0475 37.0261 41.09 37.4974 40.7638 37.9499C39.0971 40.2832 37.4304 42.6166 35.7638 44.9499C34.8471 46.2299 33.9304 47.5099 33.0138 48.7899C32.5138 49.4849 32.0575 49.5199 31.4475 48.9149C30.4638 47.9349 29.4788 46.9562 28.5038 45.9686C28.1525 45.6137 28.1213 45.2124 28.3913 44.8762C28.4982 44.7285 28.6547 44.6243 28.8322 44.5828C29.0097 44.5412 29.1962 44.565 29.3575 44.6499C29.5209 44.7405 29.6666 44.8599 29.7875 45.0024C30.5475 45.7499 31.305 46.5149 32.0938 47.3036Z" fill="white"/>
<path d="M9.81886 31.7701C11.348 31.7701 12.8768 31.7701 14.4051 31.7701C15.0301 31.7701 15.4051 32.0738 15.3976 32.5688C15.3901 33.0638 15.0226 33.3626 14.3976 33.3638C11.3234 33.3638 8.2497 33.3638 5.17636 33.3638C4.41761 33.3638 3.94386 32.7301 4.33011 32.1926C4.43189 32.0743 4.55634 31.9776 4.69611 31.9083C4.83588 31.8389 4.98813 31.7983 5.14386 31.7888C6.69761 31.7501 8.25886 31.7701 9.81886 31.7701Z" fill="white"/>
<path d="M8.20623 36.5537C7.19123 36.5537 6.17623 36.5537 5.16248 36.5537C4.57498 36.5537 4.20373 36.2424 4.19998 35.7649C4.19623 35.2874 4.57498 34.9637 5.14873 34.9624C7.17873 34.9624 9.20831 34.9624 11.2375 34.9624C11.8362 34.9624 12.1862 35.2612 12.1887 35.7524C12.1912 36.2437 11.8437 36.5512 11.25 36.5537C10.235 36.5574 9.21998 36.5537 8.20623 36.5537Z" fill="white"/>
<g clip-path="url(#clip1_127_1041)">
<path d="M85.352 25.04C85.384 24.7413 85.48 24.4427 85.64 24.144C85.8107 23.8347 86.0027 23.5893 86.216 23.408C87.3147 24.112 88.392 24.464 89.448 24.464C89.96 24.464 90.3653 24.3467 90.664 24.112C90.9627 23.8667 91.112 23.5627 91.112 23.2C91.0907 22.5813 90.68 22.096 89.88 21.744L87.992 20.944C87.2453 20.6347 86.6853 20.24 86.312 19.76C85.9387 19.2693 85.752 18.7093 85.752 18.08C85.752 17.6 85.8427 17.1627 86.024 16.768C86.216 16.3733 86.4827 16.0373 86.824 15.76C87.176 15.472 87.5867 15.248 88.056 15.088C88.536 14.928 89.064 14.848 89.64 14.848C90.8133 14.848 91.9653 15.1413 93.096 15.728C93.064 16.3787 92.8133 16.9227 92.344 17.36C91.2667 16.848 90.328 16.592 89.528 16.592C89.016 16.592 88.6213 16.7093 88.344 16.944C88.0773 17.1787 87.944 17.4667 87.944 17.808C87.944 18.2987 88.3227 18.704 89.08 19.024L90.968 19.824C91.736 20.144 92.328 20.5653 92.744 21.088C93.16 21.6107 93.368 22.2133 93.368 22.896C93.368 23.376 93.2827 23.824 93.112 24.24C92.9413 24.6453 92.68 24.9973 92.328 25.296C91.9867 25.584 91.5547 25.8133 91.032 25.984C90.52 26.144 89.912 26.224 89.208 26.224C87.8427 26.224 86.5573 25.8293 85.352 25.04ZM101.459 25.04C101.405 25.232 101.309 25.4347 101.171 25.648C101.032 25.8613 100.893 26.0213 100.755 26.128C100.061 26.0427 99.5546 25.7387 99.2346 25.216C98.5413 25.888 97.784 26.224 96.9626 26.224C96.5466 26.224 96.1786 26.1547 95.8586 26.016C95.5493 25.888 95.288 25.712 95.0746 25.488C94.872 25.264 94.7173 25.008 94.6106 24.72C94.5146 24.432 94.4666 24.1333 94.4666 23.824C94.4666 23.376 94.5413 22.9867 94.6906 22.656C94.8506 22.3147 95.0693 22.032 95.3466 21.808C95.6346 21.584 95.9653 21.4133 96.3386 21.296C96.7226 21.1787 97.1386 21.12 97.5866 21.12C98.1626 21.12 98.6106 21.136 98.9306 21.168V20.736C98.9306 19.9253 98.536 19.52 97.7466 19.52C97.2133 19.52 96.4026 19.7067 95.3146 20.08C95.016 19.7493 94.8346 19.2533 94.7706 18.592C95.9013 18.112 97.0693 17.872 98.2746 17.872C99.0746 17.872 99.7306 18.096 100.243 18.544C100.755 18.992 101.011 19.6693 101.011 20.576V23.856C101.011 24.4213 101.16 24.816 101.459 25.04ZM97.4266 24.64C97.96 24.64 98.4613 24.4053 98.9306 23.936V22.544C98.76 22.5333 98.5946 22.5227 98.4346 22.512C98.2746 22.5013 98.12 22.496 97.9706 22.496C97.5013 22.496 97.144 22.5867 96.8986 22.768C96.6533 22.9387 96.5306 23.2267 96.5306 23.632C96.5306 23.952 96.6106 24.2027 96.7706 24.384C96.9306 24.5547 97.1493 24.64 97.4266 24.64ZM103.551 26V19.536L102.175 19.552C102.143 19.424 102.122 19.296 102.111 19.168C102.1 19.04 102.095 18.9173 102.095 18.8C102.095 18.6827 102.1 18.5653 102.111 18.448C102.122 18.32 102.143 18.1867 102.175 18.048L103.455 18.064C103.391 17.5093 103.359 17.0933 103.359 16.816C103.359 16.432 103.423 16.08 103.551 15.76C103.679 15.4293 103.86 15.1467 104.095 14.912C104.33 14.6773 104.602 14.496 104.911 14.368C105.231 14.2293 105.578 14.16 105.951 14.16C106.708 14.16 107.476 14.2987 108.255 14.576C108.255 15.1627 108.1 15.6267 107.791 15.968C107.194 15.8187 106.756 15.744 106.479 15.744C105.732 15.744 105.359 16.1493 105.359 16.96C105.359 17.3227 105.391 17.696 105.455 18.08L107.631 18.048C107.652 18.1867 107.668 18.32 107.679 18.448C107.7 18.5653 107.711 18.6827 107.711 18.8C107.711 18.9173 107.7 19.04 107.679 19.168C107.668 19.296 107.652 19.424 107.631 19.552L105.599 19.52V26C105.418 26.032 105.242 26.0533 105.071 26.064C104.911 26.0747 104.746 26.08 104.575 26.08C104.404 26.08 104.234 26.0747 104.063 26.064C103.903 26.0533 103.732 26.032 103.551 26ZM114.605 22.704H110.189C110.221 23.2907 110.354 23.7547 110.589 24.096C110.834 24.4267 111.255 24.592 111.853 24.592C112.471 24.592 113.181 24.4107 113.981 24.048C114.29 24.368 114.487 24.7893 114.573 25.312C113.719 25.92 112.695 26.224 111.501 26.224C110.37 26.224 109.511 25.8773 108.925 25.184C108.349 24.48 108.061 23.44 108.061 22.064C108.061 21.424 108.135 20.848 108.285 20.336C108.434 19.8133 108.653 19.3707 108.941 19.008C109.229 18.6347 109.581 18.3467 109.997 18.144C110.413 17.9413 110.887 17.84 111.421 17.84C111.965 17.84 112.445 17.9253 112.861 18.096C113.277 18.256 113.629 18.4907 113.917 18.8C114.205 19.0987 114.418 19.456 114.557 19.872C114.706 20.288 114.781 20.7413 114.781 21.232C114.781 21.4987 114.765 21.7547 114.733 22C114.701 22.2347 114.658 22.4693 114.605 22.704ZM111.517 19.344C110.685 19.344 110.237 19.9733 110.173 21.232H112.829V21.04C112.829 20.528 112.722 20.1173 112.509 19.808C112.295 19.4987 111.965 19.344 111.517 19.344ZM123.897 22.368H122.425V26C122.126 26.0533 121.769 26.08 121.353 26.08C120.937 26.08 120.58 26.0533 120.281 26V15.152L120.393 15.056C121.257 15.0347 121.977 15.0187 122.553 15.008C123.14 14.9973 123.588 14.992 123.897 14.992C125.049 14.992 125.966 15.3067 126.649 15.936C127.342 16.5653 127.689 17.4773 127.689 18.672C127.689 19.2693 127.598 19.7973 127.417 20.256C127.236 20.7147 126.98 21.0987 126.649 21.408C126.318 21.7173 125.918 21.9573 125.449 22.128C124.99 22.288 124.473 22.368 123.897 22.368ZM122.425 16.656V20.736C122.841 20.7253 123.193 20.72 123.481 20.72C123.78 20.72 124.03 20.704 124.233 20.672C124.446 20.6293 124.622 20.56 124.761 20.464C124.91 20.3573 125.044 20.2027 125.161 20C125.268 19.8187 125.348 19.616 125.401 19.392C125.454 19.1573 125.481 18.9227 125.481 18.688C125.481 18.4427 125.454 18.2027 125.401 17.968C125.348 17.7227 125.257 17.504 125.129 17.312C125.001 17.12 124.83 16.9653 124.617 16.848C124.404 16.7307 124.137 16.672 123.817 16.672C123.508 16.672 123.236 16.672 123.001 16.672C122.777 16.672 122.585 16.6667 122.425 16.656ZM135.443 25.04C135.39 25.232 135.294 25.4347 135.155 25.648C135.016 25.8613 134.878 26.0213 134.739 26.128C134.046 26.0427 133.539 25.7387 133.219 25.216C132.526 25.888 131.768 26.224 130.947 26.224C130.531 26.224 130.163 26.1547 129.843 26.016C129.534 25.888 129.272 25.712 129.059 25.488C128.856 25.264 128.702 25.008 128.595 24.72C128.499 24.432 128.451 24.1333 128.451 23.824C128.451 23.376 128.526 22.9867 128.675 22.656C128.835 22.3147 129.054 22.032 129.331 21.808C129.619 21.584 129.95 21.4133 130.323 21.296C130.707 21.1787 131.123 21.12 131.571 21.12C132.147 21.12 132.595 21.136 132.915 21.168V20.736C132.915 19.9253 132.52 19.52 131.731 19.52C131.198 19.52 130.387 19.7067 129.299 20.08C129 19.7493 128.819 19.2533 128.755 18.592C129.886 18.112 131.054 17.872 132.259 17.872C133.059 17.872 133.715 18.096 134.227 18.544C134.739 18.992 134.995 19.6693 134.995 20.576V23.856C134.995 24.4213 135.144 24.816 135.443 25.04ZM131.411 24.64C131.944 24.64 132.446 24.4053 132.915 23.936V22.544C132.744 22.5333 132.579 22.5227 132.419 22.512C132.259 22.5013 132.104 22.496 131.955 22.496C131.486 22.496 131.128 22.5867 130.883 22.768C130.638 22.9387 130.515 23.2267 130.515 23.632C130.515 23.952 130.595 24.2027 130.755 24.384C130.915 24.5547 131.134 24.64 131.411 24.64ZM143.444 18.256L141.396 25.776C141.044 27.0453 140.596 27.984 140.052 28.592C139.518 29.2 138.713 29.504 137.636 29.504C137.038 29.504 136.457 29.4027 135.892 29.2C135.87 28.9653 135.902 28.6987 135.988 28.4C136.073 28.1013 136.185 27.872 136.324 27.712C136.793 27.8613 137.236 27.936 137.652 27.936C138.473 27.936 139.049 27.392 139.38 26.304L139.444 26.096C139.038 26.0853 138.718 26.0107 138.484 25.872C138.249 25.7333 138.084 25.4987 137.988 25.168L136.004 18.224C136.441 18.0213 136.83 17.92 137.172 17.92C137.513 17.92 137.764 17.9893 137.924 18.128C138.094 18.256 138.228 18.4907 138.324 18.832L139.236 22.208C139.3 22.4533 139.454 23.1947 139.7 24.432C139.71 24.5067 139.758 24.544 139.844 24.544L141.412 18.064C141.657 18 141.966 17.968 142.34 17.968C142.713 17.968 143.054 18.0213 143.364 18.128L143.444 18.256ZM148.986 21.088C148.986 20.224 148.709 19.792 148.154 19.792C147.695 19.8133 147.231 20.064 146.762 20.544V26C146.442 26.0533 146.095 26.08 145.722 26.08C145.349 26.08 145.002 26.0533 144.682 26V18.08L144.778 17.968H145.562C146.191 17.968 146.575 18.2987 146.714 18.96C147.461 18.2667 148.202 17.92 148.938 17.92C149.813 17.92 150.431 18.304 150.794 19.072C151.615 18.304 152.447 17.92 153.29 17.92C153.973 17.92 154.49 18.1547 154.842 18.624C155.205 19.0827 155.386 19.6853 155.386 20.432V24.144C155.386 24.8267 155.498 25.3333 155.722 25.664C155.349 25.9627 154.933 26.112 154.474 26.112C154.026 26.112 153.717 26.0053 153.546 25.792C153.375 25.5787 153.29 25.2533 153.29 24.816V21.072C153.29 20.2187 153.007 19.792 152.442 19.792C152.015 19.792 151.557 20.048 151.066 20.56V26C150.746 26.0533 150.399 26.08 150.026 26.08C149.653 26.08 149.306 26.0533 148.986 26V21.088ZM163.558 22.704H159.142C159.174 23.2907 159.307 23.7547 159.542 24.096C159.787 24.4267 160.209 24.592 160.806 24.592C161.425 24.592 162.134 24.4107 162.934 24.048C163.243 24.368 163.441 24.7893 163.526 25.312C162.673 25.92 161.649 26.224 160.454 26.224C159.323 26.224 158.465 25.8773 157.878 25.184C157.302 24.48 157.014 23.44 157.014 22.064C157.014 21.424 157.089 20.848 157.238 20.336C157.387 19.8133 157.606 19.3707 157.894 19.008C158.182 18.6347 158.534 18.3467 158.95 18.144C159.366 17.9413 159.841 17.84 160.374 17.84C160.918 17.84 161.398 17.9253 161.814 18.096C162.23 18.256 162.582 18.4907 162.87 18.8C163.158 19.0987 163.371 19.456 163.51 19.872C163.659 20.288 163.734 20.7413 163.734 21.232C163.734 21.4987 163.718 21.7547 163.686 22C163.654 22.2347 163.611 22.4693 163.558 22.704ZM160.47 19.344C159.638 19.344 159.19 19.9733 159.126 21.232H161.782V21.04C161.782 20.528 161.675 20.1173 161.462 19.808C161.249 19.4987 160.918 19.344 160.47 19.344ZM172.087 20.656V24.144C172.087 24.8267 172.199 25.3333 172.423 25.664C172.081 25.9627 171.671 26.112 171.191 26.112C170.732 26.112 170.417 26.0107 170.247 25.808C170.076 25.5947 169.991 25.264 169.991 24.816V21.088C169.991 20.608 169.932 20.272 169.815 20.08C169.697 19.888 169.479 19.792 169.159 19.792C168.593 19.792 168.065 20.048 167.575 20.56V26C167.415 26.032 167.244 26.0533 167.063 26.064C166.892 26.0747 166.716 26.08 166.535 26.08C166.353 26.08 166.172 26.0747 165.991 26.064C165.82 26.0533 165.655 26.032 165.495 26V18.08L165.591 17.968H166.391C166.988 17.968 167.361 18.288 167.511 18.928C168.289 18.256 169.063 17.92 169.831 17.92C170.599 17.92 171.164 18.1707 171.527 18.672C171.9 19.1627 172.087 19.824 172.087 20.656ZM178.517 18.048C178.581 18.304 178.613 18.5547 178.613 18.8C178.613 19.0453 178.581 19.296 178.517 19.552L176.581 19.52V23.728C176.581 24.2187 176.81 24.464 177.269 24.464H178.261C178.368 24.784 178.421 25.088 178.421 25.376C178.421 25.664 178.405 25.8507 178.373 25.936C177.722 26.032 177.082 26.08 176.453 26.08C175.173 26.08 174.533 25.4293 174.533 24.128V19.536L173.317 19.552C173.264 19.3387 173.237 19.088 173.237 18.8C173.237 18.512 173.264 18.2613 173.317 18.048L174.533 18.064V16.912C174.533 16.4427 174.618 16.112 174.789 15.92C174.96 15.728 175.253 15.632 175.669 15.632H176.469L176.581 15.728V18.08L178.517 18.048Z" fill="white"/>
<path d="M88.584 53.118L88.57 52.236V48.288C88.57 48.2787 88.584 47.7 88.612 46.552C88.0893 47.2613 87.3893 47.8027 86.512 48.176C86.2693 48.0173 86.1153 47.8027 86.05 47.532C86.6847 47.1493 87.226 46.72 87.674 46.244C88.1313 45.768 88.444 45.3293 88.612 44.928C88.7613 44.8907 88.9247 44.872 89.102 44.872C89.2887 44.872 89.4567 44.8907 89.606 44.928V52.236L89.592 53.118L90.348 53.104H91.426C91.454 53.2627 91.468 53.4167 91.468 53.566C91.468 53.706 91.454 53.8507 91.426 54H86.47C86.442 53.8507 86.428 53.7013 86.428 53.552C86.428 53.4027 86.442 53.2533 86.47 53.104H87.828L88.584 53.118ZM94.2298 45.516C94.7152 45.012 95.3452 44.76 96.1198 44.76C97.1278 44.76 97.8698 45.1427 98.3458 45.908C98.8312 46.6733 99.0738 47.8633 99.0738 49.478C99.0738 51.0367 98.8405 52.208 98.3738 52.992C97.9165 53.776 97.1698 54.168 96.1338 54.168C95.1258 54.168 94.3792 53.776 93.8938 52.992C93.4085 52.208 93.1752 51.032 93.1938 49.464C93.1938 48.96 93.2078 48.512 93.2358 48.12C93.2732 47.7187 93.3292 47.3593 93.4038 47.042C93.4878 46.7247 93.5952 46.4447 93.7258 46.202C93.8658 45.95 94.0338 45.7213 94.2298 45.516ZM94.9998 52.838C95.2892 53.1553 95.6672 53.314 96.1338 53.314C96.4418 53.314 96.7078 53.2487 96.9318 53.118C97.1652 52.978 97.3565 52.754 97.5058 52.446C97.6552 52.138 97.7672 51.7413 97.8418 51.256C97.9165 50.7613 97.9538 50.164 97.9538 49.464C97.9538 48.764 97.9165 48.1713 97.8418 47.686C97.7672 47.1913 97.6552 46.79 97.5058 46.482C97.3565 46.174 97.1652 45.9547 96.9318 45.824C96.7078 45.684 96.4418 45.614 96.1338 45.614C95.8165 45.614 95.5412 45.684 95.3078 45.824C95.0838 45.9547 94.8972 46.174 94.7478 46.482C94.5985 46.79 94.4865 47.1913 94.4118 47.686C94.3465 48.1713 94.3138 48.764 94.3138 49.464C94.3138 51.1907 94.5425 52.3153 94.9998 52.838ZM101.654 45.516C102.139 45.012 102.769 44.76 103.544 44.76C104.552 44.76 105.294 45.1427 105.77 45.908C106.255 46.6733 106.498 47.8633 106.498 49.478C106.498 51.0367 106.264 52.208 105.798 52.992C105.34 53.776 104.594 54.168 103.558 54.168C102.55 54.168 101.803 53.776 101.318 52.992C100.832 52.208 100.599 51.032 100.618 49.464C100.618 48.96 100.632 48.512 100.66 48.12C100.697 47.7187 100.753 47.3593 100.828 47.042C100.912 46.7247 101.019 46.4447 101.15 46.202C101.29 45.95 101.458 45.7213 101.654 45.516ZM102.424 52.838C102.713 53.1553 103.091 53.314 103.558 53.314C103.866 53.314 104.132 53.2487 104.356 53.118C104.589 52.978 104.78 52.754 104.93 52.446C105.079 52.138 105.191 51.7413 105.266 51.256C105.34 50.7613 105.378 50.164 105.378 49.464C105.378 48.764 105.34 48.1713 105.266 47.686C105.191 47.1913 105.079 46.79 104.93 46.482C104.78 46.174 104.589 45.9547 104.356 45.824C104.132 45.684 103.866 45.614 103.558 45.614C103.24 45.614 102.965 45.684 102.732 45.824C102.508 45.9547 102.321 46.174 102.172 46.482C102.022 46.79 101.91 47.1913 101.836 47.686C101.77 48.1713 101.738 48.764 101.738 49.464C101.738 51.1907 101.966 52.3153 102.424 52.838ZM117.967 53.608C117.594 53.9813 117.118 54.168 116.539 54.168C115.886 54.168 115.373 53.944 114.999 53.496C114.626 53.0387 114.439 52.334 114.439 51.382C114.439 50.4393 114.621 49.744 114.985 49.296C115.349 48.8387 115.867 48.61 116.539 48.61C117.211 48.61 117.729 48.8387 118.093 49.296C118.457 49.7533 118.639 50.4487 118.639 51.382C118.639 52.4087 118.415 53.1507 117.967 53.608ZM116.525 49.352C115.769 49.352 115.391 50.0333 115.391 51.396C115.391 52.7493 115.769 53.426 116.525 53.426C117.291 53.426 117.673 52.7493 117.673 51.396C117.673 50.0333 117.291 49.352 116.525 49.352ZM111.499 44.83C111.938 45.2873 112.157 46.0247 112.157 47.042C112.157 47.994 111.971 48.6987 111.597 49.156C111.224 49.604 110.711 49.828 110.057 49.828C109.413 49.828 108.905 49.604 108.531 49.156C108.158 48.6987 107.971 47.994 107.971 47.042C107.971 46.1087 108.149 45.4133 108.503 44.956C108.867 44.4987 109.385 44.27 110.057 44.27C110.673 44.27 111.154 44.4567 111.499 44.83ZM110.057 45.012C109.301 45.012 108.923 45.6933 108.923 47.056C108.923 48.4093 109.301 49.086 110.057 49.086C110.823 49.086 111.205 48.4093 111.205 47.056C111.205 45.6933 110.823 45.012 110.057 45.012ZM110.141 54L115.419 44.438C115.541 44.3913 115.713 44.368 115.937 44.368C116.04 44.368 116.138 44.3773 116.231 44.396C116.325 44.4053 116.399 44.4193 116.455 44.438L111.191 54C111.126 54.028 111.047 54.0467 110.953 54.056C110.86 54.0653 110.762 54.07 110.659 54.07C110.557 54.07 110.459 54.0653 110.365 54.056C110.272 54.0467 110.197 54.028 110.141 54ZM122.924 53.468C122.934 53.1787 123.069 52.9267 123.33 52.712C123.75 52.9547 124.124 53.1227 124.45 53.216C124.786 53.3093 125.09 53.356 125.36 53.356C125.594 53.356 125.794 53.328 125.962 53.272C126.14 53.2067 126.289 53.1273 126.41 53.034C126.532 52.9313 126.625 52.8193 126.69 52.698C126.756 52.5767 126.793 52.4553 126.802 52.334C126.802 52.054 126.714 51.8207 126.536 51.634C126.368 51.438 126.116 51.2747 125.78 51.144L124.996 50.836C124.399 50.6027 123.951 50.332 123.652 50.024C123.354 49.7067 123.204 49.3287 123.204 48.89C123.204 48.6007 123.265 48.3393 123.386 48.106C123.508 47.8633 123.676 47.658 123.89 47.49C124.105 47.322 124.357 47.1913 124.646 47.098C124.936 47.0047 125.253 46.958 125.598 46.958C126.289 46.958 126.98 47.112 127.67 47.42C127.67 47.7467 127.563 48.0173 127.348 48.232C126.994 48.0733 126.667 47.9613 126.368 47.896C126.079 47.8307 125.813 47.798 125.57 47.798C125.141 47.798 124.814 47.896 124.59 48.092C124.376 48.288 124.268 48.512 124.268 48.764C124.268 49.0347 124.352 49.2493 124.52 49.408C124.688 49.5573 124.954 49.702 125.318 49.842L126.144 50.164C127.302 50.6213 127.88 51.298 127.88 52.194C127.88 52.8193 127.642 53.3047 127.166 53.65C126.69 53.9953 126.046 54.168 125.234 54.168C124.441 54.168 123.671 53.9347 122.924 53.468ZM134.637 50.878H130.297C130.343 52.4647 130.945 53.258 132.103 53.258C132.737 53.258 133.414 53.062 134.133 52.67C134.338 52.8567 134.464 53.0947 134.511 53.384C133.745 53.9067 132.887 54.168 131.935 54.168C131.449 54.168 131.034 54.0793 130.689 53.902C130.343 53.7153 130.059 53.4633 129.835 53.146C129.62 52.8193 129.461 52.4367 129.359 51.998C129.256 51.5593 129.205 51.0787 129.205 50.556C129.205 50.024 129.265 49.5387 129.387 49.1C129.517 48.6613 129.704 48.2833 129.947 47.966C130.189 47.6487 130.479 47.4013 130.815 47.224C131.16 47.0467 131.552 46.958 131.991 46.958C132.42 46.958 132.803 47.0373 133.139 47.196C133.484 47.3453 133.769 47.5553 133.993 47.826C134.226 48.0873 134.403 48.4047 134.525 48.778C134.646 49.142 134.707 49.534 134.707 49.954C134.707 50.122 134.697 50.2853 134.679 50.444C134.669 50.5933 134.655 50.738 134.637 50.878ZM130.297 50.08H133.657V49.898C133.657 49.254 133.521 48.736 133.251 48.344C132.98 47.952 132.574 47.756 132.033 47.756C131.501 47.756 131.085 47.966 130.787 48.386C130.497 48.806 130.334 49.3707 130.297 50.08ZM140.488 49.562V49.408C140.488 49.2027 140.46 49.002 140.404 48.806C140.348 48.61 140.259 48.4373 140.138 48.288C140.026 48.1387 139.876 48.022 139.69 47.938C139.512 47.8447 139.298 47.798 139.046 47.798C138.514 47.798 138.094 48.0407 137.786 48.526C137.478 49.0113 137.324 49.702 137.324 50.598C137.324 51.494 137.473 52.166 137.772 52.614C138.08 53.0527 138.495 53.272 139.018 53.272C139.568 53.272 140.198 53.0153 140.908 52.502C141.16 52.6513 141.323 52.8707 141.398 53.16C140.679 53.832 139.872 54.168 138.976 54.168C138.528 54.168 138.136 54.0793 137.8 53.902C137.464 53.7247 137.179 53.4867 136.946 53.188C136.712 52.88 136.535 52.5207 136.414 52.11C136.302 51.69 136.246 51.242 136.246 50.766C136.246 50.122 136.316 49.562 136.456 49.086C136.605 48.6007 136.806 48.204 137.058 47.896C137.319 47.5787 137.622 47.3453 137.968 47.196C138.313 47.0373 138.682 46.958 139.074 46.958C139.475 46.958 139.825 47.0233 140.124 47.154C140.422 47.2753 140.67 47.434 140.866 47.63C141.071 47.826 141.225 48.0407 141.328 48.274C141.43 48.5073 141.482 48.7267 141.482 48.932C141.482 49.38 141.3 49.604 140.936 49.604C140.805 49.604 140.656 49.59 140.488 49.562ZM143.242 51.942V48.456C143.242 47.9613 143.186 47.5647 143.074 47.266C143.233 47.1167 143.452 47.042 143.732 47.042C144.087 47.042 144.264 47.2707 144.264 47.728V51.606C144.264 52.194 144.339 52.6047 144.488 52.838C144.637 53.0713 144.899 53.188 145.272 53.188C145.645 53.188 146.033 53.09 146.434 52.894C146.835 52.6887 147.171 52.4273 147.442 52.11V47.14C147.498 47.1213 147.573 47.1073 147.666 47.098C147.759 47.0887 147.857 47.084 147.96 47.084C148.063 47.084 148.156 47.0887 148.24 47.098C148.333 47.1073 148.413 47.1213 148.478 47.14V52.068C148.478 52.8147 148.609 53.314 148.87 53.566C148.786 53.8273 148.627 54.0047 148.394 54.098C147.937 53.9487 147.643 53.6033 147.512 53.062C147.195 53.3793 146.812 53.636 146.364 53.832C145.925 54.028 145.482 54.126 145.034 54.126C144.409 54.126 143.951 53.9253 143.662 53.524C143.382 53.1227 143.242 52.5953 143.242 51.942ZM150.577 47.616C150.642 47.3733 150.791 47.1773 151.025 47.028C151.547 47.224 151.883 47.6393 152.033 48.274C152.415 47.4527 153.041 47.042 153.909 47.042C154.105 47.042 154.319 47.0607 154.553 47.098C154.553 47.4993 154.473 47.826 154.315 48.078C154.203 48.0687 154.039 48.064 153.825 48.064C153.069 48.064 152.499 48.4887 152.117 49.338V54C151.977 54.028 151.804 54.042 151.599 54.042C151.393 54.042 151.221 54.028 151.081 54V49.044C151.081 48.4093 150.913 47.9333 150.577 47.616ZM160.504 50.878H156.164C156.21 52.4647 156.812 53.258 157.97 53.258C158.604 53.258 159.281 53.062 160 52.67C160.205 52.8567 160.331 53.0947 160.378 53.384C159.612 53.9067 158.754 54.168 157.802 54.168C157.316 54.168 156.901 54.0793 156.556 53.902C156.21 53.7153 155.926 53.4633 155.702 53.146C155.487 52.8193 155.328 52.4367 155.226 51.998C155.123 51.5593 155.072 51.0787 155.072 50.556C155.072 50.024 155.132 49.5387 155.254 49.1C155.384 48.6613 155.571 48.2833 155.814 47.966C156.056 47.6487 156.346 47.4013 156.682 47.224C157.027 47.0467 157.419 46.958 157.858 46.958C158.287 46.958 158.67 47.0373 159.006 47.196C159.351 47.3453 159.636 47.5553 159.86 47.826C160.093 48.0873 160.27 48.4047 160.392 48.778C160.513 49.142 160.574 49.534 160.574 49.954C160.574 50.122 160.564 50.2853 160.546 50.444C160.536 50.5933 160.522 50.738 160.504 50.878ZM156.164 50.08H159.524V49.898C159.524 49.254 159.388 48.736 159.118 48.344C158.847 47.952 158.441 47.756 157.9 47.756C157.368 47.756 156.952 47.966 156.654 48.386C156.364 48.806 156.201 49.3707 156.164 50.08ZM166.715 53.538V56.31C166.715 56.562 166.678 56.7393 166.603 56.842C166.528 56.954 166.379 57.01 166.155 57.01H165.777L165.693 56.926V47.168L165.777 47.084H166.141C166.365 47.084 166.514 47.1447 166.589 47.266C166.673 47.378 166.715 47.5647 166.715 47.826V47.896C167.275 47.2707 167.942 46.958 168.717 46.958C169.51 46.958 170.108 47.28 170.509 47.924C170.91 48.5587 171.111 49.4407 171.111 50.57C171.111 51.1207 171.036 51.6153 170.887 52.054C170.747 52.4927 170.556 52.866 170.313 53.174C170.08 53.4727 169.809 53.706 169.501 53.874C169.193 54.0327 168.876 54.112 168.549 54.112C167.905 54.112 167.294 53.9207 166.715 53.538ZM166.715 48.988V52.586C167.284 53.006 167.821 53.216 168.325 53.216C168.829 53.216 169.244 52.992 169.571 52.544C169.898 52.096 170.061 51.4193 170.061 50.514C170.061 50.066 170.019 49.6787 169.935 49.352C169.86 49.016 169.758 48.7407 169.627 48.526C169.496 48.302 169.342 48.1387 169.165 48.036C168.997 47.924 168.815 47.868 168.619 47.868C168.246 47.868 167.891 47.966 167.555 48.162C167.219 48.358 166.939 48.6333 166.715 48.988ZM178.102 53.566C177.999 53.8273 177.841 54.0047 177.626 54.098C177.169 53.93 176.879 53.6033 176.758 53.118C176.039 53.818 175.335 54.168 174.644 54.168C174.289 54.168 173.981 54.112 173.72 54C173.459 53.888 173.239 53.7387 173.062 53.552C172.894 53.3653 172.763 53.1507 172.67 52.908C172.586 52.6653 172.544 52.4087 172.544 52.138C172.544 51.7647 172.605 51.438 172.726 51.158C172.857 50.8687 173.029 50.6307 173.244 50.444C173.468 50.2573 173.729 50.1173 174.028 50.024C174.327 49.9307 174.649 49.884 174.994 49.884C175.694 49.884 176.263 49.926 176.702 50.01V49.31C176.702 48.358 176.282 47.882 175.442 47.882C174.798 47.882 174.037 48.0733 173.16 48.456C172.917 48.2413 172.796 47.9707 172.796 47.644C173.804 47.2053 174.719 46.986 175.54 46.986C176.987 46.986 177.71 47.7653 177.71 49.324V52.208C177.701 52.544 177.729 52.824 177.794 53.048C177.869 53.2627 177.971 53.4353 178.102 53.566ZM176.702 52.166V50.766C176.478 50.7287 176.245 50.7053 176.002 50.696C175.759 50.6773 175.503 50.668 175.232 50.668C174.7 50.668 174.294 50.794 174.014 51.046C173.734 51.2887 173.594 51.6107 173.594 52.012C173.594 52.404 173.692 52.7167 173.888 52.95C174.084 53.174 174.35 53.286 174.686 53.286C175.031 53.286 175.381 53.1927 175.736 53.006C176.1 52.81 176.422 52.53 176.702 52.166ZM184.811 47.196L182.893 53.762C182.538 54.966 182.16 55.8153 181.759 56.31C181.358 56.8047 180.756 57.052 179.953 57.052C179.542 57.052 179.164 56.9913 178.819 56.87C178.791 56.6087 178.866 56.3567 179.043 56.114C179.332 56.2167 179.64 56.268 179.967 56.268C180.462 56.268 180.84 56.1 181.101 55.764C181.362 55.428 181.6 54.9053 181.815 54.196L181.857 54.056C181.614 54.0373 181.428 53.9813 181.297 53.888C181.176 53.7947 181.073 53.622 180.989 53.37L179.029 47.21C179.318 47.0887 179.524 47.028 179.645 47.028C179.916 47.028 180.098 47.1913 180.191 47.518L181.297 51.032C181.334 51.144 181.549 51.872 181.941 53.216C181.96 53.2813 182.006 53.314 182.081 53.314L183.789 47.126C183.91 47.0887 184.069 47.07 184.265 47.07C184.47 47.07 184.643 47.098 184.783 47.154L184.811 47.196ZM190.091 49.52C190.091 48.96 190.016 48.5587 189.867 48.316C189.727 48.0733 189.494 47.952 189.167 47.952C188.85 47.952 188.518 48.05 188.173 48.246C187.837 48.442 187.548 48.708 187.305 49.044V54C187.165 54.028 186.992 54.042 186.787 54.042C186.582 54.042 186.409 54.028 186.269 54V47.182L186.353 47.084H186.745C186.969 47.084 187.118 47.1447 187.193 47.266C187.268 47.378 187.305 47.56 187.305 47.812V48.022C187.893 47.35 188.574 47.014 189.349 47.014C190.124 47.014 190.651 47.364 190.931 48.064C191.696 47.364 192.452 47.014 193.199 47.014C193.787 47.014 194.226 47.2147 194.515 47.616C194.804 48.008 194.949 48.526 194.949 49.17V52.67C194.949 53.202 195.005 53.5987 195.117 53.86C194.958 54.0093 194.739 54.084 194.459 54.084C194.104 54.084 193.927 53.8553 193.927 53.398V49.506C193.927 48.946 193.852 48.5493 193.703 48.316C193.563 48.0733 193.33 47.952 193.003 47.952C192.686 47.952 192.359 48.0453 192.023 48.232C191.687 48.4187 191.388 48.68 191.127 49.016V54C190.987 54.028 190.814 54.042 190.609 54.042C190.404 54.042 190.231 54.028 190.091 54V49.52ZM202.271 50.878H197.931C197.978 52.4647 198.58 53.258 199.737 53.258C200.372 53.258 201.049 53.062 201.767 52.67C201.973 52.8567 202.099 53.0947 202.145 53.384C201.38 53.9067 200.521 54.168 199.569 54.168C199.084 54.168 198.669 54.0793 198.323 53.902C197.978 53.7153 197.693 53.4633 197.469 53.146C197.255 52.8193 197.096 52.4367 196.993 51.998C196.891 51.5593 196.839 51.0787 196.839 50.556C196.839 50.024 196.9 49.5387 197.021 49.1C197.152 48.6613 197.339 48.2833 197.581 47.966C197.824 47.6487 198.113 47.4013 198.449 47.224C198.795 47.0467 199.187 46.958 199.625 46.958C200.055 46.958 200.437 47.0373 200.773 47.196C201.119 47.3453 201.403 47.5553 201.627 47.826C201.861 48.0873 202.038 48.4047 202.159 48.778C202.281 49.142 202.341 49.534 202.341 49.954C202.341 50.122 202.332 50.2853 202.313 50.444C202.304 50.5933 202.29 50.738 202.271 50.878ZM197.931 50.08H201.291V49.898C201.291 49.254 201.156 48.736 200.885 48.344C200.615 47.952 200.209 47.756 199.667 47.756C199.135 47.756 198.72 47.966 198.421 48.386C198.132 48.806 197.969 49.3707 197.931 50.08ZM209.634 49.198V52.67C209.634 53.202 209.686 53.5987 209.788 53.86C209.639 54.0093 209.42 54.084 209.13 54.084C208.776 54.084 208.598 53.8553 208.598 53.398V49.52C208.598 48.9507 208.528 48.5493 208.388 48.316C208.248 48.0733 207.982 47.952 207.59 47.952C207.217 47.952 206.83 48.0547 206.428 48.26C206.027 48.456 205.691 48.7127 205.42 49.03V54C205.28 54.028 205.108 54.042 204.902 54.042C204.697 54.042 204.524 54.028 204.384 54V47.168L204.468 47.084H204.86C205.084 47.084 205.234 47.1447 205.308 47.266C205.383 47.378 205.42 47.56 205.42 47.812V48.008C205.738 47.7093 206.111 47.4713 206.54 47.294C206.97 47.1073 207.399 47.014 207.828 47.014C208.454 47.014 208.911 47.2147 209.2 47.616C209.49 48.0173 209.634 48.5447 209.634 49.198ZM215.051 47.126C215.079 47.266 215.093 47.4013 215.093 47.532C215.093 47.6533 215.079 47.784 215.051 47.924L213.273 47.91V52.614C213.273 53.006 213.455 53.202 213.819 53.202H214.883C214.949 53.3607 214.981 53.5193 214.981 53.678C214.981 53.8367 214.972 53.9347 214.953 53.972C214.524 54.028 214.081 54.056 213.623 54.056C212.718 54.056 212.265 53.6687 212.265 52.894V47.91L211.271 47.924C211.243 47.784 211.229 47.6533 211.229 47.532C211.229 47.4013 211.243 47.266 211.271 47.126L212.265 47.14V45.67C212.265 45.418 212.303 45.2407 212.377 45.138C212.452 45.026 212.597 44.97 212.811 44.97H213.189L213.273 45.054V47.154L215.051 47.126Z" fill="white" fill-opacity="0.8"/>
</g>
</g>
<defs>
<clipPath id="clip0_127_1041">
<rect width="297" height="72" fill="white"/>
</clipPath>
<clipPath id="clip1_127_1041">
<rect width="246" height="70" fill="white" transform="translate(86 1)"/>
</clipPath>
</defs>
</svg>
