<svg width="297" height="72" viewBox="0 0 297 72" fill="none" xmlns="http://www.w3.org/2000/svg">
<g clip-path="url(#clip0_127_1010)">
<g clip-path="url(#clip1_127_1010)">
<path d="M28.9063 11C29.0963 11.2362 29.335 11.4487 29.4675 11.715C29.8625 12.5087 30.2025 13.33 30.5925 14.1237C30.6438 14.2085 30.712 14.2817 30.7929 14.3389C30.8738 14.3961 30.9655 14.4361 31.0625 14.4562C32.0038 14.5938 32.9563 14.6612 33.8938 14.8212C34.183 14.8904 34.4337 15.0698 34.5925 15.3212C34.7688 15.625 34.6 15.9462 34.33 16.1875C33.6338 16.8125 32.955 17.4563 32.2538 18.08C32.1609 18.146 32.0914 18.2398 32.0555 18.3479C32.0195 18.456 32.0189 18.5728 32.0538 18.6813C32.2613 19.575 32.42 20.48 32.61 21.3787C32.6863 21.7425 32.6663 22.07 32.3438 22.3025C32.0213 22.535 31.7025 22.455 31.38 22.2712C30.5688 21.8062 29.755 21.3412 28.9288 20.905C28.8447 20.8679 28.7538 20.8488 28.6619 20.8488C28.57 20.8488 28.4791 20.8679 28.395 20.905C27.5688 21.3425 26.7563 21.8075 25.9438 22.2725C25.6225 22.4563 25.3013 22.5312 24.9813 22.2987C24.6613 22.0662 24.6425 21.735 24.7188 21.3737C24.9088 20.475 25.0663 19.5688 25.2763 18.675C25.3413 18.3975 25.2625 18.2475 25.0725 18.0763C24.3975 17.4738 23.74 16.8513 23.065 16.2488C22.7738 15.9888 22.5913 15.7025 22.7188 15.3063C22.8463 14.91 23.165 14.8225 23.5263 14.7812C24.4413 14.68 25.3575 14.5863 26.2675 14.4525C26.3664 14.4347 26.4604 14.3964 26.5435 14.34C26.6267 14.2836 26.697 14.2103 26.75 14.125C27.1463 13.3312 27.485 12.5087 27.8813 11.715C28.0138 11.45 28.2563 11.2387 28.4438 11.0025L28.9063 11ZM26.5 20.25C27.0925 19.9163 27.6 19.65 28.085 19.3488C28.4913 19.0988 28.8588 19.0988 29.2638 19.3488C29.745 19.645 30.25 19.9038 30.8338 20.2238C30.7288 19.6725 30.69 19.2238 30.55 18.7962C30.3063 18.07 30.4938 17.5462 31.1063 17.095C31.4688 16.83 31.7775 16.49 32.1888 16.1112C31.4663 16.0225 30.8825 15.935 30.2963 15.885C30.1089 15.8786 29.9278 15.8154 29.7771 15.7038C29.6264 15.5922 29.5132 15.4374 29.4525 15.26C29.2163 14.7088 28.9525 14.17 28.6675 13.5587C28.38 14.1837 28.12 14.7275 27.8763 15.2825C27.8158 15.4517 27.7063 15.599 27.5619 15.7058C27.4174 15.8127 27.2445 15.8742 27.065 15.8825C26.465 15.9363 25.8688 16.025 25.16 16.1125C25.6775 16.59 26.1125 17.0037 26.56 17.4037C26.7026 17.5147 26.8088 17.6657 26.8649 17.8375C26.921 18.0092 26.9246 18.1938 26.875 18.3675C26.7338 18.9525 26.6363 19.5475 26.5 20.25Z" fill="white"/>
<path d="M18.75 39.955C20.1006 39.2648 21.3019 38.315 22.285 37.16C23.9475 35.2 24.87 32.8937 25.2225 30.3887C25.4625 28.6825 25.5125 26.945 25.5762 25.22C25.625 23.9075 26.2312 23.3012 27.545 23.4375C27.9487 23.4762 28.3489 23.5448 28.7425 23.6425C30.9437 24.2087 32.1462 25.695 32.2662 27.965C32.415 30.7562 32.4512 33.5437 32.0162 36.3162C32.0169 36.3753 32.0249 36.4341 32.04 36.4912C33.085 36.4362 34.125 36.3662 35.165 36.3275C36.945 36.2637 38.725 36.1575 40.5037 36.1837C42.1088 36.2139 43.6636 36.7488 44.9475 37.7125C46.19 38.6225 46.5925 39.9425 46.0787 41.4025C45.8687 41.9975 45.53 42.55 45.2187 43.105C45.1075 43.305 45.0787 43.43 45.21 43.64C46.295 45.38 45.96 47.3687 44.35 48.6487C44.135 48.8212 44.15 48.9625 44.1737 49.1975C44.2425 49.905 44.3412 50.6237 44.2825 51.3225C44.195 52.38 43.6087 53.1837 42.685 53.7137C42.435 53.8537 42.3412 53.9775 42.37 54.2862C42.4382 55.1712 42.2355 56.056 41.789 56.8232C41.3425 57.5903 40.6732 58.2034 39.87 58.5812C39.6572 58.6747 39.4274 58.7236 39.195 58.725C33.5558 58.7891 27.9167 58.8458 22.2775 58.895C21.9985 58.8926 21.7217 58.8458 21.4575 58.7562C20.5562 58.4625 19.6625 58.1437 18.7637 57.8325C18.5425 58.6737 18.4062 58.7762 17.5512 58.7762H6.82249C5.91624 58.7762 5.70874 58.575 5.70874 57.6837C5.70874 51.8362 5.70874 45.9887 5.70874 40.1412C5.70874 39.235 5.90124 39.0425 6.80499 39.0425H17.68C18.4137 39.0475 18.5837 39.1875 18.75 39.955ZM27.1 24.8537C27.1 25.1337 27.1 25.3175 27.1 25.5C27.1162 28.4812 26.83 31.4187 25.7125 34.215C24.3987 37.5012 22.2412 40.02 18.95 41.4875C18.8805 41.534 18.8225 41.5959 18.7805 41.6682C18.7385 41.7405 18.7135 41.8215 18.7075 41.905C18.695 46.5675 18.7 51.2287 18.69 55.8912C18.69 56.1687 18.8025 56.2662 19.0375 56.3475C19.8225 56.6062 20.5937 56.91 21.3862 57.1387C21.8875 57.2935 22.408 57.3777 22.9325 57.3887C28.15 57.355 33.3675 57.28 38.585 57.255C39.3275 57.255 39.835 56.9537 40.255 56.415C40.5367 56.0686 40.7328 55.6607 40.8275 55.2245C40.9221 54.7882 40.9127 54.3357 40.8 53.9037C40.615 53.1087 40.7062 52.9387 41.4787 52.64C42.4325 52.265 42.8925 51.6575 42.8537 50.64C42.8084 50.0515 42.7063 49.4688 42.5487 48.9C42.3875 48.2362 42.465 48.0037 43.0675 47.6912C44.475 46.96 44.7687 45.26 43.6862 44.1125C43.2075 43.605 43.2287 43.3537 43.6162 42.7637C44.0286 42.163 44.3835 41.5247 44.6762 40.8575C44.9787 40.1212 44.755 39.4387 44.1087 38.9462C43.1265 38.182 41.9309 37.7421 40.6875 37.6875C38.9125 37.625 37.1287 37.7412 35.35 37.8125C33.9612 37.8675 32.575 37.9775 31.1862 38.0412C30.5525 38.0712 30.2425 37.6762 30.3575 37.0512C30.4062 36.7912 30.4637 36.5325 30.5062 36.2712C30.9712 33.4687 30.9362 30.6462 30.7562 27.83C30.6637 26.4 29.9312 25.5312 28.5575 25.1375C28.1037 25.0125 27.6362 24.9575 27.1 24.8537ZM17.1675 57.25V40.585H7.23374V57.25H17.1675Z" fill="white"/>
<path d="M34.8099 24.9351C34.9999 24.0001 35.1787 23.0001 35.4037 22.0176C35.4373 21.909 35.4358 21.7926 35.3992 21.685C35.3626 21.5775 35.2928 21.4843 35.1999 21.4188C34.5137 20.8051 33.8449 20.1688 33.1599 19.5563C32.8787 19.3063 32.7274 19.0213 32.8474 18.6476C32.9674 18.2738 33.2912 18.1576 33.6524 18.1188C34.5524 18.0226 35.4512 17.9101 36.3524 17.8263C36.4748 17.8252 36.5938 17.7856 36.6925 17.7132C36.7912 17.6407 36.8647 17.539 36.9024 17.4226C37.2612 16.5938 37.6524 15.7788 38.0274 14.9563C38.1762 14.6263 38.3662 14.3601 38.7774 14.3501C39.2087 14.3413 39.4112 14.6126 39.5687 14.9613C39.9437 15.7988 40.3187 16.6388 40.7262 17.4613C40.7771 17.5481 40.8455 17.6234 40.927 17.6823C41.0086 17.7413 41.1015 17.7827 41.1999 17.8038C42.0949 17.9288 42.9962 18.0213 43.8974 18.1151C44.2724 18.1538 44.6162 18.2488 44.7449 18.6538C44.8737 19.0588 44.6812 19.3363 44.3912 19.5951C43.7174 20.1976 43.0612 20.8226 42.3849 21.4238C42.2924 21.4906 42.2236 21.5852 42.1885 21.6938C42.1535 21.8023 42.1539 21.9193 42.1899 22.0276C42.3949 22.9226 42.5524 23.8288 42.7449 24.7263C42.8237 25.0926 42.7924 25.4163 42.4737 25.6476C42.1549 25.8788 41.8349 25.7951 41.5124 25.6101C40.7149 25.1501 39.9037 24.7163 39.1112 24.2488C39.0181 24.1835 38.9069 24.1489 38.7933 24.1501C38.6796 24.1512 38.5691 24.1879 38.4774 24.2551C37.6557 24.7351 36.827 25.2021 35.9912 25.6563C35.3874 25.9801 34.7924 25.6351 34.8099 24.9351ZM35.2724 19.4501C35.7874 19.9251 36.2149 20.3251 36.6562 20.7226C36.9637 20.9951 37.0899 21.2988 36.9899 21.7226C36.8512 22.3076 36.7549 22.9038 36.6237 23.5801C37.2174 23.2501 37.7399 22.9776 38.2424 22.6738C38.4041 22.5639 38.595 22.5051 38.7905 22.5051C38.986 22.5051 39.177 22.5639 39.3387 22.6738C39.8387 22.9751 40.3637 23.2513 40.9637 23.5838C40.8387 22.9238 40.7512 22.3426 40.6062 21.7776C40.4899 21.3213 40.6249 20.9988 40.9637 20.7038C41.4037 20.3213 41.8237 19.9151 42.3112 19.4638C41.6612 19.3851 41.1087 19.2876 40.5537 19.2588C40.0324 19.2313 39.7249 18.9913 39.5324 18.5226C39.3187 18.0001 39.0649 17.4926 38.7962 16.9076C38.5062 17.5326 38.2462 18.0838 38.0037 18.6376C37.9367 18.8129 37.8193 18.9644 37.6662 19.073C37.5131 19.1816 37.3313 19.2423 37.1437 19.2476C36.5512 19.2888 35.9662 19.3751 35.2724 19.4501Z" fill="white"/>
<path d="M14.5649 24.9387C14.7574 23.9787 14.9699 22.9887 15.1424 21.9925C15.152 21.8944 15.1411 21.7954 15.1103 21.7018C15.0796 21.6081 15.0296 21.522 14.9636 21.4487C14.2924 20.7962 13.5986 20.1662 12.9011 19.5412C12.6161 19.2912 12.4836 18.9937 12.6099 18.6275C12.7361 18.2612 13.0374 18.16 13.3836 18.1275C14.2836 18.0287 15.1824 17.915 16.0836 17.835C16.2137 17.8339 16.3403 17.7923 16.4456 17.7159C16.5509 17.6395 16.6298 17.5321 16.6711 17.4087C17.0274 16.58 17.4211 15.765 17.7899 14.9412C17.9411 14.6062 18.1436 14.355 18.5499 14.355C18.9561 14.355 19.1586 14.605 19.3099 14.9437C19.6849 15.7812 20.0599 16.6225 20.4686 17.4437C20.5222 17.5359 20.5943 17.6161 20.6804 17.6791C20.7664 17.7421 20.8645 17.7867 20.9686 17.81C21.8786 17.9425 22.7961 18.0275 23.7124 18.1275C24.0574 18.165 24.3611 18.2775 24.4836 18.635C24.6061 18.9925 24.4724 19.2975 24.1911 19.5512C23.4961 20.1762 22.7999 20.8012 22.1286 21.4562C22.0642 21.5302 22.0156 21.6167 21.9859 21.7102C21.9562 21.8037 21.9461 21.9024 21.9561 22C22.1111 22.905 22.2999 23.805 22.4899 24.7037C22.5661 25.0637 22.5599 25.3937 22.2399 25.6362C21.9036 25.8925 21.5736 25.7962 21.2399 25.6025C20.4424 25.1437 19.6324 24.7075 18.8386 24.2412C18.7523 24.1787 18.6484 24.145 18.5418 24.145C18.4351 24.145 18.3312 24.1787 18.2449 24.2412C17.4111 24.7287 16.5699 25.2075 15.7186 25.665C15.1249 25.985 14.5324 25.6137 14.5649 24.9387ZM20.7161 23.575C20.5911 22.9162 20.4999 22.3375 20.3586 21.7712C20.2461 21.32 20.3699 20.9925 20.7124 20.6962C21.1536 20.3212 21.5724 19.9075 22.0636 19.4537C21.4136 19.375 20.8624 19.2787 20.3136 19.2487C19.7936 19.2212 19.4836 18.9862 19.2911 18.5137C19.0761 17.9887 18.8211 17.48 18.5536 16.8987C18.2711 17.5087 18.0099 18.0375 17.7811 18.5812C17.714 18.7728 17.5894 18.939 17.4243 19.0571C17.2592 19.1752 17.0616 19.2395 16.8586 19.2412C16.2799 19.2862 15.7036 19.375 15.0399 19.455C15.5574 19.9325 15.9986 20.3462 16.4474 20.7512C16.5875 20.8628 16.6911 21.0136 16.745 21.1844C16.7989 21.3552 16.8006 21.5382 16.7499 21.71C16.6099 22.2962 16.5136 22.8937 16.3811 23.5762C16.9736 23.2462 17.4936 22.9725 17.9949 22.67C18.1557 22.5588 18.3462 22.4985 18.5417 22.4969C18.7371 22.4954 18.9286 22.5526 19.0911 22.6612C19.5961 22.9612 20.1161 23.2387 20.7161 23.575Z" fill="white"/>
<path d="M9.95501 41.0262C10.3167 41.0299 10.6692 41.1406 10.9681 41.3442C11.267 41.5479 11.4989 41.8354 11.6347 42.1707C11.7705 42.5059 11.8041 42.8738 11.7311 43.2281C11.6582 43.5823 11.4821 43.9071 11.225 44.1614C10.9678 44.4158 10.6412 44.5884 10.2862 44.6574C9.93112 44.7265 9.5636 44.6889 9.22987 44.5495C8.89613 44.4101 8.61112 44.175 8.41073 43.8739C8.21034 43.5728 8.10353 43.2192 8.10376 42.8575C8.10358 42.6153 8.15149 42.3754 8.2447 42.1519C8.33792 41.9283 8.4746 41.7255 8.6468 41.5551C8.81901 41.3848 9.02332 41.2503 9.24788 41.1595C9.47245 41.0687 9.7128 41.0234 9.95501 41.0262ZM10.4313 42.84C10.2025 42.6925 10.065 42.5337 9.95251 42.55C9.84001 42.5662 9.72251 42.7437 9.60876 42.85C9.73376 42.9637 9.84001 43.14 9.98376 43.17C10.075 43.19 10.2138 43.0062 10.4313 42.84Z" fill="white"/>
<path d="M10.4313 42.8399C10.2138 43.0062 10.075 43.1899 9.97876 43.1699C9.84001 43.1399 9.72876 42.9637 9.60376 42.8499C9.71751 42.7437 9.82126 42.5674 9.94751 42.5499C10.0738 42.5324 10.2025 42.6924 10.4313 42.8399Z" fill="white"/>
</g>
<g clip-path="url(#clip2_127_1010)">
<path d="M88.44 23.264L88.424 24.256L89.544 24.224H93.464C93.464 24.5653 93.448 24.8267 93.416 25.008C93.2987 25.6907 92.84 26.032 92.04 26.032H87.544C87.16 26.032 86.856 25.92 86.632 25.696C86.4187 25.4613 86.312 25.1467 86.312 24.752V15.184L86.424 15.072H93.096C93.1493 15.3387 93.176 15.6267 93.176 15.936C93.176 16.2347 93.1173 16.5493 93 16.88H88.424L88.44 17.984V19.632L89.48 19.616H92.184C92.2693 19.8613 92.312 20.1547 92.312 20.496C92.312 20.8373 92.2693 21.1307 92.184 21.376H88.44V23.264ZM99.357 18.064C99.581 18 99.8583 17.968 100.189 17.968C100.52 17.968 100.866 18.016 101.229 18.112L101.277 18.272L99.021 21.776L101.581 25.664C101.112 25.9733 100.642 26.128 100.173 26.128C99.7037 26.128 99.3303 25.92 99.053 25.504L97.741 23.504L96.253 26C96.0503 26.064 95.7463 26.096 95.341 26.096C94.9357 26.096 94.5943 26.0373 94.317 25.92L94.253 25.792L96.733 21.936L94.445 18.384C94.893 18.064 95.3677 17.904 95.869 17.904C96.125 17.904 96.3277 17.9573 96.477 18.064C96.6263 18.16 96.7757 18.3253 96.925 18.56L98.029 20.24L99.357 18.064ZM106.456 26.144C105.902 26.144 105.352 26 104.808 25.712V28.16C104.808 28.64 104.723 28.976 104.552 29.168C104.382 29.36 104.088 29.456 103.672 29.456H102.856L102.76 29.344V18.08L102.856 17.968H103.448C104.014 17.968 104.408 18.2293 104.632 18.752C105.24 18.144 105.976 17.84 106.84 17.84C107.715 17.84 108.392 18.2133 108.872 18.96C109.352 19.696 109.592 20.7093 109.592 22C109.592 22.64 109.507 23.216 109.336 23.728C109.176 24.24 108.952 24.6773 108.664 25.04C108.387 25.392 108.056 25.664 107.672 25.856C107.299 26.048 106.894 26.144 106.456 26.144ZM106.264 19.536C105.688 19.536 105.203 19.8133 104.808 20.368V24.08C105.278 24.3893 105.704 24.544 106.088 24.544C106.536 24.544 106.878 24.32 107.112 23.872C107.347 23.4133 107.464 22.7733 107.464 21.952C107.464 21.12 107.352 20.512 107.128 20.128C106.904 19.7333 106.616 19.536 106.264 19.536ZM117.339 22.704H112.923C112.955 23.2907 113.088 23.7547 113.323 24.096C113.568 24.4267 113.99 24.592 114.587 24.592C115.206 24.592 115.915 24.4107 116.715 24.048C117.024 24.368 117.222 24.7893 117.307 25.312C116.454 25.92 115.43 26.224 114.235 26.224C113.104 26.224 112.246 25.8773 111.659 25.184C111.083 24.48 110.795 23.44 110.795 22.064C110.795 21.424 110.87 20.848 111.019 20.336C111.168 19.8133 111.387 19.3707 111.675 19.008C111.963 18.6347 112.315 18.3467 112.731 18.144C113.147 17.9413 113.622 17.84 114.155 17.84C114.699 17.84 115.179 17.9253 115.595 18.096C116.011 18.256 116.363 18.4907 116.651 18.8C116.939 19.0987 117.152 19.456 117.291 19.872C117.44 20.288 117.515 20.7413 117.515 21.232C117.515 21.4987 117.499 21.7547 117.467 22C117.435 22.2347 117.392 22.4693 117.339 22.704ZM114.251 19.344C113.419 19.344 112.971 19.9733 112.907 21.232H115.563V21.04C115.563 20.528 115.456 20.1173 115.243 19.808C115.03 19.4987 114.699 19.344 114.251 19.344ZM118.812 19.024C118.855 18.832 118.94 18.6293 119.068 18.416C119.207 18.2027 119.345 18.0427 119.484 17.936C120.348 18.0427 120.94 18.5227 121.26 19.376C121.665 18.4267 122.343 17.952 123.292 17.952C123.644 17.952 123.964 17.9893 124.252 18.064C124.252 18.8107 124.081 19.4613 123.74 20.016C123.58 19.9627 123.335 19.9253 123.004 19.904C122.385 19.904 121.884 20.2347 121.5 20.896V26C121.18 26.0533 120.833 26.08 120.46 26.08C120.097 26.08 119.745 26.0533 119.404 26V20.672C119.404 19.9147 119.207 19.3653 118.812 19.024ZM130.158 18.048C130.222 18.304 130.254 18.5547 130.254 18.8C130.254 19.0453 130.222 19.296 130.158 19.552L128.222 19.52V23.728C128.222 24.2187 128.451 24.464 128.91 24.464H129.902C130.008 24.784 130.062 25.088 130.062 25.376C130.062 25.664 130.046 25.8507 130.014 25.936C129.363 26.032 128.723 26.08 128.094 26.08C126.814 26.08 126.174 25.4293 126.174 24.128V19.536L124.958 19.552C124.904 19.3387 124.878 19.088 124.878 18.8C124.878 18.512 124.904 18.2613 124.958 18.048L126.174 18.064V16.912C126.174 16.4427 126.259 16.112 126.43 15.92C126.6 15.728 126.894 15.632 127.31 15.632H128.11L128.222 15.728V18.08L130.158 18.048ZM139.278 21.36C139.278 20.72 139.198 20.2347 139.038 19.904C138.888 19.5733 138.579 19.408 138.11 19.408C137.256 19.408 136.83 20.2933 136.83 22.064C136.83 22.9387 136.952 23.5733 137.198 23.968C137.443 24.3627 137.838 24.56 138.382 24.56C138.659 24.56 138.958 24.5013 139.278 24.384C139.598 24.2667 139.928 24.08 140.27 23.824C140.44 23.9307 140.606 24.1067 140.766 24.352C140.936 24.5867 141.043 24.8107 141.086 25.024C140.723 25.3867 140.275 25.68 139.742 25.904C139.219 26.1173 138.67 26.224 138.094 26.224C136.974 26.224 136.126 25.8453 135.55 25.088C134.974 24.32 134.686 23.2693 134.686 21.936C134.686 21.2533 134.776 20.656 134.958 20.144C135.15 19.632 135.406 19.2053 135.726 18.864C136.046 18.5227 136.408 18.2667 136.814 18.096C137.23 17.9253 137.662 17.84 138.11 17.84C138.579 17.84 139 17.9093 139.374 18.048C139.758 18.176 140.078 18.3573 140.334 18.592C140.6 18.816 140.803 19.0827 140.942 19.392C141.091 19.7013 141.166 20.0267 141.166 20.368C141.166 20.7093 141.075 20.976 140.894 21.168C140.723 21.3493 140.462 21.44 140.11 21.44C139.79 21.44 139.512 21.4133 139.278 21.36ZM142.696 23.408V19.904C142.696 19.2427 142.584 18.736 142.36 18.384C142.712 18.0853 143.118 17.936 143.576 17.936C144.046 17.936 144.366 18.048 144.536 18.272C144.707 18.4853 144.792 18.8107 144.792 19.248V22.976C144.792 23.4347 144.851 23.7653 144.968 23.968C145.086 24.16 145.304 24.256 145.624 24.256C146.19 24.256 146.718 24.0107 147.208 23.52V18.064C147.443 18.0107 147.784 17.984 148.232 17.984C148.691 17.984 149.048 18.0107 149.304 18.064V23.744C149.304 24.3733 149.454 24.816 149.752 25.072C149.699 25.264 149.603 25.4613 149.464 25.664C149.336 25.8667 149.198 26.0213 149.048 26.128C148.27 26.0533 147.731 25.6747 147.432 24.992C146.611 25.76 145.763 26.144 144.888 26.144C144.174 26.144 143.63 25.8933 143.256 25.392C142.883 24.8907 142.696 24.2293 142.696 23.408ZM150.822 25.44C150.833 25.2053 150.897 24.9493 151.014 24.672C151.142 24.384 151.286 24.16 151.446 24C152.289 24.4587 153.03 24.688 153.67 24.688C154.022 24.688 154.305 24.6187 154.518 24.48C154.742 24.3413 154.854 24.1547 154.854 23.92C154.854 23.5467 154.566 23.248 153.99 23.024L153.094 22.688C151.75 22.1973 151.078 21.4133 151.078 20.336C151.078 19.952 151.147 19.6107 151.286 19.312C151.435 19.0027 151.638 18.7413 151.894 18.528C152.161 18.304 152.475 18.1333 152.838 18.016C153.201 17.8987 153.606 17.84 154.054 17.84C154.257 17.84 154.481 17.856 154.726 17.888C154.982 17.92 155.238 17.968 155.494 18.032C155.75 18.0853 155.995 18.1493 156.23 18.224C156.465 18.2987 156.667 18.3787 156.838 18.464C156.838 18.7307 156.785 19.008 156.678 19.296C156.571 19.584 156.427 19.7973 156.246 19.936C155.403 19.5627 154.673 19.376 154.054 19.376C153.777 19.376 153.558 19.4453 153.398 19.584C153.238 19.712 153.158 19.8827 153.158 20.096C153.158 20.4267 153.425 20.688 153.958 20.88L154.934 21.232C155.638 21.4773 156.161 21.8133 156.502 22.24C156.843 22.6667 157.014 23.1627 157.014 23.728C157.014 24.4853 156.731 25.0933 156.166 25.552C155.601 26 154.79 26.224 153.734 26.224C152.699 26.224 151.729 25.9627 150.822 25.44ZM162.861 18.048C162.925 18.304 162.957 18.5547 162.957 18.8C162.957 19.0453 162.925 19.296 162.861 19.552L160.925 19.52V23.728C160.925 24.2187 161.154 24.464 161.613 24.464H162.605C162.711 24.784 162.765 25.088 162.765 25.376C162.765 25.664 162.749 25.8507 162.717 25.936C162.066 26.032 161.426 26.08 160.797 26.08C159.517 26.08 158.877 25.4293 158.877 24.128V19.536L157.661 19.552C157.607 19.3387 157.581 19.088 157.581 18.8C157.581 18.512 157.607 18.2613 157.661 18.048L158.877 18.064V16.912C158.877 16.4427 158.962 16.112 159.133 15.92C159.303 15.728 159.597 15.632 160.013 15.632H160.813L160.925 15.728V18.08L162.861 18.048ZM169.764 18.736C170.522 19.4933 170.9 20.592 170.9 22.032C170.9 22.672 170.82 23.2533 170.66 23.776C170.5 24.288 170.266 24.7253 169.956 25.088C169.658 25.4507 169.284 25.7333 168.836 25.936C168.388 26.128 167.882 26.224 167.316 26.224C166.751 26.224 166.244 26.128 165.796 25.936C165.359 25.7333 164.986 25.4507 164.676 25.088C164.378 24.7253 164.148 24.288 163.988 23.776C163.828 23.2533 163.748 22.672 163.748 22.032C163.748 20.7413 164.058 19.7227 164.676 18.976C165.295 18.2187 166.175 17.84 167.316 17.84C168.319 17.84 169.135 18.1387 169.764 18.736ZM167.316 19.408C166.367 19.408 165.892 20.2827 165.892 22.032C165.892 23.7707 166.367 24.64 167.316 24.64C168.276 24.64 168.756 23.7707 168.756 22.032C168.756 20.2827 168.276 19.408 167.316 19.408ZM176.908 21.088C176.908 20.224 176.631 19.792 176.076 19.792C175.617 19.8133 175.153 20.064 174.684 20.544V26C174.364 26.0533 174.017 26.08 173.644 26.08C173.271 26.08 172.924 26.0533 172.604 26V18.08L172.7 17.968H173.484C174.113 17.968 174.497 18.2987 174.636 18.96C175.383 18.2667 176.124 17.92 176.86 17.92C177.735 17.92 178.353 18.304 178.716 19.072C179.537 18.304 180.369 17.92 181.212 17.92C181.895 17.92 182.412 18.1547 182.764 18.624C183.127 19.0827 183.308 19.6853 183.308 20.432V24.144C183.308 24.8267 183.42 25.3333 183.644 25.664C183.271 25.9627 182.855 26.112 182.396 26.112C181.948 26.112 181.639 26.0053 181.468 25.792C181.297 25.5787 181.212 25.2533 181.212 24.816V21.072C181.212 20.2187 180.929 19.792 180.364 19.792C179.937 19.792 179.479 20.048 178.988 20.56V26C178.668 26.0533 178.321 26.08 177.948 26.08C177.575 26.08 177.228 26.0533 176.908 26V21.088ZM191.48 22.704H187.064C187.096 23.2907 187.229 23.7547 187.464 24.096C187.709 24.4267 188.13 24.592 188.728 24.592C189.346 24.592 190.056 24.4107 190.856 24.048C191.165 24.368 191.362 24.7893 191.448 25.312C190.594 25.92 189.57 26.224 188.376 26.224C187.245 26.224 186.386 25.8773 185.8 25.184C185.224 24.48 184.936 23.44 184.936 22.064C184.936 21.424 185.01 20.848 185.16 20.336C185.309 19.8133 185.528 19.3707 185.816 19.008C186.104 18.6347 186.456 18.3467 186.872 18.144C187.288 17.9413 187.762 17.84 188.296 17.84C188.84 17.84 189.32 17.9253 189.736 18.096C190.152 18.256 190.504 18.4907 190.792 18.8C191.08 19.0987 191.293 19.456 191.432 19.872C191.581 20.288 191.656 20.7413 191.656 21.232C191.656 21.4987 191.64 21.7547 191.608 22C191.576 22.2347 191.533 22.4693 191.48 22.704ZM188.392 19.344C187.56 19.344 187.112 19.9733 187.048 21.232H189.704V21.04C189.704 20.528 189.597 20.1173 189.384 19.808C189.17 19.4987 188.84 19.344 188.392 19.344ZM192.953 19.024C192.995 18.832 193.081 18.6293 193.209 18.416C193.347 18.2027 193.486 18.0427 193.625 17.936C194.489 18.0427 195.081 18.5227 195.401 19.376C195.806 18.4267 196.483 17.952 197.433 17.952C197.785 17.952 198.105 17.9893 198.393 18.064C198.393 18.8107 198.222 19.4613 197.881 20.016C197.721 19.9627 197.475 19.9253 197.145 19.904C196.526 19.904 196.025 20.2347 195.641 20.896V26C195.321 26.0533 194.974 26.08 194.601 26.08C194.238 26.08 193.886 26.0533 193.545 26V20.672C193.545 19.9147 193.347 19.3653 192.953 19.024ZM202.305 25.04C202.337 24.7413 202.433 24.4427 202.593 24.144C202.764 23.8347 202.956 23.5893 203.169 23.408C204.268 24.112 205.345 24.464 206.401 24.464C206.913 24.464 207.318 24.3467 207.617 24.112C207.916 23.8667 208.065 23.5627 208.065 23.2C208.044 22.5813 207.633 22.096 206.833 21.744L204.945 20.944C204.198 20.6347 203.638 20.24 203.265 19.76C202.892 19.2693 202.705 18.7093 202.705 18.08C202.705 17.6 202.796 17.1627 202.977 16.768C203.169 16.3733 203.436 16.0373 203.777 15.76C204.129 15.472 204.54 15.248 205.009 15.088C205.489 14.928 206.017 14.848 206.593 14.848C207.766 14.848 208.918 15.1413 210.049 15.728C210.017 16.3787 209.766 16.9227 209.297 17.36C208.22 16.848 207.281 16.592 206.481 16.592C205.969 16.592 205.574 16.7093 205.297 16.944C205.03 17.1787 204.897 17.4667 204.897 17.808C204.897 18.2987 205.276 18.704 206.033 19.024L207.921 19.824C208.689 20.144 209.281 20.5653 209.697 21.088C210.113 21.6107 210.321 22.2133 210.321 22.896C210.321 23.376 210.236 23.824 210.065 24.24C209.894 24.6453 209.633 24.9973 209.281 25.296C208.94 25.584 208.508 25.8133 207.985 25.984C207.473 26.144 206.865 26.224 206.161 26.224C204.796 26.224 203.51 25.8293 202.305 25.04ZM217.98 22.704H213.564C213.596 23.2907 213.729 23.7547 213.964 24.096C214.209 24.4267 214.63 24.592 215.228 24.592C215.846 24.592 216.556 24.4107 217.356 24.048C217.665 24.368 217.862 24.7893 217.948 25.312C217.094 25.92 216.07 26.224 214.876 26.224C213.745 26.224 212.886 25.8773 212.3 25.184C211.724 24.48 211.436 23.44 211.436 22.064C211.436 21.424 211.51 20.848 211.66 20.336C211.809 19.8133 212.028 19.3707 212.316 19.008C212.604 18.6347 212.956 18.3467 213.372 18.144C213.788 17.9413 214.262 17.84 214.796 17.84C215.34 17.84 215.82 17.9253 216.236 18.096C216.652 18.256 217.004 18.4907 217.292 18.8C217.58 19.0987 217.793 19.456 217.932 19.872C218.081 20.288 218.156 20.7413 218.156 21.232C218.156 21.4987 218.14 21.7547 218.108 22C218.076 22.2347 218.033 22.4693 217.98 22.704ZM214.892 19.344C214.06 19.344 213.612 19.9733 213.548 21.232H216.204V21.04C216.204 20.528 216.097 20.1173 215.884 19.808C215.67 19.4987 215.34 19.344 214.892 19.344ZM219.453 19.024C219.495 18.832 219.581 18.6293 219.709 18.416C219.847 18.2027 219.986 18.0427 220.125 17.936C220.989 18.0427 221.581 18.5227 221.901 19.376C222.306 18.4267 222.983 17.952 223.933 17.952C224.285 17.952 224.605 17.9893 224.893 18.064C224.893 18.8107 224.722 19.4613 224.381 20.016C224.221 19.9627 223.975 19.9253 223.645 19.904C223.026 19.904 222.525 20.2347 222.141 20.896V26C221.821 26.0533 221.474 26.08 221.101 26.08C220.738 26.08 220.386 26.0533 220.045 26V20.672C220.045 19.9147 219.847 19.3653 219.453 19.024ZM229.372 24.368L231.004 18.064C231.218 18.0107 231.5 17.984 231.852 17.984C232.204 17.984 232.535 18.0373 232.844 18.144L232.908 18.24C231.863 21.8773 231.084 24.464 230.572 26C230.103 26.064 229.618 26.096 229.116 26.096C228.626 26.096 228.274 26.0267 228.06 25.888C227.847 25.7387 227.676 25.4507 227.548 25.024L225.484 18.224C225.911 18.0213 226.306 17.92 226.668 17.92C227.298 17.92 227.687 18.2347 227.836 18.864L228.732 22.112C228.85 22.496 229.01 23.2053 229.212 24.24C229.234 24.3253 229.287 24.368 229.372 24.368ZM236.613 19.68V26C236.453 26.032 236.282 26.0533 236.101 26.064C235.93 26.0747 235.754 26.08 235.573 26.08C235.392 26.08 235.21 26.0747 235.029 26.064C234.858 26.0533 234.688 26.032 234.517 26V20.432C234.517 19.8453 234.277 19.552 233.797 19.552H233.589C233.525 19.3173 233.493 19.072 233.493 18.816C233.493 18.5813 233.525 18.336 233.589 18.08C233.834 18.0587 234.058 18.0427 234.261 18.032C234.474 18.0107 234.656 18 234.805 18H235.077C235.557 18 235.93 18.1493 236.197 18.448C236.474 18.7467 236.613 19.1573 236.613 19.68ZM234.197 14.976C234.442 14.8373 234.794 14.768 235.253 14.768C235.52 14.768 235.733 14.7893 235.893 14.832C236.064 14.8747 236.186 14.928 236.261 14.992C236.336 15.0453 236.384 15.152 236.405 15.312C236.426 15.472 236.437 15.6373 236.437 15.808C236.405 16.352 236.336 16.6507 236.229 16.704C236.133 16.7573 235.802 16.8107 235.237 16.864C234.64 16.8427 234.288 16.7627 234.181 16.624C234.085 16.4853 234.037 16.2133 234.037 15.808C234.037 15.4987 234.09 15.2213 234.197 14.976ZM242.872 21.36C242.872 20.72 242.792 20.2347 242.632 19.904C242.482 19.5733 242.173 19.408 241.704 19.408C240.85 19.408 240.424 20.2933 240.424 22.064C240.424 22.9387 240.546 23.5733 240.792 23.968C241.037 24.3627 241.432 24.56 241.976 24.56C242.253 24.56 242.552 24.5013 242.872 24.384C243.192 24.2667 243.522 24.08 243.864 23.824C244.034 23.9307 244.2 24.1067 244.36 24.352C244.53 24.5867 244.637 24.8107 244.68 25.024C244.317 25.3867 243.869 25.68 243.336 25.904C242.813 26.1173 242.264 26.224 241.688 26.224C240.568 26.224 239.72 25.8453 239.144 25.088C238.568 24.32 238.28 23.2693 238.28 21.936C238.28 21.2533 238.37 20.656 238.552 20.144C238.744 19.632 239 19.2053 239.32 18.864C239.64 18.5227 240.002 18.2667 240.408 18.096C240.824 17.9253 241.256 17.84 241.704 17.84C242.173 17.84 242.594 17.9093 242.968 18.048C243.352 18.176 243.672 18.3573 243.928 18.592C244.194 18.816 244.397 19.0827 244.536 19.392C244.685 19.7013 244.76 20.0267 244.76 20.368C244.76 20.7093 244.669 20.976 244.488 21.168C244.317 21.3493 244.056 21.44 243.704 21.44C243.384 21.44 243.106 21.4133 242.872 21.36ZM252.277 22.704H247.861C247.893 23.2907 248.026 23.7547 248.261 24.096C248.506 24.4267 248.927 24.592 249.525 24.592C250.143 24.592 250.853 24.4107 251.653 24.048C251.962 24.368 252.159 24.7893 252.245 25.312C251.391 25.92 250.367 26.224 249.173 26.224C248.042 26.224 247.183 25.8773 246.597 25.184C246.021 24.48 245.733 23.44 245.733 22.064C245.733 21.424 245.807 20.848 245.957 20.336C246.106 19.8133 246.325 19.3707 246.613 19.008C246.901 18.6347 247.253 18.3467 247.669 18.144C248.085 17.9413 248.559 17.84 249.093 17.84C249.637 17.84 250.117 17.9253 250.533 18.096C250.949 18.256 251.301 18.4907 251.589 18.8C251.877 19.0987 252.09 19.456 252.229 19.872C252.378 20.288 252.453 20.7413 252.453 21.232C252.453 21.4987 252.437 21.7547 252.405 22C252.373 22.2347 252.33 22.4693 252.277 22.704ZM249.189 19.344C248.357 19.344 247.909 19.9733 247.845 21.232H250.501V21.04C250.501 20.528 250.394 20.1173 250.181 19.808C249.967 19.4987 249.637 19.344 249.189 19.344Z" fill="white"/>
<path d="M87.45 48.708L88.22 48.694H91.09C91.118 48.862 91.132 49.0207 91.132 49.17C91.132 49.31 91.118 49.4593 91.09 49.618H88.22C87.8933 49.618 87.6367 49.6133 87.45 49.604V54C87.31 54.028 87.1327 54.042 86.918 54.042C86.7033 54.042 86.526 54.028 86.386 54V44.522L86.47 44.438H91.776C91.8227 44.578 91.846 44.7273 91.846 44.886C91.846 45.2127 91.6267 45.376 91.188 45.376H88.962C88.2247 45.376 87.716 45.3667 87.436 45.348L87.45 47.308V48.708ZM97.3803 53.426C96.8856 53.9207 96.2416 54.168 95.4483 54.168C94.9816 54.168 94.5663 54.0793 94.2023 53.902C93.8476 53.7247 93.5443 53.482 93.2923 53.174C93.0496 52.8567 92.8629 52.4787 92.7323 52.04C92.6109 51.592 92.5503 51.102 92.5503 50.57C92.5503 50.038 92.6109 49.5527 92.7323 49.114C92.8629 48.666 93.0496 48.2833 93.2923 47.966C93.5443 47.6487 93.8476 47.4013 94.2023 47.224C94.5663 47.0467 94.9816 46.958 95.4483 46.958C95.9149 46.958 96.3256 47.0467 96.6803 47.224C97.0443 47.4013 97.3476 47.6487 97.5903 47.966C97.8423 48.2833 98.0336 48.666 98.1643 49.114C98.2949 49.5527 98.3603 50.038 98.3603 50.57C98.3603 51.8207 98.0336 52.7727 97.3803 53.426ZM95.4623 53.356C96.0596 53.356 96.5123 53.104 96.8203 52.6C97.1376 52.0867 97.2963 51.41 97.2963 50.57C97.2963 50.1967 97.2589 49.842 97.1843 49.506C97.1189 49.1607 97.0116 48.862 96.8623 48.61C96.7129 48.3487 96.5216 48.1433 96.2883 47.994C96.0549 47.8447 95.7749 47.77 95.4483 47.77C95.1309 47.77 94.8556 47.8447 94.6223 47.994C94.3983 48.134 94.2116 48.33 94.0623 48.582C93.9129 48.834 93.8009 49.1327 93.7263 49.478C93.6609 49.814 93.6283 50.178 93.6283 50.57C93.6283 50.962 93.6609 51.326 93.7263 51.662C93.8009 51.998 93.9083 52.292 94.0483 52.544C94.1976 52.796 94.3889 52.9967 94.6223 53.146C94.8556 53.286 95.1356 53.356 95.4623 53.356ZM99.936 47.616C100.001 47.3733 100.151 47.1773 100.384 47.028C100.907 47.224 101.243 47.6393 101.392 48.274C101.775 47.4527 102.4 47.042 103.268 47.042C103.464 47.042 103.679 47.0607 103.912 47.098C103.912 47.4993 103.833 47.826 103.674 48.078C103.562 48.0687 103.399 48.064 103.184 48.064C102.428 48.064 101.859 48.4887 101.476 49.338V54C101.336 54.028 101.163 54.042 100.958 54.042C100.753 54.042 100.58 54.028 100.44 54V49.044C100.44 48.4093 100.272 47.9333 99.936 47.616ZM113.366 53.566C113.263 53.8273 113.104 54.0047 112.89 54.098C112.432 53.93 112.143 53.6033 112.022 53.118C111.303 53.818 110.598 54.168 109.908 54.168C109.553 54.168 109.245 54.112 108.984 54C108.722 53.888 108.503 53.7387 108.326 53.552C108.158 53.3653 108.027 53.1507 107.934 52.908C107.85 52.6653 107.808 52.4087 107.808 52.138C107.808 51.7647 107.868 51.438 107.99 51.158C108.12 50.8687 108.293 50.6307 108.508 50.444C108.732 50.2573 108.993 50.1173 109.292 50.024C109.59 49.9307 109.912 49.884 110.258 49.884C110.958 49.884 111.527 49.926 111.966 50.01V49.31C111.966 48.358 111.546 47.882 110.706 47.882C110.062 47.882 109.301 48.0733 108.424 48.456C108.181 48.2413 108.06 47.9707 108.06 47.644C109.068 47.2053 109.982 46.986 110.804 46.986C112.25 46.986 112.974 47.7653 112.974 49.324V52.208C112.964 52.544 112.992 52.824 113.058 53.048C113.132 53.2627 113.235 53.4353 113.366 53.566ZM111.966 52.166V50.766C111.742 50.7287 111.508 50.7053 111.266 50.696C111.023 50.6773 110.766 50.668 110.496 50.668C109.964 50.668 109.558 50.794 109.278 51.046C108.998 51.2887 108.858 51.6107 108.858 52.012C108.858 52.404 108.956 52.7167 109.152 52.95C109.348 53.174 109.614 53.286 109.95 53.286C110.295 53.286 110.645 53.1927 111 53.006C111.364 52.81 111.686 52.53 111.966 52.166ZM117.743 53.468C117.752 53.1787 117.887 52.9267 118.149 52.712C118.569 52.9547 118.942 53.1227 119.269 53.216C119.605 53.3093 119.908 53.356 120.179 53.356C120.412 53.356 120.613 53.328 120.781 53.272C120.958 53.2067 121.107 53.1273 121.229 53.034C121.35 52.9313 121.443 52.8193 121.509 52.698C121.574 52.5767 121.611 52.4553 121.621 52.334C121.621 52.054 121.532 51.8207 121.355 51.634C121.187 51.438 120.935 51.2747 120.599 51.144L119.815 50.836C119.217 50.6027 118.769 50.332 118.471 50.024C118.172 49.7067 118.023 49.3287 118.023 48.89C118.023 48.6007 118.083 48.3393 118.205 48.106C118.326 47.8633 118.494 47.658 118.709 47.49C118.923 47.322 119.175 47.1913 119.465 47.098C119.754 47.0047 120.071 46.958 120.417 46.958C121.107 46.958 121.798 47.112 122.489 47.42C122.489 47.7467 122.381 48.0173 122.167 48.232C121.812 48.0733 121.485 47.9613 121.187 47.896C120.897 47.8307 120.631 47.798 120.389 47.798C119.959 47.798 119.633 47.896 119.409 48.092C119.194 48.288 119.087 48.512 119.087 48.764C119.087 49.0347 119.171 49.2493 119.339 49.408C119.507 49.5573 119.773 49.702 120.137 49.842L120.963 50.164C122.12 50.6213 122.699 51.298 122.699 52.194C122.699 52.8193 122.461 53.3047 121.985 53.65C121.509 53.9953 120.865 54.168 120.053 54.168C119.259 54.168 118.489 53.9347 117.743 53.468ZM129.749 49.212V52.67C129.749 53.202 129.805 53.5987 129.917 53.86C129.758 54.0093 129.539 54.084 129.259 54.084C128.904 54.084 128.727 53.8553 128.727 53.398V49.534C128.727 48.9647 128.652 48.5633 128.503 48.33C128.354 48.0873 128.092 47.966 127.719 47.966C127.346 47.966 126.958 48.0687 126.557 48.274C126.156 48.47 125.82 48.7267 125.549 49.044V54C125.409 54.028 125.236 54.042 125.031 54.042C124.835 54.042 124.667 54.028 124.527 54V43.794L124.611 43.71H124.989C125.213 43.71 125.362 43.766 125.437 43.878C125.512 43.9807 125.549 44.158 125.549 44.41V48.022C125.866 47.7233 126.24 47.4807 126.669 47.294C127.098 47.1073 127.528 47.014 127.957 47.014C128.582 47.014 129.035 47.2193 129.315 47.63C129.604 48.0313 129.749 48.5587 129.749 49.212ZM136.468 53.426C135.973 53.9207 135.329 54.168 134.536 54.168C134.069 54.168 133.654 54.0793 133.29 53.902C132.935 53.7247 132.632 53.482 132.38 53.174C132.137 52.8567 131.951 52.4787 131.82 52.04C131.699 51.592 131.638 51.102 131.638 50.57C131.638 50.038 131.699 49.5527 131.82 49.114C131.951 48.666 132.137 48.2833 132.38 47.966C132.632 47.6487 132.935 47.4013 133.29 47.224C133.654 47.0467 134.069 46.958 134.536 46.958C135.003 46.958 135.413 47.0467 135.768 47.224C136.132 47.4013 136.435 47.6487 136.678 47.966C136.93 48.2833 137.121 48.666 137.252 49.114C137.383 49.5527 137.448 50.038 137.448 50.57C137.448 51.8207 137.121 52.7727 136.468 53.426ZM134.55 53.356C135.147 53.356 135.6 53.104 135.908 52.6C136.225 52.0867 136.384 51.41 136.384 50.57C136.384 50.1967 136.347 49.842 136.272 49.506C136.207 49.1607 136.099 48.862 135.95 48.61C135.801 48.3487 135.609 48.1433 135.376 47.994C135.143 47.8447 134.863 47.77 134.536 47.77C134.219 47.77 133.943 47.8447 133.71 47.994C133.486 48.134 133.299 48.33 133.15 48.582C133.001 48.834 132.889 49.1327 132.814 49.478C132.749 49.814 132.716 50.178 132.716 50.57C132.716 50.962 132.749 51.326 132.814 51.662C132.889 51.998 132.996 52.292 133.136 52.544C133.285 52.796 133.477 52.9967 133.71 53.146C133.943 53.286 134.223 53.356 134.55 53.356ZM140.424 53.538V56.31C140.424 56.562 140.387 56.7393 140.312 56.842C140.237 56.954 140.088 57.01 139.864 57.01H139.486L139.402 56.926V47.168L139.486 47.084H139.85C140.074 47.084 140.223 47.1447 140.298 47.266C140.382 47.378 140.424 47.5647 140.424 47.826V47.896C140.984 47.2707 141.651 46.958 142.426 46.958C143.219 46.958 143.817 47.28 144.218 47.924C144.619 48.5587 144.82 49.4407 144.82 50.57C144.82 51.1207 144.745 51.6153 144.596 52.054C144.456 52.4927 144.265 52.866 144.022 53.174C143.789 53.4727 143.518 53.706 143.21 53.874C142.902 54.0327 142.585 54.112 142.258 54.112C141.614 54.112 141.003 53.9207 140.424 53.538ZM140.424 48.988V52.586C140.993 53.006 141.53 53.216 142.034 53.216C142.538 53.216 142.953 52.992 143.28 52.544C143.607 52.096 143.77 51.4193 143.77 50.514C143.77 50.066 143.728 49.6787 143.644 49.352C143.569 49.016 143.467 48.7407 143.336 48.526C143.205 48.302 143.051 48.1387 142.874 48.036C142.706 47.924 142.524 47.868 142.328 47.868C141.955 47.868 141.6 47.966 141.264 48.162C140.928 48.358 140.648 48.6333 140.424 48.988ZM147.793 53.538V56.31C147.793 56.562 147.756 56.7393 147.681 56.842C147.606 56.954 147.457 57.01 147.233 57.01H146.855L146.771 56.926V47.168L146.855 47.084H147.219C147.443 47.084 147.592 47.1447 147.667 47.266C147.751 47.378 147.793 47.5647 147.793 47.826V47.896C148.353 47.2707 149.02 46.958 149.795 46.958C150.588 46.958 151.186 47.28 151.587 47.924C151.988 48.5587 152.189 49.4407 152.189 50.57C152.189 51.1207 152.114 51.6153 151.965 52.054C151.825 52.4927 151.634 52.866 151.391 53.174C151.158 53.4727 150.887 53.706 150.579 53.874C150.271 54.0327 149.954 54.112 149.627 54.112C148.983 54.112 148.372 53.9207 147.793 53.538ZM147.793 48.988V52.586C148.362 53.006 148.899 53.216 149.403 53.216C149.907 53.216 150.322 52.992 150.649 52.544C150.976 52.096 151.139 51.4193 151.139 50.514C151.139 50.066 151.097 49.6787 151.013 49.352C150.938 49.016 150.836 48.7407 150.705 48.526C150.574 48.302 150.42 48.1387 150.243 48.036C150.075 47.924 149.893 47.868 149.697 47.868C149.324 47.868 148.969 47.966 148.633 48.162C148.297 48.358 148.017 48.6333 147.793 48.988ZM155.288 48.092V54C155.148 54.028 154.976 54.042 154.77 54.042C154.565 54.042 154.392 54.028 154.252 54V48.596C154.252 48.3347 154.21 48.1573 154.126 48.064C154.042 47.9707 153.893 47.924 153.678 47.924H153.552C153.515 47.8213 153.496 47.6953 153.496 47.546C153.496 47.3967 153.515 47.266 153.552 47.154C153.73 47.1353 153.874 47.1213 153.986 47.112C154.098 47.0933 154.187 47.084 154.252 47.084H154.364C154.654 47.084 154.878 47.1773 155.036 47.364C155.204 47.5413 155.288 47.784 155.288 48.092ZM153.916 44.732C154.066 44.6387 154.28 44.592 154.56 44.592C154.831 44.592 155.018 44.634 155.12 44.718C155.223 44.802 155.274 44.9793 155.274 45.25C155.274 45.5207 155.218 45.7027 155.106 45.796C154.994 45.88 154.812 45.922 154.56 45.922C154.336 45.922 154.154 45.8893 154.014 45.824C153.884 45.7493 153.818 45.558 153.818 45.25C153.818 45.0353 153.851 44.8627 153.916 44.732ZM162.972 49.198V52.67C162.972 53.202 163.024 53.5987 163.126 53.86C162.977 54.0093 162.758 54.084 162.468 54.084C162.114 54.084 161.936 53.8553 161.936 53.398V49.52C161.936 48.9507 161.866 48.5493 161.726 48.316C161.586 48.0733 161.32 47.952 160.928 47.952C160.555 47.952 160.168 48.0547 159.766 48.26C159.365 48.456 159.029 48.7127 158.758 49.03V54C158.618 54.028 158.446 54.042 158.24 54.042C158.035 54.042 157.862 54.028 157.722 54V47.168L157.806 47.084H158.198C158.422 47.084 158.572 47.1447 158.646 47.266C158.721 47.378 158.758 47.56 158.758 47.812V48.008C159.076 47.7093 159.449 47.4713 159.878 47.294C160.308 47.1073 160.737 47.014 161.166 47.014C161.792 47.014 162.249 47.2147 162.538 47.616C162.828 48.0173 162.972 48.5447 162.972 49.198ZM169.411 47.714C169.542 47.3873 169.789 47.1587 170.153 47.028C170.377 47.1587 170.531 47.3407 170.615 47.574C170.354 47.826 170.223 48.3253 170.223 49.072V53.468C170.223 54.1213 170.162 54.6767 170.041 55.134C169.929 55.5913 169.761 55.9647 169.537 56.254C169.313 56.5433 169.033 56.7533 168.697 56.884C168.37 57.0147 167.988 57.08 167.549 57.08C166.672 57.08 165.869 56.9213 165.141 56.604C165.15 56.2773 165.248 56.0067 165.435 55.792C166.06 56.0907 166.7 56.24 167.353 56.24C167.726 56.24 168.034 56.1887 168.277 56.086C168.52 55.9833 168.711 55.834 168.851 55.638C169 55.442 169.103 55.204 169.159 54.924C169.215 54.6533 169.243 54.3453 169.243 54V53.188C168.636 53.804 167.955 54.112 167.199 54.112C166.443 54.112 165.86 53.7993 165.449 53.174C165.038 52.5393 164.833 51.6573 164.833 50.528C164.833 49.9587 164.903 49.4547 165.043 49.016C165.192 48.568 165.388 48.1947 165.631 47.896C165.874 47.588 166.154 47.3547 166.471 47.196C166.788 47.0373 167.124 46.958 167.479 46.958C168.188 46.958 168.832 47.21 169.411 47.714ZM169.243 52.18V48.554C168.972 48.3207 168.697 48.148 168.417 48.036C168.137 47.9147 167.871 47.854 167.619 47.854C167.096 47.854 166.676 48.0827 166.359 48.54C166.042 48.988 165.883 49.6647 165.883 50.57C165.883 51.466 166.018 52.1333 166.289 52.572C166.569 53.0013 166.905 53.216 167.297 53.216C167.689 53.216 168.053 53.1227 168.389 52.936C168.725 52.74 169.01 52.488 169.243 52.18ZM180.697 50.878H176.357C176.404 52.4647 177.006 53.258 178.163 53.258C178.798 53.258 179.474 53.062 180.193 52.67C180.398 52.8567 180.524 53.0947 180.571 53.384C179.806 53.9067 178.947 54.168 177.995 54.168C177.51 54.168 177.094 54.0793 176.749 53.902C176.404 53.7153 176.119 53.4633 175.895 53.146C175.68 52.8193 175.522 52.4367 175.419 51.998C175.316 51.5593 175.265 51.0787 175.265 50.556C175.265 50.024 175.326 49.5387 175.447 49.1C175.578 48.6613 175.764 48.2833 176.007 47.966C176.25 47.6487 176.539 47.4013 176.875 47.224C177.22 47.0467 177.612 46.958 178.051 46.958C178.48 46.958 178.863 47.0373 179.199 47.196C179.544 47.3453 179.829 47.5553 180.053 47.826C180.286 48.0873 180.464 48.4047 180.585 48.778C180.706 49.142 180.767 49.534 180.767 49.954C180.767 50.122 180.758 50.2853 180.739 50.444C180.73 50.5933 180.716 50.738 180.697 50.878ZM176.357 50.08H179.717V49.898C179.717 49.254 179.582 48.736 179.311 48.344C179.04 47.952 178.634 47.756 178.093 47.756C177.561 47.756 177.146 47.966 176.847 48.386C176.558 48.806 176.394 49.3707 176.357 50.08ZM186.254 47.14C186.347 47.0933 186.487 47.07 186.674 47.07C186.777 47.07 186.875 47.0793 186.968 47.098C187.061 47.1073 187.141 47.1307 187.206 47.168L187.248 47.252L185.274 50.36L187.556 53.846C187.304 54.014 187.071 54.098 186.856 54.098C186.632 54.098 186.45 53.9953 186.31 53.79L184.644 51.214L182.894 54.014C182.847 54.0327 182.787 54.0467 182.712 54.056C182.647 54.0653 182.567 54.07 182.474 54.07C182.371 54.07 182.273 54.0607 182.18 54.042C182.087 54.0327 182.003 54.0093 181.928 53.972L181.886 53.888L184.112 50.402L182.082 47.266C182.315 47.098 182.539 47.014 182.754 47.014C182.997 47.014 183.183 47.1213 183.314 47.336L184.756 49.562L186.254 47.14ZM190.121 53.538V56.31C190.121 56.562 190.084 56.7393 190.009 56.842C189.935 56.954 189.785 57.01 189.561 57.01H189.183L189.099 56.926V47.168L189.183 47.084H189.547C189.771 47.084 189.921 47.1447 189.995 47.266C190.079 47.378 190.121 47.5647 190.121 47.826V47.896C190.681 47.2707 191.349 46.958 192.123 46.958C192.917 46.958 193.514 47.28 193.915 47.924C194.317 48.5587 194.517 49.4407 194.517 50.57C194.517 51.1207 194.443 51.6153 194.293 52.054C194.153 52.4927 193.962 52.866 193.719 53.174C193.486 53.4727 193.215 53.706 192.907 53.874C192.599 54.0327 192.282 54.112 191.955 54.112C191.311 54.112 190.7 53.9207 190.121 53.538ZM190.121 48.988V52.586C190.691 53.006 191.227 53.216 191.731 53.216C192.235 53.216 192.651 52.992 192.977 52.544C193.304 52.096 193.467 51.4193 193.467 50.514C193.467 50.066 193.425 49.6787 193.341 49.352C193.267 49.016 193.164 48.7407 193.033 48.526C192.903 48.302 192.749 48.1387 192.571 48.036C192.403 47.924 192.221 47.868 192.025 47.868C191.652 47.868 191.297 47.966 190.961 48.162C190.625 48.358 190.345 48.6333 190.121 48.988ZM201.396 50.878H197.056C197.103 52.4647 197.705 53.258 198.862 53.258C199.497 53.258 200.174 53.062 200.892 52.67C201.098 52.8567 201.224 53.0947 201.27 53.384C200.505 53.9067 199.646 54.168 198.694 54.168C198.209 54.168 197.794 54.0793 197.448 53.902C197.103 53.7153 196.818 53.4633 196.594 53.146C196.38 52.8193 196.221 52.4367 196.118 51.998C196.016 51.5593 195.964 51.0787 195.964 50.556C195.964 50.024 196.025 49.5387 196.146 49.1C196.277 48.6613 196.464 48.2833 196.706 47.966C196.949 47.6487 197.238 47.4013 197.574 47.224C197.92 47.0467 198.312 46.958 198.75 46.958C199.18 46.958 199.562 47.0373 199.898 47.196C200.244 47.3453 200.528 47.5553 200.752 47.826C200.986 48.0873 201.163 48.4047 201.284 48.778C201.406 49.142 201.466 49.534 201.466 49.954C201.466 50.122 201.457 50.2853 201.438 50.444C201.429 50.5933 201.415 50.738 201.396 50.878ZM197.056 50.08H200.416V49.898C200.416 49.254 200.281 48.736 200.01 48.344C199.74 47.952 199.334 47.756 198.792 47.756C198.26 47.756 197.845 47.966 197.546 48.386C197.257 48.806 197.094 49.3707 197.056 50.08ZM203.131 47.616C203.197 47.3733 203.346 47.1773 203.579 47.028C204.102 47.224 204.438 47.6393 204.587 48.274C204.97 47.4527 205.595 47.042 206.463 47.042C206.659 47.042 206.874 47.0607 207.107 47.098C207.107 47.4993 207.028 47.826 206.869 48.078C206.757 48.0687 206.594 48.064 206.379 48.064C205.623 48.064 205.054 48.4887 204.671 49.338V54C204.531 54.028 204.359 54.042 204.153 54.042C203.948 54.042 203.775 54.028 203.635 54V49.044C203.635 48.4093 203.467 47.9333 203.131 47.616ZM209.812 48.092V54C209.672 54.028 209.499 54.042 209.294 54.042C209.088 54.042 208.916 54.028 208.776 54V48.596C208.776 48.3347 208.734 48.1573 208.65 48.064C208.566 47.9707 208.416 47.924 208.202 47.924H208.076C208.038 47.8213 208.02 47.6953 208.02 47.546C208.02 47.3967 208.038 47.266 208.076 47.154C208.253 47.1353 208.398 47.1213 208.51 47.112C208.622 47.0933 208.71 47.084 208.776 47.084H208.888C209.177 47.084 209.401 47.1773 209.56 47.364C209.728 47.5413 209.812 47.784 209.812 48.092ZM208.44 44.732C208.589 44.6387 208.804 44.592 209.084 44.592C209.354 44.592 209.541 44.634 209.644 44.718C209.746 44.802 209.798 44.9793 209.798 45.25C209.798 45.5207 209.742 45.7027 209.63 45.796C209.518 45.88 209.336 45.922 209.084 45.922C208.86 45.922 208.678 45.8893 208.538 45.824C208.407 45.7493 208.342 45.558 208.342 45.25C208.342 45.0353 208.374 44.8627 208.44 44.732ZM217.174 50.878H212.834C212.88 52.4647 213.482 53.258 214.64 53.258C215.274 53.258 215.951 53.062 216.67 52.67C216.875 52.8567 217.001 53.0947 217.048 53.384C216.282 53.9067 215.424 54.168 214.472 54.168C213.986 54.168 213.571 54.0793 213.226 53.902C212.88 53.7153 212.596 53.4633 212.372 53.146C212.157 52.8193 211.998 52.4367 211.896 51.998C211.793 51.5593 211.742 51.0787 211.742 50.556C211.742 50.024 211.802 49.5387 211.924 49.1C212.054 48.6613 212.241 48.2833 212.484 47.966C212.726 47.6487 213.016 47.4013 213.352 47.224C213.697 47.0467 214.089 46.958 214.528 46.958C214.957 46.958 215.34 47.0373 215.676 47.196C216.021 47.3453 216.306 47.5553 216.53 47.826C216.763 48.0873 216.94 48.4047 217.062 48.778C217.183 49.142 217.244 49.534 217.244 49.954C217.244 50.122 217.234 50.2853 217.216 50.444C217.206 50.5933 217.192 50.738 217.174 50.878ZM212.834 50.08H216.194V49.898C216.194 49.254 216.058 48.736 215.788 48.344C215.517 47.952 215.111 47.756 214.57 47.756C214.038 47.756 213.622 47.966 213.324 48.386C213.034 48.806 212.871 49.3707 212.834 50.08ZM224.537 49.198V52.67C224.537 53.202 224.588 53.5987 224.691 53.86C224.541 54.0093 224.322 54.084 224.033 54.084C223.678 54.084 223.501 53.8553 223.501 53.398V49.52C223.501 48.9507 223.431 48.5493 223.291 48.316C223.151 48.0733 222.885 47.952 222.493 47.952C222.119 47.952 221.732 48.0547 221.331 48.26C220.929 48.456 220.593 48.7127 220.323 49.03V54C220.183 54.028 220.01 54.042 219.805 54.042C219.599 54.042 219.427 54.028 219.287 54V47.168L219.371 47.084H219.763C219.987 47.084 220.136 47.1447 220.211 47.266C220.285 47.378 220.323 47.56 220.323 47.812V48.008C220.64 47.7093 221.013 47.4713 221.443 47.294C221.872 47.1073 222.301 47.014 222.731 47.014C223.356 47.014 223.813 47.2147 224.103 47.616C224.392 48.0173 224.537 48.5447 224.537 49.198ZM230.654 49.562V49.408C230.654 49.2027 230.626 49.002 230.57 48.806C230.514 48.61 230.425 48.4373 230.304 48.288C230.192 48.1387 230.042 48.022 229.856 47.938C229.678 47.8447 229.464 47.798 229.212 47.798C228.68 47.798 228.26 48.0407 227.952 48.526C227.644 49.0113 227.49 49.702 227.49 50.598C227.49 51.494 227.639 52.166 227.938 52.614C228.246 53.0527 228.661 53.272 229.184 53.272C229.734 53.272 230.364 53.0153 231.074 52.502C231.326 52.6513 231.489 52.8707 231.564 53.16C230.845 53.832 230.038 54.168 229.142 54.168C228.694 54.168 228.302 54.0793 227.966 53.902C227.63 53.7247 227.345 53.4867 227.112 53.188C226.878 52.88 226.701 52.5207 226.58 52.11C226.468 51.69 226.412 51.242 226.412 50.766C226.412 50.122 226.482 49.562 226.622 49.086C226.771 48.6007 226.972 48.204 227.224 47.896C227.485 47.5787 227.788 47.3453 228.134 47.196C228.479 47.0373 228.848 46.958 229.24 46.958C229.641 46.958 229.991 47.0233 230.29 47.154C230.588 47.2753 230.836 47.434 231.032 47.63C231.237 47.826 231.391 48.0407 231.494 48.274C231.596 48.5073 231.648 48.7267 231.648 48.932C231.648 49.38 231.466 49.604 231.102 49.604C230.971 49.604 230.822 49.59 230.654 49.562ZM238.338 50.878H233.998C234.044 52.4647 234.646 53.258 235.804 53.258C236.438 53.258 237.115 53.062 237.834 52.67C238.039 52.8567 238.165 53.0947 238.212 53.384C237.446 53.9067 236.588 54.168 235.636 54.168C235.15 54.168 234.735 54.0793 234.39 53.902C234.044 53.7153 233.76 53.4633 233.536 53.146C233.321 52.8193 233.162 52.4367 233.06 51.998C232.957 51.5593 232.906 51.0787 232.906 50.556C232.906 50.024 232.966 49.5387 233.088 49.1C233.218 48.6613 233.405 48.2833 233.648 47.966C233.89 47.6487 234.18 47.4013 234.516 47.224C234.861 47.0467 235.253 46.958 235.692 46.958C236.121 46.958 236.504 47.0373 236.84 47.196C237.185 47.3453 237.47 47.5553 237.694 47.826C237.927 48.0873 238.104 48.4047 238.226 48.778C238.347 49.142 238.408 49.534 238.408 49.954C238.408 50.122 238.398 50.2853 238.38 50.444C238.37 50.5933 238.356 50.738 238.338 50.878ZM233.998 50.08H237.358V49.898C237.358 49.254 237.222 48.736 236.952 48.344C236.681 47.952 236.275 47.756 235.734 47.756C235.202 47.756 234.786 47.966 234.488 48.386C234.198 48.806 234.035 49.3707 233.998 50.08Z" fill="white" fill-opacity="0.8"/>
</g>
</g>
<defs>
<clipPath id="clip0_127_1010">
<rect width="297" height="72" fill="white"/>
</clipPath>
<clipPath id="clip1_127_1010">
<rect width="48" height="48" fill="white" transform="translate(2 11)"/>
</clipPath>
<clipPath id="clip2_127_1010">
<rect width="246" height="70" fill="white" transform="translate(86 1)"/>
</clipPath>
</defs>
</svg>
