<svg width="297" height="72" viewBox="0 0 297 72" fill="none" xmlns="http://www.w3.org/2000/svg">
<g clip-path="url(#clip0_127_1026)">
<g clip-path="url(#clip1_127_1026)">
<path d="M1 56.5383C1.02685 56.2306 1.06937 55.9229 1.0772 55.6141C1.1861 51.6086 1.29202 47.6031 1.39496 43.5976C1.40055 43.4107 1.40726 43.2239 1.41733 43.0382C1.46432 42.0782 1.72278 41.8298 2.68276 41.8544C4.88019 41.9104 7.07762 41.9715 9.27505 42.0379C9.95308 42.0569 10.2697 42.3859 10.2731 43.0594C10.2731 43.4902 10.2731 43.9198 10.2731 44.3718C10.9567 44.1145 11.5956 43.8281 12.259 43.6312C15.3337 42.7215 18.3009 43.0236 21.1316 44.5262C22.3085 45.1742 23.6259 45.5245 24.9692 45.5466C26.7001 45.5668 28.4298 45.6932 30.1585 45.6731C32.62 45.6451 34.5634 46.5033 35.8646 48.6884C36.0437 48.6078 36.2115 48.5362 36.3771 48.459C38.5734 47.4218 40.7619 46.3679 42.9671 45.3508C43.949 44.8873 45.0659 44.7965 46.1097 45.0954C47.1535 45.3943 48.0531 46.0625 48.6408 46.9754C49.0705 47.6467 48.9899 48.0797 48.3276 48.5082C43.1361 51.8704 37.9569 55.2527 32.7397 58.5779C31.3646 59.4529 29.7557 59.7046 28.1378 59.8232C26.2772 59.9597 24.5295 59.4506 22.774 58.9494C19.9769 58.1494 17.1675 57.383 14.3726 56.573C13.3197 56.2675 12.3497 56.3492 11.4109 56.9164C11.024 57.1501 10.6243 57.3619 10.2138 57.5508C9.94524 57.6739 9.8714 57.8473 9.86693 58.1293C9.84902 59.1038 9.56595 59.3667 8.58024 59.3421C6.39848 59.2862 4.21671 59.2134 2.03494 59.1665C1.81595 59.1716 1.6004 59.1112 1.41599 58.993C1.23158 58.8748 1.08671 58.7041 1 58.503V56.5383ZM46.684 47.442C45.865 46.6588 44.7383 46.4854 43.6631 46.9877C41.9009 47.8112 40.1443 48.6492 38.3854 49.4805L36.4565 50.3958C36.4834 50.6195 36.5102 50.8075 36.527 50.9932C36.6299 52.0617 36.2909 52.4388 35.2325 52.4108C32.7076 52.3459 30.1831 52.2769 27.659 52.2038C26.8019 52.1803 25.9438 52.168 25.0856 52.1277C24.3908 52.0964 23.9667 51.4978 24.2174 50.9037C24.4053 50.4495 24.7835 50.3365 25.2467 50.3499C28.2229 50.4357 31.1994 50.5155 34.1763 50.5893C34.3229 50.5893 34.4683 50.5893 34.6608 50.5893C34.5992 50.3745 34.5657 50.2257 34.5142 50.0814C33.9637 48.5261 32.5685 47.5348 30.822 47.4811C29.1079 47.4274 27.3938 47.4006 25.6752 47.348C24.9592 47.3267 24.2409 47.2932 23.5293 47.2204C22.1508 47.0783 20.9704 46.3891 19.7352 45.8342C16.5879 44.4211 13.5043 44.6102 10.5125 46.3354C10.4022 46.386 10.3096 46.4685 10.2466 46.5722C10.1836 46.6758 10.153 46.796 10.1589 46.9172C10.0996 49.6607 10.0213 52.3996 9.94972 55.1464C9.94972 55.2919 9.94972 55.4373 9.94972 55.6521C10.1914 55.5313 10.3615 55.4597 10.5181 55.3657C11.9122 54.5355 13.3712 54.4102 14.9241 54.8678C17.1619 55.5291 19.4119 56.1556 21.663 56.7699C23.2384 57.1995 24.8048 57.7164 26.4114 57.9559C28.5059 58.268 30.5378 57.8966 32.3637 56.7139C36.3678 54.1219 40.3718 51.5321 44.3758 48.9446C45.1433 48.4478 45.9097 47.9466 46.684 47.442ZM3.18512 43.6535C3.05981 48.2632 2.93562 52.8046 2.81031 57.3875L8.09578 57.5374C8.22333 52.9333 8.34976 48.3908 8.47619 43.8057L3.18512 43.6535Z" fill="white"/>
<path d="M35.2695 42.2314C34.3162 42.1464 33.5442 42.4171 32.7901 42.8434C30.9339 43.894 29.0453 43.9074 27.1868 42.8546C26.4307 42.4173 25.5697 42.1941 24.6963 42.209C22.5246 42.228 20.8508 41.3139 19.761 39.4119C19.3745 38.7318 18.7983 38.1789 18.1029 37.8209C16.137 36.7714 15.1323 35.1356 15.1938 32.8856C15.223 32.1779 15.0331 31.4785 14.6501 30.8828C13.4059 28.9427 13.3936 26.9948 14.6333 25.048C15.027 24.4252 15.2221 23.6975 15.1927 22.9613C15.1457 20.7706 16.118 19.1572 18.0301 18.1301C18.7777 17.7364 19.3981 17.1385 19.8192 16.406C20.8765 14.6001 22.4921 13.6972 24.571 13.6995C25.5209 13.7097 26.4566 13.4685 27.2831 13.0002C29.0833 11.9999 30.9261 12.0167 32.7185 13.0248C33.5177 13.479 34.4241 13.7108 35.3433 13.6961C37.4602 13.6961 39.0948 14.6057 40.1622 16.4518C40.5662 17.1569 41.1648 17.7306 41.8864 18.1044C43.8164 19.1416 44.7954 20.7684 44.7641 22.9703C44.7459 23.7363 44.9562 24.4904 45.3682 25.1364C46.533 27.0105 46.5274 28.9002 45.3615 30.7721C44.9515 31.4195 44.7435 32.1743 44.7641 32.9404C44.7954 35.1211 43.8253 36.7445 41.9143 37.775C41.2095 38.1565 40.6221 38.6331 40.2282 39.3414C39.1273 41.3139 37.4098 42.209 35.2695 42.2314ZM25.1293 40.4256C26.0244 40.3953 27.0313 40.7019 27.9857 41.2647C29.2903 42.0389 30.6206 42.0535 31.9297 41.2815C32.9233 40.6846 34.0685 40.3884 35.2269 40.4289C36.762 40.4737 37.9323 39.8225 38.682 38.462C39.2031 37.512 40.0033 36.7449 40.9745 36.2645C42.3619 35.5552 43.0399 34.424 42.9884 32.861C42.9423 31.8253 43.2251 30.8015 43.7962 29.9363C44.6656 28.6048 44.6634 27.2891 43.7907 25.9588C43.223 25.108 42.9412 24.0984 42.9862 23.0766C43.0489 21.4721 42.3473 20.3298 40.9253 19.6081C39.9697 19.1309 39.1841 18.3711 38.6753 17.432C37.9245 16.0692 36.7519 15.4281 35.2157 15.474C34.0574 15.5137 32.9125 15.2155 31.9207 14.6158C30.6273 13.855 29.3082 13.8583 28.0182 14.6214C27.0248 15.2199 25.8788 15.5165 24.7198 15.4751C23.1825 15.4326 22.0177 16.0837 21.2659 17.4454C20.7572 18.3844 19.9705 19.143 19.0136 19.6171C17.5983 20.3242 16.9225 21.4565 16.9762 23.0453C17.0218 24.0663 16.7421 25.0756 16.1773 25.9274C15.2766 27.2868 15.2822 28.6272 16.1773 29.9855C16.7337 30.8065 17.0104 31.7851 16.9661 32.7759C16.8911 34.4542 17.6218 35.6022 19.0998 36.3384C19.99 36.776 20.7221 37.4799 21.1943 38.3523C22.0099 39.8281 23.244 40.5151 25.1293 40.4256Z" fill="white"/>
<path d="M36.1578 19.5769C36.0976 19.7501 36.0227 19.9178 35.934 20.0782C32.4663 25.6396 28.9956 31.1996 25.522 36.7581C25.1863 37.2962 24.6705 37.4473 24.2196 37.1653C23.7687 36.8834 23.677 36.3597 24.016 35.816C27.4829 30.2545 30.9514 24.6938 34.4213 19.1339C34.7133 18.6662 35.077 18.5084 35.5133 18.6371C35.8859 18.7434 36.1511 19.0925 36.1578 19.5769Z" fill="white"/>
<path d="M38.7121 32.7603C38.6867 33.3565 38.5428 33.9416 38.2888 34.4816C38.0349 35.0216 37.676 35.5056 37.233 35.9054C35.8087 37.2234 33.7455 37.2156 32.3223 35.8987C30.4975 34.2103 30.3408 31.11 31.9867 29.2437C33.6649 27.3417 36.3815 27.4995 37.8461 29.5794C38.4212 30.4018 38.7199 31.3852 38.7121 32.7603ZM36.9376 32.4336C36.9275 31.6057 36.6993 30.8672 36.1018 30.2697C35.3186 29.4977 34.2579 29.5 33.4725 30.2586C32.3536 31.3427 32.3458 33.4462 33.4624 34.5326C34.2725 35.3158 35.3824 35.3001 36.1577 34.4755C36.697 33.9027 36.9152 33.2045 36.9376 32.4336Z" fill="white"/>
<path d="M29.0956 23.2568C29.0956 24.6844 28.742 25.7429 27.9711 26.6447C26.464 28.4091 24.0003 28.446 22.4373 26.7353C20.8429 24.9921 20.8284 22.073 22.4048 20.3108C24.0731 18.4446 26.7796 18.6203 28.2307 20.6924C28.8204 21.5338 29.1034 22.4747 29.0956 23.2568ZM27.3054 23.5029C27.3327 22.7628 27.0766 22.0401 26.5894 21.4823C25.8062 20.5872 24.6224 20.5682 23.7922 21.4174C22.7427 22.496 22.7439 24.5166 23.7922 25.593C24.6079 26.4287 25.7648 26.4198 26.5536 25.5572C27.0928 24.9787 27.3155 24.2805 27.311 23.5029H27.3054Z" fill="white"/>
</g>
<g clip-path="url(#clip2_127_1026)">
<path d="M91.816 23.52L91.032 23.536H88.792L88.008 23.52L87.256 26.016C87.032 26.0693 86.712 26.096 86.296 26.096C85.8907 26.096 85.56 26.048 85.304 25.952L85.224 25.84L88.792 15.072C89.1867 15.0187 89.6133 14.992 90.072 14.992C90.5307 14.992 90.9307 15.024 91.272 15.088L94.776 25.856C94.4667 26.0373 94.0933 26.128 93.656 26.128C93.2293 26.128 92.92 26.048 92.728 25.888C92.5467 25.728 92.392 25.424 92.264 24.976L91.816 23.52ZM88.536 21.824L89.256 21.808H90.632L91.304 21.824L90.824 20.192C90.4613 18.976 90.1733 17.9413 89.96 17.088H89.864C89.768 17.5467 89.5333 18.448 89.16 19.792L88.536 21.824ZM100.408 21.088C100.408 20.224 100.131 19.792 99.576 19.792C99.1173 19.8133 98.6533 20.064 98.184 20.544V26C97.864 26.0533 97.5173 26.08 97.144 26.08C96.7707 26.08 96.424 26.0533 96.104 26V18.08L96.2 17.968H96.984C97.6133 17.968 97.9973 18.2987 98.136 18.96C98.8827 18.2667 99.624 17.92 100.36 17.92C101.235 17.92 101.853 18.304 102.216 19.072C103.037 18.304 103.869 17.92 104.712 17.92C105.395 17.92 105.912 18.1547 106.264 18.624C106.627 19.0827 106.808 19.6853 106.808 20.432V24.144C106.808 24.8267 106.92 25.3333 107.144 25.664C106.771 25.9627 106.355 26.112 105.896 26.112C105.448 26.112 105.139 26.0053 104.968 25.792C104.797 25.5787 104.712 25.2533 104.712 24.816V21.072C104.712 20.2187 104.429 19.792 103.864 19.792C103.437 19.792 102.979 20.048 102.488 20.56V26C102.168 26.0533 101.821 26.08 101.448 26.08C101.075 26.08 100.728 26.0533 100.408 26V21.088ZM115.412 25.04C115.358 25.232 115.262 25.4347 115.124 25.648C114.985 25.8613 114.846 26.0213 114.708 26.128C114.014 26.0427 113.508 25.7387 113.188 25.216C112.494 25.888 111.737 26.224 110.916 26.224C110.5 26.224 110.132 26.1547 109.812 26.016C109.502 25.888 109.241 25.712 109.028 25.488C108.825 25.264 108.67 25.008 108.564 24.72C108.468 24.432 108.42 24.1333 108.42 23.824C108.42 23.376 108.494 22.9867 108.644 22.656C108.804 22.3147 109.022 22.032 109.3 21.808C109.588 21.584 109.918 21.4133 110.292 21.296C110.676 21.1787 111.092 21.12 111.54 21.12C112.116 21.12 112.564 21.136 112.884 21.168V20.736C112.884 19.9253 112.489 19.52 111.7 19.52C111.166 19.52 110.356 19.7067 109.268 20.08C108.969 19.7493 108.788 19.2533 108.724 18.592C109.854 18.112 111.022 17.872 112.228 17.872C113.028 17.872 113.684 18.096 114.196 18.544C114.708 18.992 114.964 19.6693 114.964 20.576V23.856C114.964 24.4213 115.113 24.816 115.412 25.04ZM111.38 24.64C111.913 24.64 112.414 24.4053 112.884 23.936V22.544C112.713 22.5333 112.548 22.5227 112.388 22.512C112.228 22.5013 112.073 22.496 111.924 22.496C111.454 22.496 111.097 22.5867 110.852 22.768C110.606 22.9387 110.484 23.2267 110.484 23.632C110.484 23.952 110.564 24.2027 110.724 24.384C110.884 24.5547 111.102 24.64 111.38 24.64ZM116.784 24.144L119.024 21.12C119.184 20.9067 119.611 20.3947 120.304 19.584L120.256 19.52C119.637 19.5947 118.949 19.632 118.192 19.632H116.752C116.699 19.3973 116.672 19.1573 116.672 18.912C116.672 18.656 116.715 18.3733 116.8 18.064H122.272C122.453 18.608 122.544 19.0027 122.544 19.248C122.544 19.4827 122.469 19.696 122.32 19.888L120.064 22.944C119.595 23.552 119.184 24.048 118.832 24.432L118.88 24.512C119.296 24.4587 119.755 24.432 120.256 24.432H120.912C121.627 24.432 122.16 24.3467 122.512 24.176C122.651 24.5173 122.72 24.8107 122.72 25.056C122.72 25.6853 122.32 26 121.52 26H116.736C116.565 25.5307 116.48 25.1733 116.48 24.928C116.48 24.6827 116.581 24.4213 116.784 24.144ZM126.66 19.68V26C126.5 26.032 126.329 26.0533 126.148 26.064C125.977 26.0747 125.801 26.08 125.62 26.08C125.439 26.08 125.257 26.0747 125.076 26.064C124.905 26.0533 124.735 26.032 124.564 26V20.432C124.564 19.8453 124.324 19.552 123.844 19.552H123.636C123.572 19.3173 123.54 19.072 123.54 18.816C123.54 18.5813 123.572 18.336 123.636 18.08C123.881 18.0587 124.105 18.0427 124.308 18.032C124.521 18.0107 124.703 18 124.852 18H125.124C125.604 18 125.977 18.1493 126.244 18.448C126.521 18.7467 126.66 19.1573 126.66 19.68ZM124.244 14.976C124.489 14.8373 124.841 14.768 125.3 14.768C125.567 14.768 125.78 14.7893 125.94 14.832C126.111 14.8747 126.233 14.928 126.308 14.992C126.383 15.0453 126.431 15.152 126.452 15.312C126.473 15.472 126.484 15.6373 126.484 15.808C126.452 16.352 126.383 16.6507 126.276 16.704C126.18 16.7573 125.849 16.8107 125.284 16.864C124.687 16.8427 124.335 16.7627 124.228 16.624C124.132 16.4853 124.084 16.2133 124.084 15.808C124.084 15.4987 124.137 15.2213 124.244 14.976ZM135.43 20.656V24.144C135.43 24.8267 135.542 25.3333 135.766 25.664C135.425 25.9627 135.014 26.112 134.534 26.112C134.076 26.112 133.761 26.0107 133.59 25.808C133.42 25.5947 133.334 25.264 133.334 24.816V21.088C133.334 20.608 133.276 20.272 133.158 20.08C133.041 19.888 132.822 19.792 132.502 19.792C131.937 19.792 131.409 20.048 130.918 20.56V26C130.758 26.032 130.588 26.0533 130.406 26.064C130.236 26.0747 130.06 26.08 129.878 26.08C129.697 26.08 129.516 26.0747 129.334 26.064C129.164 26.0533 128.998 26.032 128.838 26V18.08L128.934 17.968H129.734C130.332 17.968 130.705 18.288 130.854 18.928C131.633 18.256 132.406 17.92 133.174 17.92C133.942 17.92 134.508 18.1707 134.87 18.672C135.244 19.1627 135.43 19.824 135.43 20.656ZM142.341 18.624C142.639 18.2293 143.082 18 143.669 17.936C143.818 18.0427 143.962 18.2027 144.101 18.416C144.239 18.6293 144.325 18.8267 144.357 19.008C144.058 19.264 143.909 19.7067 143.909 20.336V24.8C143.909 25.728 143.834 26.496 143.685 27.104C143.535 27.712 143.311 28.1973 143.013 28.56C142.714 28.9227 142.335 29.1733 141.877 29.312C141.429 29.4613 140.901 29.536 140.293 29.536C139.226 29.536 138.261 29.3547 137.397 28.992C137.397 28.736 137.445 28.4587 137.541 28.16C137.647 27.8613 137.775 27.6267 137.925 27.456C138.597 27.7867 139.317 27.952 140.085 27.952C141.279 27.952 141.877 27.3173 141.877 26.048V25.424C141.269 25.904 140.613 26.144 139.909 26.144C138.97 26.144 138.261 25.776 137.781 25.04C137.311 24.304 137.077 23.2907 137.077 22C137.077 21.3493 137.157 20.768 137.317 20.256C137.487 19.744 137.711 19.312 137.989 18.96C138.277 18.5973 138.607 18.32 138.981 18.128C139.354 17.936 139.754 17.84 140.181 17.84C141.055 17.84 141.775 18.1013 142.341 18.624ZM141.877 23.712V20.08C141.418 19.6533 140.975 19.44 140.549 19.44C140.122 19.44 139.791 19.664 139.557 20.112C139.322 20.56 139.205 21.2 139.205 22.032C139.205 22.864 139.311 23.4773 139.525 23.872C139.749 24.256 140.037 24.448 140.389 24.448C140.954 24.448 141.45 24.2027 141.877 23.712ZM153.428 24.16L155.748 15.072C155.951 15.0187 156.249 14.992 156.644 14.992C157.039 14.992 157.38 15.04 157.668 15.136L157.764 15.264L154.676 26C154.249 26.0533 153.759 26.08 153.204 26.08C152.66 26.08 152.271 26.016 152.036 25.888C151.801 25.7493 151.631 25.4827 151.524 25.088L148.724 15.264C149.204 15.0507 149.62 14.944 149.972 14.944C150.324 14.944 150.591 15.0293 150.772 15.2C150.953 15.36 151.092 15.6267 151.188 16L152.628 21.152C152.852 21.9733 153.071 22.9173 153.284 23.984C153.305 24.1013 153.353 24.16 153.428 24.16ZM164.927 25.04C164.874 25.232 164.778 25.4347 164.639 25.648C164.501 25.8613 164.362 26.0213 164.223 26.128C163.53 26.0427 163.023 25.7387 162.703 25.216C162.01 25.888 161.253 26.224 160.431 26.224C160.015 26.224 159.647 26.1547 159.327 26.016C159.018 25.888 158.757 25.712 158.543 25.488C158.341 25.264 158.186 25.008 158.079 24.72C157.983 24.432 157.935 24.1333 157.935 23.824C157.935 23.376 158.01 22.9867 158.159 22.656C158.319 22.3147 158.538 22.032 158.815 21.808C159.103 21.584 159.434 21.4133 159.807 21.296C160.191 21.1787 160.607 21.12 161.055 21.12C161.631 21.12 162.079 21.136 162.399 21.168V20.736C162.399 19.9253 162.005 19.52 161.215 19.52C160.682 19.52 159.871 19.7067 158.783 20.08C158.485 19.7493 158.303 19.2533 158.239 18.592C159.37 18.112 160.538 17.872 161.743 17.872C162.543 17.872 163.199 18.096 163.711 18.544C164.223 18.992 164.479 19.6693 164.479 20.576V23.856C164.479 24.4213 164.629 24.816 164.927 25.04ZM160.895 24.64C161.429 24.64 161.93 24.4053 162.399 23.936V22.544C162.229 22.5333 162.063 22.5227 161.903 22.512C161.743 22.5013 161.589 22.496 161.439 22.496C160.97 22.496 160.613 22.5867 160.367 22.768C160.122 22.9387 159.999 23.2267 159.999 23.632C159.999 23.952 160.079 24.2027 160.239 24.384C160.399 24.5547 160.618 24.64 160.895 24.64ZM169.308 24.464H169.804C169.921 24.7627 169.98 25.0507 169.98 25.328C169.98 25.6053 169.964 25.808 169.932 25.936C169.281 26.032 168.764 26.08 168.38 26.08C167.761 26.08 167.308 25.9253 167.02 25.616C166.732 25.296 166.588 24.8 166.588 24.128V14.336L166.7 14.224H167.5C167.916 14.224 168.209 14.3253 168.38 14.528C168.55 14.72 168.636 15.0507 168.636 15.52V23.728C168.636 24.2187 168.86 24.464 169.308 24.464ZM171.212 23.408V19.904C171.212 19.2427 171.1 18.736 170.876 18.384C171.228 18.0853 171.633 17.936 172.092 17.936C172.561 17.936 172.881 18.048 173.052 18.272C173.223 18.4853 173.308 18.8107 173.308 19.248V22.976C173.308 23.4347 173.367 23.7653 173.484 23.968C173.601 24.16 173.82 24.256 174.14 24.256C174.705 24.256 175.233 24.0107 175.724 23.52V18.064C175.959 18.0107 176.3 17.984 176.748 17.984C177.207 17.984 177.564 18.0107 177.82 18.064V23.744C177.82 24.3733 177.969 24.816 178.268 25.072C178.215 25.264 178.119 25.4613 177.98 25.664C177.852 25.8667 177.713 26.0213 177.564 26.128C176.785 26.0533 176.247 25.6747 175.948 24.992C175.127 25.76 174.279 26.144 173.404 26.144C172.689 26.144 172.145 25.8933 171.772 25.392C171.399 24.8907 171.212 24.2293 171.212 23.408ZM186.074 22.704H181.658C181.69 23.2907 181.823 23.7547 182.058 24.096C182.303 24.4267 182.724 24.592 183.322 24.592C183.94 24.592 184.65 24.4107 185.45 24.048C185.759 24.368 185.956 24.7893 186.042 25.312C185.188 25.92 184.164 26.224 182.97 26.224C181.839 26.224 180.98 25.8773 180.394 25.184C179.818 24.48 179.53 23.44 179.53 22.064C179.53 21.424 179.604 20.848 179.754 20.336C179.903 19.8133 180.122 19.3707 180.41 19.008C180.698 18.6347 181.05 18.3467 181.466 18.144C181.882 17.9413 182.356 17.84 182.89 17.84C183.434 17.84 183.914 17.9253 184.33 18.096C184.746 18.256 185.098 18.4907 185.386 18.8C185.674 19.0987 185.887 19.456 186.026 19.872C186.175 20.288 186.25 20.7413 186.25 21.232C186.25 21.4987 186.234 21.7547 186.202 22C186.17 22.2347 186.127 22.4693 186.074 22.704ZM182.986 19.344C182.154 19.344 181.706 19.9733 181.642 21.232H184.298V21.04C184.298 20.528 184.191 20.1173 183.978 19.808C183.764 19.4987 183.434 19.344 182.986 19.344Z" fill="white"/>
<path d="M87.352 53.468L85.546 44.48C85.7233 44.396 85.91 44.354 86.106 44.354C86.3113 44.354 86.4513 44.396 86.526 44.48C86.61 44.564 86.6753 44.7133 86.722 44.928L87.758 50.29L88.234 52.978C88.2433 53.0433 88.2527 53.0853 88.262 53.104C88.2807 53.1133 88.3133 53.118 88.36 53.118L90.082 44.648C90.2873 44.62 90.5347 44.606 90.824 44.606C91.1133 44.606 91.3373 44.62 91.496 44.648L93.078 52.978C93.0967 53.0713 93.134 53.118 93.19 53.118C93.274 52.6513 93.456 51.7087 93.736 50.29L94.968 44.438C95.108 44.41 95.276 44.396 95.472 44.396C95.668 44.396 95.836 44.4147 95.976 44.452L96.032 44.522L93.946 53.986C93.7127 54.0327 93.4373 54.056 93.12 54.056C92.812 54.056 92.602 54.0187 92.49 53.944C92.378 53.86 92.3033 53.706 92.266 53.482L91.482 49.338C91.1833 47.742 90.964 46.552 90.824 45.768H90.74C90.4693 47.252 90.236 48.442 90.04 49.338L89.06 54C88.808 54.0373 88.4767 54.056 88.066 54.056C87.6647 54.056 87.4267 53.86 87.352 53.468ZM101.974 50.878H97.6345C97.6811 52.4647 98.2831 53.258 99.4405 53.258C100.075 53.258 100.752 53.062 101.47 52.67C101.676 52.8567 101.802 53.0947 101.848 53.384C101.083 53.9067 100.224 54.168 99.2725 54.168C98.7871 54.168 98.3718 54.0793 98.0265 53.902C97.6811 53.7153 97.3965 53.4633 97.1725 53.146C96.9578 52.8193 96.7991 52.4367 96.6965 51.998C96.5938 51.5593 96.5425 51.0787 96.5425 50.556C96.5425 50.024 96.6031 49.5387 96.7245 49.1C96.8551 48.6613 97.0418 48.2833 97.2845 47.966C97.5271 47.6487 97.8165 47.4013 98.1525 47.224C98.4978 47.0467 98.8898 46.958 99.3285 46.958C99.7578 46.958 100.14 47.0373 100.476 47.196C100.822 47.3453 101.106 47.5553 101.33 47.826C101.564 48.0873 101.741 48.4047 101.862 48.778C101.984 49.142 102.044 49.534 102.044 49.954C102.044 50.122 102.035 50.2853 102.016 50.444C102.007 50.5933 101.993 50.738 101.974 50.878ZM97.6345 50.08H100.994V49.898C100.994 49.254 100.859 48.736 100.588 48.344C100.318 47.952 99.9118 47.756 99.3705 47.756C98.8385 47.756 98.4231 47.966 98.1245 48.386C97.8351 48.806 97.6718 49.3707 97.6345 50.08ZM111.49 53.426C110.995 53.9207 110.351 54.168 109.558 54.168C109.091 54.168 108.676 54.0793 108.312 53.902C107.957 53.7247 107.654 53.482 107.402 53.174C107.159 52.8567 106.972 52.4787 106.842 52.04C106.72 51.592 106.66 51.102 106.66 50.57C106.66 50.038 106.72 49.5527 106.842 49.114C106.972 48.666 107.159 48.2833 107.402 47.966C107.654 47.6487 107.957 47.4013 108.312 47.224C108.676 47.0467 109.091 46.958 109.558 46.958C110.024 46.958 110.435 47.0467 110.79 47.224C111.154 47.4013 111.457 47.6487 111.7 47.966C111.952 48.2833 112.143 48.666 112.274 49.114C112.404 49.5527 112.47 50.038 112.47 50.57C112.47 51.8207 112.143 52.7727 111.49 53.426ZM109.572 53.356C110.169 53.356 110.622 53.104 110.93 52.6C111.247 52.0867 111.406 51.41 111.406 50.57C111.406 50.1967 111.368 49.842 111.294 49.506C111.228 49.1607 111.121 48.862 110.972 48.61C110.822 48.3487 110.631 48.1433 110.398 47.994C110.164 47.8447 109.884 47.77 109.558 47.77C109.24 47.77 108.965 47.8447 108.732 47.994C108.508 48.134 108.321 48.33 108.172 48.582C108.022 48.834 107.91 49.1327 107.836 49.478C107.77 49.814 107.738 50.178 107.738 50.57C107.738 50.962 107.77 51.326 107.836 51.662C107.91 51.998 108.018 52.292 108.158 52.544C108.307 52.796 108.498 52.9967 108.732 53.146C108.965 53.286 109.245 53.356 109.572 53.356ZM114.567 54V47.91L113.363 47.924C113.335 47.784 113.321 47.6533 113.321 47.532C113.321 47.4013 113.335 47.266 113.363 47.126L114.525 47.154C114.487 46.734 114.459 46.4073 114.441 46.174C114.431 45.9313 114.427 45.7727 114.427 45.698C114.427 45.3993 114.469 45.1287 114.553 44.886C114.646 44.634 114.777 44.4193 114.945 44.242C115.113 44.0553 115.313 43.9107 115.547 43.808C115.789 43.7053 116.06 43.654 116.359 43.654C116.947 43.654 117.502 43.752 118.025 43.948C118.025 44.2467 117.941 44.4847 117.773 44.662C117.502 44.5873 117.264 44.5313 117.059 44.494C116.853 44.4567 116.671 44.438 116.513 44.438C116.149 44.438 115.869 44.5593 115.673 44.802C115.486 45.0353 115.393 45.3713 115.393 45.81C115.393 46.1647 115.435 46.6127 115.519 47.154L117.563 47.126C117.591 47.266 117.605 47.4013 117.605 47.532C117.605 47.6533 117.591 47.784 117.563 47.924L115.575 47.91V54C115.435 54.028 115.267 54.042 115.071 54.042C114.875 54.042 114.707 54.028 114.567 54ZM119.051 54V47.91L117.847 47.924C117.819 47.784 117.805 47.6533 117.805 47.532C117.805 47.4013 117.819 47.266 117.847 47.126L119.009 47.154C118.972 46.734 118.944 46.4073 118.925 46.174C118.916 45.9313 118.911 45.7727 118.911 45.698C118.911 45.3993 118.953 45.1287 119.037 44.886C119.13 44.634 119.261 44.4193 119.429 44.242C119.597 44.0553 119.798 43.9107 120.031 43.808C120.274 43.7053 120.544 43.654 120.843 43.654C121.431 43.654 121.986 43.752 122.509 43.948C122.509 44.2467 122.425 44.4847 122.257 44.662C121.986 44.5873 121.748 44.5313 121.543 44.494C121.338 44.4567 121.156 44.438 120.997 44.438C120.633 44.438 120.353 44.5593 120.157 44.802C119.97 45.0353 119.877 45.3713 119.877 45.81C119.877 46.1647 119.919 46.6127 120.003 47.154L122.047 47.126C122.075 47.266 122.089 47.4013 122.089 47.532C122.089 47.6533 122.075 47.784 122.047 47.924L120.059 47.91V54C119.919 54.028 119.751 54.042 119.555 54.042C119.359 54.042 119.191 54.028 119.051 54ZM128.019 50.878H123.679C123.726 52.4647 124.328 53.258 125.485 53.258C126.12 53.258 126.797 53.062 127.515 52.67C127.721 52.8567 127.847 53.0947 127.893 53.384C127.128 53.9067 126.269 54.168 125.317 54.168C124.832 54.168 124.417 54.0793 124.071 53.902C123.726 53.7153 123.441 53.4633 123.217 53.146C123.003 52.8193 122.844 52.4367 122.741 51.998C122.639 51.5593 122.587 51.0787 122.587 50.556C122.587 50.024 122.648 49.5387 122.769 49.1C122.9 48.6613 123.087 48.2833 123.329 47.966C123.572 47.6487 123.861 47.4013 124.197 47.224C124.543 47.0467 124.935 46.958 125.373 46.958C125.803 46.958 126.185 47.0373 126.521 47.196C126.867 47.3453 127.151 47.5553 127.375 47.826C127.609 48.0873 127.786 48.4047 127.907 48.778C128.029 49.142 128.089 49.534 128.089 49.954C128.089 50.122 128.08 50.2853 128.061 50.444C128.052 50.5933 128.038 50.738 128.019 50.878ZM123.679 50.08H127.039V49.898C127.039 49.254 126.904 48.736 126.633 48.344C126.363 47.952 125.957 47.756 125.415 47.756C124.883 47.756 124.468 47.966 124.169 48.386C123.88 48.806 123.717 49.3707 123.679 50.08ZM129.754 47.616C129.82 47.3733 129.969 47.1773 130.202 47.028C130.725 47.224 131.061 47.6393 131.21 48.274C131.593 47.4527 132.218 47.042 133.086 47.042C133.282 47.042 133.497 47.0607 133.73 47.098C133.73 47.4993 133.651 47.826 133.492 48.078C133.38 48.0687 133.217 48.064 133.002 48.064C132.246 48.064 131.677 48.4887 131.294 49.338V54C131.154 54.028 130.982 54.042 130.776 54.042C130.571 54.042 130.398 54.028 130.258 54V49.044C130.258 48.4093 130.09 47.9333 129.754 47.616ZM141.882 49.562V49.408C141.882 49.2027 141.854 49.002 141.798 48.806C141.742 48.61 141.653 48.4373 141.532 48.288C141.42 48.1387 141.271 48.022 141.084 47.938C140.907 47.8447 140.692 47.798 140.44 47.798C139.908 47.798 139.488 48.0407 139.18 48.526C138.872 49.0113 138.718 49.702 138.718 50.598C138.718 51.494 138.867 52.166 139.166 52.614C139.474 53.0527 139.889 53.272 140.412 53.272C140.963 53.272 141.593 53.0153 142.302 52.502C142.554 52.6513 142.717 52.8707 142.792 53.16C142.073 53.832 141.266 54.168 140.37 54.168C139.922 54.168 139.53 54.0793 139.194 53.902C138.858 53.7247 138.573 53.4867 138.34 53.188C138.107 52.88 137.929 52.5207 137.808 52.11C137.696 51.69 137.64 51.242 137.64 50.766C137.64 50.122 137.71 49.562 137.85 49.086C137.999 48.6007 138.2 48.204 138.452 47.896C138.713 47.5787 139.017 47.3453 139.362 47.196C139.707 47.0373 140.076 46.958 140.468 46.958C140.869 46.958 141.219 47.0233 141.518 47.154C141.817 47.2753 142.064 47.434 142.26 47.63C142.465 47.826 142.619 48.0407 142.722 48.274C142.825 48.5073 142.876 48.7267 142.876 48.932C142.876 49.38 142.694 49.604 142.33 49.604C142.199 49.604 142.05 49.59 141.882 49.562ZM148.964 53.426C148.47 53.9207 147.826 54.168 147.032 54.168C146.566 54.168 146.15 54.0793 145.786 53.902C145.432 53.7247 145.128 53.482 144.876 53.174C144.634 52.8567 144.447 52.4787 144.316 52.04C144.195 51.592 144.134 51.102 144.134 50.57C144.134 50.038 144.195 49.5527 144.316 49.114C144.447 48.666 144.634 48.2833 144.876 47.966C145.128 47.6487 145.432 47.4013 145.786 47.224C146.15 47.0467 146.566 46.958 147.032 46.958C147.499 46.958 147.91 47.0467 148.264 47.224C148.628 47.4013 148.932 47.6487 149.174 47.966C149.426 48.2833 149.618 48.666 149.748 49.114C149.879 49.5527 149.944 50.038 149.944 50.57C149.944 51.8207 149.618 52.7727 148.964 53.426ZM147.046 53.356C147.644 53.356 148.096 53.104 148.404 52.6C148.722 52.0867 148.88 51.41 148.88 50.57C148.88 50.1967 148.843 49.842 148.768 49.506C148.703 49.1607 148.596 48.862 148.446 48.61C148.297 48.3487 148.106 48.1433 147.872 47.994C147.639 47.8447 147.359 47.77 147.032 47.77C146.715 47.77 146.44 47.8447 146.206 47.994C145.982 48.134 145.796 48.33 145.646 48.582C145.497 48.834 145.385 49.1327 145.31 49.478C145.245 49.814 145.212 50.178 145.212 50.57C145.212 50.962 145.245 51.326 145.31 51.662C145.385 51.998 145.492 52.292 145.632 52.544C145.782 52.796 145.973 52.9967 146.206 53.146C146.44 53.286 146.72 53.356 147.046 53.356ZM155.72 49.52C155.72 48.96 155.645 48.5587 155.496 48.316C155.356 48.0733 155.123 47.952 154.796 47.952C154.479 47.952 154.147 48.05 153.802 48.246C153.466 48.442 153.177 48.708 152.934 49.044V54C152.794 54.028 152.621 54.042 152.416 54.042C152.211 54.042 152.038 54.028 151.898 54V47.182L151.982 47.084H152.374C152.598 47.084 152.747 47.1447 152.822 47.266C152.897 47.378 152.934 47.56 152.934 47.812V48.022C153.522 47.35 154.203 47.014 154.978 47.014C155.753 47.014 156.28 47.364 156.56 48.064C157.325 47.364 158.081 47.014 158.828 47.014C159.416 47.014 159.855 47.2147 160.144 47.616C160.433 48.008 160.578 48.526 160.578 49.17V52.67C160.578 53.202 160.634 53.5987 160.746 53.86C160.587 54.0093 160.368 54.084 160.088 54.084C159.733 54.084 159.556 53.8553 159.556 53.398V49.506C159.556 48.946 159.481 48.5493 159.332 48.316C159.192 48.0733 158.959 47.952 158.632 47.952C158.315 47.952 157.988 48.0453 157.652 48.232C157.316 48.4187 157.017 48.68 156.756 49.016V54C156.616 54.028 156.443 54.042 156.238 54.042C156.033 54.042 155.86 54.028 155.72 54V49.52ZM163.994 53.538V56.31C163.994 56.562 163.957 56.7393 163.882 56.842C163.808 56.954 163.658 57.01 163.434 57.01H163.056L162.972 56.926V47.168L163.056 47.084H163.42C163.644 47.084 163.794 47.1447 163.868 47.266C163.952 47.378 163.994 47.5647 163.994 47.826V47.896C164.554 47.2707 165.222 46.958 165.996 46.958C166.79 46.958 167.387 47.28 167.788 47.924C168.19 48.5587 168.39 49.4407 168.39 50.57C168.39 51.1207 168.316 51.6153 168.166 52.054C168.026 52.4927 167.835 52.866 167.592 53.174C167.359 53.4727 167.088 53.706 166.78 53.874C166.472 54.0327 166.155 54.112 165.828 54.112C165.184 54.112 164.573 53.9207 163.994 53.538ZM163.994 48.988V52.586C164.564 53.006 165.1 53.216 165.604 53.216C166.108 53.216 166.524 52.992 166.85 52.544C167.177 52.096 167.34 51.4193 167.34 50.514C167.34 50.066 167.298 49.6787 167.214 49.352C167.14 49.016 167.037 48.7407 166.906 48.526C166.776 48.302 166.622 48.1387 166.444 48.036C166.276 47.924 166.094 47.868 165.898 47.868C165.525 47.868 165.17 47.966 164.834 48.162C164.498 48.358 164.218 48.6333 163.994 48.988ZM175.269 50.878H170.929C170.976 52.4647 171.578 53.258 172.735 53.258C173.37 53.258 174.047 53.062 174.765 52.67C174.971 52.8567 175.097 53.0947 175.143 53.384C174.378 53.9067 173.519 54.168 172.567 54.168C172.082 54.168 171.667 54.0793 171.321 53.902C170.976 53.7153 170.691 53.4633 170.467 53.146C170.253 52.8193 170.094 52.4367 169.991 51.998C169.889 51.5593 169.837 51.0787 169.837 50.556C169.837 50.024 169.898 49.5387 170.019 49.1C170.15 48.6613 170.337 48.2833 170.579 47.966C170.822 47.6487 171.111 47.4013 171.447 47.224C171.793 47.0467 172.185 46.958 172.623 46.958C173.053 46.958 173.435 47.0373 173.771 47.196C174.117 47.3453 174.401 47.5553 174.625 47.826C174.859 48.0873 175.036 48.4047 175.157 48.778C175.279 49.142 175.339 49.534 175.339 49.954C175.339 50.122 175.33 50.2853 175.311 50.444C175.302 50.5933 175.288 50.738 175.269 50.878ZM170.929 50.08H174.289V49.898C174.289 49.254 174.154 48.736 173.883 48.344C173.613 47.952 173.207 47.756 172.665 47.756C172.133 47.756 171.718 47.966 171.419 48.386C171.13 48.806 170.967 49.3707 170.929 50.08ZM180.42 47.126C180.448 47.266 180.462 47.4013 180.462 47.532C180.462 47.6533 180.448 47.784 180.42 47.924L178.642 47.91V52.614C178.642 53.006 178.824 53.202 179.188 53.202H180.252C180.318 53.3607 180.35 53.5193 180.35 53.678C180.35 53.8367 180.341 53.9347 180.322 53.972C179.893 54.028 179.45 54.056 178.992 54.056C178.087 54.056 177.634 53.6687 177.634 52.894V47.91L176.64 47.924C176.612 47.784 176.598 47.6533 176.598 47.532C176.598 47.4013 176.612 47.266 176.64 47.126L177.634 47.14V45.67C177.634 45.418 177.672 45.2407 177.746 45.138C177.821 45.026 177.966 44.97 178.18 44.97H178.558L178.642 45.054V47.154L180.42 47.126ZM183.411 48.092V54C183.271 54.028 183.099 54.042 182.893 54.042C182.688 54.042 182.515 54.028 182.375 54V48.596C182.375 48.3347 182.333 48.1573 182.249 48.064C182.165 47.9707 182.016 47.924 181.801 47.924H181.675C181.638 47.8213 181.619 47.6953 181.619 47.546C181.619 47.3967 181.638 47.266 181.675 47.154C181.853 47.1353 181.997 47.1213 182.109 47.112C182.221 47.0933 182.31 47.084 182.375 47.084H182.487C182.777 47.084 183.001 47.1773 183.159 47.364C183.327 47.5413 183.411 47.784 183.411 48.092ZM182.039 44.732C182.189 44.6387 182.403 44.592 182.683 44.592C182.954 44.592 183.141 44.634 183.243 44.718C183.346 44.802 183.397 44.9793 183.397 45.25C183.397 45.5207 183.341 45.7027 183.229 45.796C183.117 45.88 182.935 45.922 182.683 45.922C182.459 45.922 182.277 45.8893 182.137 45.824C182.007 45.7493 181.941 45.558 181.941 45.25C181.941 45.0353 181.974 44.8627 182.039 44.732ZM188.815 47.126C188.843 47.266 188.857 47.4013 188.857 47.532C188.857 47.6533 188.843 47.784 188.815 47.924L187.037 47.91V52.614C187.037 53.006 187.219 53.202 187.583 53.202H188.647C188.712 53.3607 188.745 53.5193 188.745 53.678C188.745 53.8367 188.736 53.9347 188.717 53.972C188.288 54.028 187.844 54.056 187.387 54.056C186.482 54.056 186.029 53.6687 186.029 52.894V47.91L185.035 47.924C185.007 47.784 184.993 47.6533 184.993 47.532C184.993 47.4013 185.007 47.266 185.035 47.126L186.029 47.14V45.67C186.029 45.418 186.066 45.2407 186.141 45.138C186.216 45.026 186.36 44.97 186.575 44.97H186.953L187.037 45.054V47.154L188.815 47.126ZM191.806 48.092V54C191.666 54.028 191.493 54.042 191.288 54.042C191.082 54.042 190.91 54.028 190.77 54V48.596C190.77 48.3347 190.728 48.1573 190.644 48.064C190.56 47.9707 190.41 47.924 190.196 47.924H190.07C190.032 47.8213 190.014 47.6953 190.014 47.546C190.014 47.3967 190.032 47.266 190.07 47.154C190.247 47.1353 190.392 47.1213 190.504 47.112C190.616 47.0933 190.704 47.084 190.77 47.084H190.882C191.171 47.084 191.395 47.1773 191.554 47.364C191.722 47.5413 191.806 47.784 191.806 48.092ZM190.434 44.732C190.583 44.6387 190.798 44.592 191.078 44.592C191.348 44.592 191.535 44.634 191.638 44.718C191.74 44.802 191.792 44.9793 191.792 45.25C191.792 45.5207 191.736 45.7027 191.624 45.796C191.512 45.88 191.33 45.922 191.078 45.922C190.854 45.922 190.672 45.8893 190.532 45.824C190.401 45.7493 190.336 45.558 190.336 45.25C190.336 45.0353 190.368 44.8627 190.434 44.732ZM196.05 53.104L197.926 47.126C198.075 47.0887 198.21 47.07 198.332 47.07C198.462 47.07 198.64 47.098 198.864 47.154L198.892 47.196C198.033 49.8653 197.268 52.1333 196.596 54C196.409 54.0467 196.185 54.07 195.924 54.07C195.662 54.07 195.48 54.0327 195.378 53.958C195.284 53.874 195.186 53.6873 195.084 53.398L192.998 47.21C193.24 47.0887 193.45 47.028 193.628 47.028C193.898 47.028 194.071 47.1633 194.146 47.434L195.266 50.766C195.546 51.6433 195.765 52.3853 195.924 52.992C195.942 53.0667 195.984 53.104 196.05 53.104ZM204.978 50.878H200.638C200.685 52.4647 201.287 53.258 202.444 53.258C203.079 53.258 203.756 53.062 204.474 52.67C204.68 52.8567 204.806 53.0947 204.852 53.384C204.087 53.9067 203.228 54.168 202.276 54.168C201.791 54.168 201.376 54.0793 201.03 53.902C200.685 53.7153 200.4 53.4633 200.176 53.146C199.962 52.8193 199.803 52.4367 199.7 51.998C199.598 51.5593 199.546 51.0787 199.546 50.556C199.546 50.024 199.607 49.5387 199.728 49.1C199.859 48.6613 200.046 48.2833 200.288 47.966C200.531 47.6487 200.82 47.4013 201.156 47.224C201.502 47.0467 201.894 46.958 202.332 46.958C202.762 46.958 203.144 47.0373 203.48 47.196C203.826 47.3453 204.11 47.5553 204.334 47.826C204.568 48.0873 204.745 48.4047 204.866 48.778C204.988 49.142 205.048 49.534 205.048 49.954C205.048 50.122 205.039 50.2853 205.02 50.444C205.011 50.5933 204.997 50.738 204.978 50.878ZM200.638 50.08H203.998V49.898C203.998 49.254 203.863 48.736 203.592 48.344C203.322 47.952 202.916 47.756 202.374 47.756C201.842 47.756 201.427 47.966 201.128 48.386C200.839 48.806 200.676 49.3707 200.638 50.08ZM211.19 53.538V56.31C211.19 56.562 211.152 56.7393 211.078 56.842C211.003 56.954 210.854 57.01 210.63 57.01H210.252L210.168 56.926V47.168L210.252 47.084H210.616C210.84 47.084 210.989 47.1447 211.064 47.266C211.148 47.378 211.19 47.5647 211.19 47.826V47.896C211.75 47.2707 212.417 46.958 213.192 46.958C213.985 46.958 214.582 47.28 214.984 47.924C215.385 48.5587 215.586 49.4407 215.586 50.57C215.586 51.1207 215.511 51.6153 215.362 52.054C215.222 52.4927 215.03 52.866 214.788 53.174C214.554 53.4727 214.284 53.706 213.976 53.874C213.668 54.0327 213.35 54.112 213.024 54.112C212.38 54.112 211.768 53.9207 211.19 53.538ZM211.19 48.988V52.586C211.759 53.006 212.296 53.216 212.8 53.216C213.304 53.216 213.719 52.992 214.046 52.544C214.372 52.096 214.536 51.4193 214.536 50.514C214.536 50.066 214.494 49.6787 214.41 49.352C214.335 49.016 214.232 48.7407 214.102 48.526C213.971 48.302 213.817 48.1387 213.64 48.036C213.472 47.924 213.29 47.868 213.094 47.868C212.72 47.868 212.366 47.966 212.03 48.162C211.694 48.358 211.414 48.6333 211.19 48.988ZM217.159 47.616C217.224 47.3733 217.373 47.1773 217.607 47.028C218.129 47.224 218.465 47.6393 218.615 48.274C218.997 47.4527 219.623 47.042 220.491 47.042C220.687 47.042 220.901 47.0607 221.135 47.098C221.135 47.4993 221.055 47.826 220.897 48.078C220.785 48.0687 220.621 48.064 220.407 48.064C219.651 48.064 219.081 48.4887 218.699 49.338V54C218.559 54.028 218.386 54.042 218.181 54.042C217.975 54.042 217.803 54.028 217.663 54V49.044C217.663 48.4093 217.495 47.9333 217.159 47.616ZM223.839 48.092V54C223.699 54.028 223.526 54.042 223.321 54.042C223.116 54.042 222.943 54.028 222.803 54V48.596C222.803 48.3347 222.761 48.1573 222.677 48.064C222.593 47.9707 222.444 47.924 222.229 47.924H222.103C222.066 47.8213 222.047 47.6953 222.047 47.546C222.047 47.3967 222.066 47.266 222.103 47.154C222.28 47.1353 222.425 47.1213 222.537 47.112C222.649 47.0933 222.738 47.084 222.803 47.084H222.915C223.204 47.084 223.428 47.1773 223.587 47.364C223.755 47.5413 223.839 47.784 223.839 48.092ZM222.467 44.732C222.616 44.6387 222.831 44.592 223.111 44.592C223.382 44.592 223.568 44.634 223.671 44.718C223.774 44.802 223.825 44.9793 223.825 45.25C223.825 45.5207 223.769 45.7027 223.657 45.796C223.545 45.88 223.363 45.922 223.111 45.922C222.887 45.922 222.705 45.8893 222.565 45.824C222.434 45.7493 222.369 45.558 222.369 45.25C222.369 45.0353 222.402 44.8627 222.467 44.732ZM230.011 49.562V49.408C230.011 49.2027 229.983 49.002 229.927 48.806C229.871 48.61 229.782 48.4373 229.661 48.288C229.549 48.1387 229.4 48.022 229.213 47.938C229.036 47.8447 228.821 47.798 228.569 47.798C228.037 47.798 227.617 48.0407 227.309 48.526C227.001 49.0113 226.847 49.702 226.847 50.598C226.847 51.494 226.996 52.166 227.295 52.614C227.603 53.0527 228.018 53.272 228.541 53.272C229.092 53.272 229.722 53.0153 230.431 52.502C230.683 52.6513 230.846 52.8707 230.921 53.16C230.202 53.832 229.395 54.168 228.499 54.168C228.051 54.168 227.659 54.0793 227.323 53.902C226.987 53.7247 226.702 53.4867 226.469 53.188C226.236 52.88 226.058 52.5207 225.937 52.11C225.825 51.69 225.769 51.242 225.769 50.766C225.769 50.122 225.839 49.562 225.979 49.086C226.128 48.6007 226.329 48.204 226.581 47.896C226.842 47.5787 227.146 47.3453 227.491 47.196C227.836 47.0373 228.205 46.958 228.597 46.958C228.998 46.958 229.348 47.0233 229.647 47.154C229.946 47.2753 230.193 47.434 230.389 47.63C230.594 47.826 230.748 48.0407 230.851 48.274C230.954 48.5073 231.005 48.7267 231.005 48.932C231.005 49.38 230.823 49.604 230.459 49.604C230.328 49.604 230.179 49.59 230.011 49.562ZM237.695 50.878H233.355C233.402 52.4647 234.004 53.258 235.161 53.258C235.796 53.258 236.472 53.062 237.191 52.67C237.396 52.8567 237.522 53.0947 237.569 53.384C236.804 53.9067 235.945 54.168 234.993 54.168C234.508 54.168 234.092 54.0793 233.747 53.902C233.402 53.7153 233.117 53.4633 232.893 53.146C232.678 52.8193 232.52 52.4367 232.417 51.998C232.314 51.5593 232.263 51.0787 232.263 50.556C232.263 50.024 232.324 49.5387 232.445 49.1C232.576 48.6613 232.762 48.2833 233.005 47.966C233.248 47.6487 233.537 47.4013 233.873 47.224C234.218 47.0467 234.61 46.958 235.049 46.958C235.478 46.958 235.861 47.0373 236.197 47.196C236.542 47.3453 236.827 47.5553 237.051 47.826C237.284 48.0873 237.462 48.4047 237.583 48.778C237.704 49.142 237.765 49.534 237.765 49.954C237.765 50.122 237.756 50.2853 237.737 50.444C237.728 50.5933 237.714 50.738 237.695 50.878ZM233.355 50.08H236.715V49.898C236.715 49.254 236.58 48.736 236.309 48.344C236.038 47.952 235.632 47.756 235.091 47.756C234.559 47.756 234.144 47.966 233.845 48.386C233.556 48.806 233.392 49.3707 233.355 50.08ZM239.094 53.468C239.104 53.1787 239.239 52.9267 239.5 52.712C239.92 52.9547 240.294 53.1227 240.62 53.216C240.956 53.3093 241.26 53.356 241.53 53.356C241.764 53.356 241.964 53.328 242.132 53.272C242.31 53.2067 242.459 53.1273 242.58 53.034C242.702 52.9313 242.795 52.8193 242.86 52.698C242.926 52.5767 242.963 52.4553 242.972 52.334C242.972 52.054 242.884 51.8207 242.706 51.634C242.538 51.438 242.286 51.2747 241.95 51.144L241.166 50.836C240.569 50.6027 240.121 50.332 239.822 50.024C239.524 49.7067 239.374 49.3287 239.374 48.89C239.374 48.6007 239.435 48.3393 239.556 48.106C239.678 47.8633 239.846 47.658 240.06 47.49C240.275 47.322 240.527 47.1913 240.816 47.098C241.106 47.0047 241.423 46.958 241.768 46.958C242.459 46.958 243.15 47.112 243.84 47.42C243.84 47.7467 243.733 48.0173 243.518 48.232C243.164 48.0733 242.837 47.9613 242.538 47.896C242.249 47.8307 241.983 47.798 241.74 47.798C241.311 47.798 240.984 47.896 240.76 48.092C240.546 48.288 240.438 48.512 240.438 48.764C240.438 49.0347 240.522 49.2493 240.69 49.408C240.858 49.5573 241.124 49.702 241.488 49.842L242.314 50.164C243.472 50.6213 244.05 51.298 244.05 52.194C244.05 52.8193 243.812 53.3047 243.336 53.65C242.86 53.9953 242.216 54.168 241.404 54.168C240.611 54.168 239.841 53.9347 239.094 53.468Z" fill="white" fill-opacity="0.8"/>
</g>
</g>
<defs>
<clipPath id="clip0_127_1026">
<rect width="297" height="72" fill="white"/>
</clipPath>
<clipPath id="clip1_127_1026">
<rect width="48" height="48" fill="white" transform="translate(1 12)"/>
</clipPath>
<clipPath id="clip2_127_1026">
<rect width="246" height="70" fill="white" transform="translate(86 1)"/>
</clipPath>
</defs>
</svg>
