<svg width="1767" height="354" viewBox="0 0 1767 354" fill="none" xmlns="http://www.w3.org/2000/svg">
<path d="M56.8381 345.028C47.1795 344.314 40.1213 341.546 35.6635 336.724C31.2057 331.903 28.9768 326.811 28.9768 321.449C29.1551 317.905 30.1042 314.436 31.7629 311.266L31.2057 312.338V87.329C30.4172 87.6592 29.5434 87.7523 28.6988 87.5963C27.8818 87.3872 27.0367 87.297 26.1919 87.329C18.3908 87.329 12.0759 85.2754 7.24746 81.1682C4.93765 79.2988 3.08924 76.9588 1.83615 74.3177C0.583053 71.6766 -0.043347 68.8006 0.00233009 65.898C0.00233009 58.0399 4.5528 50.5394 13.6537 43.3965C23.7103 35.7161 34.8796 29.4891 46.808 24.9128C59.8856 19.7104 73.4001 15.5879 87.205 12.59C101.135 9.55427 112.93 8.03643 122.588 8.03643C140.047 8.03643 155.742 10.7153 169.672 16.0731C182.761 20.9353 194.839 28.0121 205.333 36.9684C214.699 44.9366 222.364 54.5807 227.9 65.3633C233.101 75.7217 235.701 85.7225 235.701 95.3657C235.701 107.863 231.986 120.453 224.557 133.136C217.155 145.784 207.323 156.965 195.582 166.085C213.413 175.371 226.691 186.801 235.418 200.373C244.145 213.945 248.51 228.054 248.513 242.698C248.459 252.608 246.475 262.421 242.662 271.628C238.742 281.304 233.292 290.34 226.503 298.417C219.492 306.757 211.338 314.147 202.264 320.382C193.206 326.696 183.265 331.747 172.736 335.384C159.219 339.414 145.31 342.106 131.225 343.421C116.691 344.843 102.093 345.558 87.4842 345.564H72.4404C67.6111 345.564 62.5965 345.385 57.3965 345.028H56.8381ZM174.965 211.624C166.83 206.641 158.017 202.764 148.777 200.106C139.134 197.359 129.248 195.476 119.245 194.481C114.044 195.195 108.658 195.82 103.085 196.355C97.5131 196.891 91.7555 197.159 85.8126 197.159V298.412C93.9852 298.412 104.201 297.966 116.459 297.073C128.491 296.223 140.372 293.975 151.842 290.377C162.621 287.105 172.58 281.725 181.094 274.576C189.267 267.612 193.353 258.057 193.353 245.913C193.443 239.153 191.92 232.462 188.9 226.357C185.77 220.296 180.944 215.194 174.965 211.624ZM85.8126 145.726C91.0133 145.726 96.0279 145.815 100.856 145.994C105.685 146.172 110.7 146.44 115.9 146.797C122.168 146.135 128.338 144.787 134.288 142.779C141.779 140.431 148.974 137.287 155.74 133.406C162.436 129.622 168.379 124.725 173.292 118.941C178.07 113.366 180.637 106.342 180.536 99.1184C180.736 92.2972 178.794 85.5764 174.964 79.8316C171.231 74.4587 166.278 69.9712 160.478 66.708C154.388 63.2562 147.826 60.6415 140.981 58.9398C134.073 57.1729 126.956 56.2724 119.808 56.2609C108.245 56.2081 96.7538 58.0183 85.8126 61.6164V145.726ZM312.595 159.121C305.534 155.192 300.612 151.352 297.829 147.602C295.134 144.116 293.67 139.892 293.65 135.548C293.633 132.584 294.298 129.654 295.598 126.968C296.899 124.281 298.803 121.905 301.172 120.01C306.187 115.724 312.78 113.581 320.953 113.581C326.525 113.581 332.933 115.008 340.177 117.862C346.728 120.328 352.839 123.764 358.286 128.046C368.983 119.618 380.671 112.426 393.111 106.616C404.675 101.288 417.341 98.5407 430.164 98.5792C433.879 98.5792 439.544 99.4721 447.159 101.258C454.926 103.1 462.416 105.891 469.447 109.562C476.666 113.294 483.168 118.186 488.671 124.027C494.117 129.61 497.111 136.999 497.029 144.654C497.106 147.664 496.469 150.652 495.165 153.391C493.862 156.129 491.927 158.546 489.507 160.458C484.46 164.577 478.016 166.77 471.398 166.619C466.888 166.799 462.425 165.68 458.582 163.405C455.062 161.13 451.711 158.624 448.551 155.904C445.726 153.225 442.648 150.804 439.358 148.671C435.828 146.35 432.578 145.189 429.609 145.189C425.523 145.189 420.694 146.617 415.122 149.471C409.305 152.478 403.719 155.882 398.406 159.654C392.665 163.718 387.177 168.1 381.969 172.78C376.582 177.602 372.032 181.798 368.317 185.37V325.737C367.946 334.666 364.881 341.274 359.124 345.559C354.021 349.616 347.635 351.884 341.014 351.989C334.497 352.047 328.172 349.862 323.184 345.828C317.984 341.721 314.826 335.559 313.711 327.344V159.657L312.595 159.121ZM593.984 323.603C593.612 332.529 590.64 339.135 585.068 343.421C579.908 347.564 573.403 349.838 566.681 349.85C560.209 349.921 553.91 347.839 548.851 343.957C543.65 340.028 540.492 333.956 539.378 325.741L537.706 122.153C539.564 114.652 542.907 109.027 547.736 105.277C552.626 101.506 558.742 99.5143 565.009 99.6519C570.992 99.6638 576.827 101.441 581.726 104.743C586.927 108.138 590.457 113.406 592.317 120.548L593.984 323.603ZM533.808 36.9684C533.756 33.0242 534.545 29.1115 536.126 25.4717C537.707 21.832 540.047 18.5423 543.002 15.8058C545.848 12.9649 549.269 10.7149 553.055 9.19454C556.84 7.67419 560.909 6.91576 565.011 6.96605C569.201 6.87938 573.366 7.61901 577.247 9.13934C581.128 10.6597 584.644 12.9285 587.578 15.8058C590.533 18.5423 592.873 21.832 594.454 25.4717C596.036 29.1115 596.824 33.0242 596.772 36.9684C596.84 40.8751 596.058 44.7522 594.474 48.3507C592.891 51.9491 590.542 55.1892 587.578 57.8625C584.604 60.669 581.074 62.8736 577.198 64.346C573.322 65.8184 569.178 66.5287 565.011 66.4349C560.933 66.4935 556.884 65.7651 553.103 64.2927C549.323 62.8202 545.888 60.6337 543.002 57.8625C540.038 55.1894 537.688 51.9494 536.104 48.351C534.521 44.7525 533.738 40.8752 533.806 36.9684H533.808Z" fill="#F99232"/>
<path d="M704.326 345.028C694.668 344.314 687.61 341.546 683.152 336.724C678.694 331.903 676.465 326.811 676.465 321.449C676.643 317.905 677.593 314.436 679.251 311.266L678.694 312.338V87.329C677.906 87.6592 677.032 87.7524 676.187 87.5963C675.37 87.3872 674.525 87.2971 673.68 87.329C665.879 87.329 659.564 85.2754 654.736 81.1682C652.426 79.2988 650.578 76.9588 649.324 74.3177C648.071 71.6766 647.445 68.8006 647.491 65.898C647.491 58.0399 652.041 50.5395 661.142 43.3965C671.199 35.7161 682.368 29.4891 694.296 24.9128C707.374 19.7104 720.888 15.5879 734.693 12.59C748.624 9.55429 760.418 8.03645 770.076 8.03645C787.535 8.03645 803.23 10.7153 817.16 16.0731C830.249 20.9353 842.327 28.0121 852.821 36.9684C862.188 44.9366 869.852 54.5808 875.388 65.3634C880.589 75.7217 883.189 85.7225 883.189 95.3657C883.189 107.863 879.475 120.453 872.045 133.136C864.644 145.784 854.811 156.965 843.07 166.085C860.901 175.371 874.18 186.801 882.907 200.373C891.634 213.945 895.998 228.054 896.001 242.698C895.947 252.608 893.963 262.421 890.151 271.628C886.231 281.304 880.78 290.34 873.991 298.417C866.98 306.757 858.826 314.147 849.752 320.382C840.694 326.696 830.753 331.747 820.224 335.384C806.707 339.414 792.798 342.106 778.713 343.421C764.18 344.843 749.581 345.558 734.973 345.564H719.929C715.099 345.564 710.085 345.385 704.885 345.028H704.326ZM822.453 211.625C814.319 206.641 805.506 202.764 796.265 200.106C786.622 197.359 776.736 195.476 766.733 194.481C761.532 195.195 756.146 195.82 750.574 196.355C745.001 196.891 739.244 197.159 733.301 197.159V298.412C741.473 298.412 751.689 297.966 763.947 297.073C775.979 296.223 787.86 293.975 799.33 290.377C810.109 287.105 820.069 281.725 828.583 274.576C836.755 267.612 840.842 258.057 840.842 245.913C840.931 239.153 839.408 232.462 836.389 226.357C833.259 220.296 828.433 215.194 822.453 211.625ZM733.301 145.726C738.502 145.726 743.516 145.815 748.345 145.994C753.173 146.172 758.188 146.44 763.389 146.797C769.657 146.135 775.826 144.787 781.776 142.779C789.267 140.431 796.462 137.287 803.228 133.406C809.924 129.622 815.867 124.725 820.78 118.941C825.558 113.366 828.125 106.342 828.024 99.1184C828.224 92.2973 826.282 85.5764 822.452 79.8316C818.72 74.4587 813.766 69.9713 807.967 66.708C801.877 63.2563 795.314 60.6415 788.47 58.9398C781.562 57.1729 774.445 56.2724 767.296 56.261C755.733 56.2081 744.242 58.0183 733.301 61.6164V145.726ZM1392.47 321.455C1392.1 330.028 1389.32 336.457 1384.12 340.742C1379.02 344.991 1372.47 347.281 1365.73 347.171C1359.28 347.127 1353.02 345.057 1347.9 341.278C1342.33 337.349 1338.98 331.456 1337.87 323.598V22.5036C1339.73 15.0027 1343.07 9.37724 1347.9 5.6272C1352.61 1.91756 1358.53 -0.0745189 1364.61 0.00213231C1370.7 -0.0673445 1376.64 1.71488 1381.61 5.09374C1386.62 8.48814 1390.24 13.7564 1392.47 20.8986V169.839C1399.97 165.407 1407.14 160.484 1413.93 155.105C1420.43 149.927 1426.92 144.212 1433.42 137.962C1439.92 131.711 1446.61 124.836 1453.48 117.335C1460.35 109.834 1468.06 101.618 1476.61 92.6868C1480.14 89.7749 1484.2 87.5058 1488.59 85.9902C1492.26 84.7765 1496.12 84.1434 1500.01 84.1155C1507.44 84.1155 1513.57 86.2587 1518.4 90.5449C1520.7 92.4794 1522.54 94.8696 1523.79 97.5515C1525.04 100.233 1525.67 103.143 1525.64 106.082C1525.64 111.797 1523.04 118.046 1517.84 124.829C1504.84 139.473 1492.58 152.331 1481.06 163.403C1469.4 174.599 1456.92 184.983 1443.73 194.477L1545.71 303.775C1551.65 312.704 1554.62 319.49 1554.62 324.133C1554.64 327.085 1554.04 330.011 1552.84 332.729C1551.64 335.448 1549.88 337.901 1547.66 339.939C1543.01 344.4 1536.97 346.631 1529.54 346.631C1525.45 346.629 1521.39 345.903 1517.56 344.488C1513.25 342.791 1509.35 340.234 1506.14 336.987L1466.02 294.131C1454.88 281.633 1444.01 269.668 1433.43 258.235C1422.84 246.802 1411.23 234.658 1398.6 221.804C1397.75 222.393 1396.81 222.846 1395.81 223.143C1394.66 223.483 1393.54 223.932 1392.47 224.482L1392.47 321.455ZM1580.71 302.709C1575.51 292.35 1575.42 283.689 1580.43 276.724C1585.45 269.76 1592.79 266.277 1602.44 266.277C1608.76 266.277 1615.63 268.599 1623.06 273.242C1630.74 283.137 1640.17 291.66 1650.92 298.423C1661.69 305.211 1673.02 307.533 1684.91 305.388C1690.25 304.415 1695.29 302.31 1699.68 299.227C1703.65 296.519 1706.9 292.937 1709.15 288.78C1711.21 284.783 1712.26 280.375 1712.21 275.915C1712.24 271.356 1710.88 266.888 1708.31 263.057C1705.43 258.551 1701.75 254.562 1697.45 251.27C1693.74 248.514 1689.6 246.344 1685.19 244.84C1681.19 243.483 1677.09 242.408 1672.93 241.626C1669.25 240.966 1665.62 240.071 1662.06 238.947C1656.49 237.518 1650.92 236 1645.35 234.393C1639.78 232.79 1634.38 230.729 1629.19 228.232C1623.83 225.639 1618.79 222.496 1614.14 218.859C1608.91 214.698 1604.23 209.929 1600.21 204.662C1596.15 199.354 1592.96 193.483 1590.74 187.25C1588.63 181.662 1587.5 175.779 1587.4 169.837C1587.46 161.967 1588.97 154.169 1591.85 146.8C1594.76 139.06 1598.79 131.754 1603.83 125.102C1608.81 118.529 1614.82 112.745 1621.66 107.958C1628.23 103.271 1635.72 99.9006 1643.67 98.0469C1659.6 94.1061 1676.24 93.5575 1692.42 96.4396C1708.33 98.9626 1723.68 104.032 1737.85 111.438C1742.46 114.436 1746.43 118.255 1749.55 122.689C1751.94 126.003 1753.29 129.908 1753.45 133.94C1753.5 138.047 1752.24 142.07 1749.83 145.459C1747.37 148.888 1744.13 151.729 1740.35 153.763C1736.27 155.951 1731.66 157.06 1726.98 156.978C1721.4 156.832 1715.94 155.361 1711.09 152.696C1705.11 150.037 1698.85 147.973 1692.43 146.535C1684.71 144.594 1676.71 143.871 1668.75 144.392C1661.6 144.684 1654.75 147.225 1649.25 151.625C1644.05 155.911 1642.01 163.054 1643.12 173.054C1645.19 176.788 1647.92 180.142 1651.2 182.966C1654.39 185.663 1657.95 187.917 1661.79 189.662C1665.84 191.501 1670.03 193.024 1674.33 194.216C1678.78 195.466 1683.06 196.626 1687.14 197.698C1697.97 200.674 1708.58 204.343 1718.9 208.681C1728.04 212.473 1736.51 217.628 1743.98 223.955C1751.05 230.045 1756.66 237.54 1760.42 245.921C1764.32 254.494 1766.27 264.852 1766.27 276.995C1766.24 286.733 1763.96 296.343 1759.58 305.123C1755.19 314.136 1749.26 322.377 1742.03 329.5C1734.88 336.573 1726.48 342.372 1717.23 346.631C1708.57 350.776 1699.04 352.976 1689.37 353.065C1668.34 353.015 1647.58 348.438 1628.63 339.67C1608.95 330.741 1593.16 318.418 1581.27 302.703L1580.71 302.709Z" fill="#148108"/>
<path d="M1270.18 108.773C1236.72 110.421 1175.83 116.419 1134.78 138.232C1133.46 138.904 1132.35 139.907 1131.57 141.135C1130.78 142.363 1130.36 143.772 1130.34 145.211V338.043C1130.34 344.164 1138.06 348.033 1144.56 345.192C1186.79 326.74 1242.27 321.702 1272.47 320.327C1282.78 319.855 1290.8 312.68 1290.8 304.079V125.042C1290.8 115.657 1281.42 108.221 1270.18 108.773ZM1095.15 138.232C1054.11 116.419 993.214 110.426 959.757 108.773C948.513 108.221 939.136 115.657 939.136 125.042V304.081C939.136 312.687 947.152 319.863 957.464 320.329C987.679 321.707 1043.18 326.747 1085.42 345.209C1091.9 348.044 1099.59 344.181 1099.59 338.076V145.116C1099.57 143.689 1099.15 142.294 1098.37 141.081C1097.58 139.868 1096.47 138.883 1095.15 138.232Z" fill="#00AB47"/>
<path d="M1129.5 142.156H1098.2C1096.21 142.156 1094.59 143.711 1094.59 145.628V343.506C1094.59 345.424 1096.21 346.978 1098.2 346.978H1129.5C1131.49 346.978 1133.11 345.424 1133.11 343.506V145.628C1133.11 143.711 1131.49 142.156 1129.5 142.156Z" fill="#148108"/>
<path d="M1730.2 0.397461L1727.48 0.440559L1724.78 0.690525L1722.12 1.13012L1719.48 1.75935L1716.9 2.5782L1714.39 3.57806L1711.95 4.75894L1709.6 6.1122L1707.35 7.63786L1705.23 9.31005L1703.23 11.1374L1701.37 13.1026L1699.66 15.2058L1698.1 17.4124L1696.69 19.731L1695.48 22.1531L1694.42 24.6528L1693.56 27.2128L1692.88 29.8417L1692.4 32.4966L1692.11 35.1945L1692 37.901L1692.11 40.6075L1692.4 43.3054L1692.88 45.9603L1693.56 48.5892L1694.42 51.1492L1695.48 53.6489L1696.69 56.071L1698.1 58.3896L1699.66 60.5962L1701.37 62.6907L1703.23 64.6646L1705.23 66.4833L1707.35 68.1641L1709.6 69.6898L1711.95 71.0431L1714.39 72.2239L1716.9 73.2324L1719.48 74.0427L1722.12 74.6719L1724.78 75.1201L1727.48 75.3614L1730.2 75.4045L1732.89 75.258L1735.58 74.9218L1738.25 74.3788L1740.85 73.6634L1743.4 72.7411L1745.87 71.655L1748.28 70.388L1750.56 68.9485L1752.75 67.3453L1754.82 65.5955L1756.75 63.6992L1758.54 61.665L1760.17 59.5101L1761.66 57.2346L1762.98 54.8728L1764.1 52.4077L1765.07 49.8735L1765.84 47.2877L1766.41 44.6328L1766.81 41.9522L1767 39.2629V36.5477L1766.81 33.8498L1766.41 31.1692L1765.84 28.5143L1765.07 25.9199L1764.1 23.3943L1762.98 20.9292L1761.66 18.5674L1760.17 16.2919L1758.54 14.137L1756.75 12.1028L1754.82 10.2065L1752.75 8.45671L1750.56 6.85348L1748.28 5.41402L1745.87 4.14695L1743.4 3.05227L1740.85 2.1386L1738.25 1.41456L1735.58 0.880154L1732.89 0.543993L1730.2 0.397461ZM1728.88 4.81066L1731.44 4.85375L1734 5.11234L1736.52 5.55193L1739 6.1984L1741.43 7.02587L1743.8 8.04298L1746.06 9.23247L1748.24 10.603L1750.3 12.1372L1752.23 13.8267L1754.03 15.6626L1755.67 17.6193L1757.17 19.7138L1758.49 21.9118L1759.65 24.2046L1760.61 26.5836L1761.4 29.0315L1761.99 31.5226L1762.39 34.0567L1762.59 36.6167V39.1853L1762.39 41.7367L1761.99 44.2708L1761.4 46.7705L1760.61 49.2184L1759.65 51.5974L1758.49 53.8902L1757.17 56.0882L1755.67 58.1741L1754.03 60.1394L1752.23 61.9753L1750.3 63.6647L1748.24 65.1904L1746.06 66.5695L1743.8 67.759L1741.43 68.7761L1739 69.6036L1736.52 70.2414L1734 70.6897L1731.44 70.9482L1728.88 70.9913L1726.32 70.8448L1723.77 70.5L1721.27 69.957L1718.8 69.2157L1716.41 68.2934L1714.09 67.1901L1711.87 65.9058L1709.75 64.4491L1707.75 62.8373L1705.89 61.0789L1704.16 59.1826L1702.6 57.1484L1701.18 55.0021L1699.94 52.7524L1698.88 50.4165L1698 48.0031L1697.3 45.5293L1696.81 43.0124L1696.52 40.461L1696.42 37.901L1696.52 35.341L1696.81 32.7896L1697.3 30.2727L1698 27.7989L1698.88 25.3768L1699.94 23.0409L1701.18 20.7913L1702.6 18.6536L1704.16 16.628L1705.89 14.7231L1707.75 12.9647L1709.75 11.3529L1711.87 9.89617L1714.09 8.61187L1716.41 7.50857L1718.8 6.58628L1721.27 5.845L1723.77 5.31059L1726.32 4.95719L1728.88 4.81066ZM1718.46 18.0416V22.4548V35.6944V40.1076V56.6571H1722.87V40.1076H1733.9C1734.13 40.1035 1734.37 40.092 1734.6 40.0731L1741.23 56.6571H1745.99L1738.88 38.9009C1740.7 37.9811 1742.23 36.5763 1743.3 34.8419C1744.36 33.1076 1744.93 31.1114 1744.93 29.0746C1744.93 26.1485 1743.77 23.3422 1741.7 21.2731C1739.63 19.204 1736.83 18.0416 1733.9 18.0416H1722.87H1718.46ZM1722.87 22.4548H1733.9C1735.66 22.4548 1737.34 23.1523 1738.58 24.3937C1739.82 25.6352 1740.52 27.3189 1740.52 29.0746C1740.52 30.8303 1739.82 32.5141 1738.58 33.7555C1737.34 34.997 1735.66 35.6944 1733.9 35.6944H1722.87V22.4548Z" fill="#084481"/>
</svg>
