<svg width="143" height="109" viewBox="0 0 143 109" fill="none" xmlns="http://www.w3.org/2000/svg">
<path d="M6.29831 0H136.196C139.462 0 142.119 2.65719 142.119 5.92331V81.8192C142.119 85.0853 139.462 87.7425 136.196 87.7425H6.29831C3.03219 87.7425 0.375 85.0853 0.375 81.8192V5.92331C0.375 2.65719 3.03219 0 6.29831 0Z" fill="url(#paint0_linear_731_1218)"/>
<path d="M0.873222 3.57056C0.541074 4.29021 0.375 5.0929 0.375 5.92327V81.8192C0.375 85.0853 3.03219 87.7424 6.29831 87.7424H61.8224V3.57056H0.873222Z" fill="url(#paint1_linear_731_1218)"/>
<path d="M65.2871 51.0401L101.989 87.7425H136.201C139.467 87.7425 142.124 85.0853 142.124 81.8192V5.92333C142.124 5.12064 141.958 4.31795 141.654 3.62598L65.2871 51.0401Z" fill="url(#paint2_linear_731_1218)"/>
<path d="M136.168 87.7425H6.29813C3.86238 87.7425 1.78645 86.2755 0.873047 84.1719L65.2821 36.7023C68.825 34.1005 73.6689 34.1005 77.2118 36.7023L141.621 84.1719C140.707 86.2755 138.604 87.7425 136.168 87.7425Z" fill="url(#paint3_linear_731_1218)"/>
<path d="M0.375 38.1694V81.8469C0.375 85.1131 3.03219 87.7702 6.29831 87.7702H136.196C139.462 87.7702 142.119 85.1131 142.119 81.8469V38.1694H0.375Z" fill="url(#paint4_linear_731_1218)"/>
<path d="M136.172 0H79.9287V87.7148H136.2C139.466 87.7148 142.123 85.0576 142.123 81.7915V5.92331C142.096 2.65719 139.439 0 136.172 0Z" fill="url(#paint5_linear_731_1218)"/>
<path d="M65.2861 51.0401L101.989 87.7425H136.2C139.466 87.7425 142.123 85.0853 142.123 81.8192V5.92333C142.123 5.12064 141.957 4.31795 141.653 3.62598L65.2861 51.0401Z" fill="url(#paint6_linear_731_1218)"/>
<path d="M136.171 0H6.30106C3.86531 0 1.78938 1.46699 0.875977 3.57059L65.2851 51.0401C68.828 53.6419 73.6718 53.6419 77.2147 51.0401L141.596 3.57059C140.71 1.46699 138.607 0 136.171 0Z" fill="url(#paint7_linear_731_1218)"/>
<path d="M136.171 0H6.30107C3.86531 0 1.78938 1.46699 0.875977 3.57059L65.2851 51.0401C68.828 53.6419 73.6718 53.6419 77.2147 51.0401L141.596 3.57059C140.71 1.46699 138.607 0 136.171 0Z" fill="url(#paint8_linear_731_1218)"/>
<path d="M58.583 78.9683L67.3573 87.7425H82.4423L58.583 78.9683Z" fill="url(#paint9_linear_731_1218)"/>
<path d="M136.17 87.7425C139.436 87.7425 142.093 85.0853 142.093 81.8191V32.9657L132.572 23.4441L125.846 30.1701V87.7148H136.17V87.7425Z" fill="url(#paint10_linear_731_1218)"/>
<path d="M89.085 90.8428V106.094C89.085 108.087 91.493 109.083 92.9047 107.672L106.44 94.1366L89.085 90.8428Z" fill="url(#paint11_linear_731_1218)"/>
<path d="M89.085 90.8428V106.094C89.085 108.087 91.493 109.083 92.9047 107.672L106.44 94.1366L89.085 90.8428Z" fill="url(#paint12_linear_731_1218)"/>
<path d="M89.085 90.8428V106.094C89.085 108.087 91.493 109.083 92.9047 107.672L106.44 94.1366L89.085 90.8428Z" fill="url(#paint13_linear_731_1218)"/>
<path d="M59.3028 79.3836L126.507 105.236C128.196 105.872 130.023 104.682 130.078 102.883L133.095 25.1604C133.178 22.9461 130.659 21.6175 128.888 22.9461L58.6662 74.7889C57.0054 76.0345 57.3376 78.6363 59.3028 79.3836Z" fill="url(#paint14_linear_731_1218)"/>
<path d="M91.2414 50.7358L58.6909 74.7889C57.0302 76.0345 57.3623 78.6363 59.2998 79.3836L126.505 105.236C128.193 105.872 130.02 104.682 130.075 102.883L131.487 66.8727L91.2414 50.7358Z" fill="url(#paint15_linear_731_1218)"/>
<path d="M131.492 22.614L89.0881 90.8428L59.3055 79.3837C57.368 78.6363 57.0082 76.0345 58.6966 74.8166L128.918 22.9462C129.721 22.3095 130.69 22.2819 131.492 22.614Z" fill="url(#paint16_linear_731_1218)"/>
<path d="M131.489 22.614L89.085 90.8428L126.507 105.236C128.195 105.9 130.022 104.682 130.078 102.883L133.095 25.1605C133.15 23.9426 132.43 23.0015 131.489 22.614Z" fill="url(#paint17_linear_731_1218)"/>
<defs>
<linearGradient id="paint0_linear_731_1218" x1="61.2888" y1="15.8651" x2="88.7123" y2="93.0989" gradientUnits="userSpaceOnUse">
<stop stop-color="#FEF0AE"/>
<stop offset="1" stop-color="#FAC600"/>
</linearGradient>
<linearGradient id="paint1_linear_731_1218" x1="32.5303" y1="44.4489" x2="47.6574" y2="29.0566" gradientUnits="userSpaceOnUse">
<stop stop-color="#FE9738" stop-opacity="0"/>
<stop offset="0.1025" stop-color="#FE9738" stop-opacity="0.02"/>
<stop offset="0.2265" stop-color="#FE9738" stop-opacity="0.078"/>
<stop offset="0.3615" stop-color="#FE9738" stop-opacity="0.175"/>
<stop offset="0.5046" stop-color="#FE9738" stop-opacity="0.31"/>
<stop offset="0.6539" stop-color="#FE9738" stop-opacity="0.483"/>
<stop offset="0.8085" stop-color="#FE9738" stop-opacity="0.695"/>
<stop offset="0.9645" stop-color="#FE9738" stop-opacity="0.94"/>
<stop offset="1" stop-color="#FE9738"/>
</linearGradient>
<linearGradient id="paint2_linear_731_1218" x1="115.425" y1="48.231" x2="105.605" y2="64.1545" gradientUnits="userSpaceOnUse">
<stop stop-color="#FE9738" stop-opacity="0"/>
<stop offset="0.1025" stop-color="#FE9738" stop-opacity="0.02"/>
<stop offset="0.2265" stop-color="#FE9738" stop-opacity="0.078"/>
<stop offset="0.3615" stop-color="#FE9738" stop-opacity="0.175"/>
<stop offset="0.5046" stop-color="#FE9738" stop-opacity="0.31"/>
<stop offset="0.6539" stop-color="#FE9738" stop-opacity="0.483"/>
<stop offset="0.8085" stop-color="#FE9738" stop-opacity="0.695"/>
<stop offset="0.9645" stop-color="#FE9738" stop-opacity="0.94"/>
<stop offset="1" stop-color="#FE9738"/>
</linearGradient>
<linearGradient id="paint3_linear_731_1218" x1="59.1689" y1="50.2764" x2="75.8882" y2="97.2499" gradientUnits="userSpaceOnUse">
<stop stop-color="#FEF0AE"/>
<stop offset="1" stop-color="#FAC600"/>
</linearGradient>
<linearGradient id="paint4_linear_731_1218" x1="71.2333" y1="76.8542" x2="71.2333" y2="86.7627" gradientUnits="userSpaceOnUse">
<stop stop-color="#FE9738" stop-opacity="0"/>
<stop offset="0.1025" stop-color="#FE9738" stop-opacity="0.02"/>
<stop offset="0.2265" stop-color="#FE9738" stop-opacity="0.078"/>
<stop offset="0.3615" stop-color="#FE9738" stop-opacity="0.175"/>
<stop offset="0.5046" stop-color="#FE9738" stop-opacity="0.31"/>
<stop offset="0.6539" stop-color="#FE9738" stop-opacity="0.483"/>
<stop offset="0.8085" stop-color="#FE9738" stop-opacity="0.695"/>
<stop offset="0.9645" stop-color="#FE9738" stop-opacity="0.94"/>
<stop offset="1" stop-color="#FE9738"/>
</linearGradient>
<linearGradient id="paint5_linear_731_1218" x1="132.995" y1="43.8721" x2="142.549" y2="43.8721" gradientUnits="userSpaceOnUse">
<stop stop-color="#FE9738" stop-opacity="0"/>
<stop offset="0.1025" stop-color="#FE9738" stop-opacity="0.02"/>
<stop offset="0.2265" stop-color="#FE9738" stop-opacity="0.078"/>
<stop offset="0.3615" stop-color="#FE9738" stop-opacity="0.175"/>
<stop offset="0.5046" stop-color="#FE9738" stop-opacity="0.31"/>
<stop offset="0.6539" stop-color="#FE9738" stop-opacity="0.483"/>
<stop offset="0.8085" stop-color="#FE9738" stop-opacity="0.695"/>
<stop offset="0.9645" stop-color="#FE9738" stop-opacity="0.94"/>
<stop offset="1" stop-color="#FE9738"/>
</linearGradient>
<linearGradient id="paint6_linear_731_1218" x1="114.632" y1="43.7052" x2="103.221" y2="26.986" gradientUnits="userSpaceOnUse">
<stop stop-color="#FE9738" stop-opacity="0"/>
<stop offset="0.1025" stop-color="#FE9738" stop-opacity="0.02"/>
<stop offset="0.2265" stop-color="#FE9738" stop-opacity="0.078"/>
<stop offset="0.3615" stop-color="#FE9738" stop-opacity="0.175"/>
<stop offset="0.5046" stop-color="#FE9738" stop-opacity="0.31"/>
<stop offset="0.6539" stop-color="#FE9738" stop-opacity="0.483"/>
<stop offset="0.8085" stop-color="#FE9738" stop-opacity="0.695"/>
<stop offset="0.9645" stop-color="#FE9738" stop-opacity="0.94"/>
<stop offset="1" stop-color="#FE9738"/>
</linearGradient>
<linearGradient id="paint7_linear_731_1218" x1="72.1495" y1="6.1154" x2="86.8786" y2="47.118" gradientUnits="userSpaceOnUse">
<stop stop-color="#FEF0AE"/>
<stop offset="1" stop-color="#FAC600"/>
</linearGradient>
<linearGradient id="paint8_linear_731_1218" x1="88.3469" y1="32.7188" x2="93.8152" y2="42.0472" gradientUnits="userSpaceOnUse">
<stop stop-color="#FEF0AE" stop-opacity="0"/>
<stop offset="0.099908" stop-color="#FEF0AE" stop-opacity="0.021"/>
<stop offset="0.224" stop-color="#FEF0AE" stop-opacity="0.081"/>
<stop offset="0.3608" stop-color="#FEF0AE" stop-opacity="0.181"/>
<stop offset="0.507" stop-color="#FEF0AE" stop-opacity="0.32"/>
<stop offset="0.6605" stop-color="#FEF0AE" stop-opacity="0.498"/>
<stop offset="0.8202" stop-color="#FEF0AE" stop-opacity="0.717"/>
<stop offset="0.9822" stop-color="#FEF0AE" stop-opacity="0.97"/>
<stop offset="1" stop-color="#FEF0AE"/>
</linearGradient>
<linearGradient id="paint9_linear_731_1218" x1="68.7384" y1="90.4279" x2="70.6685" y2="82.7683" gradientUnits="userSpaceOnUse">
<stop stop-color="#FE9738" stop-opacity="0"/>
<stop offset="0.1025" stop-color="#FE9738" stop-opacity="0.02"/>
<stop offset="0.2265" stop-color="#FE9738" stop-opacity="0.078"/>
<stop offset="0.3615" stop-color="#FE9738" stop-opacity="0.175"/>
<stop offset="0.5046" stop-color="#FE9738" stop-opacity="0.31"/>
<stop offset="0.6539" stop-color="#FE9738" stop-opacity="0.483"/>
<stop offset="0.8085" stop-color="#FE9738" stop-opacity="0.695"/>
<stop offset="0.9645" stop-color="#FE9738" stop-opacity="0.94"/>
<stop offset="1" stop-color="#FE9738"/>
</linearGradient>
<linearGradient id="paint10_linear_731_1218" x1="143.061" y1="57.078" x2="129.551" y2="55.6304" gradientUnits="userSpaceOnUse">
<stop stop-color="#FE9738" stop-opacity="0"/>
<stop offset="0.1025" stop-color="#FE9738" stop-opacity="0.02"/>
<stop offset="0.2265" stop-color="#FE9738" stop-opacity="0.078"/>
<stop offset="0.3615" stop-color="#FE9738" stop-opacity="0.175"/>
<stop offset="0.5046" stop-color="#FE9738" stop-opacity="0.31"/>
<stop offset="0.6539" stop-color="#FE9738" stop-opacity="0.483"/>
<stop offset="0.8085" stop-color="#FE9738" stop-opacity="0.695"/>
<stop offset="0.9645" stop-color="#FE9738" stop-opacity="0.94"/>
<stop offset="1" stop-color="#FE9738"/>
</linearGradient>
<linearGradient id="paint11_linear_731_1218" x1="88.9875" y1="92.2763" x2="100.038" y2="102.774" gradientUnits="userSpaceOnUse">
<stop stop-color="#C8EFFE"/>
<stop offset="0.1027" stop-color="#C0EDFD"/>
<stop offset="0.258" stop-color="#ABEAFD"/>
<stop offset="0.4465" stop-color="#89E5FD"/>
<stop offset="0.6612" stop-color="#5ADDFC"/>
<stop offset="0.8947" stop-color="#1ED4FB"/>
<stop offset="1" stop-color="#01D0FB"/>
</linearGradient>
<linearGradient id="paint12_linear_731_1218" x1="93.4483" y1="102.265" x2="97.454" y2="93.1482" gradientUnits="userSpaceOnUse">
<stop stop-color="#0290CF" stop-opacity="0"/>
<stop offset="0.2191" stop-color="#0290CF" stop-opacity="0.013"/>
<stop offset="0.3639" stop-color="#0290CF" stop-opacity="0.056"/>
<stop offset="0.4873" stop-color="#0290CF" stop-opacity="0.128"/>
<stop offset="0.5987" stop-color="#0290CF" stop-opacity="0.231"/>
<stop offset="0.7019" stop-color="#0290CF" stop-opacity="0.364"/>
<stop offset="0.7993" stop-color="#0290CF" stop-opacity="0.528"/>
<stop offset="0.892" stop-color="#0290CF" stop-opacity="0.722"/>
<stop offset="0.9788" stop-color="#0290CF" stop-opacity="0.941"/>
<stop offset="1" stop-color="#0290CF"/>
</linearGradient>
<linearGradient id="paint13_linear_731_1218" x1="89.4033" y1="96.2557" x2="100.868" y2="102.472" gradientUnits="userSpaceOnUse">
<stop stop-color="#0290CF" stop-opacity="0"/>
<stop offset="0.2191" stop-color="#0290CF" stop-opacity="0.013"/>
<stop offset="0.3639" stop-color="#0290CF" stop-opacity="0.056"/>
<stop offset="0.4873" stop-color="#0290CF" stop-opacity="0.128"/>
<stop offset="0.5987" stop-color="#0290CF" stop-opacity="0.231"/>
<stop offset="0.7019" stop-color="#0290CF" stop-opacity="0.364"/>
<stop offset="0.7993" stop-color="#0290CF" stop-opacity="0.528"/>
<stop offset="0.892" stop-color="#0290CF" stop-opacity="0.722"/>
<stop offset="0.9788" stop-color="#0290CF" stop-opacity="0.941"/>
<stop offset="1" stop-color="#0290CF"/>
</linearGradient>
<linearGradient id="paint14_linear_731_1218" x1="90.7841" y1="46.4093" x2="126.28" y2="81.9049" gradientUnits="userSpaceOnUse">
<stop stop-color="#C8EFFE"/>
<stop offset="0.1027" stop-color="#C0EDFD"/>
<stop offset="0.258" stop-color="#ABEAFD"/>
<stop offset="0.4465" stop-color="#89E5FD"/>
<stop offset="0.6612" stop-color="#5ADDFC"/>
<stop offset="0.8947" stop-color="#1ED4FB"/>
<stop offset="1" stop-color="#01D0FB"/>
</linearGradient>
<linearGradient id="paint15_linear_731_1218" x1="95.3554" y1="85.385" x2="92.7308" y2="93.1207" gradientUnits="userSpaceOnUse">
<stop stop-color="#0290CF" stop-opacity="0"/>
<stop offset="0.2191" stop-color="#0290CF" stop-opacity="0.013"/>
<stop offset="0.3639" stop-color="#0290CF" stop-opacity="0.056"/>
<stop offset="0.4873" stop-color="#0290CF" stop-opacity="0.128"/>
<stop offset="0.5987" stop-color="#0290CF" stop-opacity="0.231"/>
<stop offset="0.7019" stop-color="#0290CF" stop-opacity="0.364"/>
<stop offset="0.7993" stop-color="#0290CF" stop-opacity="0.528"/>
<stop offset="0.892" stop-color="#0290CF" stop-opacity="0.722"/>
<stop offset="0.9788" stop-color="#0290CF" stop-opacity="0.941"/>
<stop offset="1" stop-color="#0290CF"/>
</linearGradient>
<linearGradient id="paint16_linear_731_1218" x1="101.659" y1="55.3223" x2="109.947" y2="60.986" gradientUnits="userSpaceOnUse">
<stop stop-color="#0290CF" stop-opacity="0"/>
<stop offset="0.2191" stop-color="#0290CF" stop-opacity="0.013"/>
<stop offset="0.3639" stop-color="#0290CF" stop-opacity="0.056"/>
<stop offset="0.4873" stop-color="#0290CF" stop-opacity="0.128"/>
<stop offset="0.5987" stop-color="#0290CF" stop-opacity="0.231"/>
<stop offset="0.7019" stop-color="#0290CF" stop-opacity="0.364"/>
<stop offset="0.7993" stop-color="#0290CF" stop-opacity="0.528"/>
<stop offset="0.892" stop-color="#0290CF" stop-opacity="0.722"/>
<stop offset="0.9788" stop-color="#0290CF" stop-opacity="0.941"/>
<stop offset="1" stop-color="#0290CF"/>
</linearGradient>
<linearGradient id="paint17_linear_731_1218" x1="124.918" y1="63.597" x2="132.377" y2="64.2875" gradientUnits="userSpaceOnUse">
<stop stop-color="#0290CF" stop-opacity="0"/>
<stop offset="0.2191" stop-color="#0290CF" stop-opacity="0.013"/>
<stop offset="0.3639" stop-color="#0290CF" stop-opacity="0.056"/>
<stop offset="0.4873" stop-color="#0290CF" stop-opacity="0.128"/>
<stop offset="0.5987" stop-color="#0290CF" stop-opacity="0.231"/>
<stop offset="0.7019" stop-color="#0290CF" stop-opacity="0.364"/>
<stop offset="0.7993" stop-color="#0290CF" stop-opacity="0.528"/>
<stop offset="0.892" stop-color="#0290CF" stop-opacity="0.722"/>
<stop offset="0.9788" stop-color="#0290CF" stop-opacity="0.941"/>
<stop offset="1" stop-color="#0290CF"/>
</linearGradient>
</defs>
</svg>
