<svg width="25" height="24" viewBox="0 0 25 24" fill="none" xmlns="http://www.w3.org/2000/svg">
<path d="M24.4048 22.089C24.4048 22.4797 24.2496 22.8543 23.9733 23.1306C23.6971 23.4068 23.3224 23.562 22.9318 23.562H2.31577C1.92511 23.562 1.55045 23.4068 1.27421 23.1306C0.997964 22.8543 0.842773 22.4797 0.842773 22.089V1.473C0.842773 1.08234 0.997964 0.707673 1.27421 0.431432C1.55045 0.155191 1.92511 0 2.31577 0L22.9318 0C23.3224 0 23.6971 0.155191 23.9733 0.431432C24.2496 0.707673 24.4048 1.08234 24.4048 1.473V22.089Z" fill="#55ACEE"/>
<path d="M19.9768 7.2852C19.4247 7.52608 18.8401 7.68379 18.2418 7.7532C18.8712 7.38667 19.3444 6.80212 19.5718 6.1102C18.9774 6.45618 18.329 6.69958 17.6538 6.8302C17.3698 6.53277 17.0284 6.2961 16.6502 6.13452C16.272 5.97294 15.865 5.88982 15.4538 5.8902C14.6595 5.88514 13.8956 6.19527 13.3297 6.75259C12.7637 7.30992 12.4419 8.06893 12.4348 8.8632C12.4349 9.0917 12.4608 9.31946 12.5118 9.5422C11.3148 9.48483 10.1429 9.17886 9.07062 8.64376C7.99837 8.10867 7.04928 7.35618 6.28377 6.4342C6.01508 6.88834 5.87379 7.40652 5.87477 7.9342C5.87619 8.42555 5.99965 8.90885 6.23407 9.34068C6.46848 9.7725 6.80651 10.1393 7.21777 10.4082C6.73911 10.3931 6.27077 10.2653 5.85077 10.0352C5.85077 10.0482 5.85077 10.0602 5.85077 10.0732C5.85488 10.7645 6.09847 11.433 6.54009 11.9649C6.9817 12.4967 7.59402 12.8591 8.27277 12.9902C8.01153 13.0579 7.74263 13.0915 7.47277 13.0902C7.28252 13.0905 7.09266 13.0728 6.90577 13.0372C7.10302 13.6315 7.48043 14.1497 7.9856 14.5197C8.49077 14.8898 9.09863 15.0934 9.72477 15.1022C8.45279 16.0761 6.85223 16.5178 5.26077 16.3342C6.64615 17.2087 8.25146 17.6717 9.88977 17.6692C11.0116 17.6859 12.1255 17.4794 13.1668 17.0617C14.2081 16.644 15.156 16.0235 15.9553 15.2362C16.7546 14.4489 17.3894 13.5105 17.8228 12.4757C18.2562 11.4408 18.4795 10.3301 18.4798 9.2082C18.4798 9.0812 18.4798 8.9502 18.4708 8.8242C19.0598 8.40422 19.5697 7.88316 19.9768 7.2852Z" fill="white"/>
</svg>
