<svg width="121" height="121" viewBox="0 0 121 121" fill="none" xmlns="http://www.w3.org/2000/svg">
<g id="Frame" clip-path="url(#clip0_1_2516)">
<g id="Group">
<path id="Vector" d="M82.9205 41.8466C77.7116 38.532 71.4649 36.9534 65.3483 37.2257C49.9359 37.8666 36.4706 49.5262 35.468 66.2751C35.1365 72.3948 36.537 78.7472 39.6632 84.1249C42.8291 89.3817 47.6395 93.5033 53.2072 96.1318C58.7342 98.68 65.0185 99.7351 71.0914 98.7789C77.1643 97.8226 82.8653 94.9362 87.312 90.7682C91.7588 86.6001 95.112 81.069 96.531 75.1049C98.0293 68.8989 97.3526 62.3819 94.8677 56.4777C92.5433 50.4921 88.3316 45.3613 82.9205 41.8466Z" fill="#FF986D"/>
<path id="Vector_2" d="M100.924 44.1309C99.4275 42.7699 97.3774 43.3034 95.7309 44.0362C93.6025 45.0129 91.6358 46.1095 89.6701 47.4074C89.5898 47.4481 89.5095 47.4887 89.5095 47.4887C89.5502 47.569 89.6315 47.7296 89.6721 47.8099C89.7128 47.8902 89.8337 47.9298 89.8744 48.0101C89.915 48.0904 90.0766 48.2103 90.1173 48.2906C90.7993 47.8445 91.5219 47.4786 92.2039 47.0324C93.6889 46.1797 95.3751 45.326 97.0227 44.7945C97.6254 44.5902 98.4293 44.3849 99.0341 44.5831C99.6388 44.7813 100.043 45.1818 100.328 45.7438C100.978 47.0286 100.704 48.4789 99.9853 49.6498C99.1874 51.0625 98.107 52.3157 97.0265 53.5689C95.9064 54.943 94.7457 56.2368 93.585 57.5307C91.2635 60.1183 88.8607 62.5454 86.337 64.9328C81.2895 69.7076 75.7968 74.0017 70.1009 77.8943C64.2841 81.7473 58.143 85.1591 51.8383 88.0485C48.6255 89.4734 45.4524 90.7773 42.1176 91.9613C40.6713 92.4919 39.3052 92.9817 37.7369 93.2713C36.6514 93.5183 35.2834 93.6057 34.2345 93.1279C33.831 92.9287 33.5078 92.6889 33.3452 92.3677C33.0179 91.3228 33.0129 90.3166 33.4499 89.1874C33.8057 87.8976 34.444 86.7674 35.0417 85.5569C35.3608 84.9918 35.6394 84.3464 35.9981 83.6604C36.2767 83.015 36.7168 82.4895 37.1162 81.8838C37.476 81.399 37.7555 80.9548 38.1153 80.47C37.9934 80.2291 37.8308 79.908 37.7088 79.6671C37.5482 79.7484 37.4283 79.91 37.2677 79.9913C36.4658 80.5991 35.8254 81.3268 35.1048 82.0951C34.3842 82.8635 33.6635 83.6319 33.1451 84.6005C32.5861 85.4888 32.1887 86.497 31.7506 87.425C30.9547 89.2402 30.3225 91.5779 31.9405 93.1797C32.3857 93.6605 33.0727 94.2205 33.7984 94.4584C34.5241 94.6962 35.2895 94.8131 36.0538 94.7288C37.744 94.68 39.3916 94.1485 40.9589 93.6576C43.0079 92.9229 45.0569 92.1881 47.106 91.4533C51.0425 89.8637 54.978 88.073 58.7518 86.1623C66.4195 82.1793 73.641 77.5143 80.3757 72.0869C87.0301 66.7003 93.158 60.6723 98.6395 54.1645C99.8795 52.6288 101.401 51.0514 102.076 49.1965C102.51 47.4636 102.258 45.3719 100.924 44.1309Z" fill="black"/>
<path id="Vector_3" d="M60.3516 44.0932C60.2703 43.9326 60.1087 43.8127 59.9471 43.6928C59.8262 43.6531 59.7052 43.6135 59.5436 43.4935C59.3017 43.4143 58.9795 43.3756 58.7387 43.4976C58.5781 43.5789 58.4978 43.6195 58.2965 43.6206C58.0556 43.7425 57.8554 43.9448 57.6552 44.147C57.5749 44.1877 57.5352 44.3086 57.4549 44.3493C57.335 44.5109 57.2557 44.7528 57.2161 44.8737C57.1368 45.1156 57.1378 45.3169 57.2191 45.4775C57.2201 45.6787 57.3421 45.9196 57.5037 46.0395C57.585 46.2001 57.7466 46.3201 57.9082 46.44C58.0291 46.4796 58.1501 46.5193 58.3117 46.6392C58.5536 46.7185 58.8758 46.7571 59.1167 46.6352C59.2773 46.5539 59.3576 46.5132 59.5588 46.5122C59.7997 46.3902 59.9999 46.188 60.2002 45.9857C60.2804 45.9451 60.3201 45.8241 60.4004 45.7835C60.5203 45.6219 60.5996 45.38 60.6392 45.259C60.7185 45.0171 60.7175 44.8159 60.6362 44.6553C60.5143 44.4144 60.4329 44.2538 60.3516 44.0932Z" fill="#E6EAEC"/>
<path id="Vector_4" d="M57.6457 58.2748C55.8792 59.1691 57.302 61.9795 59.0685 61.0851C60.9153 60.1501 59.4925 57.3398 57.6457 58.2748Z" fill="#E6EAEC"/>
<path id="Vector_5" d="M71.8417 47.8592C70.3161 48.6316 71.4951 50.9601 73.0207 50.1877C74.5869 49.4956 73.3673 47.0868 71.8417 47.8592Z" fill="#E6EAEC"/>
<path id="Vector_6" d="M77.6948 59.2205C77.4112 58.8596 76.9671 58.5801 76.5239 58.5018C76.0402 58.3433 75.6377 58.3453 75.1549 58.388C74.7128 58.511 74.231 58.7549 73.8702 59.0384L73.7899 59.0791C73.429 59.3626 73.1495 59.8068 72.991 60.2906C72.8324 60.7744 72.7541 61.2175 72.9177 61.74C73.0814 62.2624 73.2846 62.6639 73.6089 63.105C73.8924 63.4658 74.3366 63.7453 74.8204 63.9039C75.3042 64.0624 75.7473 64.1407 76.2697 63.9771C76.7921 63.8135 77.1936 63.6102 77.6347 63.286C77.9956 63.0024 78.2751 62.5583 78.4336 62.0745C78.5922 61.5907 78.6705 61.1475 78.5069 60.6251L78.4662 60.5448C78.2223 60.0631 77.9784 59.5813 77.6948 59.2205Z" fill="#E6EAEC"/>
<path id="Vector_7" d="M64.7529 70.9177C64.5507 70.7175 64.2681 70.5579 64.0262 70.4786C63.9053 70.439 63.704 70.44 63.5831 70.4003C63.2609 70.3617 62.9793 70.4034 62.6582 70.566C62.4173 70.6879 62.2567 70.7692 62.1774 71.0111C62.0575 71.1727 61.9375 71.3343 61.8582 71.5762C61.779 71.8181 61.78 72.0194 61.781 72.2206C61.782 72.4219 61.8237 72.7034 61.905 72.864C61.9863 73.0246 62.0269 73.1049 62.1885 73.2248C62.3908 73.425 62.6733 73.5846 62.9152 73.6639C63.0362 73.7036 63.2374 73.7025 63.3584 73.7422C63.6806 73.7808 63.9621 73.7391 64.2833 73.5765C64.5242 73.4546 64.6848 73.3733 64.764 73.1314C64.884 72.9698 65.0039 72.8082 65.0832 72.5663C65.1625 72.3244 65.1615 72.1231 65.1605 71.9219C65.1594 71.7206 65.0781 71.56 64.9562 71.3192C64.9155 71.2389 64.8342 71.0783 64.7529 70.9177Z" fill="#E6EAEC"/>
<path id="Vector_8" d="M88.2487 68.9079C84.1536 70.9812 87.3652 77.3245 91.4603 75.2512C95.5553 73.1779 92.3437 66.8346 88.2487 68.9079Z" fill="#E6EAEC"/>
<path id="Vector_9" d="M78.8824 79.2991C78.6802 79.0989 78.5186 78.979 78.2767 78.8997C78.1557 78.86 78.0348 78.8204 77.9138 78.7808C77.6323 78.8224 77.4311 78.8234 77.1902 78.9454C77.0296 79.0267 76.869 79.108 76.7491 79.2696C76.6291 79.4312 76.5092 79.5928 76.4695 79.7138C76.3496 79.8754 76.3506 80.0766 76.4319 80.2372C76.4329 80.4384 76.4339 80.6397 76.5955 80.7596C76.6362 80.8399 76.7175 81.0005 76.8385 81.0401C77.0407 81.2404 77.2023 81.3603 77.4442 81.4396C77.5652 81.4792 77.6861 81.5189 77.807 81.5585C78.0886 81.5169 78.2898 81.5158 78.5307 81.3939C78.6913 81.3126 78.8519 81.2313 78.9718 81.0697C79.0918 80.9081 79.2117 80.7465 79.2514 80.6255C79.3713 80.4639 79.3703 80.2627 79.289 80.1021C79.288 79.9008 79.287 79.6996 79.1253 79.5797C79.044 79.4191 79.0034 79.3388 78.8824 79.2991Z" fill="#E6EAEC"/>
<path id="Vector_10" d="M87.0833 53.2566C86.8404 52.9761 86.5578 52.8165 86.195 52.6976C86.074 52.6579 85.8728 52.6589 85.7518 52.6193C85.4296 52.5807 85.0678 52.663 84.7466 52.8256C84.5057 52.9476 84.3055 53.1498 84.1856 53.3114C83.9853 53.5137 83.8654 53.6753 83.8268 53.9975C83.7475 54.2394 83.6682 54.4813 83.7099 54.7628C83.7515 55.0443 83.7525 55.2456 83.8745 55.4865C83.9558 55.6471 84.1174 55.767 84.1987 55.9276C84.4416 56.2081 84.7242 56.3677 85.087 56.4866C85.208 56.5263 85.4092 56.5252 85.5302 56.5649C85.8523 56.6035 86.2142 56.5212 86.5354 56.3586C86.7762 56.2366 86.9765 56.0344 87.0964 55.8728C87.2966 55.6705 87.4166 55.5089 87.4552 55.1867C87.5345 54.9448 87.6138 54.7029 87.5721 54.4214C87.5305 54.1398 87.4085 53.899 87.2865 53.6581C87.2052 53.4975 87.1646 53.4172 87.0833 53.2566Z" fill="#E6EAEC"/>
<path id="Vector_11" d="M49.4078 60.9323C48.2034 61.5421 49.1384 63.3889 50.3429 62.7791C51.5473 62.1693 50.6123 60.3225 49.4078 60.9323Z" fill="#E6EAEC"/>
<path id="Vector_12" d="M64.2544 51.8015C64.0928 51.6816 63.9312 51.5617 63.8102 51.522C63.6893 51.4824 63.609 51.523 63.5683 51.4427C63.3671 51.4438 63.1658 51.4448 63.0052 51.5261C62.8446 51.6074 62.7643 51.648 62.6444 51.8096C62.4838 51.8909 62.4442 52.0119 62.4452 52.2131C62.4055 52.3341 62.3659 52.455 62.3669 52.6563C62.3273 52.7772 62.4086 52.9378 62.4899 53.0984C62.5305 53.1787 62.5712 53.259 62.6118 53.3393C62.7734 53.4592 62.935 53.5792 63.056 53.6188L63.2979 53.6981C63.4991 53.6971 63.7004 53.6961 63.861 53.6148C64.0216 53.5335 64.1019 53.4928 64.2218 53.3312C64.3824 53.2499 64.422 53.1289 64.421 52.9277C64.4607 52.8067 64.5003 52.6858 64.4993 52.4846C64.5389 52.3636 64.4576 52.203 64.3763 52.0424C64.3357 51.9621 64.295 51.8818 64.2544 51.8015Z" fill="#E6EAEC"/>
<path id="Vector_13" d="M72.6269 67.9398C71.1816 68.6716 72.2792 70.8396 73.7245 70.1078C75.2105 69.4563 74.0722 67.2081 72.6269 67.9398Z" fill="#E6EAEC"/>
<path id="Vector_14" d="M68.1451 89.174C67.7 88.6932 67.0942 88.2938 66.4895 88.0956C66.1673 88.0569 65.8045 87.938 65.4823 87.8994C64.7576 87.8628 64.1142 87.9867 63.4718 88.312C62.9901 88.5559 62.549 88.8801 62.2694 89.3243C61.9493 89.6881 61.6698 90.1323 61.5112 90.6161C61.3526 91.0998 61.315 91.6233 61.3577 92.1061C61.3201 92.6295 61.4837 93.1519 61.7276 93.6337C61.9705 93.9142 62.1331 94.2354 62.376 94.5159C62.8212 94.9967 63.427 95.3961 64.0317 95.5944C64.3539 95.633 64.7167 95.7519 65.0389 95.7905C65.7636 95.8272 66.407 95.7032 67.0493 95.3779C67.5311 95.134 67.9722 94.8098 68.2517 94.3657C68.5719 94.0018 68.8514 93.5576 69.01 93.0738C69.1686 92.5901 69.2062 92.0666 69.1635 91.5838C69.2011 91.0604 69.0375 90.538 68.7936 90.0562C68.5507 89.7757 68.3078 89.4952 68.1451 89.174Z" fill="#E6EAEC"/>
<path id="Vector_15" d="M27.3633 71.3873L24.2297 72.5703L23.4409 75.7942L21.4154 73.1882L18.0359 73.4869L19.8329 70.6604L18.6103 67.6478L21.8342 68.4366L24.3996 66.3307L24.5774 69.6706L27.3633 71.3873Z" fill="black"/>
<path id="Vector_16" d="M70.3564 24.6023L66.2014 22.7716L62.4702 25.1651L62.8505 20.7358L59.3745 17.8552L63.7968 16.8268L65.4262 12.6729L67.6997 16.5657L72.1688 16.8249L69.2476 20.2206L70.3564 24.6023Z" fill="black"/>
<path id="Vector_17" d="M112.879 68.3413L110.186 69.2001L109.394 71.8203L107.733 69.5344L104.956 69.6289L106.635 67.3665L105.696 64.7147L108.357 65.5868L110.643 63.9251L110.616 66.6622L112.879 68.3413Z" fill="black"/>
</g>
</g>
<defs>
<clipPath id="clip0_1_2516">
<rect width="90" height="90" fill="white" transform="translate(0 40.6533) rotate(-26.853)"/>
</clipPath>
</defs>
</svg>
