<svg width="40" height="38" viewBox="0 0 40 38" fill="none" xmlns="http://www.w3.org/2000/svg">
<g id="Group 1000001664">
<path id="Path 67696" d="M39.3102 36.5511H37.2409V20.6894H39.3095C39.4222 20.6896 39.5333 20.6622 39.6329 20.6095C39.7326 20.5569 39.8178 20.4806 39.8811 20.3873C39.9444 20.2941 39.9838 20.1867 39.996 20.0747C40.0081 19.9626 39.9926 19.8493 39.9508 19.7447L35.8136 9.39961C35.7626 9.27125 35.6741 9.16118 35.5598 9.08366C35.4455 9.00614 35.3105 8.96474 35.1723 8.96482H22.7587C22.7267 8.96161 22.6945 8.96161 22.6625 8.96482L20.6901 7.18562V5.5174H26.8966C27.0795 5.5174 27.255 5.44473 27.3843 5.31538C27.5137 5.18602 27.5863 5.01058 27.5863 4.82764V0.689763C27.5863 0.506827 27.5137 0.331383 27.3843 0.202027C27.255 0.0726712 27.0795 0 26.8966 0H20.0004C19.8174 0 19.642 0.0726712 19.5126 0.202027C19.3833 0.331383 19.3106 0.506827 19.3106 0.689763V7.18632L17.3382 8.96552C17.3062 8.96231 17.274 8.96231 17.242 8.96552H4.82837C4.69022 8.96544 4.55524 9.00684 4.4409 9.08436C4.32656 9.16189 4.23813 9.27195 4.18707 9.40031L0.0491909 19.7447C0.00737127 19.8493 -0.00813786 19.9626 0.00402307 20.0747C0.016184 20.1867 0.0556438 20.2941 0.118943 20.3873C0.182243 20.4806 0.26745 20.5569 0.367095 20.6095C0.466741 20.6622 0.577783 20.6896 0.690488 20.6894H2.75908V36.5511H0.690488C0.599907 36.5511 0.510213 36.569 0.426527 36.6036C0.342841 36.6383 0.266802 36.6891 0.202752 36.7532C0.138701 36.8172 0.0878937 36.8933 0.0532298 36.9769C0.018566 37.0606 0.000724812 37.1503 0.000724812 37.2409C0.000724812 37.3315 0.018566 37.4212 0.0532298 37.5049C0.0878937 37.5885 0.138701 37.6646 0.202752 37.7286C0.266802 37.7927 0.342841 37.8435 0.426527 37.8782C0.510213 37.9128 0.599907 37.9307 0.690488 37.9307H39.3102C39.4008 37.9307 39.4905 37.9128 39.5742 37.8782C39.6579 37.8435 39.7339 37.7927 39.798 37.7286C39.862 37.6646 39.9128 37.5885 39.9475 37.5049C39.9821 37.4212 40 37.3315 40 37.2409C40 37.1503 39.9821 37.0606 39.9475 36.9769C39.9128 36.8933 39.862 36.8172 39.798 36.7532C39.7339 36.6891 39.6579 36.6383 39.5742 36.6036C39.4905 36.569 39.4008 36.5511 39.3102 36.5511ZM34.7031 10.3443L38.2889 19.3099H27.5863V13.7925C27.5903 13.742 27.5903 13.6912 27.5863 13.6407C27.5903 13.6041 27.5903 13.5671 27.5863 13.5305C27.5694 13.4996 27.5509 13.4695 27.5309 13.4406C27.5021 13.3944 27.47 13.3505 27.4346 13.3092L24.1382 10.3436L34.7031 10.3443ZM5.29687 10.3443H15.8625L12.649 13.2825C12.6151 13.321 12.585 13.3627 12.5591 13.4068C12.5361 13.4373 12.5154 13.4695 12.4972 13.5031C12.4933 13.5374 12.4933 13.572 12.4972 13.6063C12.4648 13.6661 12.4371 13.7283 12.4144 13.7925V19.3099H1.71109L5.29687 10.3443ZM4.1386 20.6894H12.4144V36.5511H4.1386V20.6894ZM24.1382 36.5511V26.2061C24.1382 26.0232 24.0656 25.8477 23.9362 25.7184C23.8068 25.589 23.6314 25.5163 23.4485 25.5163H16.5522C16.3693 25.5163 16.1939 25.589 16.0645 25.7184C15.9351 25.8477 15.8625 26.0232 15.8625 26.2061V36.5511H13.7932V14.0959L19.9996 8.42045L26.2061 14.0959V36.5511H24.1382ZM27.5863 36.5511V20.6894H35.8621V36.5511H27.5863Z" fill="white"/>
<path id="Path 67697" d="M9.65597 26.2061H6.89762C6.71468 26.2061 6.53923 26.2787 6.40988 26.4081C6.28052 26.5374 6.20785 26.7129 6.20785 26.8958V29.6542C6.20785 29.8371 6.28052 30.0125 6.40988 30.1419C6.53923 30.2713 6.71468 30.3439 6.89762 30.3439H9.65597C9.8389 30.3439 10.0143 30.2713 10.1437 30.1419C10.2731 30.0125 10.3457 29.8371 10.3457 29.6542V26.8958C10.3457 26.7129 10.2731 26.5374 10.1437 26.4081C10.0143 26.2787 9.8389 26.2061 9.65597 26.2061Z" fill="white"/>
<path id="Path 67698" d="M33.103 26.2061H30.3447C30.1617 26.2061 29.9863 26.2787 29.8569 26.4081C29.7276 26.5374 29.6549 26.7129 29.6549 26.8958V29.6542C29.6549 29.8371 29.7276 30.0125 29.8569 30.1419C29.9863 30.2713 30.1617 30.3439 30.3447 30.3439H33.103C33.286 30.3439 33.4614 30.2713 33.5908 30.1419C33.7201 30.0125 33.7928 29.8371 33.7928 29.6542V26.8958C33.7928 26.7129 33.7201 26.5374 33.5908 26.4081C33.4614 26.2787 33.286 26.2061 33.103 26.2061Z" fill="white"/>
<path id="Path 67699" d="M20.0004 15.172C19.4548 15.172 18.9215 15.3338 18.4679 15.6369C18.0143 15.94 17.6607 16.3708 17.452 16.8748C17.2432 17.3788 17.1886 17.9334 17.295 18.4685C17.4014 19.0035 17.6641 19.495 18.0499 19.8808C18.4357 20.2666 18.9272 20.5293 19.4622 20.6357C19.9973 20.7421 20.5519 20.6875 21.0559 20.4787C21.56 20.27 21.9908 19.9164 22.2938 19.4628C22.5969 19.0092 22.7587 18.4759 22.7587 17.9303C22.7587 17.1988 22.4681 16.4972 21.9508 15.9799C21.4335 15.4626 20.7319 15.172 20.0004 15.172Z" fill="white"/>
</g>
</svg>
