<svg width="32" height="55" viewBox="0 0 32 55" fill="none" xmlns="http://www.w3.org/2000/svg">
<g id="left side">
<g id="Group 63939">
<path id="Path 27293" d="M5.47748 10.5877C7.25942 8.638 9.19653 6.83555 11.2698 5.19798C11.3236 5.15559 11.3893 5.13118 11.4578 5.12823C11.5262 5.12528 11.5938 5.14395 11.651 5.18157C11.7082 5.21919 11.7521 5.27385 11.7764 5.33778C11.8007 5.40172 11.8042 5.47168 11.7865 5.53772C10.6154 9.83119 8.57238 14.0738 5.42099 17.229C5.26888 15.0171 5.28776 12.7967 5.47748 10.5877Z" fill="#FF901D"/>
<path id="Path 27294" d="M5.41985 17.2295C3.62714 15.0692 2.02405 12.7589 0.628357 10.324C0.593754 10.2631 0.540314 10.215 0.476045 10.187C0.411776 10.159 0.340138 10.1525 0.271866 10.1685C0.203594 10.1846 0.142364 10.2222 0.0973513 10.2759C0.0523386 10.3296 0.0259669 10.3965 0.0221878 10.4664C-0.23199 15.4785 1.6864 21.3427 6.35941 23.7078C5.8831 21.5751 5.56902 19.4095 5.41985 17.2295Z" fill="#FF901D"/>
<path id="Path 27295" d="M6.35843 23.7064C7.48179 21.3821 8.79501 19.1541 10.2848 17.0451C10.324 16.99 10.3794 16.9485 10.4433 16.9263C10.5072 16.9041 10.5765 16.9023 10.6415 16.9212C10.7065 16.9401 10.764 16.9787 10.806 17.0318C10.8479 17.0848 10.8723 17.1495 10.8758 17.217C11.059 21.5497 10.3144 26.1231 8.23687 29.9234C7.45693 27.9006 6.82905 25.8225 6.35843 23.7064Z" fill="#FF901D"/>
<path id="Path 27296" d="M8.24045 29.9248C5.90978 28.43 3.70552 26.7472 1.64974 24.8934C1.59811 24.8466 1.53275 24.8177 1.46334 24.8109C1.39394 24.8041 1.32419 24.8198 1.26444 24.8557C1.20468 24.8916 1.1581 24.9457 1.13159 25.0101C1.10508 25.0745 1.10006 25.1457 1.11728 25.2132C2.36406 30.0004 5.93081 34.9101 11.0082 35.7808C9.94237 33.8995 9.01727 31.9422 8.24045 29.9248Z" fill="#FF901D"/>
<path id="Path 27297" d="M11.0061 35.777C11.4077 33.2436 12.0196 30.748 12.8357 28.3159C12.8574 28.2522 12.8984 28.1968 12.953 28.1573C13.0075 28.1178 13.073 28.0962 13.1404 28.0955C13.2078 28.0947 13.2738 28.1148 13.3293 28.1531C13.3847 28.1913 13.427 28.2458 13.4501 28.309C14.9805 32.4126 15.3797 36.8511 14.606 41.1612C13.2748 39.4575 12.0715 37.6579 11.0061 35.777Z" fill="#FF901D"/>
<path id="Path 27298" d="M14.6082 41.165C11.9497 40.4123 9.35576 39.4485 6.85127 38.2827C6.78825 38.2538 6.71762 38.2459 6.64974 38.26C6.58185 38.2741 6.52029 38.3096 6.47407 38.3612C6.42785 38.4128 6.3994 38.4778 6.39291 38.5468C6.38641 38.6157 6.4022 38.6849 6.43797 38.7442C9.02865 42.962 13.8773 46.6138 18.9871 45.9845C17.4092 44.4892 15.9455 42.8782 14.6082 41.165Z" fill="#FF901D"/>
<path id="Path 27299" d="M18.9834 45.9855C18.6143 43.4373 18.4636 40.8623 18.5329 38.2885C18.5349 38.2211 18.5578 38.156 18.5985 38.1022C18.6392 38.0484 18.6956 38.0085 18.76 37.9881C18.8244 37.9677 18.8935 37.9678 18.9578 37.9884C19.0222 38.0089 19.0785 38.0489 19.1191 38.1028C21.7947 41.615 23.5063 45.7633 24.0848 50.138C22.2815 48.8849 20.5761 47.4967 18.9834 45.9855Z" fill="#FF901D"/>
</g>
<path id="Path 27307" d="M30.3859 52.4951C28.4371 51.5464 26.5644 50.4492 24.7844 49.2133C23.0346 47.9969 21.3794 46.6502 19.833 45.1846C18.3015 43.7321 16.8804 42.1678 15.5816 40.5046C14.2891 38.8486 13.1204 37.0998 12.0851 35.2724C11.0515 33.4469 10.1536 31.548 9.39867 29.5911C8.6411 27.6264 8.03027 25.6084 7.57121 23.5536C7.10936 21.483 6.80427 19.3806 6.65851 17.2643C6.51127 15.1177 6.52923 12.9629 6.71224 10.819C6.71224 10.7949 6.71224 10.7708 6.71224 10.7468C6.95733 7.62103 7.52989 4.52956 8.42054 1.523C8.47121 1.37631 8.4916 1.22088 8.48045 1.06611C8.4693 0.911336 8.42685 0.760423 8.35567 0.622481C8.28448 0.48454 8.18604 0.362434 8.06628 0.263529C7.94652 0.164624 7.80793 0.0909732 7.65887 0.047025C7.50981 0.00307671 7.35338 -0.0102576 7.19901 0.0078252C7.04465 0.025908 6.89556 0.0750332 6.76074 0.152236C6.62592 0.229439 6.50816 0.333118 6.41459 0.457014C6.32101 0.580911 6.25355 0.722455 6.21628 0.873101C5.26991 4.06633 4.66496 7.35065 4.41155 10.6711C4.41155 10.6938 4.41155 10.7158 4.41155 10.7399C4.22836 12.9592 4.21224 15.1891 4.36333 17.4108C4.51646 19.6407 4.83744 21.8559 5.32356 24.0377C5.32356 24.0377 5.32356 24.0412 5.32356 24.0432C5.80667 26.2094 6.44997 28.3369 7.24815 30.4081C8.04364 32.4709 8.98989 34.4725 10.0792 36.3968C11.1699 38.3223 12.401 40.1651 13.7624 41.9103C15.1303 43.6628 16.6269 45.3112 18.2398 46.842C19.8707 48.3889 21.6166 49.8104 23.4625 51.0942C25.3396 52.3985 27.3145 53.5564 29.3699 54.5576C29.6439 54.6923 29.9603 54.7128 30.2495 54.6146C30.5387 54.5164 30.7769 54.3075 30.9118 54.0339C31.0467 53.7603 31.0673 53.4444 30.9689 53.1557C30.8705 52.867 30.6613 52.6291 30.3873 52.4944L30.3859 52.4951Z" fill="#F7BC14"/>
</g>
</svg>
