<svg width="35" height="34" viewBox="0 0 35 34" fill="none" xmlns="http://www.w3.org/2000/svg">
<path id="Path 67695" d="M34.0783 5.44908L17.9228 0.0632601C17.6487 -0.0210867 17.3555 -0.0210867 17.0814 0.0632601L0.940326 5.44908H0.906906L0.738497 5.53296H0.724081L0.555671 5.63388C0.555671 5.65091 0.538634 5.65091 0.522251 5.6673L0.387917 5.78525L0.269965 5.91958C0.269965 5.93662 0.252928 5.93662 0.252928 5.953L0.152012 6.10437C0.152012 6.12141 0.152013 6.12141 0.134975 6.13779L0.0694462 6.28917L0.0189891 6.47461V6.52507C0.00232999 6.59096 -0.00342599 6.65914 0.00195095 6.7269V20.1931C0.00195095 20.5502 0.143827 20.8928 0.396367 21.1453C0.648908 21.3978 0.991425 21.5397 1.34857 21.5397C1.70572 21.5397 2.04823 21.3978 2.30077 21.1453C2.55332 20.8928 2.69519 20.5502 2.69519 20.1931V8.59447L8.35034 10.4797C7.28782 12.1804 6.72764 14.1467 6.7344 16.1519C6.73396 17.9758 7.19664 19.77 8.07905 21.3662C8.96146 22.9624 10.2347 24.3084 11.7795 25.2781C8.56924 26.4917 5.82819 28.6948 3.95269 31.5689C3.76167 31.8711 3.69694 32.2362 3.77244 32.5856C3.84793 32.935 4.05762 33.2408 4.35635 33.4372C4.50301 33.5343 4.66748 33.6014 4.84025 33.6345C5.01301 33.6676 5.19064 33.6661 5.36282 33.6301C5.535 33.5941 5.69833 33.5242 5.84333 33.4246C5.98833 33.325 6.11212 33.1977 6.20754 33.0499C7.42968 31.1672 9.10306 29.6199 11.0755 28.5488C13.048 27.4776 15.2569 26.9165 17.5015 26.9165C19.746 26.9165 21.955 27.4776 23.9274 28.5488C25.8999 29.6199 27.5732 31.1672 28.7954 33.0499C28.9183 33.2366 29.0857 33.3897 29.2826 33.4956C29.4795 33.6014 29.6996 33.6565 29.9231 33.656C30.1801 33.6581 30.4316 33.5818 30.6439 33.4372C30.9428 33.2409 31.1526 32.9351 31.2281 32.5856C31.3036 32.2362 31.2388 31.871 31.0476 31.5689C29.1731 28.6954 26.4335 26.4924 23.2248 25.2781C24.7698 24.3094 26.0436 22.9642 26.9268 21.3687C27.81 19.7731 28.2737 17.9795 28.2744 16.1559C28.2812 14.1506 27.721 12.1843 26.6585 10.4837L34.0783 8.00733C34.3467 7.9181 34.5801 7.74664 34.7455 7.51729C34.911 7.28793 35 7.01231 35 6.72952C35 6.44673 34.911 6.17111 34.7455 5.94175C34.5801 5.7124 34.3467 5.54095 34.0783 5.45171V5.44908ZM17.4995 24.2297C15.3578 24.229 13.304 23.3779 11.7896 21.8636C10.2751 20.3493 9.42392 18.2956 9.42305 16.1539C9.42639 14.43 9.97429 12.7512 10.9885 11.3572L17.0827 13.3938C17.356 13.4837 17.6509 13.4837 17.9241 13.3938L24.0183 11.3572C25.0326 12.7512 25.5805 14.43 25.5838 16.1539C25.5834 17.215 25.3739 18.2657 24.9674 19.2458C24.5608 20.226 23.9652 21.1165 23.2145 21.8664C22.4638 22.6163 21.5727 23.211 20.5921 23.6165C19.6115 24.022 18.5606 24.2304 17.4995 24.2297Z" fill="white"/>
</svg>
