<svg width="32" height="55" viewBox="0 0 32 55" fill="none" xmlns="http://www.w3.org/2000/svg">
<g id="right side">
<path id="Path 27300" d="M25.5451 10.5057C23.7632 8.55595 21.8261 6.75349 19.7528 5.11595C19.699 5.07356 19.6332 5.04915 19.5648 5.0462C19.4964 5.04325 19.4288 5.06192 19.3715 5.09954C19.3143 5.13715 19.2705 5.19182 19.2462 5.25575C19.2218 5.31969 19.2183 5.38965 19.2361 5.45569C20.4071 9.74916 22.4502 13.9917 25.6016 17.147C25.7537 14.9351 25.7348 12.7147 25.5451 10.5057Z" fill="#FF901D"/>
<path id="Path 27301" d="M25.6022 17.1477C27.3949 14.9874 28.9979 12.6771 30.3936 10.2422C30.4282 10.1813 30.4817 10.1333 30.5459 10.1052C30.6102 10.0772 30.6819 10.0707 30.7501 10.0867C30.8184 10.1028 30.8796 10.1405 30.9246 10.1942C30.9697 10.2479 30.996 10.3147 30.9998 10.3846C31.254 15.3967 29.3356 21.261 24.6626 23.626C25.1389 21.4933 25.453 19.3277 25.6022 17.1477Z" fill="#FF901D"/>
<path id="Path 27302" d="M24.662 23.6246C23.5386 21.3003 22.2254 19.0724 20.7357 16.9633C20.6964 16.9082 20.641 16.8667 20.5771 16.8445C20.5132 16.8223 20.4439 16.8205 20.3789 16.8394C20.3139 16.8583 20.2564 16.897 20.2144 16.95C20.1725 17.003 20.1481 17.0678 20.1446 17.1353C19.9614 21.4679 20.706 26.0413 22.7835 29.8417C23.5635 27.8188 24.1913 25.7407 24.662 23.6246Z" fill="#FF901D"/>
<path id="Path 27303" d="M22.7812 29.8406C25.112 28.3446 27.3162 26.6607 29.3719 24.8058C29.4235 24.759 29.4889 24.73 29.5583 24.7232C29.6277 24.7164 29.6974 24.7321 29.7572 24.768C29.8169 24.8039 29.8635 24.8581 29.89 24.9225C29.9165 24.9869 29.9215 25.0581 29.9043 25.1256C28.6568 29.9128 25.0908 34.8225 20.0134 35.6931C21.0791 33.813 22.0042 31.8568 22.7812 29.8406Z" fill="#FF901D"/>
<path id="Path 27304" d="M20.0133 35.6943C19.6118 33.1609 18.9999 30.6652 18.1838 28.2331C18.1621 28.1694 18.1211 28.114 18.0665 28.0745C18.0119 28.0351 17.9464 28.0135 17.879 28.0127C17.8116 28.012 17.7457 28.0321 17.6902 28.0703C17.6347 28.1086 17.5925 28.1631 17.5694 28.2263C16.0386 32.331 15.6396 36.7707 16.4142 41.0819C17.7454 39.3771 18.9484 37.5763 20.0133 35.6943Z" fill="#FF901D"/>
<path id="Path 27305" d="M16.4134 41.0832C19.0719 40.3305 21.6658 39.3667 24.1703 38.2009C24.2333 38.172 24.304 38.1641 24.3718 38.1782C24.4397 38.1923 24.5013 38.2278 24.5475 38.2794C24.5937 38.331 24.6222 38.396 24.6287 38.465C24.6352 38.5339 24.6194 38.6031 24.5836 38.6624C21.9929 42.8802 17.1443 46.532 12.0345 45.9028C13.6124 44.4074 15.0761 42.7964 16.4134 41.0832Z" fill="#FF901D"/>
<path id="Path 27306" d="M12.0371 45.9007C12.4065 43.3518 12.5574 40.7761 12.4883 38.2016C12.4863 38.1342 12.4633 38.0691 12.4226 38.0153C12.3819 37.9615 12.3255 37.9216 12.2611 37.9012C12.1967 37.8808 12.1276 37.8809 12.0633 37.9015C11.999 37.922 11.9426 37.962 11.9021 38.0159C9.22645 41.5281 7.51482 45.6764 6.9363 50.0511C8.73937 48.7986 10.4445 47.4111 12.0371 45.9007Z" fill="#FF901D"/>
<path id="Path 27308" d="M26.618 10.6426C26.618 10.6206 26.618 10.5986 26.618 10.5738C26.3647 7.25333 25.7597 3.969 24.8133 0.775782C24.7171 0.495766 24.5162 0.263662 24.2528 0.127897C23.9893 -0.00786746 23.6834 -0.0368052 23.3991 0.0471209C23.1147 0.131047 22.8738 0.321353 22.7266 0.578335C22.5794 0.835318 22.5373 1.13912 22.609 1.42637C23.4996 4.4327 24.0722 7.52394 24.3173 10.6494C24.3173 10.6735 24.3173 10.6976 24.3173 10.7223C24.5004 12.8663 24.5184 15.021 24.3711 17.1677C24.2252 19.284 23.9201 21.3864 23.4584 23.4569C22.9995 25.5116 22.3887 27.5294 21.6309 29.4938C20.8761 31.4512 19.9782 33.3505 18.9445 35.1765C17.9089 37.0039 16.7401 38.7527 15.4473 40.4087C14.1483 42.0717 12.7272 43.6361 11.1958 45.0886C9.64949 46.5543 7.99435 47.901 6.24453 49.1173C4.46462 50.3534 2.59189 51.4506 0.642983 52.3992C0.36895 52.5339 0.159734 52.7717 0.0613634 53.0604C-0.0370075 53.3491 -0.0164792 53.665 0.118436 53.9386C0.253352 54.2122 0.491608 54.4211 0.780778 54.5193C1.06995 54.6175 1.38634 54.597 1.66038 54.4623C3.7155 53.4614 5.69026 52.3037 7.56709 50.9996C9.4129 49.7158 11.1588 48.2943 12.7898 46.7474C14.4027 45.2162 15.8993 43.5673 17.2672 41.8144C18.6292 40.0686 19.8607 38.2251 20.9517 36.2988V36.2954C22.0404 34.3729 22.9862 32.3731 23.7814 30.3122C24.5792 28.242 25.2222 26.1157 25.7053 23.9507C26.193 21.7665 26.5154 19.5488 26.6697 17.3163C26.6697 17.3163 26.6697 17.3162 26.6697 17.3114C26.8196 15.0903 26.8024 12.8611 26.618 10.6426Z" fill="#F7BC14"/>
</g>
</svg>
