<svg width="43" height="108" viewBox="0 0 43 108" fill="none" xmlns="http://www.w3.org/2000/svg">
<path d="M42.7594 103.894C40.7039 103.428 38.6595 102.748 36.5084 101.817C36.4826 101.805 36.4188 101.73 36.3988 101.664C36.1844 100.913 36.1126 100.157 36.1786 99.3516C36.5998 94.2104 33.6193 88.7931 29.0925 86.4706C28.9963 86.4204 28.8959 86.377 28.7803 86.3284L28.6729 86.2827C28.5709 86.238 28.4467 86.2566 28.3645 86.3245C28.2755 86.3949 28.2314 86.5098 28.2495 86.625L28.3734 87.4133C28.4833 88.1108 28.591 88.7934 28.6942 89.4767L28.7202 89.6555C29.0109 91.5972 29.3114 93.6051 29.8968 95.5341C30.4251 97.2745 31.2401 98.6478 32.3738 99.7C29.9788 98.2494 27.747 96.5061 25.72 94.5011C25.6775 94.459 25.627 94.3474 25.6197 94.2554L25.5653 92.8794C25.565 92.8305 25.5644 92.7006 25.5914 92.6364C26.5898 90.2473 26.8455 87.5581 26.3738 84.4157C25.9189 81.3849 24.6591 78.5978 22.629 76.1314C22.3914 75.8427 22.1818 75.6965 22.0058 75.6965C21.9629 75.6965 21.9241 75.7053 21.8936 75.7216C21.8003 75.7692 21.737 75.8616 21.7247 75.9683L21.6703 76.4482C21.6284 76.8045 21.5881 77.1543 21.5519 77.5047C21.4893 78.1221 21.4207 78.7384 21.3517 79.3551L21.3419 79.4442C21.1704 80.9839 20.9925 82.5761 20.8985 84.1703C20.7892 86.0302 20.8216 88.2022 21.8917 90.2114C21.8975 90.2216 21.9025 90.2323 21.9083 90.2424C20.4207 88.3317 19.0628 86.2755 17.8512 84.0966C17.7442 83.9028 17.735 83.7328 17.755 83.4861C17.8411 82.443 18.3131 81.5953 18.8102 80.8351C19.7705 79.3629 20.3518 77.6228 20.6952 75.1927C21.1751 71.7942 20.6904 68.3848 19.2553 65.0587C19.2159 64.967 19.1698 64.8786 19.1206 64.7837L19.0084 64.5664C18.9548 64.4603 18.8401 64.3905 18.7191 64.396C18.5984 64.4026 18.4919 64.4812 18.4481 64.5954C18.1 65.4972 17.7633 66.3661 17.4288 67.2285L17.215 67.7796C16.5016 69.6201 15.7014 71.769 15.2364 73.9861C14.9085 75.5506 14.8885 77.0607 15.176 78.4983C14.0604 75.7709 13.1434 72.8888 12.441 69.9004C12.4331 69.8671 12.4306 69.781 12.5001 69.5823C12.8286 68.6589 13.4267 67.8217 14.1846 67.2249C15.8437 65.9178 16.7849 64.1011 17.4866 62.4964C18.9233 59.2147 19.3131 55.7284 18.6778 51.8375C18.6711 51.7967 18.659 51.7562 18.6447 51.7122L18.6333 51.6769C18.6057 51.5898 18.5428 51.5193 18.4595 51.4825C18.3782 51.4476 18.2759 51.4541 18.2127 51.4861C18.1492 51.5099 18.053 51.5461 17.9904 51.6404C17.6308 52.1337 17.2658 52.6316 16.9005 53.1292L16.8392 53.2131C15.918 54.4696 14.9654 55.7682 14.0499 57.0619C12.9893 58.5566 12.2403 60.0095 11.7597 61.5039C11.5278 62.2256 11.3763 62.9203 11.3048 63.595C10.9996 61.1704 10.8264 58.6949 10.7886 56.1989C10.7797 55.6031 10.8534 55.1296 11.2495 54.6112C11.6688 54.0585 12.0605 53.7498 12.6005 53.5462C14.8193 52.7135 16.2427 50.9539 17.2347 49.514C18.8372 47.1847 19.7771 44.4743 20.1081 41.2278C20.1434 40.8936 20.1634 40.5556 20.1841 40.198L20.1891 40.1168C20.199 39.9429 20.2095 39.7618 20.2228 39.5699C20.2311 39.4427 20.1647 39.3233 20.0538 39.2655C19.9465 39.21 19.8089 39.2263 19.7155 39.3076L19.4522 39.5393C19.3531 39.626 19.2683 39.7004 19.1803 39.7729C18.7575 40.1217 18.3331 40.4669 17.9078 40.8131L17.8633 40.8489C16.9297 41.6085 15.9641 42.3939 15.042 43.205C13.2526 44.7725 12.1005 46.3328 11.416 48.1159C11.3029 48.4099 11.2038 48.7006 11.1187 48.9884C11.4001 46.1549 11.8572 43.3646 12.4849 40.6574C12.5611 40.3262 12.6037 40.229 12.7603 40.1762C12.8588 40.1419 12.9506 40.076 13.0176 39.9944C13.4728 39.4629 14.0722 39.3787 14.6528 39.3666C16.5905 39.32 18.1273 38.3271 19.3747 37.362C22.4333 34.9958 24.5393 28.9922 24.5393 28.7886C24.5393 28.6826 24.4879 28.5837 24.4005 28.524C24.3144 28.4656 24.1982 28.4574 24.1105 28.4976C23.4733 28.7752 22.8361 29.0457 22.1764 29.326C20.7247 29.9443 19.2238 30.5831 17.7823 31.2817C16.3316 31.9868 15.1852 32.9298 14.3657 34.09C15.1468 31.8103 16.0524 29.5753 17.0663 27.4274C17.1829 27.1957 17.7305 26.9497 18.5158 26.9497C18.7712 26.9497 19.0186 26.9777 19.2324 27.0306C21.0773 27.4848 22.9066 27.2094 24.9313 26.1702C27.0027 25.1065 28.7212 23.3674 30.1849 20.8521C30.2129 20.8035 30.2678 20.655 30.2974 20.5718C30.3345 20.47 30.3196 20.3578 30.258 20.2726C30.2008 20.1917 30.1093 20.1434 29.9927 20.1434C29.9918 20.1434 29.9912 20.1434 29.9902 20.1434L29.259 20.1908C28.8108 20.2198 28.3756 20.2482 27.9404 20.271L27.4757 20.2952C26.0882 20.3669 24.6531 20.4407 23.2491 20.7843C21.6478 21.1797 20.4722 21.7869 19.5707 22.6875C20.6377 20.8632 21.7802 19.1274 22.9838 17.5015C23.0162 17.4585 23.1715 17.3926 23.2989 17.3707C23.3625 17.3554 23.5937 17.3054 23.9012 17.3054C24.309 17.3054 24.6661 17.3906 24.9688 17.5616C26.8922 18.5277 29.0522 18.5995 31.3974 17.772C33.3211 17.0969 34.9503 15.843 36.3784 13.9398C36.4248 13.8785 36.4667 13.8116 36.5049 13.7411C36.5484 13.6599 36.5512 13.5705 36.5131 13.4889C36.4026 13.2507 35.9242 13.1388 35.7228 13.1016C35.2285 13.0129 34.6685 12.9117 34.1133 12.8344C33.8588 12.7979 33.6041 12.7597 33.3487 12.7209L33.316 12.7156C32.4507 12.5845 31.5562 12.4487 30.655 12.4021C29.0083 12.3156 27.5462 12.6608 26.3496 13.425C27.1542 12.5453 27.9763 11.7107 28.8111 10.9266C29.0751 10.6793 29.3736 10.43 29.7806 10.1171C29.812 10.0923 29.892 10.0633 29.9902 10.0574C32.8741 9.94159 35.274 8.63385 37.326 6.06014C38.4438 4.65909 39.3008 2.89195 39.9466 0.65757L39.9688 0.580894C40.0378 0.345971 40.0759 0.216763 39.9174 0.0653682C39.7951 -0.0514406 39.5797 -0.0168538 39.02 0.210891C38.5118 0.411554 38.0004 0.606344 37.4753 0.806355C36.4204 1.20801 35.3292 1.62336 34.2762 2.09256C32.5165 2.87824 31.1112 4.06917 30.1001 5.63173C29.3301 6.8207 29.0258 8.01522 29.1691 9.27728C29.1681 9.29131 29.1561 9.32492 29.1541 9.32883C27.3172 10.958 25.5612 12.792 23.7582 14.9748C24.9605 13.0866 25.7442 10.9126 26.1374 8.3924C26.5339 5.85165 26.559 3.59019 26.2146 1.47915C26.1927 1.347 26.1632 1.21486 26.1254 1.04943L26.0691 0.794608C26.0437 0.685304 25.9637 0.596882 25.8585 0.562948C25.7534 0.530973 25.6356 0.559359 25.5571 0.636035C25.4313 0.757738 25.3081 0.87259 25.1877 0.984178L25.1029 1.06281C24.7947 1.34798 24.5038 1.61716 24.2404 1.92159C21.6818 4.88651 20.1895 8.01816 19.6784 11.4957C19.4455 13.0674 19.5421 14.4054 19.9738 15.5853C20.1167 15.9762 20.3397 16.3253 20.5617 16.6718C20.6634 16.83 20.765 16.9889 20.8581 17.1521C20.9267 17.2692 20.9324 17.2996 20.9321 17.294C20.8899 17.759 20.8292 18.2771 20.7472 18.899C20.7438 18.9068 20.7323 18.9251 20.6958 18.9747L20.6663 19.0168C19.267 21.0146 17.9761 23.1208 16.8144 25.3006C17.2712 23.6725 17.6349 21.6117 17.6092 19.2171C17.5781 16.3449 16.9342 13.7832 15.6401 11.3847C15.5889 11.2914 15.4962 11.2307 15.3663 11.2216C15.2719 11.2216 15.1811 11.2696 15.1217 11.3515C15.0829 11.4069 15.0435 11.4591 15.0061 11.5087C14.9225 11.6197 14.8444 11.7247 14.7745 11.837C13.744 13.4968 13.1913 15.3269 12.8244 16.7361C12.1539 19.3206 11.8458 21.4786 11.8547 23.528C11.8598 25.27 12.1688 26.609 12.8276 27.7422C13.0325 28.0949 13.2904 28.4036 13.5496 28.7142C13.6872 28.879 13.8285 29.0483 13.9566 29.2219C14.0461 29.3426 14.0893 29.4656 14.0919 29.5342C14.1087 29.9472 14.0998 30.3671 14.0912 30.773L14.0852 31.0536C14.0842 31.1019 14.0734 31.1574 14.0572 31.1998C13.2301 33.2583 12.503 35.3978 11.8829 37.5949C11.9741 36.8468 12.0256 36.1224 12.0386 35.4157C12.1136 31.4044 10.9157 27.8222 8.47742 24.7672L7.96918 24.1313C7.91042 24.0565 7.82338 24.0141 7.73063 24.0141L7.67981 24.0187C7.57117 24.0373 7.47969 24.1146 7.44189 24.22C7.39551 24.3469 7.35009 24.4667 7.30593 24.5825C7.2208 24.8063 7.14044 25.0184 7.07246 25.2341C6.54929 26.9174 6.29263 28.7563 6.24054 31.1956L6.23959 31.2432C6.20052 33.0179 6.14683 35.449 6.85646 37.7754C7.55497 40.0655 8.78681 41.2229 9.02569 41.4307L9.0511 41.4542C9.70132 42.0503 10.1248 42.5955 10.2124 42.9495C10.2477 43.0925 10.2836 43.2357 10.3255 43.3773C10.511 44.0074 10.3951 44.6077 10.2699 45.256C10.2077 45.5833 10.1429 45.9213 10.1203 46.2682C10.0307 47.6562 9.92082 49.0677 9.81441 50.4325L9.80488 50.5588C9.77756 50.9069 9.75024 51.255 9.72324 51.6032C9.45197 48.48 8.44502 45.641 6.71257 43.1303C5.65162 41.5942 4.38674 40.2799 2.95224 39.2231C2.8903 39.1774 2.82518 39.1366 2.73814 39.0834C2.6959 39.0583 2.64698 39.0283 2.58758 38.9901C2.498 38.935 2.38301 38.9301 2.29058 38.9764C2.19592 39.0237 2.1308 39.12 2.12 39.229C2.10062 39.4264 2.07807 39.6176 2.05424 39.8159C2.00628 40.2222 1.96086 40.6059 1.95895 41C1.93767 45.0857 2.77912 48.9143 4.46075 52.3781C4.92929 53.3446 5.54838 54.1805 6.30153 54.8637C7.04832 55.5375 7.8542 55.9349 8.76363 56.0778C8.78364 56.0814 8.83128 56.1111 8.83859 56.117C8.88783 56.2184 8.93897 56.3202 8.99011 56.4224C9.1718 56.7829 9.35953 57.1559 9.45292 57.5298C9.53075 57.8459 9.53075 58.1915 9.53075 58.5576C9.53075 58.6917 9.53075 58.8267 9.53488 58.9592C9.62223 62.1241 9.7369 63.2263 10.2299 66.0542C9.92908 65.2134 9.55139 64.3703 9.0638 63.5591C7.0893 60.2764 4.58082 58.0482 1.39512 56.748C1.19246 56.6641 0.989167 56.6038 0.753472 56.5333L0.70646 56.5189C0.610847 56.4902 0.509517 56.4596 0.401199 56.4256C0.303363 56.3927 0.191869 56.4152 0.112139 56.4831C0.0327264 56.5506 -0.0088856 56.654 0.00159682 56.7617C0.0251028 56.9862 0.0413029 57.2045 0.0562324 57.4175C0.0889503 57.8848 0.119762 58.3259 0.229986 58.7625C1.2579 62.8407 2.95923 66.0888 5.43085 68.6928C6.48767 69.8061 7.60135 70.4443 8.83541 70.6443C9.14671 70.6943 9.52725 70.7005 10.1714 70.6593L10.357 70.6479C10.3852 70.6463 10.41 70.6447 10.4326 70.6447C10.4834 70.6447 10.4875 70.6447 10.5228 70.6982L11.3858 71.9155C11.3969 71.9315 11.4131 71.9893 11.4243 72.0291L11.437 72.0728C12.3327 75.192 13.4442 78.1964 14.7548 81.0478C14.1649 80.2116 13.5185 79.4481 12.7981 78.7299C9.48501 75.4279 3.82069 75.3324 3.18571 75.3324L3.10662 75.333L3.05674 75.3425C2.9011 75.3992 2.81692 75.5702 2.86488 75.7311C2.90904 75.8828 2.95033 76.0361 2.99766 76.2162C3.08819 76.5546 3.18222 76.904 3.31404 77.2421C3.94171 78.8533 4.95914 80.4031 6.51658 82.1213C7.58674 83.2992 8.79317 84.4937 10.362 85.249C12.0802 86.0778 13.6316 86.2801 15.1744 85.8742C15.4368 85.8034 15.7386 85.7137 15.9981 85.5407C16.183 85.419 16.2335 85.4229 16.4152 85.5619C16.6305 85.7264 16.8595 85.8644 17.0819 85.9982C17.2048 86.0722 17.3287 86.147 17.4443 86.222C17.4628 86.238 17.5021 86.3042 17.5168 86.3287C18.9011 88.6479 20.4261 90.8033 22.0728 92.7695C21.1821 92.1039 20.2676 91.6223 19.2962 91.3016C16.3278 90.3191 13.2164 90.4441 10.1349 91.668C9.67496 91.851 9.17085 92.1283 9.13718 92.1479C9.06666 92.1956 9.01806 92.2726 9.00281 92.361C8.98947 92.4478 9.01139 92.5365 9.06285 92.6044C9.1591 92.733 9.25217 92.8622 9.34429 92.9904L9.36462 93.0184C9.57268 93.3095 9.80837 93.6387 10.0727 93.9304C11.2629 95.2411 12.7307 96.1198 14.1398 96.8741C16.0775 97.9068 18.059 98.4631 20.0297 98.5284C20.1224 98.5316 20.2152 98.5336 20.3076 98.5336C22.1204 98.5336 23.5356 97.9199 24.6264 96.6646C24.6397 96.6549 24.687 96.6363 24.7131 96.6359C25.1299 96.6666 25.526 96.7289 25.822 96.7795C25.8687 96.788 25.9262 96.8167 25.9621 96.85C27.7844 98.5072 29.7145 99.9617 31.7306 101.2C31.425 101.107 31.1102 101.026 30.7881 100.961C28.6335 100.535 26.4348 100.802 24.0203 101.788C22.3914 102.455 20.8765 103.434 19.389 104.783C19.2664 104.893 19.2492 105.084 19.3502 105.216C19.8766 105.904 20.5614 106.289 21.1621 106.575C22.6271 107.274 24.2808 107.722 26.2194 107.944C26.2251 107.945 26.848 108 27.7215 108C28.3521 108 28.9388 107.971 29.4645 107.914C29.967 107.86 30.4683 107.771 30.9546 107.651C33.1883 107.093 34.7019 105.944 35.5691 104.161C35.5846 104.146 35.6513 104.106 35.7358 104.085C36.1389 103.982 36.5017 103.909 36.8467 103.862C36.928 103.849 37.0293 103.871 37.157 103.924C38.6995 104.535 40.3319 105.043 42.0056 105.435C42.0291 105.441 42.0536 105.444 42.078 105.444C42.1905 105.444 42.294 105.381 42.3486 105.277C42.5084 104.971 42.7031 104.678 42.9271 104.406C42.9973 104.32 43.0183 104.206 42.9836 104.1C42.9506 103.998 42.8667 103.92 42.7594 103.894Z" fill="#D7DBD8" fill-opacity="0.3"/>
</svg>
