<svg width="43" height="108" viewBox="0 0 43 108" fill="none" xmlns="http://www.w3.org/2000/svg">
<path d="M42.8877 56.4811C42.8077 56.4132 42.6914 56.3917 42.6009 56.423C42.4903 56.4579 42.389 56.4882 42.2934 56.517L42.2467 56.531C42.011 56.6018 41.8074 56.6625 41.6057 56.7457C38.419 58.0462 35.9103 60.2743 33.9358 63.557C33.4482 64.3681 33.0705 65.2112 32.7697 66.052C33.263 63.2239 33.3773 62.122 33.4647 58.9575C33.4688 58.8247 33.4688 58.6896 33.4688 58.5555C33.4688 58.1894 33.4688 57.8436 33.5466 57.5281C33.64 57.1542 33.8278 56.7812 34.0095 56.4204C34.0606 56.3183 34.1117 56.2161 34.154 56.1264C34.1686 56.1088 34.2159 56.0791 34.2343 56.0762C35.1457 55.9333 35.9516 55.5358 36.6987 54.8614C37.4515 54.1785 38.0706 53.3426 38.5391 52.3762C40.2207 48.9124 41.0622 45.0839 41.0409 40.9983C41.039 40.6042 40.9939 40.2205 40.9443 39.8032C40.9218 39.6162 40.8989 39.425 40.8799 39.227C40.8691 39.1183 40.8039 39.0217 40.7096 38.9747C40.6165 38.9284 40.5041 38.9317 40.4101 38.9901C40.3532 39.0266 40.3046 39.0563 40.2604 39.0827C40.175 39.1349 40.1099 39.1757 40.0483 39.2214C38.6138 40.2776 37.3486 41.5925 36.2873 43.1286C34.5555 45.6393 33.5482 48.4782 33.277 51.6013C33.25 51.2531 33.2226 50.905 33.1953 50.5569L33.1858 50.4306C33.0794 49.0658 32.9695 47.6543 32.8799 46.2663C32.8573 45.915 32.7916 45.573 32.7281 45.2422C32.6055 44.6063 32.4895 44.0056 32.675 43.3762C32.7173 43.2339 32.7528 43.0907 32.7884 42.9478C32.8761 42.5938 33.2995 42.0486 33.9497 41.4525L33.9742 41.43C34.214 41.2211 35.4459 40.0635 36.1447 37.7737C36.854 35.4474 36.8003 33.0166 36.7612 31.2417L36.7603 31.1944C36.7082 28.7545 36.4515 26.9159 35.928 25.232C35.8604 25.0167 35.78 24.8043 35.6949 24.5811C35.6507 24.4649 35.6056 24.3449 35.5593 24.2192C35.5211 24.1129 35.4297 24.0356 35.3226 24.0173L35.2702 24.0124C35.1774 24.0124 35.0907 24.0551 35.032 24.1289L34.5234 24.7654C32.0851 27.82 30.8873 31.4025 30.9623 35.4138C30.9753 36.1202 31.0267 36.8448 31.1179 37.593C30.4982 35.3962 29.7714 33.2577 28.9449 31.2006C28.9277 31.1555 28.9166 31.0998 28.9153 31.0524L28.9096 30.7712C28.901 30.3653 28.8921 29.9454 28.909 29.5323C28.9115 29.4638 28.9547 29.3408 29.0446 29.2198C29.1723 29.0465 29.314 28.8772 29.4607 28.701C29.7107 28.4021 29.969 28.0934 30.1735 27.7411C30.8323 26.6076 31.1417 25.2686 31.1468 23.5266C31.1557 21.4759 30.8479 19.3179 30.177 16.7348C29.8105 15.3256 29.2571 13.4949 28.2267 11.8351C28.1568 11.7235 28.0786 11.6185 27.9954 11.5072C27.9579 11.458 27.9185 11.4054 27.8785 11.349C27.8201 11.2684 27.7394 11.2214 27.6092 11.2214C27.5053 11.2292 27.4125 11.2899 27.3608 11.3842C26.0673 13.782 25.4231 16.3436 25.3926 19.2155C25.3666 21.61 25.7306 23.6705 26.1871 25.2989C25.0254 23.1191 23.7345 21.0129 22.3353 19.0152L22.3032 18.9698C22.2714 18.9264 22.2581 18.9052 22.2603 18.9202C22.1723 18.2739 22.1113 17.7567 22.0691 17.3064C22.07 17.2996 22.0783 17.2617 22.1437 17.1495C22.2362 16.9877 22.3375 16.8291 22.4452 16.6614C22.6612 16.324 22.8842 15.9749 23.0271 15.584C23.4585 14.4042 23.5553 13.0662 23.3225 11.4948C22.8114 8.01705 21.3188 4.88546 18.7604 1.92059C18.4971 1.61618 18.2062 1.347 17.8984 1.06249L17.8132 0.983203C17.6928 0.87129 17.5693 0.756768 17.4444 0.635719C17.365 0.558066 17.2513 0.529028 17.1411 0.562308C17.0369 0.596241 16.9565 0.684987 16.9317 0.795268L16.8758 1.04715C16.8377 1.21421 16.8082 1.34602 16.7863 1.47849C16.4419 3.58949 16.467 5.85058 16.8635 8.39162C17.2567 10.9118 18.0403 13.0854 19.2426 14.9736C17.4397 12.7914 15.6859 10.9591 13.8531 9.33521C13.8448 9.32411 13.8328 9.29051 13.8318 9.28202C13.9751 8.01444 13.6708 6.82028 12.9008 5.63133C11.8897 4.06879 10.4848 2.87789 8.725 2.09221C7.672 1.62303 6.58087 1.20768 5.51262 0.800815C5.00089 0.605702 4.48916 0.411242 3.96218 0.202752C3.43266 -0.0135691 3.20618 -0.0520697 3.08325 0.064737C2.92506 0.216129 2.96319 0.345335 3.03212 0.580253L3.05434 0.656927C3.70012 2.89126 4.55714 4.65837 5.67494 6.05907C7.72694 8.63306 10.1268 9.94078 13.0078 10.0563C13.1089 10.0625 13.1889 10.0912 13.2216 10.1173C13.6273 10.4292 13.9258 10.6788 14.1898 10.9261C15.0246 11.7098 15.8467 12.5448 16.6509 13.4241C15.4547 12.6606 13.9926 12.3161 12.3459 12.4015C11.4447 12.4482 10.5502 12.5839 9.68524 12.7151L9.65221 12.7203C9.3965 12.7588 9.14206 12.797 8.88826 12.8339C8.33238 12.9112 7.77205 13.0123 7.27716 13.1011C7.07672 13.138 6.59803 13.2499 6.48781 13.4884C6.44969 13.5699 6.45287 13.6593 6.49607 13.7406C6.53418 13.8114 6.57611 13.8779 6.62185 13.9386C8.05031 15.8425 9.67984 17.0963 11.6035 17.7714C13.949 18.5988 16.1033 18.5306 18.0391 17.5574C18.3351 17.39 18.6922 17.3051 19.1 17.3051C19.4078 17.3051 19.6387 17.3551 19.7153 17.373C19.83 17.3926 19.9856 17.4585 20.0174 17.5009C21.2213 19.1267 22.3638 20.8632 23.4308 22.6874C22.5293 21.7869 21.3537 21.1797 19.7521 20.7842C18.3485 20.4407 16.9133 20.3669 15.5258 20.2951L15.0611 20.271C14.6259 20.2482 14.1908 20.2198 13.7426 20.1907L12.991 20.1431C12.8938 20.1431 12.8014 20.1914 12.7448 20.2716C12.6823 20.3581 12.6673 20.4703 12.7042 20.5712C12.7343 20.6553 12.7893 20.8038 12.8176 20.8534C14.281 23.3677 15.9995 25.1067 18.0705 26.1704C20.0952 27.2092 21.9245 27.484 23.7698 27.0308C23.9832 26.9779 24.2307 26.9499 24.4864 26.9499C25.2713 26.9499 25.8186 27.1959 25.9336 27.4236C26.9488 29.5747 27.8547 31.8101 28.6361 34.0901C27.8166 32.9295 26.6705 31.9869 25.2195 31.2818C23.778 30.5829 22.2771 29.9441 20.8004 29.3154C20.1657 29.0458 19.5285 28.7754 18.8942 28.4987C18.7998 28.4563 18.6883 28.4651 18.6004 28.5248C18.514 28.5838 18.4625 28.6824 18.4625 28.7884C18.4625 28.992 20.5685 34.9958 23.6271 37.3616C24.8749 38.3268 26.4116 39.3196 28.3496 39.3663C28.9296 39.3783 29.5293 39.4625 29.9823 39.9914C30.0516 40.0756 30.1434 40.1412 30.2434 40.1761C30.3981 40.2283 30.4407 40.3255 30.5169 40.657C31.1446 43.3638 31.6017 46.1538 31.8831 48.9868C31.798 48.6994 31.6992 48.409 31.5858 48.115C30.9013 46.3319 29.7492 44.7717 27.9602 43.2046C27.038 42.3935 26.0724 41.6081 25.1385 40.8482L25.094 40.8123C24.6687 40.4661 24.2443 40.1213 23.8212 39.7722C23.7339 39.7001 23.6487 39.6257 23.5499 39.5389L23.286 39.3066C23.1935 39.2263 23.056 39.2097 22.948 39.2651C22.8371 39.3229 22.7708 39.4423 22.7793 39.5699C22.7924 39.7614 22.8028 39.9425 22.8127 40.1164L22.8178 40.1976C22.8387 40.5555 22.8584 40.8932 22.8937 41.2267C23.2247 44.4735 24.1646 47.1842 25.7671 49.5134C26.7591 50.9533 28.1822 52.7132 30.4013 53.5456C30.9413 53.7492 31.333 54.0575 31.7526 54.6109C32.1484 55.129 32.222 55.6024 32.2132 56.1982C32.1754 58.6939 32.0022 61.1696 31.697 63.5942C31.6255 62.9195 31.4743 62.2248 31.2421 61.5031C30.7615 60.0088 30.0125 58.5559 28.9519 57.0615C28.0364 55.7675 27.0838 54.4689 26.1626 53.2124L26.1013 53.1286C25.736 52.631 25.371 52.1328 25.0156 51.6453C24.9489 51.5452 24.8526 51.5093 24.797 51.4894C24.7183 51.4499 24.6242 51.446 24.5407 51.4825C24.4587 51.5184 24.3958 51.5892 24.3682 51.676L24.3574 51.7099C24.3422 51.7556 24.3301 51.7961 24.3237 51.8365C23.6884 55.7277 24.0782 59.2139 25.5149 62.4956C26.2166 64.1003 27.1578 65.917 28.8172 67.224C29.5748 67.8208 30.1729 68.658 30.5014 69.581C30.5709 69.7797 30.5684 69.8659 30.5604 69.8992C29.8581 72.8872 28.9407 75.7692 27.8255 78.4968C28.1126 77.0593 28.0929 75.5493 27.7651 73.9848C27.2998 71.7674 26.4999 69.6186 25.7865 67.7784L25.5727 67.2273C25.2382 66.3649 24.9015 65.4957 24.5537 64.5949C24.5096 64.4797 24.4031 64.4011 24.2612 64.3939C24.1493 64.3939 24.0464 64.4595 23.9931 64.5658L23.8809 64.7825C23.8317 64.8774 23.7856 64.9659 23.7463 65.0572C22.3111 68.3833 21.8264 71.7929 22.3063 75.1913C22.6494 77.6214 23.2307 79.3615 24.1913 80.8336C24.6884 81.5945 25.1607 82.4422 25.2465 83.4846C25.2668 83.7313 25.2573 83.9013 25.1503 84.0948C23.9387 86.274 22.5805 88.3305 21.0929 90.2411C21.0986 90.2307 21.1041 90.2203 21.1098 90.2098C22.1799 88.2009 22.2123 86.0289 22.1031 84.1688C22.0087 82.5743 21.8308 80.9821 21.6596 79.4427L21.6498 79.3536C21.5808 78.737 21.5122 78.1206 21.4497 77.503C21.4134 77.1529 21.3731 76.8028 21.3315 76.4475L21.2765 75.9666C21.2645 75.8602 21.2013 75.7682 21.1104 75.7219C20.9414 75.6312 20.6679 75.7711 20.3725 76.13C18.3424 78.5964 17.0826 81.3834 16.6278 84.4142C16.1561 87.5565 16.4118 90.2457 17.4104 92.6353C17.4371 92.699 17.4365 92.8288 17.4362 92.8722L17.3825 94.2472C17.3745 94.346 17.3237 94.4576 17.2818 94.499C15.2546 96.5043 13.0228 98.2476 10.6277 99.6986C11.7614 98.646 12.5765 97.2727 13.1047 95.5323C13.6902 93.6034 13.9906 91.5958 14.2819 89.6493L14.3073 89.476C14.4106 88.7922 14.5183 88.1096 14.6282 87.412L14.7524 86.6234C14.7701 86.5085 14.726 86.3937 14.6393 86.3249C14.5532 86.2544 14.4287 86.2374 14.3296 86.2811L14.2213 86.3271C14.1056 86.3758 14.0049 86.4192 13.91 86.4691C9.38221 88.7918 6.40172 94.2093 6.82292 99.3501C6.88899 100.155 6.8172 100.912 6.6031 101.661C6.58309 101.729 6.51893 101.803 6.49289 101.815C4.34241 102.747 2.29771 103.427 0.240307 103.893C0.13453 103.918 0.050666 103.996 0.01636 104.101C-0.0182636 104.206 0.0027063 104.321 0.0732241 104.407C0.296848 104.679 0.491561 104.972 0.651656 105.278C0.717409 105.403 0.874009 105.467 0.991222 105.436C2.66745 105.043 4.29984 104.535 5.84456 103.923C5.9694 103.872 6.06469 103.847 6.15395 103.862C6.49765 103.909 6.86072 103.982 7.26382 104.084C7.34704 104.105 7.41597 104.145 7.41724 104.141C8.29776 105.944 9.81104 107.093 12.0451 107.652C12.5311 107.771 13.0323 107.86 13.5348 107.914C14.0608 107.971 14.6475 108 15.2781 108C16.1516 108 16.7745 107.945 16.7821 107.944C18.7185 107.721 20.3722 107.274 21.8369 106.575C22.4379 106.289 23.1227 105.904 23.6491 105.216C23.7497 105.084 23.7329 104.894 23.6106 104.783C22.1228 103.434 20.6079 102.455 18.9787 101.788C16.5649 100.802 14.3661 100.535 12.2109 100.961C11.8888 101.026 11.5743 101.106 11.2687 101.199C13.2848 99.9615 15.2152 98.5067 17.0382 96.8492C17.0731 96.8166 17.1306 96.7879 17.1754 96.7797C17.4737 96.7288 17.8698 96.6662 18.2751 96.6361C18.3126 96.6361 18.3602 96.6547 18.3656 96.6567C19.464 97.9194 20.8792 98.5331 22.692 98.5331C22.7844 98.5331 22.8772 98.5312 22.9696 98.5279C24.9406 98.4626 26.9221 97.9063 28.8601 96.8737C30.2685 96.119 31.7367 95.2403 32.9272 93.93C33.1912 93.6386 33.4269 93.3091 33.6349 93.0184L33.6553 92.99C33.7474 92.8618 33.8405 92.7326 33.9361 92.605C33.9882 92.5362 34.0101 92.4474 33.9964 92.358C33.9818 92.2719 33.9332 92.1952 33.8503 92.1397C33.8293 92.128 33.3252 91.8503 32.865 91.6673C29.7832 90.4441 26.6718 90.3188 23.7037 91.3012C22.732 91.6219 21.8175 92.1035 20.9271 92.7691C22.5738 90.803 24.0985 88.6476 25.4828 86.3284C25.4978 86.304 25.5371 86.2377 25.5499 86.2257C25.6709 86.1464 25.7948 86.0713 25.9183 85.9973C26.1397 85.8638 26.3691 85.7258 26.5844 85.5614C26.7661 85.422 26.8173 85.4185 27.0009 85.5398C27.2607 85.7131 27.5628 85.8031 27.8261 85.8739C29.3667 86.2792 30.9197 86.0772 32.6375 85.2488C34.2067 84.4931 35.4131 83.2986 36.4836 82.1208C38.0407 80.4026 39.0582 78.8525 39.6858 77.242C39.8176 76.904 39.9117 76.5545 40.0095 76.1891C40.0498 76.0357 40.0911 75.8824 40.135 75.7317C40.1829 75.5698 40.0991 75.3985 39.9434 75.3421L39.8145 75.332C39.1795 75.332 33.5152 75.4276 30.2021 78.7295C29.4814 79.4479 28.8353 80.2114 28.2454 81.0473C29.556 78.1963 30.6675 75.1917 31.5632 72.0728L31.5763 72.0271C31.5871 71.9889 31.6033 71.9312 31.6141 71.9155L32.4806 70.6933C32.513 70.6444 32.5168 70.6444 32.5676 70.6444C32.5902 70.6444 32.615 70.646 32.6432 70.6476L32.8284 70.659C33.4733 70.7002 33.8529 70.6943 34.1651 70.644C35.3988 70.444 36.5125 69.8058 37.5693 68.6926C40.041 66.0889 41.7423 62.8405 42.7702 58.7627C42.8804 58.3258 42.9112 57.8847 42.9443 57.4168C42.9589 57.2047 42.9751 56.9861 42.9986 56.7604C43.0084 56.652 42.9671 56.5486 42.8877 56.4811Z" fill="#D7DBD8" fill-opacity="0.3"/>
</svg>
