<svg width="635" height="112" viewBox="0 0 635 112" fill="none" xmlns="http://www.w3.org/2000/svg">
<path d="M11.492 34.306C10.6533 34.306 9.97333 34.1133 9.452 33.728C8.93067 33.32 8.52267 32.6967 8.228 31.858L1.598 13.396C1.23533 12.376 1.292 11.5147 1.768 10.812C2.26667 10.0867 3.13933 9.724 4.386 9.724C5.22467 9.724 5.882 9.928 6.358 10.336C6.834 10.7213 7.208 11.3333 7.48 12.172L12.546 27.37H10.948L16.388 12.172C16.7053 11.3333 17.102 10.7213 17.578 10.336C18.054 9.928 18.666 9.724 19.414 9.724C20.162 9.724 20.7627 9.928 21.216 10.336C21.6693 10.7213 22.0433 11.3447 22.338 12.206L27.438 27.37H26.078L31.28 12.172C31.552 11.3333 31.9147 10.7213 32.368 10.336C32.844 9.928 33.5013 9.724 34.34 9.724C35.3827 9.724 36.142 10.0867 36.618 10.812C37.1167 11.5147 37.1733 12.376 36.788 13.396L30.09 31.892C29.7953 32.708 29.3873 33.32 28.866 33.728C28.3673 34.1133 27.6987 34.306 26.86 34.306C25.9987 34.306 25.3073 34.1133 24.786 33.728C24.2873 33.32 23.8907 32.6967 23.596 31.858L18.802 18.394H19.652L14.756 31.892C14.4387 32.708 14.0307 33.32 13.532 33.728C13.0333 34.1133 12.3533 34.306 11.492 34.306ZM46.2926 34.374C44.4339 34.374 42.8133 34.0227 41.4306 33.32C40.0479 32.6173 38.9713 31.6087 38.2006 30.294C37.4299 28.9793 37.0446 27.4267 37.0446 25.636C37.0446 24.276 37.2599 23.0633 37.6906 21.998C38.1213 20.91 38.7446 19.992 39.5606 19.244C40.3766 18.4733 41.3513 17.8953 42.4846 17.51C43.6179 17.102 44.8873 16.898 46.2926 16.898C48.1513 16.898 49.7719 17.2493 51.1546 17.952C52.5373 18.6547 53.6026 19.6633 54.3506 20.978C55.1213 22.27 55.5066 23.8227 55.5066 25.636C55.5066 26.9733 55.2913 28.186 54.8606 29.274C54.4299 30.362 53.8066 31.2913 52.9906 32.062C52.1973 32.81 51.2226 33.388 50.0666 33.796C48.9333 34.1813 47.6753 34.374 46.2926 34.374ZM46.2926 29.92C46.9046 29.92 47.4486 29.7727 47.9246 29.478C48.4006 29.1607 48.7633 28.696 49.0126 28.084C49.2846 27.4493 49.4206 26.6333 49.4206 25.636C49.4206 24.1173 49.1259 23.0293 48.5366 22.372C47.9473 21.692 47.1993 21.352 46.2926 21.352C45.6806 21.352 45.1366 21.4993 44.6606 21.794C44.1846 22.0887 43.8106 22.5533 43.5386 23.188C43.2666 23.8 43.1306 24.616 43.1306 25.636C43.1306 27.132 43.4253 28.22 44.0146 28.9C44.6039 29.58 45.3633 29.92 46.2926 29.92ZM61.3737 34.306C60.3764 34.306 59.6057 34.0453 59.0617 33.524C58.5404 33.0027 58.2797 32.2433 58.2797 31.246V19.992C58.2797 19.0173 58.5291 18.2693 59.0277 17.748C59.5491 17.2267 60.2857 16.966 61.2377 16.966C62.1897 16.966 62.9151 17.2267 63.4137 17.748C63.9124 18.2693 64.1617 19.0173 64.1617 19.992V21.386H63.8217C64.0484 20.026 64.6264 18.9493 65.5557 18.156C66.5077 17.3627 67.6864 16.9433 69.0917 16.898C69.7491 16.8753 70.2364 17.0453 70.5537 17.408C70.8937 17.748 71.0751 18.394 71.0977 19.346C71.0977 20.162 70.9277 20.808 70.5877 21.284C70.2477 21.76 69.6017 22.0433 68.6497 22.134L67.8677 22.202C66.6664 22.3153 65.7937 22.6553 65.2497 23.222C64.7057 23.766 64.4337 24.582 64.4337 25.67V31.246C64.4337 32.2433 64.1731 33.0027 63.6517 33.524C63.1304 34.0453 62.3711 34.306 61.3737 34.306ZM79.3799 34.374C77.2039 34.374 75.5946 33.796 74.5519 32.64C73.5319 31.4613 73.0219 29.6933 73.0219 27.336V12.784C73.0219 11.7867 73.2826 11.0273 73.8039 10.506C74.3252 9.98467 75.0619 9.724 76.0139 9.724C76.9886 9.724 77.7366 9.98467 78.2579 10.506C78.8019 11.0273 79.0739 11.7867 79.0739 12.784V27.132C79.0739 27.9707 79.2326 28.5827 79.5499 28.968C79.8899 29.3533 80.3206 29.546 80.8419 29.546C81.0006 29.546 81.1592 29.5347 81.3179 29.512C81.4992 29.4667 81.6919 29.4327 81.8959 29.41C82.2812 29.41 82.5646 29.5573 82.7459 29.852C82.9499 30.1467 83.0519 30.7473 83.0519 31.654C83.0519 32.4473 82.8932 33.048 82.5759 33.456C82.2586 33.8413 81.7712 34.0907 81.1139 34.204C80.9326 34.2267 80.6719 34.2607 80.3319 34.306C79.9919 34.3513 79.6746 34.374 79.3799 34.374ZM91.2042 34.374C89.7762 34.374 88.5069 34.0227 87.3962 33.32C86.3082 32.6173 85.4469 31.6087 84.8122 30.294C84.2002 28.9793 83.8942 27.4267 83.8942 25.636C83.8942 23.8 84.2002 22.236 84.8122 20.944C85.4469 19.652 86.3082 18.6547 87.3962 17.952C88.5069 17.2493 89.7762 16.898 91.2042 16.898C92.4509 16.898 93.5729 17.1927 94.5702 17.782C95.5675 18.3713 96.2362 19.1307 96.5762 20.06H96.2022V12.784C96.2022 11.7867 96.4629 11.0273 96.9842 10.506C97.5055 9.98467 98.2535 9.724 99.2282 9.724C100.18 9.724 100.917 9.98467 101.438 10.506C101.982 11.0273 102.254 11.7867 102.254 12.784V31.246C102.254 32.2433 101.994 33.0027 101.472 33.524C100.974 34.0453 100.237 34.306 99.2622 34.306C98.3102 34.306 97.5735 34.0453 97.0522 33.524C96.5309 33.0027 96.2702 32.2433 96.2702 31.246V29.308L96.6442 30.974C96.3269 31.994 95.6582 32.8213 94.6382 33.456C93.6409 34.068 92.4962 34.374 91.2042 34.374ZM93.1422 29.92C93.7542 29.92 94.2982 29.7727 94.7742 29.478C95.2502 29.1607 95.6129 28.696 95.8622 28.084C96.1342 27.4493 96.2702 26.6333 96.2702 25.636C96.2702 24.1173 95.9755 23.0293 95.3862 22.372C94.7969 21.692 94.0489 21.352 93.1422 21.352C92.5302 21.352 91.9862 21.4993 91.5102 21.794C91.0342 22.0887 90.6602 22.5533 90.3882 23.188C90.1162 23.8 89.9802 24.616 89.9802 25.636C89.9802 27.132 90.2749 28.22 90.8642 28.9C91.4535 29.58 92.2129 29.92 93.1422 29.92ZM110.761 20.298C110.398 20.7967 109.99 21.0687 109.537 21.114C109.106 21.1593 108.732 21.0687 108.415 20.842C108.098 20.6153 107.916 20.298 107.871 19.89C107.826 19.4593 108.018 18.9947 108.449 18.496C109.016 17.8387 109.39 17.1813 109.571 16.524C109.752 15.8667 109.843 15.2773 109.843 14.756L110.047 16.422C109.004 16.422 108.166 16.1273 107.531 15.538C106.896 14.9487 106.579 14.144 106.579 13.124C106.579 12.1267 106.874 11.3333 107.463 10.744C108.075 10.132 108.891 9.826 109.911 9.826C110.976 9.826 111.804 10.1887 112.393 10.914C112.982 11.6167 113.277 12.6027 113.277 13.872C113.277 14.5067 113.209 15.1527 113.073 15.81C112.96 16.4673 112.722 17.17 112.359 17.918C112.019 18.6433 111.486 19.4367 110.761 20.298ZM122.086 34.374C121.089 34.374 120.069 34.2947 119.026 34.136C118.006 34 117.077 33.7393 116.238 33.354C115.672 33.1273 115.264 32.8213 115.014 32.436C114.788 32.0507 114.674 31.6427 114.674 31.212C114.697 30.7813 114.822 30.396 115.048 30.056C115.298 29.6933 115.615 29.444 116 29.308C116.408 29.1493 116.862 29.1607 117.36 29.342C118.312 29.682 119.162 29.9313 119.91 30.09C120.681 30.226 121.418 30.294 122.12 30.294C122.959 30.294 123.56 30.1807 123.922 29.954C124.285 29.7047 124.466 29.3873 124.466 29.002C124.466 28.662 124.342 28.4013 124.092 28.22C123.866 28.0387 123.537 27.914 123.106 27.846L119.332 27.234C117.927 26.9847 116.839 26.4747 116.068 25.704C115.298 24.9107 114.912 23.8793 114.912 22.61C114.912 21.4313 115.241 20.4227 115.898 19.584C116.578 18.7227 117.496 18.0653 118.652 17.612C119.831 17.136 121.18 16.898 122.698 16.898C123.718 16.898 124.648 16.9773 125.486 17.136C126.325 17.272 127.141 17.5327 127.934 17.918C128.433 18.122 128.784 18.4167 128.988 18.802C129.192 19.1873 129.272 19.5953 129.226 20.026C129.181 20.434 129.034 20.8193 128.784 21.182C128.558 21.522 128.24 21.76 127.832 21.896C127.424 22.0093 126.948 21.9753 126.404 21.794C125.656 21.4993 124.988 21.284 124.398 21.148C123.832 21.012 123.299 20.944 122.8 20.944C121.871 20.944 121.214 21.0687 120.828 21.318C120.443 21.5673 120.25 21.8847 120.25 22.27C120.25 22.5647 120.352 22.814 120.556 23.018C120.76 23.1993 121.078 23.324 121.508 23.392L125.282 24.038C126.733 24.2647 127.844 24.7633 128.614 25.534C129.408 26.282 129.804 27.302 129.804 28.594C129.804 30.43 129.102 31.858 127.696 32.878C126.291 33.8753 124.421 34.374 122.086 34.374ZM145.588 34C144.591 34 143.809 33.728 143.242 33.184C142.698 32.6173 142.426 31.8353 142.426 30.838V13.158C142.426 12.138 142.698 11.356 143.242 10.812C143.786 10.268 144.557 9.996 145.554 9.996C146.574 9.996 147.345 10.268 147.866 10.812C148.41 11.356 148.682 12.138 148.682 13.158V28.798H156.978C157.839 28.798 158.497 29.0247 158.95 29.478C159.426 29.9087 159.664 30.5433 159.664 31.382C159.664 32.2207 159.426 32.8667 158.95 33.32C158.497 33.7733 157.839 34 156.978 34H145.588ZM167.721 34.374C166.429 34.374 165.284 34.136 164.287 33.66C163.312 33.184 162.541 32.538 161.975 31.722C161.431 30.8833 161.159 29.9313 161.159 28.866C161.159 27.642 161.476 26.6787 162.111 25.976C162.745 25.2733 163.765 24.7747 165.171 24.48C166.576 24.1627 168.446 24.004 170.781 24.004H172.651V26.86H170.781C169.897 26.86 169.16 26.928 168.571 27.064C168.004 27.1773 167.585 27.37 167.313 27.642C167.041 27.8913 166.905 28.22 166.905 28.628C166.905 29.1493 167.086 29.58 167.449 29.92C167.834 30.26 168.378 30.43 169.081 30.43C169.647 30.43 170.146 30.3053 170.577 30.056C171.03 29.8067 171.393 29.4667 171.665 29.036C171.937 28.5827 172.073 28.0613 172.073 27.472V23.528C172.073 22.712 171.857 22.134 171.427 21.794C171.019 21.454 170.305 21.284 169.285 21.284C168.741 21.284 168.129 21.352 167.449 21.488C166.769 21.6013 166.009 21.8167 165.171 22.134C164.559 22.3607 164.037 22.3947 163.607 22.236C163.176 22.0773 162.836 21.8053 162.587 21.42C162.36 21.0347 162.247 20.6153 162.247 20.162C162.269 19.7087 162.417 19.278 162.689 18.87C162.983 18.462 163.425 18.1447 164.015 17.918C165.103 17.51 166.1 17.238 167.007 17.102C167.936 16.966 168.786 16.898 169.557 16.898C171.415 16.898 172.945 17.17 174.147 17.714C175.371 18.2353 176.277 19.0513 176.867 20.162C177.479 21.25 177.785 22.6553 177.785 24.378V31.246C177.785 32.2433 177.547 33.0027 177.071 33.524C176.595 34.0453 175.903 34.306 174.997 34.306C174.067 34.306 173.353 34.0453 172.855 33.524C172.379 33.0027 172.141 32.2433 172.141 31.246V30.362L172.345 30.838C172.231 31.5633 171.971 32.1867 171.563 32.708C171.155 33.2293 170.622 33.6373 169.965 33.932C169.307 34.2267 168.559 34.374 167.721 34.374ZM184.325 34.306C183.328 34.306 182.557 34.0453 182.013 33.524C181.492 33.0027 181.231 32.2433 181.231 31.246V19.992C181.231 19.0173 181.48 18.2693 181.979 17.748C182.5 17.2267 183.237 16.966 184.189 16.966C185.141 16.966 185.866 17.2267 186.365 17.748C186.864 18.2693 187.113 19.0173 187.113 19.992V21.386H186.773C187 20.026 187.578 18.9493 188.507 18.156C189.459 17.3627 190.638 16.9433 192.043 16.898C192.7 16.8753 193.188 17.0453 193.505 17.408C193.845 17.748 194.026 18.394 194.049 19.346C194.049 20.162 193.879 20.808 193.539 21.284C193.199 21.76 192.553 22.0433 191.601 22.134L190.819 22.202C189.618 22.3153 188.745 22.6553 188.201 23.222C187.657 23.766 187.385 24.582 187.385 25.67V31.246C187.385 32.2433 187.124 33.0027 186.603 33.524C186.082 34.0453 185.322 34.306 184.325 34.306ZM203.97 40.494C202.724 40.494 201.556 40.4033 200.468 40.222C199.38 40.0633 198.44 39.8253 197.646 39.508C196.989 39.2813 196.524 38.9527 196.252 38.522C195.98 38.0913 195.856 37.638 195.878 37.162C195.901 36.686 196.026 36.2553 196.252 35.87C196.502 35.4847 196.83 35.2013 197.238 35.02C197.646 34.8613 198.1 34.8727 198.598 35.054C199.596 35.462 200.502 35.7227 201.318 35.836C202.134 35.972 202.826 36.04 203.392 36.04C204.775 36.04 205.806 35.7453 206.486 35.156C207.189 34.5893 207.54 33.694 207.54 32.47V30.328H207.812C207.472 31.28 206.781 32.062 205.738 32.674C204.696 33.2633 203.562 33.558 202.338 33.558C200.842 33.558 199.539 33.218 198.428 32.538C197.318 31.8353 196.445 30.8607 195.81 29.614C195.198 28.3673 194.892 26.9053 194.892 25.228C194.892 23.9587 195.074 22.814 195.436 21.794C195.799 20.774 196.298 19.9013 196.932 19.176C197.59 18.4507 198.372 17.8953 199.278 17.51C200.208 17.102 201.228 16.898 202.338 16.898C203.608 16.898 204.741 17.1927 205.738 17.782C206.758 18.3713 207.438 19.142 207.778 20.094L207.438 21.488V19.992C207.438 19.0173 207.699 18.2693 208.22 17.748C208.764 17.2267 209.512 16.966 210.464 16.966C211.416 16.966 212.142 17.2267 212.64 17.748C213.162 18.2693 213.422 19.0173 213.422 19.992V31.756C213.422 34.6573 212.606 36.8333 210.974 38.284C209.342 39.7573 207.008 40.494 203.97 40.494ZM204.208 29.104C204.888 29.104 205.466 28.9567 205.942 28.662C206.418 28.3447 206.792 27.9027 207.064 27.336C207.336 26.7467 207.472 26.044 207.472 25.228C207.472 24.004 207.178 23.052 206.588 22.372C205.999 21.692 205.206 21.352 204.208 21.352C203.574 21.352 203.007 21.5107 202.508 21.828C202.01 22.1227 201.624 22.5647 201.352 23.154C201.103 23.7207 200.978 24.412 200.978 25.228C200.978 26.452 201.273 27.404 201.862 28.084C202.452 28.764 203.234 29.104 204.208 29.104ZM226.069 34.374C224.029 34.374 222.261 34.0227 220.765 33.32C219.292 32.5947 218.159 31.5747 217.365 30.26C216.572 28.9453 216.175 27.3927 216.175 25.602C216.175 23.8793 216.549 22.372 217.297 21.08C218.068 19.7653 219.111 18.7453 220.425 18.02C221.763 17.272 223.281 16.898 224.981 16.898C226.228 16.898 227.361 17.102 228.381 17.51C229.401 17.8953 230.274 18.4733 230.999 19.244C231.725 19.992 232.269 20.8987 232.631 21.964C233.017 23.0293 233.209 24.2193 233.209 25.534C233.209 25.9873 233.085 26.3273 232.835 26.554C232.586 26.758 232.189 26.86 231.645 26.86H221.241V24.004H228.789L228.245 24.446C228.245 23.6073 228.132 22.9273 227.905 22.406C227.679 21.8847 227.339 21.488 226.885 21.216C226.455 20.944 225.911 20.808 225.253 20.808C224.551 20.808 223.939 20.978 223.417 21.318C222.919 21.6353 222.533 22.1113 222.261 22.746C221.989 23.3807 221.853 24.174 221.853 25.126V25.432C221.853 27.0413 222.205 28.1973 222.907 28.9C223.633 29.58 224.743 29.92 226.239 29.92C226.738 29.92 227.305 29.8633 227.939 29.75C228.597 29.614 229.22 29.4327 229.809 29.206C230.399 28.9793 230.909 28.9453 231.339 29.104C231.77 29.24 232.099 29.4893 232.325 29.852C232.575 30.192 232.711 30.5887 232.733 31.042C232.756 31.4727 232.654 31.9033 232.427 32.334C232.201 32.742 231.827 33.0593 231.305 33.286C230.512 33.6487 229.662 33.9207 228.755 34.102C227.871 34.2833 226.976 34.374 226.069 34.374ZM242.481 34.374C241.483 34.374 240.463 34.2947 239.421 34.136C238.401 34 237.471 33.7393 236.633 33.354C236.066 33.1273 235.658 32.8213 235.409 32.436C235.182 32.0507 235.069 31.6427 235.069 31.212C235.091 30.7813 235.216 30.396 235.443 30.056C235.692 29.6933 236.009 29.444 236.395 29.308C236.803 29.1493 237.256 29.1607 237.755 29.342C238.707 29.682 239.557 29.9313 240.305 30.09C241.075 30.226 241.812 30.294 242.515 30.294C243.353 30.294 243.954 30.1807 244.317 29.954C244.679 29.7047 244.861 29.3873 244.861 29.002C244.861 28.662 244.736 28.4013 244.487 28.22C244.26 28.0387 243.931 27.914 243.501 27.846L239.727 27.234C238.321 26.9847 237.233 26.4747 236.463 25.704C235.692 24.9107 235.307 23.8793 235.307 22.61C235.307 21.4313 235.635 20.4227 236.293 19.584C236.973 18.7227 237.891 18.0653 239.047 17.612C240.225 17.136 241.574 16.898 243.093 16.898C244.113 16.898 245.042 16.9773 245.881 17.136C246.719 17.272 247.535 17.5327 248.329 17.918C248.827 18.122 249.179 18.4167 249.383 18.802C249.587 19.1873 249.666 19.5953 249.621 20.026C249.575 20.434 249.428 20.8193 249.179 21.182C248.952 21.522 248.635 21.76 248.227 21.896C247.819 22.0093 247.343 21.9753 246.799 21.794C246.051 21.4993 245.382 21.284 244.793 21.148C244.226 21.012 243.693 20.944 243.195 20.944C242.265 20.944 241.608 21.0687 241.223 21.318C240.837 21.5673 240.645 21.8847 240.645 22.27C240.645 22.5647 240.747 22.814 240.951 23.018C241.155 23.1993 241.472 23.324 241.903 23.392L245.677 24.038C247.127 24.2647 248.238 24.7633 249.009 25.534C249.802 26.282 250.199 27.302 250.199 28.594C250.199 30.43 249.496 31.858 248.091 32.878C246.685 33.8753 244.815 34.374 242.481 34.374ZM261.29 34.374C259.59 34.374 258.185 34.1133 257.074 33.592C255.986 33.0707 255.17 32.2887 254.626 31.246C254.082 30.1807 253.81 28.8547 253.81 27.268V21.726H252.654C251.929 21.726 251.362 21.5333 250.954 21.148C250.569 20.7627 250.376 20.2073 250.376 19.482C250.376 18.7567 250.569 18.2127 250.954 17.85C251.362 17.4647 251.929 17.272 252.654 17.272H253.81V15.164C253.81 14.1667 254.071 13.4073 254.592 12.886C255.113 12.3647 255.861 12.104 256.836 12.104C257.811 12.104 258.559 12.3647 259.08 12.886C259.601 13.4073 259.862 14.1667 259.862 15.164V17.272H262.65C263.398 17.272 263.965 17.4647 264.35 17.85C264.758 18.2127 264.962 18.7567 264.962 19.482C264.962 20.2073 264.758 20.7627 264.35 21.148C263.965 21.5333 263.398 21.726 262.65 21.726H259.862V27.064C259.862 27.9027 260.055 28.526 260.44 28.934C260.848 29.3193 261.483 29.512 262.344 29.512C262.661 29.512 262.967 29.478 263.262 29.41C263.557 29.342 263.829 29.308 264.078 29.308C264.441 29.2853 264.735 29.3987 264.962 29.648C265.189 29.8747 265.302 30.4073 265.302 31.246C265.302 31.926 265.2 32.504 264.996 32.98C264.792 33.4333 264.429 33.762 263.908 33.966C263.591 34.0793 263.16 34.17 262.616 34.238C262.072 34.3287 261.63 34.374 261.29 34.374ZM280.395 34C279.33 34 278.514 33.728 277.947 33.184C277.403 32.6173 277.131 31.8127 277.131 30.77V13.26C277.131 12.2173 277.403 11.424 277.947 10.88C278.514 10.3133 279.33 10.03 280.395 10.03H288.691C290.414 10.03 291.876 10.2907 293.077 10.812C294.301 11.3107 295.23 12.0247 295.865 12.954C296.5 13.8833 296.817 14.9713 296.817 16.218C296.817 17.6233 296.409 18.8247 295.593 19.822C294.8 20.8193 293.712 21.4993 292.329 21.862V21.318C293.961 21.6127 295.219 22.27 296.103 23.29C297.01 24.31 297.463 25.6133 297.463 27.2C297.463 29.308 296.704 30.974 295.185 32.198C293.689 33.3993 291.638 34 289.031 34H280.395ZM283.115 29.41H288.181C289.337 29.41 290.176 29.1947 290.697 28.764C291.241 28.3107 291.513 27.642 291.513 26.758C291.513 25.874 291.241 25.2167 290.697 24.786C290.176 24.3553 289.337 24.14 288.181 24.14H283.115V29.41ZM283.115 19.55H287.569C288.702 19.55 289.53 19.346 290.051 18.938C290.595 18.53 290.867 17.9067 290.867 17.068C290.867 16.2293 290.595 15.6173 290.051 15.232C289.53 14.824 288.702 14.62 287.569 14.62H283.115V19.55ZM309.062 34.374C307.203 34.374 305.583 34.0227 304.2 33.32C302.817 32.6173 301.741 31.6087 300.97 30.294C300.199 28.9793 299.814 27.4267 299.814 25.636C299.814 24.276 300.029 23.0633 300.46 21.998C300.891 20.91 301.514 19.992 302.33 19.244C303.146 18.4733 304.121 17.8953 305.254 17.51C306.387 17.102 307.657 16.898 309.062 16.898C310.921 16.898 312.541 17.2493 313.924 17.952C315.307 18.6547 316.372 19.6633 317.12 20.978C317.891 22.27 318.276 23.8227 318.276 25.636C318.276 26.9733 318.061 28.186 317.63 29.274C317.199 30.362 316.576 31.2913 315.76 32.062C314.967 32.81 313.992 33.388 312.836 33.796C311.703 34.1813 310.445 34.374 309.062 34.374ZM309.062 29.92C309.674 29.92 310.218 29.7727 310.694 29.478C311.17 29.1607 311.533 28.696 311.782 28.084C312.054 27.4493 312.19 26.6333 312.19 25.636C312.19 24.1173 311.895 23.0293 311.306 22.372C310.717 21.692 309.969 21.352 309.062 21.352C308.45 21.352 307.906 21.4993 307.43 21.794C306.954 22.0887 306.58 22.5533 306.308 23.188C306.036 23.8 305.9 24.616 305.9 25.636C305.9 27.132 306.195 28.22 306.784 28.9C307.373 29.58 308.133 29.92 309.062 29.92ZM329.515 34.374C327.657 34.374 326.036 34.0227 324.653 33.32C323.271 32.6173 322.194 31.6087 321.423 30.294C320.653 28.9793 320.267 27.4267 320.267 25.636C320.267 24.276 320.483 23.0633 320.913 21.998C321.344 20.91 321.967 19.992 322.783 19.244C323.599 18.4733 324.574 17.8953 325.707 17.51C326.841 17.102 328.11 16.898 329.515 16.898C331.374 16.898 332.995 17.2493 334.377 17.952C335.76 18.6547 336.825 19.6633 337.573 20.978C338.344 22.27 338.729 23.8227 338.729 25.636C338.729 26.9733 338.514 28.186 338.083 29.274C337.653 30.362 337.029 31.2913 336.213 32.062C335.42 32.81 334.445 33.388 333.289 33.796C332.156 34.1813 330.898 34.374 329.515 34.374ZM329.515 29.92C330.127 29.92 330.671 29.7727 331.147 29.478C331.623 29.1607 331.986 28.696 332.235 28.084C332.507 27.4493 332.643 26.6333 332.643 25.636C332.643 24.1173 332.349 23.0293 331.759 22.372C331.17 21.692 330.422 21.352 329.515 21.352C328.903 21.352 328.359 21.4993 327.883 21.794C327.407 22.0887 327.033 22.5533 326.761 23.188C326.489 23.8 326.353 24.616 326.353 25.636C326.353 27.132 326.648 28.22 327.237 28.9C327.827 29.58 328.586 29.92 329.515 29.92ZM344.494 34.306C343.542 34.306 342.806 34.0453 342.284 33.524C341.763 33.0027 341.502 32.2433 341.502 31.246V12.784C341.502 11.7867 341.763 11.0273 342.284 10.506C342.806 9.98467 343.542 9.724 344.494 9.724C345.469 9.724 346.217 9.98467 346.738 10.506C347.282 11.0273 347.554 11.7867 347.554 12.784V24.004H347.622L351.77 18.972C352.337 18.292 352.858 17.7933 353.334 17.476C353.833 17.136 354.502 16.966 355.34 16.966C356.179 16.966 356.825 17.17 357.278 17.578C357.732 17.986 357.97 18.496 357.992 19.108C358.015 19.72 357.766 20.332 357.244 20.944L352.756 26.248V24.14L357.788 30.464C358.287 31.0987 358.491 31.722 358.4 32.334C358.31 32.9233 358.015 33.3993 357.516 33.762C357.04 34.1247 356.428 34.306 355.68 34.306C354.774 34.306 354.048 34.1473 353.504 33.83C352.96 33.49 352.416 32.9687 351.872 32.266L347.622 27.03H347.554V31.246C347.554 33.286 346.534 34.306 344.494 34.306ZM380.678 34.306C379.839 34.306 379.159 34.1133 378.638 33.728C378.116 33.32 377.708 32.6967 377.414 31.858L370.784 13.396C370.421 12.376 370.478 11.5147 370.954 10.812C371.452 10.0867 372.325 9.724 373.572 9.724C374.41 9.724 375.068 9.928 375.544 10.336C376.02 10.7213 376.394 11.3333 376.666 12.172L381.732 27.37H380.134L385.574 12.172C385.891 11.3333 386.288 10.7213 386.764 10.336C387.24 9.928 387.852 9.724 388.6 9.724C389.348 9.724 389.948 9.928 390.402 10.336C390.855 10.7213 391.229 11.3447 391.524 12.206L396.624 27.37H395.264L400.466 12.172C400.738 11.3333 401.1 10.7213 401.554 10.336C402.03 9.928 402.687 9.724 403.526 9.724C404.568 9.724 405.328 10.0867 405.804 10.812C406.302 11.5147 406.359 12.376 405.974 13.396L399.276 31.892C398.981 32.708 398.573 33.32 398.052 33.728C397.553 34.1133 396.884 34.306 396.046 34.306C395.184 34.306 394.493 34.1133 393.972 33.728C393.473 33.32 393.076 32.6967 392.782 31.858L387.988 18.394H388.838L383.942 31.892C383.624 32.708 383.216 33.32 382.718 33.728C382.219 34.1133 381.539 34.306 380.678 34.306ZM410.405 34.306C409.408 34.306 408.637 34.0453 408.093 33.524C407.572 33.0027 407.311 32.2433 407.311 31.246V19.992C407.311 19.0173 407.56 18.2693 408.059 17.748C408.58 17.2267 409.317 16.966 410.269 16.966C411.221 16.966 411.946 17.2267 412.445 17.748C412.944 18.2693 413.193 19.0173 413.193 19.992V21.386H412.853C413.08 20.026 413.658 18.9493 414.587 18.156C415.539 17.3627 416.718 16.9433 418.123 16.898C418.78 16.8753 419.268 17.0453 419.585 17.408C419.925 17.748 420.106 18.394 420.129 19.346C420.129 20.162 419.959 20.808 419.619 21.284C419.279 21.76 418.633 22.0433 417.681 22.134L416.899 22.202C415.698 22.3153 414.825 22.6553 414.281 23.222C413.737 23.766 413.465 24.582 413.465 25.67V31.246C413.465 32.2433 413.204 33.0027 412.683 33.524C412.162 34.0453 411.402 34.306 410.405 34.306ZM425.045 34.306C424.093 34.306 423.356 34.0227 422.835 33.456C422.314 32.8893 422.053 32.0733 422.053 31.008V20.264C422.053 19.1987 422.314 18.3827 422.835 17.816C423.356 17.2493 424.093 16.966 425.045 16.966C426.02 16.966 426.768 17.2493 427.289 17.816C427.833 18.3827 428.105 19.1987 428.105 20.264V31.008C428.105 32.0733 427.844 32.8893 427.323 33.456C426.802 34.0227 426.042 34.306 425.045 34.306ZM425.045 14.552C423.98 14.552 423.152 14.3027 422.563 13.804C421.996 13.3053 421.713 12.58 421.713 11.628C421.713 10.6987 421.996 9.98467 422.563 9.486C423.152 8.98733 423.98 8.738 425.045 8.738C426.156 8.738 426.994 8.98733 427.561 9.486C428.128 9.98467 428.411 10.6987 428.411 11.628C428.411 12.58 428.128 13.3053 427.561 13.804C426.994 14.3027 426.156 14.552 425.045 14.552ZM440.388 34.374C438.688 34.374 437.282 34.1133 436.172 33.592C435.084 33.0707 434.268 32.2887 433.724 31.246C433.18 30.1807 432.908 28.8547 432.908 27.268V21.726H431.752C431.026 21.726 430.46 21.5333 430.052 21.148C429.666 20.7627 429.474 20.2073 429.474 19.482C429.474 18.7567 429.666 18.2127 430.052 17.85C430.46 17.4647 431.026 17.272 431.752 17.272H432.908V15.164C432.908 14.1667 433.168 13.4073 433.69 12.886C434.211 12.3647 434.959 12.104 435.934 12.104C436.908 12.104 437.656 12.3647 438.178 12.886C438.699 13.4073 438.96 14.1667 438.96 15.164V17.272H441.748C442.496 17.272 443.062 17.4647 443.448 17.85C443.856 18.2127 444.06 18.7567 444.06 19.482C444.06 20.2073 443.856 20.7627 443.448 21.148C443.062 21.5333 442.496 21.726 441.748 21.726H438.96V27.064C438.96 27.9027 439.152 28.526 439.538 28.934C439.946 29.3193 440.58 29.512 441.442 29.512C441.759 29.512 442.065 29.478 442.36 29.41C442.654 29.342 442.926 29.308 443.176 29.308C443.538 29.2853 443.833 29.3987 444.06 29.648C444.286 29.8747 444.4 30.4073 444.4 31.246C444.4 31.926 444.298 32.504 444.094 32.98C443.89 33.4333 443.527 33.762 443.006 33.966C442.688 34.0793 442.258 34.17 441.714 34.238C441.17 34.3287 440.728 34.374 440.388 34.374ZM449.682 34.306C448.73 34.306 447.993 34.0227 447.472 33.456C446.951 32.8893 446.69 32.0733 446.69 31.008V20.264C446.69 19.1987 446.951 18.3827 447.472 17.816C447.993 17.2493 448.73 16.966 449.682 16.966C450.657 16.966 451.405 17.2493 451.926 17.816C452.47 18.3827 452.742 19.1987 452.742 20.264V31.008C452.742 32.0733 452.481 32.8893 451.96 33.456C451.439 34.0227 450.679 34.306 449.682 34.306ZM449.682 14.552C448.617 14.552 447.789 14.3027 447.2 13.804C446.633 13.3053 446.35 12.58 446.35 11.628C446.35 10.6987 446.633 9.98467 447.2 9.486C447.789 8.98733 448.617 8.738 449.682 8.738C450.793 8.738 451.631 8.98733 452.198 9.486C452.765 9.98467 453.048 10.6987 453.048 11.628C453.048 12.58 452.765 13.3053 452.198 13.804C451.631 14.3027 450.793 14.552 449.682 14.552ZM459.244 34.306C458.292 34.306 457.556 34.0453 457.034 33.524C456.513 33.0027 456.252 32.2433 456.252 31.246V19.992C456.252 19.0173 456.502 18.2693 457 17.748C457.522 17.2267 458.258 16.966 459.21 16.966C460.162 16.966 460.888 17.2267 461.386 17.748C461.885 18.2693 462.134 19.0173 462.134 19.992V21.59L461.76 20.196C462.304 19.1307 463.075 18.3147 464.072 17.748C465.092 17.1813 466.248 16.898 467.54 16.898C468.878 16.898 469.977 17.1587 470.838 17.68C471.7 18.1787 472.346 18.972 472.776 20.06C473.207 21.1253 473.422 22.474 473.422 24.106V31.246C473.422 32.2433 473.162 33.0027 472.64 33.524C472.119 34.0453 471.371 34.306 470.396 34.306C469.422 34.306 468.674 34.0453 468.152 33.524C467.631 33.0027 467.37 32.2433 467.37 31.246V24.344C467.37 23.324 467.189 22.5987 466.826 22.168C466.486 21.7373 465.976 21.522 465.296 21.522C464.39 21.522 463.664 21.8167 463.12 22.406C462.576 22.9727 462.304 23.7433 462.304 24.718V31.246C462.304 33.286 461.284 34.306 459.244 34.306ZM485.168 40.494C483.921 40.494 482.754 40.4033 481.666 40.222C480.578 40.0633 479.637 39.8253 478.844 39.508C478.186 39.2813 477.722 38.9527 477.45 38.522C477.178 38.0913 477.053 37.638 477.076 37.162C477.098 36.686 477.223 36.2553 477.45 35.87C477.699 35.4847 478.028 35.2013 478.436 35.02C478.844 34.8613 479.297 34.8727 479.796 35.054C480.793 35.462 481.7 35.7227 482.516 35.836C483.332 35.972 484.023 36.04 484.59 36.04C485.972 36.04 487.004 35.7453 487.684 35.156C488.386 34.5893 488.738 33.694 488.738 32.47V30.328H489.01C488.67 31.28 487.978 32.062 486.936 32.674C485.893 33.2633 484.76 33.558 483.536 33.558C482.04 33.558 480.736 33.218 479.626 32.538C478.515 31.8353 477.642 30.8607 477.008 29.614C476.396 28.3673 476.09 26.9053 476.09 25.228C476.09 23.9587 476.271 22.814 476.634 21.794C476.996 20.774 477.495 19.9013 478.13 19.176C478.787 18.4507 479.569 17.8953 480.476 17.51C481.405 17.102 482.425 16.898 483.536 16.898C484.805 16.898 485.938 17.1927 486.936 17.782C487.956 18.3713 488.636 19.142 488.976 20.094L488.636 21.488V19.992C488.636 19.0173 488.896 18.2693 489.418 17.748C489.962 17.2267 490.71 16.966 491.662 16.966C492.614 16.966 493.339 17.2267 493.838 17.748C494.359 18.2693 494.62 19.0173 494.62 19.992V31.756C494.62 34.6573 493.804 36.8333 492.172 38.284C490.54 39.7573 488.205 40.494 485.168 40.494ZM485.406 29.104C486.086 29.104 486.664 28.9567 487.14 28.662C487.616 28.3447 487.99 27.9027 488.262 27.336C488.534 26.7467 488.67 26.044 488.67 25.228C488.67 24.004 488.375 23.052 487.786 22.372C487.196 21.692 486.403 21.352 485.406 21.352C484.771 21.352 484.204 21.5107 483.706 21.828C483.207 22.1227 482.822 22.5647 482.55 23.154C482.3 23.7207 482.176 24.412 482.176 25.228C482.176 26.452 482.47 27.404 483.06 28.084C483.649 28.764 484.431 29.104 485.406 29.104ZM511.453 34.306C510.456 34.306 509.674 34.034 509.107 33.49C508.563 32.9233 508.291 32.1187 508.291 31.076V13.26C508.291 12.2173 508.563 11.424 509.107 10.88C509.674 10.3133 510.49 10.03 511.555 10.03H522.877C523.693 10.03 524.305 10.234 524.713 10.642C525.121 11.05 525.325 11.6393 525.325 12.41C525.325 13.2033 525.121 13.8153 524.713 14.246C524.305 14.654 523.693 14.858 522.877 14.858H514.547V19.686H522.129C522.923 19.686 523.523 19.89 523.931 20.298C524.362 20.706 524.577 21.2953 524.577 22.066C524.577 22.8593 524.362 23.46 523.931 23.868C523.523 24.276 522.923 24.48 522.129 24.48H514.547V31.076C514.547 33.2293 513.516 34.306 511.453 34.306ZM536.153 34.374C534.113 34.374 532.345 34.0227 530.849 33.32C529.376 32.5947 528.243 31.5747 527.449 30.26C526.656 28.9453 526.259 27.3927 526.259 25.602C526.259 23.8793 526.633 22.372 527.381 21.08C528.152 19.7653 529.195 18.7453 530.509 18.02C531.847 17.272 533.365 16.898 535.065 16.898C536.312 16.898 537.445 17.102 538.465 17.51C539.485 17.8953 540.358 18.4733 541.083 19.244C541.809 19.992 542.353 20.8987 542.715 21.964C543.101 23.0293 543.293 24.2193 543.293 25.534C543.293 25.9873 543.169 26.3273 542.919 26.554C542.67 26.758 542.273 26.86 541.729 26.86H531.325V24.004H538.873L538.329 24.446C538.329 23.6073 538.216 22.9273 537.989 22.406C537.763 21.8847 537.423 21.488 536.969 21.216C536.539 20.944 535.995 20.808 535.337 20.808C534.635 20.808 534.023 20.978 533.501 21.318C533.003 21.6353 532.617 22.1113 532.345 22.746C532.073 23.3807 531.937 24.174 531.937 25.126V25.432C531.937 27.0413 532.289 28.1973 532.991 28.9C533.717 29.58 534.827 29.92 536.323 29.92C536.822 29.92 537.389 29.8633 538.023 29.75C538.681 29.614 539.304 29.4327 539.893 29.206C540.483 28.9793 540.993 28.9453 541.423 29.104C541.854 29.24 542.183 29.4893 542.409 29.852C542.659 30.192 542.795 30.5887 542.817 31.042C542.84 31.4727 542.738 31.9033 542.511 32.334C542.285 32.742 541.911 33.0593 541.389 33.286C540.596 33.6487 539.746 33.9207 538.839 34.102C537.955 34.2833 537.06 34.374 536.153 34.374ZM552.565 34.374C551.567 34.374 550.547 34.2947 549.505 34.136C548.485 34 547.555 33.7393 546.717 33.354C546.15 33.1273 545.742 32.8213 545.493 32.436C545.266 32.0507 545.153 31.6427 545.153 31.212C545.175 30.7813 545.3 30.396 545.527 30.056C545.776 29.6933 546.093 29.444 546.479 29.308C546.887 29.1493 547.34 29.1607 547.839 29.342C548.791 29.682 549.641 29.9313 550.389 30.09C551.159 30.226 551.896 30.294 552.599 30.294C553.437 30.294 554.038 30.1807 554.401 29.954C554.763 29.7047 554.945 29.3873 554.945 29.002C554.945 28.662 554.82 28.4013 554.571 28.22C554.344 28.0387 554.015 27.914 553.585 27.846L549.811 27.234C548.405 26.9847 547.317 26.4747 546.547 25.704C545.776 24.9107 545.391 23.8793 545.391 22.61C545.391 21.4313 545.719 20.4227 546.377 19.584C547.057 18.7227 547.975 18.0653 549.131 17.612C550.309 17.136 551.658 16.898 553.177 16.898C554.197 16.898 555.126 16.9773 555.965 17.136C556.803 17.272 557.619 17.5327 558.413 17.918C558.911 18.122 559.263 18.4167 559.467 18.802C559.671 19.1873 559.75 19.5953 559.705 20.026C559.659 20.434 559.512 20.8193 559.263 21.182C559.036 21.522 558.719 21.76 558.311 21.896C557.903 22.0093 557.427 21.9753 556.883 21.794C556.135 21.4993 555.466 21.284 554.877 21.148C554.31 21.012 553.777 20.944 553.279 20.944C552.349 20.944 551.692 21.0687 551.307 21.318C550.921 21.5673 550.729 21.8847 550.729 22.27C550.729 22.5647 550.831 22.814 551.035 23.018C551.239 23.1993 551.556 23.324 551.987 23.392L555.761 24.038C557.211 24.2647 558.322 24.7633 559.093 25.534C559.886 26.282 560.283 27.302 560.283 28.594C560.283 30.43 559.58 31.858 558.175 32.878C556.769 33.8753 554.899 34.374 552.565 34.374ZM571.374 34.374C569.674 34.374 568.269 34.1133 567.158 33.592C566.07 33.0707 565.254 32.2887 564.71 31.246C564.166 30.1807 563.894 28.8547 563.894 27.268V21.726H562.738C562.013 21.726 561.446 21.5333 561.038 21.148C560.653 20.7627 560.46 20.2073 560.46 19.482C560.46 18.7567 560.653 18.2127 561.038 17.85C561.446 17.4647 562.013 17.272 562.738 17.272H563.894V15.164C563.894 14.1667 564.155 13.4073 564.676 12.886C565.197 12.3647 565.945 12.104 566.92 12.104C567.895 12.104 568.643 12.3647 569.164 12.886C569.685 13.4073 569.946 14.1667 569.946 15.164V17.272H572.734C573.482 17.272 574.049 17.4647 574.434 17.85C574.842 18.2127 575.046 18.7567 575.046 19.482C575.046 20.2073 574.842 20.7627 574.434 21.148C574.049 21.5333 573.482 21.726 572.734 21.726H569.946V27.064C569.946 27.9027 570.139 28.526 570.524 28.934C570.932 29.3193 571.567 29.512 572.428 29.512C572.745 29.512 573.051 29.478 573.346 29.41C573.641 29.342 573.913 29.308 574.162 29.308C574.525 29.2853 574.819 29.3987 575.046 29.648C575.273 29.8747 575.386 30.4073 575.386 31.246C575.386 31.926 575.284 32.504 575.08 32.98C574.876 33.4333 574.513 33.762 573.992 33.966C573.675 34.0793 573.244 34.17 572.7 34.238C572.156 34.3287 571.714 34.374 571.374 34.374ZM580.668 34.306C579.716 34.306 578.98 34.0227 578.458 33.456C577.937 32.8893 577.676 32.0733 577.676 31.008V20.264C577.676 19.1987 577.937 18.3827 578.458 17.816C578.98 17.2493 579.716 16.966 580.668 16.966C581.643 16.966 582.391 17.2493 582.912 17.816C583.456 18.3827 583.728 19.1987 583.728 20.264V31.008C583.728 32.0733 583.468 32.8893 582.946 33.456C582.425 34.0227 581.666 34.306 580.668 34.306ZM580.668 14.552C579.603 14.552 578.776 14.3027 578.186 13.804C577.62 13.3053 577.336 12.58 577.336 11.628C577.336 10.6987 577.62 9.98467 578.186 9.486C578.776 8.98733 579.603 8.738 580.668 8.738C581.779 8.738 582.618 8.98733 583.184 9.486C583.751 9.98467 584.034 10.6987 584.034 11.628C584.034 12.58 583.751 13.3053 583.184 13.804C582.618 14.3027 581.779 14.552 580.668 14.552ZM594.651 34.306C593.857 34.306 593.177 34.1133 592.611 33.728C592.067 33.32 591.613 32.7193 591.251 31.926L586.389 20.808C586.117 20.128 586.026 19.4933 586.117 18.904C586.207 18.3147 586.491 17.85 586.967 17.51C587.465 17.1473 588.145 16.966 589.007 16.966C589.732 16.966 590.31 17.136 590.741 17.476C591.194 17.7933 591.602 18.428 591.965 19.38L595.399 28.22H594.243L597.847 19.346C598.209 18.4167 598.617 17.7933 599.071 17.476C599.524 17.136 600.147 16.966 600.941 16.966C601.621 16.966 602.165 17.1473 602.573 17.51C603.003 17.85 603.264 18.3147 603.355 18.904C603.445 19.4933 603.332 20.128 603.015 20.808L598.051 31.96C597.711 32.7533 597.257 33.3427 596.691 33.728C596.147 34.1133 595.467 34.306 594.651 34.306ZM611.148 34.374C609.856 34.374 608.712 34.136 607.714 33.66C606.74 33.184 605.969 32.538 605.402 31.722C604.858 30.8833 604.586 29.9313 604.586 28.866C604.586 27.642 604.904 26.6787 605.538 25.976C606.173 25.2733 607.193 24.7747 608.598 24.48C610.004 24.1627 611.874 24.004 614.208 24.004H616.078V26.86H614.208C613.324 26.86 612.588 26.928 611.998 27.064C611.432 27.1773 611.012 27.37 610.74 27.642C610.468 27.8913 610.332 28.22 610.332 28.628C610.332 29.1493 610.514 29.58 610.876 29.92C611.262 30.26 611.806 30.43 612.508 30.43C613.075 30.43 613.574 30.3053 614.004 30.056C614.458 29.8067 614.82 29.4667 615.092 29.036C615.364 28.5827 615.5 28.0613 615.5 27.472V23.528C615.5 22.712 615.285 22.134 614.854 21.794C614.446 21.454 613.732 21.284 612.712 21.284C612.168 21.284 611.556 21.352 610.876 21.488C610.196 21.6013 609.437 21.8167 608.598 22.134C607.986 22.3607 607.465 22.3947 607.034 22.236C606.604 22.0773 606.264 21.8053 606.014 21.42C605.788 21.0347 605.674 20.6153 605.674 20.162C605.697 19.7087 605.844 19.278 606.116 18.87C606.411 18.462 606.853 18.1447 607.442 17.918C608.53 17.51 609.528 17.238 610.434 17.102C611.364 16.966 612.214 16.898 612.984 16.898C614.843 16.898 616.373 17.17 617.574 17.714C618.798 18.2353 619.705 19.0513 620.294 20.162C620.906 21.25 621.212 22.6553 621.212 24.378V31.246C621.212 32.2433 620.974 33.0027 620.498 33.524C620.022 34.0453 619.331 34.306 618.424 34.306C617.495 34.306 616.781 34.0453 616.282 33.524C615.806 33.0027 615.568 32.2433 615.568 31.246V30.362L615.772 30.838C615.659 31.5633 615.398 32.1867 614.99 32.708C614.582 33.2293 614.05 33.6373 613.392 33.932C612.735 34.2267 611.987 34.374 611.148 34.374ZM631.017 34.374C628.841 34.374 627.231 33.796 626.189 32.64C625.169 31.4613 624.659 29.6933 624.659 27.336V12.784C624.659 11.7867 624.919 11.0273 625.441 10.506C625.962 9.98467 626.699 9.724 627.651 9.724C628.625 9.724 629.373 9.98467 629.895 10.506C630.439 11.0273 630.711 11.7867 630.711 12.784V27.132C630.711 27.9707 630.869 28.5827 631.187 28.968C631.527 29.3533 631.957 29.546 632.479 29.546C632.637 29.546 632.796 29.5347 632.955 29.512C633.136 29.4667 633.329 29.4327 633.533 29.41C633.918 29.41 634.201 29.5573 634.383 29.852C634.587 30.1467 634.689 30.7473 634.689 31.654C634.689 32.4473 634.53 33.048 634.213 33.456C633.895 33.8413 633.408 34.0907 632.751 34.204C632.569 34.2267 632.309 34.2607 631.969 34.306C631.629 34.3513 631.311 34.374 631.017 34.374Z" fill="white"/>
<path d="M391.458 102V86.4H388.936V83.046H395.202V102H391.458ZM398.798 92.276C398.798 86.79 400.462 82.682 405.818 82.682C411.174 82.682 412.838 86.79 412.838 92.276C412.838 97.814 411.174 101.948 405.818 101.948C400.462 101.948 398.798 97.814 398.798 92.276ZM409.25 92.276C409.25 89.026 408.886 86.062 405.818 86.062C402.75 86.062 402.386 89.026 402.386 92.276C402.386 95.656 402.75 98.568 405.818 98.568C408.886 98.568 409.25 95.656 409.25 92.276ZM414.541 105.744L416.283 97.996H420.131L416.907 105.744H414.541ZM422.233 92.276C422.233 86.79 423.897 82.682 429.253 82.682C434.609 82.682 436.273 86.79 436.273 92.276C436.273 97.814 434.609 101.948 429.253 101.948C423.897 101.948 422.233 97.814 422.233 92.276ZM432.685 92.276C432.685 89.026 432.321 86.062 429.253 86.062C426.185 86.062 425.821 89.026 425.821 92.276C425.821 95.656 426.185 98.568 429.253 98.568C432.321 98.568 432.685 95.656 432.685 92.276ZM439.042 92.276C439.042 86.79 440.706 82.682 446.062 82.682C451.418 82.682 453.082 86.79 453.082 92.276C453.082 97.814 451.418 101.948 446.062 101.948C440.706 101.948 439.042 97.814 439.042 92.276ZM449.494 92.276C449.494 89.026 449.13 86.062 446.062 86.062C442.994 86.062 442.63 89.026 442.63 92.276C442.63 95.656 442.994 98.568 446.062 98.568C449.13 98.568 449.494 95.656 449.494 92.276ZM455.851 92.276C455.851 86.79 457.515 82.682 462.871 82.682C468.227 82.682 469.891 86.79 469.891 92.276C469.891 97.814 468.227 101.948 462.871 101.948C457.515 101.948 455.851 97.814 455.851 92.276ZM466.303 92.276C466.303 89.026 465.939 86.062 462.871 86.062C459.803 86.062 459.439 89.026 459.439 92.276C459.439 95.656 459.803 98.568 462.871 98.568C465.939 98.568 466.303 95.656 466.303 92.276ZM478.327 86.114H481.759V91.158H486.673V94.33H481.759V99.374H478.327V94.33H473.413V91.158H478.327V86.114ZM509.478 96.748C509.478 99.608 507.19 102.182 503.056 102.182C499.286 102.182 496.374 100.206 496.322 96.774H500.222C500.326 98.23 501.288 99.192 502.978 99.192C504.694 99.192 505.708 98.282 505.708 96.982C505.708 93.056 496.348 95.422 496.374 88.844C496.374 85.568 499.026 83.592 502.77 83.592C506.488 83.592 509.036 85.49 509.27 88.766H505.266C505.188 87.57 504.226 86.634 502.666 86.608C501.236 86.556 500.17 87.258 500.17 88.74C500.17 92.38 509.478 90.352 509.478 96.748ZM511.698 94.798C511.698 90.274 514.662 87.362 518.822 87.362C522.41 87.362 524.828 89.234 525.608 92.458H521.682C521.266 91.236 520.304 90.456 518.796 90.456C516.768 90.456 515.416 91.99 515.416 94.798C515.416 97.606 516.768 99.114 518.796 99.114C520.304 99.114 521.24 98.438 521.682 97.138H525.608C524.828 100.206 522.41 102.234 518.822 102.234C514.662 102.234 511.698 99.322 511.698 94.798ZM528.274 102V82.76H531.914V89.39C532.85 88.168 534.462 87.388 536.386 87.388C539.636 87.388 542.002 89.572 542.002 93.55V102H538.362V94.044C538.362 91.73 537.088 90.482 535.164 90.482C533.188 90.482 531.914 91.73 531.914 94.044V102H528.274ZM559.374 94.798C559.374 99.322 556.046 102.234 551.86 102.234C547.7 102.234 544.554 99.322 544.554 94.798C544.554 90.248 547.804 87.362 551.964 87.362C556.124 87.362 559.374 90.248 559.374 94.798ZM548.246 94.798C548.246 97.658 549.91 99.062 551.86 99.062C553.784 99.062 555.63 97.658 555.63 94.798C555.63 91.912 553.836 90.534 551.912 90.534C549.988 90.534 548.246 91.912 548.246 94.798ZM575.954 94.798C575.954 99.322 572.626 102.234 568.44 102.234C564.28 102.234 561.134 99.322 561.134 94.798C561.134 90.248 564.384 87.362 568.544 87.362C572.704 87.362 575.954 90.248 575.954 94.798ZM564.826 94.798C564.826 97.658 566.49 99.062 568.44 99.062C570.364 99.062 572.21 97.658 572.21 94.798C572.21 91.912 570.416 90.534 568.492 90.534C566.568 90.534 564.826 91.912 564.826 94.798ZM578.624 102V82.76H582.264V102H578.624ZM597.04 97.892C597.04 100.362 594.882 102.234 591.372 102.234C587.758 102.234 585.236 100.128 585.08 97.45H588.746C588.876 98.542 589.89 99.374 591.346 99.374C592.776 99.374 593.556 98.724 593.556 97.892C593.556 95.318 585.418 96.956 585.418 91.678C585.418 89.286 587.55 87.362 591.112 87.362C594.596 87.362 596.702 89.26 596.91 92.12H593.426C593.322 91.002 592.438 90.248 591.008 90.248C589.656 90.248 588.954 90.794 588.954 91.626C588.954 94.252 596.936 92.614 597.04 97.892Z" fill="white"/>
<path d="M363.31 108.551H361.241V92.6894H363.31C363.422 92.6896 363.533 92.6622 363.633 92.6095C363.733 92.5569 363.818 92.4806 363.881 92.3873C363.944 92.2941 363.984 92.1867 363.996 92.0747C364.008 91.9626 363.993 91.8493 363.951 91.7447L359.814 81.3996C359.763 81.2712 359.674 81.1612 359.56 81.0837C359.445 81.0061 359.31 80.9647 359.172 80.9648H346.759C346.727 80.9616 346.694 80.9616 346.662 80.9648L344.69 79.1856V77.5174H350.897C351.08 77.5174 351.255 77.4447 351.384 77.3154C351.514 77.186 351.586 77.0106 351.586 76.8276V72.6898C351.586 72.5068 351.514 72.3314 351.384 72.202C351.255 72.0727 351.08 72 350.897 72H344C343.817 72 343.642 72.0727 343.513 72.202C343.383 72.3314 343.311 72.5068 343.311 72.6898V79.1863L341.338 80.9655C341.306 80.9623 341.274 80.9623 341.242 80.9655H328.828C328.69 80.9654 328.555 81.0068 328.441 81.0844C328.327 81.1619 328.238 81.272 328.187 81.4003L324.049 91.7447C324.007 91.8493 323.992 91.9626 324.004 92.0747C324.016 92.1867 324.056 92.2941 324.119 92.3873C324.182 92.4806 324.267 92.5569 324.367 92.6095C324.467 92.6622 324.578 92.6896 324.69 92.6894H326.759V108.551H324.69C324.6 108.551 324.51 108.569 324.427 108.604C324.343 108.638 324.267 108.689 324.203 108.753C324.139 108.817 324.088 108.893 324.053 108.977C324.019 109.061 324.001 109.15 324.001 109.241C324.001 109.331 324.019 109.421 324.053 109.505C324.088 109.589 324.139 109.665 324.203 109.729C324.267 109.793 324.343 109.843 324.427 109.878C324.51 109.913 324.6 109.931 324.69 109.931H363.31C363.401 109.931 363.49 109.913 363.574 109.878C363.658 109.843 363.734 109.793 363.798 109.729C363.862 109.665 363.913 109.589 363.947 109.505C363.982 109.421 364 109.331 364 109.241C364 109.15 363.982 109.061 363.947 108.977C363.913 108.893 363.862 108.817 363.798 108.753C363.734 108.689 363.658 108.638 363.574 108.604C363.49 108.569 363.401 108.551 363.31 108.551ZM358.703 82.3443L362.289 91.3099H351.586V85.7925C351.59 85.742 351.59 85.6912 351.586 85.6407C351.59 85.6041 351.59 85.5671 351.586 85.5305C351.569 85.4996 351.551 85.4695 351.531 85.4406C351.502 85.3944 351.47 85.3505 351.435 85.3092L348.138 82.3436L358.703 82.3443ZM329.297 82.3443H339.862L336.649 85.2825C336.615 85.321 336.585 85.3627 336.559 85.4068C336.536 85.4373 336.515 85.4695 336.497 85.5031C336.493 85.5374 336.493 85.572 336.497 85.6063C336.465 85.6661 336.437 85.7283 336.414 85.7925V91.3099H325.711L329.297 82.3443ZM328.139 92.6894H336.414V108.551H328.139V92.6894ZM348.138 108.551V98.2061C348.138 98.0232 348.066 97.8477 347.936 97.7184C347.807 97.589 347.631 97.5163 347.448 97.5163H340.552C340.369 97.5163 340.194 97.589 340.065 97.7184C339.935 97.8477 339.862 98.0232 339.862 98.2061V108.551H337.793V86.0959L344 80.4205L350.206 86.0959V108.551H348.138ZM351.586 108.551V92.6894H359.862V108.551H351.586Z" fill="white"/>
<path d="M333.656 98.2061H330.898C330.715 98.2061 330.539 98.2787 330.41 98.4081C330.281 98.5374 330.208 98.7129 330.208 98.8958V101.654C330.208 101.837 330.281 102.013 330.41 102.142C330.539 102.271 330.715 102.344 330.898 102.344H333.656C333.839 102.344 334.014 102.271 334.144 102.142C334.273 102.013 334.346 101.837 334.346 101.654V98.8958C334.346 98.7129 334.273 98.5374 334.144 98.4081C334.014 98.2787 333.839 98.2061 333.656 98.2061Z" fill="white"/>
<path d="M357.103 98.2061H354.345C354.162 98.2061 353.986 98.2787 353.857 98.4081C353.728 98.5374 353.655 98.7129 353.655 98.8958V101.654C353.655 101.837 353.728 102.013 353.857 102.142C353.986 102.271 354.162 102.344 354.345 102.344H357.103C357.286 102.344 357.461 102.271 357.591 102.142C357.72 102.013 357.793 101.837 357.793 101.654V98.8958C357.793 98.7129 357.72 98.5374 357.591 98.4081C357.461 98.2787 357.286 98.2061 357.103 98.2061Z" fill="white"/>
<path d="M344 87.172C343.455 87.172 342.922 87.3338 342.468 87.6369C342.014 87.94 341.661 88.3708 341.452 88.8748C341.243 89.3788 341.189 89.9334 341.295 90.4685C341.401 91.0035 341.664 91.495 342.05 91.8808C342.436 92.2666 342.927 92.5293 343.462 92.6357C343.997 92.7421 344.552 92.6875 345.056 92.4787C345.56 92.27 345.991 91.9164 346.294 91.4628C346.597 91.0092 346.759 90.4759 346.759 89.9303C346.759 89.1988 346.468 88.4972 345.951 87.9799C345.434 87.4626 344.732 87.172 344 87.172Z" fill="white"/>
<path d="M66.366 82.994H78.118V86.192H69.694V90.638C70.396 89.78 71.826 89.104 73.412 89.104C77.832 89.104 79.34 92.432 79.34 95.37C79.34 99.244 77.104 102 72.788 102C68.706 102 66.366 99.738 66.054 96.644H69.59C69.902 97.97 70.968 98.932 72.736 98.932C74.868 98.932 75.83 97.424 75.83 95.422C75.83 93.29 74.764 92.12 72.71 92.12C71.202 92.12 70.24 92.952 69.85 94.122H66.366V82.994ZM82.1104 92.276C82.1104 86.79 83.7744 82.682 89.1304 82.682C94.4864 82.682 96.1504 86.79 96.1504 92.276C96.1504 97.814 94.4864 101.948 89.1304 101.948C83.7744 101.948 82.1104 97.814 82.1104 92.276ZM92.5624 92.276C92.5624 89.026 92.1984 86.062 89.1304 86.062C86.0624 86.062 85.6984 89.026 85.6984 92.276C85.6984 95.656 86.0624 98.568 89.1304 98.568C92.1984 98.568 92.5624 95.656 92.5624 92.276ZM98.919 92.276C98.919 86.79 100.583 82.682 105.939 82.682C111.295 82.682 112.959 86.79 112.959 92.276C112.959 97.814 111.295 101.948 105.939 101.948C100.583 101.948 98.919 97.814 98.919 92.276ZM109.371 92.276C109.371 89.026 109.007 86.062 105.939 86.062C102.871 86.062 102.507 89.026 102.507 92.276C102.507 95.656 102.871 98.568 105.939 98.568C109.007 98.568 109.371 95.656 109.371 92.276ZM126.388 102L119.784 93.914V102H116.144V83.852H119.784V91.99L126.388 83.852H130.782L123.294 92.848L130.99 102H126.388ZM138.636 86.114H142.068V91.158H146.982V94.33H142.068V99.374H138.636V94.33H133.722V91.158H138.636V86.114ZM169.787 96.748C169.787 99.608 167.499 102.182 163.365 102.182C159.595 102.182 156.683 100.206 156.631 96.774H160.531C160.635 98.23 161.597 99.192 163.287 99.192C165.003 99.192 166.017 98.282 166.017 96.982C166.017 93.056 156.657 95.422 156.683 88.844C156.683 85.568 159.335 83.592 163.079 83.592C166.797 83.592 169.345 85.49 169.579 88.766H165.575C165.497 87.57 164.535 86.634 162.975 86.608C161.545 86.556 160.479 87.258 160.479 88.74C160.479 92.38 169.787 90.352 169.787 96.748ZM173.514 97.528V90.586H171.798V87.596H173.514V84.034H177.18V87.596H180.404V90.586H177.18V97.554C177.18 98.516 177.57 98.932 178.714 98.932H180.404V102H178.116C175.36 102 173.514 100.83 173.514 97.528ZM196.621 87.596V102H192.955V100.18C192.045 101.402 190.459 102.182 188.665 102.182C185.311 102.182 182.893 99.998 182.893 96.046V87.596H186.533V95.526C186.533 97.84 187.807 99.088 189.731 99.088C191.707 99.088 192.955 97.84 192.955 95.526V87.596H196.621ZM199.276 94.746C199.276 90.248 202.188 87.362 205.88 87.362C207.778 87.362 209.598 88.246 210.586 89.598V82.76H214.278V102H210.586V99.868C209.728 101.194 208.116 102.234 205.854 102.234C202.188 102.234 199.276 99.244 199.276 94.746ZM210.612 94.798C210.612 92.068 208.792 90.56 206.79 90.56C204.84 90.56 202.994 92.016 202.994 94.746C202.994 97.476 204.84 99.036 206.79 99.036C208.792 99.036 210.612 97.528 210.612 94.798ZM224.021 90.352C222.279 90.352 220.901 91.47 220.615 93.446H227.453C227.401 91.548 225.893 90.352 224.021 90.352ZM230.859 97.476C230.079 100.128 227.687 102.234 224.125 102.234C219.939 102.234 216.897 99.322 216.897 94.798C216.897 90.248 219.861 87.362 224.125 87.362C228.285 87.362 231.223 90.196 231.223 94.486C231.223 94.954 231.197 95.422 231.119 95.89H220.589C220.771 98.022 222.227 99.218 224.047 99.218C225.607 99.218 226.465 98.438 226.933 97.476H230.859ZM243.968 102V94.044C243.968 91.73 242.694 90.482 240.77 90.482C238.794 90.482 237.52 91.73 237.52 94.044V102H233.88V87.596H237.52V89.39C238.456 88.168 240.016 87.388 241.862 87.388C245.216 87.388 247.608 89.572 247.608 93.55V102H243.968ZM251.641 97.528V90.586H249.925V87.596H251.641V84.034H255.307V87.596H258.531V90.586H255.307V97.554C255.307 98.516 255.697 98.932 256.841 98.932H258.531V102H256.243C253.487 102 251.641 100.83 251.641 97.528ZM272.329 97.892C272.329 100.362 270.171 102.234 266.661 102.234C263.047 102.234 260.525 100.128 260.369 97.45H264.035C264.165 98.542 265.179 99.374 266.635 99.374C268.065 99.374 268.845 98.724 268.845 97.892C268.845 95.318 260.707 96.956 260.707 91.678C260.707 89.286 262.839 87.362 266.401 87.362C269.885 87.362 271.991 89.26 272.199 92.12H268.715C268.611 91.002 267.727 90.248 266.297 90.248C264.945 90.248 264.243 90.794 264.243 91.626C264.243 94.252 272.225 92.614 272.329 97.892Z" fill="white"/>
<path d="M40.0783 79.4491L23.9228 74.0633C23.6487 73.9789 23.3555 73.9789 23.0814 74.0633L6.94033 79.4491H6.90691L6.7385 79.533H6.72408L6.55567 79.6339C6.55567 79.6509 6.53863 79.6509 6.52225 79.6673L6.38792 79.7852L6.26996 79.9196C6.26996 79.9366 6.25293 79.9366 6.25293 79.953L6.15201 80.1044C6.15201 80.1214 6.15201 80.1214 6.13498 80.1378L6.06945 80.2892L6.01899 80.4746V80.5251C6.00233 80.591 5.99657 80.6591 6.00195 80.7269V94.1931C6.00195 94.5502 6.14383 94.8928 6.39637 95.1453C6.64891 95.3978 6.99143 95.5397 7.34857 95.5397C7.70572 95.5397 8.04823 95.3978 8.30077 95.1453C8.55332 94.8928 8.69519 94.5502 8.69519 94.1931V82.5945L14.3503 84.4797C13.2878 86.1804 12.7276 88.1467 12.7344 90.1519C12.734 91.9758 13.1966 93.77 14.079 95.3662C14.9615 96.9624 16.2347 98.3084 17.7795 99.2781C14.5692 100.492 11.8282 102.695 9.95269 105.569C9.76167 105.871 9.69694 106.236 9.77244 106.586C9.84793 106.935 10.0576 107.241 10.3564 107.437C10.503 107.534 10.6675 107.601 10.8402 107.634C11.013 107.668 11.1906 107.666 11.3628 107.63C11.535 107.594 11.6983 107.524 11.8433 107.425C11.9883 107.325 12.1121 107.198 12.2075 107.05C13.4297 105.167 15.1031 103.62 17.0755 102.549C19.048 101.478 21.2569 100.916 23.5015 100.916C25.746 100.916 27.955 101.478 29.9274 102.549C31.8999 103.62 33.5732 105.167 34.7954 107.05C34.9183 107.237 35.0857 107.39 35.2826 107.496C35.4795 107.601 35.6996 107.657 35.9231 107.656C36.1801 107.658 36.4316 107.582 36.6439 107.437C36.9428 107.241 37.1526 106.935 37.2281 106.586C37.3036 106.236 37.2388 105.871 37.0476 105.569C35.1731 102.695 32.4335 100.492 29.2248 99.2781C30.7698 98.3094 32.0436 96.9642 32.9268 95.3687C33.81 93.7731 34.2737 91.9795 34.2744 90.1559C34.2812 88.1506 33.721 86.1843 32.6585 84.4837L40.0783 82.0073C40.3467 81.9181 40.5801 81.7466 40.7455 81.5173C40.911 81.2879 41 81.0123 41 80.7295C41 80.4467 40.911 80.1711 40.7455 79.9418C40.5801 79.7124 40.3467 79.5409 40.0783 79.4517V79.4491ZM23.4995 98.2297C21.3578 98.229 19.304 97.3779 17.7896 95.8636C16.2751 94.3493 15.4239 92.2956 15.423 90.1539C15.4264 88.43 15.9743 86.7512 16.9885 85.3572L23.0827 87.3938C23.356 87.4837 23.6509 87.4837 23.9241 87.3938L30.0183 85.3572C31.0326 86.7512 31.5805 88.43 31.5838 90.1539C31.5834 91.215 31.3739 92.2657 30.9674 93.2458C30.5608 94.226 29.9652 95.1165 29.2145 95.8664C28.4638 96.6163 27.5727 97.211 26.5921 97.6165C25.6115 98.022 24.5606 98.2304 23.4995 98.2297Z" fill="white"/>
</svg>
