<svg width="24" height="24" viewBox="0 0 24 24" fill="none" xmlns="http://www.w3.org/2000/svg">
<path d="M23.562 22.089C23.562 22.4797 23.4068 22.8543 23.1306 23.1306C22.8543 23.4068 22.4797 23.562 22.089 23.562H1.473C1.08234 23.562 0.707673 23.4068 0.431432 23.1306C0.155191 22.8543 0 22.4797 0 22.089L0 1.473C0 1.08234 0.155191 0.707673 0.431432 0.431432C0.707673 0.155191 1.08234 0 1.473 0L22.089 0C22.4797 0 22.8543 0.155191 23.1306 0.431432C23.4068 0.707673 23.562 1.08234 23.562 1.473V22.089Z" fill="#3B5998"/>
<path d="M16.199 23.5612V14.7252H19.144L19.88 11.0442H16.199V9.57115C16.1562 9.2711 16.1839 8.96522 16.2798 8.67771C16.3757 8.3902 16.5372 8.12895 16.7515 7.91464C16.9658 7.70033 17.227 7.53884 17.5145 7.44295C17.8021 7.34705 18.1079 7.31939 18.408 7.36215H19.881V3.68115H16.935C14.229 3.68115 12.517 5.80215 12.517 8.83515V11.0442H9.57199V14.7252H12.517V23.5612H16.199Z" fill="white"/>
</svg>
