<svg width="24" height="24" viewBox="0 0 24 24" fill="none" xmlns="http://www.w3.org/2000/svg">
<path fill-rule="evenodd" clip-rule="evenodd" d="M19.769 5.92999C19.769 6.20965 19.6861 6.48303 19.5307 6.71556C19.3753 6.9481 19.1545 7.12933 18.8961 7.23635C18.6378 7.34338 18.3534 7.37138 18.0792 7.31682C17.8049 7.26226 17.5529 7.12759 17.3552 6.92984C17.1574 6.73209 17.0227 6.48013 16.9682 6.20585C16.9136 5.93156 16.9416 5.64725 17.0486 5.38887C17.1557 5.1305 17.3369 4.90966 17.5694 4.75429C17.802 4.59892 18.0753 4.51599 18.355 4.51599C18.5407 4.51599 18.7246 4.55256 18.8961 4.62362C19.0677 4.69468 19.2236 4.79884 19.3549 4.93014C19.4862 5.06144 19.5903 5.21732 19.6614 5.38887C19.7324 5.56043 19.769 5.7443 19.769 5.92999ZM12.069 16.145C11.2923 16.145 10.5331 15.9147 9.88729 15.4832C9.24149 15.0517 8.73816 14.4384 8.44094 13.7208C8.14371 13.0032 8.06594 12.2136 8.21747 11.4519C8.36899 10.6901 8.743 9.99038 9.2922 9.44118C9.8414 8.89198 10.5411 8.51797 11.3029 8.36644C12.0647 8.21492 12.8542 8.29269 13.5718 8.58991C14.2894 8.88714 14.9027 9.39047 15.3342 10.0363C15.7657 10.6821 15.996 11.4413 15.996 12.218C15.9961 12.7339 15.8946 13.2449 15.6972 13.7216C15.4998 14.1982 15.2103 14.6314 14.8455 14.9962C14.4806 15.3609 14.0474 15.6502 13.5707 15.8475C13.0939 16.0448 12.583 16.1463 12.067 16.146L12.069 16.145ZM12.069 6.16899C10.8724 6.16899 9.70273 6.52381 8.70781 7.1886C7.71289 7.85338 6.93745 8.79826 6.47954 9.90375C6.02163 11.0092 5.90182 12.2257 6.13526 13.3993C6.3687 14.5729 6.94491 15.6509 7.79101 16.497C8.63712 17.3431 9.71513 17.9193 10.8887 18.1527C12.0623 18.3862 13.2788 18.2664 14.3842 17.8085C15.4897 17.3505 16.4346 16.5751 17.0994 15.5802C17.7642 14.5853 18.119 13.4156 18.119 12.219C18.119 11.4243 17.9625 10.6374 17.6583 9.90329C17.3541 9.16914 16.9083 8.50211 16.3463 7.94029C15.7843 7.37846 15.1171 6.93287 14.3829 6.62894C13.6486 6.32502 12.8617 6.16873 12.067 6.16899H12.069ZM12.069 2.56099C15.215 2.56099 15.587 2.57299 16.829 2.62999C17.5762 2.63888 18.3163 2.77621 19.017 3.03599C19.5288 3.22474 19.9918 3.52578 20.372 3.91699C20.7633 4.2971 21.0644 4.76013 21.253 5.27199C21.5127 5.97267 21.65 6.71278 21.659 7.45999C21.716 8.70199 21.728 9.07499 21.728 12.221C21.728 15.367 21.716 15.739 21.659 16.981C21.6501 17.7282 21.5128 18.4683 21.253 19.169C21.0571 19.6772 20.7569 20.1387 20.3718 20.5238C19.9867 20.9089 19.5252 21.2091 19.017 21.405C18.3163 21.6647 17.5762 21.802 16.829 21.811C15.587 21.868 15.214 21.88 12.069 21.88C8.92401 21.88 8.55101 21.868 7.30801 21.811C6.56079 21.8021 5.82067 21.6648 5.12001 21.405C4.6082 21.2162 4.14519 20.9152 3.76501 20.524C3.37425 20.1431 3.07388 19.6793 2.88601 19.167C2.62631 18.4663 2.48898 17.7262 2.48001 16.979C2.42301 15.737 2.41101 15.364 2.41101 12.219C2.41101 9.07399 2.42301 8.70099 2.48001 7.45799C2.48901 6.71111 2.62635 5.97134 2.88601 5.27099C3.07476 4.75918 3.3758 4.29617 3.76701 3.91599C4.14656 3.52616 4.60851 3.22617 5.11901 3.03799C5.8192 2.7774 6.55897 2.63905 7.30601 2.62899C8.54901 2.57299 8.92101 2.56099 12.067 2.56099H12.069ZM12.069 0.437988C8.86901 0.437988 8.46901 0.451988 7.21201 0.508988C6.23455 0.528661 5.26751 0.713955 4.35201 1.05699C3.56513 1.3522 2.85219 1.81566 2.26301 2.41499C1.66356 3.00349 1.19977 3.71573 0.904011 4.50199C0.560996 5.41749 0.375703 6.38453 0.356011 7.36199C0.300011 8.61799 0.286011 9.01899 0.286011 12.219C0.286011 15.419 0.300011 15.819 0.357011 17.076C0.376157 18.0541 0.561116 19.0218 0.904011 19.938C1.19977 20.7242 1.66356 21.4365 2.26301 22.025C2.85156 22.6244 3.56378 23.0882 4.35001 23.384C5.26552 23.727 6.23255 23.9123 7.21001 23.932C8.46601 23.989 8.86801 24.003 12.067 24.003C15.266 24.003 15.667 23.989 16.924 23.932C17.9015 23.9123 18.8685 23.727 19.784 23.384C20.5666 23.0812 21.2772 22.6183 21.8705 22.0249C22.4637 21.4314 22.9265 20.7206 23.229 19.938C23.572 19.0225 23.7573 18.0554 23.777 17.078C23.834 15.822 23.848 15.42 23.848 12.221C23.848 9.02199 23.834 8.62099 23.777 7.36399C23.7573 6.38653 23.572 5.41949 23.229 4.50399C22.9332 3.71776 22.4694 3.00553 21.87 2.41699C21.2825 1.81723 20.5713 1.35278 19.786 1.05599C18.8705 0.712974 17.9035 0.527681 16.926 0.507988C15.667 0.451988 15.266 0.437988 12.067 0.437988L12.069 0.437988Z" fill="url(#paint0_radial_66_3615)"/>
<defs>
<radialGradient id="paint0_radial_66_3615" cx="0" cy="0" r="1" gradientUnits="userSpaceOnUse" gradientTransform="translate(3.79675 24.0737) scale(30.1122 30.1161)">
<stop stop-color="#FFB140"/>
<stop offset="0.256" stop-color="#FF5445"/>
<stop offset="0.599" stop-color="#FC2B82"/>
<stop offset="1" stop-color="#8E40B7"/>
</radialGradient>
</defs>
</svg>
