<svg width="142" height="31" viewBox="0 0 142 31" fill="none" xmlns="http://www.w3.org/2000/svg">
<g id="BriBooks">
<path id="Path 14" d="M5.06998 29.3729C4.43755 29.3737 3.82996 29.1267 3.37751 28.6848C3.04602 28.3441 2.85516 27.891 2.84301 27.4158C2.8573 27.1212 2.93318 26.8329 3.06577 26.5695L3.02098 26.6585V7.95638C2.95786 7.9838 2.88791 7.9915 2.82033 7.97848C2.75493 7.96111 2.68729 7.95366 2.61968 7.95638C2.06925 7.98089 1.52965 7.79804 1.1075 7.44398C0.922541 7.28879 0.774406 7.09442 0.673816 6.87494C0.573226 6.65545 0.522698 6.41632 0.525892 6.17491C0.553926 5.80078 0.666735 5.43796 0.855774 5.11389C1.04481 4.78983 1.30512 4.51303 1.61699 4.30447C2.42075 3.66617 3.31344 3.14869 4.26679 2.76844C5.31196 2.33609 6.39202 1.99345 7.49528 1.74424C8.42137 1.51592 9.36953 1.38896 10.3231 1.36561C11.6085 1.34561 12.8859 1.57227 14.0861 2.0333C15.1321 2.43739 16.0973 3.02557 16.9359 3.76997C17.6843 4.4323 18.2967 5.23391 18.7389 6.13012C19.1331 6.90343 19.3463 7.75625 19.3624 8.62407C19.3441 9.73063 19.0372 10.8132 18.4719 11.7647C17.8805 12.8158 17.0948 13.745 16.1566 14.5029C17.4503 15.1559 18.5485 16.1391 19.3403 17.3528C20.015 18.4027 20.378 19.6224 20.3872 20.8704C20.3836 21.6939 20.2258 22.5094 19.9219 23.2747C19.6087 24.0789 19.1732 24.8299 18.6307 25.5011C18.0704 26.1944 17.4187 26.8085 16.6934 27.3268C15.9694 27.8516 15.1748 28.2714 14.3332 28.5738C13.2537 28.9084 12.1429 29.1321 11.0181 29.2414C9.85666 29.3596 8.69003 29.419 7.52262 29.4194H6.31695C5.92921 29.4194 5.52848 29.4045 5.11477 29.3746L5.06998 29.3729ZM14.51 18.2851C13.8597 17.8709 13.155 17.5487 12.4163 17.3278C11.6456 17.1003 10.8555 16.9446 10.0561 16.8625C9.64044 16.9218 9.21006 16.9738 8.76493 17.0184C8.31981 17.063 7.85976 17.0853 7.38478 17.0853V25.5011C8.03773 25.5011 8.85411 25.4641 9.83392 25.39C10.7955 25.3194 11.7451 25.1325 12.6617 24.8334C13.5232 24.5615 14.3193 24.1144 14.9998 23.5202C15.3289 23.2196 15.5874 22.8499 15.7567 22.4376C15.9261 22.0254 16.002 21.5807 15.9792 21.1356C15.9862 20.5736 15.8642 20.0175 15.6227 19.51C15.373 19.0063 14.9874 18.5821 14.51 18.2851ZM7.38536 12.807C7.80102 12.807 8.20174 12.8143 8.58754 12.8291C8.97334 12.8438 9.37407 12.8661 9.78972 12.896C10.2907 12.841 10.7839 12.729 11.2594 12.5621C11.8582 12.3669 12.4333 12.1055 12.974 11.7828C13.5092 11.4684 13.9842 11.0613 14.3769 10.5806C14.7597 10.1176 14.9658 9.53366 14.9585 8.93289C14.9744 8.36596 14.8191 7.8074 14.513 7.32999C14.2145 6.88332 13.8186 6.51023 13.355 6.23889C12.8681 5.952 12.3434 5.73469 11.7963 5.5933C11.2443 5.44643 10.6756 5.37156 10.1044 5.37055C9.18048 5.36636 8.26241 5.51696 7.38827 5.81607L7.38536 12.807ZM25.5088 13.9202C25.0543 13.6849 24.6527 13.3591 24.3287 12.9629C24.1134 12.673 23.9964 12.3219 23.9949 11.9607C23.9936 11.7145 24.0468 11.471 24.1508 11.2477C24.2548 11.0245 24.4069 10.827 24.5963 10.6696C25.0373 10.2991 25.6017 10.1082 26.1771 10.1351C26.7072 10.1542 27.2287 10.2752 27.7131 10.4916C28.2366 10.6965 28.7248 10.9821 29.1601 11.3378C30.015 10.6375 30.9491 10.0398 31.9431 9.55695C32.8672 9.1141 33.8794 8.88566 34.9041 8.88869C35.3635 8.91374 35.8188 8.98842 36.2621 9.11145C36.883 9.26461 37.4817 9.49663 38.0436 9.80182C38.6204 10.112 39.1399 10.5186 39.5796 11.004C40.0148 11.4681 40.254 12.0823 40.2473 12.7186C40.2535 12.9689 40.2025 13.2173 40.0983 13.4449C39.9941 13.6726 39.8394 13.8735 39.6459 14.0324C39.2426 14.3747 38.7277 14.5568 38.1989 14.5442C37.8385 14.5593 37.4819 14.4663 37.1747 14.2773C36.8934 14.0883 36.6256 13.8799 36.3732 13.6538C36.1474 13.4311 35.9015 13.2298 35.6387 13.0524C35.414 12.8794 35.1424 12.778 34.8593 12.7616C34.4503 12.7857 34.0531 12.908 33.7013 13.1181C33.2358 13.368 32.7888 13.6508 32.3636 13.9644C31.9047 14.3021 31.466 14.6664 31.0498 15.0555C30.6194 15.4564 30.2557 15.8053 29.9587 16.1024V27.7688C29.9689 28.0811 29.9081 28.3917 29.7809 28.6771C29.6536 28.9625 29.4633 29.2154 29.2241 29.4165C28.8164 29.7537 28.3061 29.9422 27.7771 29.951C27.2562 29.9558 26.7507 29.774 26.3521 29.4386C25.9098 29.0445 25.6385 28.4935 25.5961 27.9026V13.965L25.5088 13.9202ZM47.9966 27.5879C48.0072 27.8982 47.9487 28.2069 47.8255 28.4918C47.7023 28.7768 47.5174 29.0308 47.2842 29.2356C46.8718 29.5801 46.3518 29.7692 45.8144 29.7701C45.2972 29.776 44.7938 29.603 44.3895 29.2804C44.1695 29.0911 43.9894 28.8599 43.8596 28.6003C43.7298 28.3406 43.6529 28.0578 43.6334 27.7682L43.4996 10.847C43.6017 10.3026 43.884 9.80847 44.3011 9.44412C44.6921 9.13157 45.1808 8.96683 45.6813 8.97884C46.16 8.97934 46.6269 9.12694 47.0189 9.40166C47.4568 9.71701 47.7592 10.1864 47.8652 10.7155L47.9966 27.5879ZM43.1873 3.7688C43.1831 3.44101 43.2462 3.11585 43.3725 2.81336C43.4988 2.51087 43.6858 2.23747 43.9219 2.01003C44.1493 1.77395 44.4227 1.58698 44.7252 1.46064C45.0277 1.3343 45.3529 1.27128 45.6807 1.27546C46.0154 1.26831 46.3481 1.3298 46.6582 1.45613C46.9683 1.58247 47.2492 1.77098 47.4837 2.01003C47.7199 2.23737 47.9071 2.51072 48.0337 2.81322C48.1602 3.11572 48.2234 3.44093 48.2194 3.7688C48.2249 4.09352 48.1625 4.4158 48.0359 4.71491C47.9094 5.01401 47.7217 5.28332 47.4848 5.50549C47.2471 5.7387 46.9651 5.9219 46.6555 6.04427C46.3458 6.16664 46.0147 6.22569 45.6818 6.21795C45.3559 6.22278 45.0324 6.16223 44.7303 6.03985C44.4282 5.91748 44.1537 5.73578 43.9231 5.50549C43.686 5.28343 43.498 5.01416 43.3713 4.71505C43.2446 4.41594 43.1819 4.0936 43.1873 3.7688Z" fill="#F99232"/>
<path id="Path 15" d="M56.815 29.3727C56.1825 29.3728 55.5751 29.1249 55.1231 28.6823C54.7916 28.3416 54.6008 27.8885 54.5886 27.4133C54.6029 27.1187 54.6788 26.8304 54.8114 26.567L54.7666 26.656V7.95386C54.7035 7.98132 54.6335 7.98902 54.566 7.97596C54.5006 7.95858 54.4329 7.95113 54.3653 7.95386C53.815 7.97853 53.2754 7.7959 52.8531 7.44204C52.6682 7.28685 52.52 7.09249 52.4194 6.873C52.3189 6.65351 52.2683 6.41441 52.2715 6.17299C52.2996 5.79887 52.4124 5.43603 52.6014 5.11196C52.7904 4.78789 53.0508 4.5111 53.3626 4.30254C54.1664 3.66426 55.0591 3.14678 56.0124 2.76651C57.0576 2.33411 58.1376 1.99147 59.2409 1.7423C60.167 1.51399 61.1152 1.38703 62.0687 1.36368C63.3542 1.34368 64.6316 1.57033 65.8317 2.03137C66.8777 2.43548 67.8429 3.02366 68.6816 3.76804C69.4299 4.43038 70.0423 5.23198 70.4845 6.12819C70.8786 6.90132 71.0918 7.75392 71.108 8.62155C71.0897 9.72812 70.7828 10.8107 70.2176 11.7622C69.6262 12.8135 68.8404 13.7429 67.9022 14.501C69.1959 15.1541 70.2941 16.1372 71.0859 17.3509C71.7607 18.4009 72.1237 19.6209 72.1328 20.869C72.1292 21.6925 71.9714 22.508 71.6675 23.2734C71.3543 24.0775 70.9188 24.8285 70.3764 25.4998C69.816 26.193 69.1643 26.8072 68.439 27.3254C67.715 27.8503 66.9204 28.2701 66.0789 28.5724C64.9994 28.9071 63.8886 29.1308 62.7637 29.2401C61.6023 29.3582 60.4357 29.4176 59.2682 29.4181H58.062C57.6743 29.4181 57.2735 29.4031 56.8598 29.3733L56.815 29.3727ZM66.2557 18.2873C65.6053 17.873 64.9007 17.5508 64.1619 17.3299C63.3912 17.1024 62.6011 16.9466 61.8017 16.8647C61.3861 16.924 60.9557 16.9759 60.5106 17.0205C60.0654 17.0651 59.6054 17.0874 59.1304 17.0874V25.5033C59.7834 25.5033 60.5997 25.4662 61.5796 25.3922C62.5412 25.3215 63.4907 25.1346 64.4073 24.8356C65.2689 24.5635 66.0649 24.1162 66.7454 23.5217C67.0745 23.2212 67.333 22.8515 67.5023 22.4392C67.6717 22.0269 67.7477 21.5823 67.7248 21.1371C67.7317 20.5753 67.6098 20.0194 67.3683 19.5121C67.1185 19.0084 66.7332 18.5842 66.2557 18.2873ZM59.131 12.8103C59.5466 12.8103 59.9474 12.8176 60.3332 12.8324C60.719 12.8471 61.1197 12.8694 61.5354 12.8993C62.0364 12.8443 62.5295 12.7324 63.0051 12.5654C63.6038 12.3702 64.1789 12.1088 64.7196 11.7861C65.2548 11.4717 65.7298 11.0646 66.1225 10.5839C66.5053 10.1209 66.7114 9.53696 66.7041 8.93619C66.72 8.36926 66.5648 7.8107 66.2586 7.33329C65.9602 6.88662 65.5642 6.51354 65.1006 6.24219C64.6137 5.95532 64.089 5.73801 63.5419 5.5966C62.9899 5.44974 62.4212 5.37487 61.85 5.37385C60.9261 5.36963 60.008 5.52023 59.1339 5.81937L59.131 12.8103ZM111.81 27.4156C111.818 27.7148 111.763 28.0123 111.648 28.2886C111.533 28.5648 111.36 28.8136 111.142 29.0185C110.735 29.3718 110.212 29.5621 109.673 29.553C109.157 29.5494 108.657 29.3774 108.248 29.0633C108.019 28.8874 107.83 28.6659 107.692 28.4129C107.554 28.1598 107.47 27.8808 107.446 27.5936V2.56818C107.548 2.02387 107.831 1.52975 108.248 1.16535C108.625 0.85743 109.099 0.692646 109.585 0.700069C110.071 0.6942 110.547 0.842197 110.943 1.12289C111.374 1.449 111.681 1.91258 111.812 2.43674V14.8157C112.411 14.4474 112.984 14.0383 113.526 13.5914C114.046 13.161 114.565 12.686 115.085 12.1664C115.605 11.6469 116.139 11.0754 116.688 10.4519C117.237 9.82839 117.853 9.14558 118.536 8.40345C118.818 8.16143 119.143 7.97283 119.493 7.84685C119.787 7.74592 120.095 7.69328 120.406 7.69098C120.947 7.6714 121.474 7.86311 121.876 8.22548C122.06 8.38599 122.208 8.58449 122.308 8.80737C122.408 9.03024 122.459 9.27221 122.457 9.51664C122.421 10.0893 122.202 10.6352 121.834 11.0753C120.795 12.2925 119.815 13.3611 118.895 14.2812C117.963 15.2117 116.966 16.0749 115.912 16.8641L124.06 25.9482C124.438 26.4422 124.683 27.0246 124.773 27.6401C124.775 27.8855 124.726 28.1287 124.631 28.3546C124.535 28.5806 124.394 28.7846 124.216 28.9539C124.026 29.1404 123.799 29.2859 123.55 29.3816C123.301 29.4773 123.036 29.5212 122.769 29.5105C122.442 29.5105 122.117 29.4501 121.812 29.3326C121.467 29.1915 121.156 28.979 120.899 28.7091L117.692 25.1467C116.801 24.1076 115.932 23.113 115.087 22.1631C114.242 21.2131 113.315 20.2039 112.304 19.1353C112.237 19.1841 112.161 19.2216 112.082 19.2463C111.989 19.2746 111.9 19.3118 111.815 19.3574L111.81 27.4156ZM127.173 25.8569C126.968 25.5347 126.858 25.1619 126.854 24.7803C126.85 24.3987 126.953 24.0236 127.15 23.6974C127.345 23.414 127.608 23.1853 127.916 23.0333C128.224 22.8812 128.566 22.8109 128.909 22.829C129.503 22.8596 130.075 23.0616 130.557 23.4106C131.171 24.2334 131.924 24.9421 132.783 25.5044C133.175 25.7768 133.617 25.9685 134.083 26.0683C134.549 26.1682 135.031 26.1742 135.499 26.086C135.926 26.005 136.329 25.83 136.68 25.5736C136.997 25.3484 137.256 25.0508 137.436 24.7053C137.6 24.3734 137.684 24.0073 137.68 23.6369C137.682 23.258 137.574 22.8868 137.369 22.5685C137.138 22.1941 136.844 21.8627 136.5 21.589C136.204 21.36 135.874 21.1796 135.521 21.0545C135.201 20.9418 134.874 20.8526 134.542 20.7876C134.247 20.7327 133.957 20.6583 133.673 20.5648C133.228 20.4462 132.782 20.32 132.335 20.1862C131.891 20.0531 131.459 19.8818 131.044 19.6744C130.617 19.4587 130.214 19.1974 129.842 18.8951C129.424 18.5491 129.05 18.1528 128.729 17.715C128.405 17.2738 128.15 16.7859 127.973 16.2679C127.805 15.8036 127.715 15.3147 127.706 14.8209C127.712 14.1667 127.832 13.5187 128.062 12.9062C128.295 12.263 128.617 11.656 129.02 11.1033C129.418 10.557 129.898 10.0762 130.445 9.67832C130.97 9.28887 131.568 9.00883 132.203 8.85477C133.477 8.52713 134.807 8.48147 136.1 8.721C137.371 8.93089 138.598 9.3524 139.729 9.96797C140.098 10.2172 140.415 10.5346 140.665 10.9032C140.856 11.1787 140.964 11.5033 140.976 11.8384C140.981 12.1799 140.879 12.5143 140.686 12.7957C140.49 13.0807 140.231 13.3169 139.93 13.4861C139.603 13.6679 139.234 13.76 138.861 13.7531C138.415 13.7409 137.979 13.6186 137.591 13.3971C137.113 13.1762 136.613 13.0047 136.1 12.8853C135.483 12.724 134.843 12.6639 134.207 12.7073C133.636 12.7315 133.088 12.9428 132.648 13.3087C132.425 13.5416 132.264 13.8264 132.178 14.1372C132.093 14.4481 132.086 14.7754 132.159 15.0896C132.324 15.3998 132.543 15.6786 132.804 15.9131C133.059 16.1373 133.344 16.3247 133.651 16.4697C133.974 16.6226 134.309 16.7492 134.653 16.8484C135.009 16.9523 135.35 17.0492 135.677 17.1392C136.542 17.3867 137.39 17.6917 138.215 18.0523C138.945 18.3674 139.622 18.7957 140.219 19.3214C140.784 19.8275 141.232 20.4504 141.532 21.147C141.864 21.9668 142.022 22.8461 141.998 23.7299C141.996 24.5394 141.813 25.3382 141.463 26.068C141.112 26.8172 140.638 27.5022 140.06 28.0943C139.489 28.6825 138.818 29.165 138.079 29.5193C137.387 29.8637 136.625 30.0464 135.852 30.0537C134.172 30.0496 132.513 29.6692 130.999 28.9406C129.496 28.2557 128.193 27.198 127.214 25.8679L127.173 25.8569Z" fill="#148108"/>
<path id="8541567_book_open_reading_icon" d="M102.036 9.7366C99.3608 9.87386 94.4963 10.3723 91.2183 12.1852C91.1122 12.2411 91.0232 12.3247 90.9608 12.4271C90.8983 12.5295 90.8647 12.6468 90.8635 12.7668V28.7924C90.8781 28.9179 90.9231 29.038 90.9947 29.1422C91.0663 29.2464 91.1622 29.3315 91.2742 29.3901C91.3862 29.4487 91.5108 29.479 91.6372 29.4784C91.7636 29.4779 91.888 29.4464 91.9994 29.3868C95.3727 27.8531 99.8081 27.4349 102.222 27.3203C102.592 27.3246 102.95 27.1869 103.222 26.9357C103.494 26.6844 103.659 26.3386 103.684 25.9692V11.0888C103.669 10.8903 103.613 10.6969 103.521 10.5203C103.429 10.3436 103.303 10.1875 103.149 10.0611C102.995 9.93481 102.817 9.84093 102.626 9.78515C102.434 9.72938 102.234 9.71286 102.036 9.7366ZM88.0486 12.1852C84.77 10.3723 79.9026 9.87386 77.2289 9.7366C77.0312 9.71295 76.8307 9.72952 76.6395 9.78532C76.4484 9.84112 76.2705 9.935 76.1165 10.0613C75.9625 10.1876 75.8357 10.3438 75.7436 10.5203C75.6515 10.6969 75.5961 10.8903 75.5807 11.0888V25.9698C75.6056 26.3396 75.7714 26.6856 76.0438 26.9369C76.3162 27.1881 76.6746 27.3253 77.0451 27.3203C79.46 27.4366 83.8953 27.8536 87.271 29.3885C87.3821 29.4479 87.506 29.4793 87.632 29.4799C87.7581 29.4804 87.8823 29.4502 87.9939 29.3918C88.1056 29.3333 88.2012 29.2485 88.2726 29.1446C88.344 29.0408 88.3888 28.921 88.4033 28.7958V12.7575C88.4019 12.6388 88.3681 12.5228 88.3055 12.422C88.243 12.3211 88.1542 12.2392 88.0486 12.1852Z" fill="#00AB47"/>
<path id="Rectangle 3" d="M90.8158 13.4959C90.8158 12.7931 90.2461 12.2234 89.5432 12.2234C88.8404 12.2234 88.2707 12.7931 88.2707 13.4959V27.9198C88.2707 28.6226 88.8404 29.1923 89.5432 29.1923C90.2461 29.1923 90.8158 28.6226 90.8158 27.9198V13.4959Z" fill="#148108"/>
</g>
</svg>
