<svg id="Logo" xmlns="http://www.w3.org/2000/svg" width="166.742" height="34.587" viewBox="0 0 166.742 34.587">
  <g id="BriBooks" transform="translate(-80.833 -227.191)">
    <path id="Path_14" data-name="Path 14" d="M17.854-256.71a2.85,2.85,0,0,1-1.994-.814,2.226,2.226,0,0,1-.63-1.5,2.487,2.487,0,0,1,.262-1l-.052.1v-22.043a.4.4,0,0,1-.236.026.8.8,0,0,0-.236-.026,2.594,2.594,0,0,1-1.784-.6,1.917,1.917,0,0,1-.682-1.5,2.914,2.914,0,0,1,1.286-2.2,12.423,12.423,0,0,1,3.123-1.811,23.486,23.486,0,0,1,3.805-1.207,15.508,15.508,0,0,1,3.333-.446,11.854,11.854,0,0,1,4.435.787,11.069,11.069,0,0,1,3.359,2.047,9.082,9.082,0,0,1,2.126,2.782,6.748,6.748,0,0,1,.735,2.939,7.49,7.49,0,0,1-1.05,3.7,11.227,11.227,0,0,1-2.729,3.228,9.7,9.7,0,0,1,3.753,3.359,7.774,7.774,0,0,1,1.233,4.146,7.77,7.77,0,0,1-.551,2.834,9.88,9.88,0,0,1-1.522,2.624,11.633,11.633,0,0,1-2.283,2.152,11.18,11.18,0,0,1-2.782,1.47,19.6,19.6,0,0,1-3.91.787,40.871,40.871,0,0,1-4.12.21H19.323q-.682,0-1.417-.052ZM28.98-269.779a9.839,9.839,0,0,0-2.467-1.128,15.358,15.358,0,0,0-2.782-.551q-.735.1-1.522.184t-1.627.079v9.919q1.155,0,2.887-.131a14.067,14.067,0,0,0,3.333-.656,7.725,7.725,0,0,0,2.755-1.548,3.559,3.559,0,0,0,1.155-2.808,4.333,4.333,0,0,0-.42-1.916A3.565,3.565,0,0,0,28.98-269.779Zm-8.4-6.455q.735,0,1.417.026t1.417.079a7.8,7.8,0,0,0,1.732-.394,9.98,9.98,0,0,0,2.021-.918,6.171,6.171,0,0,0,1.653-1.417,2.99,2.99,0,0,0,.682-1.942,3.327,3.327,0,0,0-.525-1.889,4.179,4.179,0,0,0-1.365-1.286,7.133,7.133,0,0,0-1.837-.761A7.809,7.809,0,0,0,23.785-285a9.752,9.752,0,0,0-3.2.525Zm21.361,1.312a4.422,4.422,0,0,1-1.391-1.128,1.994,1.994,0,0,1-.394-1.181,1.965,1.965,0,0,1,.709-1.522,2.7,2.7,0,0,1,1.863-.63,4.865,4.865,0,0,1,1.811.42,6.356,6.356,0,0,1,1.706,1,16.662,16.662,0,0,1,3.28-2.1,8.019,8.019,0,0,1,3.49-.787,7.519,7.519,0,0,1,1.6.262,8.831,8.831,0,0,1,2.1.814,6.765,6.765,0,0,1,1.811,1.417,2.91,2.91,0,0,1,.787,2.021,1.942,1.942,0,0,1-.709,1.548,2.543,2.543,0,0,1-1.706.6,2.134,2.134,0,0,1-1.207-.315,8.644,8.644,0,0,1-.945-.735,6.061,6.061,0,0,0-.866-.709,1.663,1.663,0,0,0-.918-.341,3.006,3.006,0,0,0-1.365.42,13.065,13.065,0,0,0-1.575,1,17.218,17.218,0,0,0-1.548,1.286q-.761.709-1.286,1.233V-258.6a2.434,2.434,0,0,1-.866,1.942,2.748,2.748,0,0,1-1.706.63,2.572,2.572,0,0,1-1.679-.6,2.683,2.683,0,0,1-.892-1.811V-274.87Zm26.5,16.112a2.473,2.473,0,0,1-.84,1.942,2.71,2.71,0,0,1-1.732.63,2.644,2.644,0,0,1-1.679-.577A2.58,2.58,0,0,1,63.3-258.6l-.157-19.944a2.908,2.908,0,0,1,.945-1.653,2.509,2.509,0,0,1,1.627-.551,2.753,2.753,0,0,1,1.575.5,2.518,2.518,0,0,1,1,1.548ZM62.78-286.889a2.829,2.829,0,0,1,.866-2.073,2.829,2.829,0,0,1,2.073-.866,2.89,2.89,0,0,1,2.126.866,2.829,2.829,0,0,1,.866,2.073,2.743,2.743,0,0,1-.866,2.047,2.937,2.937,0,0,1-2.126.84,2.873,2.873,0,0,1-2.073-.84A2.743,2.743,0,0,1,62.78-286.889Z" transform="translate(68.332 517.701)" fill="#fff"/>
    <path id="Path_15" data-name="Path 15" d="M17.854-262.047a2.85,2.85,0,0,1-1.994-.814,2.226,2.226,0,0,1-.63-1.5,2.487,2.487,0,0,1,.262-1l-.052.1v-22.043a.4.4,0,0,1-.236.026.8.8,0,0,0-.236-.026,2.594,2.594,0,0,1-1.784-.6,1.917,1.917,0,0,1-.682-1.5,2.914,2.914,0,0,1,1.286-2.2,12.423,12.423,0,0,1,3.123-1.811,23.486,23.486,0,0,1,3.805-1.207,15.508,15.508,0,0,1,3.333-.446,11.854,11.854,0,0,1,4.435.787,11.069,11.069,0,0,1,3.359,2.047,9.082,9.082,0,0,1,2.126,2.782A6.748,6.748,0,0,1,34.7-286.5a7.49,7.49,0,0,1-1.05,3.7,11.227,11.227,0,0,1-2.729,3.228,9.7,9.7,0,0,1,3.753,3.359,7.774,7.774,0,0,1,1.233,4.146,7.77,7.77,0,0,1-.551,2.834,9.88,9.88,0,0,1-1.522,2.624,11.633,11.633,0,0,1-2.283,2.152,11.18,11.18,0,0,1-2.782,1.47,19.6,19.6,0,0,1-3.91.787,40.871,40.871,0,0,1-4.12.21H19.323q-.682,0-1.417-.052ZM28.98-275.115a9.839,9.839,0,0,0-2.467-1.128,15.358,15.358,0,0,0-2.782-.551q-.735.1-1.522.184t-1.627.079v9.919q1.155,0,2.887-.131A14.067,14.067,0,0,0,26.8-267.4a7.724,7.724,0,0,0,2.755-1.548,3.559,3.559,0,0,0,1.155-2.808,4.333,4.333,0,0,0-.42-1.916A3.565,3.565,0,0,0,28.98-275.115Zm-8.4-6.456q.735,0,1.417.026t1.417.079a7.8,7.8,0,0,0,1.732-.394,9.98,9.98,0,0,0,2.021-.918,6.171,6.171,0,0,0,1.653-1.417,2.99,2.99,0,0,0,.682-1.942,3.327,3.327,0,0,0-.525-1.889,4.179,4.179,0,0,0-1.365-1.286,7.133,7.133,0,0,0-1.837-.761,7.808,7.808,0,0,0-1.994-.262,9.752,9.752,0,0,0-3.2.525Zm62.088,17.215a2.5,2.5,0,0,1-.787,1.889,2.577,2.577,0,0,1-1.732.63,2.789,2.789,0,0,1-1.679-.577,2.444,2.444,0,0,1-.945-1.732v-29.5a2.908,2.908,0,0,1,.945-1.653,2.434,2.434,0,0,1,1.575-.551,2.715,2.715,0,0,1,1.6.5,2.792,2.792,0,0,1,1.023,1.548v14.59a18.065,18.065,0,0,0,2.021-1.443q.918-.761,1.837-1.679t1.889-2.021q.971-1.1,2.178-2.414a3.619,3.619,0,0,1,1.128-.656,3.392,3.392,0,0,1,1.076-.184,2.454,2.454,0,0,1,1.732.63,2,2,0,0,1,.682,1.522,3.182,3.182,0,0,1-.735,1.837q-1.837,2.152-3.464,3.779a32.765,32.765,0,0,1-3.516,3.044l9.6,10.707a4.3,4.3,0,0,1,.84,1.994,2.118,2.118,0,0,1-.656,1.548,2.307,2.307,0,0,1-1.706.656,3.145,3.145,0,0,1-1.128-.21,3.112,3.112,0,0,1-1.076-.735l-3.779-4.2q-1.575-1.837-3.07-3.516t-3.28-3.569a.906.906,0,0,1-.262.131,1.743,1.743,0,0,0-.315.131Zm18.107-1.837a2.413,2.413,0,0,1-.026-2.545,2.362,2.362,0,0,1,2.073-1.023,3.626,3.626,0,0,1,1.942.682,10.345,10.345,0,0,0,2.624,2.467,4.234,4.234,0,0,0,3.2.682,3.442,3.442,0,0,0,1.391-.6,2.884,2.884,0,0,0,.892-1.023,2.777,2.777,0,0,0,.289-1.26,2.3,2.3,0,0,0-.367-1.26,4.463,4.463,0,0,0-1.023-1.155,4.154,4.154,0,0,0-1.155-.63,8.191,8.191,0,0,0-1.155-.315,7.929,7.929,0,0,1-1.023-.262q-.787-.21-1.575-.446a9.5,9.5,0,0,1-1.522-.6,7.826,7.826,0,0,1-1.417-.918,7.75,7.75,0,0,1-1.312-1.391,6.353,6.353,0,0,1-.892-1.706,5.284,5.284,0,0,1-.315-1.706,6.58,6.58,0,0,1,.42-2.257,8.532,8.532,0,0,1,1.128-2.126,7.647,7.647,0,0,1,1.679-1.679,5.756,5.756,0,0,1,2.073-.971,10.649,10.649,0,0,1,4.592-.157,13.583,13.583,0,0,1,4.277,1.47,4.108,4.108,0,0,1,1.1,1.1,2.065,2.065,0,0,1,.367,1.1,1.951,1.951,0,0,1-.341,1.128,2.664,2.664,0,0,1-.892.813,2.493,2.493,0,0,1-1.26.315,3.188,3.188,0,0,1-1.5-.42,9.135,9.135,0,0,0-1.758-.6,6.952,6.952,0,0,0-2.231-.21,3.076,3.076,0,0,0-1.837.709,2.291,2.291,0,0,0-.577,2.1,3.538,3.538,0,0,0,.761.971,4.279,4.279,0,0,0,1,.656,7.862,7.862,0,0,0,1.181.446q.63.184,1.207.341a23.805,23.805,0,0,1,2.992,1.076,8.921,8.921,0,0,1,2.362,1.5,6.165,6.165,0,0,1,1.548,2.152,7.572,7.572,0,0,1,.551,3.044,6.4,6.4,0,0,1-.63,2.755,8.7,8.7,0,0,1-1.653,2.388,8.186,8.186,0,0,1-2.336,1.679,6.018,6.018,0,0,1-2.624.63,13.27,13.27,0,0,1-5.721-1.312,11.418,11.418,0,0,1-4.461-3.621Z" transform="translate(129.32 523.037)" fill="#fff"/>
    <path id="_8541567_book_open_reading_icon" data-name="8541567_book_open_reading_icon" d="M31.181,32c-3.151.161-8.886.749-12.753,2.886a.783.783,0,0,0-.418.684v18.89a.914.914,0,0,0,1.339.7c3.978-1.808,9.2-2.3,12.048-2.436a1.707,1.707,0,0,0,1.726-1.592V33.592A1.74,1.74,0,0,0,31.181,32ZM14.7,34.884C10.829,32.748,5.094,32.16,1.943,32A1.741,1.741,0,0,0,0,33.592V51.132a1.707,1.707,0,0,0,1.726,1.592c2.846.135,8.074.629,12.052,2.437a.911.911,0,0,0,1.335-.7v-18.9A.768.768,0,0,0,14.7,34.884Z" transform="translate(169.291 205.848)" fill="#fff"/>
  </g>
</svg>
