<svg width="130" height="131" viewBox="0 0 130 131" fill="none" xmlns="http://www.w3.org/2000/svg">
<g clip-path="url(#clip0_0_3422)">
<path d="M128.678 8.60376C127.847 7.75235 126.707 7.27502 125.517 7.28134H4.483C3.29375 7.27502 2.153 7.75235 1.32266 8.60376C0.471251 9.4341 -0.00608235 10.5748 0.000245222 11.7641V105.902C-0.00608235 107.091 0.471251 108.232 1.32266 109.062C2.153 109.914 3.29375 110.391 4.483 110.385H123.276C126.99 110.385 130 107.374 130 103.661V11.7641C130.007 10.5748 129.529 9.4341 128.678 8.60376Z" fill="#F3D55B"/>
<path d="M130 11.764V103.661C130 105.444 129.29 107.153 128.028 108.412L118.793 99.1778V18.4882L128.678 8.6037C129.529 9.43404 130.006 10.5748 130 11.764Z" fill="#F0C419"/>
<path d="M11.2069 18.4882V99.1778L1.32241 109.062C0.471007 108.232 -0.00632649 107.091 1.08162e-06 105.902V11.764C-0.00632649 10.5748 0.471007 9.43404 1.32241 8.6037L11.2069 18.4882Z" fill="#F0C419"/>
<path d="M128.028 108.412C126.769 109.675 125.059 110.385 123.276 110.385H4.48273C3.29348 110.391 2.15273 109.914 1.32239 109.062L11.2069 99.1778H118.793L128.028 108.412Z" fill="#F29C1F"/>
<path d="M11.2069 18.4882H118.793V99.1778H11.2069V18.4882Z" fill="#ECF0F1"/>
<path d="M118.793 18.4882C118.793 18.4882 11.2069 18.4882 11.2069 99.1778V18.4882H118.793Z" fill="white"/>
<path d="M80.6897 34.1778H49.3103C48.0725 34.1778 47.069 33.1743 47.069 31.9364C47.069 30.6986 48.0725 29.6951 49.3103 29.6951H80.6897C81.9275 29.6951 82.931 30.6986 82.931 31.9364C82.931 33.1743 81.9275 34.1778 80.6897 34.1778Z" fill="#BDC3C7"/>
<path d="M58.2758 83.4882H26.8965C25.6587 83.4882 24.6552 82.4847 24.6552 81.2468C24.6552 80.0089 25.6587 79.0054 26.8965 79.0054H58.2758C59.5137 79.0054 60.5172 80.0089 60.5172 81.2468C60.5172 82.4847 59.5137 83.4882 58.2758 83.4882Z" fill="#95A5A5"/>
<path d="M87.4138 45.3847H42.5862C41.3483 45.3847 40.3448 44.3812 40.3448 43.1434C40.3448 41.9055 41.3483 40.902 42.5862 40.902H87.4138C88.6517 40.902 89.6552 41.9055 89.6552 43.1434C89.6552 44.3812 88.6517 45.3847 87.4138 45.3847Z" fill="#BDC3C7"/>
<path d="M78.4482 91.1089L78.4483 120.202C78.4428 120.983 78.8442 121.71 79.5076 122.122C80.171 122.534 81.001 122.571 81.6983 122.219L87.5259 119.283C88.1617 118.969 88.9073 118.969 89.5431 119.283L95.3707 122.219C96.068 122.571 96.898 122.534 97.5614 122.122C98.2248 121.71 98.6262 120.983 98.6207 120.202L98.6208 91.1089H78.4482Z" fill="#FF5364"/>
<path d="M58.2758 74.5227C52.7875 74.5227 47.392 73.1069 42.6108 70.412C37.8217 73.1312 32.4038 74.5485 26.8965 74.5227C25.6587 74.5227 24.6552 73.5192 24.6552 72.2813C24.6552 71.0434 25.6587 70.0399 26.8965 70.0399C30.914 70.0577 34.8855 69.1843 38.5248 67.4825C36.1985 65.6992 34.7106 63.0355 34.4119 60.1196C34.4119 58.7747 35.0014 54.3503 42.5862 54.3503C50.171 54.3503 50.7605 58.7658 50.7605 60.1196C50.4633 63.0391 48.9764 65.7073 46.6498 67.4959C50.2904 69.19 54.2604 70.0587 58.2758 70.0399C59.5137 70.0399 60.5172 71.0434 60.5172 72.2813C60.5172 73.5192 59.5137 74.5227 58.2758 74.5227ZM42.5862 58.833C40.8827 58.833 38.8946 59.1692 38.8946 60.1196C38.8946 61.0699 39.901 62.984 42.5683 65.0371C44.9531 63.2127 46.2777 61.3052 46.2777 60.1196C46.2777 59.1692 44.2896 58.833 42.5862 58.833Z" fill="#95A5A5"/>
<path d="M109.828 75.6434C109.828 78.2277 105.002 79.8302 104.069 82.0784C103.103 84.4071 105.345 88.9459 103.59 90.7009C101.835 92.4559 97.296 90.2146 94.9695 91.1784C92.7214 92.1108 91.1188 96.9365 88.5345 96.9365C85.9502 96.9365 84.3476 92.1108 82.0995 91.1784C79.7707 90.2123 75.2319 92.4537 73.4769 90.6987C71.7219 88.9437 73.9633 84.4049 72.9995 82.0784C72.0671 79.8302 67.2414 78.2277 67.2414 75.6434C67.2414 73.059 72.0671 71.4565 72.9995 69.2084C73.9655 66.8796 71.7242 62.3408 73.4792 60.5858C75.2342 58.8308 79.773 61.0721 82.0995 60.1084C84.3409 59.1759 85.9502 54.3503 88.5345 54.3503C91.1188 54.3503 92.7214 59.1759 94.9695 60.1084C97.2983 61.0744 101.837 58.833 103.592 60.588C105.347 62.343 103.106 66.8818 104.069 69.2084C105.002 71.4565 109.828 73.059 109.828 75.6434Z" fill="#FB7B76"/>
<path d="M88.5345 83.4882C92.867 83.4882 96.3793 79.9759 96.3793 75.6434C96.3793 71.3108 92.867 67.7985 88.5345 67.7985C84.2019 67.7985 80.6896 71.3108 80.6896 75.6434C80.6896 79.9759 84.2019 83.4882 88.5345 83.4882Z" fill="#DF4D60"/>
</g>
<defs>
<clipPath id="clip0_0_3422">
<rect width="130" height="130" fill="white" transform="translate(0 0.557129)"/>
</clipPath>
</defs>
</svg>
