<svg width="127" height="128" viewBox="0 0 127 128" fill="none" xmlns="http://www.w3.org/2000/svg">
<g clip-path="url(#clip0_0_3441)">
<path d="M124.516 63.4539L116.834 60.2627C115.609 59.754 114.713 58.675 114.438 57.3775L112.712 49.24C112.019 45.9728 107.88 44.9186 105.708 47.4561L100.299 53.7758C99.4368 54.7834 98.1338 55.3023 96.8149 55.1629L95.3299 55.0061L91.6876 56.6187L93.2909 74.9804L112.847 82.6745L115.481 81.6647L115.774 77.9924C115.88 76.6703 116.629 75.4846 117.778 74.8221L124.983 70.6658C127.877 68.9972 127.601 64.7353 124.516 63.4539Z" fill="#FFBA57"/>
<path d="M89.4551 54.3865L95.3299 55.0064C93.6256 56.7058 92.8499 59.1282 93.2575 61.5037L95.1587 72.5895C95.2413 73.0709 95.5923 73.4616 96.0604 73.601C105.647 76.4528 112.346 79.8793 115.481 81.6647L115.13 86.075L102.92 88.0812L91.2252 76.8906L81.4435 66.0591L89.4551 54.3865Z" fill="#FFAC3E"/>
<path d="M2.48395 63.4539L10.166 60.2627C11.3908 59.754 12.2868 58.675 12.5621 57.3775L14.2883 49.24C14.9813 45.9728 19.12 44.9186 21.2919 47.4561L26.7008 53.7758C27.5632 54.7834 28.8662 55.3023 30.1851 55.1629L31.6701 55.0061L35.3125 56.6187L33.7091 74.9804L14.1528 82.6745L11.5186 81.6647L11.2256 77.9924C11.1202 76.6703 10.3708 75.4846 9.22214 74.8221L2.01663 70.6658C-0.876592 68.9972 -0.600516 64.7353 2.48395 63.4539Z" fill="#FFBA57"/>
<path d="M37.5449 54.3865L31.6701 55.0064C33.3745 56.7058 34.1501 59.1282 33.7426 61.5037L31.8413 72.5895C31.7587 73.0709 31.4077 73.4616 30.9396 73.601C21.3529 76.4528 14.6539 79.8793 11.5186 81.6647L11.8703 86.075L24.0796 88.0812L35.7748 76.8906L45.5565 66.0591L37.5449 54.3865Z" fill="#FFAC3E"/>
<path d="M36.2205 52.6415C37.9665 54.3436 38.7635 56.7958 38.3513 59.1994L36.1223 72.1958L40.2396 74.6589H86.7603L90.8777 72.1958L88.6485 59.1994C88.2362 56.7961 89.0332 54.3436 90.7792 52.6415L101.73 41.9666C106.128 37.6803 103.701 30.2126 97.6245 29.3296L82.4902 27.1304C80.077 26.7796 77.9909 25.2641 76.9119 23.0775L70.1434 9.36328C67.4258 3.85689 59.5737 3.85689 56.8561 9.36328L50.0876 23.0775C49.0083 25.2641 46.9225 26.7796 44.5093 27.1304L29.3749 29.3296C23.2983 30.2126 20.8719 37.6803 25.269 41.9666L36.2205 52.6415Z" fill="#FFE27A"/>
<path d="M36.1223 72.1958L35.7661 74.2727C35.6096 75.1855 35.6237 76.0646 35.7748 76.8913H91.2252C91.3762 76.0646 91.3906 75.1855 91.2339 74.2727L90.8777 72.1958C83.148 70.3 73.9343 68.9161 63.5 68.9161C53.0657 68.9161 43.852 70.2997 36.1223 72.1958Z" fill="#F9CF58"/>
<path d="M112.747 98.3811L99.314 100.149L100.719 103.374L97.759 104.944L95.8438 110.85C95.6362 111.49 95.9609 112.183 96.5857 112.432C105.911 116.159 112.337 120.398 115.381 122.631C116.223 123.248 117.408 122.652 117.417 121.609L117.492 113.323C117.496 112.854 117.757 112.425 118.172 112.204L125.273 108.434C126.099 107.996 126.193 106.85 125.448 106.285C123.31 104.663 119 101.636 112.747 98.3811Z" fill="#C61926"/>
<path d="M106.475 109.18C104.931 108.275 101.965 106.666 97.759 104.945L99.314 100.15C106.001 102.841 109.696 105.312 109.716 105.325L108.293 108.586C107.986 109.288 107.137 109.567 106.475 109.18Z" fill="#B2182B"/>
<path d="M14.2533 98.3811C14.2533 98.3811 27.6863 100.149 27.686 100.149L26.2813 103.374L29.241 104.944L31.1562 110.85C31.3638 111.49 31.0391 112.183 30.4143 112.432C21.089 116.159 14.6626 120.398 11.6188 122.631C10.7774 123.248 9.59248 122.652 9.58306 121.609L9.5079 113.323C9.50368 112.854 9.24274 112.425 8.828 112.204L1.72717 108.434C0.901418 107.996 0.80716 106.85 1.55204 106.285C3.68996 104.663 7.99978 101.636 14.2533 98.3811Z" fill="#C61926"/>
<path d="M20.5249 109.18C22.0688 108.275 25.0351 106.666 29.241 104.945L27.686 100.15C20.9989 102.841 17.3038 105.312 17.2844 105.325L18.7072 108.586C19.0138 109.288 19.8634 109.567 20.5249 109.18Z" fill="#B2182B"/>
<path d="M107.232 100.959C107.232 100.959 91.8776 91.1396 63.5 91.1396C35.1224 91.1396 19.6733 101.426 19.6733 101.426L15.1383 100.41L9.94271 88.5034C9.68598 87.9153 9.90352 87.2269 10.4534 86.8961C14.8808 84.2308 34.4711 73.5251 63.5 73.5251C92.5289 73.5251 112.119 84.231 116.546 86.8961C117.096 87.2269 117.314 87.9153 117.057 88.5034L111.861 100.41L107.232 100.959Z" fill="#FF4755"/>
<path d="M63.5 88.0839C36.2927 88.0839 18.2525 98.4806 15.1385 100.41L17.2834 105.326C17.2834 105.326 35.1224 93.372 63.5 93.372C91.8776 93.372 109.717 105.326 109.717 105.326L111.861 100.41C108.747 98.4806 90.7073 88.0839 63.5 88.0839Z" fill="#FC2B3A"/>
</g>
<defs>
<clipPath id="clip0_0_3441">
<rect width="127" height="127" fill="white" transform="translate(0 0.557129)"/>
</clipPath>
</defs>
</svg>
