<svg width="1440" height="578" viewBox="0 0 1440 578" fill="none" xmlns="http://www.w3.org/2000/svg">
<g opacity="0.4">
<rect width="1440" height="576" transform="translate(0 1)" fill="#F7F8F9"/>
<line x1="1464" y1="1.5" x2="-24" y2="1.5" stroke="#D5DAE1"/>
<line x1="1464" y1="25.5" x2="-24" y2="25.5" stroke="#D5DAE1"/>
<line x1="1464" y1="49.5" x2="-24" y2="49.5" stroke="#D5DAE1"/>
<line x1="1464" y1="73.5" x2="-24" y2="73.5" stroke="#D5DAE1"/>
<line x1="1464" y1="97.5" x2="-24" y2="97.5" stroke="#D5DAE1"/>
<line x1="1464" y1="121.5" x2="-24" y2="121.5" stroke="#D5DAE1"/>
<line x1="1464" y1="145.5" x2="-24" y2="145.5" stroke="#D5DAE1"/>
<line x1="1464" y1="169.5" x2="-24" y2="169.5" stroke="#D5DAE1"/>
<line x1="1464" y1="193.5" x2="-24" y2="193.5" stroke="#D5DAE1"/>
<line x1="1464" y1="217.5" x2="-24" y2="217.5" stroke="#D5DAE1"/>
<line x1="1464" y1="241.5" x2="-24" y2="241.5" stroke="#D5DAE1"/>
<line x1="1464" y1="265.5" x2="-24" y2="265.5" stroke="#D5DAE1"/>
<line x1="1464" y1="289.5" x2="-24" y2="289.5" stroke="#D5DAE1"/>
<line x1="1464" y1="313.5" x2="-24" y2="313.5" stroke="#D5DAE1"/>
<line x1="1464" y1="337.5" x2="-24" y2="337.5" stroke="#D5DAE1"/>
<line x1="1464" y1="361.5" x2="-24" y2="361.5" stroke="#D5DAE1"/>
<line x1="1464" y1="385.5" x2="-24" y2="385.5" stroke="#D5DAE1"/>
<line x1="1464" y1="409.5" x2="-24" y2="409.5" stroke="#D5DAE1"/>
<line x1="1464" y1="433.5" x2="-24" y2="433.5" stroke="#D5DAE1"/>
<line x1="1464" y1="457.5" x2="-24" y2="457.5" stroke="#D5DAE1"/>
<line x1="1464" y1="481.5" x2="-24" y2="481.5" stroke="#D5DAE1"/>
<line x1="1464" y1="505.5" x2="-24" y2="505.5" stroke="#D5DAE1"/>
<line x1="1464" y1="529.5" x2="-24" y2="529.5" stroke="#D5DAE1"/>
<line x1="1464" y1="553.5" x2="-24" y2="553.5" stroke="#D5DAE1"/>
<line x1="1464" y1="577.5" x2="-24" y2="577.5" stroke="#D5DAE1"/>
<line x1="24.5" y1="0.00390627" x2="24.5" y2="577.004" stroke="#D5DAE1"/>
<line x1="24.5" y1="0.00390627" x2="24.5" y2="577.004" stroke="#D5DAE1"/>
<line x1="48.5" y1="0.00390627" x2="48.5" y2="577.004" stroke="#D5DAE1"/>
<line x1="72.5" y1="0.00390627" x2="72.5" y2="577.004" stroke="#D5DAE1"/>
<line x1="96.5" y1="0.00390627" x2="96.5" y2="577.004" stroke="#D5DAE1"/>
<line x1="120.5" y1="0.00390627" x2="120.5" y2="577.004" stroke="#D5DAE1"/>
<line x1="144.5" y1="0.00390627" x2="144.5" y2="577.004" stroke="#D5DAE1"/>
<line x1="168.5" y1="0.00390627" x2="168.5" y2="577.004" stroke="#D5DAE1"/>
<line x1="192.5" y1="0.00390627" x2="192.5" y2="577.004" stroke="#D5DAE1"/>
<line x1="216.5" y1="0.00390627" x2="216.5" y2="577.004" stroke="#D5DAE1"/>
<line x1="240.5" y1="0.00390627" x2="240.5" y2="577.004" stroke="#D5DAE1"/>
<line x1="264.5" y1="0.00390627" x2="264.5" y2="577.004" stroke="#D5DAE1"/>
<line x1="288.5" y1="0.00390627" x2="288.5" y2="577.004" stroke="#D5DAE1"/>
<line x1="312.5" y1="0.00390627" x2="312.5" y2="577.004" stroke="#D5DAE1"/>
<line x1="336.5" y1="0.00390627" x2="336.5" y2="577.004" stroke="#D5DAE1"/>
<line x1="360.5" y1="0.00390627" x2="360.5" y2="577.004" stroke="#D5DAE1"/>
<line x1="384.5" y1="0.00390627" x2="384.5" y2="577.004" stroke="#D5DAE1"/>
<line x1="408.5" y1="0.00390627" x2="408.5" y2="577.004" stroke="#D5DAE1"/>
<line x1="432.5" y1="0.00390627" x2="432.5" y2="577.004" stroke="#D5DAE1"/>
<line x1="456.5" y1="0.00390627" x2="456.5" y2="577.004" stroke="#D5DAE1"/>
<line x1="480.5" y1="0.00390627" x2="480.5" y2="577.004" stroke="#D5DAE1"/>
<line x1="504.5" y1="0.00390627" x2="504.5" y2="577.004" stroke="#D5DAE1"/>
<line x1="528.5" y1="0.00390627" x2="528.5" y2="577.004" stroke="#D5DAE1"/>
<line x1="552.5" y1="0.00390627" x2="552.5" y2="577.004" stroke="#D5DAE1"/>
<line x1="576.5" y1="0.00390627" x2="576.5" y2="577.004" stroke="#D5DAE1"/>
<line x1="600.5" y1="0.00390627" x2="600.5" y2="577.004" stroke="#D5DAE1"/>
<line x1="624.5" y1="0.00390627" x2="624.5" y2="577.004" stroke="#D5DAE1"/>
<line x1="648.5" y1="0.00390627" x2="648.5" y2="577.004" stroke="#D5DAE1"/>
<line x1="672.5" y1="0.00390627" x2="672.5" y2="577.004" stroke="#D5DAE1"/>
<line x1="696.5" y1="0.00390627" x2="696.5" y2="577.004" stroke="#D5DAE1"/>
<line x1="720.5" y1="0.00390627" x2="720.5" y2="577.004" stroke="#D5DAE1"/>
<line x1="744.5" y1="0.00390627" x2="744.5" y2="577.004" stroke="#D5DAE1"/>
<line x1="768.5" y1="0.00390627" x2="768.5" y2="577.004" stroke="#D5DAE1"/>
<line x1="792.5" y1="0.00390627" x2="792.5" y2="577.004" stroke="#D5DAE1"/>
<line x1="816.5" y1="0.00390627" x2="816.5" y2="577.004" stroke="#D5DAE1"/>
<line x1="840.5" y1="0.00390627" x2="840.5" y2="577.004" stroke="#D5DAE1"/>
<line x1="864.5" y1="0.00390627" x2="864.5" y2="577.004" stroke="#D5DAE1"/>
<line x1="888.5" y1="0.00390627" x2="888.5" y2="577.004" stroke="#D5DAE1"/>
<line x1="912.5" y1="0.00390627" x2="912.5" y2="577.004" stroke="#D5DAE1"/>
<line x1="936.5" y1="0.00390627" x2="936.5" y2="577.004" stroke="#D5DAE1"/>
<line x1="960.5" y1="0.00390627" x2="960.5" y2="577.004" stroke="#D5DAE1"/>
<line x1="984.5" y1="0.00390627" x2="984.5" y2="577.004" stroke="#D5DAE1"/>
<line x1="1008.5" y1="0.00390627" x2="1008.5" y2="577.004" stroke="#D5DAE1"/>
<line x1="1032.5" y1="0.00390627" x2="1032.5" y2="577.004" stroke="#D5DAE1"/>
<line x1="1056.5" y1="0.00390627" x2="1056.5" y2="577.004" stroke="#D5DAE1"/>
<line x1="1080.5" y1="0.00390627" x2="1080.5" y2="577.004" stroke="#D5DAE1"/>
<line x1="1104.5" y1="0.00390627" x2="1104.5" y2="577.004" stroke="#D5DAE1"/>
<line x1="1128.5" y1="0.00390627" x2="1128.5" y2="577.004" stroke="#D5DAE1"/>
<line x1="1152.5" y1="0.00390627" x2="1152.5" y2="577.004" stroke="#D5DAE1"/>
<line x1="1176.5" y1="0.00390627" x2="1176.5" y2="577.004" stroke="#D5DAE1"/>
<line x1="1200.5" y1="0.00390627" x2="1200.5" y2="577.004" stroke="#D5DAE1"/>
<line x1="1224.5" y1="0.00390627" x2="1224.5" y2="577.004" stroke="#D5DAE1"/>
<line x1="1248.5" y1="0.00390627" x2="1248.5" y2="577.004" stroke="#D5DAE1"/>
<line x1="1272.5" y1="0.00390627" x2="1272.5" y2="577.004" stroke="#D5DAE1"/>
<line x1="1296.5" y1="0.00390627" x2="1296.5" y2="577.004" stroke="#D5DAE1"/>
<line x1="1320.5" y1="0.00390627" x2="1320.5" y2="577.004" stroke="#D5DAE1"/>
<line x1="1344.5" y1="0.00390627" x2="1344.5" y2="577.004" stroke="#D5DAE1"/>
<line x1="1368.5" y1="0.00390627" x2="1368.5" y2="577.004" stroke="#D5DAE1"/>
<line x1="1392.5" y1="0.00390627" x2="1392.5" y2="577.004" stroke="#D5DAE1"/>
<line x1="1416.5" y1="0.00390627" x2="1416.5" y2="577.004" stroke="#D5DAE1"/>
<line x1="1440.5" y1="0.00390627" x2="1440.5" y2="577.004" stroke="#D5DAE1"/>
</g>
</svg>
