<svg width="90" height="81" viewBox="0 0 90 81" fill="none" xmlns="http://www.w3.org/2000/svg">
<path d="M9.21543 15.6516C9.21543 33.442 2.28882e-05 45.6589 2.28882e-05 54.2314C2.28882e-05 62.8038 4.92794 80.8076 44.3641 80.8076C83.8003 80.8076 89.5898 56.5873 89.5898 47.1584C89.5898 3.00521 9.21543 -15.8551 9.21543 15.6516Z" fill="#EFEFEF"/>
<path d="M6.5 43.9961C4.019 43.9961 2 41.9771 2 39.4961C2 37.0151 4.019 34.9961 6.5 34.9961C8.981 34.9961 11 37.0151 11 39.4961C11 41.9771 8.981 43.9961 6.5 43.9961ZM6.5 37.9961C5.672 37.9961 5 38.6711 5 39.4961C5 40.3211 5.672 40.9961 6.5 40.9961C7.328 40.9961 8 40.3211 8 39.4961C8 38.6711 7.328 37.9961 6.5 37.9961Z" fill="#A4AFC1"/>
<path d="M70.9994 8.03603C71.0814 0.924395 62.0454 -2.7299 57.0978 2.39078C53.6031 0.186231 48.604 1.23774 46.2831 4.60291C39.6791 0.885955 32.7757 9.10558 37.6318 14.8781C37.0212 16.8946 37.1977 19.1195 38.1087 21.022L36.5077 24.0957C36.2802 24.5313 36.3338 25.0602 36.6449 25.4426C36.956 25.825 37.4653 25.9883 37.9434 25.86L41.6756 24.8581C45.2926 27.0034 50.3444 26.0192 52.8673 22.7161C58.8867 27.8426 68.3374 22.6791 67.1605 14.8721C69.5203 13.4163 70.9994 10.829 70.9994 8.03603Z" fill="#2FDF84"/>
<path d="M77.0607 53.9988C79.7841 53.9988 81.9999 51.7836 81.9999 49.0595V31.7721C81.9999 29.048 79.7841 26.8328 77.0607 26.8328H52.3643C49.6408 26.8328 47.425 29.048 47.425 31.7721V49.0595C47.425 51.7836 49.6408 53.9988 52.3643 53.9988H61.008V55.2336H59.7732C57.2724 55.1845 55.3879 57.841 56.2964 60.1729H48.4311C49.4516 57.152 46.8494 53.9396 43.7206 53.9988C43.7206 53.9988 41.2509 53.9988 41.2509 53.9988C41.7217 49.2795 38.5491 44.8244 33.842 44.219V42.9595C44.2094 37.7098 40.6853 22.0524 28.9026 21.8936C17.1188 22.0532 13.5972 37.7119 23.9635 42.9595C23.9694 43.0486 23.9493 44.2193 23.9759 44.2684C18.3822 45.1328 14.0849 49.9856 14.0849 55.8263V60.1729H12.8501C10.1267 60.1729 7.91086 62.3881 7.91086 65.1122C7.91086 67.8362 10.1267 70.0514 12.8501 70.0514H77.0607C83.5693 69.8523 83.6034 60.3838 77.0605 60.1729H73.1287C74.0367 57.8405 72.1528 55.1848 69.6517 55.2337C69.6518 55.2336 68.4169 55.2336 68.4169 55.2336V53.9988L77.0607 53.9988ZM20.259 33.0069C20.259 28.2405 24.1364 24.3632 28.9028 24.3632C37.3936 24.3971 40.6973 35.3848 33.8049 40.1318C28.3192 44.0678 20.1307 39.8936 20.259 33.0069ZM28.9028 44.1203C29.7548 44.1203 30.5821 44.0214 31.3724 43.8486C31.5454 47.4635 26.2593 47.4615 26.4331 43.8486C27.2234 44.0214 28.0507 44.1203 28.9028 44.1203ZM16.5546 55.8263C16.5546 51.1216 20.1109 47.2073 24.6797 46.664C26.3987 49.8256 31.4552 49.8043 33.1505 46.6269C36.9441 46.9676 39.1611 50.2963 38.7813 53.9988H35.0769L27.668 56.4684H43.7206C45.0789 56.4684 46.1902 57.5797 46.1902 58.9381C46.1902 59.6172 45.6345 60.1729 44.9554 60.1729H16.5546V55.8263ZM69.6518 57.7033C71.2711 57.7309 71.2771 60.1441 69.6517 60.1729H59.7732C58.1531 60.145 58.1486 57.732 59.7733 57.7033C59.7732 57.7033 61.9715 57.7033 61.9715 57.7033C63.2962 59.3215 66.1289 59.3212 67.4534 57.7033H69.6518ZM65.9473 55.2336H63.4777V53.9988H65.9473V55.2336Z" fill="#C97629"/>
<path d="M44.9555 12.0149H61.0082C62.6274 11.9885 62.6341 9.57302 61.0082 9.54529H44.9555C43.3375 9.57137 43.3287 11.987 44.9555 12.0149Z" fill="black"/>
<path d="M58.5383 14.4847H47.425C45.8045 14.5114 45.8 16.9267 47.425 16.9543H58.5383C60.158 16.9277 60.1639 14.5124 58.5383 14.4847Z" fill="black"/>
</svg>
