<svg width="460" height="371" viewBox="0 0 460 371" fill="none" xmlns="http://www.w3.org/2000/svg">
<g filter="url(#filter0_d_0_3438)">
<rect x="80" y="35.5571" width="300" height="210" rx="12" fill="white"/>
<rect x="80.5" y="36.0571" width="299" height="209" rx="11.5" stroke="#F3F3F3"/>
</g>
<path d="M143.4 214.757C142.813 214.757 142.227 214.71 141.64 214.617C141.053 214.537 140.5 214.41 139.98 214.237C139.46 214.05 138.993 213.824 138.58 213.557C138.34 213.397 138.173 213.204 138.08 212.977C137.987 212.75 137.953 212.53 137.98 212.317C138.02 212.09 138.107 211.897 138.24 211.737C138.387 211.564 138.567 211.457 138.78 211.417C138.993 211.377 139.227 211.437 139.48 211.597C140.067 211.944 140.687 212.197 141.34 212.357C141.993 212.517 142.68 212.597 143.4 212.597C144.453 212.597 145.22 212.424 145.7 212.077C146.18 211.717 146.42 211.257 146.42 210.697C146.42 210.23 146.247 209.864 145.9 209.597C145.567 209.33 144.987 209.11 144.16 208.937L141.96 208.477C140.693 208.21 139.747 207.764 139.12 207.137C138.507 206.497 138.2 205.657 138.2 204.617C138.2 203.964 138.333 203.37 138.6 202.837C138.867 202.304 139.24 201.844 139.72 201.457C140.213 201.07 140.793 200.777 141.46 200.577C142.14 200.364 142.887 200.257 143.7 200.257C144.5 200.257 145.26 200.357 145.98 200.557C146.7 200.757 147.347 201.05 147.92 201.437C148.133 201.584 148.273 201.764 148.34 201.977C148.42 202.19 148.44 202.404 148.4 202.617C148.36 202.817 148.267 202.99 148.12 203.137C147.973 203.284 147.787 203.37 147.56 203.397C147.347 203.424 147.1 203.357 146.82 203.197C146.327 202.917 145.827 202.717 145.32 202.597C144.813 202.477 144.267 202.417 143.68 202.417C143.067 202.417 142.54 202.504 142.1 202.677C141.66 202.85 141.32 203.097 141.08 203.417C140.853 203.724 140.74 204.09 140.74 204.517C140.74 204.997 140.9 205.384 141.22 205.677C141.54 205.957 142.087 206.177 142.86 206.337L145.04 206.797C146.36 207.077 147.34 207.517 147.98 208.117C148.633 208.717 148.96 209.517 148.96 210.517C148.96 211.157 148.827 211.737 148.56 212.257C148.307 212.777 147.933 213.224 147.44 213.597C146.96 213.97 146.38 214.257 145.7 214.457C145.02 214.657 144.253 214.757 143.4 214.757ZM152.157 214.717C151.757 214.717 151.451 214.61 151.237 214.397C151.024 214.17 150.917 213.85 150.917 213.437V201.557C150.917 201.144 151.024 200.83 151.237 200.617C151.451 200.404 151.757 200.297 152.157 200.297C152.557 200.297 152.864 200.404 153.077 200.617C153.304 200.83 153.417 201.144 153.417 201.557V206.737H153.137C153.431 206.03 153.884 205.497 154.497 205.137C155.124 204.764 155.831 204.577 156.617 204.577C157.404 204.577 158.051 204.724 158.557 205.017C159.064 205.31 159.444 205.757 159.697 206.357C159.951 206.944 160.077 207.69 160.077 208.597V213.437C160.077 213.85 159.971 214.17 159.757 214.397C159.544 214.61 159.237 214.717 158.837 214.717C158.437 214.717 158.124 214.61 157.897 214.397C157.684 214.17 157.577 213.85 157.577 213.437V208.717C157.577 207.957 157.431 207.404 157.137 207.057C156.857 206.71 156.417 206.537 155.817 206.537C155.084 206.537 154.497 206.77 154.057 207.237C153.631 207.69 153.417 208.297 153.417 209.057V213.437C153.417 214.29 152.997 214.717 152.157 214.717ZM163.856 214.697C163.456 214.697 163.15 214.577 162.936 214.337C162.723 214.097 162.616 213.764 162.616 213.337V205.997C162.616 205.557 162.723 205.224 162.936 204.997C163.15 204.757 163.456 204.637 163.856 204.637C164.256 204.637 164.563 204.757 164.776 204.997C165.003 205.224 165.116 205.557 165.116 205.997V213.337C165.116 213.764 165.01 214.097 164.796 214.337C164.583 214.577 164.27 214.697 163.856 214.697ZM163.856 202.777C163.39 202.777 163.023 202.664 162.756 202.437C162.503 202.197 162.376 201.87 162.376 201.457C162.376 201.03 162.503 200.704 162.756 200.477C163.023 200.25 163.39 200.137 163.856 200.137C164.336 200.137 164.703 200.25 164.956 200.477C165.21 200.704 165.336 201.03 165.336 201.457C165.336 201.87 165.21 202.197 164.956 202.437C164.703 202.664 164.336 202.777 163.856 202.777ZM168.954 214.717C168.554 214.717 168.247 214.61 168.034 214.397C167.821 214.17 167.714 213.85 167.714 213.437V205.877C167.714 205.464 167.821 205.15 168.034 204.937C168.247 204.724 168.547 204.617 168.934 204.617C169.321 204.617 169.621 204.724 169.834 204.937C170.047 205.15 170.154 205.464 170.154 205.877V207.237L169.934 206.737C170.227 206.03 170.681 205.497 171.294 205.137C171.921 204.764 172.627 204.577 173.414 204.577C174.201 204.577 174.847 204.724 175.354 205.017C175.861 205.31 176.241 205.757 176.494 206.357C176.747 206.944 176.874 207.69 176.874 208.597V213.437C176.874 213.85 176.767 214.17 176.554 214.397C176.341 214.61 176.034 214.717 175.634 214.717C175.234 214.717 174.921 214.61 174.694 214.397C174.481 214.17 174.374 213.85 174.374 213.437V208.717C174.374 207.957 174.227 207.404 173.934 207.057C173.654 206.71 173.214 206.537 172.614 206.537C171.881 206.537 171.294 206.77 170.854 207.237C170.427 207.69 170.214 208.297 170.214 209.057V213.437C170.214 214.29 169.794 214.717 168.954 214.717ZM180.653 214.697C180.253 214.697 179.947 214.577 179.733 214.337C179.52 214.097 179.413 213.764 179.413 213.337V205.997C179.413 205.557 179.52 205.224 179.733 204.997C179.947 204.757 180.253 204.637 180.653 204.637C181.053 204.637 181.36 204.757 181.573 204.997C181.8 205.224 181.913 205.557 181.913 205.997V213.337C181.913 213.764 181.807 214.097 181.593 214.337C181.38 214.577 181.067 214.697 180.653 214.697ZM180.653 202.777C180.187 202.777 179.82 202.664 179.553 202.437C179.3 202.197 179.173 201.87 179.173 201.457C179.173 201.03 179.3 200.704 179.553 200.477C179.82 200.25 180.187 200.137 180.653 200.137C181.133 200.137 181.5 200.25 181.753 200.477C182.007 200.704 182.133 201.03 182.133 201.457C182.133 201.87 182.007 202.197 181.753 202.437C181.5 202.664 181.133 202.777 180.653 202.777ZM185.751 214.717C185.351 214.717 185.044 214.61 184.831 214.397C184.618 214.17 184.511 213.85 184.511 213.437V205.877C184.511 205.464 184.618 205.15 184.831 204.937C185.044 204.724 185.344 204.617 185.731 204.617C186.118 204.617 186.418 204.724 186.631 204.937C186.844 205.15 186.951 205.464 186.951 205.877V207.237L186.731 206.737C187.024 206.03 187.478 205.497 188.091 205.137C188.718 204.764 189.424 204.577 190.211 204.577C190.998 204.577 191.644 204.724 192.151 205.017C192.658 205.31 193.038 205.757 193.291 206.357C193.544 206.944 193.671 207.69 193.671 208.597V213.437C193.671 213.85 193.564 214.17 193.351 214.397C193.138 214.61 192.831 214.717 192.431 214.717C192.031 214.717 191.718 214.61 191.491 214.397C191.278 214.17 191.171 213.85 191.171 213.437V208.717C191.171 207.957 191.024 207.404 190.731 207.057C190.451 206.71 190.011 206.537 189.411 206.537C188.678 206.537 188.091 206.77 187.651 207.237C187.224 207.69 187.011 208.297 187.011 209.057V213.437C187.011 214.29 186.591 214.717 185.751 214.717ZM200.77 218.357C200.05 218.357 199.35 218.29 198.67 218.157C198.003 218.024 197.397 217.817 196.85 217.537C196.597 217.404 196.423 217.244 196.33 217.057C196.25 216.87 196.223 216.677 196.25 216.477C196.29 216.29 196.37 216.124 196.49 215.977C196.623 215.83 196.783 215.73 196.97 215.677C197.157 215.624 197.35 215.65 197.55 215.757C198.137 216.05 198.69 216.237 199.21 216.317C199.743 216.41 200.197 216.457 200.57 216.457C201.463 216.457 202.13 216.237 202.57 215.797C203.023 215.37 203.25 214.73 203.25 213.877V212.077H203.43C203.23 212.757 202.81 213.304 202.17 213.717C201.543 214.117 200.83 214.317 200.03 214.317C199.15 214.317 198.383 214.117 197.73 213.717C197.077 213.304 196.57 212.73 196.21 211.997C195.85 211.264 195.67 210.41 195.67 209.437C195.67 208.704 195.77 208.044 195.97 207.457C196.183 206.857 196.477 206.344 196.85 205.917C197.237 205.49 197.697 205.164 198.23 204.937C198.777 204.697 199.377 204.577 200.03 204.577C200.857 204.577 201.577 204.784 202.19 205.197C202.817 205.597 203.223 206.13 203.41 206.797L203.21 207.297V205.877C203.21 205.464 203.317 205.15 203.53 204.937C203.757 204.724 204.063 204.617 204.45 204.617C204.85 204.617 205.157 204.724 205.37 204.937C205.583 205.15 205.69 205.464 205.69 205.877V213.577C205.69 215.164 205.27 216.357 204.43 217.157C203.59 217.957 202.37 218.357 200.77 218.357ZM200.71 212.417C201.23 212.417 201.677 212.297 202.05 212.057C202.423 211.817 202.71 211.477 202.91 211.037C203.123 210.584 203.23 210.05 203.23 209.437C203.23 208.517 203.003 207.797 202.55 207.277C202.097 206.744 201.483 206.477 200.71 206.477C200.19 206.477 199.743 206.597 199.37 206.837C198.997 207.077 198.703 207.417 198.49 207.857C198.29 208.297 198.19 208.824 198.19 209.437C198.19 210.357 198.417 211.084 198.87 211.617C199.323 212.15 199.937 212.417 200.71 212.417ZM218.81 214.757C218.223 214.757 217.637 214.71 217.05 214.617C216.463 214.537 215.91 214.41 215.39 214.237C214.87 214.05 214.403 213.824 213.99 213.557C213.75 213.397 213.583 213.204 213.49 212.977C213.397 212.75 213.363 212.53 213.39 212.317C213.43 212.09 213.517 211.897 213.65 211.737C213.797 211.564 213.977 211.457 214.19 211.417C214.403 211.377 214.637 211.437 214.89 211.597C215.477 211.944 216.097 212.197 216.75 212.357C217.403 212.517 218.09 212.597 218.81 212.597C219.863 212.597 220.63 212.424 221.11 212.077C221.59 211.717 221.83 211.257 221.83 210.697C221.83 210.23 221.657 209.864 221.31 209.597C220.977 209.33 220.397 209.11 219.57 208.937L217.37 208.477C216.103 208.21 215.157 207.764 214.53 207.137C213.917 206.497 213.61 205.657 213.61 204.617C213.61 203.964 213.743 203.37 214.01 202.837C214.277 202.304 214.65 201.844 215.13 201.457C215.623 201.07 216.203 200.777 216.87 200.577C217.55 200.364 218.297 200.257 219.11 200.257C219.91 200.257 220.67 200.357 221.39 200.557C222.11 200.757 222.757 201.05 223.33 201.437C223.543 201.584 223.683 201.764 223.75 201.977C223.83 202.19 223.85 202.404 223.81 202.617C223.77 202.817 223.677 202.99 223.53 203.137C223.383 203.284 223.197 203.37 222.97 203.397C222.757 203.424 222.51 203.357 222.23 203.197C221.737 202.917 221.237 202.717 220.73 202.597C220.223 202.477 219.677 202.417 219.09 202.417C218.477 202.417 217.95 202.504 217.51 202.677C217.07 202.85 216.73 203.097 216.49 203.417C216.263 203.724 216.15 204.09 216.15 204.517C216.15 204.997 216.31 205.384 216.63 205.677C216.95 205.957 217.497 206.177 218.27 206.337L220.45 206.797C221.77 207.077 222.75 207.517 223.39 208.117C224.043 208.717 224.37 209.517 224.37 210.517C224.37 211.157 224.237 211.737 223.97 212.257C223.717 212.777 223.343 213.224 222.85 213.597C222.37 213.97 221.79 214.257 221.11 214.457C220.43 214.657 219.663 214.757 218.81 214.757ZM230.71 214.757C229.843 214.757 229.116 214.61 228.53 214.317C227.956 214.024 227.53 213.597 227.25 213.037C226.97 212.464 226.83 211.757 226.83 210.917V206.657H225.79C225.47 206.657 225.223 206.577 225.05 206.417C224.876 206.244 224.79 206.01 224.79 205.717C224.79 205.41 224.876 205.177 225.05 205.017C225.223 204.857 225.47 204.777 225.79 204.777H226.83V202.957C226.83 202.544 226.936 202.23 227.15 202.017C227.376 201.804 227.69 201.697 228.09 201.697C228.49 201.697 228.796 201.804 229.01 202.017C229.223 202.23 229.33 202.544 229.33 202.957V204.777H231.45C231.77 204.777 232.016 204.857 232.19 205.017C232.363 205.177 232.45 205.41 232.45 205.717C232.45 206.01 232.363 206.244 232.19 206.417C232.016 206.577 231.77 206.657 231.45 206.657H229.33V210.777C229.33 211.417 229.47 211.897 229.75 212.217C230.03 212.537 230.483 212.697 231.11 212.697C231.336 212.697 231.536 212.677 231.71 212.637C231.883 212.597 232.036 212.57 232.17 212.557C232.33 212.544 232.463 212.597 232.57 212.717C232.676 212.824 232.73 213.05 232.73 213.397C232.73 213.664 232.683 213.904 232.59 214.117C232.51 214.317 232.356 214.457 232.13 214.537C231.956 214.59 231.73 214.637 231.45 214.677C231.17 214.73 230.923 214.757 230.71 214.757ZM237.125 214.757C236.419 214.757 235.785 214.624 235.225 214.357C234.679 214.077 234.245 213.704 233.925 213.237C233.619 212.77 233.465 212.244 233.465 211.657C233.465 210.937 233.652 210.37 234.025 209.957C234.399 209.53 235.005 209.224 235.845 209.037C236.685 208.85 237.812 208.757 239.225 208.757H240.225V210.197H239.245C238.419 210.197 237.759 210.237 237.265 210.317C236.772 210.397 236.419 210.537 236.205 210.737C236.005 210.924 235.905 211.19 235.905 211.537C235.905 211.977 236.059 212.337 236.365 212.617C236.672 212.897 237.099 213.037 237.645 213.037C238.085 213.037 238.472 212.937 238.805 212.737C239.152 212.524 239.425 212.237 239.625 211.877C239.825 211.517 239.925 211.104 239.925 210.637V208.337C239.925 207.67 239.779 207.19 239.485 206.897C239.192 206.604 238.699 206.457 238.005 206.457C237.619 206.457 237.199 206.504 236.745 206.597C236.305 206.69 235.839 206.85 235.345 207.077C235.092 207.197 234.865 207.23 234.665 207.177C234.479 207.124 234.332 207.017 234.225 206.857C234.119 206.684 234.065 206.497 234.065 206.297C234.065 206.097 234.119 205.904 234.225 205.717C234.332 205.517 234.512 205.37 234.765 205.277C235.379 205.024 235.965 204.844 236.525 204.737C237.099 204.63 237.619 204.577 238.085 204.577C239.045 204.577 239.832 204.724 240.445 205.017C241.072 205.31 241.539 205.757 241.845 206.357C242.152 206.944 242.305 207.704 242.305 208.637V213.437C242.305 213.85 242.205 214.17 242.005 214.397C241.805 214.61 241.519 214.717 241.145 214.717C240.772 214.717 240.479 214.61 240.265 214.397C240.065 214.17 239.965 213.85 239.965 213.437V212.477H240.125C240.032 212.944 239.845 213.35 239.565 213.697C239.299 214.03 238.959 214.29 238.545 214.477C238.132 214.664 237.659 214.757 237.125 214.757ZM246.123 214.717C245.71 214.717 245.39 214.61 245.163 214.397C244.95 214.17 244.843 213.85 244.843 213.437V205.877C244.843 205.464 244.95 205.15 245.163 204.937C245.376 204.724 245.676 204.617 246.063 204.617C246.45 204.617 246.75 204.724 246.963 204.937C247.176 205.15 247.283 205.464 247.283 205.877V207.137H247.083C247.27 206.337 247.636 205.73 248.183 205.317C248.73 204.904 249.456 204.657 250.363 204.577C250.643 204.55 250.863 204.624 251.023 204.797C251.196 204.957 251.296 205.21 251.323 205.557C251.35 205.89 251.27 206.164 251.083 206.377C250.91 206.577 250.643 206.697 250.283 206.737L249.843 206.777C249.03 206.857 248.416 207.11 248.003 207.537C247.59 207.95 247.383 208.537 247.383 209.297V213.437C247.383 213.85 247.276 214.17 247.063 214.397C246.85 214.61 246.536 214.717 246.123 214.717ZM258.485 214.717C258.165 214.717 257.905 214.644 257.705 214.497C257.518 214.35 257.405 214.157 257.365 213.917C257.325 213.664 257.371 213.384 257.505 213.077L262.785 201.377C262.958 200.99 263.165 200.717 263.405 200.557C263.658 200.384 263.945 200.297 264.265 200.297C264.571 200.297 264.845 200.384 265.085 200.557C265.338 200.717 265.551 200.99 265.725 201.377L271.025 213.077C271.171 213.384 271.225 213.664 271.185 213.917C271.145 214.17 271.031 214.37 270.845 214.517C270.658 214.65 270.411 214.717 270.105 214.717C269.731 214.717 269.438 214.63 269.225 214.457C269.025 214.27 268.845 213.99 268.685 213.617L267.385 210.597L268.465 211.297H260.025L261.105 210.597L259.825 213.617C259.651 214.004 259.471 214.284 259.285 214.457C259.098 214.63 258.831 214.717 258.485 214.717ZM264.225 203.237L261.425 209.897L260.905 209.257H267.585L267.085 209.897L264.265 203.237H264.225ZM276.528 214.757C275.714 214.757 275.041 214.61 274.508 214.317C273.974 214.01 273.574 213.557 273.308 212.957C273.054 212.357 272.928 211.61 272.928 210.717V205.877C272.928 205.45 273.034 205.137 273.248 204.937C273.461 204.724 273.768 204.617 274.168 204.617C274.568 204.617 274.874 204.724 275.088 204.937C275.314 205.137 275.428 205.45 275.428 205.877V210.757C275.428 211.45 275.568 211.964 275.848 212.297C276.128 212.63 276.574 212.797 277.188 212.797C277.854 212.797 278.401 212.57 278.828 212.117C279.254 211.65 279.468 211.037 279.468 210.277V205.877C279.468 205.45 279.574 205.137 279.788 204.937C280.001 204.724 280.308 204.617 280.708 204.617C281.108 204.617 281.414 204.724 281.628 204.937C281.854 205.137 281.967 205.45 281.967 205.877V213.437C281.967 214.29 281.561 214.717 280.748 214.717C280.361 214.717 280.061 214.61 279.848 214.397C279.634 214.17 279.528 213.85 279.528 213.437V211.917L279.808 212.517C279.528 213.237 279.101 213.79 278.528 214.177C277.968 214.564 277.301 214.757 276.528 214.757ZM289.05 214.757C288.183 214.757 287.456 214.61 286.87 214.317C286.296 214.024 285.87 213.597 285.59 213.037C285.31 212.464 285.17 211.757 285.17 210.917V206.657H284.13C283.81 206.657 283.563 206.577 283.39 206.417C283.216 206.244 283.13 206.01 283.13 205.717C283.13 205.41 283.216 205.177 283.39 205.017C283.563 204.857 283.81 204.777 284.13 204.777H285.17V202.957C285.17 202.544 285.276 202.23 285.49 202.017C285.716 201.804 286.03 201.697 286.43 201.697C286.83 201.697 287.136 201.804 287.35 202.017C287.563 202.23 287.67 202.544 287.67 202.957V204.777H289.79C290.11 204.777 290.356 204.857 290.53 205.017C290.703 205.177 290.79 205.41 290.79 205.717C290.79 206.01 290.703 206.244 290.53 206.417C290.356 206.577 290.11 206.657 289.79 206.657H287.67V210.777C287.67 211.417 287.81 211.897 288.09 212.217C288.37 212.537 288.823 212.697 289.45 212.697C289.676 212.697 289.876 212.677 290.05 212.637C290.223 212.597 290.376 212.57 290.51 212.557C290.67 212.544 290.803 212.597 290.91 212.717C291.016 212.824 291.07 213.05 291.07 213.397C291.07 213.664 291.023 213.904 290.93 214.117C290.85 214.317 290.696 214.457 290.47 214.537C290.296 214.59 290.07 214.637 289.79 214.677C289.51 214.73 289.263 214.757 289.05 214.757ZM293.739 214.717C293.339 214.717 293.033 214.61 292.819 214.397C292.606 214.17 292.499 213.85 292.499 213.437V201.557C292.499 201.144 292.606 200.83 292.819 200.617C293.033 200.404 293.339 200.297 293.739 200.297C294.139 200.297 294.446 200.404 294.659 200.617C294.886 200.83 294.999 201.144 294.999 201.557V206.737H294.719C295.013 206.03 295.466 205.497 296.079 205.137C296.706 204.764 297.413 204.577 298.199 204.577C298.986 204.577 299.633 204.724 300.139 205.017C300.646 205.31 301.026 205.757 301.279 206.357C301.533 206.944 301.659 207.69 301.659 208.597V213.437C301.659 213.85 301.553 214.17 301.339 214.397C301.126 214.61 300.819 214.717 300.419 214.717C300.019 214.717 299.706 214.61 299.479 214.397C299.266 214.17 299.159 213.85 299.159 213.437V208.717C299.159 207.957 299.013 207.404 298.719 207.057C298.439 206.71 297.999 206.537 297.399 206.537C296.666 206.537 296.079 206.77 295.639 207.237C295.213 207.69 294.999 208.297 294.999 209.057V213.437C294.999 214.29 294.579 214.717 293.739 214.717ZM308.658 214.757C307.645 214.757 306.765 214.55 306.018 214.137C305.272 213.724 304.692 213.137 304.278 212.377C303.865 211.604 303.658 210.697 303.658 209.657C303.658 208.87 303.772 208.17 303.998 207.557C304.238 206.93 304.578 206.397 305.018 205.957C305.458 205.504 305.985 205.164 306.598 204.937C307.212 204.697 307.898 204.577 308.658 204.577C309.672 204.577 310.552 204.784 311.298 205.197C312.045 205.61 312.625 206.197 313.038 206.957C313.452 207.717 313.658 208.617 313.658 209.657C313.658 210.444 313.538 211.15 313.298 211.777C313.072 212.404 312.738 212.944 312.298 213.397C311.858 213.837 311.332 214.177 310.718 214.417C310.105 214.644 309.418 214.757 308.658 214.757ZM308.658 212.857C309.152 212.857 309.585 212.737 309.958 212.497C310.332 212.257 310.618 211.904 310.818 211.437C311.032 210.957 311.138 210.364 311.138 209.657C311.138 208.59 310.912 207.797 310.458 207.277C310.005 206.744 309.405 206.477 308.658 206.477C308.165 206.477 307.732 206.597 307.358 206.837C306.985 207.064 306.692 207.417 306.478 207.897C306.278 208.364 306.178 208.95 306.178 209.657C306.178 210.71 306.405 211.51 306.858 212.057C307.312 212.59 307.912 212.857 308.658 212.857ZM317.002 214.717C316.589 214.717 316.269 214.61 316.042 214.397C315.829 214.17 315.722 213.85 315.722 213.437V205.877C315.722 205.464 315.829 205.15 316.042 204.937C316.255 204.724 316.555 204.617 316.942 204.617C317.329 204.617 317.629 204.724 317.842 204.937C318.055 205.15 318.162 205.464 318.162 205.877V207.137H317.962C318.149 206.337 318.515 205.73 319.062 205.317C319.609 204.904 320.335 204.657 321.242 204.577C321.522 204.55 321.742 204.624 321.902 204.797C322.075 204.957 322.175 205.21 322.202 205.557C322.229 205.89 322.149 206.164 321.962 206.377C321.789 206.577 321.522 206.697 321.162 206.737L320.722 206.777C319.909 206.857 319.295 207.11 318.882 207.537C318.469 207.95 318.262 208.537 318.262 209.297V213.437C318.262 213.85 318.155 214.17 317.942 214.397C317.729 214.61 317.415 214.717 317.002 214.717Z" fill="black"/>
<g clip-path="url(#clip0_0_3438)">
<path d="M291.516 121.454L283.834 118.263C282.609 117.754 281.713 116.675 281.438 115.377L279.712 107.24C279.019 103.973 274.88 102.919 272.708 105.456L267.299 111.776C266.437 112.783 265.134 113.302 263.815 113.163L262.33 113.006L258.688 114.619L260.291 132.98L279.847 140.675L282.481 139.665L282.774 135.992C282.88 134.67 283.629 133.485 284.778 132.822L291.983 128.666C294.877 126.997 294.601 122.735 291.516 121.454Z" fill="#FFBA57"/>
<path d="M256.455 112.387L262.33 113.006C260.626 114.706 259.85 117.128 260.257 119.504L262.159 130.589C262.241 131.071 262.592 131.462 263.06 131.601C272.647 134.453 279.346 137.879 282.481 139.665L282.13 144.075L269.92 146.081L258.225 134.891L248.443 124.059L256.455 112.387Z" fill="#FFAC3E"/>
<path d="M169.484 121.454L177.166 118.263C178.391 117.754 179.287 116.675 179.562 115.377L181.288 107.24C181.981 103.973 186.12 102.919 188.292 105.456L193.701 111.776C194.563 112.783 195.866 113.302 197.185 113.163L198.67 113.006L202.312 114.619L200.709 132.98L181.153 140.675L178.519 139.665L178.226 135.992C178.12 134.67 177.371 133.485 176.222 132.822L169.017 128.666C166.123 126.997 166.399 122.735 169.484 121.454Z" fill="#FFBA57"/>
<path d="M204.545 112.387L198.67 113.006C200.374 114.706 201.15 117.128 200.743 119.504L198.841 130.589C198.759 131.071 198.408 131.462 197.94 131.601C188.353 134.453 181.654 137.879 178.519 139.665L178.87 144.075L191.08 146.081L202.775 134.891L212.557 124.059L204.545 112.387Z" fill="#FFAC3E"/>
<path d="M203.221 110.642C204.967 112.344 205.764 114.796 205.351 117.199L203.122 130.196L207.24 132.659H253.76L257.878 130.196L255.648 117.199C255.236 114.796 256.033 112.344 257.779 110.642L268.73 99.9666C273.128 95.6803 270.701 88.2126 264.625 87.3296L249.49 85.1304C247.077 84.7796 244.991 83.2641 243.912 81.0775L237.143 67.3633C234.426 61.8569 226.574 61.8569 223.856 67.3633L217.088 81.0775C216.008 83.2641 213.923 84.7796 211.509 85.1304L196.375 87.3296C190.298 88.2126 187.872 95.6803 192.269 99.9666L203.221 110.642Z" fill="#FFE27A"/>
<path d="M203.122 130.196L202.766 132.273C202.61 133.185 202.624 134.065 202.775 134.891H258.225C258.376 134.065 258.391 133.185 258.234 132.273L257.878 130.196C250.148 128.3 240.934 126.916 230.5 126.916C220.066 126.916 210.852 128.3 203.122 130.196Z" fill="#F9CF58"/>
<path d="M279.747 156.381L266.314 158.149L267.719 161.374L264.759 162.944L262.844 168.85C262.636 169.49 262.961 170.183 263.586 170.432C272.911 174.159 279.337 178.398 282.381 180.631C283.223 181.248 284.408 180.652 284.417 179.609L284.492 171.323C284.496 170.854 284.757 170.425 285.172 170.204L292.273 166.434C293.099 165.996 293.193 164.85 292.448 164.285C290.31 162.663 286 159.636 279.747 156.381Z" fill="#C61926"/>
<path d="M273.475 167.18C271.931 166.275 268.965 164.666 264.759 162.945L266.314 158.15C273.001 160.841 276.696 163.312 276.716 163.325L275.293 166.586C274.986 167.288 274.137 167.567 273.475 167.18Z" fill="#B2182B"/>
<path d="M181.253 156.381C181.253 156.381 194.686 158.149 194.686 158.149L193.281 161.374L196.241 162.944L198.156 168.85C198.364 169.49 198.039 170.183 197.414 170.432C188.089 174.159 181.663 178.398 178.619 180.631C177.777 181.248 176.592 180.652 176.583 179.609L176.508 171.323C176.504 170.854 176.243 170.425 175.828 170.204L168.727 166.434C167.901 165.996 167.807 164.85 168.552 164.285C170.69 162.663 175 159.636 181.253 156.381Z" fill="#C61926"/>
<path d="M187.525 167.18C189.069 166.275 192.035 164.666 196.241 162.945L194.686 158.15C187.999 160.841 184.304 163.312 184.284 163.325L185.707 166.586C186.014 167.288 186.863 167.567 187.525 167.18Z" fill="#B2182B"/>
<path d="M274.232 158.959C274.232 158.959 258.878 149.14 230.5 149.14C202.122 149.14 186.673 159.426 186.673 159.426L182.138 158.41L176.943 146.503C176.686 145.915 176.904 145.227 177.453 144.896C181.881 142.231 201.471 131.525 230.5 131.525C259.529 131.525 279.119 142.231 283.546 144.896C284.096 145.227 284.314 145.915 284.057 146.503L278.861 158.41L274.232 158.959Z" fill="#FF4755"/>
<path d="M230.5 146.084C203.293 146.084 185.253 156.481 182.139 158.41L184.283 163.326C184.283 163.326 202.122 151.372 230.5 151.372C258.878 151.372 276.717 163.326 276.717 163.326L278.861 158.41C275.747 156.481 257.707 146.084 230.5 146.084Z" fill="#FC2B3A"/>
</g>
<defs>
<filter id="filter0_d_0_3438" x="0" y="0.557129" width="460" height="370" filterUnits="userSpaceOnUse" color-interpolation-filters="sRGB">
<feFlood flood-opacity="0" result="BackgroundImageFix"/>
<feColorMatrix in="SourceAlpha" type="matrix" values="0 0 0 0 0 0 0 0 0 0 0 0 0 0 0 0 0 0 127 0" result="hardAlpha"/>
<feOffset dy="45"/>
<feGaussianBlur stdDeviation="40"/>
<feColorMatrix type="matrix" values="0 0 0 0 0 0 0 0 0 0 0 0 0 0 0 0 0 0 0.04 0"/>
<feBlend mode="normal" in2="BackgroundImageFix" result="effect1_dropShadow_0_3438"/>
<feBlend mode="normal" in="SourceGraphic" in2="effect1_dropShadow_0_3438" result="shape"/>
</filter>
<clipPath id="clip0_0_3438">
<rect width="127" height="127" fill="white" transform="translate(167 58.5571)"/>
</clipPath>
</defs>
</svg>
