<svg width="460" height="371" viewBox="0 0 460 371" fill="none" xmlns="http://www.w3.org/2000/svg">
<g filter="url(#filter0_d_0_3419)">
<rect x="80" y="35.5571" width="300" height="210" rx="12" fill="white"/>
<rect x="80.5" y="36.0571" width="299" height="209" rx="11.5" stroke="#F3F3F3"/>
</g>
<path d="M100.82 214.717C100.407 214.717 100.087 214.604 99.86 214.377C99.6467 214.137 99.54 213.81 99.54 213.397V201.757C99.54 201.33 99.6533 201.01 99.88 200.797C100.107 200.57 100.427 200.457 100.84 200.457H105.66C107.207 200.457 108.4 200.844 109.24 201.617C110.08 202.39 110.5 203.47 110.5 204.857C110.5 206.244 110.08 207.33 109.24 208.117C108.4 208.89 107.207 209.277 105.66 209.277H102.1V213.397C102.1 213.81 101.993 214.137 101.78 214.377C101.567 214.604 101.247 214.717 100.82 214.717ZM102.1 207.257H105.26C106.167 207.257 106.853 207.057 107.32 206.657C107.787 206.244 108.02 205.644 108.02 204.857C108.02 204.07 107.787 203.477 107.32 203.077C106.853 202.677 106.167 202.477 105.26 202.477H102.1V207.257ZM115.731 214.757C114.917 214.757 114.244 214.61 113.711 214.317C113.177 214.01 112.777 213.557 112.511 212.957C112.257 212.357 112.131 211.61 112.131 210.717V205.877C112.131 205.45 112.237 205.137 112.451 204.937C112.664 204.724 112.971 204.617 113.371 204.617C113.771 204.617 114.077 204.724 114.291 204.937C114.517 205.137 114.631 205.45 114.631 205.877V210.757C114.631 211.45 114.771 211.964 115.051 212.297C115.331 212.63 115.777 212.797 116.391 212.797C117.057 212.797 117.604 212.57 118.031 212.117C118.457 211.65 118.671 211.037 118.671 210.277V205.877C118.671 205.45 118.777 205.137 118.991 204.937C119.204 204.724 119.511 204.617 119.911 204.617C120.311 204.617 120.617 204.724 120.831 204.937C121.057 205.137 121.171 205.45 121.171 205.877V213.437C121.171 214.29 120.764 214.717 119.951 214.717C119.564 214.717 119.264 214.61 119.051 214.397C118.837 214.17 118.731 213.85 118.731 213.437V211.917L119.011 212.517C118.731 213.237 118.304 213.79 117.731 214.177C117.171 214.564 116.504 214.757 115.731 214.757ZM129.413 214.757C128.586 214.757 127.859 214.55 127.233 214.137C126.619 213.724 126.213 213.17 126.013 212.477L126.233 211.977V213.437C126.233 213.85 126.126 214.17 125.913 214.397C125.699 214.61 125.399 214.717 125.013 214.717C124.613 214.717 124.306 214.61 124.093 214.397C123.879 214.17 123.773 213.85 123.773 213.437V201.557C123.773 201.144 123.879 200.83 124.093 200.617C124.306 200.404 124.613 200.297 125.013 200.297C125.413 200.297 125.719 200.404 125.933 200.617C126.159 200.83 126.273 201.144 126.273 201.557V206.757H126.033C126.246 206.104 126.659 205.577 127.273 205.177C127.886 204.777 128.599 204.577 129.413 204.577C130.279 204.577 131.033 204.784 131.673 205.197C132.313 205.61 132.813 206.197 133.173 206.957C133.533 207.704 133.713 208.604 133.713 209.657C133.713 210.697 133.533 211.604 133.173 212.377C132.813 213.137 132.306 213.724 131.653 214.137C131.013 214.55 130.266 214.757 129.413 214.757ZM128.713 212.857C129.206 212.857 129.639 212.737 130.013 212.497C130.386 212.257 130.673 211.904 130.873 211.437C131.086 210.957 131.193 210.364 131.193 209.657C131.193 208.59 130.966 207.797 130.513 207.277C130.059 206.744 129.459 206.477 128.713 206.477C128.219 206.477 127.786 206.597 127.413 206.837C127.039 207.064 126.746 207.417 126.533 207.897C126.333 208.364 126.233 208.95 126.233 209.657C126.233 210.71 126.459 211.51 126.913 212.057C127.366 212.59 127.966 212.857 128.713 212.857ZM139.105 214.757C137.998 214.757 137.165 214.444 136.605 213.817C136.045 213.177 135.765 212.244 135.765 211.017V201.557C135.765 201.144 135.872 200.83 136.085 200.617C136.298 200.404 136.605 200.297 137.005 200.297C137.405 200.297 137.712 200.404 137.925 200.617C138.152 200.83 138.265 201.144 138.265 201.557V210.897C138.265 211.51 138.392 211.964 138.645 212.257C138.912 212.55 139.285 212.697 139.765 212.697C139.872 212.697 139.972 212.697 140.065 212.697C140.158 212.684 140.252 212.67 140.345 212.657C140.532 212.63 140.658 212.684 140.725 212.817C140.792 212.937 140.825 213.19 140.825 213.577C140.825 213.91 140.758 214.17 140.625 214.357C140.492 214.544 140.272 214.657 139.965 214.697C139.832 214.71 139.692 214.724 139.545 214.737C139.398 214.75 139.252 214.757 139.105 214.757ZM143.392 214.697C142.992 214.697 142.685 214.577 142.472 214.337C142.258 214.097 142.152 213.764 142.152 213.337V205.997C142.152 205.557 142.258 205.224 142.472 204.997C142.685 204.757 142.992 204.637 143.392 204.637C143.792 204.637 144.098 204.757 144.312 204.997C144.538 205.224 144.652 205.557 144.652 205.997V213.337C144.652 213.764 144.545 214.097 144.332 214.337C144.118 214.577 143.805 214.697 143.392 214.697ZM143.392 202.777C142.925 202.777 142.558 202.664 142.292 202.437C142.038 202.197 141.912 201.87 141.912 201.457C141.912 201.03 142.038 200.704 142.292 200.477C142.558 200.25 142.925 200.137 143.392 200.137C143.872 200.137 144.238 200.25 144.492 200.477C144.745 200.704 144.872 201.03 144.872 201.457C144.872 201.87 144.745 202.197 144.492 202.437C144.238 202.664 143.872 202.777 143.392 202.777ZM150.829 214.757C150.256 214.757 149.649 214.697 149.009 214.577C148.369 214.457 147.796 214.25 147.289 213.957C147.076 213.824 146.923 213.67 146.829 213.497C146.749 213.31 146.716 213.13 146.729 212.957C146.756 212.77 146.823 212.61 146.929 212.477C147.049 212.344 147.196 212.257 147.369 212.217C147.556 212.177 147.756 212.21 147.969 212.317C148.503 212.57 149.003 212.75 149.469 212.857C149.936 212.95 150.396 212.997 150.849 212.997C151.489 212.997 151.963 212.89 152.269 212.677C152.589 212.45 152.749 212.157 152.749 211.797C152.749 211.49 152.643 211.257 152.429 211.097C152.229 210.924 151.923 210.797 151.509 210.717L149.509 210.337C148.683 210.177 148.049 209.877 147.609 209.437C147.183 208.984 146.969 208.404 146.969 207.697C146.969 207.057 147.143 206.504 147.489 206.037C147.849 205.57 148.343 205.21 148.969 204.957C149.596 204.704 150.316 204.577 151.129 204.577C151.716 204.577 152.263 204.644 152.769 204.777C153.289 204.897 153.789 205.09 154.269 205.357C154.469 205.464 154.603 205.604 154.669 205.777C154.749 205.95 154.769 206.13 154.729 206.317C154.689 206.49 154.609 206.65 154.489 206.797C154.369 206.93 154.216 207.017 154.029 207.057C153.856 207.084 153.656 207.044 153.429 206.937C153.016 206.724 152.616 206.57 152.229 206.477C151.856 206.384 151.496 206.337 151.149 206.337C150.496 206.337 150.009 206.45 149.689 206.677C149.383 206.904 149.229 207.204 149.229 207.577C149.229 207.857 149.323 208.09 149.509 208.277C149.696 208.464 149.983 208.59 150.369 208.657L152.369 209.037C153.236 209.197 153.889 209.49 154.329 209.917C154.783 210.344 155.009 210.917 155.009 211.637C155.009 212.61 154.629 213.377 153.869 213.937C153.109 214.484 152.096 214.757 150.829 214.757ZM158.255 214.717C157.855 214.717 157.548 214.61 157.335 214.397C157.122 214.17 157.015 213.85 157.015 213.437V201.557C157.015 201.144 157.122 200.83 157.335 200.617C157.548 200.404 157.855 200.297 158.255 200.297C158.655 200.297 158.962 200.404 159.175 200.617C159.402 200.83 159.515 201.144 159.515 201.557V206.737H159.235C159.528 206.03 159.982 205.497 160.595 205.137C161.222 204.764 161.928 204.577 162.715 204.577C163.502 204.577 164.148 204.724 164.655 205.017C165.162 205.31 165.542 205.757 165.795 206.357C166.048 206.944 166.175 207.69 166.175 208.597V213.437C166.175 213.85 166.068 214.17 165.855 214.397C165.642 214.61 165.335 214.717 164.935 214.717C164.535 214.717 164.222 214.61 163.995 214.397C163.782 214.17 163.675 213.85 163.675 213.437V208.717C163.675 207.957 163.528 207.404 163.235 207.057C162.955 206.71 162.515 206.537 161.915 206.537C161.182 206.537 160.595 206.77 160.155 207.237C159.728 207.69 159.515 208.297 159.515 209.057V213.437C159.515 214.29 159.095 214.717 158.255 214.717ZM173.534 214.757C172.427 214.757 171.474 214.55 170.674 214.137C169.874 213.724 169.254 213.137 168.814 212.377C168.387 211.617 168.174 210.717 168.174 209.677C168.174 208.664 168.381 207.777 168.794 207.017C169.221 206.257 169.801 205.664 170.534 205.237C171.281 204.797 172.127 204.577 173.074 204.577C173.767 204.577 174.387 204.69 174.934 204.917C175.494 205.144 175.967 205.47 176.354 205.897C176.754 206.324 177.054 206.844 177.254 207.457C177.467 208.057 177.574 208.737 177.574 209.497C177.574 209.737 177.487 209.924 177.314 210.057C177.154 210.177 176.921 210.237 176.614 210.237H170.194V208.797H175.814L175.494 209.097C175.494 208.484 175.401 207.97 175.214 207.557C175.041 207.144 174.781 206.83 174.434 206.617C174.101 206.39 173.681 206.277 173.174 206.277C172.614 206.277 172.134 206.41 171.734 206.677C171.347 206.93 171.047 207.297 170.834 207.777C170.634 208.244 170.534 208.804 170.534 209.457V209.597C170.534 210.69 170.787 211.51 171.294 212.057C171.814 212.59 172.574 212.857 173.574 212.857C173.921 212.857 174.307 212.817 174.734 212.737C175.174 212.644 175.587 212.49 175.974 212.277C176.254 212.117 176.501 212.05 176.714 212.077C176.927 212.09 177.094 212.164 177.214 212.297C177.347 212.43 177.427 212.597 177.454 212.797C177.481 212.984 177.441 213.177 177.334 213.377C177.241 213.577 177.074 213.75 176.834 213.897C176.367 214.19 175.827 214.41 175.214 214.557C174.614 214.69 174.054 214.757 173.534 214.757ZM183.314 214.757C182.461 214.757 181.707 214.55 181.054 214.137C180.414 213.724 179.914 213.137 179.554 212.377C179.194 211.604 179.014 210.697 179.014 209.657C179.014 208.604 179.194 207.704 179.554 206.957C179.914 206.197 180.414 205.61 181.054 205.197C181.707 204.784 182.461 204.577 183.314 204.577C184.127 204.577 184.834 204.777 185.434 205.177C186.047 205.577 186.461 206.104 186.674 206.757H186.454V201.557C186.454 201.144 186.561 200.83 186.774 200.617C186.987 200.404 187.294 200.297 187.694 200.297C188.094 200.297 188.401 200.404 188.614 200.617C188.841 200.83 188.954 201.144 188.954 201.557V213.437C188.954 213.85 188.847 214.17 188.634 214.397C188.421 214.61 188.114 214.717 187.714 214.717C187.314 214.717 187.007 214.61 186.794 214.397C186.581 214.17 186.474 213.85 186.474 213.437V211.877L186.694 212.477C186.494 213.17 186.087 213.724 185.474 214.137C184.861 214.55 184.141 214.757 183.314 214.757ZM184.014 212.857C184.507 212.857 184.941 212.737 185.314 212.497C185.687 212.257 185.974 211.904 186.174 211.437C186.387 210.957 186.494 210.364 186.494 209.657C186.494 208.59 186.267 207.797 185.814 207.277C185.361 206.744 184.761 206.477 184.014 206.477C183.521 206.477 183.087 206.597 182.714 206.837C182.341 207.064 182.047 207.417 181.834 207.897C181.634 208.364 181.534 208.95 181.534 209.657C181.534 210.71 181.761 211.51 182.214 212.057C182.667 212.59 183.267 212.857 184.014 212.857ZM197.356 214.717C197.036 214.717 196.776 214.644 196.576 214.497C196.389 214.35 196.276 214.157 196.236 213.917C196.196 213.664 196.242 213.384 196.376 213.077L201.656 201.377C201.829 200.99 202.036 200.717 202.276 200.557C202.529 200.384 202.816 200.297 203.136 200.297C203.442 200.297 203.716 200.384 203.956 200.557C204.209 200.717 204.422 200.99 204.596 201.377L209.896 213.077C210.042 213.384 210.096 213.664 210.056 213.917C210.016 214.17 209.902 214.37 209.716 214.517C209.529 214.65 209.282 214.717 208.976 214.717C208.602 214.717 208.309 214.63 208.096 214.457C207.896 214.27 207.716 213.99 207.556 213.617L206.256 210.597L207.336 211.297H198.896L199.976 210.597L198.696 213.617C198.522 214.004 198.342 214.284 198.156 214.457C197.969 214.63 197.702 214.717 197.356 214.717ZM203.096 203.237L200.296 209.897L199.776 209.257H206.456L205.956 209.897L203.136 203.237H203.096ZM215.399 214.757C214.585 214.757 213.912 214.61 213.379 214.317C212.845 214.01 212.445 213.557 212.179 212.957C211.925 212.357 211.799 211.61 211.799 210.717V205.877C211.799 205.45 211.905 205.137 212.119 204.937C212.332 204.724 212.639 204.617 213.039 204.617C213.439 204.617 213.745 204.724 213.959 204.937C214.185 205.137 214.299 205.45 214.299 205.877V210.757C214.299 211.45 214.439 211.964 214.719 212.297C214.999 212.63 215.445 212.797 216.059 212.797C216.725 212.797 217.272 212.57 217.699 212.117C218.125 211.65 218.339 211.037 218.339 210.277V205.877C218.339 205.45 218.445 205.137 218.659 204.937C218.872 204.724 219.179 204.617 219.579 204.617C219.979 204.617 220.285 204.724 220.499 204.937C220.725 205.137 220.839 205.45 220.839 205.877V213.437C220.839 214.29 220.432 214.717 219.619 214.717C219.232 214.717 218.932 214.61 218.719 214.397C218.505 214.17 218.399 213.85 218.399 213.437V211.917L218.679 212.517C218.399 213.237 217.972 213.79 217.399 214.177C216.839 214.564 216.172 214.757 215.399 214.757ZM227.921 214.757C227.054 214.757 226.327 214.61 225.741 214.317C225.167 214.024 224.741 213.597 224.461 213.037C224.181 212.464 224.041 211.757 224.041 210.917V206.657H223.001C222.681 206.657 222.434 206.577 222.261 206.417C222.087 206.244 222.001 206.01 222.001 205.717C222.001 205.41 222.087 205.177 222.261 205.017C222.434 204.857 222.681 204.777 223.001 204.777H224.041V202.957C224.041 202.544 224.147 202.23 224.361 202.017C224.587 201.804 224.901 201.697 225.301 201.697C225.701 201.697 226.007 201.804 226.221 202.017C226.434 202.23 226.541 202.544 226.541 202.957V204.777H228.661C228.981 204.777 229.227 204.857 229.401 205.017C229.574 205.177 229.661 205.41 229.661 205.717C229.661 206.01 229.574 206.244 229.401 206.417C229.227 206.577 228.981 206.657 228.661 206.657H226.541V210.777C226.541 211.417 226.681 211.897 226.961 212.217C227.241 212.537 227.694 212.697 228.321 212.697C228.547 212.697 228.747 212.677 228.921 212.637C229.094 212.597 229.247 212.57 229.381 212.557C229.541 212.544 229.674 212.597 229.781 212.717C229.887 212.824 229.941 213.05 229.941 213.397C229.941 213.664 229.894 213.904 229.801 214.117C229.721 214.317 229.567 214.457 229.341 214.537C229.167 214.59 228.941 214.637 228.661 214.677C228.381 214.73 228.134 214.757 227.921 214.757ZM232.61 214.717C232.21 214.717 231.904 214.61 231.69 214.397C231.477 214.17 231.37 213.85 231.37 213.437V201.557C231.37 201.144 231.477 200.83 231.69 200.617C231.904 200.404 232.21 200.297 232.61 200.297C233.01 200.297 233.317 200.404 233.53 200.617C233.757 200.83 233.87 201.144 233.87 201.557V206.737H233.59C233.884 206.03 234.337 205.497 234.95 205.137C235.577 204.764 236.284 204.577 237.07 204.577C237.857 204.577 238.504 204.724 239.01 205.017C239.517 205.31 239.897 205.757 240.15 206.357C240.404 206.944 240.53 207.69 240.53 208.597V213.437C240.53 213.85 240.424 214.17 240.21 214.397C239.997 214.61 239.69 214.717 239.29 214.717C238.89 214.717 238.577 214.61 238.35 214.397C238.137 214.17 238.03 213.85 238.03 213.437V208.717C238.03 207.957 237.884 207.404 237.59 207.057C237.31 206.71 236.87 206.537 236.27 206.537C235.537 206.537 234.95 206.77 234.51 207.237C234.084 207.69 233.87 208.297 233.87 209.057V213.437C233.87 214.29 233.45 214.717 232.61 214.717ZM247.53 214.757C246.516 214.757 245.636 214.55 244.89 214.137C244.143 213.724 243.563 213.137 243.15 212.377C242.736 211.604 242.53 210.697 242.53 209.657C242.53 208.87 242.643 208.17 242.87 207.557C243.11 206.93 243.45 206.397 243.89 205.957C244.33 205.504 244.856 205.164 245.47 204.937C246.083 204.697 246.77 204.577 247.53 204.577C248.543 204.577 249.423 204.784 250.17 205.197C250.916 205.61 251.496 206.197 251.91 206.957C252.323 207.717 252.53 208.617 252.53 209.657C252.53 210.444 252.41 211.15 252.17 211.777C251.943 212.404 251.61 212.944 251.17 213.397C250.73 213.837 250.203 214.177 249.59 214.417C248.976 214.644 248.29 214.757 247.53 214.757ZM247.53 212.857C248.023 212.857 248.456 212.737 248.83 212.497C249.203 212.257 249.49 211.904 249.69 211.437C249.903 210.957 250.01 210.364 250.01 209.657C250.01 208.59 249.783 207.797 249.33 207.277C248.876 206.744 248.276 206.477 247.53 206.477C247.036 206.477 246.603 206.597 246.23 206.837C245.856 207.064 245.563 207.417 245.35 207.897C245.15 208.364 245.05 208.95 245.05 209.657C245.05 210.71 245.276 211.51 245.73 212.057C246.183 212.59 246.783 212.857 247.53 212.857ZM255.873 214.717C255.46 214.717 255.14 214.61 254.913 214.397C254.7 214.17 254.593 213.85 254.593 213.437V205.877C254.593 205.464 254.7 205.15 254.913 204.937C255.126 204.724 255.426 204.617 255.813 204.617C256.2 204.617 256.5 204.724 256.713 204.937C256.926 205.15 257.033 205.464 257.033 205.877V207.137H256.833C257.02 206.337 257.386 205.73 257.933 205.317C258.48 204.904 259.206 204.657 260.113 204.577C260.393 204.55 260.613 204.624 260.773 204.797C260.946 204.957 261.046 205.21 261.073 205.557C261.1 205.89 261.02 206.164 260.833 206.377C260.66 206.577 260.393 206.697 260.033 206.737L259.593 206.777C258.78 206.857 258.166 207.11 257.753 207.537C257.34 207.95 257.133 208.537 257.133 209.297V213.437C257.133 213.85 257.026 214.17 256.813 214.397C256.6 214.61 256.286 214.717 255.873 214.717ZM274.655 214.757C273.188 214.757 271.928 214.464 270.875 213.877C269.835 213.277 269.035 212.437 268.475 211.357C267.915 210.264 267.635 208.977 267.635 207.497C267.635 206.39 267.795 205.397 268.115 204.517C268.435 203.624 268.895 202.864 269.495 202.237C270.095 201.597 270.828 201.11 271.695 200.777C272.575 200.43 273.561 200.257 274.655 200.257C275.388 200.257 276.108 200.35 276.815 200.537C277.521 200.724 278.141 200.99 278.675 201.337C278.955 201.51 279.141 201.724 279.235 201.977C279.328 202.217 279.348 202.457 279.295 202.697C279.241 202.924 279.128 203.117 278.955 203.277C278.795 203.437 278.588 203.53 278.335 203.557C278.095 203.57 277.828 203.484 277.535 203.297C277.121 203.03 276.675 202.837 276.195 202.717C275.715 202.597 275.228 202.537 274.735 202.537C273.788 202.537 272.988 202.73 272.335 203.117C271.681 203.504 271.188 204.064 270.855 204.797C270.521 205.53 270.355 206.43 270.355 207.497C270.355 208.55 270.521 209.45 270.855 210.197C271.188 210.944 271.681 211.51 272.335 211.897C272.988 212.284 273.788 212.477 274.735 212.477C275.241 212.477 275.741 212.417 276.235 212.297C276.728 212.164 277.195 211.964 277.635 211.697C277.928 211.524 278.188 211.45 278.415 211.477C278.655 211.49 278.855 211.57 279.015 211.717C279.175 211.864 279.281 212.05 279.335 212.277C279.388 212.49 279.375 212.717 279.295 212.957C279.215 213.184 279.055 213.384 278.815 213.557C278.281 213.944 277.641 214.244 276.895 214.457C276.161 214.657 275.415 214.757 274.655 214.757ZM285.565 214.757C284.459 214.757 283.505 214.55 282.705 214.137C281.905 213.724 281.285 213.137 280.845 212.377C280.419 211.617 280.205 210.717 280.205 209.677C280.205 208.664 280.412 207.777 280.825 207.017C281.252 206.257 281.832 205.664 282.565 205.237C283.312 204.797 284.159 204.577 285.105 204.577C285.799 204.577 286.419 204.69 286.965 204.917C287.525 205.144 287.999 205.47 288.385 205.897C288.785 206.324 289.085 206.844 289.285 207.457C289.499 208.057 289.605 208.737 289.605 209.497C289.605 209.737 289.519 209.924 289.345 210.057C289.185 210.177 288.952 210.237 288.645 210.237H282.225V208.797H287.845L287.525 209.097C287.525 208.484 287.432 207.97 287.245 207.557C287.072 207.144 286.812 206.83 286.465 206.617C286.132 206.39 285.712 206.277 285.205 206.277C284.645 206.277 284.165 206.41 283.765 206.677C283.379 206.93 283.079 207.297 282.865 207.777C282.665 208.244 282.565 208.804 282.565 209.457V209.597C282.565 210.69 282.819 211.51 283.325 212.057C283.845 212.59 284.605 212.857 285.605 212.857C285.952 212.857 286.339 212.817 286.765 212.737C287.205 212.644 287.619 212.49 288.005 212.277C288.285 212.117 288.532 212.05 288.745 212.077C288.959 212.09 289.125 212.164 289.245 212.297C289.379 212.43 289.459 212.597 289.485 212.797C289.512 212.984 289.472 213.177 289.365 213.377C289.272 213.577 289.105 213.75 288.865 213.897C288.399 214.19 287.859 214.41 287.245 214.557C286.645 214.69 286.085 214.757 285.565 214.757ZM292.865 214.717C292.452 214.717 292.132 214.61 291.905 214.397C291.692 214.17 291.585 213.85 291.585 213.437V205.877C291.585 205.464 291.692 205.15 291.905 204.937C292.118 204.724 292.418 204.617 292.805 204.617C293.192 204.617 293.492 204.724 293.705 204.937C293.918 205.15 294.025 205.464 294.025 205.877V207.137H293.825C294.012 206.337 294.378 205.73 294.925 205.317C295.472 204.904 296.198 204.657 297.105 204.577C297.385 204.55 297.605 204.624 297.765 204.797C297.938 204.957 298.038 205.21 298.065 205.557C298.092 205.89 298.012 206.164 297.825 206.377C297.652 206.577 297.385 206.697 297.025 206.737L296.585 206.777C295.772 206.857 295.158 207.11 294.745 207.537C294.332 207.95 294.125 208.537 294.125 209.297V213.437C294.125 213.85 294.018 214.17 293.805 214.397C293.592 214.61 293.278 214.717 292.865 214.717ZM304.464 214.757C303.597 214.757 302.87 214.61 302.284 214.317C301.71 214.024 301.284 213.597 301.004 213.037C300.724 212.464 300.584 211.757 300.584 210.917V206.657H299.544C299.224 206.657 298.977 206.577 298.804 206.417C298.63 206.244 298.544 206.01 298.544 205.717C298.544 205.41 298.63 205.177 298.804 205.017C298.977 204.857 299.224 204.777 299.544 204.777H300.584V202.957C300.584 202.544 300.69 202.23 300.904 202.017C301.13 201.804 301.444 201.697 301.844 201.697C302.244 201.697 302.55 201.804 302.764 202.017C302.977 202.23 303.084 202.544 303.084 202.957V204.777H305.204C305.524 204.777 305.77 204.857 305.944 205.017C306.117 205.177 306.204 205.41 306.204 205.717C306.204 206.01 306.117 206.244 305.944 206.417C305.77 206.577 305.524 206.657 305.204 206.657H303.084V210.777C303.084 211.417 303.224 211.897 303.504 212.217C303.784 212.537 304.237 212.697 304.864 212.697C305.09 212.697 305.29 212.677 305.464 212.637C305.637 212.597 305.79 212.57 305.924 212.557C306.084 212.544 306.217 212.597 306.324 212.717C306.43 212.824 306.484 213.05 306.484 213.397C306.484 213.664 306.437 213.904 306.344 214.117C306.264 214.317 306.11 214.457 305.884 214.537C305.71 214.59 305.484 214.637 305.204 214.677C304.924 214.73 304.677 214.757 304.464 214.757ZM309.153 214.697C308.753 214.697 308.447 214.577 308.233 214.337C308.02 214.097 307.913 213.764 307.913 213.337V205.997C307.913 205.557 308.02 205.224 308.233 204.997C308.447 204.757 308.753 204.637 309.153 204.637C309.553 204.637 309.86 204.757 310.073 204.997C310.3 205.224 310.413 205.557 310.413 205.997V213.337C310.413 213.764 310.307 214.097 310.093 214.337C309.88 214.577 309.567 214.697 309.153 214.697ZM309.153 202.777C308.687 202.777 308.32 202.664 308.053 202.437C307.8 202.197 307.673 201.87 307.673 201.457C307.673 201.03 307.8 200.704 308.053 200.477C308.32 200.25 308.687 200.137 309.153 200.137C309.633 200.137 310 200.25 310.253 200.477C310.507 200.704 310.633 201.03 310.633 201.457C310.633 201.87 310.507 202.197 310.253 202.437C310 202.664 309.633 202.777 309.153 202.777ZM314.931 214.717C314.531 214.717 314.218 214.61 313.991 214.397C313.778 214.17 313.671 213.85 313.671 213.437V206.657H312.751C312.431 206.657 312.184 206.577 312.011 206.417C311.838 206.244 311.751 206.01 311.751 205.717C311.751 205.41 311.838 205.177 312.011 205.017C312.184 204.857 312.431 204.777 312.751 204.777H314.391L313.671 205.437V204.757C313.671 203.41 314.011 202.39 314.691 201.697C315.371 201.004 316.358 200.59 317.651 200.457L318.251 200.397C318.558 200.37 318.798 200.41 318.971 200.517C319.158 200.624 319.278 200.77 319.331 200.957C319.398 201.13 319.411 201.317 319.371 201.517C319.331 201.704 319.251 201.87 319.131 202.017C319.011 202.15 318.858 202.224 318.671 202.237L318.191 202.277C317.484 202.33 316.971 202.524 316.651 202.857C316.331 203.19 316.171 203.69 316.171 204.357V205.097L315.851 204.777H321.391C321.791 204.777 322.098 204.897 322.311 205.137C322.524 205.364 322.631 205.69 322.631 206.117V213.337C322.631 213.764 322.524 214.097 322.311 214.337C322.111 214.577 321.804 214.697 321.391 214.697C320.991 214.697 320.678 214.577 320.451 214.337C320.238 214.097 320.131 213.764 320.131 213.337V206.657H316.171V213.437C316.171 214.29 315.758 214.717 314.931 214.717ZM321.431 202.777C320.978 202.777 320.624 202.664 320.371 202.437C320.131 202.197 320.011 201.87 320.011 201.457C320.011 201.03 320.131 200.704 320.371 200.477C320.624 200.25 320.978 200.137 321.431 200.137C321.898 200.137 322.251 200.25 322.491 200.477C322.744 200.704 322.871 201.03 322.871 201.457C322.871 201.87 322.744 202.197 322.491 202.437C322.251 202.664 321.898 202.777 321.431 202.777ZM329.758 214.757C328.731 214.757 327.838 214.55 327.078 214.137C326.318 213.71 325.731 213.11 325.318 212.337C324.904 211.564 324.698 210.657 324.698 209.617C324.698 208.83 324.811 208.13 325.038 207.517C325.278 206.89 325.618 206.364 326.058 205.937C326.498 205.497 327.031 205.164 327.658 204.937C328.284 204.697 328.984 204.577 329.758 204.577C330.198 204.577 330.671 204.637 331.178 204.757C331.698 204.877 332.184 205.077 332.638 205.357C332.851 205.49 332.991 205.65 333.058 205.837C333.124 206.024 333.138 206.217 333.098 206.417C333.058 206.604 332.971 206.77 332.838 206.917C332.718 207.05 332.564 207.137 332.378 207.177C332.191 207.204 331.984 207.157 331.758 207.037C331.464 206.864 331.164 206.737 330.858 206.657C330.551 206.564 330.258 206.517 329.978 206.517C329.538 206.517 329.151 206.59 328.818 206.737C328.484 206.87 328.198 207.07 327.958 207.337C327.731 207.59 327.558 207.91 327.438 208.297C327.318 208.684 327.258 209.13 327.258 209.637C327.258 210.624 327.491 211.404 327.958 211.977C328.438 212.537 329.111 212.817 329.978 212.817C330.258 212.817 330.544 212.777 330.838 212.697C331.144 212.617 331.451 212.49 331.758 212.317C331.984 212.197 332.184 212.157 332.358 212.197C332.544 212.237 332.698 212.33 332.818 212.477C332.938 212.61 333.011 212.777 333.038 212.977C333.064 213.164 333.038 213.35 332.958 213.537C332.891 213.724 332.758 213.877 332.558 213.997C332.118 214.264 331.651 214.457 331.158 214.577C330.664 214.697 330.198 214.757 329.758 214.757ZM337.833 214.757C337.126 214.757 336.493 214.624 335.933 214.357C335.386 214.077 334.953 213.704 334.632 213.237C334.326 212.77 334.173 212.244 334.173 211.657C334.173 210.937 334.359 210.37 334.733 209.957C335.106 209.53 335.713 209.224 336.553 209.037C337.393 208.85 338.519 208.757 339.933 208.757H340.933V210.197H339.953C339.126 210.197 338.466 210.237 337.973 210.317C337.479 210.397 337.126 210.537 336.913 210.737C336.713 210.924 336.613 211.19 336.613 211.537C336.613 211.977 336.766 212.337 337.073 212.617C337.379 212.897 337.806 213.037 338.353 213.037C338.793 213.037 339.179 212.937 339.513 212.737C339.859 212.524 340.133 212.237 340.333 211.877C340.533 211.517 340.633 211.104 340.633 210.637V208.337C340.633 207.67 340.486 207.19 340.193 206.897C339.899 206.604 339.406 206.457 338.713 206.457C338.326 206.457 337.906 206.504 337.453 206.597C337.013 206.69 336.546 206.85 336.053 207.077C335.799 207.197 335.573 207.23 335.373 207.177C335.186 207.124 335.039 207.017 334.933 206.857C334.826 206.684 334.773 206.497 334.773 206.297C334.773 206.097 334.826 205.904 334.933 205.717C335.039 205.517 335.219 205.37 335.473 205.277C336.086 205.024 336.673 204.844 337.233 204.737C337.806 204.63 338.326 204.577 338.793 204.577C339.753 204.577 340.539 204.724 341.153 205.017C341.779 205.31 342.246 205.757 342.553 206.357C342.859 206.944 343.013 207.704 343.013 208.637V213.437C343.013 213.85 342.913 214.17 342.713 214.397C342.513 214.61 342.226 214.717 341.853 214.717C341.479 214.717 341.186 214.61 340.973 214.397C340.773 214.17 340.673 213.85 340.673 213.437V212.477H340.833C340.739 212.944 340.553 213.35 340.273 213.697C340.006 214.03 339.666 214.29 339.253 214.477C338.839 214.664 338.366 214.757 337.833 214.757ZM350.03 214.757C349.163 214.757 348.437 214.61 347.85 214.317C347.277 214.024 346.85 213.597 346.57 213.037C346.29 212.464 346.15 211.757 346.15 210.917V206.657H345.11C344.79 206.657 344.543 206.577 344.37 206.417C344.197 206.244 344.11 206.01 344.11 205.717C344.11 205.41 344.197 205.177 344.37 205.017C344.543 204.857 344.79 204.777 345.11 204.777H346.15V202.957C346.15 202.544 346.257 202.23 346.47 202.017C346.697 201.804 347.01 201.697 347.41 201.697C347.81 201.697 348.117 201.804 348.33 202.017C348.543 202.23 348.65 202.544 348.65 202.957V204.777H350.77C351.09 204.777 351.337 204.857 351.51 205.017C351.683 205.177 351.77 205.41 351.77 205.717C351.77 206.01 351.683 206.244 351.51 206.417C351.337 206.577 351.09 206.657 350.77 206.657H348.65V210.777C348.65 211.417 348.79 211.897 349.07 212.217C349.35 212.537 349.803 212.697 350.43 212.697C350.657 212.697 350.857 212.677 351.03 212.637C351.203 212.597 351.357 212.57 351.49 212.557C351.65 212.544 351.783 212.597 351.89 212.717C351.997 212.824 352.05 213.05 352.05 213.397C352.05 213.664 352.003 213.904 351.91 214.117C351.83 214.317 351.677 214.457 351.45 214.537C351.277 214.59 351.05 214.637 350.77 214.677C350.49 214.73 350.243 214.757 350.03 214.757ZM357.948 214.757C356.841 214.757 355.888 214.55 355.088 214.137C354.288 213.724 353.668 213.137 353.228 212.377C352.801 211.617 352.588 210.717 352.588 209.677C352.588 208.664 352.795 207.777 353.208 207.017C353.635 206.257 354.215 205.664 354.948 205.237C355.695 204.797 356.541 204.577 357.488 204.577C358.181 204.577 358.801 204.69 359.348 204.917C359.908 205.144 360.381 205.47 360.768 205.897C361.168 206.324 361.468 206.844 361.668 207.457C361.881 208.057 361.988 208.737 361.988 209.497C361.988 209.737 361.901 209.924 361.728 210.057C361.568 210.177 361.335 210.237 361.028 210.237H354.608V208.797H360.228L359.908 209.097C359.908 208.484 359.815 207.97 359.628 207.557C359.455 207.144 359.195 206.83 358.848 206.617C358.515 206.39 358.095 206.277 357.588 206.277C357.028 206.277 356.548 206.41 356.148 206.677C355.761 206.93 355.461 207.297 355.248 207.777C355.048 208.244 354.948 208.804 354.948 209.457V209.597C354.948 210.69 355.201 211.51 355.708 212.057C356.228 212.59 356.988 212.857 357.988 212.857C358.335 212.857 358.721 212.817 359.148 212.737C359.588 212.644 360.001 212.49 360.388 212.277C360.668 212.117 360.915 212.05 361.128 212.077C361.341 212.09 361.508 212.164 361.628 212.297C361.761 212.43 361.841 212.597 361.868 212.797C361.895 212.984 361.855 213.177 361.748 213.377C361.655 213.577 361.488 213.75 361.248 213.897C360.781 214.19 360.241 214.41 359.628 214.557C359.028 214.69 358.468 214.757 357.948 214.757Z" fill="black"/>
<g clip-path="url(#clip0_0_3419)">
<path d="M293.678 65.6038C292.847 64.7523 291.707 64.275 290.517 64.2813H169.483C168.294 64.275 167.153 64.7523 166.323 65.6038C165.471 66.4341 164.994 67.5748 165 68.7641V162.902C164.994 164.091 165.471 165.232 166.323 166.062C167.153 166.914 168.294 167.391 169.483 167.385H288.276C291.99 167.385 295 164.374 295 160.661V68.7641C295.007 67.5748 294.529 66.4341 293.678 65.6038Z" fill="#F3D55B"/>
<path d="M295 68.764V160.661C295 162.444 294.29 164.153 293.028 165.412L283.793 156.178V75.4882L293.678 65.6037C294.529 66.434 295.006 67.5748 295 68.764Z" fill="#F0C419"/>
<path d="M176.207 75.4882V156.178L166.322 166.062C165.471 165.232 164.994 164.091 165 162.902V68.764C164.994 67.5748 165.471 66.434 166.322 65.6037L176.207 75.4882Z" fill="#F0C419"/>
<path d="M293.028 165.412C291.769 166.675 290.059 167.385 288.276 167.385H169.483C168.293 167.391 167.153 166.914 166.322 166.062L176.207 156.178H283.793L293.028 165.412Z" fill="#F29C1F"/>
<path d="M176.207 75.4882H283.793V156.178H176.207V75.4882Z" fill="#ECF0F1"/>
<path d="M283.793 75.4882C283.793 75.4882 176.207 75.4882 176.207 156.178V75.4882H283.793Z" fill="white"/>
<path d="M245.69 91.1778H214.31C213.072 91.1778 212.069 90.1743 212.069 88.9364C212.069 87.6986 213.072 86.6951 214.31 86.6951H245.69C246.928 86.6951 247.931 87.6986 247.931 88.9364C247.931 90.1743 246.928 91.1778 245.69 91.1778Z" fill="#BDC3C7"/>
<path d="M223.276 140.488H191.897C190.659 140.488 189.655 139.485 189.655 138.247C189.655 137.009 190.659 136.005 191.897 136.005H223.276C224.514 136.005 225.517 137.009 225.517 138.247C225.517 139.485 224.514 140.488 223.276 140.488Z" fill="#95A5A5"/>
<path d="M252.414 102.385H207.586C206.348 102.385 205.345 101.381 205.345 100.143C205.345 98.9055 206.348 97.902 207.586 97.902H252.414C253.652 97.902 254.655 98.9055 254.655 100.143C254.655 101.381 253.652 102.385 252.414 102.385Z" fill="#BDC3C7"/>
<path d="M243.448 148.109L243.448 177.202C243.443 177.983 243.844 178.71 244.508 179.122C245.171 179.534 246.001 179.571 246.698 179.219L252.526 176.283C253.162 175.969 253.907 175.969 254.543 176.283L260.371 179.219C261.068 179.571 261.898 179.534 262.561 179.122C263.225 178.71 263.626 177.983 263.621 177.202L263.621 148.109H243.448Z" fill="#FF5364"/>
<path d="M223.276 131.523C217.788 131.523 212.392 130.107 207.611 127.412C202.822 130.131 197.404 131.548 191.897 131.523C190.659 131.523 189.655 130.519 189.655 129.281C189.655 128.043 190.659 127.04 191.897 127.04C195.914 127.058 199.885 126.184 203.525 124.482C201.199 122.699 199.711 120.035 199.412 117.12C199.412 115.775 200.001 111.35 207.586 111.35C215.171 111.35 215.76 115.766 215.76 117.12C215.463 120.039 213.976 122.707 211.65 124.496C215.29 126.19 219.26 127.059 223.276 127.04C224.514 127.04 225.517 128.043 225.517 129.281C225.517 130.519 224.514 131.523 223.276 131.523ZM207.586 115.833C205.883 115.833 203.895 116.169 203.895 117.12C203.895 118.07 204.901 119.984 207.568 122.037C209.953 120.213 211.278 118.305 211.278 117.12C211.278 116.169 209.29 115.833 207.586 115.833Z" fill="#95A5A5"/>
<path d="M274.828 132.643C274.828 135.228 270.002 136.83 269.069 139.078C268.103 141.407 270.345 145.946 268.59 147.701C266.835 149.456 262.296 147.215 259.969 148.178C257.721 149.111 256.119 153.936 253.535 153.936C250.95 153.936 249.348 149.111 247.1 148.178C244.771 147.212 240.232 149.454 238.477 147.699C236.722 145.944 238.963 141.405 237.999 139.078C237.067 136.83 232.241 135.228 232.241 132.643C232.241 130.059 237.067 128.456 237.999 126.208C238.966 123.88 236.724 119.341 238.479 117.586C240.234 115.831 244.773 118.072 247.1 117.108C249.341 116.176 250.95 111.35 253.535 111.35C256.119 111.35 257.721 116.176 259.969 117.108C262.298 118.074 266.837 115.833 268.592 117.588C270.347 119.343 268.106 123.882 269.069 126.208C270.002 128.456 274.828 130.059 274.828 132.643Z" fill="#FB7B76"/>
<path d="M253.534 140.488C257.867 140.488 261.379 136.976 261.379 132.643C261.379 128.311 257.867 124.799 253.534 124.799C249.202 124.799 245.69 128.311 245.69 132.643C245.69 136.976 249.202 140.488 253.534 140.488Z" fill="#DF4D60"/>
</g>
<defs>
<filter id="filter0_d_0_3419" x="0" y="0.557129" width="460" height="370" filterUnits="userSpaceOnUse" color-interpolation-filters="sRGB">
<feFlood flood-opacity="0" result="BackgroundImageFix"/>
<feColorMatrix in="SourceAlpha" type="matrix" values="0 0 0 0 0 0 0 0 0 0 0 0 0 0 0 0 0 0 127 0" result="hardAlpha"/>
<feOffset dy="45"/>
<feGaussianBlur stdDeviation="40"/>
<feColorMatrix type="matrix" values="0 0 0 0 0 0 0 0 0 0 0 0 0 0 0 0 0 0 0.04 0"/>
<feBlend mode="normal" in2="BackgroundImageFix" result="effect1_dropShadow_0_3419"/>
<feBlend mode="normal" in="SourceGraphic" in2="effect1_dropShadow_0_3419" result="shape"/>
</filter>
<clipPath id="clip0_0_3419">
<rect width="130" height="130" fill="white" transform="translate(165 57.5571)"/>
</clipPath>
</defs>
</svg>
