<svg width="380" height="300" viewBox="0 0 380 300" fill="none" xmlns="http://www.w3.org/2000/svg">
<rect x="0.5" y="0.5" width="379" height="299" rx="17.5" fill="#FBE5D8" stroke="#F3F3F3"/>
<circle cx="190.5" cy="82.5" r="52" fill="white" stroke="#FCAF82"/>
<path d="M162.263 99.7247L195.986 80.1482L217.95 92.5947L184.227 112.171L162.263 99.7247Z" fill="#FE91AB"/>
<path d="M185.01 107.152L218.732 87.5754L218.769 93.9921L185.047 113.569L185.01 107.152Z" fill="#E34454"/>
<path d="M163.864 95.1722L185.013 107.157L185.04 111.697L163.891 99.712L163.864 95.1722Z" fill="#E3E7F0"/>
<path d="M162.231 94.2437L185.01 107.152L185.047 113.569L162.268 100.66L162.263 99.7247L163.078 100.187L184.227 112.171L184.2 107.631L163.051 95.6468L162.236 95.1849L162.231 94.2437Z" fill="#ED5D71"/>
<path d="M162.231 94.2433L195.953 74.6667L218.732 87.575L185.01 107.152L162.231 94.2433Z" fill="#FE91AB"/>
<path d="M167.983 90.9043L167.214 91.35L189.993 104.258L190.762 103.812L167.983 90.9043Z" fill="#ED5D71"/>
<path d="M165.886 92.1217L164.098 93.1591L186.877 106.068L188.665 105.029L165.886 92.1217Z" fill="#ED5D71"/>
<path d="M203.608 81.3645L196.606 77.3215C196.298 77.1442 195.92 77.1442 195.613 77.3229L191.803 79.5367C191.474 79.728 191.475 80.2037 191.805 80.3937L198.807 84.4367C199.114 84.614 199.493 84.6133 199.799 84.4347L203.609 82.2209C203.938 82.0302 203.937 81.5545 203.608 81.3645Z" fill="white"/>
<path d="M190.215 109.524C191.107 109.003 191.834 107.739 191.826 106.694C191.823 106.174 191.638 105.802 191.338 105.636C191.19 105.551 190.988 105.441 190.837 105.35C191.141 105.522 191.323 105.889 191.329 106.414C191.334 107.454 190.61 108.723 189.714 109.239C189.265 109.501 188.863 109.524 188.572 109.36L189.069 109.64C189.364 109.81 189.765 109.787 190.215 109.524Z" fill="#FE91AB"/>
<path d="M190.19 105.374C191.27 104.747 192.149 105.25 192.156 106.504C192.162 107.758 191.293 109.282 190.214 109.908C189.135 110.535 188.259 110.024 188.253 108.77C188.246 107.516 189.111 106 190.19 105.374ZM191.826 106.696C191.82 105.654 191.089 105.231 190.192 105.752C189.296 106.272 188.573 107.539 188.579 108.581C188.584 109.622 189.315 110.045 190.212 109.525C191.109 109.004 191.831 107.737 191.826 106.696Z" fill="#ED5D71"/>
<path d="M188.578 108.581C188.581 109.008 188.71 109.324 188.917 109.521C189.171 109.563 189.471 109.502 189.794 109.314C190.691 108.794 191.413 107.527 191.408 106.485C191.405 106.058 191.277 105.742 191.068 105.546C190.815 105.503 190.515 105.565 190.192 105.752C189.296 106.272 188.573 107.539 188.578 108.581Z" fill="#373F51"/>
<path d="M217.422 89.5298L216.388 90.1291V94.1804L217.446 93.566L217.422 89.5298Z" fill="white"/>
<path d="M214.02 91.5041V95.5548L215.078 94.9404L215.054 90.9042L214.02 91.5041Z" fill="white"/>
<path d="M211.652 92.8789V96.9296L212.71 96.3151L212.685 92.2789L211.652 92.8789Z" fill="white"/>
<path d="M209.284 94.2543V98.3049L210.342 97.6905L210.317 93.6543L209.284 94.2543Z" fill="white"/>
<g clip-path="url(#clip0_0_5281)">
<path fill-rule="evenodd" clip-rule="evenodd" d="M210.918 51.8905L210.568 56.3968C210.54 56.7764 210.294 57.1049 209.937 57.2375C209.58 57.3701 209.179 57.2824 208.91 57.0131L207.896 55.9981L201.151 62.752C200.057 63.8434 198.286 63.8434 197.192 62.752L194.07 59.6286C193.797 59.3556 193.354 59.3556 193.081 59.6286L182.819 69.8955C182.294 70.4209 181.582 70.7161 180.839 70.7161C180.096 70.7161 179.384 70.4209 178.859 69.8955L177.136 68.1719C176.863 67.8993 176.421 67.8993 176.148 68.1719L172.732 71.582C172.185 72.1203 171.307 72.1203 170.759 71.582C170.495 71.322 170.346 70.9665 170.346 70.5954C170.346 70.2243 170.495 69.8687 170.759 69.6087L174.663 65.697C175.188 65.1718 175.9 64.8767 176.642 64.8767C177.385 64.8767 178.097 65.1718 178.621 65.697L180.838 67.9151L191.597 57.1558C192.122 56.6306 192.834 56.3355 193.576 56.3355C194.319 56.3355 195.031 56.6306 195.555 57.1558L198.676 60.2757C198.807 60.407 198.985 60.4808 199.171 60.4808C199.357 60.4808 199.535 60.407 199.666 60.2757L205.921 54.0178L204.907 53.0035C204.638 52.7353 204.551 52.3353 204.684 51.9799C204.816 51.6245 205.144 51.3791 205.522 51.3519L210.034 51C210.274 50.9844 210.509 51.0735 210.678 51.2442C210.848 51.415 210.935 51.6507 210.918 51.8905Z" fill="#4FBA6F"/>
<path d="M180.838 88.7742H172.444C171.671 88.7742 171.045 89.4005 171.045 90.1732C171.045 90.9459 171.671 91.5723 172.444 91.5723H180.838C181.611 91.5723 182.237 90.9459 182.237 90.1732C182.237 89.4005 181.611 88.7742 180.838 88.7742Z" fill="#F0C419"/>
<path d="M194.828 88.7742H186.434C185.662 88.7742 185.035 89.4005 185.035 90.1732C185.035 90.9459 185.662 91.5723 186.434 91.5723H194.828C195.601 91.5723 196.227 90.9459 196.227 90.1732C196.227 89.4005 195.601 88.7742 194.828 88.7742Z" fill="#F0C419"/>
<path d="M194.828 85.9761H186.434C185.662 85.9761 185.035 86.6024 185.035 87.3751C185.035 88.1478 185.662 88.7742 186.434 88.7742H194.828C195.601 88.7742 196.227 88.1478 196.227 87.3751C196.227 86.6024 195.601 85.9761 194.828 85.9761Z" fill="#F3D55B"/>
<path d="M194.828 83.178H186.434C185.662 83.178 185.035 83.8044 185.035 84.577C185.035 85.3497 185.662 85.9761 186.434 85.9761H194.828C195.601 85.9761 196.227 85.3497 196.227 84.577C196.227 83.8044 195.601 83.178 194.828 83.178Z" fill="#F0C419"/>
<path d="M208.819 88.7742H200.425C199.652 88.7742 199.026 89.4005 199.026 90.1732C199.026 90.9459 199.652 91.5723 200.425 91.5723H208.819C209.592 91.5723 210.218 90.9459 210.218 90.1732C210.218 89.4005 209.592 88.7742 208.819 88.7742Z" fill="#F0C419"/>
<path d="M190.631 83.178C194.108 83.178 196.927 80.3594 196.927 76.8824C196.927 73.4053 194.108 70.5867 190.631 70.5867C187.154 70.5867 184.336 73.4053 184.336 76.8824C184.336 80.3594 187.154 83.178 190.631 83.178Z" fill="#F3D55B"/>
<path d="M208.819 85.9761H200.425C199.652 85.9761 199.026 86.6024 199.026 87.3751C199.026 88.1478 199.652 88.7742 200.425 88.7742H208.819C209.592 88.7742 210.218 88.1478 210.218 87.3751C210.218 86.6024 209.592 85.9761 208.819 85.9761Z" fill="#F3D55B"/>
<path d="M208.819 83.178H200.425C199.652 83.178 199.026 83.8044 199.026 84.577C199.026 85.3497 199.652 85.9761 200.425 85.9761H208.819C209.592 85.9761 210.218 85.3497 210.218 84.577C210.218 83.8044 209.592 83.178 208.819 83.178Z" fill="#F0C419"/>
<path d="M208.819 80.3799H200.425C199.652 80.3799 199.026 81.0063 199.026 81.7789C199.026 82.5516 199.652 83.178 200.425 83.178H208.819C209.592 83.178 210.218 82.5516 210.218 81.7789C210.218 81.0063 209.592 80.3799 208.819 80.3799Z" fill="#F3D55B"/>
<path d="M208.819 77.5818H200.425C199.652 77.5818 199.026 78.2082 199.026 78.9808C199.026 79.7535 199.652 80.3799 200.425 80.3799H208.819C209.592 80.3799 210.218 79.7535 210.218 78.9808C210.218 78.2082 209.592 77.5818 208.819 77.5818Z" fill="#F0C419"/>
<path d="M204.622 77.5818C208.099 77.5818 210.917 74.7632 210.917 71.2862C210.917 67.8092 208.099 64.9905 204.622 64.9905C201.145 64.9905 198.326 67.8092 198.326 71.2862C198.326 74.7632 201.145 77.5818 204.622 77.5818Z" fill="#F3D55B"/>
<path d="M176.641 88.7741C180.118 88.7741 182.937 85.9554 182.937 82.4784C182.937 79.0014 180.118 76.1827 176.641 76.1827C173.164 76.1827 170.345 79.0014 170.345 82.4784C170.345 85.9554 173.164 88.7741 176.641 88.7741Z" fill="#F3D55B"/>
<path fill-rule="evenodd" clip-rule="evenodd" d="M190.631 76.1828C190.292 76.1825 190.002 75.9386 189.943 75.6043C189.884 75.27 190.074 74.9418 190.393 74.8259C190.712 74.7099 191.068 74.8396 191.238 75.1335C191.359 75.358 191.592 75.499 191.847 75.5015C192.102 75.504 192.338 75.3676 192.463 75.1455C192.588 74.9234 192.583 74.6508 192.449 74.434C192.195 74.0084 191.799 73.6863 191.331 73.5246V73.3847C191.331 72.9984 191.018 72.6852 190.631 72.6852C190.245 72.6852 189.932 72.9984 189.932 73.3847V73.5134C188.969 73.8526 188.391 74.8368 188.564 75.8429C188.737 76.8491 189.61 77.5838 190.631 77.5818C190.971 77.5822 191.261 77.8261 191.32 78.1603C191.378 78.4946 191.189 78.8228 190.87 78.9388C190.551 79.0547 190.195 78.925 190.025 78.6311C189.826 78.3095 189.407 78.2043 189.08 78.3934C188.753 78.5826 188.635 78.9977 188.814 79.3306C189.068 79.7564 189.464 80.0786 189.933 80.24V80.3799C189.933 80.7662 190.246 81.0794 190.633 81.0794C191.019 81.0794 191.332 80.7662 191.332 80.3799V80.2512C192.295 79.9119 192.873 78.9273 192.7 77.921C192.527 76.9146 191.652 76.1802 190.631 76.1828Z" fill="#B19046"/>
<path fill-rule="evenodd" clip-rule="evenodd" d="M206.72 72.6852C206.72 71.5261 205.781 70.5866 204.622 70.5866C204.282 70.5863 203.992 70.3424 203.933 70.0081C203.875 69.6738 204.064 69.3456 204.383 69.2297C204.702 69.1137 205.059 69.2434 205.228 69.5373C205.427 69.8589 205.846 69.9641 206.173 69.775C206.5 69.5858 206.618 69.1708 206.439 68.8378C206.186 68.4119 205.79 68.0897 205.321 67.9284V67.7885C205.321 67.4022 205.008 67.089 204.622 67.089C204.235 67.089 203.922 67.4022 203.922 67.7885V67.9172C202.959 68.2564 202.381 69.2406 202.554 70.2467C202.727 71.2529 203.601 71.9876 204.622 71.9856C204.961 71.986 205.251 72.2299 205.31 72.5641C205.369 72.8984 205.179 73.2266 204.86 73.3426C204.541 73.4585 204.185 73.3288 204.015 73.0349C203.816 72.7134 203.398 72.6081 203.07 72.7972C202.743 72.9864 202.625 73.4015 202.804 73.7344C203.058 74.1605 203.455 74.4828 203.924 74.6438V74.7837C203.924 75.17 204.237 75.4832 204.623 75.4832C205.009 75.4832 205.323 75.17 205.323 74.7837V74.655C206.158 74.3592 206.717 73.5709 206.72 72.6852Z" fill="#B19046"/>
<path fill-rule="evenodd" clip-rule="evenodd" d="M176.641 81.779C176.302 81.7786 176.011 81.5347 175.953 81.2005C175.894 80.8662 176.084 80.538 176.403 80.422C176.722 80.3061 177.078 80.4358 177.247 80.7297C177.368 80.9542 177.602 81.0952 177.857 81.0977C178.111 81.1002 178.348 80.9638 178.473 80.7417C178.598 80.5196 178.592 80.247 178.458 80.0302C178.205 79.6046 177.809 79.2825 177.34 79.1208V78.9809C177.34 78.5946 177.027 78.2814 176.641 78.2814C176.255 78.2814 175.941 78.5946 175.941 78.9809V79.1096C174.978 79.4488 174.401 80.433 174.574 81.4391C174.747 82.4453 175.62 83.1799 176.641 83.178C176.98 83.1783 177.27 83.4222 177.329 83.7565C177.388 84.0908 177.198 84.419 176.879 84.5349C176.56 84.6509 176.204 84.5212 176.034 84.2273C175.914 84.0028 175.68 83.8618 175.425 83.8593C175.17 83.8568 174.934 83.9932 174.809 84.2153C174.684 84.4374 174.689 84.71 174.824 84.9268C175.077 85.3526 175.474 85.6748 175.943 85.8362V85.9761C175.943 86.3624 176.256 86.6756 176.642 86.6756C177.029 86.6756 177.342 86.3624 177.342 85.9761V85.8474C178.305 85.5081 178.883 84.5235 178.71 83.5172C178.536 82.5108 177.662 81.7764 176.641 81.779Z" fill="#B19046"/>
</g>
<path d="M60.261 198.436V199.786H55.149V203.98H59.721V205.33H55.149V209.65H60.261V211H53.511V198.436H60.261ZM62.1275 206.032C62.1275 202.954 64.1615 200.974 66.8075 200.974C68.6435 200.974 69.9035 201.91 70.4795 202.936V201.136H72.1355V211H70.4795V209.164C69.8855 210.226 68.6075 211.162 66.7895 211.162C64.1615 211.162 62.1275 209.092 62.1275 206.032ZM70.4795 206.05C70.4795 203.764 68.9315 202.396 67.1315 202.396C65.3315 202.396 63.8015 203.71 63.8015 206.032C63.8015 208.354 65.3315 209.722 67.1315 209.722C68.9315 209.722 70.4795 208.372 70.4795 206.05ZM76.5416 205.636V211H74.9036V201.136H76.5416V202.738C77.0996 201.64 78.1616 200.956 79.7276 200.956V202.648H79.2956C77.7296 202.648 76.5416 203.35 76.5416 205.636ZM88.8364 211V205.42C88.8364 203.404 87.7384 202.378 86.0824 202.378C84.4084 202.378 83.2564 203.422 83.2564 205.546V211H81.6184V201.136H83.2564V202.54C83.9044 201.514 85.0924 200.956 86.4244 200.956C88.7104 200.956 90.4564 202.36 90.4564 205.186V211H88.8364ZM106.355 211L105.347 208.21H99.8749L98.8669 211H97.1389L101.675 198.526H103.565L108.083 211H106.355ZM104.879 206.878L102.611 200.542L100.343 206.878H104.879ZM118.808 201.136V211H117.17V209.542C116.54 210.568 115.334 211.144 114.02 211.144C111.752 211.144 109.97 209.74 109.97 206.914V201.136H111.59V206.698C111.59 208.696 112.688 209.722 114.344 209.722C116.036 209.722 117.17 208.678 117.17 206.554V201.136H118.808ZM121.934 208.3V202.486H120.656V201.136H121.934V198.652H123.572V201.136H126.146V202.486H123.572V208.3C123.572 209.272 123.932 209.614 124.939 209.614H126.146V211H124.67C122.924 211 121.934 210.28 121.934 208.3ZM128.13 211V197.68H129.768V202.558C130.416 201.514 131.64 200.956 133.026 200.956C135.222 200.956 136.968 202.36 136.968 205.186V211H135.348V205.42C135.348 203.404 134.25 202.378 132.594 202.378C130.92 202.378 129.768 203.422 129.768 205.546V211H128.13ZM149.004 206.05C149.004 209.182 146.754 211.162 143.946 211.162C141.156 211.162 139.032 209.182 139.032 206.05C139.032 202.936 141.228 200.974 144.018 200.974C146.826 200.974 149.004 202.936 149.004 206.05ZM140.706 206.05C140.706 208.552 142.236 209.722 143.946 209.722C145.656 209.722 147.33 208.552 147.33 206.05C147.33 203.566 145.692 202.396 144 202.396C142.272 202.396 140.706 203.566 140.706 206.05ZM152.795 205.636V211H151.157V201.136H152.795V202.738C153.353 201.64 154.415 200.956 155.981 200.956V202.648H155.549C153.983 202.648 152.795 203.35 152.795 205.636ZM169.385 202.144C169.385 200.722 168.593 199.804 166.721 199.804H164.309V204.556H166.721C168.575 204.556 169.385 203.548 169.385 202.144ZM162.671 198.454H166.721C169.673 198.454 171.077 200.092 171.077 202.144C171.077 203.746 170.195 205.276 168.089 205.744L171.239 211H169.277L166.289 205.87H164.309V211H162.671V198.454ZM182.982 206.05C182.982 209.182 180.732 211.162 177.924 211.162C175.134 211.162 173.01 209.182 173.01 206.05C173.01 202.936 175.206 200.974 177.996 200.974C180.804 200.974 182.982 202.936 182.982 206.05ZM174.684 206.05C174.684 208.552 176.214 209.722 177.924 209.722C179.634 209.722 181.308 208.552 181.308 206.05C181.308 203.566 179.67 202.396 177.978 202.396C176.25 202.396 174.684 203.566 174.684 206.05ZM188.88 209.128L191.94 201.136H193.632L187.692 215.644H186L187.944 210.892L183.966 201.136H185.784L188.88 209.128ZM194.667 206.032C194.667 202.954 196.701 200.974 199.347 200.974C201.183 200.974 202.443 201.91 203.019 202.936V201.136H204.675V211H203.019V209.164C202.425 210.226 201.147 211.162 199.329 211.162C196.701 211.162 194.667 209.092 194.667 206.032ZM203.019 206.05C203.019 203.764 201.471 202.396 199.671 202.396C197.871 202.396 196.341 203.71 196.341 206.032C196.341 208.354 197.871 209.722 199.671 209.722C201.471 209.722 203.019 208.372 203.019 206.05ZM207.443 211V197.68H209.081V211H207.443ZM212.232 208.3V202.486H210.954V201.136H212.232V198.652H213.87V201.136H216.444V202.486H213.87V208.3C213.87 209.272 214.23 209.614 215.238 209.614H216.444V211H214.968C213.222 211 212.232 210.28 212.232 208.3ZM218.429 211V201.136H220.067V211H218.429ZM219.275 199.534C218.645 199.534 218.159 199.048 218.159 198.418C218.159 197.788 218.645 197.302 219.275 197.302C219.869 197.302 220.355 197.788 220.355 198.418C220.355 199.048 219.869 199.534 219.275 199.534ZM227.053 202.36C225.451 202.36 224.119 203.422 223.939 205.348H230.167C230.185 203.422 228.745 202.36 227.053 202.36ZM231.661 207.958C231.157 209.758 229.573 211.162 227.125 211.162C224.317 211.162 222.247 209.182 222.247 206.05C222.247 202.936 224.245 200.974 227.125 200.974C229.987 200.974 231.859 202.99 231.859 205.69C231.859 206.05 231.841 206.338 231.805 206.68H223.921C224.047 208.678 225.451 209.776 227.125 209.776C228.601 209.776 229.537 209.02 229.897 207.958H231.661ZM241.113 208.318C241.113 209.938 239.691 211.162 237.513 211.162C235.209 211.162 233.589 209.902 233.481 208.102H235.173C235.263 209.056 236.109 209.776 237.495 209.776C238.791 209.776 239.511 209.128 239.511 208.318C239.511 206.122 233.679 207.4 233.679 203.728C233.679 202.216 235.101 200.974 237.297 200.974C239.475 200.974 240.915 202.144 241.023 204.07H239.385C239.313 203.08 238.557 202.36 237.243 202.36C236.037 202.36 235.317 202.936 235.317 203.728C235.317 206.068 241.041 204.79 241.113 208.318ZM247.612 206.032C247.612 202.954 249.646 200.974 252.292 200.974C254.128 200.974 255.388 201.91 255.964 202.936V201.136H257.62V211H255.964V209.164C255.37 210.226 254.092 211.162 252.274 211.162C249.646 211.162 247.612 209.092 247.612 206.032ZM255.964 206.05C255.964 203.764 254.416 202.396 252.616 202.396C250.816 202.396 249.286 203.71 249.286 206.032C249.286 208.354 250.816 209.722 252.616 209.722C254.416 209.722 255.964 208.372 255.964 206.05ZM267.606 211V205.42C267.606 203.404 266.508 202.378 264.852 202.378C263.178 202.378 262.026 203.422 262.026 205.546V211H260.388V201.136H262.026V202.54C262.674 201.514 263.862 200.956 265.194 200.956C267.48 200.956 269.226 202.36 269.226 205.186V211H267.606ZM271.29 206.032C271.29 202.954 273.324 200.974 275.988 200.974C277.536 200.974 278.958 201.766 279.642 202.9V197.68H281.298V211H279.642V209.146C279.048 210.244 277.77 211.162 275.97 211.162C273.324 211.162 271.29 209.092 271.29 206.032ZM279.642 206.05C279.642 203.764 278.094 202.396 276.294 202.396C274.494 202.396 272.964 203.71 272.964 206.032C272.964 208.354 274.494 209.722 276.294 209.722C278.094 209.722 279.642 208.372 279.642 206.05ZM295.957 208.318C295.957 209.938 294.535 211.162 292.357 211.162C290.053 211.162 288.433 209.902 288.325 208.102H290.017C290.107 209.056 290.953 209.776 292.339 209.776C293.635 209.776 294.355 209.128 294.355 208.318C294.355 206.122 288.523 207.4 288.523 203.728C288.523 202.216 289.945 200.974 292.141 200.974C294.319 200.974 295.759 202.144 295.867 204.07H294.229C294.157 203.08 293.401 202.36 292.087 202.36C290.881 202.36 290.161 202.936 290.161 203.728C290.161 206.068 295.885 204.79 295.957 208.318ZM298.629 208.3V202.486H297.351V201.136H298.629V198.652H300.267V201.136H302.841V202.486H300.267V208.3C300.267 209.272 300.627 209.614 301.635 209.614H302.841V211H301.365C299.619 211 298.629 210.28 298.629 208.3ZM304.213 206.032C304.213 202.954 306.247 200.974 308.893 200.974C310.729 200.974 311.989 201.91 312.565 202.936V201.136H314.221V211H312.565V209.164C311.971 210.226 310.693 211.162 308.875 211.162C306.247 211.162 304.213 209.092 304.213 206.032ZM312.565 206.05C312.565 203.764 311.017 202.396 309.217 202.396C307.417 202.396 305.887 203.71 305.887 206.032C305.887 208.354 307.417 209.722 309.217 209.722C311.017 209.722 312.565 208.372 312.565 206.05ZM318.628 205.636V211H316.99V201.136H318.628V202.738C319.186 201.64 320.248 200.956 321.814 200.956V202.648H321.382C319.816 202.648 318.628 203.35 318.628 205.636ZM324.064 208.3V202.486H322.786V201.136H324.064V198.652H325.702V201.136H328.276V202.486H325.702V208.3C325.702 209.272 326.062 209.614 327.07 209.614H328.276V211H326.8C325.054 211 324.064 210.28 324.064 208.3ZM58.661 235.3V229.486H57.383V228.136H58.661V225.652H60.299V228.136H62.873V229.486H60.299V235.3C60.299 236.272 60.659 236.614 61.667 236.614H62.873V238H61.397C59.651 238 58.661 237.28 58.661 235.3ZM64.8577 238V224.68H66.4957V229.558C67.1437 228.514 68.3677 227.956 69.7537 227.956C71.9497 227.956 73.6957 229.36 73.6957 232.186V238H72.0757V232.42C72.0757 230.404 70.9777 229.378 69.3217 229.378C67.6477 229.378 66.4957 230.422 66.4957 232.546V238H64.8577ZM80.5654 229.36C78.9634 229.36 77.6314 230.422 77.4514 232.348H83.6794C83.6974 230.422 82.2574 229.36 80.5654 229.36ZM85.1734 234.958C84.6694 236.758 83.0854 238.162 80.6374 238.162C77.8294 238.162 75.7594 236.182 75.7594 233.05C75.7594 229.936 77.7574 227.974 80.6374 227.974C83.4994 227.974 85.3714 229.99 85.3714 232.69C85.3714 233.05 85.3534 233.338 85.3174 233.68H77.4334C77.5594 235.678 78.9634 236.776 80.6374 236.776C82.1134 236.776 83.0494 236.02 83.4094 234.958H85.1734ZM96.5263 229.36C94.9243 229.36 93.5923 230.422 93.4123 232.348H99.6403C99.6583 230.422 98.2183 229.36 96.5263 229.36ZM101.134 234.958C100.63 236.758 99.0463 238.162 96.5983 238.162C93.7903 238.162 91.7203 236.182 91.7203 233.05C91.7203 229.936 93.7183 227.974 96.5983 227.974C99.4603 227.974 101.332 229.99 101.332 232.69C101.332 233.05 101.314 233.338 101.278 233.68H93.3943C93.5203 235.678 94.9243 236.776 96.5983 236.776C98.0743 236.776 99.0103 236.02 99.3703 234.958H101.134ZM110.712 238V232.42C110.712 230.404 109.614 229.378 107.958 229.378C106.284 229.378 105.132 230.422 105.132 232.546V238H103.494V228.136H105.132V229.54C105.78 228.514 106.968 227.956 108.3 227.956C110.586 227.956 112.332 229.36 112.332 232.186V238H110.712ZM115.368 235.3V229.486H114.09V228.136H115.368V225.652H117.006V228.136H119.58V229.486H117.006V235.3C117.006 236.272 117.366 236.614 118.374 236.614H119.58V238H118.104C116.358 238 115.368 237.28 115.368 235.3ZM123.203 232.636V238H121.565V228.136H123.203V229.738C123.761 228.64 124.823 227.956 126.389 227.956V229.648H125.957C124.391 229.648 123.203 230.35 123.203 232.636ZM132.474 229.36C130.872 229.36 129.54 230.422 129.36 232.348H135.588C135.606 230.422 134.166 229.36 132.474 229.36ZM137.082 234.958C136.578 236.758 134.994 238.162 132.546 238.162C129.738 238.162 127.668 236.182 127.668 233.05C127.668 229.936 129.666 227.974 132.546 227.974C135.408 227.974 137.28 229.99 137.28 232.69C137.28 233.05 137.262 233.338 137.226 233.68H129.342C129.468 235.678 130.872 236.776 132.546 236.776C134.022 236.776 134.958 236.02 135.318 234.958H137.082ZM141.08 229.954C141.674 228.91 142.97 227.974 144.77 227.974C147.416 227.974 149.45 229.954 149.45 233.032C149.45 236.092 147.416 238.162 144.77 238.162C142.97 238.162 141.692 237.19 141.08 236.182V242.68H139.442V228.136H141.08V229.954ZM147.776 233.032C147.776 230.71 146.246 229.396 144.428 229.396C142.646 229.396 141.08 230.764 141.08 233.05C141.08 235.372 142.646 236.722 144.428 236.722C146.246 236.722 147.776 235.354 147.776 233.032ZM153.244 232.636V238H151.606V228.136H153.244V229.738C153.802 228.64 154.864 227.956 156.43 227.956V229.648H155.998C154.432 229.648 153.244 230.35 153.244 232.636ZM162.515 229.36C160.913 229.36 159.581 230.422 159.401 232.348H165.629C165.647 230.422 164.207 229.36 162.515 229.36ZM167.123 234.958C166.619 236.758 165.035 238.162 162.587 238.162C159.779 238.162 157.709 236.182 157.709 233.05C157.709 229.936 159.707 227.974 162.587 227.974C165.449 227.974 167.321 229.99 167.321 232.69C167.321 233.05 167.303 233.338 167.267 233.68H159.383C159.509 235.678 160.913 236.776 162.587 236.776C164.063 236.776 164.999 236.02 165.359 234.958H167.123ZM176.701 238V232.42C176.701 230.404 175.603 229.378 173.947 229.378C172.273 229.378 171.121 230.422 171.121 232.546V238H169.483V228.136H171.121V229.54C171.769 228.514 172.957 227.956 174.289 227.956C176.575 227.956 178.321 229.36 178.321 232.186V238H176.701ZM185.19 229.36C183.588 229.36 182.256 230.422 182.076 232.348H188.304C188.322 230.422 186.882 229.36 185.19 229.36ZM189.798 234.958C189.294 236.758 187.71 238.162 185.262 238.162C182.454 238.162 180.384 236.182 180.384 233.05C180.384 229.936 182.382 227.974 185.262 227.974C188.124 227.974 189.996 229.99 189.996 232.69C189.996 233.05 189.978 233.338 189.942 233.68H182.058C182.184 235.678 183.588 236.776 185.262 236.776C186.738 236.776 187.674 236.02 188.034 234.958H189.798ZM200.906 228.136V238H199.268V236.542C198.638 237.568 197.432 238.144 196.118 238.144C193.85 238.144 192.068 236.74 192.068 233.914V228.136H193.688V233.698C193.688 235.696 194.786 236.722 196.442 236.722C198.134 236.722 199.268 235.678 199.268 233.554V228.136H200.906ZM205.31 232.636V238H203.672V228.136H205.31V229.738C205.868 228.64 206.93 227.956 208.496 227.956V229.648H208.064C206.498 229.648 205.31 230.35 205.31 232.636ZM210.387 238V228.136H212.025V238H210.387ZM211.233 226.534C210.603 226.534 210.117 226.048 210.117 225.418C210.117 224.788 210.603 224.302 211.233 224.302C211.827 224.302 212.313 224.788 212.313 225.418C212.313 226.048 211.827 226.534 211.233 226.534ZM214.205 233.032C214.205 229.954 216.239 227.974 218.885 227.974C220.721 227.974 221.981 228.91 222.557 229.936V228.136H224.213V238H222.557V236.164C221.963 237.226 220.685 238.162 218.867 238.162C216.239 238.162 214.205 236.092 214.205 233.032ZM222.557 233.05C222.557 230.764 221.009 229.396 219.209 229.396C217.409 229.396 215.879 230.71 215.879 233.032C215.879 235.354 217.409 236.722 219.209 236.722C221.009 236.722 222.557 235.372 222.557 233.05ZM226.981 238V224.68H228.619V238H226.981ZM237.091 226.534C236.479 226.534 235.993 226.048 235.993 225.418C235.993 224.788 236.479 224.302 237.091 224.302C237.703 224.302 238.189 224.788 238.189 225.418C238.189 226.048 237.703 226.534 237.091 226.534ZM236.263 228.136H237.901V240.142C237.901 241.924 236.965 242.68 235.291 242.68H234.337V241.294H235.021C235.921 241.294 236.263 240.97 236.263 240.106V228.136ZM250.034 233.05C250.034 236.182 247.784 238.162 244.976 238.162C242.186 238.162 240.062 236.182 240.062 233.05C240.062 229.936 242.258 227.974 245.048 227.974C247.856 227.974 250.034 229.936 250.034 233.05ZM241.736 233.05C241.736 235.552 243.266 236.722 244.976 236.722C246.686 236.722 248.36 235.552 248.36 233.05C248.36 230.566 246.722 229.396 245.03 229.396C243.302 229.396 241.736 230.566 241.736 233.05ZM260.936 228.136V238H259.298V236.542C258.668 237.568 257.462 238.144 256.148 238.144C253.88 238.144 252.098 236.74 252.098 233.914V228.136H253.718V233.698C253.718 235.696 254.816 236.722 256.472 236.722C258.164 236.722 259.298 235.678 259.298 233.554V228.136H260.936ZM265.339 232.636V238H263.701V228.136H265.339V229.738C265.897 228.64 266.959 227.956 268.525 227.956V229.648H268.093C266.527 229.648 265.339 230.35 265.339 232.636ZM277.634 238V232.42C277.634 230.404 276.536 229.378 274.88 229.378C273.206 229.378 272.054 230.422 272.054 232.546V238H270.416V228.136H272.054V229.54C272.702 228.514 273.89 227.956 275.222 227.956C277.508 227.956 279.254 229.36 279.254 232.186V238H277.634ZM286.124 229.36C284.522 229.36 283.19 230.422 283.01 232.348H289.238C289.256 230.422 287.816 229.36 286.124 229.36ZM290.732 234.958C290.228 236.758 288.644 238.162 286.196 238.162C283.388 238.162 281.318 236.182 281.318 233.05C281.318 229.936 283.316 227.974 286.196 227.974C289.058 227.974 290.93 229.99 290.93 232.69C290.93 233.05 290.912 233.338 290.876 233.68H282.992C283.118 235.678 284.522 236.776 286.196 236.776C287.672 236.776 288.608 236.02 288.968 234.958H290.732ZM296.836 236.128L299.896 228.136H301.588L295.648 242.644H293.956L295.9 237.892L291.922 228.136H293.74L296.836 236.128ZM317.393 233.05C317.393 236.182 315.143 238.162 312.335 238.162C309.545 238.162 307.421 236.182 307.421 233.05C307.421 229.936 309.617 227.974 312.407 227.974C315.215 227.974 317.393 229.936 317.393 233.05ZM309.095 233.05C309.095 235.552 310.625 236.722 312.335 236.722C314.045 236.722 315.719 235.552 315.719 233.05C315.719 230.566 314.081 229.396 312.389 229.396C310.661 229.396 309.095 230.566 309.095 233.05ZM319.853 238V229.486H318.575V228.136H319.853V227.434C319.853 225.238 320.933 224.248 323.453 224.248V225.616C321.977 225.616 321.491 226.156 321.491 227.434V228.136H323.561V229.486H321.491V238H319.853ZM147.923 262.3V256.486H146.645V255.136H147.923V252.652H149.561V255.136H152.135V256.486H149.561V262.3C149.561 263.272 149.921 263.614 150.929 263.614H152.135V265H150.659C148.913 265 147.923 264.28 147.923 262.3ZM154.119 265V251.68H155.757V256.558C156.405 255.514 157.629 254.956 159.015 254.956C161.211 254.956 162.957 256.36 162.957 259.186V265H161.337V259.42C161.337 257.404 160.239 256.378 158.583 256.378C156.909 256.378 155.757 257.422 155.757 259.546V265H154.119ZM169.827 256.36C168.225 256.36 166.893 257.422 166.713 259.348H172.941C172.959 257.422 171.519 256.36 169.827 256.36ZM174.435 261.958C173.931 263.758 172.347 265.162 169.899 265.162C167.091 265.162 165.021 263.182 165.021 260.05C165.021 256.936 167.019 254.974 169.899 254.974C172.761 254.974 174.633 256.99 174.633 259.69C174.633 260.05 174.615 260.338 174.579 260.68H166.695C166.821 262.678 168.225 263.776 169.899 263.776C171.375 263.776 172.311 263.02 172.671 261.958H174.435ZM176.795 265V255.136H178.433V265H176.795ZM177.641 253.534C177.011 253.534 176.525 253.048 176.525 252.418C176.525 251.788 177.011 251.302 177.641 251.302C178.235 251.302 178.721 251.788 178.721 252.418C178.721 253.048 178.235 253.534 177.641 253.534ZM182.863 259.636V265H181.225V255.136H182.863V256.738C183.421 255.64 184.483 254.956 186.049 254.956V256.648H185.617C184.051 256.648 182.863 257.35 182.863 259.636ZM192.127 260.05C192.127 256.954 194.125 254.974 196.933 254.974C199.381 254.974 200.983 256.234 201.487 258.304H199.723C199.381 257.116 198.391 256.36 196.933 256.36C195.133 256.36 193.801 257.638 193.801 260.05C193.801 262.498 195.133 263.776 196.933 263.776C198.391 263.776 199.363 263.074 199.723 261.832H201.487C200.983 263.794 199.381 265.162 196.933 265.162C194.125 265.162 192.127 263.182 192.127 260.05ZM203.672 265V251.68H205.31V256.558C205.958 255.514 207.182 254.956 208.568 254.956C210.764 254.956 212.51 256.36 212.51 259.186V265H210.89V259.42C210.89 257.404 209.792 256.378 208.136 256.378C206.462 256.378 205.31 257.422 205.31 259.546V265H203.672ZM215.186 265V255.136H216.824V265H215.186ZM216.032 253.534C215.402 253.534 214.916 253.048 214.916 252.418C214.916 251.788 215.402 251.302 216.032 251.302C216.626 251.302 217.112 251.788 217.112 252.418C217.112 253.048 216.626 253.534 216.032 253.534ZM219.615 265V251.68H221.253V265H219.615ZM223.433 260.032C223.433 256.954 225.467 254.974 228.131 254.974C229.679 254.974 231.101 255.766 231.785 256.9V251.68H233.441V265H231.785V263.146C231.191 264.244 229.913 265.162 228.113 265.162C225.467 265.162 223.433 263.092 223.433 260.032ZM231.785 260.05C231.785 257.764 230.237 256.396 228.437 256.396C226.637 256.396 225.107 257.71 225.107 260.032C225.107 262.354 226.637 263.722 228.437 263.722C230.237 263.722 231.785 262.372 231.785 260.05Z" fill="#474F62"/>
<path d="M148.278 172.198C147.721 172.198 147.295 172.044 147.002 171.736C146.709 171.428 146.562 170.995 146.562 170.438V158.228C146.562 157.656 146.709 157.223 147.002 156.93C147.31 156.637 147.743 156.49 148.3 156.49H153.646C155.377 156.49 156.711 156.93 157.65 157.81C158.589 158.675 159.058 159.885 159.058 161.44C159.058 162.995 158.589 164.212 157.65 165.092C156.711 165.972 155.377 166.412 153.646 166.412H149.972V170.438C149.972 170.995 149.825 171.428 149.532 171.736C149.253 172.044 148.835 172.198 148.278 172.198ZM149.972 163.772H153.074C153.954 163.772 154.621 163.574 155.076 163.178C155.545 162.782 155.78 162.203 155.78 161.44C155.78 160.677 155.545 160.105 155.076 159.724C154.621 159.343 153.954 159.152 153.074 159.152H149.972V163.772ZM162.387 172.198C161.829 172.198 161.404 172.051 161.111 171.758C160.817 171.465 160.671 171.047 160.671 170.504V162.694C160.671 162.151 160.81 161.741 161.089 161.462C161.382 161.169 161.785 161.022 162.299 161.022C162.827 161.022 163.23 161.169 163.509 161.462C163.787 161.741 163.927 162.151 163.927 162.694V163.838H163.707C163.883 162.958 164.271 162.276 164.873 161.792C165.474 161.308 166.251 161.037 167.205 160.978C167.571 160.949 167.85 161.044 168.041 161.264C168.246 161.469 168.356 161.814 168.371 162.298C168.4 162.753 168.305 163.112 168.085 163.376C167.879 163.64 167.527 163.801 167.029 163.86L166.523 163.904C165.687 163.977 165.063 164.219 164.653 164.63C164.257 165.041 164.059 165.635 164.059 166.412V170.504C164.059 171.047 163.912 171.465 163.619 171.758C163.34 172.051 162.929 172.198 162.387 172.198ZM174.736 172.242C173.577 172.242 172.565 172.015 171.7 171.56C170.849 171.105 170.189 170.453 169.72 169.602C169.25 168.751 169.016 167.747 169.016 166.588C169.016 165.723 169.148 164.945 169.412 164.256C169.676 163.567 170.057 162.98 170.556 162.496C171.069 161.997 171.678 161.623 172.382 161.374C173.086 161.11 173.87 160.978 174.736 160.978C175.894 160.978 176.899 161.205 177.75 161.66C178.615 162.115 179.282 162.76 179.752 163.596C180.236 164.432 180.478 165.429 180.478 166.588C180.478 167.468 180.338 168.253 180.06 168.942C179.796 169.631 179.414 170.225 178.916 170.724C178.417 171.223 177.808 171.604 177.09 171.868C176.386 172.117 175.601 172.242 174.736 172.242ZM174.736 169.756C175.22 169.756 175.638 169.639 175.99 169.404C176.342 169.169 176.62 168.825 176.826 168.37C177.031 167.901 177.134 167.307 177.134 166.588C177.134 165.517 176.914 164.733 176.474 164.234C176.034 163.721 175.454 163.464 174.736 163.464C174.266 163.464 173.848 163.574 173.482 163.794C173.13 164.014 172.851 164.359 172.646 164.828C172.455 165.283 172.36 165.869 172.36 166.588C172.36 167.659 172.58 168.458 173.02 168.986C173.46 169.499 174.032 169.756 174.736 169.756ZM184.215 172.198C183.672 172.198 183.254 172.051 182.961 171.758C182.682 171.465 182.543 171.047 182.543 170.504V162.694C182.543 162.151 182.682 161.741 182.961 161.462C183.254 161.169 183.657 161.022 184.171 161.022C184.699 161.022 185.102 161.169 185.381 161.462C185.659 161.741 185.799 162.151 185.799 162.694V164.102L185.557 163.222C185.85 162.547 186.305 162.005 186.921 161.594C187.537 161.183 188.263 160.978 189.099 160.978C189.935 160.978 190.631 161.176 191.189 161.572C191.746 161.968 192.142 162.577 192.377 163.398H192.069C192.391 162.65 192.883 162.063 193.543 161.638C194.217 161.198 194.987 160.978 195.853 160.978C196.689 160.978 197.371 161.147 197.899 161.484C198.441 161.807 198.845 162.305 199.109 162.98C199.373 163.64 199.505 164.483 199.505 165.51V170.504C199.505 171.047 199.358 171.465 199.065 171.758C198.786 172.051 198.383 172.198 197.855 172.198C197.312 172.198 196.894 172.051 196.601 171.758C196.322 171.465 196.183 171.047 196.183 170.504V165.62C196.183 164.901 196.065 164.381 195.831 164.058C195.611 163.721 195.229 163.552 194.687 163.552C194.056 163.552 193.565 163.772 193.213 164.212C192.861 164.652 192.685 165.275 192.685 166.082V170.504C192.685 171.047 192.538 171.465 192.245 171.758C191.966 172.051 191.563 172.198 191.035 172.198C190.507 172.198 190.096 172.051 189.803 171.758C189.509 171.465 189.363 171.047 189.363 170.504V165.62C189.363 164.901 189.245 164.381 189.011 164.058C188.791 163.721 188.409 163.552 187.867 163.552C187.236 163.552 186.745 163.772 186.393 164.212C186.041 164.652 185.865 165.275 185.865 166.082V170.504C185.865 171.633 185.315 172.198 184.215 172.198ZM207.241 172.242C206.083 172.242 205.071 172.015 204.205 171.56C203.355 171.105 202.695 170.453 202.225 169.602C201.756 168.751 201.521 167.747 201.521 166.588C201.521 165.723 201.653 164.945 201.917 164.256C202.181 163.567 202.563 162.98 203.061 162.496C203.575 161.997 204.183 161.623 204.887 161.374C205.591 161.11 206.376 160.978 207.241 160.978C208.4 160.978 209.405 161.205 210.255 161.66C211.121 162.115 211.788 162.76 212.257 163.596C212.741 164.432 212.983 165.429 212.983 166.588C212.983 167.468 212.844 168.253 212.565 168.942C212.301 169.631 211.92 170.225 211.421 170.724C210.923 171.223 210.314 171.604 209.595 171.868C208.891 172.117 208.107 172.242 207.241 172.242ZM207.241 169.756C207.725 169.756 208.143 169.639 208.495 169.404C208.847 169.169 209.126 168.825 209.331 168.37C209.537 167.901 209.639 167.307 209.639 166.588C209.639 165.517 209.419 164.733 208.979 164.234C208.539 163.721 207.96 163.464 207.241 163.464C206.772 163.464 206.354 163.574 205.987 163.794C205.635 164.014 205.357 164.359 205.151 164.828C204.961 165.283 204.865 165.869 204.865 166.588C204.865 167.659 205.085 168.458 205.525 168.986C205.965 169.499 206.537 169.756 207.241 169.756ZM220.199 172.242C219.187 172.242 218.336 172.073 217.647 171.736C216.972 171.399 216.466 170.907 216.129 170.262C215.806 169.617 215.645 168.803 215.645 167.82V163.684H214.721C214.31 163.684 213.988 163.574 213.753 163.354C213.533 163.134 213.423 162.833 213.423 162.452C213.423 162.041 213.533 161.733 213.753 161.528C213.988 161.308 214.31 161.198 214.721 161.198H215.645V159.526C215.645 158.969 215.792 158.551 216.085 158.272C216.378 157.979 216.789 157.832 217.317 157.832C217.86 157.832 218.27 157.979 218.549 158.272C218.828 158.551 218.967 158.969 218.967 159.526V161.198H221.057C221.468 161.198 221.783 161.308 222.003 161.528C222.223 161.733 222.333 162.041 222.333 162.452C222.333 162.833 222.223 163.134 222.003 163.354C221.783 163.574 221.468 163.684 221.057 163.684H218.967V167.688C218.967 168.304 219.106 168.766 219.385 169.074C219.678 169.382 220.14 169.536 220.771 169.536C220.991 169.536 221.196 169.514 221.387 169.47C221.578 169.426 221.754 169.397 221.915 169.382C222.12 169.367 222.289 169.433 222.421 169.58C222.553 169.712 222.619 170.013 222.619 170.482C222.619 170.834 222.56 171.142 222.443 171.406C222.326 171.67 222.12 171.861 221.827 171.978C221.636 172.051 221.372 172.11 221.035 172.154C220.712 172.213 220.434 172.242 220.199 172.242ZM229.294 172.242C228.018 172.242 226.918 172.015 225.994 171.56C225.085 171.091 224.381 170.438 223.882 169.602C223.398 168.751 223.156 167.754 223.156 166.61C223.156 165.495 223.391 164.52 223.86 163.684C224.33 162.833 224.982 162.173 225.818 161.704C226.669 161.22 227.63 160.978 228.7 160.978C229.478 160.978 230.182 161.11 230.812 161.374C231.443 161.623 231.986 161.99 232.44 162.474C232.895 162.943 233.24 163.523 233.474 164.212C233.709 164.887 233.826 165.642 233.826 166.478C233.826 166.757 233.738 166.969 233.562 167.116C233.386 167.248 233.13 167.314 232.792 167.314H225.884V165.598H231.428L231.076 165.906C231.076 165.305 230.988 164.806 230.812 164.41C230.636 163.999 230.38 163.691 230.042 163.486C229.72 163.281 229.316 163.178 228.832 163.178C228.29 163.178 227.828 163.303 227.446 163.552C227.065 163.801 226.772 164.161 226.566 164.63C226.361 165.099 226.258 165.664 226.258 166.324V166.5C226.258 167.615 226.515 168.436 227.028 168.964C227.556 169.492 228.334 169.756 229.36 169.756C229.712 169.756 230.116 169.712 230.57 169.624C231.025 169.536 231.45 169.397 231.846 169.206C232.184 169.045 232.484 168.993 232.748 169.052C233.012 169.096 233.218 169.213 233.364 169.404C233.511 169.595 233.592 169.815 233.606 170.064C233.636 170.313 233.584 170.563 233.452 170.812C233.32 171.047 233.1 171.245 232.792 171.406C232.294 171.685 231.729 171.89 231.098 172.022C230.482 172.169 229.881 172.242 229.294 172.242Z" fill="#04004D"/>
<defs>
<clipPath id="clip0_0_5281">
<rect width="40.5722" height="40.5722" fill="white" transform="translate(170.345 51)"/>
</clipPath>
</defs>
</svg>
