<svg width="102" height="116" viewBox="0 0 102 116" fill="none" xmlns="http://www.w3.org/2000/svg">
<path d="M87.9555 17.2784L53.1212 58.1629C52.0101 59.4692 49.9934 59.4692 48.8821 58.1629L14.0449 17.2812C13.1234 16.1995 13.1633 14.5994 14.1357 13.5656L25.5334 1.43871C26.0598 0.877868 26.7944 0.559981 27.5634 0.559981H45.0433L39.2176 15.4488L51.0002 48.6644L62.7825 15.4488L56.9568 0.557129H74.4367C75.206 0.557129 75.9406 0.875016 76.4667 1.43871L87.8645 13.563C88.8368 14.5994 88.8796 16.1966 87.9555 17.2784Z" fill="#B5DBFD"/>
<path d="M39.218 15.4491L39.9046 17.3857H14.1334L14.0453 17.2815C13.1237 16.1997 13.1637 14.5996 14.136 13.5659L14.3123 13.3789H40.0272L39.218 15.4491Z" fill="#8DCAFC"/>
<path d="M87.9553 17.2784L87.8645 17.3852H62.096L62.7823 15.4486L61.9731 13.3784H87.6908L87.8645 13.5628C88.8366 14.5994 88.8794 16.1966 87.9553 17.2784Z" fill="#8DCAFC"/>
<path d="M49.8941 45.5473L46.4375 55.297L39.9307 47.6602L28.4795 15.3822L34.2787 0.559998H45.0433L39.2176 15.4491L49.8941 45.5473Z" fill="#8DCAFC"/>
<path d="M87.9556 17.2789L53.1215 58.1626C52.0097 59.4695 49.9922 59.4695 48.8804 58.1626L47.1862 56.1731L80.3263 17.2789C81.2457 16.1976 81.2068 14.5984 80.2342 13.5617L68.8346 1.43767C68.3135 0.880461 67.589 0.562574 66.8283 0.557129H74.4355C75.2046 0.557129 75.9402 0.874757 76.4668 1.43767L87.8638 13.5617C88.8361 14.5984 88.8779 16.1979 87.9556 17.2789Z" fill="#8DCAFC"/>
<path d="M39.2175 15.4491L39.9038 17.3854H29.19L28.4793 15.3822L29.2621 13.3789H40.0267L39.2175 15.4491Z" fill="#4DB2F7"/>
<path d="M87.9555 17.2784L87.8647 17.3852H80.2359L80.3267 17.2784C81.2456 16.1966 81.2083 14.5991 80.2359 13.5628L80.0622 13.3784H87.691L87.8647 13.5628C88.8368 14.5994 88.8796 16.1966 87.9555 17.2784Z" fill="#4DB2F7"/>
<path d="M67.0573 15.3814L51.556 59.0878C51.191 59.1601 50.8121 59.1601 50.4471 59.0878L34.9429 15.3814L40.7417 0.559998H61.2589L67.0573 15.3814Z" fill="#64B9FC"/>
<path d="M67.0564 15.382L66.346 17.3853H35.652L34.9415 15.382L35.724 13.3788H66.2739L67.0564 15.382Z" fill="#31A7FB"/>
<path d="M67.0568 15.3814L51.5555 59.0878C51.1905 59.1601 50.8116 59.1601 50.4466 59.0878L47.7686 51.542L60.5948 15.3814L54.7961 0.559998H61.2581L67.0568 15.3814Z" fill="#31A7FB"/>
<path d="M67.0564 15.382L66.3459 17.3853H59.8845L60.5949 15.382L59.8124 13.3788H66.2739L67.0564 15.382Z" fill="#1C96F9"/>
<path d="M99.9967 17.3909C99.9947 17.3909 99.9928 17.3909 99.9908 17.3909L97.1676 17.3824C96.061 17.379 95.167 16.4793 95.1703 15.3732C95.1737 14.2686 96.0701 13.3759 97.1733 13.3759H97.1796L100.003 13.3844C101.109 13.3878 102.003 14.2875 102 15.3939C101.997 16.4979 101.1 17.3909 99.9967 17.3909Z" fill="#B5DBFD"/>
<path d="M95.9725 10.3262C95.2913 10.3262 94.6276 9.97871 94.2518 9.35175C93.6835 8.4025 93.992 7.17244 94.9413 6.60356L97.3903 5.13677C98.3387 4.56841 99.5693 4.87696 100.138 5.82621C100.707 6.77547 100.398 8.00553 99.449 8.57441L97 10.0412C96.6777 10.2344 96.3228 10.3262 95.9725 10.3262Z" fill="#B5DBFD"/>
<path d="M98.3711 25.9126C98.0169 25.9126 97.6585 25.8187 97.3334 25.6214L94.8927 24.1401C93.9468 23.5663 93.6455 22.3339 94.2196 21.388C94.7934 20.4421 96.0258 20.1411 96.9717 20.7149L99.4124 22.1962C100.358 22.77 100.66 24.0024 100.085 24.9483C99.7087 25.5693 99.0481 25.9126 98.3711 25.9126Z" fill="#B5DBFD"/>
<path d="M2.00327 17.3905C0.899479 17.3905 0.00338024 16.4975 9.49753e-06 15.3932C-0.00336125 14.2868 0.890924 13.3874 1.99731 13.3837L4.82044 13.3752H4.82666C5.93019 13.3752 6.82629 14.2682 6.82966 15.3725C6.83303 16.4789 5.93874 17.3783 4.83236 17.3817L2.00923 17.3903C2.00742 17.3905 2.00508 17.3905 2.00327 17.3905Z" fill="#B5DBFD"/>
<path d="M6.0278 10.3262C5.6775 10.3262 5.32279 10.2344 5.00024 10.0413L2.55126 8.57447C1.60201 8.00585 1.29345 6.77553 1.86181 5.82627C2.43069 4.87702 3.66101 4.56847 4.61001 5.13683L7.05898 6.60362C8.00824 7.17224 8.31679 8.40256 7.74843 9.35181C7.37272 9.97877 6.70895 10.3262 6.0278 10.3262Z" fill="#B5DBFD"/>
<path d="M3.62936 25.9125C2.95236 25.9125 2.29195 25.5694 1.91495 24.9484C1.34088 24.0025 1.64217 22.7704 2.58806 22.1963L5.02873 20.715C5.9741 20.1412 7.2065 20.442 7.78082 21.3881C8.35488 22.334 8.05359 23.5662 7.10771 24.1402L4.66703 25.6215C4.34214 25.8186 3.98355 25.9125 3.62936 25.9125Z" fill="#B5DBFD"/>
<path d="M50.7408 59.0237L58.5194 80.4746H42.9621V59.0237H50.7408Z" fill="#FFBB33"/>
<path d="M50.7409 59.0238H58.5196V80.4747H50.7409V59.0238Z" fill="#FF8C1A"/>
<path d="M42.9619 76.5852C32.1833 76.5852 23.4142 85.3543 23.4142 96.1329H50.7406L58.5192 86.3591L50.7406 76.5852H42.9619Z" fill="#FFDD33"/>
<path d="M78.0672 96.1329H50.7408V76.5852H58.5195C69.2981 76.5852 78.0672 85.3543 78.0672 96.1329Z" fill="#FFBB33"/>
<path d="M13.144 92.2436V111.792H50.7407L58.5194 102.017L50.7407 92.2436H13.144Z" fill="#638293"/>
<path d="M50.7409 92.2435H88.3376V111.792H50.7409V92.2435Z" fill="#375363"/>
<path d="M5.36564 107.902V115.681H50.7411L58.5197 111.792L50.7411 107.902H5.36564Z" fill="#375363"/>
<path d="M50.7409 107.902H96.1163V115.681H50.7409V107.902Z" fill="#1B323A"/>
</svg>
