<svg width="460" height="371" viewBox="0 0 460 371" fill="none" xmlns="http://www.w3.org/2000/svg">
<g filter="url(#filter0_d_0_4754)">
<rect x="80" y="35.5571" width="300" height="210" rx="12" fill="white"/>
<rect x="80.5" y="36.0571" width="299" height="209" rx="11.5" stroke="#F3F3F3"/>
</g>
<path d="M132.9 214.557C132.46 214.557 132.12 214.444 131.88 214.217C131.653 213.977 131.54 213.637 131.54 213.197V201.817C131.54 201.377 131.653 201.044 131.88 200.817C132.12 200.577 132.46 200.457 132.9 200.457H136.78C139.14 200.457 140.96 201.064 142.24 202.277C143.533 203.49 144.18 205.23 144.18 207.497C144.18 208.63 144.013 209.637 143.68 210.517C143.36 211.384 142.88 212.117 142.24 212.717C141.613 213.317 140.84 213.777 139.92 214.097C139.013 214.404 137.967 214.557 136.78 214.557H132.9ZM134.1 212.437H136.62C137.447 212.437 138.16 212.337 138.76 212.137C139.373 211.924 139.88 211.617 140.28 211.217C140.693 210.804 141 210.29 141.2 209.677C141.4 209.05 141.5 208.324 141.5 207.497C141.5 205.844 141.093 204.61 140.28 203.797C139.467 202.984 138.247 202.577 136.62 202.577H134.1V212.437ZM147.774 214.697C147.374 214.697 147.068 214.577 146.854 214.337C146.641 214.097 146.534 213.764 146.534 213.337V205.997C146.534 205.557 146.641 205.224 146.854 204.997C147.068 204.757 147.374 204.637 147.774 204.637C148.174 204.637 148.481 204.757 148.694 204.997C148.921 205.224 149.034 205.557 149.034 205.997V213.337C149.034 213.764 148.928 214.097 148.714 214.337C148.501 214.577 148.188 214.697 147.774 214.697ZM147.774 202.777C147.308 202.777 146.941 202.664 146.674 202.437C146.421 202.197 146.294 201.87 146.294 201.457C146.294 201.03 146.421 200.704 146.674 200.477C146.941 200.25 147.308 200.137 147.774 200.137C148.254 200.137 148.621 200.25 148.874 200.477C149.128 200.704 149.254 201.03 149.254 201.457C149.254 201.87 149.128 202.197 148.874 202.437C148.621 202.664 148.254 202.777 147.774 202.777ZM154.852 214.757C154.145 214.757 153.512 214.624 152.952 214.357C152.405 214.077 151.972 213.704 151.652 213.237C151.345 212.77 151.192 212.244 151.192 211.657C151.192 210.937 151.379 210.37 151.752 209.957C152.125 209.53 152.732 209.224 153.572 209.037C154.412 208.85 155.539 208.757 156.952 208.757H157.952V210.197H156.972C156.145 210.197 155.485 210.237 154.992 210.317C154.499 210.397 154.145 210.537 153.932 210.737C153.732 210.924 153.632 211.19 153.632 211.537C153.632 211.977 153.785 212.337 154.092 212.617C154.399 212.897 154.825 213.037 155.372 213.037C155.812 213.037 156.199 212.937 156.532 212.737C156.879 212.524 157.152 212.237 157.352 211.877C157.552 211.517 157.652 211.104 157.652 210.637V208.337C157.652 207.67 157.505 207.19 157.212 206.897C156.919 206.604 156.425 206.457 155.732 206.457C155.345 206.457 154.925 206.504 154.472 206.597C154.032 206.69 153.565 206.85 153.072 207.077C152.819 207.197 152.592 207.23 152.392 207.177C152.205 207.124 152.059 207.017 151.952 206.857C151.845 206.684 151.792 206.497 151.792 206.297C151.792 206.097 151.845 205.904 151.952 205.717C152.059 205.517 152.239 205.37 152.492 205.277C153.105 205.024 153.692 204.844 154.252 204.737C154.825 204.63 155.345 204.577 155.812 204.577C156.772 204.577 157.559 204.724 158.172 205.017C158.799 205.31 159.265 205.757 159.572 206.357C159.879 206.944 160.032 207.704 160.032 208.637V213.437C160.032 213.85 159.932 214.17 159.732 214.397C159.532 214.61 159.245 214.717 158.872 214.717C158.499 214.717 158.205 214.61 157.992 214.397C157.792 214.17 157.692 213.85 157.692 213.437V212.477H157.852C157.759 212.944 157.572 213.35 157.292 213.697C157.025 214.03 156.685 214.29 156.272 214.477C155.859 214.664 155.385 214.757 154.852 214.757ZM163.85 214.717C163.45 214.717 163.143 214.61 162.93 214.397C162.716 214.17 162.61 213.85 162.61 213.437V205.877C162.61 205.464 162.716 205.15 162.93 204.937C163.143 204.724 163.443 204.617 163.83 204.617C164.216 204.617 164.516 204.724 164.73 204.937C164.943 205.15 165.05 205.464 165.05 205.877V207.337L164.83 206.737C165.096 206.07 165.51 205.544 166.07 205.157C166.63 204.77 167.296 204.577 168.07 204.577C168.856 204.577 169.503 204.764 170.01 205.137C170.516 205.51 170.87 206.084 171.07 206.857H170.79C171.056 206.15 171.496 205.597 172.11 205.197C172.723 204.784 173.43 204.577 174.23 204.577C174.976 204.577 175.59 204.724 176.07 205.017C176.563 205.31 176.93 205.757 177.17 206.357C177.41 206.944 177.53 207.69 177.53 208.597V213.437C177.53 213.85 177.416 214.17 177.19 214.397C176.976 214.61 176.67 214.717 176.27 214.717C175.87 214.717 175.563 214.61 175.35 214.397C175.136 214.17 175.03 213.85 175.03 213.437V208.697C175.03 207.95 174.903 207.404 174.65 207.057C174.41 206.71 173.996 206.537 173.41 206.537C172.756 206.537 172.243 206.77 171.87 207.237C171.496 207.69 171.31 208.324 171.31 209.137V213.437C171.31 213.85 171.203 214.17 170.99 214.397C170.776 214.61 170.47 214.717 170.07 214.717C169.67 214.717 169.356 214.61 169.13 214.397C168.916 214.17 168.81 213.85 168.81 213.437V208.697C168.81 207.95 168.683 207.404 168.43 207.057C168.19 206.71 167.783 206.537 167.21 206.537C166.556 206.537 166.043 206.77 165.67 207.237C165.296 207.69 165.11 208.324 165.11 209.137V213.437C165.11 214.29 164.69 214.717 163.85 214.717ZM184.569 214.757C183.555 214.757 182.675 214.55 181.929 214.137C181.182 213.724 180.602 213.137 180.189 212.377C179.775 211.604 179.569 210.697 179.569 209.657C179.569 208.87 179.682 208.17 179.909 207.557C180.149 206.93 180.489 206.397 180.929 205.957C181.369 205.504 181.895 205.164 182.509 204.937C183.122 204.697 183.809 204.577 184.569 204.577C185.582 204.577 186.462 204.784 187.209 205.197C187.955 205.61 188.535 206.197 188.949 206.957C189.362 207.717 189.569 208.617 189.569 209.657C189.569 210.444 189.449 211.15 189.209 211.777C188.982 212.404 188.649 212.944 188.209 213.397C187.769 213.837 187.242 214.177 186.629 214.417C186.015 214.644 185.329 214.757 184.569 214.757ZM184.569 212.857C185.062 212.857 185.495 212.737 185.869 212.497C186.242 212.257 186.529 211.904 186.729 211.437C186.942 210.957 187.049 210.364 187.049 209.657C187.049 208.59 186.822 207.797 186.369 207.277C185.915 206.744 185.315 206.477 184.569 206.477C184.075 206.477 183.642 206.597 183.269 206.837C182.895 207.064 182.602 207.417 182.389 207.897C182.189 208.364 182.089 208.95 182.089 209.657C182.089 210.71 182.315 211.51 182.769 212.057C183.222 212.59 183.822 212.857 184.569 212.857ZM192.872 214.717C192.472 214.717 192.165 214.61 191.952 214.397C191.739 214.17 191.632 213.85 191.632 213.437V205.877C191.632 205.464 191.739 205.15 191.952 204.937C192.165 204.724 192.465 204.617 192.852 204.617C193.239 204.617 193.539 204.724 193.752 204.937C193.965 205.15 194.072 205.464 194.072 205.877V207.237L193.852 206.737C194.145 206.03 194.599 205.497 195.212 205.137C195.839 204.764 196.545 204.577 197.332 204.577C198.119 204.577 198.765 204.724 199.272 205.017C199.779 205.31 200.159 205.757 200.412 206.357C200.665 206.944 200.792 207.69 200.792 208.597V213.437C200.792 213.85 200.685 214.17 200.472 214.397C200.259 214.61 199.952 214.717 199.552 214.717C199.152 214.717 198.839 214.61 198.612 214.397C198.399 214.17 198.292 213.85 198.292 213.437V208.717C198.292 207.957 198.145 207.404 197.852 207.057C197.572 206.71 197.132 206.537 196.532 206.537C195.799 206.537 195.212 206.77 194.772 207.237C194.345 207.69 194.132 208.297 194.132 209.057V213.437C194.132 214.29 193.712 214.717 192.872 214.717ZM207.091 214.757C206.238 214.757 205.485 214.55 204.831 214.137C204.191 213.724 203.691 213.137 203.331 212.377C202.971 211.604 202.791 210.697 202.791 209.657C202.791 208.604 202.971 207.704 203.331 206.957C203.691 206.197 204.191 205.61 204.831 205.197C205.485 204.784 206.238 204.577 207.091 204.577C207.905 204.577 208.611 204.777 209.211 205.177C209.825 205.577 210.238 206.104 210.451 206.757H210.231V201.557C210.231 201.144 210.338 200.83 210.551 200.617C210.765 200.404 211.071 200.297 211.471 200.297C211.871 200.297 212.178 200.404 212.391 200.617C212.618 200.83 212.731 201.144 212.731 201.557V213.437C212.731 213.85 212.625 214.17 212.411 214.397C212.198 214.61 211.891 214.717 211.491 214.717C211.091 214.717 210.785 214.61 210.571 214.397C210.358 214.17 210.251 213.85 210.251 213.437V211.877L210.471 212.477C210.271 213.17 209.865 213.724 209.251 214.137C208.638 214.55 207.918 214.757 207.091 214.757ZM207.791 212.857C208.285 212.857 208.718 212.737 209.091 212.497C209.465 212.257 209.751 211.904 209.951 211.437C210.165 210.957 210.271 210.364 210.271 209.657C210.271 208.59 210.045 207.797 209.591 207.277C209.138 206.744 208.538 206.477 207.791 206.477C207.298 206.477 206.865 206.597 206.491 206.837C206.118 207.064 205.825 207.417 205.611 207.897C205.411 208.364 205.311 208.95 205.311 209.657C205.311 210.71 205.538 211.51 205.991 212.057C206.445 212.59 207.045 212.857 207.791 212.857ZM225.853 214.757C225.266 214.757 224.68 214.71 224.093 214.617C223.506 214.537 222.953 214.41 222.433 214.237C221.913 214.05 221.446 213.824 221.033 213.557C220.793 213.397 220.626 213.204 220.533 212.977C220.44 212.75 220.406 212.53 220.433 212.317C220.473 212.09 220.56 211.897 220.693 211.737C220.84 211.564 221.02 211.457 221.233 211.417C221.446 211.377 221.68 211.437 221.933 211.597C222.52 211.944 223.14 212.197 223.793 212.357C224.446 212.517 225.133 212.597 225.853 212.597C226.906 212.597 227.673 212.424 228.153 212.077C228.633 211.717 228.873 211.257 228.873 210.697C228.873 210.23 228.7 209.864 228.353 209.597C228.02 209.33 227.44 209.11 226.613 208.937L224.413 208.477C223.146 208.21 222.2 207.764 221.573 207.137C220.96 206.497 220.653 205.657 220.653 204.617C220.653 203.964 220.786 203.37 221.053 202.837C221.32 202.304 221.693 201.844 222.173 201.457C222.666 201.07 223.246 200.777 223.913 200.577C224.593 200.364 225.34 200.257 226.153 200.257C226.953 200.257 227.713 200.357 228.433 200.557C229.153 200.757 229.8 201.05 230.373 201.437C230.586 201.584 230.726 201.764 230.793 201.977C230.873 202.19 230.893 202.404 230.853 202.617C230.813 202.817 230.72 202.99 230.573 203.137C230.426 203.284 230.24 203.37 230.013 203.397C229.8 203.424 229.553 203.357 229.273 203.197C228.78 202.917 228.28 202.717 227.773 202.597C227.266 202.477 226.72 202.417 226.133 202.417C225.52 202.417 224.993 202.504 224.553 202.677C224.113 202.85 223.773 203.097 223.533 203.417C223.306 203.724 223.193 204.09 223.193 204.517C223.193 204.997 223.353 205.384 223.673 205.677C223.993 205.957 224.54 206.177 225.313 206.337L227.493 206.797C228.813 207.077 229.793 207.517 230.433 208.117C231.086 208.717 231.413 209.517 231.413 210.517C231.413 211.157 231.28 211.737 231.013 212.257C230.76 212.777 230.386 213.224 229.893 213.597C229.413 213.97 228.833 214.257 228.153 214.457C227.473 214.657 226.706 214.757 225.853 214.757ZM237.753 214.757C236.886 214.757 236.159 214.61 235.573 214.317C234.999 214.024 234.573 213.597 234.293 213.037C234.013 212.464 233.873 211.757 233.873 210.917V206.657H232.833C232.513 206.657 232.266 206.577 232.093 206.417C231.919 206.244 231.833 206.01 231.833 205.717C231.833 205.41 231.919 205.177 232.093 205.017C232.266 204.857 232.513 204.777 232.833 204.777H233.873V202.957C233.873 202.544 233.979 202.23 234.193 202.017C234.419 201.804 234.733 201.697 235.133 201.697C235.533 201.697 235.839 201.804 236.053 202.017C236.266 202.23 236.373 202.544 236.373 202.957V204.777H238.493C238.813 204.777 239.059 204.857 239.233 205.017C239.406 205.177 239.493 205.41 239.493 205.717C239.493 206.01 239.406 206.244 239.233 206.417C239.059 206.577 238.813 206.657 238.493 206.657H236.373V210.777C236.373 211.417 236.513 211.897 236.793 212.217C237.073 212.537 237.526 212.697 238.153 212.697C238.379 212.697 238.579 212.677 238.753 212.637C238.926 212.597 239.079 212.57 239.213 212.557C239.373 212.544 239.506 212.597 239.613 212.717C239.719 212.824 239.773 213.05 239.773 213.397C239.773 213.664 239.726 213.904 239.633 214.117C239.553 214.317 239.399 214.457 239.173 214.537C238.999 214.59 238.773 214.637 238.493 214.677C238.213 214.73 237.966 214.757 237.753 214.757ZM244.168 214.757C243.462 214.757 242.828 214.624 242.268 214.357C241.722 214.077 241.288 213.704 240.968 213.237C240.662 212.77 240.508 212.244 240.508 211.657C240.508 210.937 240.695 210.37 241.068 209.957C241.442 209.53 242.048 209.224 242.888 209.037C243.728 208.85 244.855 208.757 246.268 208.757H247.268V210.197H246.288C245.462 210.197 244.802 210.237 244.308 210.317C243.815 210.397 243.462 210.537 243.248 210.737C243.048 210.924 242.948 211.19 242.948 211.537C242.948 211.977 243.102 212.337 243.408 212.617C243.715 212.897 244.142 213.037 244.688 213.037C245.128 213.037 245.515 212.937 245.848 212.737C246.195 212.524 246.468 212.237 246.668 211.877C246.868 211.517 246.968 211.104 246.968 210.637V208.337C246.968 207.67 246.822 207.19 246.528 206.897C246.235 206.604 245.742 206.457 245.048 206.457C244.662 206.457 244.242 206.504 243.788 206.597C243.348 206.69 242.882 206.85 242.388 207.077C242.135 207.197 241.908 207.23 241.708 207.177C241.522 207.124 241.375 207.017 241.268 206.857C241.162 206.684 241.108 206.497 241.108 206.297C241.108 206.097 241.162 205.904 241.268 205.717C241.375 205.517 241.555 205.37 241.808 205.277C242.422 205.024 243.008 204.844 243.568 204.737C244.142 204.63 244.662 204.577 245.128 204.577C246.088 204.577 246.875 204.724 247.488 205.017C248.115 205.31 248.582 205.757 248.888 206.357C249.195 206.944 249.348 207.704 249.348 208.637V213.437C249.348 213.85 249.248 214.17 249.048 214.397C248.848 214.61 248.562 214.717 248.188 214.717C247.815 214.717 247.522 214.61 247.308 214.397C247.108 214.17 247.008 213.85 247.008 213.437V212.477H247.168C247.075 212.944 246.888 213.35 246.608 213.697C246.342 214.03 246.002 214.29 245.588 214.477C245.175 214.664 244.702 214.757 244.168 214.757ZM253.166 214.717C252.753 214.717 252.433 214.61 252.206 214.397C251.993 214.17 251.886 213.85 251.886 213.437V205.877C251.886 205.464 251.993 205.15 252.206 204.937C252.419 204.724 252.719 204.617 253.106 204.617C253.493 204.617 253.793 204.724 254.006 204.937C254.219 205.15 254.326 205.464 254.326 205.877V207.137H254.126C254.313 206.337 254.679 205.73 255.226 205.317C255.773 204.904 256.499 204.657 257.406 204.577C257.686 204.55 257.906 204.624 258.066 204.797C258.239 204.957 258.339 205.21 258.366 205.557C258.393 205.89 258.313 206.164 258.126 206.377C257.953 206.577 257.686 206.697 257.326 206.737L256.886 206.777C256.073 206.857 255.459 207.11 255.046 207.537C254.633 207.95 254.426 208.537 254.426 209.297V213.437C254.426 213.85 254.319 214.17 254.106 214.397C253.893 214.61 253.579 214.717 253.166 214.717ZM265.528 214.717C265.208 214.717 264.948 214.644 264.748 214.497C264.561 214.35 264.448 214.157 264.408 213.917C264.368 213.664 264.414 213.384 264.548 213.077L269.828 201.377C270.001 200.99 270.208 200.717 270.448 200.557C270.701 200.384 270.988 200.297 271.308 200.297C271.614 200.297 271.888 200.384 272.128 200.557C272.381 200.717 272.594 200.99 272.768 201.377L278.068 213.077C278.214 213.384 278.268 213.664 278.228 213.917C278.188 214.17 278.074 214.37 277.888 214.517C277.701 214.65 277.454 214.717 277.148 214.717C276.774 214.717 276.481 214.63 276.268 214.457C276.068 214.27 275.888 213.99 275.728 213.617L274.428 210.597L275.508 211.297H267.068L268.148 210.597L266.868 213.617C266.694 214.004 266.514 214.284 266.328 214.457C266.141 214.63 265.874 214.717 265.528 214.717ZM271.268 203.237L268.468 209.897L267.948 209.257H274.628L274.128 209.897L271.308 203.237H271.268ZM283.57 214.757C282.757 214.757 282.084 214.61 281.55 214.317C281.017 214.01 280.617 213.557 280.35 212.957C280.097 212.357 279.97 211.61 279.97 210.717V205.877C279.97 205.45 280.077 205.137 280.29 204.937C280.504 204.724 280.81 204.617 281.21 204.617C281.61 204.617 281.917 204.724 282.13 204.937C282.357 205.137 282.47 205.45 282.47 205.877V210.757C282.47 211.45 282.61 211.964 282.89 212.297C283.17 212.63 283.617 212.797 284.23 212.797C284.897 212.797 285.444 212.57 285.87 212.117C286.297 211.65 286.51 211.037 286.51 210.277V205.877C286.51 205.45 286.617 205.137 286.83 204.937C287.044 204.724 287.35 204.617 287.75 204.617C288.15 204.617 288.457 204.724 288.67 204.937C288.897 205.137 289.01 205.45 289.01 205.877V213.437C289.01 214.29 288.604 214.717 287.79 214.717C287.404 214.717 287.104 214.61 286.89 214.397C286.677 214.17 286.57 213.85 286.57 213.437V211.917L286.85 212.517C286.57 213.237 286.144 213.79 285.57 214.177C285.01 214.564 284.344 214.757 283.57 214.757ZM296.093 214.757C295.226 214.757 294.499 214.61 293.913 214.317C293.339 214.024 292.913 213.597 292.633 213.037C292.353 212.464 292.213 211.757 292.213 210.917V206.657H291.173C290.853 206.657 290.606 206.577 290.433 206.417C290.259 206.244 290.172 206.01 290.172 205.717C290.172 205.41 290.259 205.177 290.433 205.017C290.606 204.857 290.853 204.777 291.173 204.777H292.213V202.957C292.213 202.544 292.319 202.23 292.533 202.017C292.759 201.804 293.073 201.697 293.473 201.697C293.873 201.697 294.179 201.804 294.393 202.017C294.606 202.23 294.713 202.544 294.713 202.957V204.777H296.833C297.153 204.777 297.399 204.857 297.573 205.017C297.746 205.177 297.833 205.41 297.833 205.717C297.833 206.01 297.746 206.244 297.573 206.417C297.399 206.577 297.153 206.657 296.833 206.657H294.713V210.777C294.713 211.417 294.853 211.897 295.133 212.217C295.413 212.537 295.866 212.697 296.493 212.697C296.719 212.697 296.919 212.677 297.093 212.637C297.266 212.597 297.419 212.57 297.553 212.557C297.713 212.544 297.846 212.597 297.953 212.717C298.059 212.824 298.113 213.05 298.113 213.397C298.113 213.664 298.066 213.904 297.973 214.117C297.893 214.317 297.739 214.457 297.513 214.537C297.339 214.59 297.113 214.637 296.833 214.677C296.553 214.73 296.306 214.757 296.093 214.757ZM300.782 214.717C300.382 214.717 300.076 214.61 299.862 214.397C299.649 214.17 299.542 213.85 299.542 213.437V201.557C299.542 201.144 299.649 200.83 299.862 200.617C300.076 200.404 300.382 200.297 300.782 200.297C301.182 200.297 301.489 200.404 301.702 200.617C301.929 200.83 302.042 201.144 302.042 201.557V206.737H301.762C302.056 206.03 302.509 205.497 303.122 205.137C303.749 204.764 304.456 204.577 305.242 204.577C306.029 204.577 306.676 204.724 307.182 205.017C307.689 205.31 308.069 205.757 308.322 206.357C308.576 206.944 308.702 207.69 308.702 208.597V213.437C308.702 213.85 308.596 214.17 308.382 214.397C308.169 214.61 307.862 214.717 307.462 214.717C307.062 214.717 306.749 214.61 306.522 214.397C306.309 214.17 306.202 213.85 306.202 213.437V208.717C306.202 207.957 306.056 207.404 305.762 207.057C305.482 206.71 305.042 206.537 304.442 206.537C303.709 206.537 303.122 206.77 302.682 207.237C302.256 207.69 302.042 208.297 302.042 209.057V213.437C302.042 214.29 301.622 214.717 300.782 214.717ZM315.701 214.757C314.688 214.757 313.808 214.55 313.061 214.137C312.315 213.724 311.735 213.137 311.321 212.377C310.908 211.604 310.701 210.697 310.701 209.657C310.701 208.87 310.815 208.17 311.041 207.557C311.281 206.93 311.621 206.397 312.061 205.957C312.501 205.504 313.028 205.164 313.641 204.937C314.255 204.697 314.941 204.577 315.701 204.577C316.715 204.577 317.595 204.784 318.341 205.197C319.088 205.61 319.668 206.197 320.081 206.957C320.495 207.717 320.701 208.617 320.701 209.657C320.701 210.444 320.581 211.15 320.341 211.777C320.115 212.404 319.781 212.944 319.341 213.397C318.901 213.837 318.375 214.177 317.761 214.417C317.148 214.644 316.461 214.757 315.701 214.757ZM315.701 212.857C316.195 212.857 316.628 212.737 317.001 212.497C317.375 212.257 317.661 211.904 317.861 211.437C318.075 210.957 318.181 210.364 318.181 209.657C318.181 208.59 317.955 207.797 317.501 207.277C317.048 206.744 316.448 206.477 315.701 206.477C315.208 206.477 314.775 206.597 314.401 206.837C314.028 207.064 313.735 207.417 313.521 207.897C313.321 208.364 313.221 208.95 313.221 209.657C313.221 210.71 313.448 211.51 313.901 212.057C314.355 212.59 314.955 212.857 315.701 212.857ZM324.045 214.717C323.632 214.717 323.312 214.61 323.085 214.397C322.872 214.17 322.765 213.85 322.765 213.437V205.877C322.765 205.464 322.872 205.15 323.085 204.937C323.298 204.724 323.598 204.617 323.985 204.617C324.372 204.617 324.672 204.724 324.885 204.937C325.098 205.15 325.205 205.464 325.205 205.877V207.137H325.005C325.192 206.337 325.558 205.73 326.105 205.317C326.652 204.904 327.378 204.657 328.285 204.577C328.565 204.55 328.785 204.624 328.945 204.797C329.118 204.957 329.218 205.21 329.245 205.557C329.272 205.89 329.192 206.164 329.005 206.377C328.832 206.577 328.565 206.697 328.205 206.737L327.765 206.777C326.952 206.857 326.338 207.11 325.925 207.537C325.512 207.95 325.305 208.537 325.305 209.297V213.437C325.305 213.85 325.198 214.17 324.985 214.397C324.772 214.61 324.458 214.717 324.045 214.717Z" fill="black"/>
<path d="M266.955 81.2784L232.121 122.163C231.01 123.469 228.993 123.469 227.882 122.163L193.045 81.2812C192.123 80.1995 192.163 78.5994 193.136 77.5656L204.533 65.4387C205.06 64.8779 205.794 64.56 206.563 64.56H224.043L218.218 79.4488L230 112.664L241.783 79.4488L235.957 64.5571H253.437C254.206 64.5571 254.941 64.875 255.467 65.4387L266.864 77.563C267.837 78.5994 267.88 80.1966 266.955 81.2784Z" fill="#B5DBFD"/>
<path d="M218.218 79.4491L218.905 81.3857H193.133L193.045 81.2815C192.124 80.1997 192.164 78.5996 193.136 77.5659L193.312 77.3789H219.027L218.218 79.4491Z" fill="#8DCAFC"/>
<path d="M266.955 81.2784L266.865 81.3852H241.096L241.782 79.4486L240.973 77.3784H266.691L266.865 77.5628C267.837 78.5994 267.879 80.1966 266.955 81.2784Z" fill="#8DCAFC"/>
<path d="M228.894 109.547L225.438 119.297L218.931 111.66L207.479 79.3822L213.279 64.56H224.043L218.218 79.4491L228.894 109.547Z" fill="#8DCAFC"/>
<path d="M266.956 81.2789L232.122 122.163C231.01 123.469 228.992 123.469 227.88 122.163L226.186 120.173L259.326 81.2789C260.246 80.1976 260.207 78.5984 259.234 77.5617L247.835 65.4377C247.313 64.8805 246.589 64.5626 245.828 64.5571H253.436C254.205 64.5571 254.94 64.8748 255.467 65.4377L266.864 77.5617C267.836 78.5984 267.878 80.1979 266.956 81.2789Z" fill="#8DCAFC"/>
<path d="M218.217 79.4491L218.904 81.3854H208.19L207.479 79.3822L208.262 77.3789H219.027L218.217 79.4491Z" fill="#4DB2F7"/>
<path d="M266.955 81.2784L266.865 81.3852H259.236L259.327 81.2784C260.246 80.1966 260.208 78.5991 259.236 77.5628L259.062 77.3784H266.691L266.865 77.5628C267.837 78.5994 267.88 80.1966 266.955 81.2784Z" fill="#4DB2F7"/>
<path d="M246.057 79.3814L230.556 123.088C230.191 123.16 229.812 123.16 229.447 123.088L213.943 79.3814L219.742 64.56H240.259L246.057 79.3814Z" fill="#64B9FC"/>
<path d="M246.056 79.382L245.346 81.3853H214.652L213.942 79.382L214.724 77.3788H245.274L246.056 79.382Z" fill="#31A7FB"/>
<path d="M246.057 79.3814L230.556 123.088C230.19 123.16 229.812 123.16 229.447 123.088L226.769 115.542L239.595 79.3814L233.796 64.56H240.258L246.057 79.3814Z" fill="#31A7FB"/>
<path d="M246.056 79.382L245.346 81.3853H238.884L239.595 79.382L238.812 77.3788H245.274L246.056 79.382Z" fill="#1C96F9"/>
<path d="M278.997 81.3909C278.995 81.3909 278.993 81.3909 278.991 81.3909L276.168 81.3824C275.061 81.379 274.167 80.4793 274.17 79.3732C274.174 78.2686 275.07 77.3759 276.173 77.3759H276.18L279.003 77.3844C280.109 77.3878 281.003 78.2875 281 79.3939C280.997 80.4979 280.1 81.3909 278.997 81.3909Z" fill="#B5DBFD"/>
<path d="M274.972 74.3262C274.291 74.3262 273.628 73.9787 273.252 73.3518C272.683 72.4025 272.992 71.1724 273.941 70.6036L276.39 69.1368C277.339 68.5684 278.569 68.877 279.138 69.8262C279.707 70.7755 279.398 72.0055 278.449 72.5744L276 74.0412C275.678 74.2344 275.323 74.3262 274.972 74.3262Z" fill="#B5DBFD"/>
<path d="M277.371 89.9126C277.017 89.9126 276.659 89.8187 276.333 89.6214L273.893 88.1401C272.947 87.5663 272.646 86.3339 273.22 85.388C273.793 84.4421 275.026 84.1411 275.972 84.7149L278.412 86.1962C279.358 86.77 279.66 88.0024 279.085 88.9483C278.709 89.5693 278.048 89.9126 277.371 89.9126Z" fill="#B5DBFD"/>
<path d="M181.003 81.3905C179.899 81.3905 179.003 80.4975 179 79.3932C178.997 78.2868 179.891 77.3874 180.997 77.3837L183.82 77.3752H183.827C184.93 77.3752 185.826 78.2682 185.83 79.3725C185.833 80.4789 184.939 81.3783 183.832 81.3817L181.009 81.3903C181.007 81.3905 181.005 81.3905 181.003 81.3905Z" fill="#B5DBFD"/>
<path d="M185.028 74.3262C184.677 74.3262 184.323 74.2344 184 74.0413L181.551 72.5745C180.602 72.0058 180.293 70.7755 180.862 69.8263C181.431 68.877 182.661 68.5685 183.61 69.1368L186.059 70.6036C187.008 71.1722 187.317 72.4026 186.748 73.3518C186.373 73.9788 185.709 74.3262 185.028 74.3262Z" fill="#B5DBFD"/>
<path d="M182.629 89.9125C181.952 89.9125 181.292 89.5694 180.915 88.9484C180.341 88.0025 180.642 86.7704 181.588 86.1963L184.029 84.715C184.974 84.1412 186.206 84.442 186.781 85.3881C187.355 86.334 187.054 87.5662 186.108 88.1402L183.667 89.6215C183.342 89.8186 182.984 89.9125 182.629 89.9125Z" fill="#B5DBFD"/>
<path d="M229.741 123.024L237.519 144.475H221.962V123.024H229.741Z" fill="#FFBB33"/>
<path d="M229.741 123.024H237.52V144.475H229.741V123.024Z" fill="#FF8C1A"/>
<path d="M221.962 140.585C211.183 140.585 202.414 149.354 202.414 160.133H229.741L237.519 150.359L229.741 140.585H221.962Z" fill="#FFDD33"/>
<path d="M257.067 160.133H229.741V140.585H237.519C248.298 140.585 257.067 149.354 257.067 160.133Z" fill="#FFBB33"/>
<path d="M192.144 156.244V175.792H229.741L237.519 166.017L229.741 156.244H192.144Z" fill="#638293"/>
<path d="M229.741 156.244H267.338V175.792H229.741V156.244Z" fill="#375363"/>
<path d="M184.366 171.902V179.681H229.741L237.52 175.792L229.741 171.902H184.366Z" fill="#375363"/>
<path d="M229.741 171.902H275.116V179.681H229.741V171.902Z" fill="#1B323A"/>
<defs>
<filter id="filter0_d_0_4754" x="0" y="0.557129" width="460" height="370" filterUnits="userSpaceOnUse" color-interpolation-filters="sRGB">
<feFlood flood-opacity="0" result="BackgroundImageFix"/>
<feColorMatrix in="SourceAlpha" type="matrix" values="0 0 0 0 0 0 0 0 0 0 0 0 0 0 0 0 0 0 127 0" result="hardAlpha"/>
<feOffset dy="45"/>
<feGaussianBlur stdDeviation="40"/>
<feColorMatrix type="matrix" values="0 0 0 0 0 0 0 0 0 0 0 0 0 0 0 0 0 0 0.04 0"/>
<feBlend mode="normal" in2="BackgroundImageFix" result="effect1_dropShadow_0_4754"/>
<feBlend mode="normal" in="SourceGraphic" in2="effect1_dropShadow_0_4754" result="shape"/>
</filter>
</defs>
</svg>
