<svg width="90" height="90" viewBox="0 0 90 90" fill="none" xmlns="http://www.w3.org/2000/svg">
<path d="M80.3744 22.7444C80.3744 40.5348 89.5898 52.7517 89.5898 61.3241C89.5898 69.8965 84.6619 87.9004 45.2257 87.9004C5.78953 87.9004 0 63.6801 0 54.2512C0 10.098 80.3744 -8.76236 80.3744 22.7444Z" fill="#EFEFEF"/>
<g clip-path="url(#clip0_0_5509)">
<path d="M12.3413 28.4422L11.6407 29.6457L8.42515 35.2505L0 30.3823L3.21557 24.7955L3.91617 23.5919L5.38922 24.4362L10.8503 27.5799L12.3413 28.4422Z" fill="#664636"/>
<path d="M12.3413 28.4422L11.6407 29.6457L5.47904 30.6158L3.21557 24.7955L3.91617 23.5919L5.38922 24.4362L6.84431 28.2086L10.8503 27.5799L12.3413 28.4422Z" fill="#58595B"/>
<path d="M31.0599 8.91521L32.7305 9.68766C34.6347 10.5679 35.479 12.8314 34.5988 14.7356L33.1437 17.8972C32.2635 19.8014 30 20.6457 28.0958 19.7655L26.4251 18.993C24.521 18.1128 23.6766 15.8493 24.5569 13.9451L26.012 10.7835C26.8743 8.86131 29.1377 8.03497 31.0599 8.91521Z" fill="#EFCDB1"/>
<path d="M22.5988 37.7117L17.6228 46.3164C16.3293 48.526 13.4731 49.2626 11.2635 47.9691L5.20958 44.4661L8.42515 38.9332L11.3892 40.6398C12.3413 41.1248 13.509 40.8194 14.1198 39.9392L17.7305 34.1188L22.5988 37.7117Z" fill="#F26E61"/>
<path d="M5.91018 37.2626L8.49701 38.7715L4.74251 45.2566C4.11377 46.3524 2.71257 46.7117 1.61677 46.0829L1.56287 46.047C0.467065 45.4183 0.107784 44.0171 0.736526 42.9212L3.66467 37.8733C4.13174 37.0829 5.13772 36.8135 5.91018 37.2626Z" fill="#333333"/>
<path d="M42.7186 21.8853L38.1018 27.8853C37.3653 28.8194 36.1078 29.1607 35.012 28.7296L29.1198 26.3583L26.7485 32.52L18.1437 28.4422L20.6766 22.7835L15.1976 20.5739L12.3413 24.7236L7.90419 21.8673L11.8383 15.8853C12.8443 14.3224 14.8563 13.7475 16.5449 14.502L34.7066 22.6937L38.479 18.1667L42.7186 21.8853Z" fill="#D1D0DF"/>
<path d="M44.1018 20.0889L42.7186 21.8853L38.479 18.1667L39.8623 16.514C40.509 15.7236 41.6587 15.6158 42.4311 16.2445C42.4671 16.2805 42.503 16.2984 42.5389 16.3344L43.9042 17.6098C44.5868 18.2745 44.6766 19.3344 44.1018 20.0889Z" fill="#EFCDB1"/>
<path d="M12.3413 24.7236L11.479 25.9811C10.7246 27.0589 9.23353 27.3284 8.15569 26.5739C8.13772 26.5559 8.11976 26.5559 8.1018 26.538L7.72455 26.2685C6.68263 25.532 6.43114 24.0949 7.13174 23.035L7.90419 21.8673L12.3413 24.7236Z" fill="#EFCDB1"/>
<path d="M24.7904 13.4242L28.491 12.2206L32.8743 13.9093C34.3832 14.4841 36.0898 13.8374 36.8443 12.4182L38.479 9.45417L29.5689 6.8853C28.4192 6.56195 27.2156 7.19069 26.8024 8.32243L24.7904 13.4242Z" fill="#A97C50"/>
<path d="M23.8114 25.3737L26.696 19.0706L28.6555 19.9674L25.7709 26.2705L23.8114 25.3737Z" fill="#58595B"/>
<path d="M41.2276 46.7656L35.4431 50.1069L31.8683 42.9931C31.7066 42.6877 31.4731 42.4182 31.1677 42.2566L19.8144 36.2206C17.479 34.9632 16.509 32.1248 17.5868 29.6997L18.1437 28.4422L26.7485 32.52L35.2635 36.7057C35.7665 36.9572 36.1796 37.3524 36.4491 37.8374L41.2276 46.7656Z" fill="#FF826E"/>
<path d="M36.6647 52.4601L35.3174 50.1248L41.8024 46.3703C42.8982 45.7416 44.2814 46.1188 44.9102 47.1967L44.9461 47.2506C45.5749 48.3464 45.1976 49.7296 44.1198 50.3584L39.3054 53.1428C38.3892 53.6997 37.2036 53.3763 36.6647 52.4601Z" fill="#333333"/>
<path d="M61.2934 75.0589C61.1677 75.7775 61.1677 76.4961 61.2934 77.2146C61.7425 80.1607 63.988 82.514 66.9162 83.1068V83.2506H18.9162C14.982 83.2506 11.8024 80.0709 11.8024 76.1368C11.8024 72.2026 14.982 69.023 18.9162 69.023H66.9162V69.1667C63.988 69.7416 61.7425 72.1128 61.2934 75.0589Z" fill="#68D3F1"/>
<path d="M61.2934 77.2146H20.1737V75.059H61.2934C61.1677 75.7775 61.1677 76.4961 61.2934 77.2146Z" fill="#58595B"/>
<path d="M67.976 60.8314C67.9222 61.1907 67.8862 61.55 67.8862 61.9093C67.8862 62.2685 67.9222 62.6278 67.976 62.9871C68.4251 65.9332 70.6707 68.2865 73.5988 68.8793V69.023H36.6647C32.7305 69.023 29.5509 65.8434 29.5509 61.9093C29.5509 60.023 30.3054 58.2087 31.6347 56.8793C32.9641 55.532 34.7784 54.7775 36.6647 54.7955H73.5988V54.9392C72.2156 55.2087 70.9581 55.8913 69.9701 56.8793C68.9102 57.9572 68.2096 59.3404 67.976 60.8314Z" fill="#01C6E1"/>
<path d="M67.8862 61.9093C67.8862 62.2685 67.9222 62.6278 67.976 62.9871H38.6407V60.8314H67.976C67.9222 61.1907 67.8862 61.55 67.8862 61.9093Z" fill="#58595B"/>
<path d="M84.3773 46.6039C84.3234 46.9631 84.2874 47.3224 84.2874 47.6817C84.2874 48.041 84.3234 48.4003 84.3773 48.7595C84.8264 51.7057 87.0719 54.059 90 54.6518V54.7955H54.8982C50.9641 54.7955 47.7844 51.6158 47.7844 47.6817C47.7844 43.7476 50.9641 40.5679 54.8982 40.5679H90V40.7116C88.6168 40.9811 87.3593 41.6637 86.3713 42.6518C85.3114 43.7296 84.6108 45.1128 84.3773 46.6039Z" fill="#23A0AC"/>
<path d="M84.3772 48.7596H57.6467V46.6039H84.3772C84.3234 46.9632 84.2874 47.3224 84.2874 47.6817C84.2874 48.041 84.3234 48.4003 84.3772 48.7596Z" fill="#58595B"/>
<path d="M72.521 7.56793H74.6766V40.5679H72.521V7.56793Z" fill="#58595B"/>
<path d="M85.9222 12.023L72.521 16.3344V6.74158L85.9222 12.023Z" fill="#D22732"/>
</g>
<defs>
<clipPath id="clip0_0_5509">
<rect width="90" height="90" fill="white" transform="translate(0 -0.00390625)"/>
</clipPath>
</defs>
</svg>
