<svg width="460" height="371" viewBox="0 0 460 371" fill="none" xmlns="http://www.w3.org/2000/svg">
<g filter="url(#filter0_d_0_3462)">
<rect x="80" y="35.5571" width="300" height="210" rx="12" fill="white"/>
<rect x="80.5" y="36.0571" width="299" height="209" rx="11.5" stroke="#F3F3F3"/>
</g>
<path d="M118.4 214.757C117.813 214.757 117.227 214.71 116.64 214.617C116.053 214.537 115.5 214.41 114.98 214.237C114.46 214.05 113.993 213.824 113.58 213.557C113.34 213.397 113.173 213.204 113.08 212.977C112.987 212.75 112.953 212.53 112.98 212.317C113.02 212.09 113.107 211.897 113.24 211.737C113.387 211.564 113.567 211.457 113.78 211.417C113.993 211.377 114.227 211.437 114.48 211.597C115.067 211.944 115.687 212.197 116.34 212.357C116.993 212.517 117.68 212.597 118.4 212.597C119.453 212.597 120.22 212.424 120.7 212.077C121.18 211.717 121.42 211.257 121.42 210.697C121.42 210.23 121.247 209.864 120.9 209.597C120.567 209.33 119.987 209.11 119.16 208.937L116.96 208.477C115.693 208.21 114.747 207.764 114.12 207.137C113.507 206.497 113.2 205.657 113.2 204.617C113.2 203.964 113.333 203.37 113.6 202.837C113.867 202.304 114.24 201.844 114.72 201.457C115.213 201.07 115.793 200.777 116.46 200.577C117.14 200.364 117.887 200.257 118.7 200.257C119.5 200.257 120.26 200.357 120.98 200.557C121.7 200.757 122.347 201.05 122.92 201.437C123.133 201.584 123.273 201.764 123.34 201.977C123.42 202.19 123.44 202.404 123.4 202.617C123.36 202.817 123.267 202.99 123.12 203.137C122.973 203.284 122.787 203.37 122.56 203.397C122.347 203.424 122.1 203.357 121.82 203.197C121.327 202.917 120.827 202.717 120.32 202.597C119.813 202.477 119.267 202.417 118.68 202.417C118.067 202.417 117.54 202.504 117.1 202.677C116.66 202.85 116.32 203.097 116.08 203.417C115.853 203.724 115.74 204.09 115.74 204.517C115.74 204.997 115.9 205.384 116.22 205.677C116.54 205.957 117.087 206.177 117.86 206.337L120.04 206.797C121.36 207.077 122.34 207.517 122.98 208.117C123.633 208.717 123.96 209.517 123.96 210.517C123.96 211.157 123.827 211.737 123.56 212.257C123.307 212.777 122.933 213.224 122.44 213.597C121.96 213.97 121.38 214.257 120.7 214.457C120.02 214.657 119.253 214.757 118.4 214.757ZM127.157 214.697C126.757 214.697 126.451 214.577 126.237 214.337C126.024 214.097 125.917 213.764 125.917 213.337V205.997C125.917 205.557 126.024 205.224 126.237 204.997C126.451 204.757 126.757 204.637 127.157 204.637C127.557 204.637 127.864 204.757 128.077 204.997C128.304 205.224 128.417 205.557 128.417 205.997V213.337C128.417 213.764 128.311 214.097 128.097 214.337C127.884 214.577 127.571 214.697 127.157 214.697ZM127.157 202.777C126.691 202.777 126.324 202.664 126.057 202.437C125.804 202.197 125.677 201.87 125.677 201.457C125.677 201.03 125.804 200.704 126.057 200.477C126.324 200.25 126.691 200.137 127.157 200.137C127.637 200.137 128.004 200.25 128.257 200.477C128.511 200.704 128.637 201.03 128.637 201.457C128.637 201.87 128.511 202.197 128.257 202.437C128.004 202.664 127.637 202.777 127.157 202.777ZM134.355 214.757C133.248 214.757 132.415 214.444 131.855 213.817C131.295 213.177 131.015 212.244 131.015 211.017V201.557C131.015 201.144 131.122 200.83 131.335 200.617C131.548 200.404 131.855 200.297 132.255 200.297C132.655 200.297 132.962 200.404 133.175 200.617C133.402 200.83 133.515 201.144 133.515 201.557V210.897C133.515 211.51 133.642 211.964 133.895 212.257C134.162 212.55 134.535 212.697 135.015 212.697C135.122 212.697 135.222 212.697 135.315 212.697C135.408 212.684 135.502 212.67 135.595 212.657C135.782 212.63 135.908 212.684 135.975 212.817C136.042 212.937 136.075 213.19 136.075 213.577C136.075 213.91 136.008 214.17 135.875 214.357C135.742 214.544 135.522 214.657 135.215 214.697C135.082 214.71 134.942 214.724 134.795 214.737C134.648 214.75 134.502 214.757 134.355 214.757ZM141.108 214.717C140.774 214.717 140.481 214.63 140.228 214.457C139.988 214.284 139.788 214.017 139.628 213.657L136.448 206.277C136.328 205.984 136.281 205.71 136.308 205.457C136.348 205.204 136.468 205.004 136.668 204.857C136.881 204.697 137.168 204.617 137.528 204.617C137.834 204.617 138.081 204.69 138.268 204.837C138.454 204.97 138.621 205.23 138.768 205.617L141.468 212.357H140.868L143.648 205.597C143.794 205.224 143.961 204.97 144.148 204.837C144.348 204.69 144.614 204.617 144.948 204.617C145.241 204.617 145.474 204.697 145.648 204.857C145.821 205.004 145.928 205.204 145.968 205.457C146.008 205.697 145.961 205.964 145.828 206.257L142.588 213.657C142.441 214.017 142.241 214.284 141.988 214.457C141.748 214.63 141.454 214.717 141.108 214.717ZM152.319 214.757C151.213 214.757 150.259 214.55 149.459 214.137C148.659 213.724 148.039 213.137 147.599 212.377C147.173 211.617 146.959 210.717 146.959 209.677C146.959 208.664 147.166 207.777 147.579 207.017C148.006 206.257 148.586 205.664 149.319 205.237C150.066 204.797 150.913 204.577 151.859 204.577C152.553 204.577 153.173 204.69 153.719 204.917C154.279 205.144 154.753 205.47 155.139 205.897C155.539 206.324 155.839 206.844 156.039 207.457C156.253 208.057 156.359 208.737 156.359 209.497C156.359 209.737 156.273 209.924 156.099 210.057C155.939 210.177 155.706 210.237 155.399 210.237H148.979V208.797H154.599L154.279 209.097C154.279 208.484 154.186 207.97 153.999 207.557C153.826 207.144 153.566 206.83 153.219 206.617C152.886 206.39 152.466 206.277 151.959 206.277C151.399 206.277 150.919 206.41 150.519 206.677C150.133 206.93 149.833 207.297 149.619 207.777C149.419 208.244 149.319 208.804 149.319 209.457V209.597C149.319 210.69 149.573 211.51 150.079 212.057C150.599 212.59 151.359 212.857 152.359 212.857C152.706 212.857 153.093 212.817 153.519 212.737C153.959 212.644 154.373 212.49 154.759 212.277C155.039 212.117 155.286 212.05 155.499 212.077C155.713 212.09 155.879 212.164 155.999 212.297C156.133 212.43 156.213 212.597 156.239 212.797C156.266 212.984 156.226 213.177 156.119 213.377C156.026 213.577 155.859 213.75 155.619 213.897C155.153 214.19 154.613 214.41 153.999 214.557C153.399 214.69 152.839 214.757 152.319 214.757ZM159.619 214.717C159.206 214.717 158.886 214.61 158.659 214.397C158.446 214.17 158.339 213.85 158.339 213.437V205.877C158.339 205.464 158.446 205.15 158.659 204.937C158.872 204.724 159.172 204.617 159.559 204.617C159.946 204.617 160.246 204.724 160.459 204.937C160.672 205.15 160.779 205.464 160.779 205.877V207.137H160.579C160.766 206.337 161.132 205.73 161.679 205.317C162.226 204.904 162.952 204.657 163.859 204.577C164.139 204.55 164.359 204.624 164.519 204.797C164.692 204.957 164.792 205.21 164.819 205.557C164.846 205.89 164.766 206.164 164.579 206.377C164.406 206.577 164.139 206.697 163.779 206.737L163.339 206.777C162.526 206.857 161.912 207.11 161.499 207.537C161.086 207.95 160.879 208.537 160.879 209.297V213.437C160.879 213.85 160.772 214.17 160.559 214.397C160.346 214.61 160.032 214.717 159.619 214.717ZM176.701 214.757C176.114 214.757 175.527 214.71 174.941 214.617C174.354 214.537 173.801 214.41 173.281 214.237C172.761 214.05 172.294 213.824 171.881 213.557C171.641 213.397 171.474 213.204 171.381 212.977C171.287 212.75 171.254 212.53 171.281 212.317C171.321 212.09 171.407 211.897 171.541 211.737C171.687 211.564 171.867 211.457 172.081 211.417C172.294 211.377 172.527 211.437 172.781 211.597C173.367 211.944 173.987 212.197 174.641 212.357C175.294 212.517 175.981 212.597 176.701 212.597C177.754 212.597 178.521 212.424 179.001 212.077C179.481 211.717 179.721 211.257 179.721 210.697C179.721 210.23 179.547 209.864 179.201 209.597C178.867 209.33 178.287 209.11 177.461 208.937L175.261 208.477C173.994 208.21 173.047 207.764 172.421 207.137C171.807 206.497 171.501 205.657 171.501 204.617C171.501 203.964 171.634 203.37 171.901 202.837C172.167 202.304 172.541 201.844 173.021 201.457C173.514 201.07 174.094 200.777 174.761 200.577C175.441 200.364 176.187 200.257 177.001 200.257C177.801 200.257 178.561 200.357 179.281 200.557C180.001 200.757 180.647 201.05 181.221 201.437C181.434 201.584 181.574 201.764 181.641 201.977C181.721 202.19 181.741 202.404 181.701 202.617C181.661 202.817 181.567 202.99 181.421 203.137C181.274 203.284 181.087 203.37 180.861 203.397C180.647 203.424 180.401 203.357 180.121 203.197C179.627 202.917 179.127 202.717 178.621 202.597C178.114 202.477 177.567 202.417 176.981 202.417C176.367 202.417 175.841 202.504 175.401 202.677C174.961 202.85 174.621 203.097 174.381 203.417C174.154 203.724 174.041 204.09 174.041 204.517C174.041 204.997 174.201 205.384 174.521 205.677C174.841 205.957 175.387 206.177 176.161 206.337L178.341 206.797C179.661 207.077 180.641 207.517 181.281 208.117C181.934 208.717 182.261 209.517 182.261 210.517C182.261 211.157 182.127 211.737 181.861 212.257C181.607 212.777 181.234 213.224 180.741 213.597C180.261 213.97 179.681 214.257 179.001 214.457C178.321 214.657 177.554 214.757 176.701 214.757ZM188.6 214.757C187.734 214.757 187.007 214.61 186.42 214.317C185.847 214.024 185.42 213.597 185.14 213.037C184.86 212.464 184.72 211.757 184.72 210.917V206.657H183.68C183.36 206.657 183.114 206.577 182.94 206.417C182.767 206.244 182.68 206.01 182.68 205.717C182.68 205.41 182.767 205.177 182.94 205.017C183.114 204.857 183.36 204.777 183.68 204.777H184.72V202.957C184.72 202.544 184.827 202.23 185.04 202.017C185.267 201.804 185.58 201.697 185.98 201.697C186.38 201.697 186.687 201.804 186.9 202.017C187.114 202.23 187.22 202.544 187.22 202.957V204.777H189.34C189.66 204.777 189.907 204.857 190.08 205.017C190.254 205.177 190.34 205.41 190.34 205.717C190.34 206.01 190.254 206.244 190.08 206.417C189.907 206.577 189.66 206.657 189.34 206.657H187.22V210.777C187.22 211.417 187.36 211.897 187.64 212.217C187.92 212.537 188.374 212.697 189 212.697C189.227 212.697 189.427 212.677 189.6 212.637C189.774 212.597 189.927 212.57 190.06 212.557C190.22 212.544 190.354 212.597 190.46 212.717C190.567 212.824 190.62 213.05 190.62 213.397C190.62 213.664 190.574 213.904 190.48 214.117C190.4 214.317 190.247 214.457 190.02 214.537C189.847 214.59 189.62 214.637 189.34 214.677C189.06 214.73 188.814 214.757 188.6 214.757ZM195.016 214.757C194.309 214.757 193.676 214.624 193.116 214.357C192.569 214.077 192.136 213.704 191.816 213.237C191.509 212.77 191.356 212.244 191.356 211.657C191.356 210.937 191.543 210.37 191.916 209.957C192.289 209.53 192.896 209.224 193.736 209.037C194.576 208.85 195.703 208.757 197.116 208.757H198.116V210.197H197.136C196.309 210.197 195.649 210.237 195.156 210.317C194.663 210.397 194.309 210.537 194.096 210.737C193.896 210.924 193.796 211.19 193.796 211.537C193.796 211.977 193.949 212.337 194.256 212.617C194.563 212.897 194.989 213.037 195.536 213.037C195.976 213.037 196.363 212.937 196.696 212.737C197.043 212.524 197.316 212.237 197.516 211.877C197.716 211.517 197.816 211.104 197.816 210.637V208.337C197.816 207.67 197.669 207.19 197.376 206.897C197.083 206.604 196.589 206.457 195.896 206.457C195.509 206.457 195.089 206.504 194.636 206.597C194.196 206.69 193.729 206.85 193.236 207.077C192.983 207.197 192.756 207.23 192.556 207.177C192.369 207.124 192.223 207.017 192.116 206.857C192.009 206.684 191.956 206.497 191.956 206.297C191.956 206.097 192.009 205.904 192.116 205.717C192.223 205.517 192.403 205.37 192.656 205.277C193.269 205.024 193.856 204.844 194.416 204.737C194.989 204.63 195.509 204.577 195.976 204.577C196.936 204.577 197.723 204.724 198.336 205.017C198.963 205.31 199.429 205.757 199.736 206.357C200.043 206.944 200.196 207.704 200.196 208.637V213.437C200.196 213.85 200.096 214.17 199.896 214.397C199.696 214.61 199.409 214.717 199.036 214.717C198.663 214.717 198.369 214.61 198.156 214.397C197.956 214.17 197.856 213.85 197.856 213.437V212.477H198.016C197.923 212.944 197.736 213.35 197.456 213.697C197.189 214.03 196.849 214.29 196.436 214.477C196.023 214.664 195.549 214.757 195.016 214.757ZM204.014 214.717C203.6 214.717 203.28 214.61 203.054 214.397C202.84 214.17 202.734 213.85 202.734 213.437V205.877C202.734 205.464 202.84 205.15 203.054 204.937C203.267 204.724 203.567 204.617 203.954 204.617C204.34 204.617 204.64 204.724 204.854 204.937C205.067 205.15 205.174 205.464 205.174 205.877V207.137H204.974C205.16 206.337 205.527 205.73 206.074 205.317C206.62 204.904 207.347 204.657 208.254 204.577C208.534 204.55 208.754 204.624 208.914 204.797C209.087 204.957 209.187 205.21 209.214 205.557C209.24 205.89 209.16 206.164 208.974 206.377C208.8 206.577 208.534 206.697 208.174 206.737L207.734 206.777C206.92 206.857 206.307 207.11 205.894 207.537C205.48 207.95 205.274 208.537 205.274 209.297V213.437C205.274 213.85 205.167 214.17 204.954 214.397C204.74 214.61 204.427 214.717 204.014 214.717ZM216.375 214.717C216.055 214.717 215.795 214.644 215.595 214.497C215.409 214.35 215.295 214.157 215.255 213.917C215.215 213.664 215.262 213.384 215.395 213.077L220.675 201.377C220.849 200.99 221.055 200.717 221.295 200.557C221.549 200.384 221.835 200.297 222.155 200.297C222.462 200.297 222.735 200.384 222.975 200.557C223.229 200.717 223.442 200.99 223.615 201.377L228.915 213.077C229.062 213.384 229.115 213.664 229.075 213.917C229.035 214.17 228.922 214.37 228.735 214.517C228.549 214.65 228.302 214.717 227.995 214.717C227.622 214.717 227.329 214.63 227.115 214.457C226.915 214.27 226.735 213.99 226.575 213.617L225.275 210.597L226.355 211.297H217.915L218.995 210.597L217.715 213.617C217.542 214.004 217.362 214.284 217.175 214.457C216.989 214.63 216.722 214.717 216.375 214.717ZM222.115 203.237L219.315 209.897L218.795 209.257H225.475L224.975 209.897L222.155 203.237H222.115ZM234.418 214.757C233.605 214.757 232.931 214.61 232.398 214.317C231.865 214.01 231.465 213.557 231.198 212.957C230.945 212.357 230.818 211.61 230.818 210.717V205.877C230.818 205.45 230.925 205.137 231.138 204.937C231.351 204.724 231.658 204.617 232.058 204.617C232.458 204.617 232.765 204.724 232.978 204.937C233.205 205.137 233.318 205.45 233.318 205.877V210.757C233.318 211.45 233.458 211.964 233.738 212.297C234.018 212.63 234.465 212.797 235.078 212.797C235.745 212.797 236.291 212.57 236.718 212.117C237.145 211.65 237.358 211.037 237.358 210.277V205.877C237.358 205.45 237.465 205.137 237.678 204.937C237.891 204.724 238.198 204.617 238.598 204.617C238.998 204.617 239.305 204.724 239.518 204.937C239.745 205.137 239.858 205.45 239.858 205.877V213.437C239.858 214.29 239.451 214.717 238.638 214.717C238.251 214.717 237.951 214.61 237.738 214.397C237.525 214.17 237.418 213.85 237.418 213.437V211.917L237.698 212.517C237.418 213.237 236.991 213.79 236.418 214.177C235.858 214.564 235.191 214.757 234.418 214.757ZM246.94 214.757C246.073 214.757 245.347 214.61 244.76 214.317C244.187 214.024 243.76 213.597 243.48 213.037C243.2 212.464 243.06 211.757 243.06 210.917V206.657H242.02C241.7 206.657 241.453 206.577 241.28 206.417C241.107 206.244 241.02 206.01 241.02 205.717C241.02 205.41 241.107 205.177 241.28 205.017C241.453 204.857 241.7 204.777 242.02 204.777H243.06V202.957C243.06 202.544 243.167 202.23 243.38 202.017C243.607 201.804 243.92 201.697 244.32 201.697C244.72 201.697 245.027 201.804 245.24 202.017C245.453 202.23 245.56 202.544 245.56 202.957V204.777H247.68C248 204.777 248.247 204.857 248.42 205.017C248.593 205.177 248.68 205.41 248.68 205.717C248.68 206.01 248.593 206.244 248.42 206.417C248.247 206.577 248 206.657 247.68 206.657H245.56V210.777C245.56 211.417 245.7 211.897 245.98 212.217C246.26 212.537 246.713 212.697 247.34 212.697C247.567 212.697 247.767 212.677 247.94 212.637C248.113 212.597 248.267 212.57 248.4 212.557C248.56 212.544 248.693 212.597 248.8 212.717C248.907 212.824 248.96 213.05 248.96 213.397C248.96 213.664 248.913 213.904 248.82 214.117C248.74 214.317 248.587 214.457 248.36 214.537C248.187 214.59 247.96 214.637 247.68 214.677C247.4 214.73 247.153 214.757 246.94 214.757ZM251.63 214.717C251.23 214.717 250.923 214.61 250.71 214.397C250.497 214.17 250.39 213.85 250.39 213.437V201.557C250.39 201.144 250.497 200.83 250.71 200.617C250.923 200.404 251.23 200.297 251.63 200.297C252.03 200.297 252.337 200.404 252.55 200.617C252.777 200.83 252.89 201.144 252.89 201.557V206.737H252.61C252.903 206.03 253.357 205.497 253.97 205.137C254.597 204.764 255.303 204.577 256.09 204.577C256.877 204.577 257.523 204.724 258.03 205.017C258.537 205.31 258.917 205.757 259.17 206.357C259.423 206.944 259.55 207.69 259.55 208.597V213.437C259.55 213.85 259.443 214.17 259.23 214.397C259.017 214.61 258.71 214.717 258.31 214.717C257.91 214.717 257.597 214.61 257.37 214.397C257.157 214.17 257.05 213.85 257.05 213.437V208.717C257.05 207.957 256.903 207.404 256.61 207.057C256.33 206.71 255.89 206.537 255.29 206.537C254.557 206.537 253.97 206.77 253.53 207.237C253.103 207.69 252.89 208.297 252.89 209.057V213.437C252.89 214.29 252.47 214.717 251.63 214.717ZM266.549 214.757C265.536 214.757 264.656 214.55 263.909 214.137C263.162 213.724 262.582 213.137 262.169 212.377C261.756 211.604 261.549 210.697 261.549 209.657C261.549 208.87 261.662 208.17 261.889 207.557C262.129 206.93 262.469 206.397 262.909 205.957C263.349 205.504 263.876 205.164 264.489 204.937C265.102 204.697 265.789 204.577 266.549 204.577C267.562 204.577 268.442 204.784 269.189 205.197C269.936 205.61 270.516 206.197 270.929 206.957C271.342 207.717 271.549 208.617 271.549 209.657C271.549 210.444 271.429 211.15 271.189 211.777C270.962 212.404 270.629 212.944 270.189 213.397C269.749 213.837 269.222 214.177 268.609 214.417C267.996 214.644 267.309 214.757 266.549 214.757ZM266.549 212.857C267.042 212.857 267.476 212.737 267.849 212.497C268.222 212.257 268.509 211.904 268.709 211.437C268.922 210.957 269.029 210.364 269.029 209.657C269.029 208.59 268.802 207.797 268.349 207.277C267.896 206.744 267.296 206.477 266.549 206.477C266.056 206.477 265.622 206.597 265.249 206.837C264.876 207.064 264.582 207.417 264.369 207.897C264.169 208.364 264.069 208.95 264.069 209.657C264.069 210.71 264.296 211.51 264.749 212.057C265.202 212.59 265.802 212.857 266.549 212.857ZM274.893 214.717C274.479 214.717 274.159 214.61 273.933 214.397C273.719 214.17 273.613 213.85 273.613 213.437V205.877C273.613 205.464 273.719 205.15 273.933 204.937C274.146 204.724 274.446 204.617 274.833 204.617C275.219 204.617 275.519 204.724 275.733 204.937C275.946 205.15 276.053 205.464 276.053 205.877V207.137H275.853C276.039 206.337 276.406 205.73 276.953 205.317C277.499 204.904 278.226 204.657 279.133 204.577C279.413 204.55 279.633 204.624 279.793 204.797C279.966 204.957 280.066 205.21 280.093 205.557C280.119 205.89 280.039 206.164 279.853 206.377C279.679 206.577 279.413 206.697 279.053 206.737L278.613 206.777C277.799 206.857 277.186 207.11 276.773 207.537C276.359 207.95 276.153 208.537 276.153 209.297V213.437C276.153 213.85 276.046 214.17 275.833 214.397C275.619 214.61 275.306 214.717 274.893 214.717ZM287.254 214.717C286.934 214.717 286.674 214.644 286.474 214.497C286.288 214.35 286.174 214.157 286.134 213.917C286.094 213.664 286.141 213.384 286.274 213.077L291.554 201.377C291.728 200.99 291.934 200.717 292.174 200.557C292.428 200.384 292.714 200.297 293.034 200.297C293.341 200.297 293.614 200.384 293.854 200.557C294.108 200.717 294.321 200.99 294.494 201.377L299.794 213.077C299.941 213.384 299.994 213.664 299.954 213.917C299.914 214.17 299.801 214.37 299.614 214.517C299.428 214.65 299.181 214.717 298.874 214.717C298.501 214.717 298.208 214.63 297.994 214.457C297.794 214.27 297.614 213.99 297.454 213.617L296.154 210.597L297.234 211.297H288.794L289.874 210.597L288.594 213.617C288.421 214.004 288.241 214.284 288.054 214.457C287.868 214.63 287.601 214.717 287.254 214.717ZM292.994 203.237L290.194 209.897L289.674 209.257H296.354L295.854 209.897L293.034 203.237H292.994ZM304.971 214.717C304.637 214.717 304.351 214.637 304.111 214.477C303.871 214.304 303.677 214.037 303.531 213.677L300.631 206.277C300.511 205.957 300.471 205.677 300.511 205.437C300.564 205.184 300.691 204.984 300.891 204.837C301.091 204.69 301.357 204.617 301.691 204.617C301.984 204.617 302.224 204.69 302.411 204.837C302.597 204.97 302.757 205.23 302.891 205.617L305.311 212.277H304.851L307.351 205.457C307.457 205.164 307.597 204.95 307.771 204.817C307.957 204.684 308.197 204.617 308.491 204.617C308.784 204.617 309.024 204.69 309.211 204.837C309.397 204.97 309.537 205.177 309.631 205.457L312.091 212.277H311.671L314.111 205.557C314.244 205.197 314.411 204.95 314.611 204.817C314.824 204.684 315.057 204.617 315.311 204.617C315.631 204.617 315.877 204.697 316.051 204.857C316.224 205.017 316.324 205.224 316.351 205.477C316.377 205.717 316.331 205.984 316.211 206.277L313.331 213.677C313.197 214.024 313.004 214.284 312.751 214.457C312.511 214.63 312.224 214.717 311.891 214.717C311.557 214.717 311.264 214.63 311.011 214.457C310.771 214.284 310.584 214.024 310.451 213.677L307.831 206.737H308.971L306.411 213.657C306.277 214.017 306.091 214.284 305.851 214.457C305.611 214.63 305.317 214.717 304.971 214.717ZM321.266 214.757C320.559 214.757 319.926 214.624 319.366 214.357C318.819 214.077 318.386 213.704 318.066 213.237C317.759 212.77 317.606 212.244 317.606 211.657C317.606 210.937 317.793 210.37 318.166 209.957C318.539 209.53 319.146 209.224 319.986 209.037C320.826 208.85 321.953 208.757 323.366 208.757H324.366V210.197H323.386C322.559 210.197 321.899 210.237 321.406 210.317C320.913 210.397 320.559 210.537 320.346 210.737C320.146 210.924 320.046 211.19 320.046 211.537C320.046 211.977 320.199 212.337 320.506 212.617C320.813 212.897 321.239 213.037 321.786 213.037C322.226 213.037 322.613 212.937 322.946 212.737C323.293 212.524 323.566 212.237 323.766 211.877C323.966 211.517 324.066 211.104 324.066 210.637V208.337C324.066 207.67 323.919 207.19 323.626 206.897C323.333 206.604 322.839 206.457 322.146 206.457C321.759 206.457 321.339 206.504 320.886 206.597C320.446 206.69 319.979 206.85 319.486 207.077C319.233 207.197 319.006 207.23 318.806 207.177C318.619 207.124 318.473 207.017 318.366 206.857C318.259 206.684 318.206 206.497 318.206 206.297C318.206 206.097 318.259 205.904 318.366 205.717C318.473 205.517 318.653 205.37 318.906 205.277C319.519 205.024 320.106 204.844 320.666 204.737C321.239 204.63 321.759 204.577 322.226 204.577C323.186 204.577 323.973 204.724 324.586 205.017C325.213 205.31 325.679 205.757 325.986 206.357C326.293 206.944 326.446 207.704 326.446 208.637V213.437C326.446 213.85 326.346 214.17 326.146 214.397C325.946 214.61 325.659 214.717 325.286 214.717C324.913 214.717 324.619 214.61 324.406 214.397C324.206 214.17 324.106 213.85 324.106 213.437V212.477H324.266C324.173 212.944 323.986 213.35 323.706 213.697C323.439 214.03 323.099 214.29 322.686 214.477C322.273 214.664 321.799 214.757 321.266 214.757ZM330.264 214.717C329.85 214.717 329.53 214.61 329.304 214.397C329.09 214.17 328.984 213.85 328.984 213.437V205.877C328.984 205.464 329.09 205.15 329.304 204.937C329.517 204.724 329.817 204.617 330.204 204.617C330.59 204.617 330.89 204.724 331.104 204.937C331.317 205.15 331.424 205.464 331.424 205.877V207.137H331.224C331.41 206.337 331.777 205.73 332.324 205.317C332.87 204.904 333.597 204.657 334.504 204.577C334.784 204.55 335.004 204.624 335.164 204.797C335.337 204.957 335.437 205.21 335.464 205.557C335.49 205.89 335.41 206.164 335.224 206.377C335.05 206.577 334.784 206.697 334.424 206.737L333.984 206.777C333.17 206.857 332.557 207.11 332.144 207.537C331.73 207.95 331.524 208.537 331.524 209.297V213.437C331.524 213.85 331.417 214.17 331.204 214.397C330.99 214.61 330.677 214.717 330.264 214.717ZM340.419 214.757C339.566 214.757 338.813 214.55 338.159 214.137C337.519 213.724 337.019 213.137 336.659 212.377C336.299 211.604 336.119 210.697 336.119 209.657C336.119 208.604 336.299 207.704 336.659 206.957C337.019 206.197 337.519 205.61 338.159 205.197C338.813 204.784 339.566 204.577 340.419 204.577C341.233 204.577 341.939 204.777 342.539 205.177C343.153 205.577 343.566 206.104 343.779 206.757H343.559V201.557C343.559 201.144 343.666 200.83 343.879 200.617C344.093 200.404 344.399 200.297 344.799 200.297C345.199 200.297 345.506 200.404 345.719 200.617C345.946 200.83 346.059 201.144 346.059 201.557V213.437C346.059 213.85 345.953 214.17 345.739 214.397C345.526 214.61 345.219 214.717 344.819 214.717C344.419 214.717 344.113 214.61 343.899 214.397C343.686 214.17 343.579 213.85 343.579 213.437V211.877L343.799 212.477C343.599 213.17 343.193 213.724 342.579 214.137C341.966 214.55 341.246 214.757 340.419 214.757ZM341.119 212.857C341.613 212.857 342.046 212.737 342.419 212.497C342.793 212.257 343.079 211.904 343.279 211.437C343.493 210.957 343.599 210.364 343.599 209.657C343.599 208.59 343.373 207.797 342.919 207.277C342.466 206.744 341.866 206.477 341.119 206.477C340.626 206.477 340.193 206.597 339.819 206.837C339.446 207.064 339.153 207.417 338.939 207.897C338.739 208.364 338.639 208.95 338.639 209.657C338.639 210.71 338.866 211.51 339.319 212.057C339.773 212.59 340.373 212.857 341.119 212.857Z" fill="black"/>
<path d="M229.989 146.025C234.441 146.025 238.188 149.091 239.21 153.225H220.767C221.789 149.091 225.537 146.025 229.989 146.025ZM225.787 123.947L229.989 121.858L234.191 123.947V144.48C232.873 143.981 231.465 143.708 229.989 143.708C228.512 143.708 227.081 143.981 225.787 144.48V123.947ZM197.417 149.137C197.417 149.137 202.778 149.682 205.072 148.955C205.072 148.955 182.949 149.091 177.793 130.648C177.793 130.648 183.176 134.464 185.856 134.577C185.856 134.577 173.5 128.036 173 111.773C173 111.773 182.358 123.402 188.332 125.969C188.332 125.969 167.617 113.544 175.362 87.8098C175.362 87.8098 181.972 117.724 206.684 128.558C210.432 130.193 213.499 133.101 215.384 136.758L221.062 147.819C219.767 149.341 218.836 151.181 218.427 153.202H216.656C213.43 153.202 210.727 155.451 210.046 158.472C205.412 157.745 200.688 155.247 197.417 149.137ZM256.7 173.895C256.7 177.279 253.952 180.027 250.567 180.027H209.387C206.003 180.027 203.277 177.279 203.277 173.895C203.277 170.51 206.026 167.762 209.387 167.762H250.567C253.952 167.785 256.7 170.533 256.7 173.895ZM212.181 165.468V159.994C212.181 157.541 214.18 155.542 216.633 155.542H243.344C245.797 155.542 247.796 157.541 247.796 159.994V165.468H212.181ZM254.906 148.978C257.177 149.682 262.56 149.159 262.56 149.159C259.312 155.247 254.588 157.768 249.954 158.517C249.273 155.497 246.57 153.248 243.344 153.248H241.573C241.164 151.226 240.233 149.364 238.938 147.865L244.616 136.803C246.479 133.146 249.545 130.262 253.316 128.604C278.005 117.769 284.638 87.8552 284.638 87.8552C292.383 113.59 271.668 126.014 271.668 126.014C277.642 123.47 287 111.818 287 111.818C286.523 128.081 274.144 134.623 274.144 134.623C276.824 134.509 282.207 130.693 282.207 130.693C277.006 149.114 254.906 148.978 254.906 148.978Z" fill="url(#paint0_linear_0_3462)"/>
<path d="M204.001 99.3387C208.894 101.347 212.767 104.587 215.14 108.26C215.637 109.029 214.887 110.854 213.993 111.052C209.724 111.998 204.693 111.583 199.799 109.574C194.905 107.565 191.033 104.326 188.66 100.653C188.163 99.8843 188.913 98.0586 189.807 97.8606C194.075 96.9149 199.107 97.3299 204.001 99.3387Z" fill="url(#paint1_linear_0_3462)"/>
<path d="M204.001 99.3387C208.894 101.347 212.767 104.587 215.14 108.26C215.637 109.029 214.887 110.854 213.993 111.052C209.724 111.998 204.693 111.583 199.799 109.574C194.905 107.565 191.033 104.326 188.66 100.653C188.163 99.8843 188.913 98.0586 189.807 97.8606C194.075 96.9149 199.107 97.3299 204.001 99.3387Z" fill="url(#paint2_linear_0_3462)"/>
<path d="M206.49 92.3996C211.282 96.1981 214.546 101.037 216.006 105.876C216.312 106.889 214.895 108.677 213.838 108.611C208.794 108.295 203.337 106.222 198.545 102.424C193.752 98.6255 190.489 93.7867 189.029 88.9476C188.723 87.9341 190.14 86.1464 191.196 86.2127C196.241 86.5293 201.697 88.6012 206.49 92.3996Z" fill="url(#paint3_linear_0_3462)"/>
<path d="M206.49 92.3996C211.282 96.1981 214.546 101.037 216.006 105.876C216.312 106.889 214.895 108.677 213.838 108.611C208.794 108.295 203.337 106.222 198.545 102.424C193.752 98.6255 190.489 93.7867 189.029 88.9476C188.723 87.9341 190.14 86.1464 191.196 86.2127C196.241 86.5293 201.697 88.6012 206.49 92.3996Z" fill="url(#paint4_linear_0_3462)"/>
<path d="M211.328 81.7062C215.527 88.152 217.486 95.2281 217.295 101.584C217.255 102.915 214.85 104.481 213.617 103.98C207.726 101.587 202.045 96.9356 197.845 90.4898C193.646 84.044 191.686 76.9679 191.878 70.6122C191.918 69.2811 194.323 67.7147 195.556 68.2157C201.447 70.6087 207.128 75.2604 211.328 81.7062Z" fill="url(#paint5_linear_0_3462)"/>
<path d="M192.594 78.0832C193.496 82.2463 195.239 86.4891 197.845 90.4897C202.044 96.9355 207.725 101.587 213.616 103.98C214.85 104.481 217.255 102.915 217.295 101.584C217.486 95.228 215.527 88.1519 211.327 81.7061C208.855 77.9106 205.868 74.7377 202.627 72.2812L192.594 78.0832Z" fill="url(#paint6_linear_0_3462)"/>
<path d="M255.799 99.3386C250.906 101.347 247.034 104.587 244.661 108.26C244.164 109.029 244.913 110.854 245.807 111.052C250.076 111.998 255.108 111.583 260.001 109.574C264.895 107.565 268.767 104.326 271.14 100.653C271.637 99.8842 270.888 98.0585 269.994 97.8605C265.725 96.9148 260.693 97.3298 255.799 99.3386Z" fill="url(#paint7_linear_0_3462)"/>
<path d="M255.799 99.3386C250.906 101.347 247.034 104.587 244.661 108.26C244.164 109.029 244.913 110.854 245.807 111.052C250.076 111.998 255.108 111.583 260.001 109.574C264.895 107.565 268.767 104.326 271.14 100.653C271.637 99.8842 270.888 98.0585 269.994 97.8605C265.725 96.9148 260.693 97.3298 255.799 99.3386Z" fill="url(#paint8_linear_0_3462)"/>
<path d="M253.31 92.3996C248.517 96.198 245.254 101.037 243.794 105.876C243.488 106.889 244.905 108.677 245.961 108.611C251.006 108.295 256.462 106.222 261.255 102.424C266.047 98.6255 269.311 93.7866 270.771 88.9476C271.077 87.9341 269.66 86.1464 268.604 86.2126C263.559 86.5292 258.103 88.6012 253.31 92.3996Z" fill="url(#paint9_linear_0_3462)"/>
<path d="M253.31 92.3996C248.517 96.198 245.254 101.037 243.794 105.876C243.488 106.889 244.905 108.677 245.961 108.611C251.006 108.295 256.462 106.222 261.255 102.424C266.047 98.6255 269.311 93.7866 270.771 88.9476C271.077 87.9341 269.66 86.1464 268.604 86.2126C263.559 86.5292 258.103 88.6012 253.31 92.3996Z" fill="url(#paint10_linear_0_3462)"/>
<path d="M248.473 81.7062C244.273 88.152 242.314 95.2281 242.505 101.584C242.545 102.915 244.95 104.481 246.184 103.98C252.075 101.587 257.756 96.9356 261.955 90.4898C266.154 84.044 268.114 76.9679 267.922 70.6122C267.882 69.2811 265.478 67.7147 264.244 68.2157C258.353 70.6087 252.672 75.2604 248.473 81.7062Z" fill="url(#paint11_linear_0_3462)"/>
<path d="M267.206 78.0831C266.304 82.2462 264.561 86.4891 261.955 90.4896C257.756 96.9354 252.075 101.587 246.184 103.98C244.95 104.481 242.546 102.915 242.506 101.584C242.314 95.2279 244.273 88.1519 248.473 81.7061C250.946 77.9105 253.932 74.7377 257.173 72.2812L267.206 78.0831Z" fill="url(#paint12_linear_0_3462)"/>
<path d="M229.9 125.179C246.917 125.179 260.711 111.385 260.711 94.3682C260.711 77.3517 246.917 63.5571 229.9 63.5571C212.884 63.5571 199.089 77.3517 199.089 94.3682C199.089 111.385 212.884 125.179 229.9 125.179Z" fill="url(#paint13_linear_0_3462)"/>
<path d="M229.9 118.927C243.463 118.927 254.459 107.932 254.459 94.3682C254.459 80.8049 243.463 69.8096 229.9 69.8096C216.337 69.8096 205.341 80.8049 205.341 94.3682C205.341 107.932 216.337 118.927 229.9 118.927Z" fill="url(#paint14_linear_0_3462)"/>
<path d="M229.9 115.452C241.544 115.452 250.984 106.012 250.984 94.3681C250.984 82.7239 241.544 73.2844 229.9 73.2844C218.256 73.2844 208.817 82.7239 208.817 94.3681C208.817 106.012 218.256 115.452 229.9 115.452Z" fill="url(#paint15_linear_0_3462)"/>
<path d="M199.089 94.368C199.089 111.385 212.884 125.179 229.9 125.179C246.917 125.179 260.711 111.385 260.711 94.368C260.711 94.2485 260.708 94.1297 260.707 94.0103H199.094C199.092 94.1297 199.089 94.2485 199.089 94.368Z" fill="url(#paint16_linear_0_3462)"/>
<path d="M238.497 123.975C248.197 121.144 255.915 113.665 259.085 104.107L244.092 89.1018L240.712 89.2678L231.589 80.1378L220.471 105.935L238.497 123.975Z" fill="url(#paint17_linear_0_3462)"/>
<path d="M242.534 87.6732L236.492 86.2133C235.93 86.0775 235.438 85.7367 235.114 85.2577L231.631 80.1089C231.21 79.4862 230.564 79.1519 229.9 79.0981C229.236 79.1519 228.59 79.4862 228.169 80.1089L224.686 85.2577C224.362 85.7367 223.871 86.0775 223.309 86.2133L217.266 87.6732C215.627 88.0692 214.944 90.0255 215.98 91.3558L219.801 96.2595C220.156 96.7158 220.329 97.2882 220.284 97.8647L219.805 104.063C219.675 105.744 221.325 106.998 222.91 106.423L228.755 104.305C229.124 104.171 229.518 104.137 229.9 104.196C230.283 104.137 230.676 104.172 231.046 104.305L236.89 106.423C238.475 106.998 240.125 105.744 239.995 104.063L239.516 97.8647C239.472 97.2882 239.644 96.7158 239.999 96.2595L243.82 91.3558C244.856 90.0255 244.173 88.0692 242.534 87.6732Z" fill="url(#paint18_linear_0_3462)"/>
<path d="M231.046 104.305L236.89 106.423C238.475 106.998 240.125 105.744 239.995 104.063L239.517 97.8647C239.472 97.2881 239.644 96.7158 240 96.2595L243.82 91.3557C244.857 90.0256 244.173 88.0692 242.534 87.6731L236.492 86.2132C235.93 86.0774 235.439 85.7366 235.115 85.2577L231.631 80.1088C231.21 79.4861 230.565 79.1519 229.9 79.098V104.196C230.283 104.137 230.677 104.171 231.046 104.305Z" fill="url(#paint19_linear_0_3462)"/>
<path d="M242.534 87.6732L236.492 86.2133C236.285 86.1635 236.089 86.0855 235.906 85.9837L220.503 105.907C221.107 106.491 222.019 106.747 222.91 106.424L228.755 104.306C229.124 104.172 229.518 104.137 229.9 104.196C230.283 104.137 230.676 104.172 231.046 104.306L236.89 106.424C238.475 106.998 240.125 105.744 239.995 104.063L239.516 97.865C239.472 97.2884 239.644 96.716 239.999 96.2598L243.82 91.356C244.856 90.0255 244.173 88.0692 242.534 87.6732Z" fill="url(#paint20_linear_0_3462)"/>
<path d="M217.266 87.6732L223.309 86.2133C223.515 86.1635 223.711 86.0855 223.894 85.9837L239.297 105.907C238.693 106.491 237.781 106.747 236.89 106.424L231.046 104.306C230.676 104.172 230.282 104.137 229.9 104.196C229.518 104.137 229.124 104.172 228.755 104.306L222.91 106.424C221.325 106.998 219.675 105.744 219.805 104.063L220.284 97.865C220.329 97.2884 220.156 96.716 219.801 96.2598L215.98 91.356C214.944 90.0255 215.627 88.0692 217.266 87.6732Z" fill="url(#paint21_linear_0_3462)"/>
<path d="M215.657 89.0733C215.37 89.798 215.439 90.6615 215.98 91.3557L219.8 96.2595C220.156 96.7157 220.328 97.2881 220.284 97.8647L219.805 104.062C219.675 105.744 221.324 106.998 222.91 106.423L228.754 104.305C229.124 104.171 229.517 104.137 229.9 104.196C230.282 104.137 230.676 104.172 231.045 104.305L236.89 106.423C238.475 106.998 240.124 105.744 239.995 104.062L239.516 97.8647C239.491 97.5448 239.535 97.2268 239.638 96.9287L215.657 89.0733Z" fill="url(#paint22_linear_0_3462)"/>
<path d="M244.145 89.0733C244.432 89.798 244.363 90.6615 243.823 91.3557L240.002 96.2595C239.647 96.7157 239.474 97.2881 239.519 97.8647L239.998 104.062C240.127 105.744 238.478 106.998 236.893 106.423L231.048 104.305C230.679 104.171 230.285 104.137 229.903 104.196C229.52 104.137 229.127 104.172 228.757 104.305L222.913 106.423C221.328 106.998 219.678 105.744 219.808 104.062L220.287 97.8647C220.311 97.5448 220.267 97.2268 220.164 96.9287L244.145 89.0733Z" fill="url(#paint23_linear_0_3462)"/>
<defs>
<filter id="filter0_d_0_3462" x="0" y="0.557129" width="460" height="370" filterUnits="userSpaceOnUse" color-interpolation-filters="sRGB">
<feFlood flood-opacity="0" result="BackgroundImageFix"/>
<feColorMatrix in="SourceAlpha" type="matrix" values="0 0 0 0 0 0 0 0 0 0 0 0 0 0 0 0 0 0 127 0" result="hardAlpha"/>
<feOffset dy="45"/>
<feGaussianBlur stdDeviation="40"/>
<feColorMatrix type="matrix" values="0 0 0 0 0 0 0 0 0 0 0 0 0 0 0 0 0 0 0.04 0"/>
<feBlend mode="normal" in2="BackgroundImageFix" result="effect1_dropShadow_0_3462"/>
<feBlend mode="normal" in="SourceGraphic" in2="effect1_dropShadow_0_3462" result="shape"/>
</filter>
<linearGradient id="paint0_linear_0_3462" x1="240.882" y1="73.4026" x2="224.465" y2="177.029" gradientUnits="userSpaceOnUse">
<stop stop-color="#E6E6E6"/>
<stop offset="0.1261" stop-color="#E6E6E6"/>
<stop offset="0.3306" stop-color="#E6E6E6"/>
<stop offset="0.5881" stop-color="#9C9C9C"/>
<stop offset="0.8857" stop-color="#7F9FA9"/>
<stop offset="1" stop-color="#789AA4"/>
</linearGradient>
<linearGradient id="paint1_linear_0_3462" x1="198.37" y1="95.2258" x2="201.874" y2="104.355" gradientUnits="userSpaceOnUse">
<stop stop-color="#E6E6E6"/>
<stop offset="1" stop-color="#999999"/>
</linearGradient>
<linearGradient id="paint2_linear_0_3462" x1="196.555" y1="99.9954" x2="204.217" y2="106.364" gradientUnits="userSpaceOnUse">
<stop stop-color="#766E6E" stop-opacity="0"/>
<stop offset="0.2806" stop-color="#716B6B" stop-opacity="0.281"/>
<stop offset="0.5705" stop-color="#656060" stop-opacity="0.571"/>
<stop offset="0.8636" stop-color="#514F4F" stop-opacity="0.864"/>
<stop offset="1" stop-color="#444444"/>
</linearGradient>
<linearGradient id="paint3_linear_0_3462" x1="194.421" y1="87.1877" x2="201.764" y2="96.4413" gradientUnits="userSpaceOnUse">
<stop stop-color="#E6E6E6"/>
<stop offset="1" stop-color="#999999"/>
</linearGradient>
<linearGradient id="paint4_linear_0_3462" x1="196.228" y1="95.8274" x2="203.205" y2="97.5708" gradientUnits="userSpaceOnUse">
<stop stop-color="#766E6E" stop-opacity="0"/>
<stop offset="0.2806" stop-color="#716B6B" stop-opacity="0.281"/>
<stop offset="0.5705" stop-color="#656060" stop-opacity="0.571"/>
<stop offset="0.8636" stop-color="#514F4F" stop-opacity="0.864"/>
<stop offset="1" stop-color="#444444"/>
</linearGradient>
<linearGradient id="paint5_linear_0_3462" x1="204.077" y1="75.4777" x2="204.839" y2="91.1668" gradientUnits="userSpaceOnUse">
<stop stop-color="#E6E6E6"/>
<stop offset="1" stop-color="#999999"/>
</linearGradient>
<linearGradient id="paint6_linear_0_3462" x1="202.907" y1="83.5972" x2="207.469" y2="90.3377" gradientUnits="userSpaceOnUse">
<stop stop-color="#766E6E" stop-opacity="0"/>
<stop offset="0.2806" stop-color="#716B6B" stop-opacity="0.281"/>
<stop offset="0.5705" stop-color="#656060" stop-opacity="0.571"/>
<stop offset="0.8636" stop-color="#514F4F" stop-opacity="0.864"/>
<stop offset="1" stop-color="#444444"/>
</linearGradient>
<linearGradient id="paint7_linear_0_3462" x1="261.439" y1="95.2187" x2="257.935" y2="104.348" gradientUnits="userSpaceOnUse">
<stop stop-color="#E6E6E6"/>
<stop offset="1" stop-color="#999999"/>
</linearGradient>
<linearGradient id="paint8_linear_0_3462" x1="263.254" y1="99.9882" x2="255.592" y2="106.356" gradientUnits="userSpaceOnUse">
<stop stop-color="#766E6E" stop-opacity="0"/>
<stop offset="0.2806" stop-color="#716B6B" stop-opacity="0.281"/>
<stop offset="0.5705" stop-color="#656060" stop-opacity="0.571"/>
<stop offset="0.8636" stop-color="#514F4F" stop-opacity="0.864"/>
<stop offset="1" stop-color="#444444"/>
</linearGradient>
<linearGradient id="paint9_linear_0_3462" x1="265.387" y1="87.1805" x2="258.045" y2="96.4343" gradientUnits="userSpaceOnUse">
<stop stop-color="#E6E6E6"/>
<stop offset="1" stop-color="#999999"/>
</linearGradient>
<linearGradient id="paint10_linear_0_3462" x1="263.58" y1="95.8203" x2="256.603" y2="97.5639" gradientUnits="userSpaceOnUse">
<stop stop-color="#766E6E" stop-opacity="0"/>
<stop offset="0.2806" stop-color="#716B6B" stop-opacity="0.281"/>
<stop offset="0.5705" stop-color="#656060" stop-opacity="0.571"/>
<stop offset="0.8636" stop-color="#514F4F" stop-opacity="0.864"/>
<stop offset="1" stop-color="#444444"/>
</linearGradient>
<linearGradient id="paint11_linear_0_3462" x1="255.732" y1="75.4706" x2="254.97" y2="91.1599" gradientUnits="userSpaceOnUse">
<stop stop-color="#E6E6E6"/>
<stop offset="1" stop-color="#999999"/>
</linearGradient>
<linearGradient id="paint12_linear_0_3462" x1="256.902" y1="83.5901" x2="252.34" y2="90.3306" gradientUnits="userSpaceOnUse">
<stop stop-color="#766E6E" stop-opacity="0"/>
<stop offset="0.2806" stop-color="#716B6B" stop-opacity="0.281"/>
<stop offset="0.5705" stop-color="#656060" stop-opacity="0.571"/>
<stop offset="0.8636" stop-color="#514F4F" stop-opacity="0.864"/>
<stop offset="1" stop-color="#444444"/>
</linearGradient>
<linearGradient id="paint13_linear_0_3462" x1="210.904" y1="75.3719" x2="243.399" y2="107.867" gradientUnits="userSpaceOnUse">
<stop stop-color="#E6E6E6"/>
<stop offset="1" stop-color="#999999"/>
</linearGradient>
<linearGradient id="paint14_linear_0_3462" x1="245.851" y1="110.319" x2="213.484" y2="77.9523" gradientUnits="userSpaceOnUse">
<stop stop-color="#E6E6E6"/>
<stop offset="1" stop-color="#999999"/>
</linearGradient>
<linearGradient id="paint15_linear_0_3462" x1="214.573" y1="79.0409" x2="239.802" y2="104.27" gradientUnits="userSpaceOnUse">
<stop stop-color="#E6E6E6"/>
<stop offset="1" stop-color="#999999"/>
</linearGradient>
<linearGradient id="paint16_linear_0_3462" x1="229.9" y1="103.383" x2="229.9" y2="123.606" gradientUnits="userSpaceOnUse">
<stop stop-color="#766E6E" stop-opacity="0"/>
<stop offset="0.2806" stop-color="#716B6B" stop-opacity="0.281"/>
<stop offset="0.5705" stop-color="#656060" stop-opacity="0.571"/>
<stop offset="0.8636" stop-color="#514F4F" stop-opacity="0.864"/>
<stop offset="1" stop-color="#444444"/>
</linearGradient>
<linearGradient id="paint17_linear_0_3462" x1="248.3" y1="110.408" x2="222.865" y2="94.4115" gradientUnits="userSpaceOnUse">
<stop stop-color="#766E6E" stop-opacity="0"/>
<stop offset="0.2806" stop-color="#716B6B" stop-opacity="0.281"/>
<stop offset="0.5705" stop-color="#656060" stop-opacity="0.571"/>
<stop offset="0.8636" stop-color="#514F4F" stop-opacity="0.864"/>
<stop offset="1" stop-color="#444444"/>
</linearGradient>
<linearGradient id="paint18_linear_0_3462" x1="223.482" y1="88.5117" x2="235.056" y2="100.085" gradientUnits="userSpaceOnUse">
<stop stop-color="#F9F5F3"/>
<stop offset="1" stop-color="#D8E8F0"/>
</linearGradient>
<linearGradient id="paint19_linear_0_3462" x1="236.835" y1="91.6673" x2="220.839" y2="98.2803" gradientUnits="userSpaceOnUse">
<stop stop-color="#678D98" stop-opacity="0"/>
<stop offset="0.9957" stop-color="#678D98" stop-opacity="0.996"/>
<stop offset="1" stop-color="#678D98"/>
</linearGradient>
<linearGradient id="paint20_linear_0_3462" x1="232.658" y1="97.3442" x2="223.9" y2="93.5907" gradientUnits="userSpaceOnUse">
<stop stop-color="#678D98" stop-opacity="0"/>
<stop offset="0.9957" stop-color="#678D98" stop-opacity="0.996"/>
<stop offset="1" stop-color="#678D98"/>
</linearGradient>
<linearGradient id="paint21_linear_0_3462" x1="227.142" y1="97.3442" x2="235.9" y2="93.5907" gradientUnits="userSpaceOnUse">
<stop stop-color="#678D98" stop-opacity="0"/>
<stop offset="0.9957" stop-color="#678D98" stop-opacity="0.996"/>
<stop offset="1" stop-color="#678D98"/>
</linearGradient>
<linearGradient id="paint22_linear_0_3462" x1="227.336" y1="97.7833" x2="232.966" y2="88.735" gradientUnits="userSpaceOnUse">
<stop stop-color="#678D98" stop-opacity="0"/>
<stop offset="0.9957" stop-color="#678D98" stop-opacity="0.996"/>
<stop offset="1" stop-color="#678D98"/>
</linearGradient>
<linearGradient id="paint23_linear_0_3462" x1="232.032" y1="96.6406" x2="231.563" y2="87.7934" gradientUnits="userSpaceOnUse">
<stop stop-color="#678D98" stop-opacity="0"/>
<stop offset="0.9957" stop-color="#678D98" stop-opacity="0.996"/>
<stop offset="1" stop-color="#678D98"/>
</linearGradient>
</defs>
</svg>
