<svg width="380" height="300" viewBox="0 0 380 300" fill="none" xmlns="http://www.w3.org/2000/svg">
<rect x="0.5" y="0.5" width="379" height="299" rx="17.5" fill="#D3F5F7" stroke="#F3F3F3"/>
<circle cx="190.5" cy="82.5" r="52" fill="white" stroke="#40E1EA"/>
<path d="M214.966 73.5063V104.838C214.966 105.923 214.086 106.803 213.001 106.803H195.248C194.615 106.803 194.101 107.317 194.101 107.95C194.101 108.669 193.513 109.257 192.794 109.257H188.199C187.48 109.257 186.891 108.669 186.891 107.95C186.891 107.317 186.378 106.803 185.744 106.803H167.991C166.91 106.803 166.034 105.927 166.034 104.846V73.5063C166.034 72.436 166.906 71.5415 167.991 71.5415H213.001C214.087 71.5415 214.966 72.436 214.966 73.5063Z" fill="#7BD681"/>
<path d="M212.351 91.061V103.63C212.351 103.882 212.145 104.089 211.892 104.089H169.085C168.832 104.089 168.626 103.882 168.626 103.63V91.061H212.351Z" fill="#CFCFFF"/>
<path d="M212.349 72.3344V101.834C209.697 99.8887 206.271 98.8327 202.696 98.8993C198.688 98.9574 194.498 100.412 191.014 103.588C190.84 103.755 190.657 103.913 190.491 104.079V104.096L190.482 104.087C190.307 103.921 190.15 103.763 189.967 103.605C186.5 100.421 182.317 98.9574 178.301 98.8993C174.726 98.8327 171.292 99.8887 168.623 101.834V72.3344C168.623 71.844 168.873 71.3617 169.28 71.0791C174.734 67.3709 179.806 67.1878 189.967 71.3284C190.141 71.395 190.316 71.4615 190.491 71.5444C190.665 71.4615 190.848 71.395 191.014 71.3284C201.183 67.1878 206.255 67.3709 211.692 71.0791C212.108 71.3617 212.349 71.844 212.349 72.3344Z" fill="#E9E9FF"/>
<path d="M181.659 75.4473H176.137C175.222 75.4473 174.481 74.7057 174.481 73.7909C174.481 72.8761 175.222 72.1345 176.137 72.1345H181.659C182.573 72.1345 183.315 72.8761 183.315 73.7909C183.315 74.7057 182.573 75.4473 181.659 75.4473Z" fill="#CFCFFF"/>
<path d="M181.659 82.0729H176.137C175.222 82.0729 174.481 81.3313 174.481 80.4165C174.481 79.5018 175.222 78.7601 176.137 78.7601H181.659C182.573 78.7601 183.315 79.5018 183.315 80.4165C183.315 81.3313 182.573 82.0729 181.659 82.0729Z" fill="#CFCFFF"/>
<path d="M181.659 88.6985H176.137C175.222 88.6985 174.481 87.9569 174.481 87.0421C174.481 86.1274 175.222 85.3857 176.137 85.3857H181.659C182.573 85.3857 183.315 86.1274 183.315 87.0421C183.315 87.9569 182.573 88.6985 181.659 88.6985Z" fill="#CFCFFF"/>
<path d="M181.659 95.3242H176.137C175.222 95.3242 174.481 94.5825 174.481 93.6678C174.481 92.753 175.222 92.0114 176.137 92.0114H181.659C182.573 92.0114 183.315 92.753 183.315 93.6678C183.315 94.5825 182.573 95.3242 181.659 95.3242Z" fill="#CFCFFF"/>
<path d="M191.012 71.3271V104.089H190.492V104.097L190.485 104.089H189.965V71.3271C190.141 71.3962 190.317 71.4649 190.492 71.5414C190.668 71.4649 190.844 71.3962 191.012 71.3271Z" fill="#CFCFFF"/>
<path d="M193.675 88.2316C193.675 91.0354 192.174 93.4739 191.236 94.7232C190.868 95.2141 190.135 95.2141 189.767 94.7232C188.829 93.4739 187.327 91.0353 187.327 88.2315C187.327 85.4277 188.829 82.9891 189.766 81.7399C190.135 81.249 190.868 81.249 191.236 81.7399C192.174 82.9892 193.675 85.4277 193.675 88.2316Z" fill="#ED524E"/>
<path d="M192.757 86.2457C192.757 88.2378 191.69 89.9704 191.023 90.858C190.762 91.2068 190.241 91.2068 189.979 90.858C189.313 89.9704 188.246 88.2378 188.246 86.2456C188.246 84.2535 189.313 82.5209 189.979 81.6333C190.241 81.2845 190.762 81.2845 191.023 81.6333C191.69 82.5209 192.757 84.2535 192.757 86.2457Z" fill="#FDC72E"/>
<path d="M202.828 78.7442L202.828 85.5013C202.828 85.905 202.504 86.2338 202.096 86.2338H201.124C200.884 86.2338 200.654 86.1116 200.518 85.9099L198.236 82.5383L194.677 77.2793H201.363C202.176 77.2793 202.828 77.9366 202.828 78.7442Z" fill="#ED524E"/>
<path d="M200.114 77.2793C199.725 79.1245 199.1 80.876 198.236 82.5383L194.677 77.2793H200.114Z" fill="#B72A2A"/>
<path d="M186.323 77.2793L182.764 82.5383L180.486 85.9099C180.346 86.1116 180.12 86.2338 179.876 86.2338H178.904C178.5 86.2338 178.172 85.905 178.172 85.5013L178.172 78.7442C178.172 77.9366 178.829 77.2793 179.641 77.2793H186.323Z" fill="#ED524E"/>
<path d="M186.323 77.2793L182.764 82.5383C181.905 80.8808 181.275 79.1245 180.89 77.2793H186.323Z" fill="#B72A2A"/>
<path d="M195.695 60.1952C195.379 59.7628 195.063 59.3637 194.739 58.9979C195.063 59.3637 195.388 59.7628 195.695 60.1952Z" fill="#FDC72E"/>
<path d="M184.45 61.4609C184.426 61.5003 184.402 61.5438 184.377 61.5839H184.371C184.397 61.5413 184.424 61.5028 184.45 61.4609Z" fill="#FDC72E"/>
<path d="M185.302 60.2036C185.085 60.4971 184.872 60.813 184.661 61.1345C184.872 60.8126 185.086 60.4996 185.302 60.2036Z" fill="#FDC72E"/>
<path d="M199.67 72.5089C199.67 78.0546 197.699 82.1704 195.587 84.9806H185.41C183.298 82.1704 181.336 78.0546 181.336 72.5089C181.336 67.9002 182.702 64.2874 184.377 61.584H196.635C198.306 64.2862 199.67 67.9027 199.67 72.5089Z" fill="#FDC72E"/>
<path d="M195.342 70.3054C195.342 72.7253 193.378 74.6895 190.958 74.6895C188.538 74.6895 186.574 72.7252 186.574 70.3053C186.574 67.8854 188.538 65.9211 190.958 65.9211C193.378 65.9212 195.342 67.8855 195.342 70.3054Z" fill="#F9AC00"/>
<path d="M194.885 69.8487C194.885 72.2686 192.921 74.2329 190.501 74.2329C188.081 74.2328 186.117 72.2685 186.117 69.8486C186.117 67.4287 188.081 65.4645 190.501 65.4645C192.921 65.4645 194.885 67.4288 194.885 69.8487Z" fill="#4F5D99"/>
<path d="M193.614 69.8487C193.614 71.567 192.22 72.9617 190.501 72.9617C188.783 72.9617 187.388 71.5669 187.388 69.8486C187.388 68.1303 188.783 66.7356 190.501 66.7356C192.22 66.7356 193.614 68.1304 193.614 69.8487Z" fill="#70C1F9"/>
<path d="M183.836 82.5355C184.331 83.4384 184.868 84.253 185.414 84.9805L195.589 84.9806C196.135 84.2531 196.671 83.4385 197.167 82.5356L183.836 82.5355Z" fill="#ED524E"/>
<path d="M196.633 61.5857C195.017 58.9687 193.113 57.1964 191.858 56.2119C191.061 55.5861 189.941 55.5861 189.144 56.2119C187.889 57.1964 185.985 58.9687 184.369 61.5856L196.633 61.5857Z" fill="#ED524E"/>
<path d="M196.666 85.6512L196.666 86.6549C196.666 87.0256 196.365 87.3261 195.995 87.3261L185.008 87.3261C184.638 87.3261 184.339 87.0263 184.339 86.6565L184.339 85.6511C184.339 85.2804 184.639 84.9799 185.01 84.9799L195.995 84.9799C196.365 84.9799 196.666 85.2805 196.666 85.6512Z" fill="#4F5D99"/>
<g opacity="0.2">
<path d="M192.769 73.5901C192.103 73.9973 191.33 74.2303 190.499 74.2303C189.742 74.2303 189.019 74.0387 188.395 73.6895L186.5 68.061C187.123 66.664 188.462 65.6495 190.05 65.4916L192.769 73.5901Z" fill="white"/>
<path d="M194.506 71.6361C194.298 72.0933 194.016 72.5175 193.667 72.8748L191.197 65.5334C191.704 65.6081 192.187 65.7746 192.619 66.0153L194.506 71.6361Z" fill="white"/>
</g>
<path d="M66.8227 211L65.8147 208.21H60.3427L59.3347 211H57.6067L62.1427 198.526H64.0327L68.5507 211H66.8227ZM65.3467 206.878L63.0787 200.542L60.8107 206.878H65.3467ZM70.5276 211V197.68H72.1656V211H70.5276ZM74.9573 211V197.68H76.5953V211H74.9573ZM88.747 206.05C88.747 209.182 86.497 211.162 83.689 211.162C80.899 211.162 78.775 209.182 78.775 206.05C78.775 202.936 80.971 200.974 83.761 200.974C86.569 200.974 88.747 202.936 88.747 206.05ZM80.449 206.05C80.449 208.552 81.979 209.722 83.689 209.722C85.399 209.722 87.073 208.552 87.073 206.05C87.073 203.566 85.435 202.396 83.743 202.396C82.015 202.396 80.449 203.566 80.449 206.05ZM92.8266 211L89.7306 201.136H91.4046L93.6726 209.416L96.1206 201.136H97.7946L100.189 209.434L102.421 201.136H104.041L100.963 211H99.2706L96.8946 203.17L94.5186 211H92.8266ZM112.758 208.318C112.758 209.938 111.336 211.162 109.158 211.162C106.854 211.162 105.234 209.902 105.126 208.102H106.818C106.908 209.056 107.754 209.776 109.14 209.776C110.436 209.776 111.156 209.128 111.156 208.318C111.156 206.122 105.324 207.4 105.324 203.728C105.324 202.216 106.746 200.974 108.942 200.974C111.12 200.974 112.56 202.144 112.668 204.07H111.03C110.958 203.08 110.202 202.36 108.888 202.36C107.682 202.36 106.962 202.936 106.962 203.728C106.962 206.068 112.686 204.79 112.758 208.318ZM120.229 208.3V202.486H118.951V201.136H120.229V198.652H121.867V201.136H124.441V202.486H121.867V208.3C121.867 209.272 122.227 209.614 123.235 209.614H124.441V211H122.965C121.219 211 120.229 210.28 120.229 208.3ZM126.426 211V197.68H128.064V202.558C128.712 201.514 129.936 200.956 131.322 200.956C133.518 200.956 135.264 202.36 135.264 205.186V211H133.644V205.42C133.644 203.404 132.546 202.378 130.89 202.378C129.216 202.378 128.064 203.422 128.064 205.546V211H126.426ZM142.134 202.36C140.532 202.36 139.2 203.422 139.02 205.348H145.248C145.266 203.422 143.826 202.36 142.134 202.36ZM146.742 207.958C146.238 209.758 144.654 211.162 142.206 211.162C139.398 211.162 137.328 209.182 137.328 206.05C137.328 202.936 139.326 200.974 142.206 200.974C145.068 200.974 146.94 202.99 146.94 205.69C146.94 206.05 146.922 206.338 146.886 206.68H139.002C139.128 208.678 140.532 209.776 142.206 209.776C143.682 209.776 144.618 209.02 144.978 207.958H146.742ZM155.539 202.954C156.133 201.91 157.429 200.974 159.229 200.974C161.875 200.974 163.909 202.954 163.909 206.032C163.909 209.092 161.875 211.162 159.229 211.162C157.429 211.162 156.151 210.19 155.539 209.182V215.68H153.901V201.136H155.539V202.954ZM162.235 206.032C162.235 203.71 160.705 202.396 158.887 202.396C157.105 202.396 155.539 203.764 155.539 206.05C155.539 208.372 157.105 209.722 158.887 209.722C160.705 209.722 162.235 208.354 162.235 206.032ZM174.813 201.136V211H173.175V209.542C172.545 210.568 171.339 211.144 170.025 211.144C167.757 211.144 165.975 209.74 165.975 206.914V201.136H167.595V206.698C167.595 208.696 168.693 209.722 170.349 209.722C172.041 209.722 173.175 208.678 173.175 206.554V201.136H174.813ZM179.216 202.972C179.846 201.874 181.16 200.974 182.906 200.974C185.57 200.974 187.586 202.954 187.586 206.032C187.586 209.092 185.552 211.162 182.906 211.162C181.106 211.162 179.828 210.262 179.216 209.182V211H177.578V197.68H179.216V202.972ZM185.912 206.032C185.912 203.71 184.382 202.396 182.564 202.396C180.782 202.396 179.216 203.764 179.216 206.05C179.216 208.372 180.782 209.722 182.564 209.722C184.382 209.722 185.912 208.354 185.912 206.032ZM189.742 211V197.68H191.38V211H189.742ZM194.172 211V201.136H195.81V211H194.172ZM195.018 199.534C194.388 199.534 193.902 199.048 193.902 198.418C193.902 197.788 194.388 197.302 195.018 197.302C195.612 197.302 196.098 197.788 196.098 198.418C196.098 199.048 195.612 199.534 195.018 199.534ZM205.694 208.318C205.694 209.938 204.272 211.162 202.094 211.162C199.79 211.162 198.17 209.902 198.062 208.102H199.754C199.844 209.056 200.69 209.776 202.076 209.776C203.372 209.776 204.092 209.128 204.092 208.318C204.092 206.122 198.26 207.4 198.26 203.728C198.26 202.216 199.682 200.974 201.878 200.974C204.056 200.974 205.496 202.144 205.604 204.07H203.966C203.894 203.08 203.138 202.36 201.824 202.36C200.618 202.36 199.898 202.936 199.898 203.728C199.898 206.068 205.622 204.79 205.694 208.318ZM208.006 211V197.68H209.644V202.558C210.292 201.514 211.516 200.956 212.902 200.956C215.098 200.956 216.844 202.36 216.844 205.186V211H215.224V205.42C215.224 203.404 214.126 202.378 212.47 202.378C210.796 202.378 209.644 203.422 209.644 205.546V211H208.006ZM223.714 202.36C222.112 202.36 220.78 203.422 220.6 205.348H226.828C226.846 203.422 225.406 202.36 223.714 202.36ZM228.322 207.958C227.818 209.758 226.234 211.162 223.786 211.162C220.978 211.162 218.908 209.182 218.908 206.05C218.908 202.936 220.906 200.974 223.786 200.974C226.648 200.974 228.52 202.99 228.52 205.69C228.52 206.05 228.502 206.338 228.466 206.68H220.582C220.708 208.678 222.112 209.776 223.786 209.776C225.262 209.776 226.198 209.02 226.558 207.958H228.322ZM230.07 206.032C230.07 202.954 232.104 200.974 234.768 200.974C236.316 200.974 237.738 201.766 238.422 202.9V197.68H240.078V211H238.422V209.146C237.828 210.244 236.55 211.162 234.75 211.162C232.104 211.162 230.07 209.092 230.07 206.032ZM238.422 206.05C238.422 203.764 236.874 202.396 235.074 202.396C233.274 202.396 231.744 203.71 231.744 206.032C231.744 208.354 233.274 209.722 235.074 209.722C236.874 209.722 238.422 208.372 238.422 206.05ZM249.283 202.972C249.913 201.874 251.227 200.974 252.973 200.974C255.637 200.974 257.653 202.954 257.653 206.032C257.653 209.092 255.619 211.162 252.973 211.162C251.173 211.162 249.895 210.262 249.283 209.182V211H247.645V197.68H249.283V202.972ZM255.979 206.032C255.979 203.71 254.449 202.396 252.631 202.396C250.849 202.396 249.283 203.764 249.283 206.05C249.283 208.372 250.849 209.722 252.631 209.722C254.449 209.722 255.979 208.354 255.979 206.032ZM269.169 206.05C269.169 209.182 266.919 211.162 264.111 211.162C261.321 211.162 259.197 209.182 259.197 206.05C259.197 202.936 261.393 200.974 264.183 200.974C266.991 200.974 269.169 202.936 269.169 206.05ZM260.871 206.05C260.871 208.552 262.401 209.722 264.111 209.722C265.821 209.722 267.495 208.552 267.495 206.05C267.495 203.566 265.857 202.396 264.165 202.396C262.437 202.396 260.871 203.566 260.871 206.05ZM280.683 206.05C280.683 209.182 278.433 211.162 275.625 211.162C272.835 211.162 270.711 209.182 270.711 206.05C270.711 202.936 272.907 200.974 275.697 200.974C278.505 200.974 280.683 202.936 280.683 206.05ZM272.385 206.05C272.385 208.552 273.915 209.722 275.625 209.722C277.335 209.722 279.009 208.552 279.009 206.05C279.009 203.566 277.371 202.396 275.679 202.396C273.951 202.396 272.385 203.566 272.385 206.05ZM282.836 211V197.68H284.474V205.51L288.272 201.136H290.558L285.914 206.05L290.576 211H288.344L284.474 206.644V211H282.836ZM299.192 208.318C299.192 209.938 297.77 211.162 295.592 211.162C293.288 211.162 291.668 209.902 291.56 208.102H293.252C293.342 209.056 294.188 209.776 295.574 209.776C296.87 209.776 297.59 209.128 297.59 208.318C297.59 206.122 291.758 207.4 291.758 203.728C291.758 202.216 293.18 200.974 295.376 200.974C297.554 200.974 298.994 202.144 299.102 204.07H297.464C297.392 203.08 296.636 202.36 295.322 202.36C294.116 202.36 293.396 202.936 293.396 203.728C293.396 206.068 299.12 204.79 299.192 208.318ZM306.663 208.3V202.486H305.385V201.136H306.663V198.652H308.301V201.136H310.875V202.486H308.301V208.3C308.301 209.272 308.661 209.614 309.669 209.614H310.875V211H309.399C307.653 211 306.663 210.28 306.663 208.3ZM322.22 206.05C322.22 209.182 319.97 211.162 317.162 211.162C314.372 211.162 312.248 209.182 312.248 206.05C312.248 202.936 314.444 200.974 317.234 200.974C320.042 200.974 322.22 202.936 322.22 206.05ZM313.922 206.05C313.922 208.552 315.452 209.722 317.162 209.722C318.872 209.722 320.546 208.552 320.546 206.05C320.546 203.566 318.908 202.396 317.216 202.396C315.488 202.396 313.922 203.566 313.922 206.05ZM78.5201 229.972C79.1501 228.874 80.4641 227.974 82.2101 227.974C84.8741 227.974 86.8901 229.954 86.8901 233.032C86.8901 236.092 84.8561 238.162 82.2101 238.162C80.4101 238.162 79.1321 237.262 78.5201 236.182V238H76.8821V224.68H78.5201V229.972ZM85.2161 233.032C85.2161 230.71 83.6861 229.396 81.8681 229.396C80.0861 229.396 78.5201 230.764 78.5201 233.05C78.5201 235.372 80.0861 236.722 81.8681 236.722C83.6861 236.722 85.2161 235.354 85.2161 233.032ZM93.2402 229.36C91.6382 229.36 90.3062 230.422 90.1262 232.348H96.3542C96.3722 230.422 94.9322 229.36 93.2402 229.36ZM97.8482 234.958C97.3442 236.758 95.7602 238.162 93.3122 238.162C90.5042 238.162 88.4342 236.182 88.4342 233.05C88.4342 229.936 90.4322 227.974 93.3122 227.974C96.1742 227.974 98.0462 229.99 98.0462 232.69C98.0462 233.05 98.0282 233.338 97.9922 233.68H90.1082C90.2342 235.678 91.6382 236.776 93.3122 236.776C94.7882 236.776 95.7242 236.02 96.0842 234.958H97.8482ZM112.099 235.318C112.099 236.938 110.677 238.162 108.499 238.162C106.195 238.162 104.575 236.902 104.467 235.102H106.159C106.249 236.056 107.095 236.776 108.481 236.776C109.777 236.776 110.497 236.128 110.497 235.318C110.497 233.122 104.665 234.4 104.665 230.728C104.665 229.216 106.087 227.974 108.283 227.974C110.461 227.974 111.901 229.144 112.009 231.07H110.371C110.299 230.08 109.543 229.36 108.229 229.36C107.023 229.36 106.303 229.936 106.303 230.728C106.303 233.068 112.027 231.79 112.099 235.318ZM114.411 238V224.68H116.049V229.558C116.697 228.514 117.921 227.956 119.307 227.956C121.503 227.956 123.249 229.36 123.249 232.186V238H121.629V232.42C121.629 230.404 120.531 229.378 118.875 229.378C117.201 229.378 116.049 230.422 116.049 232.546V238H114.411ZM125.313 233.032C125.313 229.954 127.347 227.974 129.993 227.974C131.829 227.974 133.089 228.91 133.665 229.936V228.136H135.321V238H133.665V236.164C133.071 237.226 131.793 238.162 129.975 238.162C127.347 238.162 125.313 236.092 125.313 233.032ZM133.665 233.05C133.665 230.764 132.117 229.396 130.317 229.396C128.517 229.396 126.987 230.71 126.987 233.032C126.987 235.354 128.517 236.722 130.317 236.722C132.117 236.722 133.665 235.372 133.665 233.05ZM139.727 232.636V238H138.089V228.136H139.727V229.738C140.285 228.64 141.347 227.956 142.913 227.956V229.648H142.481C140.915 229.648 139.727 230.35 139.727 232.636ZM148.998 229.36C147.396 229.36 146.064 230.422 145.884 232.348H152.112C152.13 230.422 150.69 229.36 148.998 229.36ZM153.606 234.958C153.102 236.758 151.518 238.162 149.07 238.162C146.262 238.162 144.192 236.182 144.192 233.05C144.192 229.936 146.19 227.974 149.07 227.974C151.932 227.974 153.804 229.99 153.804 232.69C153.804 233.05 153.786 233.338 153.75 233.68H145.866C145.992 235.678 147.396 236.776 149.07 236.776C150.546 236.776 151.482 236.02 151.842 234.958H153.606ZM155.354 233.032C155.354 229.954 157.388 227.974 160.052 227.974C161.6 227.974 163.022 228.766 163.706 229.9V224.68H165.362V238H163.706V236.146C163.112 237.244 161.834 238.162 160.034 238.162C157.388 238.162 155.354 236.092 155.354 233.032ZM163.706 233.05C163.706 230.764 162.158 229.396 160.358 229.396C158.558 229.396 157.028 230.71 157.028 233.032C157.028 235.354 158.558 236.722 160.358 236.722C162.158 236.722 163.706 235.372 163.706 233.05ZM174.855 238L171.759 228.136H173.433L175.701 236.416L178.149 228.136H179.823L182.217 236.434L184.449 228.136H186.069L182.991 238H181.299L178.923 230.17L176.547 238H174.855ZM187.695 238V228.136H189.333V238H187.695ZM188.541 226.534C187.911 226.534 187.425 226.048 187.425 225.418C187.425 224.788 187.911 224.302 188.541 224.302C189.135 224.302 189.621 224.788 189.621 225.418C189.621 226.048 189.135 226.534 188.541 226.534ZM192.484 235.3V229.486H191.206V228.136H192.484V225.652H194.122V228.136H196.696V229.486H194.122V235.3C194.122 236.272 194.482 236.614 195.49 236.614H196.696V238H195.22C193.474 238 192.484 237.28 192.484 235.3ZM198.681 238V224.68H200.319V229.558C200.967 228.514 202.191 227.956 203.577 227.956C205.773 227.956 207.519 229.36 207.519 232.186V238H205.899V232.42C205.899 230.404 204.801 229.378 203.145 229.378C201.471 229.378 200.319 230.422 200.319 232.546V238H198.681ZM215.353 235.3V229.486H214.075V228.136H215.353V225.652H216.991V228.136H219.565V229.486H216.991V235.3C216.991 236.272 217.351 236.614 218.359 236.614H219.565V238H218.089C216.343 238 215.353 237.28 215.353 235.3ZM221.55 238V224.68H223.188V229.558C223.836 228.514 225.06 227.956 226.446 227.956C228.642 227.956 230.388 229.36 230.388 232.186V238H228.768V232.42C228.768 230.404 227.67 229.378 226.014 229.378C224.34 229.378 223.188 230.422 223.188 232.546V238H221.55ZM237.258 229.36C235.656 229.36 234.324 230.422 234.144 232.348H240.372C240.39 230.422 238.95 229.36 237.258 229.36ZM241.866 234.958C241.362 236.758 239.778 238.162 237.33 238.162C234.522 238.162 232.452 236.182 232.452 233.05C232.452 229.936 234.45 227.974 237.33 227.974C240.192 227.974 242.064 229.99 242.064 232.69C242.064 233.05 242.046 233.338 242.01 233.68H234.126C234.252 235.678 235.656 236.776 237.33 236.776C238.806 236.776 239.742 236.02 240.102 234.958H241.866ZM248.413 233.032C248.413 229.954 250.447 227.974 253.093 227.974C254.893 227.974 256.189 228.874 256.765 229.936V228.136H258.421V238.216C258.421 240.934 256.603 242.86 253.705 242.86C251.113 242.86 249.259 241.546 248.935 239.44H250.555C250.915 240.628 252.085 241.438 253.705 241.438C255.451 241.438 256.765 240.322 256.765 238.216V236.146C256.171 237.208 254.893 238.162 253.093 238.162C250.447 238.162 248.413 236.092 248.413 233.032ZM256.765 233.05C256.765 230.764 255.217 229.396 253.417 229.396C251.617 229.396 250.087 230.71 250.087 233.032C250.087 235.354 251.617 236.722 253.417 236.722C255.217 236.722 256.765 235.372 256.765 233.05ZM261.189 238V224.68H262.827V238H261.189ZM274.978 233.05C274.978 236.182 272.728 238.162 269.92 238.162C267.13 238.162 265.006 236.182 265.006 233.05C265.006 229.936 267.202 227.974 269.992 227.974C272.8 227.974 274.978 229.936 274.978 233.05ZM266.68 233.05C266.68 235.552 268.21 236.722 269.92 236.722C271.63 236.722 273.304 235.552 273.304 233.05C273.304 230.566 271.666 229.396 269.974 229.396C268.246 229.396 266.68 230.566 266.68 233.05ZM278.77 229.972C279.4 228.874 280.714 227.974 282.46 227.974C285.124 227.974 287.14 229.954 287.14 233.032C287.14 236.092 285.106 238.162 282.46 238.162C280.66 238.162 279.382 237.262 278.77 236.182V238H277.132V224.68H278.77V229.972ZM285.466 233.032C285.466 230.71 283.936 229.396 282.118 229.396C280.336 229.396 278.77 230.764 278.77 233.05C278.77 235.372 280.336 236.722 282.118 236.722C283.936 236.722 285.466 235.354 285.466 233.032ZM288.684 233.032C288.684 229.954 290.718 227.974 293.364 227.974C295.2 227.974 296.46 228.91 297.036 229.936V228.136H298.692V238H297.036V236.164C296.442 237.226 295.164 238.162 293.346 238.162C290.718 238.162 288.684 236.092 288.684 233.032ZM297.036 233.05C297.036 230.764 295.488 229.396 293.688 229.396C291.888 229.396 290.358 230.71 290.358 233.032C290.358 235.354 291.888 236.722 293.688 236.722C295.488 236.722 297.036 235.372 297.036 233.05ZM301.46 238V224.68H303.098V238H301.46ZM146.363 260.032C146.363 256.954 148.397 254.974 151.043 254.974C152.879 254.974 154.139 255.91 154.715 256.936V255.136H156.371V265H154.715V263.164C154.121 264.226 152.843 265.162 151.025 265.162C148.397 265.162 146.363 263.092 146.363 260.032ZM154.715 260.05C154.715 257.764 153.167 256.396 151.367 256.396C149.567 256.396 148.037 257.71 148.037 260.032C148.037 262.354 149.567 263.722 151.367 263.722C153.167 263.722 154.715 262.372 154.715 260.05ZM167.887 255.136V265H166.249V263.542C165.619 264.568 164.413 265.144 163.099 265.144C160.831 265.144 159.049 263.74 159.049 260.914V255.136H160.669V260.698C160.669 262.696 161.767 263.722 163.423 263.722C165.115 263.722 166.249 262.678 166.249 260.554V255.136H167.887ZM170.041 260.032C170.041 256.954 172.075 254.974 174.739 254.974C176.287 254.974 177.709 255.766 178.393 256.9V251.68H180.049V265H178.393V263.146C177.799 264.244 176.521 265.162 174.721 265.162C172.075 265.162 170.041 263.092 170.041 260.032ZM178.393 260.05C178.393 257.764 176.845 256.396 175.045 256.396C173.245 256.396 171.715 257.71 171.715 260.032C171.715 262.354 173.245 263.722 175.045 263.722C176.845 263.722 178.393 262.372 178.393 260.05ZM182.817 265V255.136H184.455V265H182.817ZM183.663 253.534C183.033 253.534 182.547 253.048 182.547 252.418C182.547 251.788 183.033 251.302 183.663 251.302C184.257 251.302 184.743 251.788 184.743 252.418C184.743 253.048 184.257 253.534 183.663 253.534ZM191.44 256.36C189.838 256.36 188.506 257.422 188.326 259.348H194.554C194.572 257.422 193.132 256.36 191.44 256.36ZM196.048 261.958C195.544 263.758 193.96 265.162 191.512 265.162C188.704 265.162 186.634 263.182 186.634 260.05C186.634 256.936 188.632 254.974 191.512 254.974C194.374 254.974 196.246 256.99 196.246 259.69C196.246 260.05 196.228 260.338 196.192 260.68H188.308C188.434 262.678 189.838 263.776 191.512 263.776C192.988 263.776 193.924 263.02 194.284 261.958H196.048ZM205.626 265V259.42C205.626 257.404 204.528 256.378 202.872 256.378C201.198 256.378 200.046 257.422 200.046 259.546V265H198.408V255.136H200.046V256.54C200.694 255.514 201.882 254.956 203.214 254.956C205.5 254.956 207.246 256.36 207.246 259.186V265H205.626ZM209.31 260.05C209.31 256.954 211.308 254.974 214.116 254.974C216.564 254.974 218.166 256.234 218.67 258.304H216.906C216.564 257.116 215.574 256.36 214.116 256.36C212.316 256.36 210.984 257.638 210.984 260.05C210.984 262.498 212.316 263.776 214.116 263.776C215.574 263.776 216.546 263.074 216.906 261.832H218.67C218.166 263.794 216.564 265.162 214.116 265.162C211.308 265.162 209.31 263.182 209.31 260.05ZM225.05 256.36C223.448 256.36 222.116 257.422 221.936 259.348H228.164C228.182 257.422 226.742 256.36 225.05 256.36ZM229.658 261.958C229.154 263.758 227.57 265.162 225.122 265.162C222.314 265.162 220.244 263.182 220.244 260.05C220.244 256.936 222.242 254.974 225.122 254.974C227.984 254.974 229.856 256.99 229.856 259.69C229.856 260.05 229.838 260.338 229.802 260.68H221.918C222.044 262.678 223.448 263.776 225.122 263.776C226.598 263.776 227.534 263.02 227.894 261.958H229.658ZM233.62 263.992C233.62 264.622 233.134 265.108 232.54 265.108C231.91 265.108 231.424 264.622 231.424 263.992C231.424 263.362 231.91 262.876 232.54 262.876C233.134 262.876 233.62 263.362 233.62 263.992Z" fill="#474F62"/>
<path d="M154.278 172.198C153.721 172.198 153.295 172.044 153.002 171.736C152.709 171.428 152.562 170.995 152.562 170.438V158.228C152.562 157.656 152.709 157.223 153.002 156.93C153.31 156.637 153.743 156.49 154.3 156.49H159.646C161.377 156.49 162.711 156.93 163.65 157.81C164.589 158.675 165.058 159.885 165.058 161.44C165.058 162.995 164.589 164.212 163.65 165.092C162.711 165.972 161.377 166.412 159.646 166.412H155.972V170.438C155.972 170.995 155.825 171.428 155.532 171.736C155.253 172.044 154.835 172.198 154.278 172.198ZM155.972 163.772H159.074C159.954 163.772 160.621 163.574 161.076 163.178C161.545 162.782 161.78 162.203 161.78 161.44C161.78 160.677 161.545 160.105 161.076 159.724C160.621 159.343 159.954 159.152 159.074 159.152H155.972V163.772ZM170.674 172.242C169.765 172.242 169.009 172.073 168.408 171.736C167.807 171.399 167.359 170.893 167.066 170.218C166.787 169.529 166.648 168.678 166.648 167.666V162.694C166.648 162.137 166.787 161.719 167.066 161.44C167.359 161.161 167.77 161.022 168.298 161.022C168.826 161.022 169.237 161.161 169.53 161.44C169.823 161.719 169.97 162.137 169.97 162.694V167.754C169.97 168.399 170.102 168.883 170.366 169.206C170.63 169.514 171.048 169.668 171.62 169.668C172.251 169.668 172.764 169.448 173.16 169.008C173.571 168.553 173.776 167.959 173.776 167.226V162.694C173.776 162.137 173.915 161.719 174.194 161.44C174.487 161.161 174.898 161.022 175.426 161.022C175.969 161.022 176.379 161.161 176.658 161.44C176.951 161.719 177.098 162.137 177.098 162.694V170.504C177.098 171.633 176.563 172.198 175.492 172.198C174.964 172.198 174.561 172.051 174.282 171.758C174.003 171.465 173.864 171.047 173.864 170.504V169.03L174.194 169.888C173.871 170.636 173.409 171.215 172.808 171.626C172.207 172.037 171.495 172.242 170.674 172.242ZM186.335 172.242C185.469 172.242 184.699 172.029 184.025 171.604C183.365 171.164 182.925 170.585 182.705 169.866L182.947 169.14V170.504C182.947 171.047 182.807 171.465 182.529 171.758C182.25 172.051 181.847 172.198 181.319 172.198C180.791 172.198 180.38 172.051 180.087 171.758C179.808 171.465 179.669 171.047 179.669 170.504V157.986C179.669 157.429 179.808 157.011 180.087 156.732C180.38 156.439 180.798 156.292 181.341 156.292C181.869 156.292 182.272 156.439 182.551 156.732C182.844 157.011 182.991 157.429 182.991 157.986V163.2H182.727C182.961 162.54 183.409 162.005 184.069 161.594C184.729 161.183 185.484 160.978 186.335 160.978C187.288 160.978 188.117 161.205 188.821 161.66C189.525 162.115 190.075 162.76 190.471 163.596C190.867 164.432 191.065 165.429 191.065 166.588C191.065 167.747 190.867 168.751 190.471 169.602C190.075 170.453 189.517 171.105 188.799 171.56C188.095 172.015 187.273 172.242 186.335 172.242ZM185.345 169.756C185.814 169.756 186.225 169.639 186.577 169.404C186.943 169.169 187.222 168.825 187.413 168.37C187.618 167.901 187.721 167.307 187.721 166.588C187.721 165.517 187.501 164.733 187.061 164.234C186.621 163.721 186.049 163.464 185.345 163.464C184.875 163.464 184.457 163.574 184.091 163.794C183.739 164.014 183.46 164.359 183.255 164.828C183.049 165.283 182.947 165.869 182.947 166.588C182.947 167.659 183.167 168.458 183.607 168.986C184.047 169.499 184.626 169.756 185.345 169.756ZM196.99 172.242C195.685 172.242 194.71 171.883 194.064 171.164C193.419 170.431 193.096 169.345 193.096 167.908V157.986C193.096 157.429 193.236 157.011 193.514 156.732C193.808 156.439 194.226 156.292 194.768 156.292C195.296 156.292 195.7 156.439 195.978 156.732C196.272 157.011 196.418 157.429 196.418 157.986V167.776C196.418 168.377 196.543 168.825 196.792 169.118C197.056 169.397 197.401 169.536 197.826 169.536C197.944 169.536 198.054 169.529 198.156 169.514C198.259 169.499 198.369 169.492 198.486 169.492C198.721 169.463 198.882 169.536 198.97 169.712C199.073 169.873 199.124 170.203 199.124 170.702C199.124 171.142 199.036 171.479 198.86 171.714C198.684 171.934 198.413 172.081 198.046 172.154C197.9 172.169 197.731 172.183 197.54 172.198C197.35 172.227 197.166 172.242 196.99 172.242ZM202.094 172.176C201.552 172.176 201.134 172.022 200.84 171.714C200.562 171.391 200.422 170.944 200.422 170.372V162.848C200.422 162.261 200.562 161.814 200.84 161.506C201.134 161.183 201.552 161.022 202.094 161.022C202.622 161.022 203.026 161.183 203.304 161.506C203.598 161.814 203.744 162.261 203.744 162.848V170.372C203.744 170.944 203.605 171.391 203.326 171.714C203.048 172.022 202.637 172.176 202.094 172.176ZM202.094 159.218C201.478 159.218 201.002 159.079 200.664 158.8C200.342 158.507 200.18 158.096 200.18 157.568C200.18 157.025 200.342 156.615 200.664 156.336C201.002 156.043 201.478 155.896 202.094 155.896C202.71 155.896 203.18 156.043 203.502 156.336C203.825 156.615 203.986 157.025 203.986 157.568C203.986 158.096 203.825 158.507 203.502 158.8C203.18 159.079 202.71 159.218 202.094 159.218ZM210.445 172.242C209.8 172.242 209.133 172.183 208.443 172.066C207.769 171.949 207.153 171.751 206.595 171.472C206.302 171.325 206.089 171.142 205.957 170.922C205.84 170.687 205.789 170.453 205.803 170.218C205.818 169.983 205.891 169.771 206.023 169.58C206.17 169.389 206.353 169.265 206.573 169.206C206.808 169.133 207.065 169.155 207.343 169.272C207.945 169.521 208.495 169.697 208.993 169.8C209.492 169.903 209.983 169.954 210.467 169.954C211.098 169.954 211.553 169.859 211.831 169.668C212.125 169.463 212.271 169.199 212.271 168.876C212.271 168.583 212.176 168.363 211.985 168.216C211.795 168.069 211.516 167.967 211.149 167.908L208.839 167.49C207.93 167.329 207.226 166.999 206.727 166.5C206.243 165.987 206.001 165.334 206.001 164.542C206.001 163.809 206.207 163.178 206.617 162.65C207.028 162.107 207.593 161.697 208.311 161.418C209.045 161.125 209.873 160.978 210.797 160.978C211.457 160.978 212.066 161.037 212.623 161.154C213.181 161.271 213.716 161.462 214.229 161.726C214.493 161.858 214.677 162.034 214.779 162.254C214.897 162.474 214.933 162.701 214.889 162.936C214.86 163.171 214.772 163.383 214.625 163.574C214.479 163.765 214.288 163.889 214.053 163.948C213.833 164.007 213.577 163.977 213.283 163.86C212.814 163.64 212.381 163.486 211.985 163.398C211.589 163.295 211.208 163.244 210.841 163.244C210.181 163.244 209.705 163.354 209.411 163.574C209.118 163.779 208.971 164.043 208.971 164.366C208.971 164.615 209.052 164.828 209.213 165.004C209.389 165.165 209.653 165.275 210.005 165.334L212.315 165.752C213.269 165.913 213.995 166.236 214.493 166.72C214.992 167.189 215.241 167.835 215.241 168.656C215.241 169.771 214.801 170.651 213.921 171.296C213.056 171.927 211.897 172.242 210.445 172.242ZM218.809 172.198C218.267 172.198 217.849 172.051 217.555 171.758C217.277 171.465 217.137 171.047 217.137 170.504V157.986C217.137 157.429 217.277 157.011 217.555 156.732C217.849 156.439 218.267 156.292 218.809 156.292C219.337 156.292 219.741 156.439 220.019 156.732C220.313 157.011 220.459 157.429 220.459 157.986V163.222H220.151C220.489 162.503 220.987 161.953 221.647 161.572C222.322 161.176 223.085 160.978 223.935 160.978C224.801 160.978 225.512 161.147 226.069 161.484C226.627 161.807 227.045 162.305 227.323 162.98C227.602 163.64 227.741 164.483 227.741 165.51V170.504C227.741 171.047 227.595 171.465 227.301 171.758C227.023 172.051 226.612 172.198 226.069 172.198C225.541 172.198 225.131 172.051 224.837 171.758C224.559 171.465 224.419 171.047 224.419 170.504V165.664C224.419 164.916 224.28 164.381 224.001 164.058C223.737 163.721 223.327 163.552 222.769 163.552C222.065 163.552 221.501 163.772 221.075 164.212C220.665 164.652 220.459 165.239 220.459 165.972V170.504C220.459 171.633 219.909 172.198 218.809 172.198Z" fill="#04004D"/>
</svg>
