<svg width="460" height="371" viewBox="0 0 460 371" fill="none" xmlns="http://www.w3.org/2000/svg">
<g filter="url(#filter0_d_0_3497)">
<rect x="80" y="35.5571" width="300" height="210" rx="12" fill="white"/>
<rect x="80.5" y="36.0571" width="299" height="209" rx="11.5" stroke="#F3F3F3"/>
</g>
<path d="M158.32 214.757C156.76 214.757 155.44 214.464 154.36 213.877C153.293 213.29 152.48 212.457 151.92 211.377C151.36 210.297 151.08 209.017 151.08 207.537C151.08 206.417 151.24 205.41 151.56 204.517C151.893 203.624 152.367 202.864 152.98 202.237C153.607 201.597 154.367 201.11 155.26 200.777C156.153 200.43 157.167 200.257 158.3 200.257C159.047 200.257 159.793 200.35 160.54 200.537C161.3 200.71 162.013 201.01 162.68 201.437C162.907 201.584 163.053 201.764 163.12 201.977C163.2 202.19 163.213 202.41 163.16 202.637C163.107 202.85 163.007 203.037 162.86 203.197C162.713 203.357 162.527 203.457 162.3 203.497C162.087 203.537 161.847 203.484 161.58 203.337C161.073 203.044 160.56 202.83 160.04 202.697C159.52 202.564 158.94 202.497 158.3 202.497C157.313 202.497 156.48 202.697 155.8 203.097C155.12 203.484 154.607 204.05 154.26 204.797C153.927 205.544 153.76 206.457 153.76 207.537C153.76 209.177 154.153 210.424 154.94 211.277C155.727 212.13 156.893 212.557 158.44 212.557C158.973 212.557 159.513 212.504 160.06 212.397C160.607 212.29 161.14 212.144 161.66 211.957L161.16 213.097V208.837H158.96C158.627 208.837 158.367 208.75 158.18 208.577C158.007 208.404 157.92 208.17 157.92 207.877C157.92 207.57 158.007 207.337 158.18 207.177C158.367 207.017 158.627 206.937 158.96 206.937H162.26C162.593 206.937 162.847 207.03 163.02 207.217C163.207 207.39 163.3 207.644 163.3 207.977V212.837C163.3 213.13 163.24 213.377 163.12 213.577C163.013 213.777 162.833 213.924 162.58 214.017C161.993 214.23 161.32 214.41 160.56 214.557C159.8 214.69 159.053 214.757 158.32 214.757ZM170.487 214.757C169.473 214.757 168.593 214.55 167.847 214.137C167.1 213.724 166.52 213.137 166.107 212.377C165.693 211.604 165.487 210.697 165.487 209.657C165.487 208.87 165.6 208.17 165.827 207.557C166.067 206.93 166.407 206.397 166.847 205.957C167.287 205.504 167.813 205.164 168.427 204.937C169.04 204.697 169.727 204.577 170.487 204.577C171.5 204.577 172.38 204.784 173.127 205.197C173.873 205.61 174.453 206.197 174.867 206.957C175.28 207.717 175.487 208.617 175.487 209.657C175.487 210.444 175.367 211.15 175.127 211.777C174.9 212.404 174.567 212.944 174.127 213.397C173.687 213.837 173.16 214.177 172.547 214.417C171.933 214.644 171.247 214.757 170.487 214.757ZM170.487 212.857C170.98 212.857 171.413 212.737 171.787 212.497C172.16 212.257 172.447 211.904 172.647 211.437C172.86 210.957 172.967 210.364 172.967 209.657C172.967 208.59 172.74 207.797 172.287 207.277C171.833 206.744 171.233 206.477 170.487 206.477C169.993 206.477 169.56 206.597 169.187 206.837C168.813 207.064 168.52 207.417 168.307 207.897C168.107 208.364 168.007 208.95 168.007 209.657C168.007 210.71 168.233 211.51 168.687 212.057C169.14 212.59 169.74 212.857 170.487 212.857ZM180.89 214.757C179.783 214.757 178.95 214.444 178.39 213.817C177.83 213.177 177.55 212.244 177.55 211.017V201.557C177.55 201.144 177.657 200.83 177.87 200.617C178.083 200.404 178.39 200.297 178.79 200.297C179.19 200.297 179.497 200.404 179.71 200.617C179.937 200.83 180.05 201.144 180.05 201.557V210.897C180.05 211.51 180.177 211.964 180.43 212.257C180.697 212.55 181.07 212.697 181.55 212.697C181.657 212.697 181.757 212.697 181.85 212.697C181.943 212.684 182.037 212.67 182.13 212.657C182.317 212.63 182.443 212.684 182.51 212.817C182.577 212.937 182.61 213.19 182.61 213.577C182.61 213.91 182.543 214.17 182.41 214.357C182.277 214.544 182.057 214.657 181.75 214.697C181.617 214.71 181.477 214.724 181.33 214.737C181.183 214.75 181.037 214.757 180.89 214.757ZM187.599 214.757C186.746 214.757 185.992 214.55 185.339 214.137C184.699 213.724 184.199 213.137 183.839 212.377C183.479 211.604 183.299 210.697 183.299 209.657C183.299 208.604 183.479 207.704 183.839 206.957C184.199 206.197 184.699 205.61 185.339 205.197C185.992 204.784 186.746 204.577 187.599 204.577C188.412 204.577 189.119 204.777 189.719 205.177C190.332 205.577 190.746 206.104 190.959 206.757H190.739V201.557C190.739 201.144 190.846 200.83 191.059 200.617C191.272 200.404 191.579 200.297 191.979 200.297C192.379 200.297 192.686 200.404 192.899 200.617C193.126 200.83 193.239 201.144 193.239 201.557V213.437C193.239 213.85 193.132 214.17 192.919 214.397C192.706 214.61 192.399 214.717 191.999 214.717C191.599 214.717 191.292 214.61 191.079 214.397C190.866 214.17 190.759 213.85 190.759 213.437V211.877L190.979 212.477C190.779 213.17 190.372 213.724 189.759 214.137C189.146 214.55 188.426 214.757 187.599 214.757ZM188.299 212.857C188.792 212.857 189.226 212.737 189.599 212.497C189.972 212.257 190.259 211.904 190.459 211.437C190.672 210.957 190.779 210.364 190.779 209.657C190.779 208.59 190.552 207.797 190.099 207.277C189.646 206.744 189.046 206.477 188.299 206.477C187.806 206.477 187.372 206.597 186.999 206.837C186.626 207.064 186.332 207.417 186.119 207.897C185.919 208.364 185.819 208.95 185.819 209.657C185.819 210.71 186.046 211.51 186.499 212.057C186.952 212.59 187.552 212.857 188.299 212.857ZM206.361 214.757C205.774 214.757 205.188 214.71 204.601 214.617C204.014 214.537 203.461 214.41 202.941 214.237C202.421 214.05 201.954 213.824 201.541 213.557C201.301 213.397 201.134 213.204 201.041 212.977C200.948 212.75 200.914 212.53 200.941 212.317C200.981 212.09 201.068 211.897 201.201 211.737C201.348 211.564 201.528 211.457 201.741 211.417C201.954 211.377 202.188 211.437 202.441 211.597C203.028 211.944 203.648 212.197 204.301 212.357C204.954 212.517 205.641 212.597 206.361 212.597C207.414 212.597 208.181 212.424 208.661 212.077C209.141 211.717 209.381 211.257 209.381 210.697C209.381 210.23 209.208 209.864 208.861 209.597C208.528 209.33 207.948 209.11 207.121 208.937L204.921 208.477C203.654 208.21 202.708 207.764 202.081 207.137C201.468 206.497 201.161 205.657 201.161 204.617C201.161 203.964 201.294 203.37 201.561 202.837C201.828 202.304 202.201 201.844 202.681 201.457C203.174 201.07 203.754 200.777 204.421 200.577C205.101 200.364 205.848 200.257 206.661 200.257C207.461 200.257 208.221 200.357 208.941 200.557C209.661 200.757 210.308 201.05 210.881 201.437C211.094 201.584 211.234 201.764 211.301 201.977C211.381 202.19 211.401 202.404 211.361 202.617C211.321 202.817 211.228 202.99 211.081 203.137C210.934 203.284 210.748 203.37 210.521 203.397C210.308 203.424 210.061 203.357 209.781 203.197C209.288 202.917 208.788 202.717 208.281 202.597C207.774 202.477 207.228 202.417 206.641 202.417C206.028 202.417 205.501 202.504 205.061 202.677C204.621 202.85 204.281 203.097 204.041 203.417C203.814 203.724 203.701 204.09 203.701 204.517C203.701 204.997 203.861 205.384 204.181 205.677C204.501 205.957 205.048 206.177 205.821 206.337L208.001 206.797C209.321 207.077 210.301 207.517 210.941 208.117C211.594 208.717 211.921 209.517 211.921 210.517C211.921 211.157 211.788 211.737 211.521 212.257C211.268 212.777 210.894 213.224 210.401 213.597C209.921 213.97 209.341 214.257 208.661 214.457C207.981 214.657 207.214 214.757 206.361 214.757ZM218.26 214.757C217.394 214.757 216.667 214.61 216.08 214.317C215.507 214.024 215.08 213.597 214.8 213.037C214.52 212.464 214.38 211.757 214.38 210.917V206.657H213.34C213.02 206.657 212.774 206.577 212.6 206.417C212.427 206.244 212.34 206.01 212.34 205.717C212.34 205.41 212.427 205.177 212.6 205.017C212.774 204.857 213.02 204.777 213.34 204.777H214.38V202.957C214.38 202.544 214.487 202.23 214.7 202.017C214.927 201.804 215.24 201.697 215.64 201.697C216.04 201.697 216.347 201.804 216.56 202.017C216.774 202.23 216.88 202.544 216.88 202.957V204.777H219C219.32 204.777 219.567 204.857 219.74 205.017C219.914 205.177 220 205.41 220 205.717C220 206.01 219.914 206.244 219.74 206.417C219.567 206.577 219.32 206.657 219 206.657H216.88V210.777C216.88 211.417 217.02 211.897 217.3 212.217C217.58 212.537 218.034 212.697 218.66 212.697C218.887 212.697 219.087 212.677 219.26 212.637C219.434 212.597 219.587 212.57 219.72 212.557C219.88 212.544 220.014 212.597 220.12 212.717C220.227 212.824 220.28 213.05 220.28 213.397C220.28 213.664 220.234 213.904 220.14 214.117C220.06 214.317 219.907 214.457 219.68 214.537C219.507 214.59 219.28 214.637 219 214.677C218.72 214.73 218.474 214.757 218.26 214.757ZM224.676 214.757C223.97 214.757 223.336 214.624 222.776 214.357C222.23 214.077 221.796 213.704 221.476 213.237C221.17 212.77 221.016 212.244 221.016 211.657C221.016 210.937 221.203 210.37 221.576 209.957C221.95 209.53 222.556 209.224 223.396 209.037C224.236 208.85 225.363 208.757 226.776 208.757H227.776V210.197H226.796C225.97 210.197 225.31 210.237 224.816 210.317C224.323 210.397 223.97 210.537 223.756 210.737C223.556 210.924 223.456 211.19 223.456 211.537C223.456 211.977 223.61 212.337 223.916 212.617C224.223 212.897 224.65 213.037 225.196 213.037C225.636 213.037 226.023 212.937 226.356 212.737C226.703 212.524 226.976 212.237 227.176 211.877C227.376 211.517 227.476 211.104 227.476 210.637V208.337C227.476 207.67 227.33 207.19 227.036 206.897C226.743 206.604 226.25 206.457 225.556 206.457C225.17 206.457 224.75 206.504 224.296 206.597C223.856 206.69 223.39 206.85 222.896 207.077C222.643 207.197 222.416 207.23 222.216 207.177C222.03 207.124 221.883 207.017 221.776 206.857C221.67 206.684 221.616 206.497 221.616 206.297C221.616 206.097 221.67 205.904 221.776 205.717C221.883 205.517 222.063 205.37 222.316 205.277C222.93 205.024 223.516 204.844 224.076 204.737C224.65 204.63 225.17 204.577 225.636 204.577C226.596 204.577 227.383 204.724 227.996 205.017C228.623 205.31 229.09 205.757 229.396 206.357C229.703 206.944 229.856 207.704 229.856 208.637V213.437C229.856 213.85 229.756 214.17 229.556 214.397C229.356 214.61 229.07 214.717 228.696 214.717C228.323 214.717 228.03 214.61 227.816 214.397C227.616 214.17 227.516 213.85 227.516 213.437V212.477H227.676C227.583 212.944 227.396 213.35 227.116 213.697C226.85 214.03 226.51 214.29 226.096 214.477C225.683 214.664 225.21 214.757 224.676 214.757ZM233.674 214.717C233.26 214.717 232.94 214.61 232.714 214.397C232.5 214.17 232.394 213.85 232.394 213.437V205.877C232.394 205.464 232.5 205.15 232.714 204.937C232.927 204.724 233.227 204.617 233.614 204.617C234 204.617 234.3 204.724 234.514 204.937C234.727 205.15 234.834 205.464 234.834 205.877V207.137H234.634C234.82 206.337 235.187 205.73 235.734 205.317C236.28 204.904 237.007 204.657 237.914 204.577C238.194 204.55 238.414 204.624 238.574 204.797C238.747 204.957 238.847 205.21 238.874 205.557C238.9 205.89 238.82 206.164 238.634 206.377C238.46 206.577 238.194 206.697 237.834 206.737L237.394 206.777C236.58 206.857 235.967 207.11 235.554 207.537C235.14 207.95 234.934 208.537 234.934 209.297V213.437C234.934 213.85 234.827 214.17 234.614 214.397C234.4 214.61 234.087 214.717 233.674 214.717ZM246.035 214.717C245.715 214.717 245.455 214.644 245.255 214.497C245.069 214.35 244.955 214.157 244.915 213.917C244.875 213.664 244.922 213.384 245.055 213.077L250.335 201.377C250.509 200.99 250.715 200.717 250.955 200.557C251.209 200.384 251.495 200.297 251.815 200.297C252.122 200.297 252.395 200.384 252.635 200.557C252.889 200.717 253.102 200.99 253.275 201.377L258.575 213.077C258.722 213.384 258.775 213.664 258.735 213.917C258.695 214.17 258.582 214.37 258.395 214.517C258.209 214.65 257.962 214.717 257.655 214.717C257.282 214.717 256.989 214.63 256.775 214.457C256.575 214.27 256.395 213.99 256.235 213.617L254.935 210.597L256.015 211.297H247.575L248.655 210.597L247.375 213.617C247.202 214.004 247.022 214.284 246.835 214.457C246.649 214.63 246.382 214.717 246.035 214.717ZM251.775 203.237L248.975 209.897L248.455 209.257H255.135L254.635 209.897L251.815 203.237H251.775ZM264.078 214.757C263.265 214.757 262.592 214.61 262.058 214.317C261.525 214.01 261.125 213.557 260.858 212.957C260.605 212.357 260.478 211.61 260.478 210.717V205.877C260.478 205.45 260.585 205.137 260.798 204.937C261.012 204.724 261.318 204.617 261.718 204.617C262.118 204.617 262.425 204.724 262.638 204.937C262.865 205.137 262.978 205.45 262.978 205.877V210.757C262.978 211.45 263.118 211.964 263.398 212.297C263.678 212.63 264.125 212.797 264.738 212.797C265.405 212.797 265.952 212.57 266.378 212.117C266.805 211.65 267.018 211.037 267.018 210.277V205.877C267.018 205.45 267.125 205.137 267.338 204.937C267.552 204.724 267.858 204.617 268.258 204.617C268.658 204.617 268.965 204.724 269.178 204.937C269.405 205.137 269.518 205.45 269.518 205.877V213.437C269.518 214.29 269.112 214.717 268.298 214.717C267.912 214.717 267.612 214.61 267.398 214.397C267.185 214.17 267.078 213.85 267.078 213.437V211.917L267.358 212.517C267.078 213.237 266.652 213.79 266.078 214.177C265.518 214.564 264.852 214.757 264.078 214.757ZM276.6 214.757C275.734 214.757 275.007 214.61 274.42 214.317C273.847 214.024 273.42 213.597 273.14 213.037C272.86 212.464 272.72 211.757 272.72 210.917V206.657H271.68C271.36 206.657 271.114 206.577 270.94 206.417C270.767 206.244 270.68 206.01 270.68 205.717C270.68 205.41 270.767 205.177 270.94 205.017C271.114 204.857 271.36 204.777 271.68 204.777H272.72V202.957C272.72 202.544 272.827 202.23 273.04 202.017C273.267 201.804 273.58 201.697 273.98 201.697C274.38 201.697 274.687 201.804 274.9 202.017C275.114 202.23 275.22 202.544 275.22 202.957V204.777H277.34C277.66 204.777 277.907 204.857 278.08 205.017C278.254 205.177 278.34 205.41 278.34 205.717C278.34 206.01 278.254 206.244 278.08 206.417C277.907 206.577 277.66 206.657 277.34 206.657H275.22V210.777C275.22 211.417 275.36 211.897 275.64 212.217C275.92 212.537 276.374 212.697 277 212.697C277.227 212.697 277.427 212.677 277.6 212.637C277.774 212.597 277.927 212.57 278.06 212.557C278.22 212.544 278.354 212.597 278.46 212.717C278.567 212.824 278.62 213.05 278.62 213.397C278.62 213.664 278.574 213.904 278.48 214.117C278.4 214.317 278.247 214.457 278.02 214.537C277.847 214.59 277.62 214.637 277.34 214.677C277.06 214.73 276.814 214.757 276.6 214.757ZM281.29 214.717C280.89 214.717 280.583 214.61 280.37 214.397C280.157 214.17 280.05 213.85 280.05 213.437V201.557C280.05 201.144 280.157 200.83 280.37 200.617C280.583 200.404 280.89 200.297 281.29 200.297C281.69 200.297 281.997 200.404 282.21 200.617C282.437 200.83 282.55 201.144 282.55 201.557V206.737H282.27C282.563 206.03 283.017 205.497 283.63 205.137C284.257 204.764 284.963 204.577 285.75 204.577C286.537 204.577 287.183 204.724 287.69 205.017C288.197 205.31 288.577 205.757 288.83 206.357C289.083 206.944 289.21 207.69 289.21 208.597V213.437C289.21 213.85 289.103 214.17 288.89 214.397C288.677 214.61 288.37 214.717 287.97 214.717C287.57 214.717 287.257 214.61 287.03 214.397C286.817 214.17 286.71 213.85 286.71 213.437V208.717C286.71 207.957 286.563 207.404 286.27 207.057C285.99 206.71 285.55 206.537 284.95 206.537C284.217 206.537 283.63 206.77 283.19 207.237C282.763 207.69 282.55 208.297 282.55 209.057V213.437C282.55 214.29 282.13 214.717 281.29 214.717ZM296.209 214.757C295.196 214.757 294.316 214.55 293.569 214.137C292.823 213.724 292.243 213.137 291.829 212.377C291.416 211.604 291.209 210.697 291.209 209.657C291.209 208.87 291.323 208.17 291.549 207.557C291.789 206.93 292.129 206.397 292.569 205.957C293.009 205.504 293.536 205.164 294.149 204.937C294.763 204.697 295.449 204.577 296.209 204.577C297.223 204.577 298.103 204.784 298.849 205.197C299.596 205.61 300.176 206.197 300.589 206.957C301.003 207.717 301.209 208.617 301.209 209.657C301.209 210.444 301.089 211.15 300.849 211.777C300.623 212.404 300.289 212.944 299.849 213.397C299.409 213.837 298.883 214.177 298.269 214.417C297.656 214.644 296.969 214.757 296.209 214.757ZM296.209 212.857C296.703 212.857 297.136 212.737 297.509 212.497C297.883 212.257 298.169 211.904 298.369 211.437C298.583 210.957 298.689 210.364 298.689 209.657C298.689 208.59 298.463 207.797 298.009 207.277C297.556 206.744 296.956 206.477 296.209 206.477C295.716 206.477 295.283 206.597 294.909 206.837C294.536 207.064 294.243 207.417 294.029 207.897C293.829 208.364 293.729 208.95 293.729 209.657C293.729 210.71 293.956 211.51 294.409 212.057C294.863 212.59 295.463 212.857 296.209 212.857ZM304.553 214.717C304.139 214.717 303.819 214.61 303.593 214.397C303.379 214.17 303.273 213.85 303.273 213.437V205.877C303.273 205.464 303.379 205.15 303.593 204.937C303.806 204.724 304.106 204.617 304.493 204.617C304.879 204.617 305.179 204.724 305.393 204.937C305.606 205.15 305.713 205.464 305.713 205.877V207.137H305.513C305.699 206.337 306.066 205.73 306.613 205.317C307.159 204.904 307.886 204.657 308.793 204.577C309.073 204.55 309.293 204.624 309.453 204.797C309.626 204.957 309.726 205.21 309.753 205.557C309.779 205.89 309.699 206.164 309.513 206.377C309.339 206.577 309.073 206.697 308.713 206.737L308.273 206.777C307.459 206.857 306.846 207.11 306.433 207.537C306.019 207.95 305.813 208.537 305.813 209.297V213.437C305.813 213.85 305.706 214.17 305.493 214.397C305.279 214.61 304.966 214.717 304.553 214.717Z" fill="black"/>
<path d="M238.891 150.059C238.367 150.059 237.916 149.662 237.861 149.129C237.803 148.559 238.218 148.054 238.785 147.993C238.903 147.981 246.588 147.105 253.918 141.256C263.632 133.505 268.36 120.493 267.591 103.624C267.563 103.052 268.006 102.57 268.578 102.543C269.145 102.512 269.632 102.958 269.66 103.53C270.105 113.32 268.787 121.856 265.74 128.901C263.284 134.581 259.712 139.306 255.12 142.944C247.299 149.144 239.327 150.016 238.994 150.053C238.958 150.056 238.924 150.059 238.888 150.059H238.891Z" fill="url(#paint0_linear_0_3497)"/>
<path d="M276.602 115.648C272.955 118.665 267.791 118.44 267.791 118.44C267.791 118.44 268.542 113.327 272.189 110.311C275.836 107.294 281 107.518 281 107.518C281 107.518 280.249 112.631 276.602 115.648Z" fill="url(#paint1_linear_0_3497)"/>
<path d="M265.718 109.437C268.432 113.314 267.796 118.442 267.796 118.442C267.796 118.442 262.759 117.285 260.045 113.408C257.331 109.531 257.967 104.402 257.967 104.402C257.967 104.402 263.004 105.56 265.718 109.437Z" fill="url(#paint2_linear_0_3497)"/>
<path d="M262.977 120.634C265.349 124.729 264.274 129.784 264.274 129.784C264.274 129.784 259.355 128.197 256.983 124.102C254.611 120.007 255.687 114.951 255.687 114.951C255.687 114.951 260.606 116.538 262.977 120.634Z" fill="url(#paint3_linear_0_3497)"/>
<path d="M258.41 131.148C259.355 135.785 256.729 140.238 256.729 140.238C256.729 140.238 252.57 137.17 251.625 132.532C250.68 127.895 253.306 123.442 253.306 123.442C253.306 123.442 257.465 126.511 258.41 131.148Z" fill="url(#paint4_linear_0_3497)"/>
<path d="M251.146 139.488C250.174 144.12 245.997 147.164 245.997 147.164C245.997 147.164 243.395 142.699 244.367 138.065C245.339 133.433 249.516 130.389 249.516 130.389C249.516 130.389 252.118 134.854 251.146 139.488Z" fill="url(#paint5_linear_0_3497)"/>
<path d="M273.282 127.802C269.377 130.477 264.255 129.786 264.255 129.786C264.255 129.786 265.467 124.761 269.371 122.089C273.275 119.415 278.397 120.105 278.397 120.105C278.397 120.105 277.186 125.131 273.282 127.802Z" fill="url(#paint6_linear_0_3497)"/>
<path d="M265.985 140.334C261.578 142.057 256.744 140.231 256.744 140.231C256.744 140.231 259.055 135.608 263.462 133.882C267.869 132.158 272.704 133.985 272.704 133.985C272.704 133.985 270.393 138.607 265.985 140.334Z" fill="url(#paint7_linear_0_3497)"/>
<path d="M254.456 150.831C249.725 150.707 245.981 147.145 245.981 147.145C245.981 147.145 249.907 143.783 254.638 143.907C259.369 144.031 263.113 147.593 263.113 147.593C263.113 147.593 259.188 150.955 254.456 150.831Z" fill="url(#paint8_linear_0_3497)"/>
<path d="M272.178 101.085C272.178 105.819 268.716 109.654 268.716 109.654C268.716 109.654 265.253 105.816 265.253 101.085C265.253 96.3538 268.716 92.5161 268.716 92.5161C268.716 92.5161 272.178 96.3538 272.178 101.085Z" fill="url(#paint9_linear_0_3497)"/>
<path d="M222.109 150.06C222.633 150.06 223.085 149.663 223.139 149.13C223.197 148.56 222.782 148.055 222.215 147.994C222.097 147.982 214.413 147.106 207.083 141.257C197.368 133.506 192.64 120.494 193.41 103.625C193.437 103.053 192.995 102.571 192.422 102.544C191.856 102.513 191.368 102.959 191.341 103.531C190.895 113.321 192.213 121.857 195.26 128.902C197.717 134.582 201.288 139.307 205.88 142.945C213.701 149.145 221.673 150.017 222.006 150.054C222.043 150.057 222.076 150.06 222.112 150.06H222.109Z" fill="url(#paint10_linear_0_3497)"/>
<path d="M184.398 115.647C188.045 118.664 193.209 118.44 193.209 118.44C193.209 118.44 192.458 113.327 188.811 110.31C185.164 107.293 180 107.518 180 107.518C180 107.518 180.751 112.631 184.398 115.647Z" fill="url(#paint11_linear_0_3497)"/>
<path d="M195.281 109.436C192.567 113.314 193.203 118.442 193.203 118.442C193.203 118.442 198.24 117.285 200.954 113.408C203.668 109.53 203.032 104.402 203.032 104.402C203.032 104.402 197.995 105.559 195.281 109.436Z" fill="url(#paint12_linear_0_3497)"/>
<path d="M198.023 120.636C195.651 124.731 196.726 129.787 196.726 129.787C196.726 129.787 201.646 128.199 204.017 124.104C206.389 120.009 205.314 114.954 205.314 114.954C205.314 114.954 200.395 116.541 198.023 120.636Z" fill="url(#paint13_linear_0_3497)"/>
<path d="M202.591 131.15C201.646 135.787 204.272 140.24 204.272 140.24C204.272 140.24 208.431 137.172 209.376 132.534C210.321 127.897 207.695 123.444 207.695 123.444C207.695 123.444 203.536 126.513 202.591 131.15Z" fill="url(#paint14_linear_0_3497)"/>
<path d="M209.853 139.489C210.825 144.12 215.002 147.164 215.002 147.164C215.002 147.164 217.604 142.699 216.632 138.065C215.659 133.434 211.482 130.389 211.482 130.389C211.482 130.389 208.88 134.854 209.853 139.489Z" fill="url(#paint15_linear_0_3497)"/>
<path d="M187.718 127.804C191.623 130.479 196.745 129.788 196.745 129.788C196.745 129.788 195.533 124.763 191.629 122.092C187.724 119.417 182.602 120.107 182.602 120.107C182.602 120.107 183.814 125.133 187.718 127.804Z" fill="url(#paint16_linear_0_3497)"/>
<path d="M195.014 140.336C199.421 142.06 204.255 140.233 204.255 140.233C204.255 140.233 201.944 135.611 197.537 133.884C193.13 132.161 188.295 133.987 188.295 133.987C188.295 133.987 190.606 138.61 195.014 140.336Z" fill="url(#paint17_linear_0_3497)"/>
<path d="M206.543 150.831C211.274 150.707 215.018 147.145 215.018 147.145C215.018 147.145 211.093 143.782 206.361 143.907C201.63 144.031 197.886 147.593 197.886 147.593C197.886 147.593 201.812 150.955 206.543 150.831Z" fill="url(#paint18_linear_0_3497)"/>
<path d="M188.824 101.087C188.824 105.821 192.286 109.656 192.286 109.656C192.286 109.656 195.748 105.818 195.748 101.087C195.748 96.3558 192.286 92.518 192.286 92.518C192.286 92.518 188.824 96.3558 188.824 101.087Z" fill="url(#paint19_linear_0_3497)"/>
<path d="M218.074 147.796H242.921C245.208 147.796 247.061 149.653 247.061 151.936V159.185H213.933V151.936C213.933 149.65 215.79 147.796 218.074 147.796Z" fill="url(#paint20_linear_0_3497)"/>
<path d="M249.652 159.19H211.347C208.202 159.19 205.653 161.739 205.653 164.884C205.653 168.029 208.202 170.579 211.347 170.579H249.652C252.797 170.579 255.346 168.029 255.346 164.884C255.346 161.739 252.797 159.19 249.652 159.19Z" fill="url(#paint21_linear_0_3497)"/>
<path d="M189.628 179.697H204.508C205.475 179.697 206.259 178.922 206.259 177.966V167.577H189.628C189.144 167.577 188.752 167.965 188.752 168.443C188.752 168.65 188.827 168.85 188.963 169.006L192 172.511C192.562 173.159 192.562 174.116 192 174.764L188.963 178.269C188.649 178.631 188.691 179.179 189.058 179.489C189.216 179.624 189.418 179.697 189.628 179.697Z" fill="#FF1849"/>
<path d="M206.259 167.577V177.966C206.259 178.922 205.438 179.697 204.423 179.697H201.669L197.795 177.263C196.773 176.62 196.159 175.539 196.159 174.382V167.577H206.259Z" fill="#E00E45"/>
<path d="M206.258 172.966V177.854C206.262 178.3 206.056 178.726 205.692 179.026C205.692 179.026 201.769 177.039 199.974 176.225C199.09 175.824 198.178 175.491 198.178 174.596C198.181 173.697 198.983 172.969 199.974 172.966H206.258Z" fill="#BF0640"/>
<path d="M272.044 179.697H257.163C256.196 179.697 255.413 178.922 255.413 177.966V167.577H272.044C272.527 167.577 272.919 167.965 272.919 168.443C272.919 168.65 272.845 168.85 272.708 169.006L269.672 172.511C269.11 173.159 269.11 174.116 269.672 174.764L272.708 178.269C273.022 178.631 272.98 179.179 272.614 179.489C272.455 179.624 272.253 179.697 272.044 179.697Z" fill="#FF1849"/>
<path d="M255.413 167.577V177.966C255.413 178.922 256.183 179.697 257.133 179.697H270.899C261.435 175.369 264.877 167.577 264.877 167.577H255.413Z" fill="#E00E45"/>
<path d="M255.413 172.966V177.854C255.409 178.3 255.615 178.726 255.978 179.026C255.978 179.026 259.901 177.039 261.697 176.225C262.58 175.824 263.492 175.491 263.492 174.596C263.49 173.697 262.687 172.969 261.697 172.966H255.413Z" fill="#BF0640"/>
<path d="M261.772 160.848H199.897C198.947 160.848 198.178 161.601 198.178 162.532V174.315C198.181 173.386 198.949 172.634 199.897 172.631H261.772C262.72 172.634 263.488 173.386 263.491 174.315V162.532C263.491 161.601 262.722 160.848 261.772 160.848Z" fill="#FF1849"/>
<path d="M233.19 172.631H261.759C262.714 172.634 263.488 173.386 263.49 174.315V162.532C263.49 161.601 262.715 160.848 261.759 160.848H248.773C247.042 164.215 242.893 169.486 233.19 172.631Z" fill="#E00E45"/>
<path d="M234.64 147.797H226.358L211.864 87.3355H249.133L234.64 147.797Z" fill="url(#paint22_linear_0_3497)"/>
<path d="M219.478 93.5494H241.523L230.501 136.973L219.478 93.5494Z" fill="url(#paint23_linear_0_3497)"/>
<path d="M249.133 87.3356L241.521 93.5481L230.498 136.972V147.798H234.639L249.133 87.3356Z" fill="url(#paint24_linear_0_3497)"/>
<path d="M219.476 93.548L211.864 87.3355H249.133L241.521 93.548H219.476Z" fill="url(#paint25_linear_0_3497)"/>
<path d="M232.958 66.0451L235.218 70.3584L240.019 71.1732C242.227 71.5488 243.105 74.2477 241.539 75.85L238.135 79.3303L238.841 84.1465C239.165 86.3607 236.869 88.0296 234.86 87.0361L230.499 84.8765L226.137 87.0361C224.132 88.0296 221.833 86.3607 222.157 84.1465L222.863 79.3303L219.458 75.85C217.892 74.2477 218.77 71.5488 220.979 71.1732L225.78 70.3584L228.039 66.0451C229.078 64.0611 231.919 64.0611 232.958 66.0451Z" fill="url(#paint26_linear_0_3497)"/>
<defs>
<filter id="filter0_d_0_3497" x="0" y="0.557129" width="460" height="370" filterUnits="userSpaceOnUse" color-interpolation-filters="sRGB">
<feFlood flood-opacity="0" result="BackgroundImageFix"/>
<feColorMatrix in="SourceAlpha" type="matrix" values="0 0 0 0 0 0 0 0 0 0 0 0 0 0 0 0 0 0 127 0" result="hardAlpha"/>
<feOffset dy="45"/>
<feGaussianBlur stdDeviation="40"/>
<feColorMatrix type="matrix" values="0 0 0 0 0 0 0 0 0 0 0 0 0 0 0 0 0 0 0.04 0"/>
<feBlend mode="normal" in2="BackgroundImageFix" result="effect1_dropShadow_0_3497"/>
<feBlend mode="normal" in="SourceGraphic" in2="effect1_dropShadow_0_3497" result="shape"/>
</filter>
<linearGradient id="paint0_linear_0_3497" x1="253.803" y1="102.546" x2="253.803" y2="150.059" gradientUnits="userSpaceOnUse">
<stop stop-color="#FF9900"/>
<stop offset="1" stop-color="#FCD34F"/>
</linearGradient>
<linearGradient id="paint1_linear_0_3497" x1="274.536" y1="118.477" x2="274.541" y2="107.545" gradientUnits="userSpaceOnUse">
<stop stop-color="#FF9900"/>
<stop offset="1" stop-color="#FCD34F"/>
</linearGradient>
<linearGradient id="paint2_linear_0_3497" x1="262.605" y1="118.38" x2="262.611" y2="104.346" gradientUnits="userSpaceOnUse">
<stop stop-color="#FF9900"/>
<stop offset="1" stop-color="#FCD34F"/>
</linearGradient>
<linearGradient id="paint3_linear_0_3497" x1="259.621" y1="129.405" x2="260.165" y2="114.922" gradientUnits="userSpaceOnUse">
<stop stop-color="#FF9900"/>
<stop offset="1" stop-color="#FCD34F"/>
</linearGradient>
<linearGradient id="paint4_linear_0_3497" x1="255.13" y1="140.216" x2="255.125" y2="123.418" gradientUnits="userSpaceOnUse">
<stop stop-color="#FF9900"/>
<stop offset="1" stop-color="#FCD34F"/>
</linearGradient>
<linearGradient id="paint5_linear_0_3497" x1="247.801" y1="147.131" x2="247.795" y2="130.352" gradientUnits="userSpaceOnUse">
<stop stop-color="#FF9900"/>
<stop offset="1" stop-color="#FCD34F"/>
</linearGradient>
<linearGradient id="paint6_linear_0_3497" x1="271.028" y1="130.056" x2="271.415" y2="119.788" gradientUnits="userSpaceOnUse">
<stop stop-color="#FF9900"/>
<stop offset="1" stop-color="#FCD34F"/>
</linearGradient>
<linearGradient id="paint7_linear_0_3497" x1="264.746" y1="141.304" x2="264.749" y2="133.377" gradientUnits="userSpaceOnUse">
<stop stop-color="#FF9900"/>
<stop offset="1" stop-color="#FCD34F"/>
</linearGradient>
<linearGradient id="paint8_linear_0_3497" x1="254.569" y1="150.553" x2="254.567" y2="143.621" gradientUnits="userSpaceOnUse">
<stop stop-color="#FF9900"/>
<stop offset="1" stop-color="#FCD34F"/>
</linearGradient>
<linearGradient id="paint9_linear_0_3497" x1="268.716" y1="109.654" x2="268.716" y2="92.5161" gradientUnits="userSpaceOnUse">
<stop stop-color="#FF9900"/>
<stop offset="1" stop-color="#FCD34F"/>
</linearGradient>
<linearGradient id="paint10_linear_0_3497" x1="207.198" y1="102.547" x2="207.198" y2="150.06" gradientUnits="userSpaceOnUse">
<stop stop-color="#FF9900"/>
<stop offset="1" stop-color="#FCD34F"/>
</linearGradient>
<linearGradient id="paint11_linear_0_3497" x1="186.632" y1="117.885" x2="186.627" y2="106.956" gradientUnits="userSpaceOnUse">
<stop stop-color="#FF9900"/>
<stop offset="1" stop-color="#FCD34F"/>
</linearGradient>
<linearGradient id="paint12_linear_0_3497" x1="197.659" y1="118.042" x2="197.654" y2="104.005" gradientUnits="userSpaceOnUse">
<stop stop-color="#FF9900"/>
<stop offset="1" stop-color="#FCD34F"/>
</linearGradient>
<linearGradient id="paint13_linear_0_3497" x1="200.755" y1="129.734" x2="200.211" y2="115.251" gradientUnits="userSpaceOnUse">
<stop stop-color="#FF9900"/>
<stop offset="1" stop-color="#FCD34F"/>
</linearGradient>
<linearGradient id="paint14_linear_0_3497" x1="206.192" y1="140.668" x2="206.198" y2="123.87" gradientUnits="userSpaceOnUse">
<stop stop-color="#FF9900"/>
<stop offset="1" stop-color="#FCD34F"/>
</linearGradient>
<linearGradient id="paint15_linear_0_3497" x1="213.572" y1="147.702" x2="213.579" y2="130.923" gradientUnits="userSpaceOnUse">
<stop stop-color="#FF9900"/>
<stop offset="1" stop-color="#FCD34F"/>
</linearGradient>
<linearGradient id="paint16_linear_0_3497" x1="189.851" y1="130.449" x2="189.464" y2="120.181" gradientUnits="userSpaceOnUse">
<stop stop-color="#FF9900"/>
<stop offset="1" stop-color="#FCD34F"/>
</linearGradient>
<linearGradient id="paint17_linear_0_3497" x1="195.653" y1="140.883" x2="195.651" y2="132.956" gradientUnits="userSpaceOnUse">
<stop stop-color="#FF9900"/>
<stop offset="1" stop-color="#FCD34F"/>
</linearGradient>
<linearGradient id="paint18_linear_0_3497" x1="206.977" y1="150.879" x2="206.978" y2="143.947" gradientUnits="userSpaceOnUse">
<stop stop-color="#FF9900"/>
<stop offset="1" stop-color="#FCD34F"/>
</linearGradient>
<linearGradient id="paint19_linear_0_3497" x1="192.286" y1="109.656" x2="192.286" y2="92.518" gradientUnits="userSpaceOnUse">
<stop stop-color="#FF9900"/>
<stop offset="1" stop-color="#FCD34F"/>
</linearGradient>
<linearGradient id="paint20_linear_0_3497" x1="230.499" y1="159.185" x2="230.499" y2="147.796" gradientUnits="userSpaceOnUse">
<stop stop-color="#3D5969"/>
<stop offset="1" stop-color="#698999"/>
</linearGradient>
<linearGradient id="paint21_linear_0_3497" x1="230.499" y1="170.579" x2="230.499" y2="159.19" gradientUnits="userSpaceOnUse">
<stop stop-color="#FF9900"/>
<stop offset="1" stop-color="#FCD34F"/>
</linearGradient>
<linearGradient id="paint22_linear_0_3497" x1="230.499" y1="147.797" x2="230.499" y2="87.3355" gradientUnits="userSpaceOnUse">
<stop stop-color="#FD7B0A"/>
<stop offset="1" stop-color="#FDAC33"/>
</linearGradient>
<linearGradient id="paint23_linear_0_3497" x1="230.501" y1="136.973" x2="230.501" y2="93.5494" gradientUnits="userSpaceOnUse">
<stop stop-color="#FF9900"/>
<stop offset="1" stop-color="#FFD426"/>
</linearGradient>
<linearGradient id="paint24_linear_0_3497" x1="239.816" y1="147.798" x2="239.816" y2="87.3356" gradientUnits="userSpaceOnUse">
<stop stop-color="#DE6700"/>
<stop offset="1" stop-color="#FDAC33"/>
</linearGradient>
<linearGradient id="paint25_linear_0_3497" x1="239.816" y1="96.6527" x2="221.182" y2="78.0183" gradientUnits="userSpaceOnUse">
<stop stop-color="#FFB429"/>
<stop offset="1" stop-color="#FFDB26"/>
</linearGradient>
<linearGradient id="paint26_linear_0_3497" x1="230.499" y1="87.333" x2="230.499" y2="64.5579" gradientUnits="userSpaceOnUse">
<stop stop-color="#FF9900"/>
<stop offset="0.11" stop-color="#FFA200"/>
<stop offset="0.37" stop-color="#FFB300"/>
<stop offset="0.65" stop-color="#FFBD00"/>
<stop offset="1" stop-color="#FFC100"/>
</linearGradient>
</defs>
</svg>
