<svg width="98" height="81" viewBox="0 0 98 81" fill="none" xmlns="http://www.w3.org/2000/svg">
<path fill-rule="evenodd" clip-rule="evenodd" d="M16.9063 22.1308C17.1191 21.8032 17.2994 21.4556 17.4445 21.093L18.8685 21.6557C18.6587 22.1485 18.4018 22.6199 18.1016 23.0634C17.2038 24.4389 15.8557 25.4595 14.2882 25.9504C13.6485 26.1797 12.9599 26.2377 12.2909 26.1187C11.6218 25.9996 10.9955 25.7077 10.4741 25.2719C9.56643 24.4574 9.00329 23.093 9.00329 21.2122C8.99138 19.4652 9.50371 17.7547 10.4741 16.3018C11.3719 14.9264 12.72 13.9058 14.2874 13.4148C14.9271 13.1859 15.6154 13.1281 16.2843 13.247C16.9531 13.3659 17.5793 13.6575 18.1008 14.0929C18.4071 14.3705 18.6662 14.6962 18.8678 15.0571L17.4695 16.4238C17.3289 16.1341 17.139 15.871 16.9083 15.6463C16.5593 15.3316 16.1313 15.1176 15.6701 15.0271C15.2089 14.9366 14.7318 14.9731 14.2898 15.1327C13.2024 15.4751 12.2735 16.1955 11.6713 17.1635C11.0022 18.2206 10.6544 19.4492 10.6701 20.7002C10.6302 21.2339 10.6987 21.7703 10.8715 22.2769C11.0443 22.7835 11.3178 23.2499 11.6756 23.648C12.0233 23.9636 12.4503 24.1789 12.9108 24.2709C13.3713 24.363 13.8482 24.3283 14.2906 24.1706C15.3768 23.8269 16.3044 23.106 16.9056 22.1382" fill="black"/>
<path d="M5.63067 36.2538C5.53565 36.2543 5.44196 36.2314 5.35787 36.1872L0.346123 33.5671C0.239955 33.5082 0.151714 33.4217 0.0907798 33.3167C0.0298454 33.2118 -0.00150617 33.0922 5.56271e-05 32.9708V5.69073C0.00851286 5.54543 0.0617581 5.40631 0.152476 5.2925C0.243193 5.17868 0.36693 5.09575 0.506684 5.0551L16.8385 0.0125716C16.8816 0.000335673 16.9267 -0.0030149 16.9711 0.00272407C17.0154 0.00846304 17.0582 0.0231717 17.0967 0.045955C17.1353 0.0687384 17.1688 0.0991205 17.1952 0.135254C17.2216 0.171388 17.2404 0.212518 17.2504 0.256144C17.2767 0.344746 17.268 0.440055 17.2261 0.522425C17.1842 0.604794 17.1123 0.667945 17.0252 0.698861L0.691802 5.74061C0.682483 5.74399 0.673589 5.74843 0.665301 5.75386V32.9412L5.63067 35.5391L21.9286 30.4681V3.91674L5.88126 8.96473C5.82445 8.98444 5.76321 8.98757 5.7047 8.97377C5.64618 8.95997 5.59279 8.9298 5.55078 8.88679C5.50675 8.84158 5.47489 8.78594 5.4582 8.72508C5.4415 8.66422 5.4405 8.60012 5.4553 8.53877C5.46843 8.47845 5.49747 8.42274 5.53942 8.37744C5.58136 8.33214 5.63467 8.2989 5.6938 8.28117L21.805 3.21487C21.8976 3.18576 21.9959 3.18014 22.0911 3.19851C22.1864 3.21688 22.2756 3.25866 22.3506 3.32009C22.4289 3.38442 22.4918 3.46544 22.5347 3.55722C22.5775 3.64899 22.5994 3.7492 22.5985 3.85049V30.5071C22.6006 30.6465 22.5585 30.7831 22.4784 30.8973C22.3983 31.0115 22.2842 31.0975 22.1523 31.1431L5.8037 36.23C5.74751 36.2472 5.68905 36.2559 5.63028 36.2557" fill="black"/>
<path d="M3.0851 6.80869C3.0045 6.80898 2.92653 6.78 2.86568 6.72714C2.80482 6.67429 2.76522 6.60114 2.75422 6.52129C2.74322 6.44144 2.76158 6.36032 2.80587 6.29297C2.85017 6.22563 2.9174 6.17666 2.99507 6.15514L19.1036 1.62313C19.1883 1.59995 19.2788 1.61119 19.3552 1.65443C19.4317 1.69766 19.488 1.76937 19.5118 1.85392C19.5356 1.93848 19.525 2.02902 19.4824 2.1058C19.4397 2.18259 19.3684 2.23939 19.284 2.26383L3.17395 6.79622C3.14455 6.80458 3.11411 6.80878 3.08354 6.80869" fill="black"/>
<path fill-rule="evenodd" clip-rule="evenodd" d="M35.533 19.6987C35.6804 19.5434 35.8062 19.3687 35.9067 19.1796L36.8958 19.7509C36.7493 20.0037 36.5703 20.2363 36.3635 20.4427C35.6453 21.1131 34.6995 21.4859 33.7171 21.4859C32.7347 21.4859 31.7889 21.1131 31.0707 20.4427C30.4145 19.7265 30.0505 18.7904 30.0505 17.8191C30.0505 16.8478 30.4145 15.9117 31.0707 15.1955C31.7889 14.5253 32.7347 14.1526 33.7171 14.1526C34.6995 14.1526 35.6452 14.5253 36.3635 15.1955C36.5701 15.4021 36.749 15.6347 36.8958 15.8873L35.925 16.4485C35.8219 16.2475 35.6907 16.0622 35.5353 15.8982C35.0501 15.4217 34.3973 15.1548 33.7173 15.1548C33.0373 15.1548 32.3844 15.4217 31.8993 15.8982C31.4499 16.4284 31.2034 17.101 31.2039 17.796C31.2044 18.4911 31.4518 19.1633 31.902 19.6929C32.385 20.1722 33.0378 20.4412 33.7183 20.4412C34.3987 20.4412 35.0516 20.1722 35.5345 19.6929M42.035 16.809C42.1044 16.6493 42.1376 16.4763 42.132 16.3023C42.1374 16.1298 42.1042 15.9582 42.035 15.8C41.9639 15.654 41.8557 15.5293 41.7213 15.4383C41.577 15.3343 41.41 15.2661 41.2341 15.2396C41.0242 15.2089 40.8121 15.1958 40.6001 15.2006H39.9578V17.4029H40.5962C40.8081 17.409 41.0201 17.3978 41.2302 17.3694C41.4062 17.3446 41.574 17.2794 41.7205 17.1788C41.8542 17.0848 41.962 16.9587 42.0342 16.8121M42.8639 17.5798C42.5764 17.9128 42.1897 18.145 41.7606 18.2423L43.6862 21.2385L43.7642 21.3589H42.3974L42.3744 21.3199L40.5817 18.3651H39.9582V21.3612H38.8241V14.254H40.8682C41.1946 14.25 41.52 14.292 41.8347 14.3787C42.1083 14.4544 42.3648 14.5819 42.5903 14.7544C42.8151 14.9344 42.9946 15.1645 43.1145 15.4263C43.2363 15.6968 43.2978 15.9905 43.2949 16.2871C43.3104 16.7573 43.1569 17.2174 42.8624 17.5841M50.3987 19.6999C50.8474 19.169 51.0935 18.4963 51.0935 17.8012C51.0935 17.1061 50.8474 16.4334 50.3987 15.9025C49.9135 15.426 49.2607 15.1591 48.5807 15.1591C47.9007 15.1591 47.2478 15.426 46.7626 15.9025C46.3132 16.4326 46.0667 17.1053 46.0672 17.8003C46.0677 18.4954 46.3151 19.1676 46.7654 19.6971C47.2483 20.1765 47.9012 20.4454 48.5816 20.4454C49.2621 20.4454 49.9149 20.1765 50.3979 19.6971M51.228 15.1944C51.7469 15.7178 52.0988 16.3833 52.2395 17.1068C52.3801 17.8303 52.303 18.5792 52.018 19.2589C51.7329 19.9386 51.2528 20.5185 50.6382 20.9252C50.0236 21.332 49.3022 21.5474 48.5652 21.5442C47.8282 21.541 47.1087 21.3193 46.4977 20.9072C45.8866 20.495 45.4116 19.911 45.1325 19.2288C44.8534 18.5467 44.7829 17.7971 44.9298 17.0749C45.0767 16.3527 45.4345 15.6903 45.9579 15.1714C46.3054 14.8268 46.7174 14.5541 47.1704 14.3688C47.6233 14.1835 48.1083 14.0892 48.5977 14.0913C49.0871 14.0935 49.5712 14.192 50.0226 14.3812C50.4739 14.5705 50.8835 14.8468 51.228 15.1944ZM58.3208 18.6434C58.4116 18.8683 58.4575 19.1089 58.4561 19.3515C58.4571 19.6509 58.3905 19.9466 58.2612 20.2166C58.1287 20.4908 57.9377 20.7325 57.7016 20.9248C57.4679 21.1134 57.2006 21.2562 56.914 21.3456C56.601 21.4424 56.275 21.49 55.9475 21.4867C55.4135 21.4892 54.8912 21.3312 54.4482 21.0331C54.146 20.8239 53.8742 20.5738 53.6407 20.2899L53.5967 20.2389L53.6415 20.1878L54.2179 19.5342L54.281 19.4618L54.3387 19.5397C54.5566 19.83 54.8313 20.0728 55.1462 20.2533C55.4181 20.4137 55.7269 20.5009 56.0425 20.5062C56.3811 20.5175 56.7127 20.4079 56.9779 20.1971C57.0899 20.1006 57.1791 19.9803 57.2389 19.845C57.2988 19.7097 57.3278 19.5629 57.3239 19.415C57.3239 18.7673 56.6322 18.4921 56.2822 18.3534L56.2433 18.3382C56.0613 18.2673 55.8485 18.1823 55.6493 18.1016C55.4502 18.021 55.2631 17.9384 55.1302 17.8713C55.0198 17.82 54.9131 17.7609 54.811 17.6944C54.6651 17.5997 54.5312 17.4876 54.4124 17.3604C54.2678 17.2104 54.1531 17.0342 54.0745 16.8413C53.9794 16.6031 53.9324 16.3484 53.9361 16.0919C53.9358 15.8258 53.995 15.5629 54.1092 15.3226C54.225 15.0784 54.3923 14.8621 54.5994 14.6885C54.8159 14.5095 55.0654 14.3746 55.3337 14.2914C55.6309 14.1988 55.9409 14.1531 56.2522 14.1562C56.743 14.1533 57.2252 14.2851 57.6462 14.5373C57.8898 14.6848 58.1116 14.8656 58.3052 15.0743L58.3516 15.1227L58.3126 15.1772L57.799 15.8425L57.7413 15.9146L57.6786 15.8479C57.4986 15.6526 57.2899 15.4858 57.0597 15.3534C56.7982 15.2053 56.5029 15.127 56.2023 15.1262C55.9032 15.1117 55.6078 15.1979 55.3633 15.3709C55.2677 15.4482 55.1914 15.5468 55.1406 15.6588C55.0898 15.7707 55.0658 15.893 55.0706 16.0159C55.0659 16.137 55.0872 16.2577 55.1331 16.3699C55.1789 16.4821 55.2482 16.5832 55.3364 16.6663C55.5089 16.8132 55.7071 16.927 55.921 17.0019L57.2016 17.5362C57.3659 17.616 57.5231 17.7098 57.6716 17.8164C57.7985 17.9039 57.9147 18.006 58.0176 18.1207C58.1449 18.2747 58.2483 18.447 58.3243 18.6317M64.5808 18.6317C64.6716 18.8566 64.7175 19.0972 64.7161 19.3398C64.7169 19.6391 64.6503 19.9349 64.5212 20.2049C64.3886 20.479 64.1976 20.7207 63.9616 20.9131C63.7279 21.1018 63.4607 21.2447 63.174 21.3343C62.861 21.4311 62.535 21.4787 62.2075 21.4754C61.6735 21.478 61.1512 21.3199 60.7082 21.0218C60.406 20.8126 60.1342 20.5625 59.9007 20.2786L59.8555 20.2275L59.9007 20.1765L60.4775 19.5229L60.5414 19.4505L60.5991 19.5284C60.8162 19.8183 61.09 20.0611 61.4039 20.242C61.6758 20.4023 61.9846 20.4894 62.3002 20.4949C62.6388 20.5062 62.9703 20.3966 63.2355 20.1859C63.3476 20.0893 63.4367 19.969 63.4966 19.8337C63.5564 19.6984 63.5855 19.5516 63.5816 19.4037C63.5816 18.756 62.8899 18.4808 62.5399 18.3421L62.5009 18.3269C62.3189 18.256 62.1061 18.171 61.907 18.0903C61.7078 18.0097 61.5208 17.9271 61.3879 17.86C61.2774 17.8088 61.1707 17.7497 61.0687 17.6831C60.9227 17.5884 60.7888 17.4763 60.67 17.3491C60.5257 17.1991 60.4113 17.0229 60.3329 16.83C60.2378 16.5918 60.1908 16.3371 60.1946 16.0806C60.1941 15.8144 60.2532 15.5516 60.3676 15.3113C60.4832 15.0669 60.6505 14.8506 60.8579 14.6772C61.0747 14.4983 61.3244 14.3634 61.5929 14.2801C61.8902 14.1876 62.2001 14.1419 62.5114 14.1449C63.0022 14.1419 63.4844 14.2738 63.9055 14.526C64.1491 14.6737 64.3709 14.8547 64.5645 15.0638L64.6108 15.1121L64.5719 15.1667L64.0582 15.8323L64.0005 15.9044L63.9378 15.8378C63.7578 15.6425 63.5491 15.4757 63.3189 15.3432C63.0574 15.1951 62.7621 15.1169 62.4616 15.116C62.1623 15.1015 61.8667 15.1877 61.6221 15.3608C61.5265 15.4381 61.4502 15.5367 61.3994 15.6486C61.3486 15.7606 61.3247 15.8829 61.3294 16.0058C61.3248 16.1269 61.3461 16.2476 61.3919 16.3598C61.4377 16.4719 61.5071 16.573 61.5952 16.6562C61.7678 16.8031 61.9659 16.9168 62.1798 16.9917L63.4604 17.526H63.4635C63.6278 17.606 63.785 17.6998 63.9335 17.8062C64.0604 17.8937 64.1766 17.9959 64.2796 18.1106C64.4068 18.2646 64.5102 18.4368 64.5863 18.6215M72.738 19.5331L74.1674 14.3198L74.1838 14.2622H75.3752L75.3463 14.3619L73.3393 21.3191L73.3225 21.3768H72.2493L72.2325 21.3191L70.6347 15.9531L69.0485 21.3195L69.031 21.3772H67.9558L67.939 21.3195L65.9328 14.3569L65.9039 14.2571H67.0957L67.1116 14.3148L68.5415 19.528L70.0669 14.3136L70.0836 14.2559H71.2005L71.2173 14.3136L72.738 19.5331ZM81.733 19.7065C82.1817 19.1756 82.4278 18.5029 82.4278 17.8078C82.4278 17.1127 82.1817 16.44 81.733 15.9091C81.2478 15.4327 80.595 15.1657 79.915 15.1657C79.235 15.1657 78.5821 15.4327 78.097 15.9091C77.6471 16.4389 77.4001 17.1114 77.4001 17.8064C77.4001 18.5015 77.6471 19.1739 78.097 19.7038C78.5801 20.1828 79.2329 20.4516 79.9132 20.4516C80.5936 20.4516 81.2464 20.1828 81.7295 19.7038M82.5596 15.201C83.0777 15.7234 83.4295 16.3876 83.5707 17.1096C83.712 17.8317 83.6364 18.5794 83.3534 19.2586C83.0704 19.9378 82.5927 20.518 81.9805 20.9261C81.3683 21.3342 80.649 21.552 79.9132 21.552C79.1775 21.552 78.4582 21.3342 77.846 20.9261C77.2338 20.518 76.7561 19.9378 76.4731 19.2586C76.1901 18.5794 76.1145 17.8317 76.2557 17.1096C76.397 16.3876 76.7488 15.7234 77.2669 15.201C77.9855 14.5315 78.9311 14.1593 79.9132 14.1593C80.8953 14.1593 81.841 14.5315 82.5596 15.201ZM88.6064 16.8207C88.676 16.6611 88.7093 16.488 88.7039 16.314C88.7091 16.1414 88.6758 15.9698 88.6064 15.8117C88.5355 15.6656 88.4273 15.5409 88.2927 15.45C88.1484 15.3461 87.9814 15.2779 87.8056 15.2513C87.5957 15.2206 87.3836 15.2076 87.1715 15.2123H86.5335V17.4154H87.1715C87.3835 17.4204 87.5955 17.4081 87.8056 17.3787C87.9816 17.3542 88.1494 17.2889 88.2958 17.1882C88.4297 17.0944 88.5376 16.9682 88.6095 16.8214M89.4392 17.5892C89.1517 17.9221 88.765 18.1543 88.336 18.2517L90.2612 21.2478L90.3391 21.3682H88.9724L88.9494 21.3293L87.1567 18.3717H86.5331V21.3679H85.3983V14.254H87.4427C87.7691 14.2501 88.0945 14.2921 88.4092 14.3787C88.6828 14.4548 88.9393 14.5824 89.1649 14.7548C89.3897 14.9348 89.5693 15.1649 89.6894 15.4266C89.8111 15.6972 89.8727 15.9909 89.8699 16.2875C89.885 16.757 89.7315 17.2164 89.4373 17.5825M96.5636 19.0109C96.7419 18.6368 96.8315 18.2268 96.8255 17.8125C96.8317 17.3957 96.7421 16.983 96.5636 16.6063C96.4293 16.3314 96.2461 16.0831 96.0231 15.8736C95.7975 15.6662 95.5306 15.5089 95.2398 15.4122C94.9118 15.3013 94.5676 15.2461 94.2215 15.2489H93.1805V20.3624H94.2215C94.5676 20.3653 94.9119 20.3101 95.2398 20.1991C95.5306 20.1024 95.7975 19.9451 96.0231 19.7377C96.2456 19.5289 96.4287 19.2817 96.5636 19.0081M97.6217 16.1753C97.858 16.6877 97.9803 17.2453 97.9803 17.8096C97.9803 18.3738 97.858 18.9314 97.6217 19.4438C97.4372 19.8189 97.1842 20.1562 96.8758 20.4384C96.5313 20.746 96.1278 20.9804 95.6899 21.1274C95.2175 21.2892 94.7212 21.37 94.2218 21.3667H92.0468V14.2516H94.2218C94.7221 14.2481 95.2193 14.329 95.6926 14.4909C96.1303 14.6379 96.5336 14.8722 96.8781 15.1796C97.1866 15.4617 97.4396 15.799 97.6241 16.1741" fill="black"/>
<path d="M22.1291 57.648C22.1291 56.724 21.4331 56.148 20.3651 56.148H18.4691V59.1H20.4011C21.4811 59.1 22.1291 58.56 22.1291 57.648ZM21.9131 53.892C21.9131 53.064 21.3491 52.536 20.2811 52.536H18.4691V55.248H20.3051C21.3251 55.248 21.9131 54.744 21.9131 53.892ZM23.2211 57.756C23.2211 59.016 22.2251 60 20.4971 60H17.3771V51.636H20.3771C22.1411 51.636 23.0291 52.596 23.0291 53.76C23.0291 54.816 22.3691 55.428 21.5651 55.692C22.4771 55.848 23.2211 56.724 23.2211 57.756ZM30.9765 56.7C30.9765 58.788 29.4765 60.108 27.6045 60.108C25.7445 60.108 24.3285 58.788 24.3285 56.7C24.3285 54.624 25.7925 53.316 27.6525 53.316C29.5245 53.316 30.9765 54.624 30.9765 56.7ZM25.4445 56.7C25.4445 58.368 26.4645 59.148 27.6045 59.148C28.7445 59.148 29.8605 58.368 29.8605 56.7C29.8605 55.044 28.7685 54.264 27.6405 54.264C26.4885 54.264 25.4445 55.044 25.4445 56.7ZM38.6523 56.7C38.6523 58.788 37.1523 60.108 35.2803 60.108C33.4203 60.108 32.0043 58.788 32.0043 56.7C32.0043 54.624 33.4683 53.316 35.3283 53.316C37.2003 53.316 38.6523 54.624 38.6523 56.7ZM33.1203 56.7C33.1203 58.368 34.1403 59.148 35.2803 59.148C36.4203 59.148 37.5363 58.368 37.5363 56.7C37.5363 55.044 36.4443 54.264 35.3163 54.264C34.1643 54.264 33.1203 55.044 33.1203 56.7ZM40.0881 60V51.12H41.1801V56.34L43.7121 53.424H45.2361L42.1401 56.7L45.2481 60H43.7601L41.1801 57.096V60H40.0881ZM54.8991 57.72C54.8991 58.908 53.9271 60.084 52.1151 60.084C50.4351 60.084 49.2471 59.148 49.2231 57.768H50.3871C50.4591 58.464 50.9511 59.16 52.1151 59.16C53.1711 59.16 53.7951 58.56 53.7951 57.768C53.7951 55.512 49.2711 56.952 49.2711 53.844C49.2711 52.464 50.3871 51.528 52.0431 51.528C53.6391 51.528 54.6831 52.404 54.8151 53.676H53.6151C53.5431 53.112 53.0151 52.476 51.9951 52.464C51.0951 52.44 50.3871 52.908 50.3871 53.808C50.3871 55.968 54.8991 54.624 54.8991 57.72ZM56.746 58.2V54.324H55.894V53.424H56.746V51.768H57.838V53.424H59.554V54.324H57.838V58.2C57.838 58.848 58.078 59.076 58.75 59.076H59.554V60H58.57C57.406 60 56.746 59.52 56.746 58.2ZM67.1171 56.7C67.1171 58.788 65.6171 60.108 63.7451 60.108C61.8851 60.108 60.4691 58.788 60.4691 56.7C60.4691 54.624 61.9331 53.316 63.7931 53.316C65.6651 53.316 67.1171 54.624 67.1171 56.7ZM61.5851 56.7C61.5851 58.368 62.6051 59.148 63.7451 59.148C64.8851 59.148 66.0011 58.368 66.0011 56.7C66.0011 55.044 64.9091 54.264 63.7811 54.264C62.6291 54.264 61.5851 55.044 61.5851 56.7ZM69.6449 56.424V60H68.5529V53.424H69.6449V54.492C70.0169 53.76 70.7249 53.304 71.7689 53.304V54.432H71.4809C70.4369 54.432 69.6449 54.9 69.6449 56.424ZM75.8255 54.24C74.7575 54.24 73.8695 54.948 73.7495 56.232H77.9015C77.9135 54.948 76.9535 54.24 75.8255 54.24ZM78.8975 57.972C78.5615 59.172 77.5055 60.108 75.8735 60.108C74.0015 60.108 72.6215 58.788 72.6215 56.7C72.6215 54.624 73.9535 53.316 75.8735 53.316C77.7815 53.316 79.0295 54.66 79.0295 56.46C79.0295 56.7 79.0175 56.892 78.9935 57.12H73.7375C73.8215 58.452 74.7575 59.184 75.8735 59.184C76.8575 59.184 77.4815 58.68 77.7215 57.972H78.8975ZM28.266 72.608H29.874C31.122 72.608 31.65 72.02 31.65 71.084C31.65 70.112 31.122 69.536 29.874 69.536H28.266V72.608ZM32.766 71.084C32.766 72.356 31.95 73.508 29.874 73.508H28.266V77H27.174V68.636H29.874C31.842 68.636 32.766 69.716 32.766 71.084ZM33.7152 73.688C33.7152 71.636 35.0712 70.316 36.8352 70.316C38.0592 70.316 38.8992 70.94 39.2832 71.624V70.424H40.3872V77H39.2832V75.776C38.8872 76.484 38.0352 77.108 36.8232 77.108C35.0712 77.108 33.7152 75.728 33.7152 73.688ZM39.2832 73.7C39.2832 72.176 38.2512 71.264 37.0512 71.264C35.8512 71.264 34.8312 72.14 34.8312 73.688C34.8312 75.236 35.8512 76.148 37.0512 76.148C38.2512 76.148 39.2832 75.248 39.2832 73.7ZM43.3246 73.424V77H42.2326V70.424H43.3246V71.492C43.6966 70.76 44.4046 70.304 45.4486 70.304V71.432H45.1606C44.1166 71.432 43.3246 71.9 43.3246 73.424ZM46.9492 75.2V71.324H46.0972V70.424H46.9492V68.768H48.0412V70.424H49.7572V71.324H48.0412V75.2C48.0412 75.848 48.2812 76.076 48.9532 76.076H49.7572V77H48.7732C47.6092 77 46.9492 76.52 46.9492 75.2ZM55.8923 77V73.28C55.8923 71.936 55.1603 71.252 54.0563 71.252C52.9403 71.252 52.1723 71.948 52.1723 73.364V77H51.0803V70.424H52.1723V71.36C52.6043 70.676 53.3963 70.304 54.2843 70.304C55.8083 70.304 56.9723 71.24 56.9723 73.124V77H55.8923ZM61.552 71.24C60.484 71.24 59.596 71.948 59.476 73.232H63.628C63.64 71.948 62.68 71.24 61.552 71.24ZM64.624 74.972C64.288 76.172 63.232 77.108 61.6 77.108C59.728 77.108 58.348 75.788 58.348 73.7C58.348 71.624 59.68 70.316 61.6 70.316C63.508 70.316 64.756 71.66 64.756 73.46C64.756 73.7 64.744 73.892 64.72 74.12H59.464C59.548 75.452 60.484 76.184 61.6 76.184C62.584 76.184 63.208 75.68 63.448 74.972H64.624ZM67.2894 73.424V77H66.1974V70.424H67.2894V71.492C67.6614 70.76 68.3694 70.304 69.4134 70.304V71.432H69.1254C68.0814 71.432 67.2894 71.9 67.2894 73.424Z" fill="#3D3D3D"/>
</svg>
