<svg width="380" height="300" viewBox="0 0 380 300" fill="none" xmlns="http://www.w3.org/2000/svg">
<rect x="0.5" y="0.5" width="379" height="299" rx="17.5" fill="#FAF4D4" stroke="#F3F3F3"/>
<path d="M66.3616 198.454H67.9996V209.668H72.3916V211H66.3616V198.454ZM78.3251 202.36C76.7231 202.36 75.3911 203.422 75.2111 205.348H81.4391C81.4571 203.422 80.0171 202.36 78.3251 202.36ZM82.9331 207.958C82.4291 209.758 80.8451 211.162 78.3971 211.162C75.5891 211.162 73.5191 209.182 73.5191 206.05C73.5191 202.936 75.5171 200.974 78.3971 200.974C81.2591 200.974 83.1311 202.99 83.1311 205.69C83.1311 206.05 83.1131 206.338 83.0771 206.68H75.1931C75.3191 208.678 76.7231 209.776 78.3971 209.776C79.8731 209.776 80.8091 209.02 81.1691 207.958H82.9331ZM85.6532 208.3V202.486H84.3752V201.136H85.6532V198.652H87.2912V201.136H89.8652V202.486H87.2912V208.3C87.2912 209.272 87.6512 209.614 88.6592 209.614H89.8652V211H88.3892C86.6432 211 85.6532 210.28 85.6532 208.3ZM97.0087 208.3V202.486H95.7307V201.136H97.0087V198.652H98.6467V201.136H101.221V202.486H98.6467V208.3C98.6467 209.272 99.0067 209.614 100.015 209.614H101.221V211H99.7447C97.9987 211 97.0087 210.28 97.0087 208.3ZM103.205 211V197.68H104.843V202.558C105.491 201.514 106.715 200.956 108.101 200.956C110.297 200.956 112.043 202.36 112.043 205.186V211H110.423V205.42C110.423 203.404 109.325 202.378 107.669 202.378C105.995 202.378 104.843 203.422 104.843 205.546V211H103.205ZM118.913 202.36C117.311 202.36 115.979 203.422 115.799 205.348H122.027C122.045 203.422 120.605 202.36 118.913 202.36ZM123.521 207.958C123.017 209.758 121.433 211.162 118.985 211.162C116.177 211.162 114.107 209.182 114.107 206.05C114.107 202.936 116.105 200.974 118.985 200.974C121.847 200.974 123.719 202.99 123.719 205.69C123.719 206.05 123.701 206.338 123.665 206.68H115.781C115.907 208.678 117.311 209.776 118.985 209.776C120.461 209.776 121.397 209.02 121.757 207.958H123.521ZM130.986 211V202.486H129.708V201.136H130.986V200.434C130.986 198.238 132.066 197.248 134.586 197.248V198.616C133.11 198.616 132.624 199.156 132.624 200.434V201.136H134.694V202.486H132.624V211H130.986ZM135.992 206.032C135.992 202.954 138.026 200.974 140.672 200.974C142.508 200.974 143.768 201.91 144.344 202.936V201.136H146V211H144.344V209.164C143.75 210.226 142.472 211.162 140.654 211.162C138.026 211.162 135.992 209.092 135.992 206.032ZM144.344 206.05C144.344 203.764 142.796 202.396 140.996 202.396C139.196 202.396 137.666 203.71 137.666 206.032C137.666 208.354 139.196 209.722 140.996 209.722C142.796 209.722 144.344 208.372 144.344 206.05ZM163.006 211V205.42C163.006 203.404 161.926 202.378 160.306 202.378C158.65 202.378 157.516 203.44 157.516 205.564V211H155.896V205.42C155.896 203.404 154.816 202.378 153.196 202.378C151.54 202.378 150.406 203.44 150.406 205.564V211H148.768V201.136H150.406V202.558C151.054 201.514 152.224 200.956 153.52 200.956C155.14 200.956 156.49 201.676 157.138 203.152C157.714 201.73 159.118 200.956 160.63 200.956C162.88 200.956 164.626 202.36 164.626 205.186V211H163.006ZM167.313 211V201.136H168.951V211H167.313ZM168.159 199.534C167.529 199.534 167.043 199.048 167.043 198.418C167.043 197.788 167.529 197.302 168.159 197.302C168.753 197.302 169.239 197.788 169.239 198.418C169.239 199.048 168.753 199.534 168.159 199.534ZM171.742 211V197.68H173.38V211H171.742ZM176.172 211V201.136H177.81V211H176.172ZM177.018 199.534C176.388 199.534 175.902 199.048 175.902 198.418C175.902 197.788 176.388 197.302 177.018 197.302C177.612 197.302 178.098 197.788 178.098 198.418C178.098 199.048 177.612 199.534 177.018 199.534ZM184.796 202.36C183.194 202.36 181.862 203.422 181.682 205.348H187.91C187.928 203.422 186.488 202.36 184.796 202.36ZM189.404 207.958C188.9 209.758 187.316 211.162 184.868 211.162C182.06 211.162 179.99 209.182 179.99 206.05C179.99 202.936 181.988 200.974 184.868 200.974C187.73 200.974 189.602 202.99 189.602 205.69C189.602 206.05 189.584 206.338 189.548 206.68H181.664C181.79 208.678 183.194 209.776 184.868 209.776C186.344 209.776 187.28 209.02 187.64 207.958H189.404ZM198.856 208.318C198.856 209.938 197.434 211.162 195.256 211.162C192.952 211.162 191.332 209.902 191.224 208.102H192.916C193.006 209.056 193.852 209.776 195.238 209.776C196.534 209.776 197.254 209.128 197.254 208.318C197.254 206.122 191.422 207.4 191.422 203.728C191.422 202.216 192.844 200.974 195.04 200.974C197.218 200.974 198.658 202.144 198.766 204.07H197.128C197.056 203.08 196.3 202.36 194.986 202.36C193.78 202.36 193.06 202.936 193.06 203.728C193.06 206.068 198.784 204.79 198.856 208.318ZM205.355 206.032C205.355 202.954 207.389 200.974 210.053 200.974C211.601 200.974 213.023 201.766 213.707 202.9V197.68H215.363V211H213.707V209.146C213.113 210.244 211.835 211.162 210.035 211.162C207.389 211.162 205.355 209.092 205.355 206.032ZM213.707 206.05C213.707 203.764 212.159 202.396 210.359 202.396C208.559 202.396 207.029 203.71 207.029 206.032C207.029 208.354 208.559 209.722 210.359 209.722C212.159 209.722 213.707 208.372 213.707 206.05ZM218.131 211V201.136H219.769V211H218.131ZM218.977 199.534C218.347 199.534 217.861 199.048 217.861 198.418C217.861 197.788 218.347 197.302 218.977 197.302C219.571 197.302 220.057 197.788 220.057 198.418C220.057 199.048 219.571 199.534 218.977 199.534ZM229.653 208.318C229.653 209.938 228.231 211.162 226.053 211.162C223.749 211.162 222.129 209.902 222.021 208.102H223.713C223.803 209.056 224.649 209.776 226.035 209.776C227.331 209.776 228.051 209.128 228.051 208.318C228.051 206.122 222.219 207.4 222.219 203.728C222.219 202.216 223.641 200.974 225.837 200.974C228.015 200.974 229.455 202.144 229.563 204.07H227.925C227.853 203.08 227.097 202.36 225.783 202.36C224.577 202.36 223.857 202.936 223.857 203.728C223.857 206.068 229.581 204.79 229.653 208.318ZM231.353 206.05C231.353 202.954 233.351 200.974 236.159 200.974C238.607 200.974 240.209 202.234 240.713 204.304H238.949C238.607 203.116 237.617 202.36 236.159 202.36C234.359 202.36 233.027 203.638 233.027 206.05C233.027 208.498 234.359 209.776 236.159 209.776C237.617 209.776 238.589 209.074 238.949 207.832H240.713C240.209 209.794 238.607 211.162 236.159 211.162C233.351 211.162 231.353 209.182 231.353 206.05ZM252.259 206.05C252.259 209.182 250.009 211.162 247.201 211.162C244.411 211.162 242.287 209.182 242.287 206.05C242.287 202.936 244.483 200.974 247.273 200.974C250.081 200.974 252.259 202.936 252.259 206.05ZM243.961 206.05C243.961 208.552 245.491 209.722 247.201 209.722C248.911 209.722 250.585 208.552 250.585 206.05C250.585 203.566 248.947 202.396 247.255 202.396C245.527 202.396 243.961 203.566 243.961 206.05ZM253.242 201.136H255.006L258.084 209.488L261.144 201.136H262.89L259.02 211H257.112L253.242 201.136ZM268.696 202.36C267.094 202.36 265.762 203.422 265.582 205.348H271.81C271.828 203.422 270.388 202.36 268.696 202.36ZM273.304 207.958C272.8 209.758 271.216 211.162 268.768 211.162C265.96 211.162 263.89 209.182 263.89 206.05C263.89 202.936 265.888 200.974 268.768 200.974C271.63 200.974 273.502 202.99 273.502 205.69C273.502 206.05 273.484 206.338 273.448 206.68H265.564C265.69 208.678 267.094 209.776 268.768 209.776C270.244 209.776 271.18 209.02 271.54 207.958H273.304ZM277.302 205.636V211H275.664V201.136H277.302V202.738C277.86 201.64 278.922 200.956 280.488 200.956V202.648H280.056C278.49 202.648 277.302 203.35 277.302 205.636ZM287.538 208.3V202.486H286.26V201.136H287.538V198.652H289.176V201.136H291.75V202.486H289.176V208.3C289.176 209.272 289.536 209.614 290.544 209.614H291.75V211H290.274C288.528 211 287.538 210.28 287.538 208.3ZM293.735 211V197.68H295.373V202.558C296.021 201.514 297.245 200.956 298.631 200.956C300.827 200.956 302.573 202.36 302.573 205.186V211H300.953V205.42C300.953 203.404 299.855 202.378 298.199 202.378C296.525 202.378 295.373 203.422 295.373 205.546V211H293.735ZM309.442 202.36C307.84 202.36 306.508 203.422 306.328 205.348H312.556C312.574 203.422 311.134 202.36 309.442 202.36ZM314.05 207.958C313.546 209.758 311.962 211.162 309.514 211.162C306.706 211.162 304.636 209.182 304.636 206.05C304.636 202.936 306.634 200.974 309.514 200.974C312.376 200.974 314.248 202.99 314.248 205.69C314.248 206.05 314.23 206.338 314.194 206.68H306.31C306.436 208.678 307.84 209.776 309.514 209.776C310.99 209.776 311.926 209.02 312.286 207.958H314.05ZM99.083 238V232.42C99.083 230.404 98.003 229.378 96.383 229.378C94.727 229.378 93.593 230.44 93.593 232.564V238H91.973V232.42C91.973 230.404 90.893 229.378 89.273 229.378C87.617 229.378 86.483 230.44 86.483 232.564V238H84.845V228.136H86.483V229.558C87.131 228.514 88.301 227.956 89.597 227.956C91.217 227.956 92.567 228.676 93.215 230.152C93.791 228.73 95.195 227.956 96.707 227.956C98.957 227.956 100.703 229.36 100.703 232.186V238H99.083ZM102.778 233.032C102.778 229.954 104.812 227.974 107.458 227.974C109.294 227.974 110.554 228.91 111.13 229.936V228.136H112.786V238H111.13V236.164C110.536 237.226 109.258 238.162 107.44 238.162C104.812 238.162 102.778 236.092 102.778 233.032ZM111.13 233.05C111.13 230.764 109.582 229.396 107.782 229.396C105.982 229.396 104.452 230.71 104.452 233.032C104.452 235.354 105.982 236.722 107.782 236.722C109.582 236.722 111.13 235.372 111.13 233.05ZM114.942 233.032C114.942 229.954 116.976 227.974 119.622 227.974C121.422 227.974 122.718 228.874 123.294 229.936V228.136H124.95V238.216C124.95 240.934 123.132 242.86 120.234 242.86C117.642 242.86 115.788 241.546 115.464 239.44H117.084C117.444 240.628 118.614 241.438 120.234 241.438C121.98 241.438 123.294 240.322 123.294 238.216V236.146C122.7 237.208 121.422 238.162 119.622 238.162C116.976 238.162 114.942 236.092 114.942 233.032ZM123.294 233.05C123.294 230.764 121.746 229.396 119.946 229.396C118.146 229.396 116.616 230.71 116.616 233.032C116.616 235.354 118.146 236.722 119.946 236.722C121.746 236.722 123.294 235.372 123.294 233.05ZM127.718 238V228.136H129.356V238H127.718ZM128.564 226.534C127.934 226.534 127.448 226.048 127.448 225.418C127.448 224.788 127.934 224.302 128.564 224.302C129.158 224.302 129.644 224.788 129.644 225.418C129.644 226.048 129.158 226.534 128.564 226.534ZM131.536 233.05C131.536 229.954 133.534 227.974 136.342 227.974C138.79 227.974 140.392 229.234 140.896 231.304H139.132C138.79 230.116 137.8 229.36 136.342 229.36C134.542 229.36 133.21 230.638 133.21 233.05C133.21 235.498 134.542 236.776 136.342 236.776C137.8 236.776 138.772 236.074 139.132 234.832H140.896C140.392 236.794 138.79 238.162 136.342 238.162C133.534 238.162 131.536 236.182 131.536 233.05ZM157.24 233.05C157.24 236.182 154.99 238.162 152.182 238.162C149.392 238.162 147.268 236.182 147.268 233.05C147.268 229.936 149.464 227.974 152.254 227.974C155.062 227.974 157.24 229.936 157.24 233.05ZM148.942 233.05C148.942 235.552 150.472 236.722 152.182 236.722C153.892 236.722 155.566 235.552 155.566 233.05C155.566 230.566 153.928 229.396 152.236 229.396C150.508 229.396 148.942 230.566 148.942 233.05ZM159.7 238V229.486H158.422V228.136H159.7V227.434C159.7 225.238 160.78 224.248 163.3 224.248V225.616C161.824 225.616 161.338 226.156 161.338 227.434V228.136H163.408V229.486H161.338V238H159.7ZM177.208 235.318C177.208 236.938 175.786 238.162 173.608 238.162C171.304 238.162 169.684 236.902 169.576 235.102H171.268C171.358 236.056 172.204 236.776 173.59 236.776C174.886 236.776 175.606 236.128 175.606 235.318C175.606 233.122 169.774 234.4 169.774 230.728C169.774 229.216 171.196 227.974 173.392 227.974C175.57 227.974 177.01 229.144 177.118 231.07H175.48C175.408 230.08 174.652 229.36 173.338 229.36C172.132 229.36 171.412 229.936 171.412 230.728C171.412 233.068 177.136 231.79 177.208 235.318ZM179.881 235.3V229.486H178.603V228.136H179.881V225.652H181.519V228.136H184.093V229.486H181.519V235.3C181.519 236.272 181.879 236.614 182.887 236.614H184.093V238H182.617C180.871 238 179.881 237.28 179.881 235.3ZM195.437 233.05C195.437 236.182 193.187 238.162 190.379 238.162C187.589 238.162 185.465 236.182 185.465 233.05C185.465 229.936 187.661 227.974 190.451 227.974C193.259 227.974 195.437 229.936 195.437 233.05ZM187.139 233.05C187.139 235.552 188.669 236.722 190.379 236.722C192.089 236.722 193.763 235.552 193.763 233.05C193.763 230.566 192.125 229.396 190.433 229.396C188.705 229.396 187.139 230.566 187.139 233.05ZM199.229 232.636V238H197.591V228.136H199.229V229.738C199.787 228.64 200.849 227.956 202.415 227.956V229.648H201.983C200.417 229.648 199.229 230.35 199.229 232.636ZM208.05 236.128L211.11 228.136H212.802L206.862 242.644H205.17L207.114 237.892L203.136 228.136H204.954L208.05 236.128ZM221.173 238L218.077 228.136H219.751L222.019 236.416L224.467 228.136H226.141L228.535 236.434L230.767 228.136H232.387L229.309 238H227.617L225.241 230.17L222.865 238H221.173ZM235.651 232.636V238H234.013V228.136H235.651V229.738C236.209 228.64 237.271 227.956 238.837 227.956V229.648H238.405C236.839 229.648 235.651 230.35 235.651 232.636ZM240.728 238V228.136H242.366V238H240.728ZM241.574 226.534C240.944 226.534 240.458 226.048 240.458 225.418C240.458 224.788 240.944 224.302 241.574 224.302C242.168 224.302 242.654 224.788 242.654 225.418C242.654 226.048 242.168 226.534 241.574 226.534ZM245.517 235.3V229.486H244.239V228.136H245.517V225.652H247.155V228.136H249.729V229.486H247.155V235.3C247.155 236.272 247.515 236.614 248.523 236.614H249.729V238H248.253C246.507 238 245.517 237.28 245.517 235.3ZM251.714 238V228.136H253.352V238H251.714ZM252.56 226.534C251.93 226.534 251.444 226.048 251.444 225.418C251.444 224.788 251.93 224.302 252.56 224.302C253.154 224.302 253.64 224.788 253.64 225.418C253.64 226.048 253.154 226.534 252.56 226.534ZM263.362 238V232.42C263.362 230.404 262.264 229.378 260.608 229.378C258.934 229.378 257.782 230.422 257.782 232.546V238H256.144V228.136H257.782V229.54C258.43 228.514 259.618 227.956 260.95 227.956C263.236 227.956 264.982 229.36 264.982 232.186V238H263.362ZM267.045 233.032C267.045 229.954 269.079 227.974 271.725 227.974C273.525 227.974 274.821 228.874 275.397 229.936V228.136H277.053V238.216C277.053 240.934 275.235 242.86 272.337 242.86C269.745 242.86 267.891 241.546 267.567 239.44H269.187C269.547 240.628 270.717 241.438 272.337 241.438C274.083 241.438 275.397 240.322 275.397 238.216V236.146C274.803 237.208 273.525 238.162 271.725 238.162C269.079 238.162 267.045 236.092 267.045 233.032ZM275.397 233.05C275.397 230.764 273.849 229.396 272.049 229.396C270.249 229.396 268.719 230.71 268.719 233.032C268.719 235.354 270.249 236.722 272.049 236.722C273.849 236.722 275.397 235.372 275.397 233.05ZM292.18 228.136H290.542C290.578 227.11 289.894 226.552 289.012 226.552C288.04 226.552 287.41 227.164 287.41 227.992C287.41 228.73 287.824 229.342 288.706 230.278L292.45 234.04C292.558 233.878 292.666 233.716 292.774 233.536L293.998 231.484H295.762L294.286 234.04C294.052 234.454 293.818 234.814 293.566 235.174L296.392 238H294.25L292.612 236.344C291.406 237.604 290.056 238.216 288.292 238.216C285.682 238.216 283.9 236.722 283.9 234.4C283.9 232.672 284.89 231.286 286.852 230.512C286.078 229.612 285.772 228.91 285.772 227.992C285.772 226.39 287.05 225.202 289.084 225.202C291.064 225.202 292.27 226.462 292.18 228.136ZM288.292 236.812C289.588 236.812 290.596 236.308 291.532 235.264L287.842 231.556C286.276 232.15 285.538 233.086 285.538 234.346C285.538 235.75 286.654 236.812 288.292 236.812ZM144.271 256.954C144.865 255.91 146.161 254.974 147.961 254.974C150.607 254.974 152.641 256.954 152.641 260.032C152.641 263.092 150.607 265.162 147.961 265.162C146.161 265.162 144.883 264.19 144.271 263.182V269.68H142.633V255.136H144.271V256.954ZM150.967 260.032C150.967 257.71 149.437 256.396 147.619 256.396C145.837 256.396 144.271 257.764 144.271 260.05C144.271 262.372 145.837 263.722 147.619 263.722C149.437 263.722 150.967 262.354 150.967 260.032ZM163.545 255.136V265H161.907V263.542C161.277 264.568 160.071 265.144 158.757 265.144C156.489 265.144 154.707 263.74 154.707 260.914V255.136H156.327V260.698C156.327 262.696 157.425 263.722 159.081 263.722C160.773 263.722 161.907 262.678 161.907 260.554V255.136H163.545ZM167.949 256.972C168.579 255.874 169.893 254.974 171.639 254.974C174.303 254.974 176.319 256.954 176.319 260.032C176.319 263.092 174.285 265.162 171.639 265.162C169.839 265.162 168.561 264.262 167.949 263.182V265H166.311V251.68H167.949V256.972ZM174.645 260.032C174.645 257.71 173.115 256.396 171.297 256.396C169.515 256.396 167.949 257.764 167.949 260.05C167.949 262.372 169.515 263.722 171.297 263.722C173.115 263.722 174.645 262.354 174.645 260.032ZM178.475 265V251.68H180.113V265H178.475ZM182.905 265V255.136H184.543V265H182.905ZM183.751 253.534C183.121 253.534 182.635 253.048 182.635 252.418C182.635 251.788 183.121 251.302 183.751 251.302C184.345 251.302 184.831 251.788 184.831 252.418C184.831 253.048 184.345 253.534 183.751 253.534ZM194.426 262.318C194.426 263.938 193.004 265.162 190.826 265.162C188.522 265.162 186.902 263.902 186.794 262.102H188.486C188.576 263.056 189.422 263.776 190.808 263.776C192.104 263.776 192.824 263.128 192.824 262.318C192.824 260.122 186.992 261.4 186.992 257.728C186.992 256.216 188.414 254.974 190.61 254.974C192.788 254.974 194.228 256.144 194.336 258.07H192.698C192.626 257.08 191.87 256.36 190.556 256.36C189.35 256.36 188.63 256.936 188.63 257.728C188.63 260.068 194.354 258.79 194.426 262.318ZM196.739 265V251.68H198.377V256.558C199.025 255.514 200.249 254.956 201.635 254.956C203.831 254.956 205.577 256.36 205.577 259.186V265H203.957V259.42C203.957 257.404 202.859 256.378 201.203 256.378C199.529 256.378 198.377 257.422 198.377 259.546V265H196.739ZM208.252 265V255.136H209.89V265H208.252ZM209.098 253.534C208.468 253.534 207.982 253.048 207.982 252.418C207.982 251.788 208.468 251.302 209.098 251.302C209.692 251.302 210.178 251.788 210.178 252.418C210.178 253.048 209.692 253.534 209.098 253.534ZM219.9 265V259.42C219.9 257.404 218.802 256.378 217.146 256.378C215.472 256.378 214.32 257.422 214.32 259.546V265H212.682V255.136H214.32V256.54C214.968 255.514 216.156 254.956 217.488 254.956C219.774 254.956 221.52 256.36 221.52 259.186V265H219.9ZM223.584 260.032C223.584 256.954 225.618 254.974 228.264 254.974C230.064 254.974 231.36 255.874 231.936 256.936V255.136H233.592V265.216C233.592 267.934 231.774 269.86 228.876 269.86C226.284 269.86 224.43 268.546 224.106 266.44H225.726C226.086 267.628 227.256 268.438 228.876 268.438C230.622 268.438 231.936 267.322 231.936 265.216V263.146C231.342 264.208 230.064 265.162 228.264 265.162C225.618 265.162 223.584 263.092 223.584 260.032ZM231.936 260.05C231.936 257.764 230.388 256.396 228.588 256.396C226.788 256.396 225.258 257.71 225.258 260.032C225.258 262.354 226.788 263.722 228.588 263.722C230.388 263.722 231.936 262.372 231.936 260.05ZM237.962 263.992C237.962 264.622 237.476 265.108 236.882 265.108C236.252 265.108 235.766 264.622 235.766 263.992C235.766 263.362 236.252 262.876 236.882 262.876C237.476 262.876 237.962 263.362 237.962 263.992Z" fill="#474F62"/>
<circle cx="190.5" cy="82.5" r="52" fill="white" stroke="#FFDB18"/>
<g clip-path="url(#clip0_0_5340)">
<path d="M211.877 110H164.611C163.721 110 163 109.279 163 108.389V70.791C163 69.9011 163.721 69.1797 164.611 69.1797H211.877C212.767 69.1797 213.488 69.9011 213.488 70.791V108.389C213.488 109.279 212.767 110 211.877 110Z" fill="#90E36A"/>
<path d="M211.877 69.1797H188.244V110H211.877C212.767 110 213.488 109.279 213.488 108.389V70.791C213.488 69.9011 212.767 69.1797 211.877 69.1797Z" fill="#58B454"/>
<path d="M188.244 108.926C187.817 108.926 187.407 108.756 187.105 108.454C183.945 105.295 179.745 103.555 175.277 103.555H171.057C170.167 103.555 169.445 102.833 169.445 101.943V66.4941C169.445 65.6043 170.167 64.8828 171.057 64.8828H177.871C181.702 64.8828 185.332 66.1973 188.244 68.6133C191.157 66.1973 194.786 64.8828 198.618 64.8828H205.432C206.322 64.8828 207.043 65.6043 207.043 66.4941V101.943C207.043 102.833 206.322 103.555 205.432 103.555H201.211C196.743 103.555 192.543 105.295 189.383 108.454C189.081 108.756 188.671 108.926 188.244 108.926Z" fill="#F9F9F9"/>
<path d="M189.383 108.454C192.543 105.295 196.743 103.555 201.211 103.555H205.432C206.322 103.555 207.043 102.833 207.043 101.943V66.4941C207.043 65.6043 206.322 64.8828 205.432 64.8828H198.618C194.786 64.8828 191.157 66.1973 188.244 68.6133V108.926C188.671 108.926 189.081 108.756 189.383 108.454Z" fill="#E2DFF4"/>
<path d="M181.799 76.6992H176.428C175.538 76.6992 174.816 75.9778 174.816 75.0879C174.816 74.198 175.538 73.4766 176.428 73.4766H181.799C182.689 73.4766 183.41 74.198 183.41 75.0879C183.41 75.9778 182.689 76.6992 181.799 76.6992Z" fill="#E2DFF4"/>
<path d="M181.799 83.1445H176.428C175.538 83.1445 174.816 82.4231 174.816 81.5332C174.816 80.6433 175.538 79.9219 176.428 79.9219H181.799C182.689 79.9219 183.41 80.6433 183.41 81.5332C183.41 82.4231 182.689 83.1445 181.799 83.1445Z" fill="#E2DFF4"/>
<path d="M181.799 89.5898H176.428C175.538 89.5898 174.816 88.8684 174.816 87.9785C174.816 87.0886 175.538 86.3672 176.428 86.3672H181.799C182.689 86.3672 183.41 87.0886 183.41 87.9785C183.41 88.8684 182.689 89.5898 181.799 89.5898Z" fill="#E2DFF4"/>
<path d="M181.799 96.0352H176.428C175.538 96.0352 174.816 95.3137 174.816 94.4238C174.816 93.5339 175.538 92.8125 176.428 92.8125H181.799C182.689 92.8125 183.41 93.5339 183.41 94.4238C183.41 95.3137 182.689 96.0352 181.799 96.0352Z" fill="#E2DFF4"/>
<path d="M200.061 89.5898H194.689C193.8 89.5898 193.078 88.8684 193.078 87.9785C193.078 87.0886 193.8 86.3672 194.689 86.3672H200.061C200.95 86.3672 201.672 87.0886 201.672 87.9785C201.672 88.8684 200.95 89.5898 200.061 89.5898Z" fill="#D5D3EA"/>
<path d="M200.061 96.0352H194.689C193.8 96.0352 193.078 95.3137 193.078 94.4238C193.078 93.5339 193.8 92.8125 194.689 92.8125H200.061C200.95 92.8125 201.672 93.5339 201.672 94.4238C201.672 95.3137 200.95 96.0352 200.061 96.0352Z" fill="#D5D3EA"/>
<path d="M207.784 59.8992L193.352 74.3313L194.491 78.509L198.669 79.6484L213.101 65.2162L211.961 61.0385L207.784 59.8992Z" fill="#FF9100"/>
<path d="M211.961 61.0385L194.491 78.509L198.669 79.6483L213.101 65.2162L211.961 61.0385Z" fill="#FF4C04"/>
<path d="M193.352 74.3313C193.258 74.4244 193.177 74.5287 193.109 74.6416L188.552 82.2375C187.689 83.6759 189.324 85.3113 190.763 84.4483L198.358 79.8908C198.471 79.823 198.576 79.7416 198.669 79.6485L193.352 74.3313Z" fill="#FFF2DE"/>
<path d="M216.899 61.4182C218.367 59.95 218.367 57.5694 216.899 56.1012C215.431 54.6329 213.05 54.6329 211.582 56.1012L207.784 59.8992L213.101 65.2162L216.899 61.4182Z" fill="#FFF36C"/>
<path d="M216.899 61.4183C218.367 59.95 218.367 57.5694 216.899 56.1012L210.442 62.5577L213.101 65.2163L216.899 61.4183Z" fill="#FFCD00"/>
<path d="M196.01 76.9897L188.794 84.2058C189.275 84.6865 190.043 84.8797 190.762 84.4482L198.358 79.8907C198.471 79.8229 198.576 79.7415 198.669 79.6483L196.01 76.9897Z" fill="#FFE4C2"/>
</g>
<path d="M122.304 172.198C121.835 172.198 121.453 172.088 121.16 171.868C120.867 171.633 120.632 171.281 120.456 170.812L116.012 158.316C115.821 157.759 115.858 157.282 116.122 156.886C116.401 156.49 116.877 156.292 117.552 156.292C118.021 156.292 118.381 156.402 118.63 156.622C118.894 156.842 119.107 157.187 119.268 157.656L122.898 168.458H121.952L125.78 157.678C125.956 157.209 126.169 156.864 126.418 156.644C126.682 156.409 127.027 156.292 127.452 156.292C127.863 156.292 128.193 156.409 128.442 156.644C128.691 156.864 128.904 157.216 129.08 157.7L132.732 168.458H131.918L135.614 157.656C135.761 157.201 135.966 156.864 136.23 156.644C136.494 156.409 136.853 156.292 137.308 156.292C137.88 156.292 138.298 156.49 138.562 156.886C138.826 157.282 138.855 157.759 138.65 158.316L134.162 170.834C134.001 171.289 133.781 171.633 133.502 171.868C133.223 172.088 132.842 172.198 132.358 172.198C131.889 172.198 131.515 172.088 131.236 171.868C130.957 171.633 130.73 171.281 130.554 170.812L127.078 160.978H127.606L124.086 170.834C123.91 171.289 123.683 171.633 123.404 171.868C123.14 172.088 122.773 172.198 122.304 172.198ZM141.346 172.198C140.788 172.198 140.363 172.051 140.07 171.758C139.776 171.465 139.63 171.047 139.63 170.504V162.694C139.63 162.151 139.769 161.741 140.048 161.462C140.341 161.169 140.744 161.022 141.258 161.022C141.786 161.022 142.189 161.169 142.468 161.462C142.746 161.741 142.886 162.151 142.886 162.694V163.838H142.666C142.842 162.958 143.23 162.276 143.832 161.792C144.433 161.308 145.21 161.037 146.164 160.978C146.53 160.949 146.809 161.044 147 161.264C147.205 161.469 147.315 161.814 147.33 162.298C147.359 162.753 147.264 163.112 147.044 163.376C146.838 163.64 146.486 163.801 145.988 163.86L145.482 163.904C144.646 163.977 144.022 164.219 143.612 164.63C143.216 165.041 143.018 165.635 143.018 166.412V170.504C143.018 171.047 142.871 171.465 142.578 171.758C142.299 172.051 141.888 172.198 141.346 172.198ZM150.368 172.176C149.825 172.176 149.407 172.022 149.114 171.714C148.835 171.391 148.696 170.944 148.696 170.372V162.848C148.696 162.261 148.835 161.814 149.114 161.506C149.407 161.183 149.825 161.022 150.368 161.022C150.896 161.022 151.299 161.183 151.578 161.506C151.871 161.814 152.018 162.261 152.018 162.848V170.372C152.018 170.944 151.879 171.391 151.6 171.714C151.321 172.022 150.911 172.176 150.368 172.176ZM150.368 159.218C149.752 159.218 149.275 159.079 148.938 158.8C148.615 158.507 148.454 158.096 148.454 157.568C148.454 157.025 148.615 156.615 148.938 156.336C149.275 156.043 149.752 155.896 150.368 155.896C150.984 155.896 151.453 156.043 151.776 156.336C152.099 156.615 152.26 157.025 152.26 157.568C152.26 158.096 152.099 158.507 151.776 158.8C151.453 159.079 150.984 159.218 150.368 159.218ZM159.885 172.242C158.873 172.242 158.022 172.073 157.333 171.736C156.658 171.399 156.152 170.907 155.815 170.262C155.492 169.617 155.331 168.803 155.331 167.82V163.684H154.407C153.996 163.684 153.673 163.574 153.439 163.354C153.219 163.134 153.109 162.833 153.109 162.452C153.109 162.041 153.219 161.733 153.439 161.528C153.673 161.308 153.996 161.198 154.407 161.198H155.331V159.526C155.331 158.969 155.477 158.551 155.771 158.272C156.064 157.979 156.475 157.832 157.003 157.832C157.545 157.832 157.956 157.979 158.235 158.272C158.513 158.551 158.653 158.969 158.653 159.526V161.198H160.743C161.153 161.198 161.469 161.308 161.689 161.528C161.909 161.733 162.019 162.041 162.019 162.452C162.019 162.833 161.909 163.134 161.689 163.354C161.469 163.574 161.153 163.684 160.743 163.684H158.653V167.688C158.653 168.304 158.792 168.766 159.071 169.074C159.364 169.382 159.826 169.536 160.457 169.536C160.677 169.536 160.882 169.514 161.073 169.47C161.263 169.426 161.439 169.397 161.601 169.382C161.806 169.367 161.975 169.433 162.107 169.58C162.239 169.712 162.305 170.013 162.305 170.482C162.305 170.834 162.246 171.142 162.129 171.406C162.011 171.67 161.806 171.861 161.513 171.978C161.322 172.051 161.058 172.11 160.721 172.154C160.398 172.213 160.119 172.242 159.885 172.242ZM165.493 172.176C164.95 172.176 164.532 172.022 164.239 171.714C163.96 171.391 163.821 170.944 163.821 170.372V162.848C163.821 162.261 163.96 161.814 164.239 161.506C164.532 161.183 164.95 161.022 165.493 161.022C166.021 161.022 166.424 161.183 166.703 161.506C166.996 161.814 167.143 162.261 167.143 162.848V170.372C167.143 170.944 167.004 171.391 166.725 171.714C166.446 172.022 166.036 172.176 165.493 172.176ZM165.493 159.218C164.877 159.218 164.4 159.079 164.063 158.8C163.74 158.507 163.579 158.096 163.579 157.568C163.579 157.025 163.74 156.615 164.063 156.336C164.4 156.043 164.877 155.896 165.493 155.896C166.109 155.896 166.578 156.043 166.901 156.336C167.224 156.615 167.385 157.025 167.385 157.568C167.385 158.096 167.224 158.507 166.901 158.8C166.578 159.079 166.109 159.218 165.493 159.218ZM171.38 172.198C170.837 172.198 170.419 172.051 170.126 171.758C169.847 171.465 169.708 171.047 169.708 170.504V162.694C169.708 162.151 169.847 161.741 170.126 161.462C170.419 161.169 170.822 161.022 171.336 161.022C171.864 161.022 172.267 161.169 172.546 161.462C172.824 161.741 172.964 162.151 172.964 162.694V163.948L172.722 163.222C173.059 162.503 173.558 161.953 174.218 161.572C174.892 161.176 175.655 160.978 176.506 160.978C177.371 160.978 178.082 161.147 178.64 161.484C179.197 161.807 179.615 162.305 179.894 162.98C180.172 163.64 180.312 164.483 180.312 165.51V170.504C180.312 171.047 180.165 171.465 179.872 171.758C179.593 172.051 179.182 172.198 178.64 172.198C178.112 172.198 177.701 172.051 177.408 171.758C177.129 171.465 176.99 171.047 176.99 170.504V165.664C176.99 164.916 176.85 164.381 176.572 164.058C176.308 163.721 175.897 163.552 175.34 163.552C174.636 163.552 174.071 163.772 173.646 164.212C173.235 164.652 173.03 165.239 173.03 165.972V170.504C173.03 171.633 172.48 172.198 171.38 172.198ZM187.984 176.202C187.192 176.202 186.429 176.136 185.696 176.004C184.977 175.872 184.339 175.674 183.782 175.41C183.444 175.263 183.202 175.073 183.056 174.838C182.924 174.603 182.865 174.354 182.88 174.09C182.909 173.826 182.997 173.591 183.144 173.386C183.305 173.181 183.503 173.034 183.738 172.946C183.972 172.873 184.222 172.895 184.486 173.012C185.131 173.305 185.725 173.496 186.268 173.584C186.825 173.672 187.302 173.716 187.698 173.716C188.636 173.716 189.34 173.503 189.81 173.078C190.279 172.653 190.514 172 190.514 171.12V169.448H190.712C190.492 170.123 190.037 170.673 189.348 171.098C188.658 171.523 187.896 171.736 187.06 171.736C186.092 171.736 185.248 171.516 184.53 171.076C183.811 170.621 183.254 169.991 182.858 169.184C182.462 168.363 182.264 167.417 182.264 166.346C182.264 165.539 182.374 164.806 182.594 164.146C182.828 163.486 183.151 162.921 183.562 162.452C183.987 161.983 184.493 161.623 185.08 161.374C185.681 161.11 186.341 160.978 187.06 160.978C187.925 160.978 188.688 161.191 189.348 161.616C190.022 162.027 190.47 162.569 190.69 163.244L190.47 163.948V162.694C190.47 162.151 190.609 161.741 190.888 161.462C191.181 161.169 191.592 161.022 192.12 161.022C192.648 161.022 193.051 161.169 193.33 161.462C193.608 161.741 193.748 162.151 193.748 162.694V170.746C193.748 172.55 193.249 173.907 192.252 174.816C191.269 175.74 189.846 176.202 187.984 176.202ZM188.05 169.25C188.548 169.25 188.974 169.133 189.326 168.898C189.692 168.663 189.978 168.333 190.184 167.908C190.389 167.468 190.492 166.947 190.492 166.346C190.492 165.437 190.264 164.733 189.81 164.234C189.37 163.721 188.783 163.464 188.05 163.464C187.551 163.464 187.118 163.581 186.752 163.816C186.385 164.036 186.099 164.366 185.894 164.806C185.703 165.231 185.608 165.745 185.608 166.346C185.608 167.255 185.828 167.967 186.268 168.48C186.708 168.993 187.302 169.25 188.05 169.25ZM204.539 172C203.967 172 203.527 171.846 203.219 171.538C202.911 171.23 202.757 170.79 202.757 170.218V158.272C202.757 157.7 202.911 157.26 203.219 156.952C203.527 156.644 203.967 156.49 204.539 156.49H209.863C210.963 156.49 211.902 156.651 212.679 156.974C213.457 157.297 214.043 157.759 214.439 158.36C214.85 158.961 215.055 159.68 215.055 160.516C215.055 161.44 214.791 162.225 214.263 162.87C213.735 163.515 213.009 163.948 212.085 164.168V163.816C213.156 164.007 213.985 164.432 214.571 165.092C215.173 165.737 215.473 166.581 215.473 167.622C215.473 169.001 214.997 170.079 214.043 170.856C213.09 171.619 211.777 172 210.105 172H204.539ZM206.013 169.47H209.643C210.523 169.47 211.169 169.301 211.579 168.964C211.99 168.612 212.195 168.099 212.195 167.424C212.195 166.749 211.99 166.243 211.579 165.906C211.169 165.569 210.523 165.4 209.643 165.4H206.013V169.47ZM206.013 162.87H209.269C210.12 162.87 210.751 162.709 211.161 162.386C211.572 162.063 211.777 161.579 211.777 160.934C211.777 160.303 211.572 159.827 211.161 159.504C210.751 159.181 210.12 159.02 209.269 159.02H206.013V162.87ZM222.96 172.242C221.802 172.242 220.79 172.015 219.924 171.56C219.074 171.105 218.414 170.453 217.944 169.602C217.475 168.751 217.24 167.747 217.24 166.588C217.24 165.723 217.372 164.945 217.636 164.256C217.9 163.567 218.282 162.98 218.78 162.496C219.294 161.997 219.902 161.623 220.606 161.374C221.31 161.11 222.095 160.978 222.96 160.978C224.119 160.978 225.124 161.205 225.974 161.66C226.84 162.115 227.507 162.76 227.976 163.596C228.46 164.432 228.702 165.429 228.702 166.588C228.702 167.468 228.563 168.253 228.284 168.942C228.02 169.631 227.639 170.225 227.14 170.724C226.642 171.223 226.033 171.604 225.314 171.868C224.61 172.117 223.826 172.242 222.96 172.242ZM222.96 169.756C223.444 169.756 223.862 169.639 224.214 169.404C224.566 169.169 224.845 168.825 225.05 168.37C225.256 167.901 225.358 167.307 225.358 166.588C225.358 165.517 225.138 164.733 224.698 164.234C224.258 163.721 223.679 163.464 222.96 163.464C222.491 163.464 222.073 163.574 221.706 163.794C221.354 164.014 221.076 164.359 220.87 164.828C220.68 165.283 220.584 165.869 220.584 166.588C220.584 167.659 220.804 168.458 221.244 168.986C221.684 169.499 222.256 169.756 222.96 169.756ZM235.915 172.242C234.757 172.242 233.745 172.015 232.879 171.56C232.029 171.105 231.369 170.453 230.899 169.602C230.43 168.751 230.195 167.747 230.195 166.588C230.195 165.723 230.327 164.945 230.591 164.256C230.855 163.567 231.237 162.98 231.735 162.496C232.249 161.997 232.857 161.623 233.561 161.374C234.265 161.11 235.05 160.978 235.915 160.978C237.074 160.978 238.079 161.205 238.929 161.66C239.795 162.115 240.462 162.76 240.931 163.596C241.415 164.432 241.657 165.429 241.657 166.588C241.657 167.468 241.518 168.253 241.239 168.942C240.975 169.631 240.594 170.225 240.095 170.724C239.597 171.223 238.988 171.604 238.269 171.868C237.565 172.117 236.781 172.242 235.915 172.242ZM235.915 169.756C236.399 169.756 236.817 169.639 237.169 169.404C237.521 169.169 237.8 168.825 238.005 168.37C238.211 167.901 238.313 167.307 238.313 166.588C238.313 165.517 238.093 164.733 237.653 164.234C237.213 163.721 236.634 163.464 235.915 163.464C235.446 163.464 235.028 163.574 234.661 163.794C234.309 164.014 234.031 164.359 233.825 164.828C233.635 165.283 233.539 165.869 233.539 166.588C233.539 167.659 233.759 168.458 234.199 168.986C234.639 169.499 235.211 169.756 235.915 169.756ZM245.35 172.198C244.808 172.198 244.39 172.051 244.096 171.758C243.818 171.465 243.678 171.047 243.678 170.504V157.986C243.678 157.429 243.818 157.011 244.096 156.732C244.39 156.439 244.808 156.292 245.35 156.292C245.878 156.292 246.282 156.439 246.56 156.732C246.854 157.011 247 157.429 247 157.986V165.664H247.044L250.234 162.122C250.557 161.755 250.85 161.484 251.114 161.308C251.393 161.117 251.76 161.022 252.214 161.022C252.669 161.022 253.014 161.139 253.248 161.374C253.498 161.609 253.622 161.895 253.622 162.232C253.637 162.555 253.498 162.885 253.204 163.222L249.838 166.984V165.73L253.578 170.042C253.857 170.379 253.974 170.717 253.93 171.054C253.901 171.391 253.754 171.67 253.49 171.89C253.226 172.095 252.889 172.198 252.478 172.198C251.98 172.198 251.576 172.103 251.268 171.912C250.975 171.721 250.674 171.428 250.366 171.032L247.044 167.336H247V170.504C247 171.633 246.45 172.198 245.35 172.198ZM259.932 172.242C259.286 172.242 258.619 172.183 257.93 172.066C257.255 171.949 256.639 171.751 256.082 171.472C255.788 171.325 255.576 171.142 255.444 170.922C255.326 170.687 255.275 170.453 255.29 170.218C255.304 169.983 255.378 169.771 255.51 169.58C255.656 169.389 255.84 169.265 256.06 169.206C256.294 169.133 256.551 169.155 256.83 169.272C257.431 169.521 257.981 169.697 258.48 169.8C258.978 169.903 259.47 169.954 259.954 169.954C260.584 169.954 261.039 169.859 261.318 169.668C261.611 169.463 261.758 169.199 261.758 168.876C261.758 168.583 261.662 168.363 261.472 168.216C261.281 168.069 261.002 167.967 260.636 167.908L258.326 167.49C257.416 167.329 256.712 166.999 256.214 166.5C255.73 165.987 255.488 165.334 255.488 164.542C255.488 163.809 255.693 163.178 256.104 162.65C256.514 162.107 257.079 161.697 257.798 161.418C258.531 161.125 259.36 160.978 260.284 160.978C260.944 160.978 261.552 161.037 262.11 161.154C262.667 161.271 263.202 161.462 263.716 161.726C263.98 161.858 264.163 162.034 264.266 162.254C264.383 162.474 264.42 162.701 264.376 162.936C264.346 163.171 264.258 163.383 264.112 163.574C263.965 163.765 263.774 163.889 263.54 163.948C263.32 164.007 263.063 163.977 262.77 163.86C262.3 163.64 261.868 163.486 261.472 163.398C261.076 163.295 260.694 163.244 260.328 163.244C259.668 163.244 259.191 163.354 258.898 163.574C258.604 163.779 258.458 164.043 258.458 164.366C258.458 164.615 258.538 164.828 258.7 165.004C258.876 165.165 259.14 165.275 259.492 165.334L261.802 165.752C262.755 165.913 263.481 166.236 263.98 166.72C264.478 167.189 264.728 167.835 264.728 168.656C264.728 169.771 264.288 170.651 263.408 171.296C262.542 171.927 261.384 172.242 259.932 172.242Z" fill="#04004D"/>
<defs>
<clipPath id="clip0_0_5340">
<rect width="55" height="55" fill="white" transform="translate(163 55)"/>
</clipPath>
</defs>
</svg>
