<svg width="114" height="118" viewBox="0 0 114 118" fill="none" xmlns="http://www.w3.org/2000/svg">
<path d="M56.9886 83.0249C61.4405 83.0249 65.1883 86.0913 66.2104 90.2252H47.7669C48.789 86.0913 52.5368 83.0249 56.9886 83.0249ZM52.7866 60.9472L56.9886 58.8576L61.1907 60.9472V81.4804C59.8733 80.9807 58.465 80.7081 56.9886 80.7081C55.5123 80.7081 54.0813 80.9807 52.7866 81.4804V60.9472ZM24.4172 86.1367C24.4172 86.1367 29.7776 86.6818 32.0717 85.955C32.0717 85.955 9.9486 86.0913 4.79259 67.6478C4.79259 67.6478 10.1757 71.4637 12.8559 71.5772C12.8559 71.5772 0.499701 65.0357 0 48.7727C0 48.7727 9.35804 60.4021 15.3317 62.9687C15.3317 62.9687 -5.38314 50.5444 2.36222 24.8098C2.36222 24.8098 8.9719 54.7237 33.6844 65.5581C37.4322 67.1935 40.4985 70.1008 42.3837 73.7577L48.0622 84.8193C46.7675 86.3411 45.8362 88.1809 45.4274 90.2025H43.6557C40.4304 90.2025 37.7274 92.4511 37.046 95.472C32.4124 94.7452 27.688 92.2467 24.4172 86.1367ZM83.6999 110.895C83.6999 114.279 80.9516 117.027 77.5672 117.027H36.3873C33.003 117.027 30.2773 114.279 30.2773 110.895C30.2773 107.51 33.0257 104.762 36.3873 104.762H77.5672C80.9516 104.785 83.6999 107.533 83.6999 110.895ZM39.1811 102.468V96.9939C39.1811 94.5408 41.1799 92.542 43.633 92.542H70.3443C72.7974 92.542 74.7962 94.5408 74.7962 96.9939V102.468H39.1811ZM81.9056 85.9777C84.1769 86.6818 89.5601 86.1594 89.5601 86.1594C86.312 92.2467 81.5876 94.7679 76.954 95.5175C76.2726 92.4965 73.5696 90.2479 70.3443 90.2479H68.5726C68.1638 88.2264 67.2325 86.3638 65.9378 84.8647L71.6163 73.8032C73.4788 70.1463 76.5451 67.2616 80.3156 65.6035C105.005 54.7691 111.638 24.8552 111.638 24.8552C119.383 50.5898 98.6683 63.0142 98.6683 63.0142C104.642 60.4702 114 48.8181 114 48.8181C113.523 65.0811 101.144 71.6227 101.144 71.6227C103.824 71.5091 109.207 67.6932 109.207 67.6932C104.006 86.114 81.9056 85.9777 81.9056 85.9777Z" fill="url(#paint0_linear_0_3465)"/>
<path d="M31.0008 36.3387C35.8945 38.3474 39.7665 41.5875 42.1396 45.2598C42.6365 46.0288 41.8871 47.8543 40.9932 48.0525C36.7243 48.9982 31.6927 48.5834 26.799 46.5744C21.9053 44.5654 18.0332 41.3256 15.6602 37.6532C15.1632 36.8843 15.9126 35.0586 16.8066 34.8606C21.0752 33.9149 26.1071 34.3299 31.0008 36.3387Z" fill="url(#paint1_linear_0_3465)"/>
<path d="M31.0008 36.3387C35.8945 38.3474 39.7665 41.5875 42.1396 45.2598C42.6365 46.0288 41.8871 47.8543 40.9932 48.0525C36.7243 48.9982 31.6927 48.5834 26.799 46.5744C21.9053 44.5654 18.0332 41.3256 15.6602 37.6532C15.1632 36.8843 15.9126 35.0586 16.8066 34.8606C21.0752 33.9149 26.1071 34.3299 31.0008 36.3387Z" fill="url(#paint2_linear_0_3465)"/>
<path d="M33.4897 29.3996C38.2823 33.1981 41.5458 38.0369 43.006 42.876C43.3118 43.8895 41.8949 45.6772 40.8384 45.611C35.7938 45.2946 30.3374 43.2224 25.5449 39.424C20.7523 35.6255 17.4888 30.7867 16.0285 25.9476C15.7228 24.9341 17.1397 23.1464 18.1962 23.2127C23.2408 23.5293 28.6972 25.6012 33.4897 29.3996Z" fill="url(#paint3_linear_0_3465)"/>
<path d="M33.4897 29.3996C38.2823 33.1981 41.5458 38.0369 43.006 42.876C43.3118 43.8895 41.8949 45.6772 40.8384 45.611C35.7938 45.2946 30.3374 43.2224 25.5449 39.424C20.7523 35.6255 17.4888 30.7867 16.0285 25.9476C15.7228 24.9341 17.1397 23.1464 18.1962 23.2127C23.2408 23.5293 28.6972 25.6012 33.4897 29.3996Z" fill="url(#paint4_linear_0_3465)"/>
<path d="M38.3275 18.7062C42.5268 25.152 44.4864 32.2281 44.295 38.5838C44.2549 39.9149 41.8502 41.4813 40.6166 40.9803C34.7255 38.5873 29.0446 33.9356 24.8453 27.4898C20.646 21.044 18.6865 13.9679 18.8779 7.61217C18.918 6.28112 21.3226 4.71467 22.5562 5.2157C28.4473 7.60869 34.1282 12.2604 38.3275 18.7062Z" fill="url(#paint5_linear_0_3465)"/>
<path d="M19.5942 15.0832C20.4963 19.2463 22.2389 23.4891 24.8452 27.4897C29.0445 33.9355 34.7252 38.5872 40.6165 40.9802C41.8503 41.4814 44.2547 39.9148 44.2948 38.5837C44.4864 32.228 42.5269 25.1519 38.3274 18.7061C35.8545 14.9106 32.8679 11.7377 29.6273 9.28119L19.5942 15.0832Z" fill="url(#paint6_linear_0_3465)"/>
<path d="M82.7994 36.3386C77.9057 38.3474 74.0337 41.5875 71.6606 45.2598C71.1637 46.0288 71.9131 47.8543 72.807 48.0525C77.0759 48.9982 82.1075 48.5833 87.0012 46.5744C91.8949 44.5654 95.767 41.3255 98.14 37.6532C98.637 36.8842 97.8876 35.0585 96.9936 34.8605C92.725 33.9148 87.6931 34.3298 82.7994 36.3386Z" fill="url(#paint7_linear_0_3465)"/>
<path d="M82.7994 36.3386C77.9057 38.3474 74.0337 41.5875 71.6606 45.2598C71.1637 46.0288 71.9131 47.8543 72.807 48.0525C77.0759 48.9982 82.1075 48.5833 87.0012 46.5744C91.8949 44.5654 95.767 41.3255 98.14 37.6532C98.637 36.8842 97.8876 35.0585 96.9936 34.8605C92.725 33.9148 87.6931 34.3298 82.7994 36.3386Z" fill="url(#paint8_linear_0_3465)"/>
<path d="M80.31 29.3996C75.5175 33.198 72.254 38.0369 70.7937 42.876C70.488 43.8895 71.9048 45.6772 72.9613 45.6109C78.006 45.2945 83.4623 43.2224 88.2549 39.424C93.0474 35.6255 96.3109 30.7866 97.7712 25.9476C98.077 24.9341 96.6601 23.1464 95.6036 23.2126C90.5589 23.5292 85.1026 25.6012 80.31 29.3996Z" fill="url(#paint9_linear_0_3465)"/>
<path d="M80.31 29.3996C75.5175 33.198 72.254 38.0369 70.7937 42.876C70.488 43.8895 71.9048 45.6772 72.9613 45.6109C78.006 45.2945 83.4623 43.2224 88.2549 39.424C93.0474 35.6255 96.3109 30.7866 97.7712 25.9476C98.077 24.9341 96.6601 23.1464 95.6036 23.2126C90.5589 23.5292 85.1026 25.6012 80.31 29.3996Z" fill="url(#paint10_linear_0_3465)"/>
<path d="M75.4728 18.7062C71.2735 25.152 69.3139 32.2281 69.5053 38.5838C69.5454 39.9149 71.9501 41.4813 73.1837 40.9803C79.0748 38.5873 84.7557 33.9356 88.955 27.4898C93.1543 21.044 95.1138 13.9679 94.9224 7.61217C94.8823 6.28112 92.4777 4.71467 91.2441 5.2157C85.353 7.60869 79.6721 12.2604 75.4728 18.7062Z" fill="url(#paint11_linear_0_3465)"/>
<path d="M94.2061 15.0831C93.3041 19.2462 91.5615 23.4891 88.9552 27.4896C84.7559 33.9354 79.0752 38.5872 73.1839 40.9801C71.9501 41.4814 69.5456 39.9147 69.5055 38.5837C69.3139 32.2279 71.2735 25.1519 75.473 18.7061C77.9458 14.9105 80.9324 11.7377 84.1731 9.28116L94.2061 15.0831Z" fill="url(#paint12_linear_0_3465)"/>
<path d="M56.9003 62.1792C73.9168 62.1792 87.7114 48.3846 87.7114 31.3682C87.7114 14.3517 73.9168 0.557129 56.9003 0.557129C39.8839 0.557129 26.0893 14.3517 26.0893 31.3682C26.0893 48.3846 39.8839 62.1792 56.9003 62.1792Z" fill="url(#paint13_linear_0_3465)"/>
<path d="M56.9001 55.9268C70.4634 55.9268 81.4587 44.9315 81.4587 31.3682C81.4587 17.8049 70.4634 6.80963 56.9001 6.80963C43.3367 6.80963 32.3415 17.8049 32.3415 31.3682C32.3415 44.9315 43.3367 55.9268 56.9001 55.9268Z" fill="url(#paint14_linear_0_3465)"/>
<path d="M56.9002 52.4518C68.5444 52.4518 77.9839 43.0123 77.9839 31.3681C77.9839 19.7239 68.5444 10.2844 56.9002 10.2844C45.256 10.2844 35.8165 19.7239 35.8165 31.3681C35.8165 43.0123 45.256 52.4518 56.9002 52.4518Z" fill="url(#paint15_linear_0_3465)"/>
<path d="M26.0892 31.368C26.0892 48.3845 39.8837 62.179 56.9003 62.179C73.9168 62.179 87.7113 48.3845 87.7113 31.368C87.7113 31.2485 87.7082 31.1297 87.7068 31.0103H26.0937C26.0923 31.1297 26.0892 31.2485 26.0892 31.368Z" fill="url(#paint16_linear_0_3465)"/>
<path d="M65.4967 60.9752C75.1965 58.144 82.9151 50.6648 86.0845 41.1072L71.0916 26.1018L67.7116 26.2678L58.5892 17.1378L47.4712 42.9347L65.4967 60.9752Z" fill="url(#paint17_linear_0_3465)"/>
<path d="M69.5341 24.6732L63.4916 23.2133C62.9296 23.0775 62.4384 22.7367 62.1143 22.2577L58.6311 17.1089C58.2097 16.4862 57.5643 16.1519 56.9001 16.0981C56.236 16.1519 55.5904 16.4862 55.1692 17.1089L51.686 22.2577C51.362 22.7367 50.8709 23.0775 50.3086 23.2133L44.2662 24.6732C42.6271 25.0692 41.9441 27.0255 42.9803 28.3558L46.8008 33.2595C47.1561 33.7158 47.3286 34.2882 47.284 34.8647L46.8052 41.0626C46.6754 42.7437 48.3248 43.9981 49.9103 43.4234L55.7547 41.3053C56.124 41.1715 56.5179 41.137 56.9001 41.1963C57.2826 41.1372 57.6763 41.1716 58.0456 41.3053L63.89 43.4234C65.4752 43.9979 67.1248 42.7437 66.995 41.0626L66.5162 34.8647C66.4717 34.2882 66.6441 33.7158 66.9995 33.2595L70.82 28.3558C71.8561 27.0255 71.1732 25.0692 69.5341 24.6732Z" fill="url(#paint18_linear_0_3465)"/>
<path d="M58.0458 41.3053L63.8902 43.4233C65.4755 43.9978 67.1251 42.7437 66.9953 41.0625L66.5165 34.8647C66.4719 34.2881 66.6444 33.7158 66.9997 33.2595L70.8202 28.3557C71.8566 27.0256 71.1734 25.0692 69.5343 24.6731L63.4919 23.2132C62.9298 23.0774 62.4387 22.7366 62.1145 22.2577L58.6313 17.1088C58.2099 16.4861 57.5646 16.1519 56.9004 16.098V41.1962C57.2828 41.1369 57.6767 41.1714 58.0458 41.3053Z" fill="url(#paint19_linear_0_3465)"/>
<path d="M69.534 24.6732L63.4916 23.2133C63.2853 23.1635 63.0888 23.0855 62.9065 22.9837L47.5031 42.9075C48.1074 43.4914 49.019 43.7466 49.9102 43.4236L55.7547 41.3056C56.1239 41.1717 56.5178 41.1372 56.9001 41.1965C57.2826 41.1374 57.6762 41.1719 58.0455 41.3056L63.89 43.4236C65.4752 43.9981 67.1248 42.7439 66.995 41.0628L66.5162 34.865C66.4716 34.2884 66.6441 33.716 66.9994 33.2598L70.8199 28.356C71.8561 27.0255 71.1732 25.0692 69.534 24.6732Z" fill="url(#paint20_linear_0_3465)"/>
<path d="M44.2662 24.6732L50.3087 23.2133C50.515 23.1635 50.7115 23.0855 50.8938 22.9837L66.2972 42.9075C65.6929 43.4914 64.7813 43.7466 63.89 43.4236L58.0456 41.3056C57.6763 41.1717 57.2824 41.1372 56.9002 41.1965C56.5177 41.1374 56.124 41.1719 55.7547 41.3056L49.9103 43.4236C48.3251 43.9981 46.6755 42.7439 46.8053 41.0628L47.2841 34.865C47.3286 34.2884 47.1562 33.716 46.8008 33.2598L42.9803 28.356C41.9442 27.0255 42.6271 25.0692 44.2662 24.6732Z" fill="url(#paint21_linear_0_3465)"/>
<path d="M42.6575 26.0733C42.3701 26.798 42.4391 27.6615 42.9799 28.3557L46.8004 33.2595C47.1557 33.7157 47.3282 34.2881 47.2836 34.8647L46.8048 41.0625C46.675 42.7436 48.3244 43.998 49.9099 43.4233L55.7543 41.3053C56.1236 41.1714 56.5175 41.1369 56.8997 41.1962C57.2822 41.1371 57.6759 41.1716 58.0452 41.3053L63.8896 43.4233C65.4748 43.9978 67.1244 42.7436 66.9946 41.0625L66.5158 34.8647C66.491 34.5448 66.5354 34.2268 66.6385 33.9287L42.6575 26.0733Z" fill="url(#paint22_linear_0_3465)"/>
<path d="M71.1449 26.0733C71.4322 26.798 71.3635 27.6615 70.8225 28.3557L67.002 33.2595C66.6467 33.7157 66.4742 34.2881 66.5188 34.8647L66.9975 41.0625C67.1273 42.7436 65.4778 43.998 63.8925 43.4233L58.0481 41.3053C57.6788 41.1714 57.2849 41.1369 56.9027 41.1962C56.5202 41.1371 56.1265 41.1716 55.7572 41.3053L49.9128 43.4233C48.3275 43.9978 46.678 42.7436 46.8078 41.0625L47.2865 34.8647C47.3113 34.5448 47.267 34.2268 47.1639 33.9287L71.1449 26.0733Z" fill="url(#paint23_linear_0_3465)"/>
<defs>
<linearGradient id="paint0_linear_0_3465" x1="67.8818" y1="10.4026" x2="51.4654" y2="114.029" gradientUnits="userSpaceOnUse">
<stop stop-color="#E6E6E6"/>
<stop offset="0.1261" stop-color="#E6E6E6"/>
<stop offset="0.3306" stop-color="#E6E6E6"/>
<stop offset="0.5881" stop-color="#9C9C9C"/>
<stop offset="0.8857" stop-color="#7F9FA9"/>
<stop offset="1" stop-color="#789AA4"/>
</linearGradient>
<linearGradient id="paint1_linear_0_3465" x1="25.3697" y1="32.2258" x2="28.8738" y2="41.3545" gradientUnits="userSpaceOnUse">
<stop stop-color="#E6E6E6"/>
<stop offset="1" stop-color="#999999"/>
</linearGradient>
<linearGradient id="paint2_linear_0_3465" x1="23.5547" y1="36.9954" x2="31.2173" y2="43.3636" gradientUnits="userSpaceOnUse">
<stop stop-color="#766E6E" stop-opacity="0"/>
<stop offset="0.2806" stop-color="#716B6B" stop-opacity="0.281"/>
<stop offset="0.5705" stop-color="#656060" stop-opacity="0.571"/>
<stop offset="0.8636" stop-color="#514F4F" stop-opacity="0.864"/>
<stop offset="1" stop-color="#444444"/>
</linearGradient>
<linearGradient id="paint3_linear_0_3465" x1="21.4215" y1="24.1877" x2="28.7637" y2="33.4413" gradientUnits="userSpaceOnUse">
<stop stop-color="#E6E6E6"/>
<stop offset="1" stop-color="#999999"/>
</linearGradient>
<linearGradient id="paint4_linear_0_3465" x1="23.2281" y1="32.8274" x2="30.2052" y2="34.5708" gradientUnits="userSpaceOnUse">
<stop stop-color="#766E6E" stop-opacity="0"/>
<stop offset="0.2806" stop-color="#716B6B" stop-opacity="0.281"/>
<stop offset="0.5705" stop-color="#656060" stop-opacity="0.571"/>
<stop offset="0.8636" stop-color="#514F4F" stop-opacity="0.864"/>
<stop offset="1" stop-color="#444444"/>
</linearGradient>
<linearGradient id="paint5_linear_0_3465" x1="31.0773" y1="12.4777" x2="31.8389" y2="28.1668" gradientUnits="userSpaceOnUse">
<stop stop-color="#E6E6E6"/>
<stop offset="1" stop-color="#999999"/>
</linearGradient>
<linearGradient id="paint6_linear_0_3465" x1="29.9065" y1="20.5972" x2="34.4687" y2="27.3377" gradientUnits="userSpaceOnUse">
<stop stop-color="#766E6E" stop-opacity="0"/>
<stop offset="0.2806" stop-color="#716B6B" stop-opacity="0.281"/>
<stop offset="0.5705" stop-color="#656060" stop-opacity="0.571"/>
<stop offset="0.8636" stop-color="#514F4F" stop-opacity="0.864"/>
<stop offset="1" stop-color="#444444"/>
</linearGradient>
<linearGradient id="paint7_linear_0_3465" x1="88.4391" y1="32.2187" x2="84.9351" y2="41.3476" gradientUnits="userSpaceOnUse">
<stop stop-color="#E6E6E6"/>
<stop offset="1" stop-color="#999999"/>
</linearGradient>
<linearGradient id="paint8_linear_0_3465" x1="90.2544" y1="36.9882" x2="82.5917" y2="43.3564" gradientUnits="userSpaceOnUse">
<stop stop-color="#766E6E" stop-opacity="0"/>
<stop offset="0.2806" stop-color="#716B6B" stop-opacity="0.281"/>
<stop offset="0.5705" stop-color="#656060" stop-opacity="0.571"/>
<stop offset="0.8636" stop-color="#514F4F" stop-opacity="0.864"/>
<stop offset="1" stop-color="#444444"/>
</linearGradient>
<linearGradient id="paint9_linear_0_3465" x1="92.3871" y1="24.1805" x2="85.0448" y2="33.4343" gradientUnits="userSpaceOnUse">
<stop stop-color="#E6E6E6"/>
<stop offset="1" stop-color="#999999"/>
</linearGradient>
<linearGradient id="paint10_linear_0_3465" x1="90.5803" y1="32.8203" x2="83.6032" y2="34.5639" gradientUnits="userSpaceOnUse">
<stop stop-color="#766E6E" stop-opacity="0"/>
<stop offset="0.2806" stop-color="#716B6B" stop-opacity="0.281"/>
<stop offset="0.5705" stop-color="#656060" stop-opacity="0.571"/>
<stop offset="0.8636" stop-color="#514F4F" stop-opacity="0.864"/>
<stop offset="1" stop-color="#444444"/>
</linearGradient>
<linearGradient id="paint11_linear_0_3465" x1="82.7316" y1="12.4706" x2="81.9701" y2="28.1599" gradientUnits="userSpaceOnUse">
<stop stop-color="#E6E6E6"/>
<stop offset="1" stop-color="#999999"/>
</linearGradient>
<linearGradient id="paint12_linear_0_3465" x1="83.9025" y1="20.5901" x2="79.3405" y2="27.3306" gradientUnits="userSpaceOnUse">
<stop stop-color="#766E6E" stop-opacity="0"/>
<stop offset="0.2806" stop-color="#716B6B" stop-opacity="0.281"/>
<stop offset="0.5705" stop-color="#656060" stop-opacity="0.571"/>
<stop offset="0.8636" stop-color="#514F4F" stop-opacity="0.864"/>
<stop offset="1" stop-color="#444444"/>
</linearGradient>
<linearGradient id="paint13_linear_0_3465" x1="37.9041" y1="12.3719" x2="70.3988" y2="44.8666" gradientUnits="userSpaceOnUse">
<stop stop-color="#E6E6E6"/>
<stop offset="1" stop-color="#999999"/>
</linearGradient>
<linearGradient id="paint14_linear_0_3465" x1="72.8506" y1="47.3188" x2="40.4842" y2="14.9523" gradientUnits="userSpaceOnUse">
<stop stop-color="#E6E6E6"/>
<stop offset="1" stop-color="#999999"/>
</linearGradient>
<linearGradient id="paint15_linear_0_3465" x1="41.573" y1="16.0409" x2="66.8023" y2="41.2702" gradientUnits="userSpaceOnUse">
<stop stop-color="#E6E6E6"/>
<stop offset="1" stop-color="#999999"/>
</linearGradient>
<linearGradient id="paint16_linear_0_3465" x1="56.9003" y1="40.3827" x2="56.9003" y2="60.6062" gradientUnits="userSpaceOnUse">
<stop stop-color="#766E6E" stop-opacity="0"/>
<stop offset="0.2806" stop-color="#716B6B" stop-opacity="0.281"/>
<stop offset="0.5705" stop-color="#656060" stop-opacity="0.571"/>
<stop offset="0.8636" stop-color="#514F4F" stop-opacity="0.864"/>
<stop offset="1" stop-color="#444444"/>
</linearGradient>
<linearGradient id="paint17_linear_0_3465" x1="75.2997" y1="47.4079" x2="49.8648" y2="31.4115" gradientUnits="userSpaceOnUse">
<stop stop-color="#766E6E" stop-opacity="0"/>
<stop offset="0.2806" stop-color="#716B6B" stop-opacity="0.281"/>
<stop offset="0.5705" stop-color="#656060" stop-opacity="0.571"/>
<stop offset="0.8636" stop-color="#514F4F" stop-opacity="0.864"/>
<stop offset="1" stop-color="#444444"/>
</linearGradient>
<linearGradient id="paint18_linear_0_3465" x1="50.482" y1="25.5117" x2="62.0558" y2="37.0853" gradientUnits="userSpaceOnUse">
<stop stop-color="#F9F5F3"/>
<stop offset="1" stop-color="#D8E8F0"/>
</linearGradient>
<linearGradient id="paint19_linear_0_3465" x1="63.8352" y1="28.6673" x2="47.8388" y2="35.2803" gradientUnits="userSpaceOnUse">
<stop stop-color="#678D98" stop-opacity="0"/>
<stop offset="0.9957" stop-color="#678D98" stop-opacity="0.996"/>
<stop offset="1" stop-color="#678D98"/>
</linearGradient>
<linearGradient id="paint20_linear_0_3465" x1="59.6583" y1="34.3442" x2="50.9005" y2="30.5907" gradientUnits="userSpaceOnUse">
<stop stop-color="#678D98" stop-opacity="0"/>
<stop offset="0.9957" stop-color="#678D98" stop-opacity="0.996"/>
<stop offset="1" stop-color="#678D98"/>
</linearGradient>
<linearGradient id="paint21_linear_0_3465" x1="54.142" y1="34.3442" x2="62.8998" y2="30.5907" gradientUnits="userSpaceOnUse">
<stop stop-color="#678D98" stop-opacity="0"/>
<stop offset="0.9957" stop-color="#678D98" stop-opacity="0.996"/>
<stop offset="1" stop-color="#678D98"/>
</linearGradient>
<linearGradient id="paint22_linear_0_3465" x1="54.3362" y1="34.7833" x2="59.9662" y2="25.735" gradientUnits="userSpaceOnUse">
<stop stop-color="#678D98" stop-opacity="0"/>
<stop offset="0.9957" stop-color="#678D98" stop-opacity="0.996"/>
<stop offset="1" stop-color="#678D98"/>
</linearGradient>
<linearGradient id="paint23_linear_0_3465" x1="59.0321" y1="33.6406" x2="58.5631" y2="24.7934" gradientUnits="userSpaceOnUse">
<stop stop-color="#678D98" stop-opacity="0"/>
<stop offset="0.9957" stop-color="#678D98" stop-opacity="0.996"/>
<stop offset="1" stop-color="#678D98"/>
</linearGradient>
</defs>
</svg>
