<svg width="22" height="39" viewBox="0 0 22 39" fill="none" xmlns="http://www.w3.org/2000/svg">
<path d="M3.83422 7.41149C5.08158 6.04671 6.43756 4.78499 7.88887 3.6387C7.9265 3.60902 7.97253 3.59194 8.02044 3.58987C8.06834 3.58781 8.11568 3.60087 8.15572 3.62721C8.19576 3.65354 8.22648 3.6918 8.24349 3.73656C8.26051 3.78131 8.26296 3.83029 8.25051 3.87652C7.4308 6.88194 6.00066 9.85174 3.79468 12.0604C3.6882 10.5121 3.70142 8.95782 3.83422 7.41149Z" fill="#FF901D"/>
<path d="M3.79389 12.0608C2.539 10.5486 1.41684 8.93139 0.43985 7.227C0.415628 7.18437 0.37822 7.15071 0.333231 7.13109C0.288243 7.11146 0.238096 7.10692 0.190306 7.11815C0.142516 7.12937 0.0996548 7.15575 0.0681459 7.19334C0.036637 7.23093 0.0181768 7.27771 0.0155315 7.32665C-0.162393 10.8351 1.18048 14.9401 4.45159 16.5957C4.11817 15.1028 3.89831 13.5868 3.79389 12.0608Z" fill="#FF901D"/>
<path d="M4.45093 16.5947C5.23728 14.9677 6.15653 13.4081 7.19935 11.9318C7.2268 11.8932 7.26559 11.8641 7.31034 11.8486C7.3551 11.833 7.40359 11.8318 7.44909 11.845C7.49458 11.8583 7.53482 11.8853 7.5642 11.9224C7.59359 11.9595 7.61067 12.0049 7.61306 12.0521C7.74132 15.085 7.22009 18.2863 5.76583 20.9466C5.21988 19.5306 4.78036 18.0759 4.45093 16.5947Z" fill="#FF901D"/>
<path d="M5.76834 20.9475C4.13686 19.9011 2.59388 18.7232 1.15484 17.4255C1.11869 17.3927 1.07294 17.3725 1.02436 17.3677C0.975778 17.363 0.926954 17.374 0.885125 17.3991C0.843295 17.4242 0.810687 17.4621 0.792132 17.5072C0.773577 17.5523 0.770064 17.6021 0.782112 17.6493C1.65486 21.0004 4.15159 24.4372 7.70574 25.0467C6.95967 23.7298 6.31211 22.3597 5.76834 20.9475Z" fill="#FF901D"/>
<path d="M7.70428 25.0441C7.98537 23.2707 8.41374 21.5238 8.98496 19.8213C9.00016 19.7767 9.02885 19.7379 9.06706 19.7103C9.10527 19.6827 9.15112 19.6675 9.1983 19.667C9.24548 19.6665 9.29167 19.6806 9.33049 19.7073C9.36931 19.7341 9.39886 19.7722 9.41506 19.8165C10.4863 22.689 10.7658 25.7959 10.2242 28.813C9.29232 27.6204 8.45007 26.3607 7.70428 25.0441Z" fill="#FF901D"/>
<path d="M10.2257 28.8157C8.36479 28.2888 6.54906 27.6141 4.79591 26.7981C4.7518 26.7779 4.70236 26.7723 4.65484 26.7822C4.60732 26.7921 4.56423 26.8169 4.53187 26.853C4.49952 26.8891 4.47961 26.9347 4.47506 26.9829C4.47051 27.0312 4.48157 27.0796 4.5066 27.1211C6.32008 30.0736 9.71415 32.6299 13.291 32.1894C12.1864 31.1426 11.1618 30.0149 10.2257 28.8157Z" fill="#FF901D"/>
<path d="M13.2883 32.1901C13.03 30.4063 12.9245 28.6038 12.973 26.8022C12.9744 26.755 12.9905 26.7094 13.0189 26.6718C13.0474 26.6341 13.0869 26.6062 13.132 26.5919C13.1771 26.5776 13.2254 26.5777 13.2705 26.5921C13.3155 26.6065 13.3549 26.6345 13.3833 26.6722C15.2563 29.1307 16.4544 32.0345 16.8594 35.0968C15.597 34.2196 14.4032 33.2479 13.2883 32.1901Z" fill="#FF901D"/>
<path d="M21.2702 36.7468C19.906 36.0827 18.5951 35.3147 17.3491 34.4495C16.1242 33.5981 14.9656 32.6554 13.8832 31.6295C12.8111 30.6127 11.8163 29.5177 10.9071 28.3535C10.0024 27.1943 9.18429 25.9701 8.45959 24.6909C7.73607 23.4131 7.10755 22.0838 6.57909 20.714C6.04879 19.3387 5.62121 17.9261 5.29987 16.4877C4.97657 15.0383 4.763 13.5667 4.66098 12.0853C4.5579 10.5826 4.57048 9.07427 4.69859 7.57353C4.69859 7.55668 4.69859 7.53983 4.69859 7.52298C4.87015 5.33496 5.27094 3.17093 5.89439 1.06634C5.92987 0.96366 5.94414 0.854862 5.93633 0.74652C5.92853 0.638179 5.89881 0.53254 5.84898 0.435981C5.79916 0.339422 5.73024 0.253948 5.64641 0.184714C5.56258 0.115481 5.46557 0.0639254 5.36123 0.0331616C5.25688 0.00239784 5.14738 -0.00693616 5.03933 0.00572178C4.93127 0.0183797 4.82691 0.0527674 4.73253 0.10681C4.63816 0.160852 4.55573 0.233427 4.49023 0.320154C4.42473 0.406882 4.37751 0.505963 4.35142 0.611415C3.68895 2.84668 3.26549 5.1457 3.0881 7.47002C3.0881 7.48591 3.0881 7.50132 3.0881 7.51817C2.95987 9.07168 2.94859 10.6326 3.05435 12.1878C3.16154 13.7487 3.38622 15.2994 3.72651 16.8267C3.72651 16.8267 3.72651 16.8291 3.72651 16.8305C4.06469 18.3468 4.51499 19.8361 5.07372 21.2859C5.63057 22.7299 6.29294 24.131 7.05548 25.478C7.81896 26.8259 8.68069 28.1158 9.6337 29.3375C10.5912 30.5642 11.6389 31.7181 12.7679 32.7896C13.9095 33.8725 15.1317 34.8675 16.4238 35.7662C17.7377 36.6792 19.1202 37.4897 20.5589 38.1906C20.7508 38.2848 20.9722 38.2992 21.1747 38.2304C21.3771 38.1617 21.5439 38.0155 21.6383 37.824C21.7327 37.6325 21.7471 37.4113 21.6782 37.2092C21.6094 37.0071 21.4629 36.8406 21.2711 36.7463L21.2702 36.7468Z" fill="#F7BC14"/>
</svg>
