<svg width="90" height="81" viewBox="0 0 90 81" fill="none" xmlns="http://www.w3.org/2000/svg">
<path d="M80.3744 15.6516C80.3744 33.442 89.5898 45.6589 89.5898 54.2314C89.5898 62.8038 84.6619 80.8076 45.2257 80.8076C5.78953 80.8076 0 56.5873 0 47.1584C0 3.00521 80.3744 -15.8551 80.3744 15.6516Z" fill="#EFEFEF"/>
<g clip-path="url(#clip0_0_5465)">
<path d="M57.6976 73.4954H19.5775C14.0116 73.4954 9.49963 68.9834 9.49963 63.4175V17.9839C9.49963 12.418 14.0116 7.90601 19.5775 7.90601H57.6976C63.2635 7.90601 67.7755 12.418 67.7755 17.9839V63.4175C67.7755 68.9834 63.2635 73.4954 57.6976 73.4954Z" fill="white"/>
<path d="M24.3706 73.4959H19.5788C14.0111 73.4959 9.49976 68.9845 9.49976 63.4167V17.9838C9.49976 12.4181 14.0112 7.90668 19.5789 7.90668H24.3707C18.805 7.90668 14.2936 12.4181 14.2936 17.9838V63.4167C14.2934 68.9845 18.8048 73.4959 24.3706 73.4959Z" fill="#E4F6FF"/>
<path d="M47.202 5.89172C45.8497 2.48463 42.5262 0.0744629 38.6375 0.0744629C34.7489 0.0744629 31.4254 2.48477 30.0731 5.89172H26.8278C23.3457 5.89172 20.5229 8.71446 20.5229 12.1966C20.5229 15.6787 23.3457 18.5014 26.8278 18.5014H50.4473C53.9294 18.5014 56.7521 15.6787 56.7521 12.1966C56.7521 8.71446 53.9294 5.89172 50.4473 5.89172H47.202Z" fill="#FFE07D"/>
<path d="M41.6415 0.577113C39.1006 1.45086 37.0667 3.40615 36.0795 5.89132H32.8338C29.3518 5.89132 26.5285 8.71448 26.5285 12.1966C26.5285 13.9366 27.2353 15.5133 28.3761 16.6542C29.5169 17.797 31.0917 18.5018 32.8338 18.5018H26.8282C25.0882 18.5018 23.5115 17.797 22.3705 16.6542C21.2278 15.5135 20.5229 13.9366 20.5229 12.1966C20.5229 8.71462 23.3463 5.89132 26.8282 5.89132H30.0721C31.426 2.48422 34.7486 0.0739136 38.6377 0.0739136C39.6903 0.0739136 40.7004 0.250585 41.6415 0.577113Z" fill="#FFD064"/>
<path d="M38.6376 13.0576C40.7195 13.0576 42.4073 11.3698 42.4073 9.28783C42.4073 7.20585 40.7195 5.51807 38.6376 5.51807C36.5556 5.51807 34.8678 7.20585 34.8678 9.28783C34.8678 11.3698 36.5556 13.0576 38.6376 13.0576Z" fill="#365E7D"/>
<path d="M28.0837 40.196H21.6192C18.9424 40.196 16.7647 38.0183 16.7647 35.3416V28.877C16.7647 26.2002 18.9424 24.0225 21.6192 24.0225H28.0836C30.7604 24.0225 32.9381 26.2002 32.9381 28.877V35.3416C32.9382 38.0183 30.7605 40.196 28.0837 40.196ZM21.6192 26.2385C20.1642 26.2385 18.9807 27.4222 18.9807 28.877V35.3416C18.9807 36.7964 20.1643 37.98 21.6192 37.98H28.0836C29.5386 37.98 30.7221 36.7964 30.7221 35.3416V28.877C30.7221 27.4222 29.5384 26.2385 28.0836 26.2385H21.6192Z" fill="#B3E59F"/>
<path d="M24.1231 36.4938C23.7934 36.4938 23.4794 36.3468 23.2682 36.0904L20.6859 32.9568C20.2969 32.4845 20.3643 31.7863 20.8363 31.3971C21.3084 31.0081 22.0066 31.0752 22.396 31.5476L24.0021 33.4967L27.0487 28.651C27.3743 28.133 28.0584 27.977 28.5765 28.3026C29.0946 28.6283 29.2503 29.3123 28.9248 29.8303L25.0611 35.9754C24.8717 36.2767 24.5492 36.4686 24.194 36.4914C24.1704 36.4931 24.1468 36.4938 24.1231 36.4938Z" fill="#DD636E"/>
<path d="M56.2546 30.4161H36.7785C36.1665 30.4161 35.6706 29.9201 35.6706 29.3082C35.6706 28.6963 36.1666 28.2003 36.7785 28.2003H56.2547C56.8668 28.2003 57.3626 28.6963 57.3626 29.3082C57.3626 29.9199 56.8666 30.4161 56.2546 30.4161Z" fill="#407093"/>
<path d="M45.4086 36.0185H36.7785C36.1665 36.0185 35.6706 35.5225 35.6706 34.9106C35.6706 34.2987 36.1666 33.8027 36.7785 33.8027H45.4086C46.0207 33.8027 46.5165 34.2987 46.5165 34.9106C46.5165 35.5225 46.0205 36.0185 45.4086 36.0185Z" fill="#407093"/>
<path d="M28.0837 61.2929H21.6192C18.9424 61.2929 16.7647 59.1152 16.7647 56.4385V49.9739C16.7647 47.2972 18.9424 45.1194 21.6192 45.1194H28.0836C30.7604 45.1194 32.9381 47.2972 32.9381 49.9739V56.4385C32.9382 59.1152 30.7605 61.2929 28.0837 61.2929ZM21.6192 47.3353C20.1642 47.3353 18.9807 48.5189 18.9807 49.9738V56.4383C18.9807 57.8932 20.1643 59.0768 21.6192 59.0768H28.0836C29.5386 59.0768 30.7221 57.8932 30.7221 56.4383V49.9738C30.7221 48.5189 29.5384 47.3353 28.0836 47.3353H21.6192Z" fill="#B3E59F"/>
<path d="M24.1231 57.5907C23.7934 57.5907 23.4794 57.4437 23.2682 57.1873L20.6859 54.0537C20.2969 53.5815 20.3643 52.8832 20.8363 52.4941C21.3084 52.105 22.0066 52.1723 22.396 52.6445L24.0021 54.5936L27.0487 49.7479C27.3743 49.2299 28.0584 49.0739 28.5765 49.3996C29.0946 49.7252 29.2503 50.4093 28.9248 50.9272L25.0611 57.0723C24.8717 57.3736 24.5492 57.5655 24.194 57.5883C24.1704 57.5899 24.1468 57.5907 24.1231 57.5907Z" fill="#DD636E"/>
<path d="M56.2546 51.5136H36.7781C36.1661 51.5136 35.6702 51.0176 35.6702 50.4057C35.6702 49.7938 36.1662 49.2978 36.7781 49.2978H56.2547C56.8668 49.2978 57.3626 49.7938 57.3626 50.4057C57.3626 51.0176 56.8666 51.5136 56.2546 51.5136Z" fill="#407093"/>
<path d="M45.4086 57.1154H36.7785C36.1665 57.1154 35.6706 56.6194 35.6706 56.0075C35.6706 55.3956 36.1666 54.8995 36.7785 54.8995H45.4086C46.0207 54.8995 46.5165 55.3956 46.5165 56.0075C46.5165 56.6194 46.0205 57.1154 45.4086 57.1154Z" fill="#407093"/>
<path d="M45.0461 53.6982C44.5501 53.3092 44.4634 52.5916 44.8526 52.0957L46.3089 50.2395C46.6979 49.7435 47.4155 49.6569 47.9114 50.0461C48.4074 50.4351 48.4941 51.1527 48.1049 51.6486L46.6486 53.5048C46.2596 54.0008 45.5421 54.0874 45.0461 53.6982Z" fill="#365E7D"/>
<path d="M67.0446 35.386C68.6577 36.6516 70.9913 36.3699 72.2568 34.7568L80.1728 24.667C81.4383 23.0539 81.1567 20.7203 79.5435 19.4548C77.9304 18.1892 75.5968 18.4709 74.3313 20.084L66.4153 30.1738C65.1498 31.7869 65.4314 34.1205 67.0446 35.386Z" fill="#80B4FB"/>
<path d="M54.3762 49.0962L53.0551 50.78C51.5212 52.7353 48.6925 53.0767 46.7373 51.5427C44.782 50.0088 44.4405 47.1802 45.9745 45.2249L47.2955 43.541L54.3529 42.9291L54.3762 49.0962Z" fill="#FFE07D"/>
<path d="M47.8275 50.7249C47.8958 51.2901 48.0721 51.8434 48.349 52.3509C47.7789 52.1981 47.2298 51.9306 46.7361 51.5433C45.7593 50.777 45.1842 49.6851 45.0462 48.5427C44.9094 47.3991 45.2071 46.203 45.9744 45.2248L47.2952 43.5414L54.352 42.9293L54.3615 45.3532L50.0765 45.7236L48.7557 47.407C47.9882 48.3851 47.6905 49.5813 47.8275 50.7249Z" fill="#FFD064"/>
<path d="M72.3354 25.9269L54.3756 49.0957L51.7337 47.0231L51.3341 45.3832L49.9377 45.6139L47.2958 43.5413L65.2209 20.4167" fill="#DD636E"/>
<path d="M68.0375 22.555L50.0775 45.7238L47.2958 43.5413L65.2209 20.4167" fill="#DA4A54"/>
<path d="M74.1886 22.7504L67.9 17.8166L68.9153 16.7272L76.448 8.64965C76.9692 8.09138 77.6598 7.77819 78.3708 7.72269C79.0816 7.6672 79.8128 7.86939 80.4138 8.34105C81.6148 9.2832 81.8955 10.9891 81.0578 12.2663L75.005 21.505L74.1886 22.7504Z" fill="#9DC6FB"/>
<path d="M80.4146 8.34047C80.3014 8.2517 80.017 8.40055 79.6423 8.71919C79.2676 9.03798 78.8001 9.52684 78.321 10.1184L70.4557 19.8203L67.902 17.8166L76.4485 8.64936C76.9689 8.09023 77.6612 7.77776 78.3714 7.72212C79.0828 7.66748 79.813 7.86853 80.4146 8.34047Z" fill="#80B4FB"/>
<path d="M74.1886 22.7504L70.566 21.3174L67.9001 17.8167L68.9154 16.7272L75.0052 21.505L74.1886 22.7504Z" fill="#80B4FB"/>
<path d="M74.1879 22.7502L67.9004 17.8173C66.9131 17.0427 65.4846 17.2152 64.71 18.2025C63.9353 19.1898 64.1078 20.6183 65.0952 21.3929L71.3826 26.3258C72.37 27.1005 73.7984 26.928 74.5731 25.9407C75.3477 24.9533 75.1752 23.5249 74.1879 22.7502Z" fill="#9DC6FB"/>
<path d="M67.3685 22.3307C67.4382 22.9077 67.7288 23.4582 68.2225 23.8456L65.0952 21.392C64.6014 21.0046 64.3109 20.4542 64.2412 19.877C64.1715 19.3 64.3228 18.6963 64.7101 18.2025C65.4848 17.2151 66.9131 17.0414 67.9006 17.8162L71.0279 20.2698C70.0404 19.4952 68.6121 19.6688 67.8375 20.6562C67.45 21.1499 67.2988 21.7536 67.3685 22.3307Z" fill="#80B4FB"/>
<path d="M51.7337 47.023L49.9376 45.6139L62.8271 28.9077C63.2162 28.4116 63.9338 28.325 64.4297 28.7142C64.9257 29.1033 65.0123 29.8208 64.6231 30.3167L51.7337 47.023Z" fill="#9DC6FB"/>
<path d="M64.8118 29.2655C64.4467 29.2402 64.0779 29.3898 63.8354 29.6988L50.9457 46.4052L49.9376 45.6142L62.8273 28.9078C63.2162 28.4121 63.9342 28.3255 64.4298 28.7144C64.6167 28.8608 64.7451 29.0545 64.8118 29.2655Z" fill="#80B4FB"/>
</g>
<defs>
<clipPath id="clip0_0_5465">
<rect width="73.422" height="73.422" fill="white" transform="translate(8.80859 0.0739136)"/>
</clipPath>
</defs>
</svg>
