<svg width="22" height="39" viewBox="0 0 22 39" fill="none" xmlns="http://www.w3.org/2000/svg">
<path d="M17.8816 7.3543C16.6342 5.98951 15.2782 4.72779 13.8269 3.58151C13.7893 3.55183 13.7433 3.53475 13.6954 3.53268C13.6475 3.53062 13.6001 3.54368 13.5601 3.57002C13.52 3.59635 13.4893 3.63461 13.4723 3.67937C13.4553 3.72412 13.4528 3.7731 13.4653 3.81933C14.285 6.82475 15.7151 9.79455 17.9211 12.0033C18.0276 10.4549 18.0144 8.90063 17.8816 7.3543Z" fill="#FF901D"/>
<path d="M17.9215 12.0036C19.1764 10.4914 20.2985 8.8742 21.2755 7.16981C21.2998 7.12718 21.3372 7.09352 21.3821 7.0739C21.4271 7.05427 21.4773 7.04973 21.5251 7.06096C21.5729 7.07218 21.6157 7.09856 21.6472 7.13615C21.6787 7.17374 21.6972 7.22052 21.6999 7.26946C21.8778 10.778 20.5349 14.8829 17.2638 16.5385C17.5972 15.0456 17.8171 13.5296 17.9215 12.0036Z" fill="#FF901D"/>
<path d="M17.2634 16.5375C16.477 14.9105 15.5578 13.3509 14.515 11.8746C14.4875 11.836 14.4487 11.8069 14.404 11.7914C14.3592 11.7758 14.3107 11.7746 14.2652 11.7878C14.2197 11.8011 14.1795 11.8281 14.1501 11.8652C14.1207 11.9024 14.1036 11.9477 14.1013 11.9949C13.973 15.0278 14.4942 18.2292 15.9485 20.8894C16.4944 19.4734 16.9339 18.0187 17.2634 16.5375Z" fill="#FF901D"/>
<path d="M15.9468 20.8887C17.5784 19.8416 19.1213 18.6628 20.5603 17.3643C20.5964 17.3316 20.6422 17.3113 20.6908 17.3066C20.7394 17.3018 20.7882 17.3128 20.83 17.3379C20.8718 17.363 20.9045 17.401 20.923 17.446C20.9416 17.4911 20.9451 17.541 20.933 17.5882C20.0598 20.9393 17.5635 24.376 14.0094 24.9855C14.7553 23.6694 15.4029 22.3001 15.9468 20.8887Z" fill="#FF901D"/>
<path d="M14.0093 24.9863C13.7283 23.2129 13.2999 21.466 12.7286 19.7635C12.7134 19.7189 12.6848 19.6801 12.6466 19.6525C12.6083 19.6249 12.5625 19.6097 12.5153 19.6092C12.4681 19.6087 12.4219 19.6228 12.3831 19.6495C12.3443 19.6763 12.3147 19.7144 12.2985 19.7587C11.227 22.632 10.9477 25.7398 11.4899 28.7576C12.4217 27.5643 13.2638 26.3037 14.0093 24.9863Z" fill="#FF901D"/>
<path d="M11.4894 28.7585C13.3504 28.2316 15.1661 27.5569 16.9192 26.7409C16.9634 26.7207 17.0128 26.7151 17.0603 26.725C17.1078 26.7349 17.1509 26.7597 17.1833 26.7958C17.2156 26.8319 17.2355 26.8775 17.2401 26.9257C17.2446 26.974 17.2336 27.0224 17.2086 27.0639C15.3951 30.0164 12.001 32.5727 8.42419 32.1322C9.5287 31.0854 10.5533 29.9577 11.4894 28.7585Z" fill="#FF901D"/>
<path d="M8.42595 32.1307C8.68454 30.3465 8.79021 28.5435 8.74179 26.7413C8.74039 26.6941 8.72432 26.6486 8.69584 26.6109C8.66735 26.5732 8.62785 26.5453 8.58278 26.5311C8.53772 26.5168 8.48933 26.5168 8.4443 26.5312C8.39927 26.5456 8.35984 26.5736 8.33145 26.6113C6.45851 29.0699 5.26038 31.9737 4.85541 35.036C6.11756 34.1592 7.31117 33.188 8.42595 32.1307Z" fill="#FF901D"/>
<path d="M18.6326 7.45004C18.6326 7.43464 18.6326 7.41923 18.6326 7.4019C18.4553 5.07757 18.0318 2.77854 17.3693 0.543292C17.3019 0.34728 17.1614 0.184808 16.9769 0.0897722C16.7925 -0.00526309 16.5784 -0.0255195 16.3794 0.0332288C16.1803 0.091977 16.0117 0.225191 15.9086 0.405079C15.8056 0.584967 15.7761 0.797632 15.8263 0.998703C16.4498 3.10313 16.8505 5.26701 17.0221 7.45486C17.0221 7.47171 17.0221 7.48856 17.0221 7.50589C17.1503 9.00663 17.1628 10.515 17.0597 12.0176C16.9577 13.499 16.7441 14.9707 16.4208 16.4201C16.0997 17.8583 15.6721 19.2708 15.1416 20.6459C14.6132 22.0161 13.9847 23.3456 13.2611 24.6238C12.5363 25.9029 11.718 27.1271 10.8131 28.2863C9.90383 29.4505 8.90907 30.5455 7.83708 31.5623C6.75465 32.5882 5.59604 33.531 4.37117 34.3824C3.12523 35.2476 1.81432 36.0157 0.450088 36.6797C0.258265 36.7739 0.111814 36.9405 0.0429544 37.1426C-0.0259053 37.3446 -0.0115354 37.5658 0.0829055 37.7573C0.177346 37.9488 0.344125 38.095 0.546545 38.1638C0.748964 38.2325 0.97044 38.2182 1.16226 38.1239C2.60085 37.4232 3.98318 36.6129 5.29696 35.7C6.58903 34.8013 7.81115 33.8063 8.95285 32.7235C10.0819 31.6516 11.1295 30.4973 12.087 29.2703C13.0404 28.0482 13.9025 26.7578 14.6662 25.4094V25.407C15.4283 24.0612 16.0903 22.6614 16.647 21.2188C17.2054 19.7697 17.6556 18.2813 17.9937 16.7658C18.3351 15.2368 18.5608 13.6844 18.6688 12.1216C18.6688 12.1216 18.6688 12.1216 18.6688 12.1182C18.7738 10.5635 18.7617 9.00302 18.6326 7.45004Z" fill="#F7BC14"/>
</svg>
