<svg width="1440" height="563" viewBox="0 0 1440 563" fill="none" xmlns="http://www.w3.org/2000/svg">
<path fill-rule="evenodd" clip-rule="evenodd" d="M1445.86 33.139C1442.11 36.8898 1440 41.9769 1440 47.2812V543.001C1440 554.046 1431.05 563.001 1420 563.001H20C8.95432 563.001 1.43051e-05 554.046 1.43051e-05 543.001V42.2842C1.43051e-05 36.9798 -2.10712 31.8928 -5.85785 28.142L-6.05027 27.9496C-8.78394 25.2159 -8.78394 20.7838 -6.05027 18.0501L9.50608 2.49377C12.2397 -0.239904 16.6719 -0.239903 19.4056 2.49377L34.9619 18.0501C35.463 18.5512 36.3603 18.5511 36.8614 18.05L52.4178 2.49361C55.1514 -0.240058 59.5836 -0.240058 62.3173 2.49361L77.8736 18.05C78.3747 18.5511 79.272 18.5511 79.7731 18.05L95.3294 2.49361C98.0631 -0.240058 102.495 -0.240058 105.229 2.49361L120.785 18.05C121.286 18.5511 122.184 18.5511 122.685 18.05L138.241 2.49361C140.975 -0.240058 145.407 -0.240058 148.141 2.49361L163.697 18.05C164.198 18.5511 165.095 18.5511 165.596 18.05L181.153 2.49361C183.886 -0.240058 188.319 -0.240058 191.052 2.49361L206.609 18.05C207.11 18.5511 208.007 18.5511 208.508 18.05L224.064 2.49361C226.798 -0.240058 231.23 -0.240058 233.964 2.49361L249.52 18.05C250.021 18.5511 250.919 18.5511 251.42 18.05L266.976 2.49361C269.71 -0.240058 274.142 -0.240058 276.876 2.49361L292.432 18.05C292.933 18.5511 293.83 18.5511 294.332 18.05L309.888 2.49361C312.622 -0.240058 317.054 -0.240058 319.787 2.49361L335.344 18.05C335.845 18.5511 336.742 18.5511 337.243 18.05L352.8 2.49361C355.533 -0.240058 359.965 -0.240058 362.699 2.49361L378.255 18.05C378.757 18.5511 379.654 18.5511 380.155 18.05L395.711 2.49361C398.445 -0.240058 402.877 -0.240058 405.611 2.49361L421.167 18.05C421.668 18.5511 422.565 18.5511 423.067 18.05L438.623 2.49361C441.357 -0.240058 445.789 -0.240058 448.522 2.49361L464.079 18.05C464.58 18.5511 465.477 18.5511 465.978 18.05L481.535 2.49361C484.268 -0.240058 488.7 -0.240058 491.434 2.49361L506.99 18.05C507.492 18.5511 508.389 18.5511 508.89 18.05L524.446 2.49361C527.18 -0.240058 531.612 -0.240058 534.346 2.49361L549.902 18.05C550.403 18.5511 551.301 18.5511 551.802 18.05L567.358 2.49361C570.092 -0.240058 574.524 -0.240058 577.258 2.49361L592.814 18.05C593.315 18.5511 594.212 18.5511 594.713 18.05L610.27 2.49361C613.003 -0.240058 617.435 -0.240058 620.169 2.49361L635.726 18.05C636.227 18.5511 637.124 18.5511 637.625 18.05L653.181 2.49361C655.915 -0.240058 660.347 -0.240058 663.081 2.49361L678.637 18.05C679.138 18.5511 680.036 18.5511 680.537 18.05L696.093 2.49361C698.827 -0.240058 703.259 -0.240058 705.992 2.49361L721.549 18.05C722.05 18.5511 722.947 18.5511 723.448 18.05L739.005 2.49361C741.738 -0.240058 746.171 -0.240058 748.904 2.49361L764.461 18.05C764.962 18.5511 765.859 18.5511 766.36 18.05L781.916 2.49361C784.65 -0.240058 789.082 -0.240058 791.816 2.49361L807.372 18.05C807.873 18.5511 808.771 18.5511 809.272 18.05L824.828 2.49361C827.562 -0.240058 831.994 -0.240058 834.728 2.49361L850.284 18.05C850.378 18.1442 850.469 18.2404 850.557 18.3384C850.968 18.7988 851.747 18.8211 852.183 18.3844L867.74 2.82808C870.473 0.0944142 874.906 0.0944149 877.639 2.82808L893.196 18.3844C893.697 18.8856 894.594 18.8856 895.095 18.3844L910.651 2.82808C913.385 0.0944142 917.817 0.0944149 920.551 2.82808L936.107 18.3844C936.544 18.8212 937.322 18.7988 937.734 18.3384C937.822 18.2403 937.913 18.1441 938.007 18.05L953.563 2.49361C956.297 -0.240058 960.729 -0.240058 963.463 2.49361L979.019 18.05C979.113 18.1442 979.204 18.2404 979.292 18.3385C979.703 18.7989 980.482 18.8211 980.918 18.3844L996.475 2.82808C999.208 0.0944142 1003.64 0.0944149 1006.37 2.82808L1021.93 18.3844C1022.37 18.8211 1023.15 18.7988 1023.56 18.3384C1023.65 18.2403 1023.74 18.1441 1023.83 18.05L1039.39 2.49361C1042.12 -0.240058 1046.55 -0.240058 1049.29 2.49361L1064.84 18.05C1065.34 18.551 1066.24 18.551 1066.74 18.05L1082.3 2.49361C1085.03 -0.240058 1089.46 -0.240058 1092.2 2.49361L1107.75 18.05C1108.26 18.5511 1109.15 18.551 1109.65 18.05L1125.21 2.49361C1127.94 -0.240058 1132.38 -0.240058 1135.11 2.49361L1150.67 18.05C1151.17 18.551 1152.06 18.551 1152.57 18.05L1168.12 2.49361C1170.86 -0.240058 1175.29 -0.240058 1178.02 2.49361L1193.58 18.05C1193.67 18.1441 1193.76 18.2403 1193.85 18.3384C1194.26 18.7988 1195.04 18.8212 1195.48 18.3844L1211.03 2.82808C1213.77 0.0944142 1218.2 0.0944149 1220.93 2.82808L1236.49 18.3844C1236.99 18.8855 1237.89 18.8855 1238.39 18.3844L1253.94 2.82808C1256.68 0.0944142 1261.11 0.0944149 1263.84 2.82808L1279.4 18.3844C1279.84 18.8211 1280.62 18.7988 1281.03 18.3384C1281.12 18.2403 1281.21 18.1441 1281.3 18.05L1296.86 2.49361C1299.59 -0.240058 1304.02 -0.240058 1306.76 2.49361L1322.31 18.05C1322.41 18.1442 1322.5 18.2404 1322.59 18.3385C1323 18.7989 1323.78 18.8212 1324.21 18.3844L1339.77 2.82808C1342.5 0.0944142 1346.93 0.0944149 1349.67 2.82808L1365.22 18.3844C1365.66 18.8211 1366.44 18.7988 1366.85 18.3384C1366.94 18.2403 1367.03 18.1441 1367.12 18.05L1382.68 2.49361C1385.41 -0.240058 1389.85 -0.240058 1392.58 2.49361L1408.14 18.05C1408.64 18.551 1409.53 18.551 1410.04 18.05L1425.59 2.49361C1428.33 -0.240058 1432.76 -0.240058 1435.49 2.49361L1451.05 18.05C1453.78 20.7836 1453.78 25.2158 1451.05 27.9495L1445.86 33.139ZM1409.09 27.0006C1409.15 27.0006 1409.19 26.9278 1409.15 26.8742C1409.12 26.8258 1409.05 26.8258 1409.02 26.8742C1408.98 26.9278 1409.02 27.0006 1409.09 27.0006ZM1194.4 26.963C1194.39 26.9789 1194.4 27.0006 1194.42 27.0006H1194.44C1194.45 27.0006 1194.45 26.9888 1194.45 26.9795L1194.44 26.9599C1194.43 26.947 1194.41 26.9465 1194.4 26.9589C1194.4 26.9603 1194.4 26.9616 1194.4 26.963ZM1323.15 27.0006C1323.13 27.0006 1323.12 26.9789 1323.13 26.963C1323.14 26.9486 1323.17 26.9493 1323.17 26.9641C1323.18 26.9801 1323.17 27.0006 1323.15 27.0006ZM1366.3 26.9631C1366.31 26.9789 1366.3 27.0006 1366.28 27.0006C1366.26 27.0006 1366.25 26.9801 1366.26 26.9642C1366.26 26.9628 1366.26 26.9614 1366.26 26.96C1366.27 26.9471 1366.29 26.9465 1366.3 26.959L1366.3 26.9631ZM1151.68 26.8742C1151.65 26.8258 1151.58 26.8258 1151.55 26.8742C1151.51 26.9278 1151.55 27.0006 1151.62 27.0006C1151.68 27.0006 1151.72 26.9278 1151.68 26.8742ZM851.106 26.963C851.095 26.9789 851.106 27.0006 851.125 27.0006C851.144 27.0006 851.156 26.9801 851.146 26.9642C851.137 26.9493 851.116 26.9487 851.106 26.963ZM979.86 27.0006C979.841 27.0006 979.83 26.9789 979.841 26.963C979.851 26.9486 979.872 26.9492 979.881 26.9641C979.891 26.9801 979.879 27.0006 979.86 27.0006ZM1023.01 26.963C1023.02 26.9789 1023.01 27.0006 1022.99 27.0006H1022.98C1022.96 27.0006 1022.95 26.9866 1022.96 26.9757L1022.97 26.9641C1022.98 26.9492 1023 26.9487 1023.01 26.963ZM808.377 26.8543C808.351 26.8152 808.293 26.8152 808.267 26.8544C808.263 26.8611 808.258 26.8677 808.254 26.8744C808.218 26.928 808.256 27.0006 808.321 27.0006H808.421C808.444 27.0006 808.458 26.9746 808.445 26.9555L808.41 26.9046L808.377 26.8543ZM507.94 27.0006C508.005 27.0006 508.044 26.9279 508.008 26.8742C507.976 26.8259 507.905 26.8259 507.872 26.8742C507.837 26.9278 507.876 27.0006 507.94 27.0006ZM636.675 27.0006C636.611 27.0006 636.572 26.9279 636.607 26.8742C636.64 26.8259 636.711 26.8259 636.743 26.8742C636.779 26.9279 636.74 27.0006 636.675 27.0006ZM679.655 26.8742C679.691 26.9278 679.651 27.0006 679.587 27.0006C679.523 27.0006 679.483 26.9279 679.519 26.8742C679.551 26.8259 679.623 26.8259 679.655 26.8742ZM465.094 26.8705C465.063 26.8239 464.994 26.8239 464.963 26.8705C464.962 26.8718 464.961 26.8731 464.96 26.8744C464.925 26.928 464.963 27.0006 465.028 27.0006C465.093 27.0006 465.132 26.9274 465.096 26.8733C465.095 26.8724 465.095 26.8714 465.094 26.8705ZM164.579 26.8742C164.543 26.9278 164.582 27.0006 164.647 27.0006C164.711 27.0006 164.75 26.9278 164.715 26.8742C164.682 26.8258 164.611 26.8258 164.579 26.8742ZM293.382 27.0006C293.317 27.0006 293.278 26.9278 293.314 26.8742C293.346 26.8258 293.417 26.8258 293.45 26.8742C293.485 26.9278 293.446 27.0006 293.382 27.0006ZM336.361 26.8742C336.397 26.9278 336.358 27.0006 336.293 27.0006C336.229 27.0006 336.19 26.9278 336.226 26.8742C336.258 26.8258 336.329 26.8258 336.361 26.8742ZM121.803 26.8742C121.771 26.8258 121.699 26.8258 121.667 26.8742C121.631 26.9278 121.671 27.0006 121.735 27.0006C121.799 27.0006 121.839 26.9278 121.803 26.8742ZM1108.77 26.8712C1108.76 26.8509 1108.74 26.8307 1108.73 26.8103C1108.72 26.7916 1108.69 26.7915 1108.68 26.8102C1108.67 26.828 1108.65 26.8458 1108.64 26.8635L1108.61 26.9114L1108.6 26.9346L1108.57 26.9723C1108.56 26.9843 1108.57 27.0006 1108.58 27.0006H1108.7C1108.77 27.0006 1108.81 26.927 1108.77 26.8728C1108.77 26.8722 1108.77 26.8717 1108.77 26.8712ZM1280.48 26.963C1280.49 26.9789 1280.48 27.0006 1280.46 27.0006H1280.45C1280.43 27.0006 1280.42 26.9865 1280.43 26.9755L1280.44 26.9641C1280.45 26.9493 1280.47 26.9487 1280.48 26.963ZM1065.86 26.8744C1065.83 26.826 1065.76 26.8258 1065.72 26.8742C1065.69 26.9278 1065.73 27.0006 1065.79 27.0006H1065.89C1065.91 27.0006 1065.93 26.9719 1065.91 26.9507L1065.88 26.9101C1065.88 26.8982 1065.87 26.8863 1065.86 26.8744ZM765.313 26.9178C765.289 26.9529 765.314 27.0006 765.357 27.0006H765.412C765.476 27.0006 765.514 26.9274 765.478 26.8738C765.446 26.8258 765.375 26.8256 765.343 26.8736L765.313 26.9178ZM937.185 26.963C937.196 26.9789 937.185 27.0006 937.165 27.0006C937.147 27.0006 937.135 26.9801 937.145 26.9642C937.154 26.9493 937.175 26.9487 937.185 26.963ZM722.555 26.8568C722.528 26.8166 722.469 26.8166 722.442 26.8569L722.427 26.8793L722.41 26.9057C722.382 26.9459 722.411 27.0006 722.46 27.0006H722.5C722.564 27.0006 722.602 26.928 722.567 26.8744C722.563 26.8686 722.559 26.8627 722.555 26.8568ZM422.117 27.0006C422.181 27.0006 422.22 26.9278 422.185 26.8742C422.153 26.8258 422.081 26.8258 422.049 26.8742C422.013 26.9278 422.052 27.0006 422.117 27.0006ZM550.852 27.0006C550.788 27.0006 550.748 26.9279 550.784 26.8742C550.816 26.8259 550.888 26.8259 550.92 26.8742C550.956 26.9279 550.916 27.0006 550.852 27.0006ZM593.855 26.909C593.881 26.9479 593.853 27.0006 593.807 27.0006H593.762C593.698 27.0006 593.66 26.9279 593.696 26.8743C593.728 26.8259 593.799 26.8261 593.832 26.8744C593.839 26.886 593.847 26.8975 593.855 26.909ZM379.158 26.8427L379.124 26.8939L379.093 26.9398C379.075 26.9655 379.094 27.0006 379.125 27.0006H379.206C379.271 27.0006 379.309 26.928 379.273 26.8743C379.266 26.8638 379.259 26.8533 379.252 26.8427C379.23 26.8089 379.18 26.8089 379.158 26.8427ZM78.8233 27.0006C78.8878 27.0006 78.927 26.9278 78.8913 26.8742C78.8591 26.8258 78.7876 26.8258 78.7554 26.8742C78.7197 26.9278 78.7589 27.0006 78.8233 27.0006ZM207.558 27.0006C207.494 27.0006 207.455 26.9278 207.49 26.8742C207.523 26.8258 207.594 26.8258 207.626 26.8742C207.662 26.9278 207.623 27.0006 207.558 27.0006ZM250.538 26.8742C250.574 26.9278 250.534 27.0006 250.47 27.0006C250.406 27.0006 250.366 26.9278 250.402 26.8742C250.434 26.8258 250.506 26.8258 250.538 26.8742ZM35.9796 26.8743C35.9474 26.8259 35.876 26.8259 35.8438 26.8743C35.8081 26.9279 35.8473 27.0006 35.9117 27.0006C35.9761 27.0006 36.0153 26.9279 35.9796 26.8743Z" fill="url(#paint0_radial_1_1410)"/>
<defs>
<radialGradient id="paint0_radial_1_1410" cx="0" cy="0" r="1" gradientUnits="userSpaceOnUse" gradientTransform="translate(510.164 281.722) scale(942.934 934.216)">
<stop offset="0.127088" stop-color="#1268AC" stop-opacity="0.95"/>
<stop offset="0.68219" stop-color="#023157"/>
</radialGradient>
</defs>
</svg>
