<svg width="939" height="112" viewBox="0 0 939 112" fill="none" xmlns="http://www.w3.org/2000/svg">
<path d="M11.492 34.306C10.6533 34.306 9.97333 34.1133 9.452 33.728C8.93067 33.32 8.52267 32.6967 8.228 31.858L1.598 13.396C1.23533 12.376 1.292 11.5147 1.768 10.812C2.26667 10.0867 3.13933 9.724 4.386 9.724C5.22467 9.724 5.882 9.928 6.358 10.336C6.834 10.7213 7.208 11.3333 7.48 12.172L12.546 27.37H10.948L16.388 12.172C16.7053 11.3333 17.102 10.7213 17.578 10.336C18.054 9.928 18.666 9.724 19.414 9.724C20.162 9.724 20.7627 9.928 21.216 10.336C21.6693 10.7213 22.0433 11.3447 22.338 12.206L27.438 27.37H26.078L31.28 12.172C31.552 11.3333 31.9147 10.7213 32.368 10.336C32.844 9.928 33.5013 9.724 34.34 9.724C35.3827 9.724 36.142 10.0867 36.618 10.812C37.1167 11.5147 37.1733 12.376 36.788 13.396L30.09 31.892C29.7953 32.708 29.3873 33.32 28.866 33.728C28.3673 34.1133 27.6987 34.306 26.86 34.306C25.9987 34.306 25.3073 34.1133 24.786 33.728C24.2873 33.32 23.8907 32.6967 23.596 31.858L18.802 18.394H19.652L14.756 31.892C14.4387 32.708 14.0307 33.32 13.532 33.728C13.0333 34.1133 12.3533 34.306 11.492 34.306ZM46.2926 34.374C44.4339 34.374 42.8133 34.0227 41.4306 33.32C40.0479 32.6173 38.9713 31.6087 38.2006 30.294C37.4299 28.9793 37.0446 27.4267 37.0446 25.636C37.0446 24.276 37.2599 23.0633 37.6906 21.998C38.1213 20.91 38.7446 19.992 39.5606 19.244C40.3766 18.4733 41.3513 17.8953 42.4846 17.51C43.6179 17.102 44.8873 16.898 46.2926 16.898C48.1513 16.898 49.7719 17.2493 51.1546 17.952C52.5373 18.6547 53.6026 19.6633 54.3506 20.978C55.1213 22.27 55.5066 23.8227 55.5066 25.636C55.5066 26.9733 55.2913 28.186 54.8606 29.274C54.4299 30.362 53.8066 31.2913 52.9906 32.062C52.1973 32.81 51.2226 33.388 50.0666 33.796C48.9333 34.1813 47.6753 34.374 46.2926 34.374ZM46.2926 29.92C46.9046 29.92 47.4486 29.7727 47.9246 29.478C48.4006 29.1607 48.7633 28.696 49.0126 28.084C49.2846 27.4493 49.4206 26.6333 49.4206 25.636C49.4206 24.1173 49.1259 23.0293 48.5366 22.372C47.9473 21.692 47.1993 21.352 46.2926 21.352C45.6806 21.352 45.1366 21.4993 44.6606 21.794C44.1846 22.0887 43.8106 22.5533 43.5386 23.188C43.2666 23.8 43.1306 24.616 43.1306 25.636C43.1306 27.132 43.4253 28.22 44.0146 28.9C44.6039 29.58 45.3633 29.92 46.2926 29.92ZM61.3737 34.306C60.3764 34.306 59.6057 34.0453 59.0617 33.524C58.5404 33.0027 58.2797 32.2433 58.2797 31.246V19.992C58.2797 19.0173 58.5291 18.2693 59.0277 17.748C59.5491 17.2267 60.2857 16.966 61.2377 16.966C62.1897 16.966 62.9151 17.2267 63.4137 17.748C63.9124 18.2693 64.1617 19.0173 64.1617 19.992V21.386H63.8217C64.0484 20.026 64.6264 18.9493 65.5557 18.156C66.5077 17.3627 67.6864 16.9433 69.0917 16.898C69.7491 16.8753 70.2364 17.0453 70.5537 17.408C70.8937 17.748 71.0751 18.394 71.0977 19.346C71.0977 20.162 70.9277 20.808 70.5877 21.284C70.2477 21.76 69.6017 22.0433 68.6497 22.134L67.8677 22.202C66.6664 22.3153 65.7937 22.6553 65.2497 23.222C64.7057 23.766 64.4337 24.582 64.4337 25.67V31.246C64.4337 32.2433 64.1731 33.0027 63.6517 33.524C63.1304 34.0453 62.3711 34.306 61.3737 34.306ZM79.3799 34.374C77.2039 34.374 75.5946 33.796 74.5519 32.64C73.5319 31.4613 73.0219 29.6933 73.0219 27.336V12.784C73.0219 11.7867 73.2826 11.0273 73.8039 10.506C74.3252 9.98467 75.0619 9.724 76.0139 9.724C76.9886 9.724 77.7366 9.98467 78.2579 10.506C78.8019 11.0273 79.0739 11.7867 79.0739 12.784V27.132C79.0739 27.9707 79.2326 28.5827 79.5499 28.968C79.8899 29.3533 80.3206 29.546 80.8419 29.546C81.0006 29.546 81.1592 29.5347 81.3179 29.512C81.4992 29.4667 81.6919 29.4327 81.8959 29.41C82.2812 29.41 82.5646 29.5573 82.7459 29.852C82.9499 30.1467 83.0519 30.7473 83.0519 31.654C83.0519 32.4473 82.8932 33.048 82.5759 33.456C82.2586 33.8413 81.7712 34.0907 81.1139 34.204C80.9326 34.2267 80.6719 34.2607 80.3319 34.306C79.9919 34.3513 79.6746 34.374 79.3799 34.374ZM91.2042 34.374C89.7762 34.374 88.5069 34.0227 87.3962 33.32C86.3082 32.6173 85.4469 31.6087 84.8122 30.294C84.2002 28.9793 83.8942 27.4267 83.8942 25.636C83.8942 23.8 84.2002 22.236 84.8122 20.944C85.4469 19.652 86.3082 18.6547 87.3962 17.952C88.5069 17.2493 89.7762 16.898 91.2042 16.898C92.4509 16.898 93.5729 17.1927 94.5702 17.782C95.5675 18.3713 96.2362 19.1307 96.5762 20.06H96.2022V12.784C96.2022 11.7867 96.4629 11.0273 96.9842 10.506C97.5055 9.98467 98.2535 9.724 99.2282 9.724C100.18 9.724 100.917 9.98467 101.438 10.506C101.982 11.0273 102.254 11.7867 102.254 12.784V31.246C102.254 32.2433 101.994 33.0027 101.472 33.524C100.974 34.0453 100.237 34.306 99.2622 34.306C98.3102 34.306 97.5735 34.0453 97.0522 33.524C96.5309 33.0027 96.2702 32.2433 96.2702 31.246V29.308L96.6442 30.974C96.3269 31.994 95.6582 32.8213 94.6382 33.456C93.6409 34.068 92.4962 34.374 91.2042 34.374ZM93.1422 29.92C93.7542 29.92 94.2982 29.7727 94.7742 29.478C95.2502 29.1607 95.6129 28.696 95.8622 28.084C96.1342 27.4493 96.2702 26.6333 96.2702 25.636C96.2702 24.1173 95.9755 23.0293 95.3862 22.372C94.7969 21.692 94.0489 21.352 93.1422 21.352C92.5302 21.352 91.9862 21.4993 91.5102 21.794C91.0342 22.0887 90.6602 22.5533 90.3882 23.188C90.1162 23.8 89.9802 24.616 89.9802 25.636C89.9802 27.132 90.2749 28.22 90.8642 28.9C91.4535 29.58 92.2129 29.92 93.1422 29.92ZM108.582 20.774C107.97 20.774 107.449 20.57 107.018 20.162C106.588 19.7313 106.327 19.1647 106.236 18.462L105.556 13.192C105.443 12.2173 105.67 11.4013 106.236 10.744C106.826 10.064 107.608 9.724 108.582 9.724C109.217 9.724 109.772 9.88267 110.248 10.2C110.747 10.4947 111.11 10.9027 111.336 11.424C111.586 11.9453 111.665 12.5347 111.574 13.192L110.86 18.462C110.792 19.142 110.543 19.6973 110.112 20.128C109.682 20.5587 109.172 20.774 108.582 20.774ZM121.555 34.374C120.558 34.374 119.538 34.2947 118.495 34.136C117.475 34 116.546 33.7393 115.707 33.354C115.14 33.1273 114.732 32.8213 114.483 32.436C114.256 32.0507 114.143 31.6427 114.143 31.212C114.166 30.7813 114.29 30.396 114.517 30.056C114.766 29.6933 115.084 29.444 115.469 29.308C115.877 29.1493 116.33 29.1607 116.829 29.342C117.781 29.682 118.631 29.9313 119.379 30.09C120.15 30.226 120.886 30.294 121.589 30.294C122.428 30.294 123.028 30.1807 123.391 29.954C123.754 29.7047 123.935 29.3873 123.935 29.002C123.935 28.662 123.81 28.4013 123.561 28.22C123.334 28.0387 123.006 27.914 122.575 27.846L118.801 27.234C117.396 26.9847 116.308 26.4747 115.537 25.704C114.766 24.9107 114.381 23.8793 114.381 22.61C114.381 21.4313 114.71 20.4227 115.367 19.584C116.047 18.7227 116.965 18.0653 118.121 17.612C119.3 17.136 120.648 16.898 122.167 16.898C123.187 16.898 124.116 16.9773 124.955 17.136C125.794 17.272 126.61 17.5327 127.403 17.918C127.902 18.122 128.253 18.4167 128.457 18.802C128.661 19.1873 128.74 19.5953 128.695 20.026C128.65 20.434 128.502 20.8193 128.253 21.182C128.026 21.522 127.709 21.76 127.301 21.896C126.893 22.0093 126.417 21.9753 125.873 21.794C125.125 21.4993 124.456 21.284 123.867 21.148C123.3 21.012 122.768 20.944 122.269 20.944C121.34 20.944 120.682 21.0687 120.297 21.318C119.912 21.5673 119.719 21.8847 119.719 22.27C119.719 22.5647 119.821 22.814 120.025 23.018C120.229 23.1993 120.546 23.324 120.977 23.392L124.751 24.038C126.202 24.2647 127.312 24.7633 128.083 25.534C128.876 26.282 129.273 27.302 129.273 28.594C129.273 30.43 128.57 31.858 127.165 32.878C125.76 33.8753 123.89 34.374 121.555 34.374ZM145.057 34C144.059 34 143.277 33.728 142.711 33.184C142.167 32.6173 141.895 31.8353 141.895 30.838V13.158C141.895 12.138 142.167 11.356 142.711 10.812C143.255 10.268 144.025 9.996 145.023 9.996C146.043 9.996 146.813 10.268 147.335 10.812C147.879 11.356 148.151 12.138 148.151 13.158V28.798H156.447C157.308 28.798 157.965 29.0247 158.419 29.478C158.895 29.9087 159.133 30.5433 159.133 31.382C159.133 32.2207 158.895 32.8667 158.419 33.32C157.965 33.7733 157.308 34 156.447 34H145.057ZM167.189 34.374C165.897 34.374 164.753 34.136 163.755 33.66C162.781 33.184 162.01 32.538 161.443 31.722C160.899 30.8833 160.627 29.9313 160.627 28.866C160.627 27.642 160.945 26.6787 161.579 25.976C162.214 25.2733 163.234 24.7747 164.639 24.48C166.045 24.1627 167.915 24.004 170.249 24.004H172.119V26.86H170.249C169.365 26.86 168.629 26.928 168.039 27.064C167.473 27.1773 167.053 27.37 166.781 27.642C166.509 27.8913 166.373 28.22 166.373 28.628C166.373 29.1493 166.555 29.58 166.917 29.92C167.303 30.26 167.847 30.43 168.549 30.43C169.116 30.43 169.615 30.3053 170.045 30.056C170.499 29.8067 170.861 29.4667 171.133 29.036C171.405 28.5827 171.541 28.0613 171.541 27.472V23.528C171.541 22.712 171.326 22.134 170.895 21.794C170.487 21.454 169.773 21.284 168.753 21.284C168.209 21.284 167.597 21.352 166.917 21.488C166.237 21.6013 165.478 21.8167 164.639 22.134C164.027 22.3607 163.506 22.3947 163.075 22.236C162.645 22.0773 162.305 21.8053 162.055 21.42C161.829 21.0347 161.715 20.6153 161.715 20.162C161.738 19.7087 161.885 19.278 162.157 18.87C162.452 18.462 162.894 18.1447 163.483 17.918C164.571 17.51 165.569 17.238 166.475 17.102C167.405 16.966 168.255 16.898 169.025 16.898C170.884 16.898 172.414 17.17 173.615 17.714C174.839 18.2353 175.746 19.0513 176.335 20.162C176.947 21.25 177.253 22.6553 177.253 24.378V31.246C177.253 32.2433 177.015 33.0027 176.539 33.524C176.063 34.0453 175.372 34.306 174.465 34.306C173.536 34.306 172.822 34.0453 172.323 33.524C171.847 33.0027 171.609 32.2433 171.609 31.246V30.362L171.813 30.838C171.7 31.5633 171.439 32.1867 171.031 32.708C170.623 33.2293 170.091 33.6373 169.433 33.932C168.776 34.2267 168.028 34.374 167.189 34.374ZM183.794 34.306C182.796 34.306 182.026 34.0453 181.482 33.524C180.96 33.0027 180.7 32.2433 180.7 31.246V19.992C180.7 19.0173 180.949 18.2693 181.448 17.748C181.969 17.2267 182.706 16.966 183.658 16.966C184.61 16.966 185.335 17.2267 185.834 17.748C186.332 18.2693 186.582 19.0173 186.582 19.992V21.386H186.242C186.468 20.026 187.046 18.9493 187.976 18.156C188.928 17.3627 190.106 16.9433 191.512 16.898C192.169 16.8753 192.656 17.0453 192.974 17.408C193.314 17.748 193.495 18.394 193.518 19.346C193.518 20.162 193.348 20.808 193.008 21.284C192.668 21.76 192.022 22.0433 191.07 22.134L190.288 22.202C189.086 22.3153 188.214 22.6553 187.67 23.222C187.126 23.766 186.854 24.582 186.854 25.67V31.246C186.854 32.2433 186.593 33.0027 186.072 33.524C185.55 34.0453 184.791 34.306 183.794 34.306ZM203.439 40.494C202.192 40.494 201.025 40.4033 199.937 40.222C198.849 40.0633 197.908 39.8253 197.115 39.508C196.458 39.2813 195.993 38.9527 195.721 38.522C195.449 38.0913 195.324 37.638 195.347 37.162C195.37 36.686 195.494 36.2553 195.721 35.87C195.97 35.4847 196.299 35.2013 196.707 35.02C197.115 34.8613 197.568 34.8727 198.067 35.054C199.064 35.462 199.971 35.7227 200.787 35.836C201.603 35.972 202.294 36.04 202.861 36.04C204.244 36.04 205.275 35.7453 205.955 35.156C206.658 34.5893 207.009 33.694 207.009 32.47V30.328H207.281C206.941 31.28 206.25 32.062 205.207 32.674C204.164 33.2633 203.031 33.558 201.807 33.558C200.311 33.558 199.008 33.218 197.897 32.538C196.786 31.8353 195.914 30.8607 195.279 29.614C194.667 28.3673 194.361 26.9053 194.361 25.228C194.361 23.9587 194.542 22.814 194.905 21.794C195.268 20.774 195.766 19.9013 196.401 19.176C197.058 18.4507 197.84 17.8953 198.747 17.51C199.676 17.102 200.696 16.898 201.807 16.898C203.076 16.898 204.21 17.1927 205.207 17.782C206.227 18.3713 206.907 19.142 207.247 20.094L206.907 21.488V19.992C206.907 19.0173 207.168 18.2693 207.689 17.748C208.233 17.2267 208.981 16.966 209.933 16.966C210.885 16.966 211.61 17.2267 212.109 17.748C212.63 18.2693 212.891 19.0173 212.891 19.992V31.756C212.891 34.6573 212.075 36.8333 210.443 38.284C208.811 39.7573 206.476 40.494 203.439 40.494ZM203.677 29.104C204.357 29.104 204.935 28.9567 205.411 28.662C205.887 28.3447 206.261 27.9027 206.533 27.336C206.805 26.7467 206.941 26.044 206.941 25.228C206.941 24.004 206.646 23.052 206.057 22.372C205.468 21.692 204.674 21.352 203.677 21.352C203.042 21.352 202.476 21.5107 201.977 21.828C201.478 22.1227 201.093 22.5647 200.821 23.154C200.572 23.7207 200.447 24.412 200.447 25.228C200.447 26.452 200.742 27.404 201.331 28.084C201.92 28.764 202.702 29.104 203.677 29.104ZM225.538 34.374C223.498 34.374 221.73 34.0227 220.234 33.32C218.761 32.5947 217.628 31.5747 216.834 30.26C216.041 28.9453 215.644 27.3927 215.644 25.602C215.644 23.8793 216.018 22.372 216.766 21.08C217.537 19.7653 218.58 18.7453 219.894 18.02C221.232 17.272 222.75 16.898 224.45 16.898C225.697 16.898 226.83 17.102 227.85 17.51C228.87 17.8953 229.743 18.4733 230.468 19.244C231.194 19.992 231.738 20.8987 232.1 21.964C232.486 23.0293 232.678 24.2193 232.678 25.534C232.678 25.9873 232.554 26.3273 232.304 26.554C232.055 26.758 231.658 26.86 231.114 26.86H220.71V24.004H228.258L227.714 24.446C227.714 23.6073 227.601 22.9273 227.374 22.406C227.148 21.8847 226.808 21.488 226.354 21.216C225.924 20.944 225.38 20.808 224.722 20.808C224.02 20.808 223.408 20.978 222.886 21.318C222.388 21.6353 222.002 22.1113 221.73 22.746C221.458 23.3807 221.322 24.174 221.322 25.126V25.432C221.322 27.0413 221.674 28.1973 222.376 28.9C223.102 29.58 224.212 29.92 225.708 29.92C226.207 29.92 226.774 29.8633 227.408 29.75C228.066 29.614 228.689 29.4327 229.278 29.206C229.868 28.9793 230.378 28.9453 230.808 29.104C231.239 29.24 231.568 29.4893 231.794 29.852C232.044 30.192 232.18 30.5887 232.202 31.042C232.225 31.4727 232.123 31.9033 231.896 32.334C231.67 32.742 231.296 33.0593 230.774 33.286C229.981 33.6487 229.131 33.9207 228.224 34.102C227.34 34.2833 226.445 34.374 225.538 34.374ZM241.95 34.374C240.952 34.374 239.932 34.2947 238.89 34.136C237.87 34 236.94 33.7393 236.102 33.354C235.535 33.1273 235.127 32.8213 234.878 32.436C234.651 32.0507 234.538 31.6427 234.538 31.212C234.56 30.7813 234.685 30.396 234.912 30.056C235.161 29.6933 235.478 29.444 235.864 29.308C236.272 29.1493 236.725 29.1607 237.224 29.342C238.176 29.682 239.026 29.9313 239.774 30.09C240.544 30.226 241.281 30.294 241.984 30.294C242.822 30.294 243.423 30.1807 243.786 29.954C244.148 29.7047 244.33 29.3873 244.33 29.002C244.33 28.662 244.205 28.4013 243.956 28.22C243.729 28.0387 243.4 27.914 242.97 27.846L239.196 27.234C237.79 26.9847 236.702 26.4747 235.932 25.704C235.161 24.9107 234.776 23.8793 234.776 22.61C234.776 21.4313 235.104 20.4227 235.762 19.584C236.442 18.7227 237.36 18.0653 238.516 17.612C239.694 17.136 241.043 16.898 242.562 16.898C243.582 16.898 244.511 16.9773 245.35 17.136C246.188 17.272 247.004 17.5327 247.798 17.918C248.296 18.122 248.648 18.4167 248.852 18.802C249.056 19.1873 249.135 19.5953 249.09 20.026C249.044 20.434 248.897 20.8193 248.648 21.182C248.421 21.522 248.104 21.76 247.696 21.896C247.288 22.0093 246.812 21.9753 246.268 21.794C245.52 21.4993 244.851 21.284 244.262 21.148C243.695 21.012 243.162 20.944 242.664 20.944C241.734 20.944 241.077 21.0687 240.692 21.318C240.306 21.5673 240.114 21.8847 240.114 22.27C240.114 22.5647 240.216 22.814 240.42 23.018C240.624 23.1993 240.941 23.324 241.372 23.392L245.146 24.038C246.596 24.2647 247.707 24.7633 248.478 25.534C249.271 26.282 249.668 27.302 249.668 28.594C249.668 30.43 248.965 31.858 247.56 32.878C246.154 33.8753 244.284 34.374 241.95 34.374ZM260.759 34.374C259.059 34.374 257.653 34.1133 256.543 33.592C255.455 33.0707 254.639 32.2887 254.095 31.246C253.551 30.1807 253.279 28.8547 253.279 27.268V21.726H252.123C251.397 21.726 250.831 21.5333 250.423 21.148C250.037 20.7627 249.845 20.2073 249.845 19.482C249.845 18.7567 250.037 18.2127 250.423 17.85C250.831 17.4647 251.397 17.272 252.123 17.272H253.279V15.164C253.279 14.1667 253.539 13.4073 254.061 12.886C254.582 12.3647 255.33 12.104 256.305 12.104C257.279 12.104 258.027 12.3647 258.549 12.886C259.07 13.4073 259.331 14.1667 259.331 15.164V17.272H262.119C262.867 17.272 263.433 17.4647 263.819 17.85C264.227 18.2127 264.431 18.7567 264.431 19.482C264.431 20.2073 264.227 20.7627 263.819 21.148C263.433 21.5333 262.867 21.726 262.119 21.726H259.331V27.064C259.331 27.9027 259.523 28.526 259.909 28.934C260.317 29.3193 260.951 29.512 261.813 29.512C262.13 29.512 262.436 29.478 262.731 29.41C263.025 29.342 263.297 29.308 263.547 29.308C263.909 29.2853 264.204 29.3987 264.431 29.648C264.657 29.8747 264.771 30.4073 264.771 31.246C264.771 31.926 264.669 32.504 264.465 32.98C264.261 33.4333 263.898 33.762 263.377 33.966C263.059 34.0793 262.629 34.17 262.085 34.238C261.541 34.3287 261.099 34.374 260.759 34.374ZM279.728 34.306C278.73 34.306 277.96 34.034 277.416 33.49C276.872 32.9233 276.6 32.13 276.6 31.11V12.92C276.6 11.8773 276.872 11.084 277.416 10.54C277.96 9.996 278.73 9.724 279.728 9.724C280.748 9.724 281.518 9.996 282.04 10.54C282.584 11.084 282.856 11.8773 282.856 12.92V31.11C282.856 32.13 282.595 32.9233 282.074 33.49C281.552 34.034 280.77 34.306 279.728 34.306ZM289.776 34.306C288.824 34.306 288.087 34.0453 287.566 33.524C287.044 33.0027 286.784 32.2433 286.784 31.246V19.992C286.784 19.0173 287.033 18.2693 287.532 17.748C288.053 17.2267 288.79 16.966 289.742 16.966C290.694 16.966 291.419 17.2267 291.918 17.748C292.416 18.2693 292.666 19.0173 292.666 19.992V21.59L292.292 20.196C292.836 19.1307 293.606 18.3147 294.604 17.748C295.624 17.1813 296.78 16.898 298.072 16.898C299.409 16.898 300.508 17.1587 301.37 17.68C302.231 18.1787 302.877 18.972 303.308 20.06C303.738 21.1253 303.954 22.474 303.954 24.106V31.246C303.954 32.2433 303.693 33.0027 303.172 33.524C302.65 34.0453 301.902 34.306 300.928 34.306C299.953 34.306 299.205 34.0453 298.684 33.524C298.162 33.0027 297.902 32.2433 297.902 31.246V24.344C297.902 23.324 297.72 22.5987 297.358 22.168C297.018 21.7373 296.508 21.522 295.828 21.522C294.921 21.522 294.196 21.8167 293.652 22.406C293.108 22.9727 292.836 23.7433 292.836 24.718V31.246C292.836 33.286 291.816 34.306 289.776 34.306ZM316.175 34.374C314.475 34.374 313.069 34.1133 311.959 33.592C310.871 33.0707 310.055 32.2887 309.511 31.246C308.967 30.1807 308.695 28.8547 308.695 27.268V21.726H307.539C306.813 21.726 306.247 21.5333 305.839 21.148C305.453 20.7627 305.261 20.2073 305.261 19.482C305.261 18.7567 305.453 18.2127 305.839 17.85C306.247 17.4647 306.813 17.272 307.539 17.272H308.695V15.164C308.695 14.1667 308.955 13.4073 309.477 12.886C309.998 12.3647 310.746 12.104 311.721 12.104C312.695 12.104 313.443 12.3647 313.965 12.886C314.486 13.4073 314.747 14.1667 314.747 15.164V17.272H317.535C318.283 17.272 318.849 17.4647 319.235 17.85C319.643 18.2127 319.847 18.7567 319.847 19.482C319.847 20.2073 319.643 20.7627 319.235 21.148C318.849 21.5333 318.283 21.726 317.535 21.726H314.747V27.064C314.747 27.9027 314.939 28.526 315.325 28.934C315.733 29.3193 316.367 29.512 317.229 29.512C317.546 29.512 317.852 29.478 318.147 29.41C318.441 29.342 318.713 29.308 318.963 29.308C319.325 29.2853 319.62 29.3987 319.847 29.648C320.073 29.8747 320.187 30.4073 320.187 31.246C320.187 31.926 320.085 32.504 319.881 32.98C319.677 33.4333 319.314 33.762 318.793 33.966C318.475 34.0793 318.045 34.17 317.501 34.238C316.957 34.3287 316.515 34.374 316.175 34.374ZM330.825 34.374C328.785 34.374 327.017 34.0227 325.521 33.32C324.048 32.5947 322.915 31.5747 322.121 30.26C321.328 28.9453 320.931 27.3927 320.931 25.602C320.931 23.8793 321.305 22.372 322.053 21.08C322.824 19.7653 323.867 18.7453 325.181 18.02C326.519 17.272 328.037 16.898 329.737 16.898C330.984 16.898 332.117 17.102 333.137 17.51C334.157 17.8953 335.03 18.4733 335.755 19.244C336.481 19.992 337.025 20.8987 337.387 21.964C337.773 23.0293 337.965 24.2193 337.965 25.534C337.965 25.9873 337.841 26.3273 337.591 26.554C337.342 26.758 336.945 26.86 336.401 26.86H325.997V24.004H333.545L333.001 24.446C333.001 23.6073 332.888 22.9273 332.661 22.406C332.435 21.8847 332.095 21.488 331.641 21.216C331.211 20.944 330.667 20.808 330.009 20.808C329.307 20.808 328.695 20.978 328.173 21.318C327.675 21.6353 327.289 22.1113 327.017 22.746C326.745 23.3807 326.609 24.174 326.609 25.126V25.432C326.609 27.0413 326.961 28.1973 327.663 28.9C328.389 29.58 329.499 29.92 330.995 29.92C331.494 29.92 332.061 29.8633 332.695 29.75C333.353 29.614 333.976 29.4327 334.565 29.206C335.155 28.9793 335.665 28.9453 336.095 29.104C336.526 29.24 336.855 29.4893 337.081 29.852C337.331 30.192 337.467 30.5887 337.489 31.042C337.512 31.4727 337.41 31.9033 337.183 32.334C336.957 32.742 336.583 33.0593 336.061 33.286C335.268 33.6487 334.418 33.9207 333.511 34.102C332.627 34.2833 331.732 34.374 330.825 34.374ZM343.667 34.306C342.669 34.306 341.899 34.0453 341.355 33.524C340.833 33.0027 340.573 32.2433 340.573 31.246V19.992C340.573 19.0173 340.822 18.2693 341.321 17.748C341.842 17.2267 342.579 16.966 343.531 16.966C344.483 16.966 345.208 17.2267 345.707 17.748C346.205 18.2693 346.455 19.0173 346.455 19.992V21.386H346.115C346.341 20.026 346.919 18.9493 347.849 18.156C348.801 17.3627 349.979 16.9433 351.385 16.898C352.042 16.8753 352.529 17.0453 352.847 17.408C353.187 17.748 353.368 18.394 353.391 19.346C353.391 20.162 353.221 20.808 352.881 21.284C352.541 21.76 351.895 22.0433 350.943 22.134L350.161 22.202C348.959 22.3153 348.087 22.6553 347.543 23.222C346.999 23.766 346.727 24.582 346.727 25.67V31.246C346.727 32.2433 346.466 33.0027 345.945 33.524C345.423 34.0453 344.664 34.306 343.667 34.306ZM363.312 40.494C362.065 40.494 360.898 40.4033 359.81 40.222C358.722 40.0633 357.781 39.8253 356.988 39.508C356.331 39.2813 355.866 38.9527 355.594 38.522C355.322 38.0913 355.197 37.638 355.22 37.162C355.243 36.686 355.367 36.2553 355.594 35.87C355.843 35.4847 356.172 35.2013 356.58 35.02C356.988 34.8613 357.441 34.8727 357.94 35.054C358.937 35.462 359.844 35.7227 360.66 35.836C361.476 35.972 362.167 36.04 362.734 36.04C364.117 36.04 365.148 35.7453 365.828 35.156C366.531 34.5893 366.882 33.694 366.882 32.47V30.328H367.154C366.814 31.28 366.123 32.062 365.08 32.674C364.037 33.2633 362.904 33.558 361.68 33.558C360.184 33.558 358.881 33.218 357.77 32.538C356.659 31.8353 355.787 30.8607 355.152 29.614C354.54 28.3673 354.234 26.9053 354.234 25.228C354.234 23.9587 354.415 22.814 354.778 21.794C355.141 20.774 355.639 19.9013 356.274 19.176C356.931 18.4507 357.713 17.8953 358.62 17.51C359.549 17.102 360.569 16.898 361.68 16.898C362.949 16.898 364.083 17.1927 365.08 17.782C366.1 18.3713 366.78 19.142 367.12 20.094L366.78 21.488V19.992C366.78 19.0173 367.041 18.2693 367.562 17.748C368.106 17.2267 368.854 16.966 369.806 16.966C370.758 16.966 371.483 17.2267 371.982 17.748C372.503 18.2693 372.764 19.0173 372.764 19.992V31.756C372.764 34.6573 371.948 36.8333 370.316 38.284C368.684 39.7573 366.349 40.494 363.312 40.494ZM363.55 29.104C364.23 29.104 364.808 28.9567 365.284 28.662C365.76 28.3447 366.134 27.9027 366.406 27.336C366.678 26.7467 366.814 26.044 366.814 25.228C366.814 24.004 366.519 23.052 365.93 22.372C365.341 21.692 364.547 21.352 363.55 21.352C362.915 21.352 362.349 21.5107 361.85 21.828C361.351 22.1227 360.966 22.5647 360.694 23.154C360.445 23.7207 360.32 24.412 360.32 25.228C360.32 26.452 360.615 27.404 361.204 28.084C361.793 28.764 362.575 29.104 363.55 29.104ZM385.411 34.374C383.371 34.374 381.603 34.0227 380.107 33.32C378.634 32.5947 377.501 31.5747 376.707 30.26C375.914 28.9453 375.517 27.3927 375.517 25.602C375.517 23.8793 375.891 22.372 376.639 21.08C377.41 19.7653 378.453 18.7453 379.767 18.02C381.105 17.272 382.623 16.898 384.323 16.898C385.57 16.898 386.703 17.102 387.723 17.51C388.743 17.8953 389.616 18.4733 390.341 19.244C391.067 19.992 391.611 20.8987 391.973 21.964C392.359 23.0293 392.551 24.2193 392.551 25.534C392.551 25.9873 392.427 26.3273 392.177 26.554C391.928 26.758 391.531 26.86 390.987 26.86H380.583V24.004H388.131L387.587 24.446C387.587 23.6073 387.474 22.9273 387.247 22.406C387.021 21.8847 386.681 21.488 386.227 21.216C385.797 20.944 385.253 20.808 384.595 20.808C383.893 20.808 383.281 20.978 382.759 21.318C382.261 21.6353 381.875 22.1113 381.603 22.746C381.331 23.3807 381.195 24.174 381.195 25.126V25.432C381.195 27.0413 381.547 28.1973 382.249 28.9C382.975 29.58 384.085 29.92 385.581 29.92C386.08 29.92 386.647 29.8633 387.281 29.75C387.939 29.614 388.562 29.4327 389.151 29.206C389.741 28.9793 390.251 28.9453 390.681 29.104C391.112 29.24 391.441 29.4893 391.667 29.852C391.917 30.192 392.053 30.5887 392.075 31.042C392.098 31.4727 391.996 31.9033 391.769 32.334C391.543 32.742 391.169 33.0593 390.647 33.286C389.854 33.6487 389.004 33.9207 388.097 34.102C387.213 34.2833 386.318 34.374 385.411 34.374ZM398.151 34.306C397.199 34.306 396.462 34.0453 395.941 33.524C395.419 33.0027 395.159 32.2433 395.159 31.246V19.992C395.159 19.0173 395.408 18.2693 395.907 17.748C396.428 17.2267 397.165 16.966 398.117 16.966C399.069 16.966 399.794 17.2267 400.293 17.748C400.791 18.2693 401.041 19.0173 401.041 19.992V21.59L400.667 20.196C401.211 19.1307 401.981 18.3147 402.979 17.748C403.999 17.1813 405.155 16.898 406.447 16.898C407.784 16.898 408.883 17.1587 409.745 17.68C410.606 18.1787 411.252 18.972 411.683 20.06C412.113 21.1253 412.329 22.474 412.329 24.106V31.246C412.329 32.2433 412.068 33.0027 411.547 33.524C411.025 34.0453 410.277 34.306 409.303 34.306C408.328 34.306 407.58 34.0453 407.059 33.524C406.537 33.0027 406.277 32.2433 406.277 31.246V24.344C406.277 23.324 406.095 22.5987 405.733 22.168C405.393 21.7373 404.883 21.522 404.203 21.522C403.296 21.522 402.571 21.8167 402.027 22.406C401.483 22.9727 401.211 23.7433 401.211 24.718V31.246C401.211 33.286 400.191 34.306 398.151 34.306ZM424.89 34.374C422.85 34.374 421.082 34.0227 419.586 33.32C418.112 32.5947 416.979 31.5747 416.186 30.26C415.392 28.9453 414.996 27.3927 414.996 25.602C414.996 23.8793 415.37 22.372 416.118 21.08C416.888 19.7653 417.931 18.7453 419.246 18.02C420.583 17.272 422.102 16.898 423.802 16.898C425.048 16.898 426.182 17.102 427.202 17.51C428.222 17.8953 429.094 18.4733 429.82 19.244C430.545 19.992 431.089 20.8987 431.452 21.964C431.837 23.0293 432.03 24.2193 432.03 25.534C432.03 25.9873 431.905 26.3273 431.656 26.554C431.406 26.758 431.01 26.86 430.466 26.86H420.062V24.004H427.61L427.066 24.446C427.066 23.6073 426.952 22.9273 426.726 22.406C426.499 21.8847 426.159 21.488 425.706 21.216C425.275 20.944 424.731 20.808 424.074 20.808C423.371 20.808 422.759 20.978 422.238 21.318C421.739 21.6353 421.354 22.1113 421.082 22.746C420.81 23.3807 420.674 24.174 420.674 25.126V25.432C420.674 27.0413 421.025 28.1973 421.728 28.9C422.453 29.58 423.564 29.92 425.06 29.92C425.558 29.92 426.125 29.8633 426.76 29.75C427.417 29.614 428.04 29.4327 428.63 29.206C429.219 28.9793 429.729 28.9453 430.16 29.104C430.59 29.24 430.919 29.4893 431.146 29.852C431.395 30.192 431.531 30.5887 431.554 31.042C431.576 31.4727 431.474 31.9033 431.248 32.334C431.021 32.742 430.647 33.0593 430.126 33.286C429.332 33.6487 428.482 33.9207 427.576 34.102C426.692 34.2833 425.796 34.374 424.89 34.374ZM437.731 34.306C436.734 34.306 435.963 34.0453 435.419 33.524C434.898 33.0027 434.637 32.2433 434.637 31.246V19.992C434.637 19.0173 434.886 18.2693 435.385 17.748C435.906 17.2267 436.643 16.966 437.595 16.966C438.547 16.966 439.272 17.2267 439.771 17.748C440.27 18.2693 440.519 19.0173 440.519 19.992V21.386H440.179C440.406 20.026 440.984 18.9493 441.913 18.156C442.865 17.3627 444.044 16.9433 445.449 16.898C446.106 16.8753 446.594 17.0453 446.911 17.408C447.251 17.748 447.432 18.394 447.455 19.346C447.455 20.162 447.285 20.808 446.945 21.284C446.605 21.76 445.959 22.0433 445.007 22.134L444.225 22.202C443.024 22.3153 442.151 22.6553 441.607 23.222C441.063 23.766 440.791 24.582 440.791 25.67V31.246C440.791 32.2433 440.53 33.0027 440.009 33.524C439.488 34.0453 438.728 34.306 437.731 34.306ZM455.027 34.374C453.735 34.374 452.591 34.136 451.593 33.66C450.619 33.184 449.848 32.538 449.281 31.722C448.737 30.8833 448.465 29.9313 448.465 28.866C448.465 27.642 448.783 26.6787 449.417 25.976C450.052 25.2733 451.072 24.7747 452.477 24.48C453.883 24.1627 455.753 24.004 458.087 24.004H459.957V26.86H458.087C457.203 26.86 456.467 26.928 455.877 27.064C455.311 27.1773 454.891 27.37 454.619 27.642C454.347 27.8913 454.211 28.22 454.211 28.628C454.211 29.1493 454.393 29.58 454.755 29.92C455.141 30.26 455.685 30.43 456.387 30.43C456.954 30.43 457.453 30.3053 457.883 30.056C458.337 29.8067 458.699 29.4667 458.971 29.036C459.243 28.5827 459.379 28.0613 459.379 27.472V23.528C459.379 22.712 459.164 22.134 458.733 21.794C458.325 21.454 457.611 21.284 456.591 21.284C456.047 21.284 455.435 21.352 454.755 21.488C454.075 21.6013 453.316 21.8167 452.477 22.134C451.865 22.3607 451.344 22.3947 450.913 22.236C450.483 22.0773 450.143 21.8053 449.893 21.42C449.667 21.0347 449.553 20.6153 449.553 20.162C449.576 19.7087 449.723 19.278 449.995 18.87C450.29 18.462 450.732 18.1447 451.321 17.918C452.409 17.51 453.407 17.238 454.313 17.102C455.243 16.966 456.093 16.898 456.863 16.898C458.722 16.898 460.252 17.17 461.453 17.714C462.677 18.2353 463.584 19.0513 464.173 20.162C464.785 21.25 465.091 22.6553 465.091 24.378V31.246C465.091 32.2433 464.853 33.0027 464.377 33.524C463.901 34.0453 463.21 34.306 462.303 34.306C461.374 34.306 460.66 34.0453 460.161 33.524C459.685 33.0027 459.447 32.2433 459.447 31.246V30.362L459.651 30.838C459.538 31.5633 459.277 32.1867 458.869 32.708C458.461 33.2293 457.929 33.6373 457.271 33.932C456.614 34.2267 455.866 34.374 455.027 34.374ZM477.31 34.374C475.61 34.374 474.204 34.1133 473.094 33.592C472.006 33.0707 471.19 32.2887 470.646 31.246C470.102 30.1807 469.83 28.8547 469.83 27.268V21.726H468.674C467.948 21.726 467.382 21.5333 466.974 21.148C466.588 20.7627 466.396 20.2073 466.396 19.482C466.396 18.7567 466.588 18.2127 466.974 17.85C467.382 17.4647 467.948 17.272 468.674 17.272H469.83V15.164C469.83 14.1667 470.09 13.4073 470.612 12.886C471.133 12.3647 471.881 12.104 472.856 12.104C473.83 12.104 474.578 12.3647 475.1 12.886C475.621 13.4073 475.882 14.1667 475.882 15.164V17.272H478.67C479.418 17.272 479.984 17.4647 480.37 17.85C480.778 18.2127 480.982 18.7567 480.982 19.482C480.982 20.2073 480.778 20.7627 480.37 21.148C479.984 21.5333 479.418 21.726 478.67 21.726H475.882V27.064C475.882 27.9027 476.074 28.526 476.46 28.934C476.868 29.3193 477.502 29.512 478.364 29.512C478.681 29.512 478.987 29.478 479.282 29.41C479.576 29.342 479.848 29.308 480.098 29.308C480.46 29.2853 480.755 29.3987 480.982 29.648C481.208 29.8747 481.322 30.4073 481.322 31.246C481.322 31.926 481.22 32.504 481.016 32.98C480.812 33.4333 480.449 33.762 479.928 33.966C479.61 34.0793 479.18 34.17 478.636 34.238C478.092 34.3287 477.65 34.374 477.31 34.374ZM486.604 34.306C485.652 34.306 484.915 34.0227 484.394 33.456C483.872 32.8893 483.612 32.0733 483.612 31.008V20.264C483.612 19.1987 483.872 18.3827 484.394 17.816C484.915 17.2493 485.652 16.966 486.604 16.966C487.578 16.966 488.326 17.2493 488.848 17.816C489.392 18.3827 489.664 19.1987 489.664 20.264V31.008C489.664 32.0733 489.403 32.8893 488.882 33.456C488.36 34.0227 487.601 34.306 486.604 34.306ZM486.604 14.552C485.538 14.552 484.711 14.3027 484.122 13.804C483.555 13.3053 483.272 12.58 483.272 11.628C483.272 10.6987 483.555 9.98467 484.122 9.486C484.711 8.98733 485.538 8.738 486.604 8.738C487.714 8.738 488.553 8.98733 489.12 9.486C489.686 9.98467 489.97 10.6987 489.97 11.628C489.97 12.58 489.686 13.3053 489.12 13.804C488.553 14.3027 487.714 14.552 486.604 14.552ZM501.64 34.374C499.782 34.374 498.161 34.0227 496.778 33.32C495.396 32.6173 494.319 31.6087 493.548 30.294C492.778 28.9793 492.392 27.4267 492.392 25.636C492.392 24.276 492.608 23.0633 493.038 21.998C493.469 20.91 494.092 19.992 494.908 19.244C495.724 18.4733 496.699 17.8953 497.832 17.51C498.966 17.102 500.235 16.898 501.64 16.898C503.499 16.898 505.12 17.2493 506.502 17.952C507.885 18.6547 508.95 19.6633 509.698 20.978C510.469 22.27 510.854 23.8227 510.854 25.636C510.854 26.9733 510.639 28.186 510.208 29.274C509.778 30.362 509.154 31.2913 508.338 32.062C507.545 32.81 506.57 33.388 505.414 33.796C504.281 34.1813 503.023 34.374 501.64 34.374ZM501.64 29.92C502.252 29.92 502.796 29.7727 503.272 29.478C503.748 29.1607 504.111 28.696 504.36 28.084C504.632 27.4493 504.768 26.6333 504.768 25.636C504.768 24.1173 504.474 23.0293 503.884 22.372C503.295 21.692 502.547 21.352 501.64 21.352C501.028 21.352 500.484 21.4993 500.008 21.794C499.532 22.0887 499.158 22.5533 498.886 23.188C498.614 23.8 498.478 24.616 498.478 25.636C498.478 27.132 498.773 28.22 499.362 28.9C499.952 29.58 500.711 29.92 501.64 29.92ZM516.619 34.306C515.667 34.306 514.931 34.0453 514.409 33.524C513.888 33.0027 513.627 32.2433 513.627 31.246V19.992C513.627 19.0173 513.877 18.2693 514.375 17.748C514.897 17.2267 515.633 16.966 516.585 16.966C517.537 16.966 518.263 17.2267 518.761 17.748C519.26 18.2693 519.509 19.0173 519.509 19.992V21.59L519.135 20.196C519.679 19.1307 520.45 18.3147 521.447 17.748C522.467 17.1813 523.623 16.898 524.915 16.898C526.253 16.898 527.352 17.1587 528.213 17.68C529.075 18.1787 529.721 18.972 530.151 20.06C530.582 21.1253 530.797 22.474 530.797 24.106V31.246C530.797 32.2433 530.537 33.0027 530.015 33.524C529.494 34.0453 528.746 34.306 527.771 34.306C526.797 34.306 526.049 34.0453 525.527 33.524C525.006 33.0027 524.745 32.2433 524.745 31.246V24.344C524.745 23.324 524.564 22.5987 524.201 22.168C523.861 21.7373 523.351 21.522 522.671 21.522C521.765 21.522 521.039 21.8167 520.495 22.406C519.951 22.9727 519.679 23.7433 519.679 24.718V31.246C519.679 33.286 518.659 34.306 516.619 34.306ZM540.061 34.374C538.769 34.374 537.624 34.136 536.627 33.66C535.652 33.184 534.881 32.538 534.315 31.722C533.771 30.8833 533.499 29.9313 533.499 28.866C533.499 27.642 533.816 26.6787 534.451 25.976C535.085 25.2733 536.105 24.7747 537.511 24.48C538.916 24.1627 540.786 24.004 543.121 24.004H544.991V26.86H543.121C542.237 26.86 541.5 26.928 540.911 27.064C540.344 27.1773 539.925 27.37 539.653 27.642C539.381 27.8913 539.245 28.22 539.245 28.628C539.245 29.1493 539.426 29.58 539.789 29.92C540.174 30.26 540.718 30.43 541.421 30.43C541.987 30.43 542.486 30.3053 542.917 30.056C543.37 29.8067 543.733 29.4667 544.005 29.036C544.277 28.5827 544.413 28.0613 544.413 27.472V23.528C544.413 22.712 544.197 22.134 543.767 21.794C543.359 21.454 542.645 21.284 541.625 21.284C541.081 21.284 540.469 21.352 539.789 21.488C539.109 21.6013 538.349 21.8167 537.511 22.134C536.899 22.3607 536.377 22.3947 535.947 22.236C535.516 22.0773 535.176 21.8053 534.927 21.42C534.7 21.0347 534.587 20.6153 534.587 20.162C534.609 19.7087 534.757 19.278 535.029 18.87C535.323 18.462 535.765 18.1447 536.355 17.918C537.443 17.51 538.44 17.238 539.347 17.102C540.276 16.966 541.126 16.898 541.897 16.898C543.755 16.898 545.285 17.17 546.487 17.714C547.711 18.2353 548.617 19.0513 549.207 20.162C549.819 21.25 550.125 22.6553 550.125 24.378V31.246C550.125 32.2433 549.887 33.0027 549.411 33.524C548.935 34.0453 548.243 34.306 547.337 34.306C546.407 34.306 545.693 34.0453 545.195 33.524C544.719 33.0027 544.481 32.2433 544.481 31.246V30.362L544.685 30.838C544.571 31.5633 544.311 32.1867 543.903 32.708C543.495 33.2293 542.962 33.6373 542.305 33.932C541.647 34.2267 540.899 34.374 540.061 34.374ZM559.929 34.374C557.753 34.374 556.143 33.796 555.101 32.64C554.081 31.4613 553.571 29.6933 553.571 27.336V12.784C553.571 11.7867 553.831 11.0273 554.353 10.506C554.874 9.98467 555.611 9.724 556.563 9.724C557.537 9.724 558.285 9.98467 558.807 10.506C559.351 11.0273 559.623 11.7867 559.623 12.784V27.132C559.623 27.9707 559.781 28.5827 560.099 28.968C560.439 29.3533 560.869 29.546 561.391 29.546C561.549 29.546 561.708 29.5347 561.867 29.512C562.048 29.4667 562.241 29.4327 562.445 29.41C562.83 29.41 563.113 29.5573 563.295 29.852C563.499 30.1467 563.601 30.7473 563.601 31.654C563.601 32.4473 563.442 33.048 563.125 33.456C562.807 33.8413 562.32 34.0907 561.663 34.204C561.481 34.2267 561.221 34.2607 560.881 34.306C560.541 34.3513 560.223 34.374 559.929 34.374ZM587.632 34.374C584.98 34.374 582.702 33.864 580.798 32.844C578.894 31.824 577.432 30.3847 576.412 28.526C575.414 26.6673 574.916 24.4913 574.916 21.998C574.916 20.1393 575.199 18.4507 575.766 16.932C576.355 15.4133 577.194 14.11 578.282 13.022C579.392 11.934 580.73 11.1067 582.294 10.54C583.88 9.95067 585.66 9.656 587.632 9.656C588.674 9.656 589.751 9.78067 590.862 10.03C591.995 10.2567 592.992 10.608 593.854 11.084C594.488 11.424 594.93 11.8547 595.18 12.376C595.429 12.8973 595.508 13.43 595.418 13.974C595.35 14.518 595.157 15.0053 594.84 15.436C594.522 15.8667 594.114 16.1613 593.616 16.32C593.117 16.456 592.573 16.3767 591.984 16.082C591.304 15.7647 590.624 15.5267 589.944 15.368C589.286 15.1867 588.595 15.096 587.87 15.096C586.464 15.096 585.286 15.368 584.334 15.912C583.404 16.4333 582.702 17.204 582.226 18.224C581.75 19.244 581.512 20.502 581.512 21.998C581.512 23.494 581.75 24.7633 582.226 25.806C582.702 26.826 583.404 27.608 584.334 28.152C585.286 28.6733 586.464 28.934 587.87 28.934C588.459 28.934 589.094 28.866 589.774 28.73C590.454 28.5713 591.122 28.3333 591.78 28.016C592.46 27.7213 593.06 27.642 593.582 27.778C594.126 27.914 594.556 28.186 594.874 28.594C595.214 29.002 595.429 29.478 595.52 30.022C595.61 30.5433 595.531 31.0647 595.282 31.586C595.055 32.1073 594.647 32.5267 594.058 32.844C593.264 33.32 592.278 33.694 591.1 33.966C589.944 34.238 588.788 34.374 587.632 34.374ZM605.798 34.374C603.94 34.374 602.319 34.0227 600.936 33.32C599.554 32.6173 598.477 31.6087 597.706 30.294C596.936 28.9793 596.55 27.4267 596.55 25.636C596.55 24.276 596.766 23.0633 597.196 21.998C597.627 20.91 598.25 19.992 599.066 19.244C599.882 18.4733 600.857 17.8953 601.99 17.51C603.124 17.102 604.393 16.898 605.798 16.898C607.657 16.898 609.278 17.2493 610.66 17.952C612.043 18.6547 613.108 19.6633 613.856 20.978C614.627 22.27 615.012 23.8227 615.012 25.636C615.012 26.9733 614.797 28.186 614.366 29.274C613.936 30.362 613.312 31.2913 612.496 32.062C611.703 32.81 610.728 33.388 609.572 33.796C608.439 34.1813 607.181 34.374 605.798 34.374ZM605.798 29.92C606.41 29.92 606.954 29.7727 607.43 29.478C607.906 29.1607 608.269 28.696 608.518 28.084C608.79 27.4493 608.926 26.6333 608.926 25.636C608.926 24.1173 608.632 23.0293 608.042 22.372C607.453 21.692 606.705 21.352 605.798 21.352C605.186 21.352 604.642 21.4993 604.166 21.794C603.69 22.0887 603.316 22.5533 603.044 23.188C602.772 23.8 602.636 24.616 602.636 25.636C602.636 27.132 602.931 28.22 603.52 28.9C604.11 29.58 604.869 29.92 605.798 29.92ZM620.732 27.234C620.052 27.234 619.485 27.0073 619.032 26.554C618.578 26.1007 618.352 25.534 618.352 24.854C618.352 24.174 618.578 23.6187 619.032 23.188C619.485 22.7347 620.052 22.508 620.732 22.508H627.464C628.144 22.508 628.71 22.7347 629.164 23.188C629.617 23.6187 629.844 24.174 629.844 24.854C629.844 25.534 629.617 26.1007 629.164 26.554C628.71 27.0073 628.144 27.234 627.464 27.234H620.732ZM634.423 34.306C633.72 34.306 633.131 34.1473 632.655 33.83C632.179 33.49 631.884 33.0367 631.771 32.47C631.658 31.8807 631.76 31.2233 632.077 30.498L640.543 12.274C640.951 11.39 641.45 10.744 642.039 10.336C642.651 9.928 643.342 9.724 644.113 9.724C644.884 9.724 645.552 9.928 646.119 10.336C646.708 10.744 647.218 11.39 647.649 12.274L656.115 30.498C656.478 31.2233 656.602 31.8807 656.489 32.47C656.398 33.0593 656.115 33.5127 655.639 33.83C655.186 34.1473 654.619 34.306 653.939 34.306C653.032 34.306 652.33 34.102 651.831 33.694C651.355 33.286 650.924 32.6287 650.539 31.722L648.703 27.404L651.083 29.138H637.075L639.489 27.404L637.653 31.722C637.245 32.6287 636.826 33.286 636.395 33.694C635.964 34.102 635.307 34.306 634.423 34.306ZM644.045 16.558L640.101 25.976L639.149 24.344H649.043L648.091 25.976L644.113 16.558H644.045ZM665.081 34.374C663.63 34.374 662.44 34.1133 661.511 33.592C660.581 33.048 659.879 32.2433 659.403 31.178C658.949 30.1127 658.723 28.764 658.723 27.132V19.992C658.723 18.9947 658.983 18.2467 659.505 17.748C660.026 17.2267 660.774 16.966 661.749 16.966C662.723 16.966 663.471 17.2267 663.993 17.748C664.514 18.2467 664.775 18.9947 664.775 19.992V27.302C664.775 28.118 664.945 28.73 665.285 29.138C665.625 29.546 666.157 29.75 666.883 29.75C667.699 29.75 668.367 29.4553 668.889 28.866C669.41 28.2767 669.671 27.4947 669.671 26.52V19.992C669.671 18.9947 669.931 18.2467 670.453 17.748C670.974 17.2267 671.722 16.966 672.697 16.966C673.671 16.966 674.419 17.2267 674.941 17.748C675.462 18.2467 675.723 18.9947 675.723 19.992V31.246C675.723 33.286 674.748 34.306 672.799 34.306C671.847 34.306 671.11 34.0453 670.589 33.524C670.067 33.0027 669.807 32.2433 669.807 31.246V29.274L670.351 30.94C669.852 32.0507 669.149 32.9007 668.243 33.49C667.359 34.0793 666.305 34.374 665.081 34.374ZM688.017 34.374C686.317 34.374 684.911 34.1133 683.801 33.592C682.713 33.0707 681.897 32.2887 681.353 31.246C680.809 30.1807 680.537 28.8547 680.537 27.268V21.726H679.381C678.655 21.726 678.089 21.5333 677.681 21.148C677.295 20.7627 677.103 20.2073 677.103 19.482C677.103 18.7567 677.295 18.2127 677.681 17.85C678.089 17.4647 678.655 17.272 679.381 17.272H680.537V15.164C680.537 14.1667 680.797 13.4073 681.319 12.886C681.84 12.3647 682.588 12.104 683.563 12.104C684.537 12.104 685.285 12.3647 685.807 12.886C686.328 13.4073 686.589 14.1667 686.589 15.164V17.272H689.377C690.125 17.272 690.691 17.4647 691.077 17.85C691.485 18.2127 691.689 18.7567 691.689 19.482C691.689 20.2073 691.485 20.7627 691.077 21.148C690.691 21.5333 690.125 21.726 689.377 21.726H686.589V27.064C686.589 27.9027 686.781 28.526 687.167 28.934C687.575 29.3193 688.209 29.512 689.071 29.512C689.388 29.512 689.694 29.478 689.989 29.41C690.283 29.342 690.555 29.308 690.805 29.308C691.167 29.2853 691.462 29.3987 691.689 29.648C691.915 29.8747 692.029 30.4073 692.029 31.246C692.029 31.926 691.927 32.504 691.723 32.98C691.519 33.4333 691.156 33.762 690.635 33.966C690.317 34.0793 689.887 34.17 689.343 34.238C688.799 34.3287 688.357 34.374 688.017 34.374ZM697.311 34.306C696.359 34.306 695.622 34.0453 695.101 33.524C694.579 33.0027 694.319 32.2433 694.319 31.246V12.784C694.319 11.7867 694.579 11.0273 695.101 10.506C695.622 9.98467 696.359 9.724 697.311 9.724C698.285 9.724 699.033 9.98467 699.555 10.506C700.099 11.0273 700.371 11.7867 700.371 12.784V20.196H699.827C700.371 19.1307 701.141 18.3147 702.139 17.748C703.159 17.1813 704.315 16.898 705.607 16.898C706.944 16.898 708.043 17.1587 708.905 17.68C709.766 18.1787 710.412 18.972 710.843 20.06C711.273 21.1253 711.489 22.474 711.489 24.106V31.246C711.489 32.2433 711.228 33.0027 710.707 33.524C710.185 34.0453 709.437 34.306 708.463 34.306C707.488 34.306 706.74 34.0453 706.219 33.524C705.697 33.0027 705.437 32.2433 705.437 31.246V24.344C705.437 23.324 705.255 22.5987 704.893 22.168C704.553 21.7373 704.043 21.522 703.363 21.522C702.456 21.522 701.731 21.8167 701.187 22.406C700.643 22.9727 700.371 23.7433 700.371 24.718V31.246C700.371 33.286 699.351 34.306 697.311 34.306ZM723.404 34.374C721.545 34.374 719.925 34.0227 718.542 33.32C717.159 32.6173 716.083 31.6087 715.312 30.294C714.541 28.9793 714.156 27.4267 714.156 25.636C714.156 24.276 714.371 23.0633 714.802 21.998C715.233 20.91 715.856 19.992 716.672 19.244C717.488 18.4733 718.463 17.8953 719.596 17.51C720.729 17.102 721.999 16.898 723.404 16.898C725.263 16.898 726.883 17.2493 728.266 17.952C729.649 18.6547 730.714 19.6633 731.462 20.978C732.233 22.27 732.618 23.8227 732.618 25.636C732.618 26.9733 732.403 28.186 731.972 29.274C731.541 30.362 730.918 31.2913 730.102 32.062C729.309 32.81 728.334 33.388 727.178 33.796C726.045 34.1813 724.787 34.374 723.404 34.374ZM723.404 29.92C724.016 29.92 724.56 29.7727 725.036 29.478C725.512 29.1607 725.875 28.696 726.124 28.084C726.396 27.4493 726.532 26.6333 726.532 25.636C726.532 24.1173 726.237 23.0293 725.648 22.372C725.059 21.692 724.311 21.352 723.404 21.352C722.792 21.352 722.248 21.4993 721.772 21.794C721.296 22.0887 720.922 22.5533 720.65 23.188C720.378 23.8 720.242 24.616 720.242 25.636C720.242 27.132 720.537 28.22 721.126 28.9C721.715 29.58 722.475 29.92 723.404 29.92ZM738.485 34.306C737.488 34.306 736.717 34.0453 736.173 33.524C735.652 33.0027 735.391 32.2433 735.391 31.246V19.992C735.391 19.0173 735.64 18.2693 736.139 17.748C736.66 17.2267 737.397 16.966 738.349 16.966C739.301 16.966 740.026 17.2267 740.525 17.748C741.024 18.2693 741.273 19.0173 741.273 19.992V21.386H740.933C741.16 20.026 741.738 18.9493 742.667 18.156C743.619 17.3627 744.798 16.9433 746.203 16.898C746.86 16.8753 747.348 17.0453 747.665 17.408C748.005 17.748 748.186 18.394 748.209 19.346C748.209 20.162 748.039 20.808 747.699 21.284C747.359 21.76 746.713 22.0433 745.761 22.134L744.979 22.202C743.778 22.3153 742.905 22.6553 742.361 23.222C741.817 23.766 741.545 24.582 741.545 25.67V31.246C741.545 32.2433 741.284 33.0027 740.763 33.524C740.242 34.0453 739.482 34.306 738.485 34.306ZM753.125 34.306C752.173 34.306 751.437 34.0227 750.915 33.456C750.394 32.8893 750.133 32.0733 750.133 31.008V20.264C750.133 19.1987 750.394 18.3827 750.915 17.816C751.437 17.2493 752.173 16.966 753.125 16.966C754.1 16.966 754.848 17.2493 755.369 17.816C755.913 18.3827 756.185 19.1987 756.185 20.264V31.008C756.185 32.0733 755.925 32.8893 755.403 33.456C754.882 34.0227 754.123 34.306 753.125 34.306ZM753.125 14.552C752.06 14.552 751.233 14.3027 750.643 13.804C750.077 13.3053 749.793 12.58 749.793 11.628C749.793 10.6987 750.077 9.98467 750.643 9.486C751.233 8.98733 752.06 8.738 753.125 8.738C754.236 8.738 755.075 8.98733 755.641 9.486C756.208 9.98467 756.491 10.6987 756.491 11.628C756.491 12.58 756.208 13.3053 755.641 13.804C755.075 14.3027 754.236 14.552 753.125 14.552ZM762.688 34.306C761.736 34.306 760.999 34.0453 760.478 33.524C759.956 33.0027 759.696 32.2433 759.696 31.246V19.992C759.696 19.0173 759.945 18.2693 760.444 17.748C760.965 17.2267 761.702 16.966 762.654 16.966C763.606 16.966 764.331 17.2267 764.83 17.748C765.328 18.2693 765.578 19.0173 765.578 19.992V21.59L765.204 20.196C765.748 19.1307 766.518 18.3147 767.516 17.748C768.536 17.1813 769.692 16.898 770.984 16.898C772.321 16.898 773.42 17.1587 774.282 17.68C775.143 18.1787 775.789 18.972 776.22 20.06C776.65 21.1253 776.866 22.474 776.866 24.106V31.246C776.866 32.2433 776.605 33.0027 776.084 33.524C775.562 34.0453 774.814 34.306 773.84 34.306C772.865 34.306 772.117 34.0453 771.596 33.524C771.074 33.0027 770.814 32.2433 770.814 31.246V24.344C770.814 23.324 770.632 22.5987 770.27 22.168C769.93 21.7373 769.42 21.522 768.74 21.522C767.833 21.522 767.108 21.8167 766.564 22.406C766.02 22.9727 765.748 23.7433 765.748 24.718V31.246C765.748 33.286 764.728 34.306 762.688 34.306ZM788.611 40.494C787.364 40.494 786.197 40.4033 785.109 40.222C784.021 40.0633 783.08 39.8253 782.287 39.508C781.63 39.2813 781.165 38.9527 780.893 38.522C780.621 38.0913 780.496 37.638 780.519 37.162C780.542 36.686 780.666 36.2553 780.893 35.87C781.142 35.4847 781.471 35.2013 781.879 35.02C782.287 34.8613 782.74 34.8727 783.239 35.054C784.236 35.462 785.143 35.7227 785.959 35.836C786.775 35.972 787.466 36.04 788.033 36.04C789.416 36.04 790.447 35.7453 791.127 35.156C791.83 34.5893 792.181 33.694 792.181 32.47V30.328H792.453C792.113 31.28 791.422 32.062 790.379 32.674C789.336 33.2633 788.203 33.558 786.979 33.558C785.483 33.558 784.18 33.218 783.069 32.538C781.958 31.8353 781.086 30.8607 780.451 29.614C779.839 28.3673 779.533 26.9053 779.533 25.228C779.533 23.9587 779.714 22.814 780.077 21.794C780.44 20.774 780.938 19.9013 781.573 19.176C782.23 18.4507 783.012 17.8953 783.919 17.51C784.848 17.102 785.868 16.898 786.979 16.898C788.248 16.898 789.382 17.1927 790.379 17.782C791.399 18.3713 792.079 19.142 792.419 20.094L792.079 21.488V19.992C792.079 19.0173 792.34 18.2693 792.861 17.748C793.405 17.2267 794.153 16.966 795.105 16.966C796.057 16.966 796.782 17.2267 797.281 17.748C797.802 18.2693 798.063 19.0173 798.063 19.992V31.756C798.063 34.6573 797.247 36.8333 795.615 38.284C793.983 39.7573 791.648 40.494 788.611 40.494ZM788.849 29.104C789.529 29.104 790.107 28.9567 790.583 28.662C791.059 28.3447 791.433 27.9027 791.705 27.336C791.977 26.7467 792.113 26.044 792.113 25.228C792.113 24.004 791.818 23.052 791.229 22.372C790.64 21.692 789.846 21.352 788.849 21.352C788.214 21.352 787.648 21.5107 787.149 21.828C786.65 22.1227 786.265 22.5647 785.993 23.154C785.744 23.7207 785.619 24.412 785.619 25.228C785.619 26.452 785.914 27.404 786.503 28.084C787.092 28.764 787.874 29.104 788.849 29.104ZM814.897 34.306C813.899 34.306 813.117 34.034 812.551 33.49C812.007 32.9233 811.735 32.1187 811.735 31.076V13.26C811.735 12.2173 812.007 11.424 812.551 10.88C813.117 10.3133 813.933 10.03 814.999 10.03H826.321C827.137 10.03 827.749 10.234 828.157 10.642C828.565 11.05 828.769 11.6393 828.769 12.41C828.769 13.2033 828.565 13.8153 828.157 14.246C827.749 14.654 827.137 14.858 826.321 14.858H817.991V19.686H825.573C826.366 19.686 826.967 19.89 827.375 20.298C827.805 20.706 828.021 21.2953 828.021 22.066C828.021 22.8593 827.805 23.46 827.375 23.868C826.967 24.276 826.366 24.48 825.573 24.48H817.991V31.076C817.991 33.2293 816.959 34.306 814.897 34.306ZM839.597 34.374C837.557 34.374 835.789 34.0227 834.293 33.32C832.819 32.5947 831.686 31.5747 830.893 30.26C830.099 28.9453 829.703 27.3927 829.703 25.602C829.703 23.8793 830.077 22.372 830.825 21.08C831.595 19.7653 832.638 18.7453 833.953 18.02C835.29 17.272 836.809 16.898 838.509 16.898C839.755 16.898 840.889 17.102 841.909 17.51C842.929 17.8953 843.801 18.4733 844.527 19.244C845.252 19.992 845.796 20.8987 846.159 21.964C846.544 23.0293 846.737 24.2193 846.737 25.534C846.737 25.9873 846.612 26.3273 846.363 26.554C846.113 26.758 845.717 26.86 845.173 26.86H834.769V24.004H842.317L841.773 24.446C841.773 23.6073 841.659 22.9273 841.433 22.406C841.206 21.8847 840.866 21.488 840.413 21.216C839.982 20.944 839.438 20.808 838.781 20.808C838.078 20.808 837.466 20.978 836.945 21.318C836.446 21.6353 836.061 22.1113 835.789 22.746C835.517 23.3807 835.381 24.174 835.381 25.126V25.432C835.381 27.0413 835.732 28.1973 836.435 28.9C837.16 29.58 838.271 29.92 839.767 29.92C840.265 29.92 840.832 29.8633 841.467 29.75C842.124 29.614 842.747 29.4327 843.337 29.206C843.926 28.9793 844.436 28.9453 844.867 29.104C845.297 29.24 845.626 29.4893 845.853 29.852C846.102 30.192 846.238 30.5887 846.261 31.042C846.283 31.4727 846.181 31.9033 845.955 32.334C845.728 32.742 845.354 33.0593 844.833 33.286C844.039 33.6487 843.189 33.9207 842.283 34.102C841.399 34.2833 840.503 34.374 839.597 34.374ZM856.008 34.374C855.011 34.374 853.991 34.2947 852.948 34.136C851.928 34 850.999 33.7393 850.16 33.354C849.594 33.1273 849.186 32.8213 848.936 32.436C848.71 32.0507 848.596 31.6427 848.596 31.212C848.619 30.7813 848.744 30.396 848.97 30.056C849.22 29.6933 849.537 29.444 849.922 29.308C850.33 29.1493 850.784 29.1607 851.282 29.342C852.234 29.682 853.084 29.9313 853.832 30.09C854.603 30.226 855.34 30.294 856.042 30.294C856.881 30.294 857.482 30.1807 857.844 29.954C858.207 29.7047 858.388 29.3873 858.388 29.002C858.388 28.662 858.264 28.4013 858.014 28.22C857.788 28.0387 857.459 27.914 857.028 27.846L853.254 27.234C851.849 26.9847 850.761 26.4747 849.99 25.704C849.22 24.9107 848.834 23.8793 848.834 22.61C848.834 21.4313 849.163 20.4227 849.82 19.584C850.5 18.7227 851.418 18.0653 852.574 17.612C853.753 17.136 855.102 16.898 856.62 16.898C857.64 16.898 858.57 16.9773 859.408 17.136C860.247 17.272 861.063 17.5327 861.856 17.918C862.355 18.122 862.706 18.4167 862.91 18.802C863.114 19.1873 863.194 19.5953 863.148 20.026C863.103 20.434 862.956 20.8193 862.706 21.182C862.48 21.522 862.162 21.76 861.754 21.896C861.346 22.0093 860.87 21.9753 860.326 21.794C859.578 21.4993 858.91 21.284 858.32 21.148C857.754 21.012 857.221 20.944 856.722 20.944C855.793 20.944 855.136 21.0687 854.75 21.318C854.365 21.5673 854.172 21.8847 854.172 22.27C854.172 22.5647 854.274 22.814 854.478 23.018C854.682 23.1993 855 23.324 855.43 23.392L859.204 24.038C860.655 24.2647 861.766 24.7633 862.536 25.534C863.33 26.282 863.726 27.302 863.726 28.594C863.726 30.43 863.024 31.858 861.618 32.878C860.213 33.8753 858.343 34.374 856.008 34.374ZM874.817 34.374C873.117 34.374 871.712 34.1133 870.601 33.592C869.513 33.0707 868.697 32.2887 868.153 31.246C867.609 30.1807 867.337 28.8547 867.337 27.268V21.726H866.181C865.456 21.726 864.889 21.5333 864.481 21.148C864.096 20.7627 863.903 20.2073 863.903 19.482C863.903 18.7567 864.096 18.2127 864.481 17.85C864.889 17.4647 865.456 17.272 866.181 17.272H867.337V15.164C867.337 14.1667 867.598 13.4073 868.119 12.886C868.641 12.3647 869.389 12.104 870.363 12.104C871.338 12.104 872.086 12.3647 872.607 12.886C873.129 13.4073 873.389 14.1667 873.389 15.164V17.272H876.177C876.925 17.272 877.492 17.4647 877.877 17.85C878.285 18.2127 878.489 18.7567 878.489 19.482C878.489 20.2073 878.285 20.7627 877.877 21.148C877.492 21.5333 876.925 21.726 876.177 21.726H873.389V27.064C873.389 27.9027 873.582 28.526 873.967 28.934C874.375 29.3193 875.01 29.512 875.871 29.512C876.189 29.512 876.495 29.478 876.789 29.41C877.084 29.342 877.356 29.308 877.605 29.308C877.968 29.2853 878.263 29.3987 878.489 29.648C878.716 29.8747 878.829 30.4073 878.829 31.246C878.829 31.926 878.727 32.504 878.523 32.98C878.319 33.4333 877.957 33.762 877.435 33.966C877.118 34.0793 876.687 34.17 876.143 34.238C875.599 34.3287 875.157 34.374 874.817 34.374ZM884.112 34.306C883.16 34.306 882.423 34.0227 881.902 33.456C881.38 32.8893 881.12 32.0733 881.12 31.008V20.264C881.12 19.1987 881.38 18.3827 881.902 17.816C882.423 17.2493 883.16 16.966 884.112 16.966C885.086 16.966 885.834 17.2493 886.356 17.816C886.9 18.3827 887.172 19.1987 887.172 20.264V31.008C887.172 32.0733 886.911 32.8893 886.39 33.456C885.868 34.0227 885.109 34.306 884.112 34.306ZM884.112 14.552C883.046 14.552 882.219 14.3027 881.63 13.804C881.063 13.3053 880.78 12.58 880.78 11.628C880.78 10.6987 881.063 9.98467 881.63 9.486C882.219 8.98733 883.046 8.738 884.112 8.738C885.222 8.738 886.061 8.98733 886.628 9.486C887.194 9.98467 887.478 10.6987 887.478 11.628C887.478 12.58 887.194 13.3053 886.628 13.804C886.061 14.3027 885.222 14.552 884.112 14.552ZM898.094 34.306C897.301 34.306 896.621 34.1133 896.054 33.728C895.51 33.32 895.057 32.7193 894.694 31.926L889.832 20.808C889.56 20.128 889.469 19.4933 889.56 18.904C889.651 18.3147 889.934 17.85 890.41 17.51C890.909 17.1473 891.589 16.966 892.45 16.966C893.175 16.966 893.753 17.136 894.184 17.476C894.637 17.7933 895.045 18.428 895.408 19.38L898.842 28.22H897.686L901.29 19.346C901.653 18.4167 902.061 17.7933 902.514 17.476C902.967 17.136 903.591 16.966 904.384 16.966C905.064 16.966 905.608 17.1473 906.016 17.51C906.447 17.85 906.707 18.3147 906.798 18.904C906.889 19.4933 906.775 20.128 906.458 20.808L901.494 31.96C901.154 32.7533 900.701 33.3427 900.134 33.728C899.59 34.1133 898.91 34.306 898.094 34.306ZM914.592 34.374C913.3 34.374 912.155 34.136 911.158 33.66C910.183 33.184 909.412 32.538 908.846 31.722C908.302 30.8833 908.03 29.9313 908.03 28.866C908.03 27.642 908.347 26.6787 908.982 25.976C909.616 25.2733 910.636 24.7747 912.042 24.48C913.447 24.1627 915.317 24.004 917.652 24.004H919.522V26.86H917.652C916.768 26.86 916.031 26.928 915.442 27.064C914.875 27.1773 914.456 27.37 914.184 27.642C913.912 27.8913 913.776 28.22 913.776 28.628C913.776 29.1493 913.957 29.58 914.32 29.92C914.705 30.26 915.249 30.43 915.952 30.43C916.518 30.43 917.017 30.3053 917.448 30.056C917.901 29.8067 918.264 29.4667 918.536 29.036C918.808 28.5827 918.944 28.0613 918.944 27.472V23.528C918.944 22.712 918.728 22.134 918.298 21.794C917.89 21.454 917.176 21.284 916.156 21.284C915.612 21.284 915 21.352 914.32 21.488C913.64 21.6013 912.88 21.8167 912.042 22.134C911.43 22.3607 910.908 22.3947 910.478 22.236C910.047 22.0773 909.707 21.8053 909.458 21.42C909.231 21.0347 909.118 20.6153 909.118 20.162C909.14 19.7087 909.288 19.278 909.56 18.87C909.854 18.462 910.296 18.1447 910.886 17.918C911.974 17.51 912.971 17.238 913.878 17.102C914.807 16.966 915.657 16.898 916.428 16.898C918.286 16.898 919.816 17.17 921.018 17.714C922.242 18.2353 923.148 19.0513 923.738 20.162C924.35 21.25 924.656 22.6553 924.656 24.378V31.246C924.656 32.2433 924.418 33.0027 923.942 33.524C923.466 34.0453 922.774 34.306 921.868 34.306C920.938 34.306 920.224 34.0453 919.726 33.524C919.25 33.0027 919.012 32.2433 919.012 31.246V30.362L919.216 30.838C919.102 31.5633 918.842 32.1867 918.434 32.708C918.026 33.2293 917.493 33.6373 916.836 33.932C916.178 34.2267 915.43 34.374 914.592 34.374ZM934.46 34.374C932.284 34.374 930.675 33.796 929.632 32.64C928.612 31.4613 928.102 29.6933 928.102 27.336V12.784C928.102 11.7867 928.363 11.0273 928.884 10.506C929.405 9.98467 930.142 9.724 931.094 9.724C932.069 9.724 932.817 9.98467 933.338 10.506C933.882 11.0273 934.154 11.7867 934.154 12.784V27.132C934.154 27.9707 934.313 28.5827 934.63 28.968C934.97 29.3533 935.401 29.546 935.922 29.546C936.081 29.546 936.239 29.5347 936.398 29.512C936.579 29.4667 936.772 29.4327 936.976 29.41C937.361 29.41 937.645 29.5573 937.826 29.852C938.03 30.1467 938.132 30.7473 938.132 31.654C938.132 32.4473 937.973 33.048 937.656 33.456C937.339 33.8413 936.851 34.0907 936.194 34.204C936.013 34.2267 935.752 34.2607 935.412 34.306C935.072 34.3513 934.755 34.374 934.46 34.374Z" fill="white"/>
<path d="M391.458 102V86.4H388.936V83.046H395.202V102H391.458ZM398.798 92.276C398.798 86.79 400.462 82.682 405.818 82.682C411.174 82.682 412.838 86.79 412.838 92.276C412.838 97.814 411.174 101.948 405.818 101.948C400.462 101.948 398.798 97.814 398.798 92.276ZM409.25 92.276C409.25 89.026 408.886 86.062 405.818 86.062C402.75 86.062 402.386 89.026 402.386 92.276C402.386 95.656 402.75 98.568 405.818 98.568C408.886 98.568 409.25 95.656 409.25 92.276ZM414.541 105.744L416.283 97.996H420.131L416.907 105.744H414.541ZM422.233 92.276C422.233 86.79 423.897 82.682 429.253 82.682C434.609 82.682 436.273 86.79 436.273 92.276C436.273 97.814 434.609 101.948 429.253 101.948C423.897 101.948 422.233 97.814 422.233 92.276ZM432.685 92.276C432.685 89.026 432.321 86.062 429.253 86.062C426.185 86.062 425.821 89.026 425.821 92.276C425.821 95.656 426.185 98.568 429.253 98.568C432.321 98.568 432.685 95.656 432.685 92.276ZM439.042 92.276C439.042 86.79 440.706 82.682 446.062 82.682C451.418 82.682 453.082 86.79 453.082 92.276C453.082 97.814 451.418 101.948 446.062 101.948C440.706 101.948 439.042 97.814 439.042 92.276ZM449.494 92.276C449.494 89.026 449.13 86.062 446.062 86.062C442.994 86.062 442.63 89.026 442.63 92.276C442.63 95.656 442.994 98.568 446.062 98.568C449.13 98.568 449.494 95.656 449.494 92.276ZM455.851 92.276C455.851 86.79 457.515 82.682 462.871 82.682C468.227 82.682 469.891 86.79 469.891 92.276C469.891 97.814 468.227 101.948 462.871 101.948C457.515 101.948 455.851 97.814 455.851 92.276ZM466.303 92.276C466.303 89.026 465.939 86.062 462.871 86.062C459.803 86.062 459.439 89.026 459.439 92.276C459.439 95.656 459.803 98.568 462.871 98.568C465.939 98.568 466.303 95.656 466.303 92.276ZM478.327 86.114H481.759V91.158H486.673V94.33H481.759V99.374H478.327V94.33H473.413V91.158H478.327V86.114ZM509.478 96.748C509.478 99.608 507.19 102.182 503.056 102.182C499.286 102.182 496.374 100.206 496.322 96.774H500.222C500.326 98.23 501.288 99.192 502.978 99.192C504.694 99.192 505.708 98.282 505.708 96.982C505.708 93.056 496.348 95.422 496.374 88.844C496.374 85.568 499.026 83.592 502.77 83.592C506.488 83.592 509.036 85.49 509.27 88.766H505.266C505.188 87.57 504.226 86.634 502.666 86.608C501.236 86.556 500.17 87.258 500.17 88.74C500.17 92.38 509.478 90.352 509.478 96.748ZM511.698 94.798C511.698 90.274 514.662 87.362 518.822 87.362C522.41 87.362 524.828 89.234 525.608 92.458H521.682C521.266 91.236 520.304 90.456 518.796 90.456C516.768 90.456 515.416 91.99 515.416 94.798C515.416 97.606 516.768 99.114 518.796 99.114C520.304 99.114 521.24 98.438 521.682 97.138H525.608C524.828 100.206 522.41 102.234 518.822 102.234C514.662 102.234 511.698 99.322 511.698 94.798ZM528.274 102V82.76H531.914V89.39C532.85 88.168 534.462 87.388 536.386 87.388C539.636 87.388 542.002 89.572 542.002 93.55V102H538.362V94.044C538.362 91.73 537.088 90.482 535.164 90.482C533.188 90.482 531.914 91.73 531.914 94.044V102H528.274ZM559.374 94.798C559.374 99.322 556.046 102.234 551.86 102.234C547.7 102.234 544.554 99.322 544.554 94.798C544.554 90.248 547.804 87.362 551.964 87.362C556.124 87.362 559.374 90.248 559.374 94.798ZM548.246 94.798C548.246 97.658 549.91 99.062 551.86 99.062C553.784 99.062 555.63 97.658 555.63 94.798C555.63 91.912 553.836 90.534 551.912 90.534C549.988 90.534 548.246 91.912 548.246 94.798ZM575.954 94.798C575.954 99.322 572.626 102.234 568.44 102.234C564.28 102.234 561.134 99.322 561.134 94.798C561.134 90.248 564.384 87.362 568.544 87.362C572.704 87.362 575.954 90.248 575.954 94.798ZM564.826 94.798C564.826 97.658 566.49 99.062 568.44 99.062C570.364 99.062 572.21 97.658 572.21 94.798C572.21 91.912 570.416 90.534 568.492 90.534C566.568 90.534 564.826 91.912 564.826 94.798ZM578.624 102V82.76H582.264V102H578.624ZM597.04 97.892C597.04 100.362 594.882 102.234 591.372 102.234C587.758 102.234 585.236 100.128 585.08 97.45H588.746C588.876 98.542 589.89 99.374 591.346 99.374C592.776 99.374 593.556 98.724 593.556 97.892C593.556 95.318 585.418 96.956 585.418 91.678C585.418 89.286 587.55 87.362 591.112 87.362C594.596 87.362 596.702 89.26 596.91 92.12H593.426C593.322 91.002 592.438 90.248 591.008 90.248C589.656 90.248 588.954 90.794 588.954 91.626C588.954 94.252 596.936 92.614 597.04 97.892Z" fill="white"/>
<path d="M363.31 108.551H361.241V92.6894H363.31C363.422 92.6896 363.533 92.6622 363.633 92.6095C363.733 92.5569 363.818 92.4806 363.881 92.3873C363.944 92.2941 363.984 92.1867 363.996 92.0747C364.008 91.9626 363.993 91.8493 363.951 91.7447L359.814 81.3996C359.763 81.2712 359.674 81.1612 359.56 81.0837C359.445 81.0061 359.31 80.9647 359.172 80.9648H346.759C346.727 80.9616 346.694 80.9616 346.662 80.9648L344.69 79.1856V77.5174H350.897C351.08 77.5174 351.255 77.4447 351.384 77.3154C351.514 77.186 351.586 77.0106 351.586 76.8276V72.6898C351.586 72.5068 351.514 72.3314 351.384 72.202C351.255 72.0727 351.08 72 350.897 72H344C343.817 72 343.642 72.0727 343.513 72.202C343.383 72.3314 343.311 72.5068 343.311 72.6898V79.1863L341.338 80.9655C341.306 80.9623 341.274 80.9623 341.242 80.9655H328.828C328.69 80.9654 328.555 81.0068 328.441 81.0844C328.327 81.1619 328.238 81.272 328.187 81.4003L324.049 91.7447C324.007 91.8493 323.992 91.9626 324.004 92.0747C324.016 92.1867 324.056 92.2941 324.119 92.3873C324.182 92.4806 324.267 92.5569 324.367 92.6095C324.467 92.6622 324.578 92.6896 324.69 92.6894H326.759V108.551H324.69C324.6 108.551 324.51 108.569 324.427 108.604C324.343 108.638 324.267 108.689 324.203 108.753C324.139 108.817 324.088 108.893 324.053 108.977C324.019 109.061 324.001 109.15 324.001 109.241C324.001 109.331 324.019 109.421 324.053 109.505C324.088 109.589 324.139 109.665 324.203 109.729C324.267 109.793 324.343 109.843 324.427 109.878C324.51 109.913 324.6 109.931 324.69 109.931H363.31C363.401 109.931 363.49 109.913 363.574 109.878C363.658 109.843 363.734 109.793 363.798 109.729C363.862 109.665 363.913 109.589 363.947 109.505C363.982 109.421 364 109.331 364 109.241C364 109.15 363.982 109.061 363.947 108.977C363.913 108.893 363.862 108.817 363.798 108.753C363.734 108.689 363.658 108.638 363.574 108.604C363.49 108.569 363.401 108.551 363.31 108.551ZM358.703 82.3443L362.289 91.3099H351.586V85.7925C351.59 85.742 351.59 85.6912 351.586 85.6407C351.59 85.6041 351.59 85.5671 351.586 85.5305C351.569 85.4996 351.551 85.4695 351.531 85.4406C351.502 85.3944 351.47 85.3505 351.435 85.3092L348.138 82.3436L358.703 82.3443ZM329.297 82.3443H339.862L336.649 85.2825C336.615 85.321 336.585 85.3627 336.559 85.4068C336.536 85.4373 336.515 85.4695 336.497 85.5031C336.493 85.5374 336.493 85.572 336.497 85.6063C336.465 85.6661 336.437 85.7283 336.414 85.7925V91.3099H325.711L329.297 82.3443ZM328.139 92.6894H336.414V108.551H328.139V92.6894ZM348.138 108.551V98.2061C348.138 98.0232 348.066 97.8477 347.936 97.7184C347.807 97.589 347.631 97.5163 347.448 97.5163H340.552C340.369 97.5163 340.194 97.589 340.065 97.7184C339.935 97.8477 339.862 98.0232 339.862 98.2061V108.551H337.793V86.0959L344 80.4205L350.206 86.0959V108.551H348.138ZM351.586 108.551V92.6894H359.862V108.551H351.586Z" fill="white"/>
<path d="M333.656 98.2061H330.898C330.715 98.2061 330.539 98.2787 330.41 98.4081C330.28 98.5374 330.208 98.7129 330.208 98.8958V101.654C330.208 101.837 330.28 102.013 330.41 102.142C330.539 102.271 330.715 102.344 330.898 102.344H333.656C333.839 102.344 334.014 102.271 334.144 102.142C334.273 102.013 334.346 101.837 334.346 101.654V98.8958C334.346 98.7129 334.273 98.5374 334.144 98.4081C334.014 98.2787 333.839 98.2061 333.656 98.2061Z" fill="white"/>
<path d="M357.103 98.2061H354.345C354.162 98.2061 353.986 98.2787 353.857 98.4081C353.728 98.5374 353.655 98.7129 353.655 98.8958V101.654C353.655 101.837 353.728 102.013 353.857 102.142C353.986 102.271 354.162 102.344 354.345 102.344H357.103C357.286 102.344 357.461 102.271 357.591 102.142C357.72 102.013 357.793 101.837 357.793 101.654V98.8958C357.793 98.7129 357.72 98.5374 357.591 98.4081C357.461 98.2787 357.286 98.2061 357.103 98.2061Z" fill="white"/>
<path d="M344 87.1719C343.455 87.1719 342.922 87.3336 342.468 87.6367C342.014 87.9398 341.661 88.3706 341.452 88.8747C341.243 89.3787 341.189 89.9333 341.295 90.4684C341.401 91.0034 341.664 91.4949 342.05 91.8807C342.436 92.2664 342.927 92.5291 343.462 92.6356C343.997 92.742 344.552 92.6874 345.056 92.4786C345.56 92.2698 345.991 91.9163 346.294 91.4627C346.597 91.0091 346.759 90.4758 346.759 89.9302C346.759 89.1987 346.468 88.4971 345.951 87.9798C345.434 87.4625 344.732 87.1719 344 87.1719Z" fill="white"/>
<path d="M66.366 82.994H78.118V86.192H69.694V90.638C70.396 89.78 71.826 89.104 73.412 89.104C77.832 89.104 79.34 92.432 79.34 95.37C79.34 99.244 77.104 102 72.788 102C68.706 102 66.366 99.738 66.054 96.644H69.59C69.902 97.97 70.968 98.932 72.736 98.932C74.868 98.932 75.83 97.424 75.83 95.422C75.83 93.29 74.764 92.12 72.71 92.12C71.202 92.12 70.24 92.952 69.85 94.122H66.366V82.994ZM82.1104 92.276C82.1104 86.79 83.7744 82.682 89.1304 82.682C94.4864 82.682 96.1504 86.79 96.1504 92.276C96.1504 97.814 94.4864 101.948 89.1304 101.948C83.7744 101.948 82.1104 97.814 82.1104 92.276ZM92.5624 92.276C92.5624 89.026 92.1984 86.062 89.1304 86.062C86.0624 86.062 85.6984 89.026 85.6984 92.276C85.6984 95.656 86.0624 98.568 89.1304 98.568C92.1984 98.568 92.5624 95.656 92.5624 92.276ZM98.919 92.276C98.919 86.79 100.583 82.682 105.939 82.682C111.295 82.682 112.959 86.79 112.959 92.276C112.959 97.814 111.295 101.948 105.939 101.948C100.583 101.948 98.919 97.814 98.919 92.276ZM109.371 92.276C109.371 89.026 109.007 86.062 105.939 86.062C102.871 86.062 102.507 89.026 102.507 92.276C102.507 95.656 102.871 98.568 105.939 98.568C109.007 98.568 109.371 95.656 109.371 92.276ZM126.388 102L119.784 93.914V102H116.144V83.852H119.784V91.99L126.388 83.852H130.782L123.294 92.848L130.99 102H126.388ZM138.636 86.114H142.068V91.158H146.982V94.33H142.068V99.374H138.636V94.33H133.722V91.158H138.636V86.114ZM169.787 96.748C169.787 99.608 167.499 102.182 163.365 102.182C159.595 102.182 156.683 100.206 156.631 96.774H160.531C160.635 98.23 161.597 99.192 163.287 99.192C165.003 99.192 166.017 98.282 166.017 96.982C166.017 93.056 156.657 95.422 156.683 88.844C156.683 85.568 159.335 83.592 163.079 83.592C166.797 83.592 169.345 85.49 169.579 88.766H165.575C165.497 87.57 164.535 86.634 162.975 86.608C161.545 86.556 160.479 87.258 160.479 88.74C160.479 92.38 169.787 90.352 169.787 96.748ZM173.514 97.528V90.586H171.798V87.596H173.514V84.034H177.18V87.596H180.404V90.586H177.18V97.554C177.18 98.516 177.57 98.932 178.714 98.932H180.404V102H178.116C175.36 102 173.514 100.83 173.514 97.528ZM196.621 87.596V102H192.955V100.18C192.045 101.402 190.459 102.182 188.665 102.182C185.311 102.182 182.893 99.998 182.893 96.046V87.596H186.533V95.526C186.533 97.84 187.807 99.088 189.731 99.088C191.707 99.088 192.955 97.84 192.955 95.526V87.596H196.621ZM199.276 94.746C199.276 90.248 202.188 87.362 205.88 87.362C207.778 87.362 209.598 88.246 210.586 89.598V82.76H214.278V102H210.586V99.868C209.728 101.194 208.116 102.234 205.854 102.234C202.188 102.234 199.276 99.244 199.276 94.746ZM210.612 94.798C210.612 92.068 208.792 90.56 206.79 90.56C204.84 90.56 202.994 92.016 202.994 94.746C202.994 97.476 204.84 99.036 206.79 99.036C208.792 99.036 210.612 97.528 210.612 94.798ZM224.021 90.352C222.279 90.352 220.901 91.47 220.615 93.446H227.453C227.401 91.548 225.893 90.352 224.021 90.352ZM230.859 97.476C230.079 100.128 227.687 102.234 224.125 102.234C219.939 102.234 216.897 99.322 216.897 94.798C216.897 90.248 219.861 87.362 224.125 87.362C228.285 87.362 231.223 90.196 231.223 94.486C231.223 94.954 231.197 95.422 231.119 95.89H220.589C220.771 98.022 222.227 99.218 224.047 99.218C225.607 99.218 226.465 98.438 226.933 97.476H230.859ZM243.968 102V94.044C243.968 91.73 242.694 90.482 240.77 90.482C238.794 90.482 237.52 91.73 237.52 94.044V102H233.88V87.596H237.52V89.39C238.456 88.168 240.016 87.388 241.862 87.388C245.216 87.388 247.608 89.572 247.608 93.55V102H243.968ZM251.641 97.528V90.586H249.925V87.596H251.641V84.034H255.307V87.596H258.531V90.586H255.307V97.554C255.307 98.516 255.697 98.932 256.841 98.932H258.531V102H256.243C253.487 102 251.641 100.83 251.641 97.528ZM272.329 97.892C272.329 100.362 270.171 102.234 266.661 102.234C263.047 102.234 260.525 100.128 260.369 97.45H264.035C264.165 98.542 265.179 99.374 266.635 99.374C268.065 99.374 268.845 98.724 268.845 97.892C268.845 95.318 260.707 96.956 260.707 91.678C260.707 89.286 262.839 87.362 266.401 87.362C269.885 87.362 271.991 89.26 272.199 92.12H268.715C268.611 91.002 267.727 90.248 266.297 90.248C264.945 90.248 264.243 90.794 264.243 91.626C264.243 94.252 272.225 92.614 272.329 97.892Z" fill="white"/>
<path d="M40.0783 79.4491L23.9228 74.0633C23.6487 73.9789 23.3555 73.9789 23.0814 74.0633L6.94033 79.4491H6.90691L6.7385 79.533H6.72408L6.55567 79.6339C6.55567 79.6509 6.53863 79.6509 6.52225 79.6673L6.38792 79.7852L6.26996 79.9196C6.26996 79.9366 6.25293 79.9366 6.25293 79.953L6.15201 80.1044C6.15201 80.1214 6.15201 80.1214 6.13498 80.1378L6.06945 80.2892L6.01899 80.4746V80.5251C6.00233 80.591 5.99657 80.6591 6.00195 80.7269V94.1931C6.00195 94.5502 6.14383 94.8928 6.39637 95.1453C6.64891 95.3978 6.99143 95.5397 7.34857 95.5397C7.70572 95.5397 8.04823 95.3978 8.30077 95.1453C8.55332 94.8928 8.69519 94.5502 8.69519 94.1931V82.5945L14.3503 84.4797C13.2878 86.1804 12.7276 88.1467 12.7344 90.1519C12.734 91.9758 13.1966 93.77 14.079 95.3662C14.9615 96.9624 16.2347 98.3084 17.7795 99.2781C14.5692 100.492 11.8282 102.695 9.95269 105.569C9.76167 105.871 9.69694 106.236 9.77244 106.586C9.84793 106.935 10.0576 107.241 10.3564 107.437C10.503 107.534 10.6675 107.601 10.8402 107.634C11.013 107.668 11.1906 107.666 11.3628 107.63C11.535 107.594 11.6983 107.524 11.8433 107.425C11.9883 107.325 12.1121 107.198 12.2075 107.05C13.4297 105.167 15.1031 103.62 17.0755 102.549C19.048 101.478 21.2569 100.916 23.5015 100.916C25.746 100.916 27.955 101.478 29.9274 102.549C31.8999 103.62 33.5732 105.167 34.7954 107.05C34.9183 107.237 35.0857 107.39 35.2826 107.496C35.4795 107.601 35.6996 107.657 35.9231 107.656C36.1801 107.658 36.4316 107.582 36.6439 107.437C36.9428 107.241 37.1526 106.935 37.2281 106.586C37.3036 106.236 37.2388 105.871 37.0476 105.569C35.1731 102.695 32.4335 100.492 29.2248 99.2781C30.7698 98.3094 32.0436 96.9642 32.9268 95.3687C33.81 93.7731 34.2737 91.9795 34.2744 90.1559C34.2812 88.1506 33.721 86.1843 32.6585 84.4837L40.0783 82.0073C40.3467 81.9181 40.5801 81.7466 40.7455 81.5173C40.911 81.2879 41 81.0123 41 80.7295C41 80.4467 40.911 80.1711 40.7455 79.9418C40.5801 79.7124 40.3467 79.5409 40.0783 79.4517V79.4491ZM23.4995 98.2297C21.3578 98.229 19.304 97.3779 17.7896 95.8636C16.2751 94.3493 15.4239 92.2956 15.423 90.1539C15.4264 88.43 15.9743 86.7512 16.9885 85.3572L23.0827 87.3938C23.356 87.4837 23.6509 87.4837 23.9241 87.3938L30.0183 85.3572C31.0326 86.7512 31.5805 88.43 31.5838 90.1539C31.5834 91.215 31.3739 92.2657 30.9674 93.2458C30.5608 94.226 29.9652 95.1165 29.2145 95.8664C28.4638 96.6163 27.5727 97.211 26.5921 97.6165C25.6115 98.022 24.5606 98.2304 23.4995 98.2297Z" fill="white"/>
</svg>
