<svg width="40" height="40" viewBox="0 0 40 40" fill="none" xmlns="http://www.w3.org/2000/svg">
<rect width="40" height="40" rx="20" fill="white"/>
<path d="M7.72956 16.617C7.33681 16.617 7 16.291 7 15.8921C7 15.5113 7.33681 15.1857 7.72956 15.1857H9.71366C10.3873 15.2038 10.9863 15.3302 11.4915 15.6388C12.0532 15.9829 12.4646 16.5082 12.689 17.2873C12.689 17.3059 12.689 17.3234 12.7082 17.342L12.8952 18.0664H29.2704C29.6818 18.0664 30 18.393 30 18.7727C30 18.8455 29.9808 18.9183 29.9627 18.9905L28.0538 25.7744C27.9786 26.0999 27.6797 26.3183 27.3423 26.3183H15.3653C15.6275 27.2604 15.8892 27.7671 16.2452 28.0029C16.6753 28.2748 17.424 28.2929 18.678 28.2748H27.1552C27.5666 28.2748 27.8848 28.6009 27.8848 28.9811C27.8848 29.38 27.5485 29.688 27.1552 29.688H18.6961C17.1432 29.7056 16.1887 29.6694 15.4218 29.1803C14.6352 28.6731 14.2238 27.8037 13.8118 26.2269L11.3044 17.7042C11.3044 17.6856 11.3044 17.6856 11.2858 17.6681C11.1733 17.2687 10.9863 16.9973 10.7241 16.8529C10.4624 16.6893 10.1064 16.617 9.69501 16.617H7.72956ZM13.4287 11.9976L19.5229 6.09677C19.6562 5.96765 19.8755 5.96765 20.01 6.09732L26.9507 12.8161C27.1298 13.012 26.8885 13.2538 26.6127 13.4995L23.104 16.8961H19.7709L15.2156 12.4856C15.128 12.4014 14.9686 12.4167 14.8613 12.5207L14.651 12.7258C14.5425 12.8303 14.5256 12.9841 14.6132 13.0683L18.5667 16.8961H15.9593L13.4293 14.4455C12.733 13.7725 12.733 12.67 13.4287 11.9976ZM25.7701 16.8961L27.9453 14.7891L27.2372 14.103L27.7582 13.598L28.6596 14.4712C28.8234 14.6304 28.8234 14.8903 28.6596 15.0501L26.7529 16.8961H25.7701ZM23.0757 20.9733C23.0757 20.7501 23.304 20.569 23.5849 20.569C23.8663 20.569 24.094 20.7501 24.094 20.9733V23.0431C24.094 23.2663 23.8663 23.4475 23.5849 23.4475C23.304 23.4475 23.0757 23.2663 23.0757 23.0431V20.9733ZM20.0275 20.9733C20.0275 20.7501 20.2552 20.569 20.5361 20.569C20.8175 20.569 21.0453 20.7501 21.0453 20.9733V23.0431C21.0453 23.2663 20.8175 23.4475 20.5361 23.4475C20.2552 23.4475 20.0275 23.2663 20.0275 23.0431V20.9733ZM16.9787 20.9733C16.9787 20.7501 17.207 20.569 17.4885 20.569C17.7693 20.569 17.9971 20.7501 17.9971 20.9733V23.0431C17.9971 23.2663 17.7693 23.4475 17.4885 23.4475C17.207 23.4475 16.9787 23.2663 16.9787 23.0431V20.9733ZM24.966 30.5213C25.9578 30.5213 26.7619 31.3004 26.7619 32.2607C26.7619 33.2214 25.9578 34 24.966 34C23.9737 34 23.1689 33.2214 23.1689 32.2607C23.1689 31.3004 23.9737 30.5213 24.966 30.5213ZM17.0872 30.5213C18.0784 30.5213 18.8831 31.3004 18.8831 32.2607C18.8831 33.2214 18.0784 34 17.0872 34C16.0949 34 15.2902 33.2214 15.2902 32.2607C15.2902 31.3004 16.0949 30.5213 17.0872 30.5213ZM13.3066 19.4796L14.972 24.8864H26.7811L28.3346 19.4796H13.3066Z" fill="#148108"/>
</svg>
