<svg width="23" height="22" viewBox="0 0 23 22" fill="none" xmlns="http://www.w3.org/2000/svg">
<path d="M13.0723 18.0723H17.0008V19.6437H13.0723V18.0723Z" fill="#00AB47"/>
<path d="M9.14355 5.5H12.2864V14.9286H9.14355V5.5Z" fill="#00AB47"/>
<path d="M9.14355 15.7148H12.2864V16.5006H9.14355V15.7148Z" fill="#00AB47"/>
<path d="M9.14355 2.35742H12.2864V4.71457H9.14355V2.35742Z" fill="#00AB47"/>
<path d="M17.0008 2.35742H13.0723V17.286H17.0008V2.35742ZM16.2151 15.3217C16.2151 15.4259 16.1737 15.5258 16.1001 15.5995C16.0264 15.6732 15.9265 15.7146 15.8223 15.7146H14.2508C14.1466 15.7146 14.0467 15.6732 13.973 15.5995C13.8994 15.5258 13.858 15.4259 13.858 15.3217V4.32171C13.858 4.21752 13.8994 4.11759 13.973 4.04392C14.0467 3.97024 14.1466 3.92885 14.2508 3.92885H15.8223C15.9265 3.92885 16.0264 3.97024 16.1001 4.04392C16.1737 4.11759 16.2151 4.21752 16.2151 4.32171V15.3217Z" fill="#00AB47"/>
<path d="M17.7871 3.53516H21.7157V16.8923H17.7871V3.53516Z" fill="#00AB47"/>
<path d="M14.6416 4.71484H15.4273V14.9291H14.6416V4.71484Z" fill="#00AB47"/>
<path d="M17.7871 17.6777H21.7157V19.642H17.7871V17.6777Z" fill="#00AB47"/>
<path d="M13.072 0H17.0006V1.57143H13.072V0Z" fill="#00AB47"/>
<path d="M0.5 20.4277H22.5V21.2134H0.5V20.4277Z" fill="#00AB47"/>
<path d="M9.14355 17.2852H12.2864V19.6423H9.14355V17.2852Z" fill="#00AB47"/>
<path d="M8.23211 2.85618L5.19532 2.04297L0.724609 18.7394L3.75747 19.5565L8.23211 2.85618ZM6.03211 3.4879L6.79111 3.6914L6.48586 4.83068L5.72568 4.6264L6.03211 3.4879ZM3.02715 17.7317L2.26854 17.5286L2.67515 16.0106L3.43415 16.2137L3.02715 17.7317ZM2.98 14.8721L5.42004 5.7649L6.17904 5.968L3.73861 15.0756L2.98 14.8721Z" fill="#00AB47"/>
<path d="M17.7871 0.785156H21.7157V2.74944H17.7871V0.785156Z" fill="#00AB47"/>
</svg>
