<svg width="35" height="35" viewBox="0 0 35 35" fill="none" xmlns="http://www.w3.org/2000/svg">
<rect width="35" height="35" rx="12" fill="url(#paint0_linear_596_19972)"/>
<path d="M17.2388 10.3522C17.1748 10.291 17.0897 10.2568 17.0012 10.2568C16.9127 10.2568 16.8275 10.291 16.7636 10.3522L8.85303 17.9091C8.81943 17.9412 8.79271 17.9799 8.77446 18.0226C8.75622 18.0654 8.74684 18.1114 8.74689 18.1579L8.74561 25.2503C8.74561 25.615 8.89047 25.9647 9.14833 26.2226C9.4062 26.4804 9.75593 26.6253 10.1206 26.6253H14.2499C14.4322 26.6253 14.6071 26.5529 14.736 26.4239C14.865 26.295 14.9374 26.1201 14.9374 25.9378V20.0941C14.9374 20.0029 14.9736 19.9155 15.0381 19.851C15.1025 19.7865 15.19 19.7503 15.2812 19.7503H18.7186C18.8098 19.7503 18.8973 19.7865 18.9617 19.851C19.0262 19.9155 19.0624 20.0029 19.0624 20.0941V25.9378C19.0624 26.1201 19.1348 26.295 19.2638 26.4239C19.3927 26.5529 19.5676 26.6253 19.7499 26.6253H23.8775C24.2421 26.6253 24.5919 26.4804 24.8497 26.2226C25.1076 25.9647 25.2525 25.615 25.2525 25.2503V18.1579C25.2525 18.1114 25.2432 18.0654 25.2249 18.0226C25.2067 17.9799 25.1799 17.9412 25.1463 17.9091L17.2388 10.3522Z" fill="white"/>
<path d="M27.0943 16.4928L23.8802 13.4179V8.75195C23.8802 8.56962 23.8078 8.39475 23.6789 8.26582C23.5499 8.13689 23.3751 8.06445 23.1927 8.06445H21.1302C20.9479 8.06445 20.773 8.13689 20.6441 8.26582C20.5152 8.39475 20.4427 8.56962 20.4427 8.75195V10.127L17.954 7.74734C17.7211 7.51187 17.3748 7.37695 17.0005 7.37695C16.6275 7.37695 16.2821 7.51188 16.0492 7.74777L6.90972 16.4919C6.64246 16.7497 6.60894 17.1738 6.85215 17.4531C6.91322 17.5236 6.988 17.581 7.07193 17.6216C7.15586 17.6623 7.2472 17.6855 7.34037 17.6898C7.43355 17.694 7.52662 17.6793 7.61391 17.6464C7.70121 17.6136 7.78091 17.5633 7.84816 17.4987L16.7642 8.97883C16.8281 8.91763 16.9133 8.88348 17.0018 8.88348C17.0903 8.88348 17.1754 8.91763 17.2394 8.97883L26.1563 17.4987C26.2876 17.6246 26.4636 17.6934 26.6455 17.6898C26.8275 17.6863 27.0006 17.6107 27.1269 17.4798C27.3908 17.2065 27.3689 16.7553 27.0943 16.4928Z" fill="white"/>
<defs>
<linearGradient id="paint0_linear_596_19972" x1="9.5" y1="1" x2="17.5" y2="35" gradientUnits="userSpaceOnUse">
<stop stop-color="#00AB47"/>
<stop offset="1" stop-color="#008738"/>
</linearGradient>
</defs>
</svg>
