<svg width="20" height="21" viewBox="0 0 20 21" fill="none" xmlns="http://www.w3.org/2000/svg">
<path d="M19.9943 14.7311C19.9943 15.1469 19.9951 15.5627 19.9943 15.9785C19.9934 16.3225 19.8972 16.4285 19.5705 16.435C17.1053 16.4864 14.8252 17.2041 12.7419 18.6251C11.8357 19.2427 11.0068 19.9613 10.2866 20.8198C10.0838 21.0615 9.91594 21.0582 9.70882 20.8212C7.67899 18.5001 5.18746 17.1175 2.26743 16.604C1.65727 16.4966 1.04237 16.4582 0.425744 16.4355C0.0969336 16.4235 0.00156994 16.3234 0.00113843 15.9794C-0.000156095 15.1247 -0.000587605 14.2704 0.00113843 13.4157C0.00200145 13.1194 0.113331 12.9842 0.371805 13.0055C3.09377 13.2333 5.7359 13.7898 8.15581 15.2303C8.79186 15.6085 9.37181 16.0739 9.87969 16.636C9.95219 16.7161 9.99879 16.7652 10.098 16.6568C11.2812 15.3664 12.7579 14.6223 14.3316 14.0686C15.9592 13.4958 17.6357 13.1805 19.3393 13.0171C19.8463 12.9684 20.0266 12.9796 19.9969 13.6685C19.9818 14.0218 19.9943 14.3765 19.9943 14.7307V14.7311Z" fill="#00AB47"/>
<path d="M9.63438 12.999C8.04307 12.9827 6.45804 12.9107 4.89233 12.661C4.32175 12.5697 3.76016 12.4516 3.22149 12.2691C3.09569 12.2266 2.99236 12.1746 3.00044 12.0495C3.07098 10.9401 3.44882 9.93533 4.52033 9.1734C4.93591 8.87786 5.44897 8.71791 5.94632 8.54125C6.45085 8.36203 6.96616 8.20281 7.47294 8.02833C7.59604 7.98579 7.66118 7.99961 7.74385 8.08976C8.18683 8.57105 8.76055 8.90585 9.49331 9.02981C10.4273 9.18794 11.2095 8.92512 11.8879 8.41838C12.0241 8.31659 12.1508 8.20172 12.2554 8.07849C12.3336 7.98652 12.401 7.98543 12.512 8.02396C13.1558 8.24643 13.7987 8.47072 14.4479 8.68302C15.6178 9.0658 16.3312 9.77429 16.7104 10.7271C16.8663 11.1189 16.9669 11.5184 16.9984 11.9318C17.0146 12.1408 16.909 12.2338 16.683 12.3036C15.9404 12.5337 15.1703 12.6697 14.3881 12.7657C12.8125 12.9591 11.2248 13.0078 9.63348 12.999H9.63438Z" fill="#00AB47"/>
<path d="M9.9912 0C10.3846 0.0086101 10.7396 0.0598607 11.0817 0.180402C12.0729 0.529726 12.6838 1.40345 12.7047 2.49283C12.7087 2.70398 12.7071 2.91513 12.7111 3.12629C12.7147 3.30997 12.7119 3.47192 12.8557 3.64248C13.0448 3.86634 13.0047 4.18369 12.9735 4.46864C12.9154 5.00042 12.6834 5.4547 12.3413 5.85118C12.2552 5.95081 12.1959 6.05577 12.1558 6.18164C12.0164 6.6224 11.7876 7.01026 11.4655 7.33703C10.5605 8.25503 9.28569 8.21526 8.43235 7.24519C8.16192 6.93728 7.9596 6.58796 7.835 6.19476C7.79294 6.06233 7.72924 5.95245 7.6411 5.84626C7.16916 5.27717 6.90474 4.63756 7.03174 3.8729C7.04897 3.7704 7.0702 3.65478 7.15113 3.59943C7.29335 3.50226 7.26491 3.37557 7.25689 3.2415C7.23005 2.78229 7.24167 2.31735 7.43477 1.89955C7.59903 1.54367 7.79654 1.20418 7.94959 0.83969C8.04654 0.608857 8.26528 0.477655 8.48283 0.366954C8.96799 0.119721 9.4844 0.00943011 9.9912 0Z" fill="#00AB47"/>
</svg>
