<svg width="81" height="81" viewBox="0 0 81 81" fill="none" xmlns="http://www.w3.org/2000/svg">
<path opacity="0.3" fill-rule="evenodd" clip-rule="evenodd" d="M80.6872 40.1874C80.6872 62.3822 62.6947 80.3747 40.4999 80.3747C18.305 80.3747 0.3125 62.3822 0.3125 40.1874C0.3125 40.1007 0.312775 40.014 0.313323 39.9275C0.45313 17.8522 18.3917 0 40.4999 0C62.6947 0 80.6872 17.9925 80.6872 40.1874Z" fill="#FF9066"/>
<path opacity="0.78" fill-rule="evenodd" clip-rule="evenodd" d="M38.6656 31.8919C38.6924 31.5429 38.9834 31.2734 39.3334 31.2734H39.8931C40.2372 31.2734 40.5253 31.5342 40.5595 31.8766L41.3923 40.204L47.3062 43.5833C47.5149 43.7026 47.6437 43.9245 47.6437 44.1649V44.6854C47.6437 45.127 47.2237 45.4477 46.7976 45.3315L38.3541 43.0288C38.0442 42.9442 37.8379 42.6515 37.8625 42.3312L38.6656 31.8919Z" fill="#FF9066"/>
<path opacity="0.901274" fill-rule="evenodd" clip-rule="evenodd" d="M30.7493 20.0727C30.3955 19.6511 29.7124 19.8124 29.5847 20.3478L27.3966 29.5214C27.2925 29.9577 27.6382 30.3709 28.086 30.3456L37.523 29.8108C38.0734 29.7796 38.3526 29.1339 37.9982 28.7115L35.5849 25.8355C37.1454 25.3022 38.8001 25.0236 40.4992 25.0236C48.8839 25.0236 55.6811 31.8208 55.6811 40.2055C55.6811 48.5903 48.8839 55.3874 40.4992 55.3874C32.1145 55.3874 25.3173 48.5903 25.3173 40.2055C25.3173 38.798 25.5079 37.4193 25.8796 36.0943L22.4402 35.1295C21.9873 36.7439 21.7451 38.4465 21.7451 40.2055C21.7451 50.5631 30.1416 58.9596 40.4992 58.9596C50.8568 58.9596 59.2533 50.5631 59.2533 40.2055C59.2533 29.8479 50.8568 21.4514 40.4992 21.4514C37.8938 21.4514 35.4125 21.9827 33.1577 22.9429L30.7493 20.0727Z" fill="#FF9066"/>
</svg>
