<svg width="81" height="81" viewBox="0 0 81 81" fill="none" xmlns="http://www.w3.org/2000/svg">
<path opacity="0.21" fill-rule="evenodd" clip-rule="evenodd" d="M80.6875 40.1874C80.6875 62.3822 62.695 80.3747 40.5001 80.3747C18.3052 80.3747 0.312744 62.3822 0.312744 40.1874C0.312744 40.1007 0.313019 40.014 0.313567 39.9275C0.453375 17.8522 18.3919 0 40.5001 0C62.695 0 80.6875 17.9925 80.6875 40.1874Z" fill="#FEC53D"/>
<path fill-rule="evenodd" clip-rule="evenodd" d="M20.4067 32.5728L37.688 42.5502C37.874 42.6576 38.0692 42.7352 38.2678 42.7845V62.135L21.6392 52.2942C20.8753 51.8421 20.4067 51.0203 20.4067 50.1326V32.5728ZM60.5937 32.3086V50.1336C60.5937 51.0213 60.1252 51.8431 59.3612 52.2952L42.7327 62.136V42.6159C42.7732 42.5957 42.8133 42.5741 42.8531 42.5512L60.5937 32.3086Z" fill="#FEC53D"/>
<path opacity="0.499209" fill-rule="evenodd" clip-rule="evenodd" d="M20.9492 27.7307C21.1603 27.4642 21.4267 27.2389 21.7373 27.0734L39.3193 17.7089C40.0574 17.3158 40.9427 17.3158 41.6808 17.7089L59.2628 27.0734C59.5022 27.201 59.7154 27.3641 59.8972 27.5542L40.6205 38.6837C40.4937 38.7568 40.3769 38.8406 40.2704 38.9331C40.1639 38.8406 40.047 38.7568 39.9202 38.6837L20.9492 27.7307Z" fill="#FEC53D"/>
</svg>
