<svg width="81" height="81" viewBox="0 0 81 81" fill="none" xmlns="http://www.w3.org/2000/svg">
<path opacity="0.21" fill-rule="evenodd" clip-rule="evenodd" d="M80.6875 40.1874C80.6875 62.3822 62.695 80.3747 40.5001 80.3747C18.3052 80.3747 0.312744 62.3822 0.312744 40.1874C0.312744 40.1007 0.313019 40.014 0.313567 39.9275C0.453375 17.8522 18.3919 0 40.5001 0C62.695 0 80.6875 17.9925 80.6875 40.1874Z" fill="#8280FF"/>
<path opacity="0.587821" fill-rule="evenodd" clip-rule="evenodd" d="M27.9968 31.2567C27.9968 35.2025 31.1955 38.4011 35.1412 38.4011C39.087 38.4011 42.2857 35.2025 42.2857 31.2567C42.2857 27.311 39.087 24.1123 35.1412 24.1123C31.1955 24.1123 27.9968 27.311 27.9968 31.2567ZM45.8585 38.4011C45.8585 41.3604 48.2575 43.7594 51.2168 43.7594C54.1761 43.7594 56.5751 41.3604 56.5751 38.4011C56.5751 35.4418 54.1761 33.0428 51.2168 33.0428C48.2575 33.0428 45.8585 35.4418 45.8585 38.4011Z" fill="#8280FF"/>
<path fill-rule="evenodd" clip-rule="evenodd" d="M35.1118 41.9736C26.6789 41.9736 19.7601 46.3076 19.0678 54.8322C19.0301 55.2965 19.9181 56.2625 20.366 56.2625H49.8711C51.2128 56.2625 51.2337 55.1827 51.2128 54.8336C50.6894 46.0695 43.6635 41.9736 35.1118 41.9736ZM50.505 45.547C52.7468 48.5319 54.0751 52.2421 54.0751 56.2625L60.9623 56.2625C61.9313 56.2625 61.9464 55.4527 61.9313 55.1908C61.5574 48.6896 56.5894 45.6135 50.505 45.547Z" fill="#8280FF"/>
</svg>
