<svg width="21" height="20" viewBox="0 0 21 20" fill="none" xmlns="http://www.w3.org/2000/svg">
<path d="M6.2726 17.0754C7.46205 17.4114 9.03311 17.5965 10.6963 17.5965C12.3596 17.5965 13.9306 17.4114 15.1201 17.0754C16.5753 16.6643 17.3131 16.0693 17.3131 15.3068C17.3131 14.5444 16.5753 13.9494 15.1201 13.5383C14.4551 13.3505 13.6706 13.2101 12.8176 13.1225C14.4879 10.2715 16.1432 7.04336 16.1432 5.44684C16.1432 2.44344 13.6998 0 10.6963 0C7.69291 0 5.24947 2.44344 5.24947 5.44684C5.24947 7.04332 6.90471 10.2714 8.57506 13.1224C7.72209 13.21 6.93764 13.3504 6.27264 13.5383C4.81744 13.9494 4.07959 14.5444 4.07959 15.3068C4.07955 16.0693 4.8174 16.6643 6.2726 17.0754ZM10.6963 1.17188C13.0536 1.17188 14.9713 3.08961 14.9713 5.44684C14.9713 6.65762 13.4732 9.83152 10.9639 13.9371C10.881 14.0727 10.7492 14.0873 10.6963 14.0873C10.6435 14.0873 10.5116 14.0727 10.4287 13.9371C7.91939 9.83152 6.42127 6.65766 6.42127 5.44684C6.42135 3.08961 8.33908 1.17188 10.6963 1.17188ZM6.80396 14.6089C7.5026 14.431 8.33967 14.3061 9.24197 14.2411C9.30459 14.3444 9.36689 14.4468 9.42881 14.5481C9.70092 14.9934 10.1747 15.2591 10.6963 15.2591C11.2179 15.2591 11.6917 14.9933 11.9638 14.5481C12.0257 14.4468 12.0881 14.3444 12.1507 14.2411C13.053 14.3061 13.89 14.431 14.5887 14.6089C15.6596 14.8817 16.0509 15.1888 16.1313 15.3068C16.0508 15.4249 15.6597 15.732 14.5887 16.0047C13.5257 16.2755 12.1433 16.4246 10.6963 16.4246C9.24928 16.4246 7.86689 16.2755 6.80393 16.0047C5.73299 15.732 5.34178 15.4248 5.26135 15.3068C5.34182 15.1888 5.73303 14.8817 6.80396 14.6089Z" fill="#E97910"/>
<path d="M18.9904 14.0227C18.7067 13.8669 18.3505 13.9705 18.1947 14.2541C18.0389 14.5378 18.1425 14.894 18.4261 15.0498C19.1241 15.4332 19.5244 15.8583 19.5244 16.2161C19.5244 16.6536 18.9045 17.3317 17.1645 17.9229C15.4456 18.5069 13.1484 18.8285 10.6963 18.8285C8.24414 18.8285 5.94699 18.5069 4.22805 17.9229C2.48809 17.3318 1.86816 16.6536 1.86816 16.2161C1.86816 15.8583 2.26848 15.4332 2.96645 15.0498C3.25008 14.894 3.35367 14.5377 3.19785 14.2541C3.04203 13.9705 2.6859 13.8669 2.40219 14.0227C1.62398 14.4502 0.696289 15.1778 0.696289 16.2161C0.696289 17.0119 1.24363 18.1466 3.85105 19.0325C5.68824 19.6566 8.11926 20.0004 10.6963 20.0004C13.2733 20.0004 15.7043 19.6566 17.5415 19.0325C20.1489 18.1466 20.6963 17.0119 20.6963 16.2161C20.6963 15.1778 19.7686 14.4502 18.9904 14.0227Z" fill="#E97910"/>
<path d="M12.8855 5.07305C12.8855 3.8659 11.9034 2.88379 10.6962 2.88379C9.48898 2.88379 8.50684 3.8659 8.50684 5.07305C8.50684 6.28023 9.48898 7.26234 10.6962 7.26234C11.9034 7.26234 12.8855 6.28027 12.8855 5.07305ZM9.67871 5.07305C9.67871 4.51207 10.1352 4.05566 10.6962 4.05566C11.2572 4.05566 11.7136 4.51207 11.7136 5.07305C11.7136 5.63402 11.2572 6.09047 10.6962 6.09047C10.1352 6.09047 9.67871 5.63406 9.67871 5.07305Z" fill="#E97910"/>
</svg>
