<svg width="23" height="25" viewBox="0 0 23 25" fill="none" xmlns="http://www.w3.org/2000/svg">
<path d="M13.1922 4.9992H15.8846L11.7637 0.664062V3.56507C11.7637 4.35089 12.401 4.9992 13.1922 4.9992Z" fill="#00AB47"/>
<path d="M15.934 11.2578C12.3133 11.2578 9.36816 14.2027 9.36816 17.8237C9.36816 21.4445 12.3133 24.3896 15.934 24.3896C19.555 24.3896 22.5001 21.4445 22.5001 17.8237C22.5001 14.2027 19.555 11.2578 15.934 11.2578ZM19.4616 18.3842L16.2418 21.8401C16.1594 21.9281 16.044 21.9776 15.9177 21.9776C15.7913 21.9776 15.6813 21.9281 15.5989 21.8401L12.3847 18.3842C12.2199 18.2083 12.2308 17.9281 12.4067 17.7632C12.5825 17.5983 12.8682 17.6093 13.033 17.7852L15.4945 20.4225V14.1423C15.4945 13.9005 15.6923 13.7027 15.934 13.7027C16.1759 13.7027 16.3737 13.9005 16.3737 14.1423V20.4225L18.8242 17.7852C18.9891 17.6093 19.2638 17.5983 19.4396 17.7632C19.6209 17.9281 19.6264 18.2027 19.4616 18.3842Z" fill="#00AB47"/>
<path d="M8.72534 15.9339H3.9505C3.70878 15.9339 3.51098 15.7363 3.51098 15.4944C3.51098 15.2527 3.70878 15.0549 3.9505 15.0549H9.01656C9.29661 14.3407 9.67027 13.7361 10.1319 13.1317H3.9505C3.70878 13.1317 3.51098 12.9341 3.51098 12.6922C3.51098 12.4505 3.70878 12.2527 3.9505 12.2527H10.9671C12.2856 11.0988 14.0329 10.3627 15.9395 10.3627C16.1208 10.3627 16.2693 10.379 16.489 10.3956V5.87905H13.1922C11.9176 5.87905 10.8846 4.83513 10.8846 3.56587V0H2.45608C1.36807 0 0.5 0.890026 0.5 1.98344V18.7527C0.5 19.8461 1.36807 20.7142 2.45608 20.7142H9.07685C8.6978 19.8351 8.48902 18.8461 8.48902 17.8132C8.48344 17.1649 8.57146 16.5383 8.72534 15.9339ZM3.9505 9.5054H9.51656C9.75828 9.5054 9.95609 9.7032 9.95609 9.94511C9.95609 10.1868 9.75828 10.3846 9.51656 10.3846H3.9505C3.70878 10.3846 3.51098 10.1868 3.51098 9.94511C3.51098 9.7032 3.70878 9.5054 3.9505 9.5054Z" fill="#00AB47"/>
</svg>
