<svg width="23" height="23" viewBox="0 0 23 23" fill="none" xmlns="http://www.w3.org/2000/svg">
<path d="M4.13918 4.71795C4.13918 3.78483 4.41591 2.87266 4.93437 2.0968C5.45283 1.32094 6.18974 0.716225 7.05191 0.359135C7.91407 0.0020442 8.86278 -0.0913869 9.77805 0.0906562C10.6933 0.272699 11.5341 0.72204 12.1939 1.38186C12.8538 2.04167 13.3032 2.88233 13.4852 3.79752C13.6673 4.71272 13.5739 5.66134 13.2167 6.52343C12.8596 7.38552 12.2549 8.12237 11.4789 8.64078C10.703 9.1592 9.79075 9.4359 8.85754 9.4359C7.60616 9.4359 6.40602 8.93883 5.52116 8.05404C4.63629 7.16926 4.13918 5.96923 4.13918 4.71795ZM15.9917 13.7764C15.9763 13.6675 15.9233 13.5673 15.8419 13.4933C15.2228 12.9136 14.4932 12.4644 13.6968 12.1726C12.9003 11.8808 12.0533 11.7523 11.2061 11.7949H6.48775C1.69861 11.7949 0 15.298 0 18.3056C0 20.9949 1.4273 22.4103 4.12857 22.4103H10.2624C10.309 22.4116 10.3552 22.4028 10.398 22.3844C10.4408 22.3661 10.479 22.3387 10.5101 22.3041C10.5758 22.2357 10.6136 22.1453 10.6163 22.0505V20.0513C10.6167 19.5822 10.8034 19.1325 11.1353 18.801L15.8891 14.0241C15.9535 13.9576 15.9902 13.869 15.9917 13.7764ZM12.3857 20.0513V23H15.3347L20.6888 17.6699L17.7174 14.6988L12.3857 20.0513ZM22.6576 14.0489L21.3364 12.7278C21.1154 12.5082 20.8164 12.3849 20.5048 12.3849C20.1932 12.3849 19.8942 12.5082 19.6732 12.7278L18.542 13.872L21.5134 16.8431L22.6576 15.712C22.8769 15.491 23 15.1923 23 14.881C23 14.5697 22.8769 14.2698 22.6576 14.0489Z" fill="#00AB47"/>
</svg>
