<svg width="23" height="22" viewBox="0 0 23 22" fill="none" xmlns="http://www.w3.org/2000/svg">
<path d="M22.1845 20.9663H21.0393V12.1881H22.1841C22.2465 12.1883 22.308 12.1731 22.3631 12.144C22.4182 12.1148 22.4654 12.0726 22.5004 12.021C22.5355 11.9694 22.5573 11.91 22.564 11.848C22.5708 11.7859 22.5622 11.7232 22.539 11.6653L20.2495 5.94022C20.2212 5.86918 20.1723 5.80827 20.109 5.76537C20.0457 5.72247 19.971 5.69955 19.8946 5.6996H13.0247C13.007 5.69782 12.9891 5.69782 12.9714 5.6996L11.8799 4.71497V3.79175H15.3146C15.4159 3.79175 15.513 3.75153 15.5846 3.67995C15.6561 3.60836 15.6964 3.51127 15.6964 3.41003V1.12007C15.6964 1.01883 15.6561 0.921734 15.5846 0.850147C15.513 0.77856 15.4159 0.738342 15.3146 0.738342H11.4982C11.3969 0.738342 11.2998 0.77856 11.2282 0.850147C11.1567 0.921734 11.1164 1.01883 11.1164 1.12007V4.71535L10.0249 5.69999C10.0072 5.69821 9.98936 5.69821 9.97165 5.69999H3.10177C3.02532 5.69994 2.95062 5.72286 2.88735 5.76576C2.82407 5.80866 2.77513 5.86957 2.74687 5.94061L0.45691 11.6653C0.433767 11.7232 0.425184 11.7859 0.431914 11.848C0.438644 11.91 0.460482 11.9694 0.495512 12.021C0.530543 12.0726 0.577698 12.1148 0.632843 12.144C0.687988 12.1731 0.749441 12.1883 0.811813 12.1881H1.9566V20.9663H0.811813C0.761685 20.9663 0.712047 20.9761 0.665734 20.9953C0.619421 21.0145 0.57734 21.0426 0.541893 21.0781C0.506447 21.1135 0.478329 21.1556 0.459146 21.2019C0.439962 21.2482 0.430089 21.2979 0.430089 21.348C0.430089 21.3981 0.439962 21.4477 0.459146 21.4941C0.478329 21.5404 0.506447 21.5825 0.541893 21.6179C0.57734 21.6533 0.619421 21.6815 0.665734 21.7006C0.712047 21.7198 0.761685 21.7297 0.811813 21.7297H22.1845C22.2346 21.7297 22.2843 21.7198 22.3306 21.7006C22.3769 21.6815 22.419 21.6533 22.4544 21.6179C22.4899 21.5825 22.518 21.5404 22.5372 21.4941C22.5564 21.4477 22.5662 21.3981 22.5662 21.348C22.5662 21.2979 22.5564 21.2482 22.5372 21.2019C22.518 21.1556 22.4899 21.1135 22.4544 21.0781C22.419 21.0426 22.3769 21.0145 22.3306 20.9953C22.2843 20.9761 22.2346 20.9663 22.1845 20.9663ZM19.6349 6.46305L21.6193 11.4247H15.6964V8.37128C15.6985 8.34334 15.6985 8.31526 15.6964 8.28732C15.6985 8.26703 15.6985 8.24657 15.6964 8.22629C15.687 8.20919 15.6767 8.19258 15.6657 8.17653C15.6498 8.15099 15.632 8.12669 15.6124 8.10384L13.7881 6.46266L19.6349 6.46305ZM3.36105 6.46305H9.2082L7.4298 8.08907C7.41109 8.11039 7.39443 8.13342 7.38005 8.15787C7.36732 8.17474 7.35588 8.19254 7.34584 8.21113C7.34367 8.23011 7.34367 8.24929 7.34584 8.26827C7.32788 8.30136 7.31255 8.3358 7.29997 8.37128V11.4247H1.37663L3.36105 6.46305ZM2.72005 12.1881H7.29997V20.9663H2.72005V12.1881ZM13.7881 20.9663V15.2412C13.7881 15.1399 13.7479 15.0428 13.6763 14.9712C13.6047 14.8997 13.5076 14.8594 13.4064 14.8594H9.58993C9.48869 14.8594 9.3916 14.8997 9.32001 14.9712C9.24842 15.0428 9.2082 15.1399 9.2082 15.2412V20.9663H8.06303V8.53921L11.4978 5.39834L14.9325 8.53921V20.9663H13.7881ZM15.6964 20.9663V12.1881H20.2763V20.9663H15.6964Z" fill="#F99232"/>
<path d="M5.77396 15.2411H4.24745C4.14621 15.2411 4.04911 15.2814 3.97753 15.353C3.90594 15.4245 3.86572 15.5216 3.86572 15.6229V17.1494C3.86572 17.2506 3.90594 17.3477 3.97753 17.4193C4.04911 17.4909 4.14621 17.5311 4.24745 17.5311H5.77396C5.8752 17.5311 5.97229 17.4909 6.04388 17.4193C6.11546 17.3477 6.15568 17.2506 6.15568 17.1494V15.6229C6.15568 15.5216 6.11546 15.4245 6.04388 15.353C5.97229 15.2814 5.8752 15.2411 5.77396 15.2411Z" fill="#F99232"/>
<path d="M18.7495 15.2411H17.223C17.1218 15.2411 17.0247 15.2814 16.9531 15.353C16.8815 15.4245 16.8413 15.5216 16.8413 15.6229V17.1494C16.8413 17.2506 16.8815 17.3477 16.9531 17.4193C17.0247 17.4909 17.1218 17.5311 17.223 17.5311H18.7495C18.8508 17.5311 18.9479 17.4909 19.0195 17.4193C19.0911 17.3477 19.1313 17.2506 19.1313 17.1494V15.6229C19.1313 15.5216 19.0911 15.4245 19.0195 15.353C18.9479 15.2814 18.8508 15.2411 18.7495 15.2411Z" fill="#F99232"/>
<path d="M11.4982 9.13483C11.1963 9.13483 10.9011 9.22436 10.6501 9.39209C10.3991 9.55983 10.2034 9.79823 10.0879 10.0772C9.97234 10.3561 9.94211 10.663 10.001 10.9591C10.0599 11.2553 10.2053 11.5273 10.4188 11.7407C10.6323 11.9542 10.9043 12.0996 11.2004 12.1585C11.4965 12.2174 11.8034 12.1872 12.0824 12.0716C12.3613 11.9561 12.5997 11.7605 12.7674 11.5094C12.9352 11.2584 13.0247 10.9633 13.0247 10.6613C13.0247 10.2565 12.8639 9.86821 12.5776 9.58193C12.2913 9.29566 11.903 9.13483 11.4982 9.13483Z" fill="#F99232"/>
</svg>
