<svg width="27" height="17" viewBox="0 0 27 17" fill="none" xmlns="http://www.w3.org/2000/svg">
<path d="M26.5319 9.7334C26.4807 9.60273 26.3728 9.50615 26.2364 9.47206C25.9978 9.40957 25.7592 9.35275 25.5263 9.30162C25.3161 8.77326 25.1797 8.22217 25.1172 7.65404C25.1002 7.46088 24.9525 7.30748 24.765 7.27908C24.7536 7.27908 23.6344 7.08591 22.0039 6.47233L23.2538 0.944421C23.2992 0.739894 23.1913 0.529686 22.9924 0.455829C22.7993 0.376291 22.572 0.455829 22.4697 0.63763C22.4584 0.660356 21.0551 2.98969 18.4644 3.12036C16.3567 3.25103 14.2489 3.3533 13.2774 5.25653C12.3059 3.3533 10.1981 3.25103 8.09036 3.12036C5.494 2.98401 4.0964 0.660356 4.08504 0.63763C3.97709 0.455829 3.75552 0.376291 3.56236 0.455829C3.36919 0.535367 3.25557 0.739894 3.30102 0.944421L4.55091 6.47233C2.92037 7.09159 1.80683 7.27908 1.78979 7.27908C1.60231 7.30748 1.45459 7.46656 1.43755 7.65404C1.38074 8.22217 1.24439 8.77326 1.0285 9.30162C0.795563 9.35843 0.556948 9.41525 0.318333 9.47206C0.0399489 9.53455 -0.0964024 9.8868 0.0683555 10.1197C1.28415 11.9662 2.42042 14.091 3.44873 16.4373C3.49418 16.5396 3.5794 16.6248 3.68735 16.6646C3.79529 16.7044 3.9146 16.7044 4.01686 16.6532C5.80647 15.8351 8.29489 15.4431 11.6184 15.4658L11.6241 15.7045C11.6298 15.8749 11.7321 16.0226 11.8912 16.0851C12.3116 16.2555 12.7377 16.4317 13.2774 16.4317C13.8228 16.4317 14.2432 16.2555 14.6636 16.0851C14.8227 16.0226 14.925 15.8692 14.9307 15.7045L14.9363 15.4658C18.3906 15.4204 20.7654 15.8976 22.714 16.693C22.8788 16.693 23.0379 16.5907 23.106 16.4373C24.1457 14.0569 25.2536 11.9889 26.4864 10.1197C26.566 10.0061 26.583 9.86407 26.5319 9.7334ZM2.24998 8.05742C2.82379 7.93243 4.14185 7.60291 5.81784 6.8757C8.06195 5.83034 10.5504 6.44961 11.9423 7.83584C12.1014 8.00628 12.3741 8.01765 12.5445 7.85857C12.7149 7.69949 12.7263 7.42679 12.5672 7.25635C11.2151 5.84171 8.28352 4.75658 5.35765 6.14282L4.5225 2.4386C5.30652 3.14877 6.48255 3.88166 8.05627 3.96119C10.5333 4.14868 12.8513 4.10891 12.8627 7.40975C12.8627 7.64268 13.0558 7.83584 13.2888 7.83584C13.5217 7.83584 13.7149 7.64268 13.7149 7.40975C13.7205 4.11459 16.0385 4.14868 18.5212 3.96119C20.0893 3.88166 21.271 3.14877 22.055 2.4386L21.2199 6.14282C18.2883 4.7509 15.3681 5.83602 14.0103 7.25635C13.8512 7.42679 13.8626 7.69949 14.033 7.85857C14.2034 8.01765 14.4761 8.01197 14.6352 7.83584C16.0271 6.43824 18.5156 5.83034 20.7597 6.87002C22.4357 7.59155 23.7537 7.92675 24.3275 8.05173C24.3787 8.39829 24.4582 8.74485 24.5605 9.08005C21.3392 8.40398 18.6065 8.26194 15.959 8.61986C16.9873 7.79608 18.3053 7.73926 20.0779 7.93243C20.6404 7.98356 20.7426 7.18249 20.1859 7.08591C16.8339 6.65981 14.8511 7.59155 14.283 9.85271C14.0103 9.89816 13.5842 9.96633 13.2888 9.96633C12.9933 9.96633 12.5672 9.90384 12.2945 9.85271C11.7264 7.59155 9.74362 6.65981 6.39733 7.08591C5.84056 7.17681 5.94283 7.98356 6.50527 7.93243C8.27784 7.73926 9.5959 7.79608 10.6242 8.61986C7.98241 8.26194 5.24402 8.40398 2.02272 9.08005C2.11931 8.75054 2.19884 8.40966 2.24998 8.05742ZM22.5038 15.7101C20.646 14.9545 18.169 14.5966 14.9647 14.6136L15.0556 11.2446C15.0613 11.0117 14.8795 10.8128 14.6409 10.8072C14.408 10.8015 14.2091 10.9833 14.2034 11.2219L14.0898 15.3977C13.516 15.6363 13.0445 15.6363 12.4706 15.3977L12.357 11.2219C12.3513 10.989 12.1582 10.8015 11.9196 10.8072C11.6866 10.8128 11.4991 11.0117 11.5048 11.2446L11.5957 14.6193C8.39147 14.6023 5.9201 14.9602 4.05663 15.7158C3.1533 13.6876 2.16476 11.8241 1.10803 10.1652C5.05086 9.22777 8.21535 9.05165 11.3003 9.60273C11.3912 9.81862 11.4594 10.0516 11.5048 10.3129C11.5389 10.4833 11.6696 10.614 11.8343 10.6481C11.8684 10.6538 12.7149 10.8299 13.2717 10.8299C13.8285 10.8299 14.675 10.6538 14.7091 10.6481C14.8795 10.614 15.0102 10.4777 15.0386 10.3072C15.0897 10.0516 15.1579 9.81294 15.2431 9.60273C18.3281 9.05733 21.4982 9.22777 25.4354 10.1652C24.39 11.8298 23.4185 13.6592 22.5038 15.7101Z" fill="#F99232"/>
</svg>
