<svg width="20" height="21" viewBox="0 0 20 21" fill="none" xmlns="http://www.w3.org/2000/svg">
<path d="M17.9553 9.26647C17.3568 9.93828 16.7705 10.662 16.3613 11.6605C16.1751 12.1216 15.7323 12.4208 15.2345 12.4208C14.7338 12.4208 14.291 12.1216 14.1017 11.6574C13.6283 10.497 12.9108 9.70621 12.2145 8.94279C12.0405 8.75043 11.8664 8.55803 11.6955 8.35955C11.6863 8.36261 11.6801 8.36567 11.6711 8.3687C10.9932 8.57327 10.471 9.47104 10.7855 10.2009C10.9992 10.7016 12.4986 10.607 12.3703 11.6849C12.2635 12.5674 13.4177 12.7994 13.8269 12.7567C14.2361 12.7079 14.8651 13.4285 14.5475 13.7461C14.233 14.0637 13.6375 14.0759 13.7291 14.8943C13.7535 15.1324 14.4743 15.1019 14.4743 15.4622C14.4743 15.8256 14.1017 16.2379 14.3887 16.6562C14.4498 16.7478 14.5139 16.818 14.5811 16.873C13.2009 18.1433 11.3596 18.922 9.34115 18.922C5.07527 18.922 1.60637 15.4531 1.60637 11.1872C1.60637 9.89248 1.92703 8.671 2.49193 7.59614C2.48887 8.98553 3.2309 10.1398 3.579 10.4879C4.71493 11.6208 6.36085 11.2635 6.5715 12.2131C6.78525 13.1598 5.44166 13.1628 5.53024 13.8865C5.62181 14.6133 7.37155 14.8057 6.98071 15.4744C6.46463 16.363 7.3288 16.4271 7.07843 17.5233C6.94408 18.1218 7.80822 18.2379 8.12888 17.7829C8.37316 17.4348 8.3243 17.0073 8.81592 16.4851C9.41749 15.8439 10.813 15.74 10.6572 14.6804C10.3916 12.9216 8.68157 12.6467 7.93648 12.2345C7.09064 11.7703 7.2983 10.6558 7.11506 10.1245C6.85856 9.37022 5.98827 10.3352 5.52412 9.89544C4.76073 9.1748 5.66153 8.15489 6.30277 8.17628C7.65551 8.21902 8.0708 9.53513 8.56852 9.4893C9.05406 9.44656 9.36859 8.76866 9.45407 8.40835C9.63426 7.62358 9.14872 7.97474 8.9533 7.56554C8.69069 7.01896 9.87548 6.49679 10.3335 6.09371C10.4038 6.03264 10.4557 5.97463 10.4831 5.91965C10.6206 5.65095 10.4404 5.44635 10.135 5.26008C9.52436 4.89056 8.40978 4.59745 8.35789 4.02033C8.32732 3.66608 9.00526 3.49511 9.77779 3.46457C9.90602 3.47069 10.0312 3.4829 10.1595 3.49511C10.2236 3.13171 10.3274 2.77443 10.4679 2.43246C10.0984 2.38359 9.72284 2.35915 9.34111 2.35915C4.47367 2.35915 0.513184 6.31964 0.513184 11.1871C0.513151 16.0547 4.47367 20.0152 9.34111 20.0152C14.2086 20.0152 18.1691 16.0546 18.1691 11.1872C18.1691 10.5276 18.0958 9.88333 17.9553 9.26647ZM14.8192 0.111894C12.3271 0.347454 10.6202 2.76219 11.0552 5.22733C11.4969 7.7314 13.8057 8.50217 14.9514 11.313C15.0547 11.5663 15.4113 11.5676 15.5145 11.3142C16.7846 8.19669 19.4853 7.58829 19.4853 4.34427C19.4852 1.85935 17.3536 -0.127669 14.8192 0.111894ZM15.2332 6.58977C13.993 6.58977 12.9877 5.58444 12.9877 4.34427C12.9877 3.10414 13.993 2.09881 15.2332 2.09881C16.4734 2.09881 17.4787 3.10414 17.4787 4.34427C17.4787 5.58441 16.4733 6.58977 15.2332 6.58977Z" fill="#F99232"/>
</svg>
